%
M48
M72
T01C0.0320
T02C0.0400
T03C0.0433
T04C0.0512
%
T01
X4680Y1367
X5680Y1367
X22180Y4367
X22180Y5367
T02
X20180Y1367
X19180Y1367
X18180Y1367
X9680Y1367
X8680Y1367
X7680Y1367
T03
X14180Y2867
X16180Y1867
X20680Y2867
X22180Y1367
X13680Y5867
X9180Y6367
X13680Y7867
T04
X25491Y6296
X25491Y3343
X1369Y3438
X1369Y6390
M30
