G75*
G70*
%OFA0B0*%
%FSLAX24Y24*%
%IPPOS*%
%LPD*%
%AMOC8*
5,1,8,0,0,1.08239X$1,22.5*
%
%ADD10C,0.0000*%
D10*
X000947Y001087D02*
X038743Y001087D01*
X038743Y001088D02*
X038797Y001090D01*
X038850Y001095D01*
X038903Y001104D01*
X038955Y001117D01*
X039007Y001133D01*
X039057Y001153D01*
X039105Y001176D01*
X039152Y001203D01*
X039197Y001232D01*
X039240Y001265D01*
X039280Y001300D01*
X039318Y001338D01*
X039353Y001378D01*
X039386Y001421D01*
X039415Y001466D01*
X039442Y001513D01*
X039465Y001561D01*
X039485Y001611D01*
X039501Y001663D01*
X039514Y001715D01*
X039523Y001768D01*
X039528Y001821D01*
X039530Y001875D01*
X039530Y031796D01*
X039528Y031850D01*
X039523Y031903D01*
X039514Y031956D01*
X039501Y032008D01*
X039485Y032060D01*
X039465Y032110D01*
X039442Y032158D01*
X039415Y032205D01*
X039386Y032250D01*
X039353Y032293D01*
X039318Y032333D01*
X039280Y032371D01*
X039240Y032406D01*
X039197Y032439D01*
X039152Y032468D01*
X039105Y032495D01*
X039057Y032518D01*
X039007Y032538D01*
X038955Y032554D01*
X038903Y032567D01*
X038850Y032576D01*
X038797Y032581D01*
X038743Y032583D01*
X000947Y032583D01*
X000893Y032581D01*
X000840Y032576D01*
X000787Y032567D01*
X000735Y032554D01*
X000683Y032538D01*
X000633Y032518D01*
X000585Y032495D01*
X000538Y032468D01*
X000493Y032439D01*
X000450Y032406D01*
X000410Y032371D01*
X000372Y032333D01*
X000337Y032293D01*
X000304Y032250D01*
X000275Y032205D01*
X000248Y032158D01*
X000225Y032110D01*
X000205Y032060D01*
X000189Y032008D01*
X000176Y031956D01*
X000167Y031903D01*
X000162Y031850D01*
X000160Y031796D01*
X000160Y001875D01*
X000162Y001821D01*
X000167Y001768D01*
X000176Y001715D01*
X000189Y001663D01*
X000205Y001611D01*
X000225Y001561D01*
X000248Y001513D01*
X000275Y001466D01*
X000304Y001421D01*
X000337Y001378D01*
X000372Y001338D01*
X000410Y001300D01*
X000450Y001265D01*
X000493Y001232D01*
X000538Y001203D01*
X000585Y001176D01*
X000633Y001153D01*
X000683Y001133D01*
X000735Y001117D01*
X000787Y001104D01*
X000840Y001095D01*
X000893Y001090D01*
X000947Y001088D01*
X010554Y002269D02*
X010556Y002319D01*
X010562Y002369D01*
X010572Y002418D01*
X010586Y002466D01*
X010603Y002513D01*
X010624Y002558D01*
X010649Y002602D01*
X010677Y002643D01*
X010709Y002682D01*
X010743Y002719D01*
X010780Y002753D01*
X010820Y002783D01*
X010862Y002810D01*
X010906Y002834D01*
X010952Y002855D01*
X010999Y002871D01*
X011047Y002884D01*
X011097Y002893D01*
X011146Y002898D01*
X011197Y002899D01*
X011247Y002896D01*
X011296Y002889D01*
X011345Y002878D01*
X011393Y002863D01*
X011439Y002845D01*
X011484Y002823D01*
X011527Y002797D01*
X011568Y002768D01*
X011607Y002736D01*
X011643Y002701D01*
X011675Y002663D01*
X011705Y002623D01*
X011732Y002580D01*
X011755Y002536D01*
X011774Y002490D01*
X011790Y002442D01*
X011802Y002393D01*
X011810Y002344D01*
X011814Y002294D01*
X011814Y002244D01*
X011810Y002194D01*
X011802Y002145D01*
X011790Y002096D01*
X011774Y002048D01*
X011755Y002002D01*
X011732Y001958D01*
X011705Y001915D01*
X011675Y001875D01*
X011643Y001837D01*
X011607Y001802D01*
X011568Y001770D01*
X011527Y001741D01*
X011484Y001715D01*
X011439Y001693D01*
X011393Y001675D01*
X011345Y001660D01*
X011296Y001649D01*
X011247Y001642D01*
X011197Y001639D01*
X011146Y001640D01*
X011097Y001645D01*
X011047Y001654D01*
X010999Y001667D01*
X010952Y001683D01*
X010906Y001704D01*
X010862Y001728D01*
X010820Y001755D01*
X010780Y001785D01*
X010743Y001819D01*
X010709Y001856D01*
X010677Y001895D01*
X010649Y001936D01*
X010624Y001980D01*
X010603Y002025D01*
X010586Y002072D01*
X010572Y002120D01*
X010562Y002169D01*
X010556Y002219D01*
X010554Y002269D01*
X016367Y003221D02*
X017272Y003221D01*
X017272Y003222D02*
X017294Y003224D01*
X017316Y003228D01*
X017337Y003236D01*
X017357Y003247D01*
X017375Y003260D01*
X017391Y003276D01*
X017404Y003294D01*
X017415Y003314D01*
X017423Y003335D01*
X017427Y003357D01*
X017429Y003379D01*
X017427Y003401D01*
X017423Y003423D01*
X017415Y003444D01*
X017404Y003464D01*
X017391Y003482D01*
X017375Y003498D01*
X017357Y003511D01*
X017337Y003522D01*
X017316Y003530D01*
X017294Y003534D01*
X017272Y003536D01*
X016367Y003536D01*
X016210Y003379D02*
X016212Y003357D01*
X016216Y003335D01*
X016224Y003314D01*
X016235Y003294D01*
X016248Y003276D01*
X016264Y003260D01*
X016282Y003247D01*
X016302Y003236D01*
X016323Y003228D01*
X016345Y003224D01*
X016367Y003222D01*
X016210Y003379D02*
X016212Y003401D01*
X016216Y003423D01*
X016224Y003444D01*
X016235Y003464D01*
X016248Y003482D01*
X016264Y003498D01*
X016282Y003511D01*
X016302Y003522D01*
X016323Y003530D01*
X016345Y003534D01*
X016367Y003536D01*
X017469Y002434D02*
X018375Y002434D01*
X018375Y002433D02*
X018397Y002431D01*
X018419Y002427D01*
X018440Y002419D01*
X018460Y002408D01*
X018478Y002395D01*
X018494Y002379D01*
X018507Y002361D01*
X018518Y002341D01*
X018526Y002320D01*
X018530Y002298D01*
X018532Y002276D01*
X018530Y002254D01*
X018526Y002232D01*
X018518Y002211D01*
X018507Y002191D01*
X018494Y002173D01*
X018478Y002157D01*
X018460Y002144D01*
X018440Y002133D01*
X018419Y002125D01*
X018397Y002121D01*
X018375Y002119D01*
X017469Y002119D01*
X017312Y002276D02*
X017314Y002298D01*
X017318Y002320D01*
X017326Y002341D01*
X017337Y002361D01*
X017350Y002379D01*
X017366Y002395D01*
X017384Y002408D01*
X017404Y002419D01*
X017425Y002427D01*
X017447Y002431D01*
X017469Y002433D01*
X017312Y002276D02*
X017314Y002254D01*
X017318Y002232D01*
X017326Y002211D01*
X017337Y002191D01*
X017350Y002173D01*
X017366Y002157D01*
X017384Y002144D01*
X017404Y002133D01*
X017425Y002125D01*
X017447Y002121D01*
X017469Y002119D01*
X019138Y004048D02*
X019138Y004954D01*
X019139Y004954D02*
X019141Y004976D01*
X019145Y004998D01*
X019153Y005019D01*
X019164Y005039D01*
X019177Y005057D01*
X019193Y005073D01*
X019211Y005086D01*
X019231Y005097D01*
X019252Y005105D01*
X019274Y005109D01*
X019296Y005111D01*
X019318Y005109D01*
X019340Y005105D01*
X019361Y005097D01*
X019381Y005086D01*
X019399Y005073D01*
X019415Y005057D01*
X019428Y005039D01*
X019439Y005019D01*
X019447Y004998D01*
X019451Y004976D01*
X019453Y004954D01*
X019453Y004048D01*
X019296Y003891D02*
X019274Y003893D01*
X019252Y003897D01*
X019231Y003905D01*
X019211Y003916D01*
X019193Y003929D01*
X019177Y003945D01*
X019164Y003963D01*
X019153Y003983D01*
X019145Y004004D01*
X019141Y004026D01*
X019139Y004048D01*
X019296Y003891D02*
X019318Y003893D01*
X019340Y003897D01*
X019361Y003905D01*
X019381Y003916D01*
X019399Y003929D01*
X019415Y003945D01*
X019428Y003963D01*
X019439Y003983D01*
X019447Y004004D01*
X019451Y004026D01*
X019453Y004048D01*
X023941Y003536D02*
X024847Y003536D01*
X025004Y003379D02*
X025002Y003357D01*
X024998Y003335D01*
X024990Y003314D01*
X024979Y003294D01*
X024966Y003276D01*
X024950Y003260D01*
X024932Y003247D01*
X024912Y003236D01*
X024891Y003228D01*
X024869Y003224D01*
X024847Y003222D01*
X024847Y003221D02*
X023941Y003221D01*
X023941Y003222D02*
X023919Y003224D01*
X023897Y003228D01*
X023876Y003236D01*
X023856Y003247D01*
X023838Y003260D01*
X023822Y003276D01*
X023809Y003294D01*
X023798Y003314D01*
X023790Y003335D01*
X023786Y003357D01*
X023784Y003379D01*
X023786Y003401D01*
X023790Y003423D01*
X023798Y003444D01*
X023809Y003464D01*
X023822Y003482D01*
X023838Y003498D01*
X023856Y003511D01*
X023876Y003522D01*
X023897Y003530D01*
X023919Y003534D01*
X023941Y003536D01*
X024847Y003536D02*
X024869Y003534D01*
X024891Y003530D01*
X024912Y003522D01*
X024932Y003511D01*
X024950Y003498D01*
X024966Y003482D01*
X024979Y003464D01*
X024990Y003444D01*
X024998Y003423D01*
X025002Y003401D01*
X025004Y003379D01*
X025044Y002434D02*
X025949Y002434D01*
X025949Y002433D02*
X025971Y002431D01*
X025993Y002427D01*
X026014Y002419D01*
X026034Y002408D01*
X026052Y002395D01*
X026068Y002379D01*
X026081Y002361D01*
X026092Y002341D01*
X026100Y002320D01*
X026104Y002298D01*
X026106Y002276D01*
X026104Y002254D01*
X026100Y002232D01*
X026092Y002211D01*
X026081Y002191D01*
X026068Y002173D01*
X026052Y002157D01*
X026034Y002144D01*
X026014Y002133D01*
X025993Y002125D01*
X025971Y002121D01*
X025949Y002119D01*
X025044Y002119D01*
X024887Y002276D02*
X024889Y002298D01*
X024893Y002320D01*
X024901Y002341D01*
X024912Y002361D01*
X024925Y002379D01*
X024941Y002395D01*
X024959Y002408D01*
X024979Y002419D01*
X025000Y002427D01*
X025022Y002431D01*
X025044Y002433D01*
X024887Y002276D02*
X024889Y002254D01*
X024893Y002232D01*
X024901Y002211D01*
X024912Y002191D01*
X024925Y002173D01*
X024941Y002157D01*
X024959Y002144D01*
X024979Y002133D01*
X025000Y002125D01*
X025022Y002121D01*
X025044Y002119D01*
X026713Y004048D02*
X026713Y004954D01*
X026714Y004954D02*
X026716Y004976D01*
X026720Y004998D01*
X026728Y005019D01*
X026739Y005039D01*
X026752Y005057D01*
X026768Y005073D01*
X026786Y005086D01*
X026806Y005097D01*
X026827Y005105D01*
X026849Y005109D01*
X026871Y005111D01*
X026893Y005109D01*
X026915Y005105D01*
X026936Y005097D01*
X026956Y005086D01*
X026974Y005073D01*
X026990Y005057D01*
X027003Y005039D01*
X027014Y005019D01*
X027022Y004998D01*
X027026Y004976D01*
X027028Y004954D01*
X027028Y004048D01*
X026871Y003891D02*
X026849Y003893D01*
X026827Y003897D01*
X026806Y003905D01*
X026786Y003916D01*
X026768Y003929D01*
X026752Y003945D01*
X026739Y003963D01*
X026728Y003983D01*
X026720Y004004D01*
X026716Y004026D01*
X026714Y004048D01*
X026871Y003891D02*
X026893Y003893D01*
X026915Y003897D01*
X026936Y003905D01*
X026956Y003916D01*
X026974Y003929D01*
X026990Y003945D01*
X027003Y003963D01*
X027014Y003983D01*
X027022Y004004D01*
X027026Y004026D01*
X027028Y004048D01*
X031516Y003536D02*
X032422Y003536D01*
X032579Y003379D02*
X032577Y003357D01*
X032573Y003335D01*
X032565Y003314D01*
X032554Y003294D01*
X032541Y003276D01*
X032525Y003260D01*
X032507Y003247D01*
X032487Y003236D01*
X032466Y003228D01*
X032444Y003224D01*
X032422Y003222D01*
X032422Y003221D02*
X031516Y003221D01*
X031516Y003222D02*
X031494Y003224D01*
X031472Y003228D01*
X031451Y003236D01*
X031431Y003247D01*
X031413Y003260D01*
X031397Y003276D01*
X031384Y003294D01*
X031373Y003314D01*
X031365Y003335D01*
X031361Y003357D01*
X031359Y003379D01*
X031361Y003401D01*
X031365Y003423D01*
X031373Y003444D01*
X031384Y003464D01*
X031397Y003482D01*
X031413Y003498D01*
X031431Y003511D01*
X031451Y003522D01*
X031472Y003530D01*
X031494Y003534D01*
X031516Y003536D01*
X032422Y003536D02*
X032444Y003534D01*
X032466Y003530D01*
X032487Y003522D01*
X032507Y003511D01*
X032525Y003498D01*
X032541Y003482D01*
X032554Y003464D01*
X032565Y003444D01*
X032573Y003423D01*
X032577Y003401D01*
X032579Y003379D01*
X032619Y002434D02*
X033524Y002434D01*
X033524Y002433D02*
X033546Y002431D01*
X033568Y002427D01*
X033589Y002419D01*
X033609Y002408D01*
X033627Y002395D01*
X033643Y002379D01*
X033656Y002361D01*
X033667Y002341D01*
X033675Y002320D01*
X033679Y002298D01*
X033681Y002276D01*
X033679Y002254D01*
X033675Y002232D01*
X033667Y002211D01*
X033656Y002191D01*
X033643Y002173D01*
X033627Y002157D01*
X033609Y002144D01*
X033589Y002133D01*
X033568Y002125D01*
X033546Y002121D01*
X033524Y002119D01*
X032619Y002119D01*
X032462Y002276D02*
X032464Y002298D01*
X032468Y002320D01*
X032476Y002341D01*
X032487Y002361D01*
X032500Y002379D01*
X032516Y002395D01*
X032534Y002408D01*
X032554Y002419D01*
X032575Y002427D01*
X032597Y002431D01*
X032619Y002433D01*
X032462Y002276D02*
X032464Y002254D01*
X032468Y002232D01*
X032476Y002211D01*
X032487Y002191D01*
X032500Y002173D01*
X032516Y002157D01*
X032534Y002144D01*
X032554Y002133D01*
X032575Y002125D01*
X032597Y002121D01*
X032619Y002119D01*
X034288Y004048D02*
X034288Y004954D01*
X034290Y004976D01*
X034294Y004998D01*
X034302Y005019D01*
X034313Y005039D01*
X034326Y005057D01*
X034342Y005073D01*
X034360Y005086D01*
X034380Y005097D01*
X034401Y005105D01*
X034423Y005109D01*
X034445Y005111D01*
X034467Y005109D01*
X034489Y005105D01*
X034510Y005097D01*
X034530Y005086D01*
X034548Y005073D01*
X034564Y005057D01*
X034577Y005039D01*
X034588Y005019D01*
X034596Y004998D01*
X034600Y004976D01*
X034602Y004954D01*
X034603Y004954D02*
X034603Y004048D01*
X034445Y003891D02*
X034423Y003893D01*
X034401Y003897D01*
X034380Y003905D01*
X034360Y003916D01*
X034342Y003929D01*
X034326Y003945D01*
X034313Y003963D01*
X034302Y003983D01*
X034294Y004004D01*
X034290Y004026D01*
X034288Y004048D01*
X034445Y003891D02*
X034467Y003893D01*
X034489Y003897D01*
X034510Y003905D01*
X034530Y003916D01*
X034548Y003929D01*
X034564Y003945D01*
X034577Y003963D01*
X034588Y003983D01*
X034596Y004004D01*
X034600Y004026D01*
X034602Y004048D01*
X037719Y002269D02*
X037721Y002319D01*
X037727Y002369D01*
X037737Y002418D01*
X037751Y002466D01*
X037768Y002513D01*
X037789Y002558D01*
X037814Y002602D01*
X037842Y002643D01*
X037874Y002682D01*
X037908Y002719D01*
X037945Y002753D01*
X037985Y002783D01*
X038027Y002810D01*
X038071Y002834D01*
X038117Y002855D01*
X038164Y002871D01*
X038212Y002884D01*
X038262Y002893D01*
X038311Y002898D01*
X038362Y002899D01*
X038412Y002896D01*
X038461Y002889D01*
X038510Y002878D01*
X038558Y002863D01*
X038604Y002845D01*
X038649Y002823D01*
X038692Y002797D01*
X038733Y002768D01*
X038772Y002736D01*
X038808Y002701D01*
X038840Y002663D01*
X038870Y002623D01*
X038897Y002580D01*
X038920Y002536D01*
X038939Y002490D01*
X038955Y002442D01*
X038967Y002393D01*
X038975Y002344D01*
X038979Y002294D01*
X038979Y002244D01*
X038975Y002194D01*
X038967Y002145D01*
X038955Y002096D01*
X038939Y002048D01*
X038920Y002002D01*
X038897Y001958D01*
X038870Y001915D01*
X038840Y001875D01*
X038808Y001837D01*
X038772Y001802D01*
X038733Y001770D01*
X038692Y001741D01*
X038649Y001715D01*
X038604Y001693D01*
X038558Y001675D01*
X038510Y001660D01*
X038461Y001649D01*
X038412Y001642D01*
X038362Y001639D01*
X038311Y001640D01*
X038262Y001645D01*
X038212Y001654D01*
X038164Y001667D01*
X038117Y001683D01*
X038071Y001704D01*
X038027Y001728D01*
X037985Y001755D01*
X037945Y001785D01*
X037908Y001819D01*
X037874Y001856D01*
X037842Y001895D01*
X037814Y001936D01*
X037789Y001980D01*
X037768Y002025D01*
X037751Y002072D01*
X037737Y002120D01*
X037727Y002169D01*
X037721Y002219D01*
X037719Y002269D01*
X037719Y021560D02*
X037721Y021610D01*
X037727Y021660D01*
X037737Y021709D01*
X037751Y021757D01*
X037768Y021804D01*
X037789Y021849D01*
X037814Y021893D01*
X037842Y021934D01*
X037874Y021973D01*
X037908Y022010D01*
X037945Y022044D01*
X037985Y022074D01*
X038027Y022101D01*
X038071Y022125D01*
X038117Y022146D01*
X038164Y022162D01*
X038212Y022175D01*
X038262Y022184D01*
X038311Y022189D01*
X038362Y022190D01*
X038412Y022187D01*
X038461Y022180D01*
X038510Y022169D01*
X038558Y022154D01*
X038604Y022136D01*
X038649Y022114D01*
X038692Y022088D01*
X038733Y022059D01*
X038772Y022027D01*
X038808Y021992D01*
X038840Y021954D01*
X038870Y021914D01*
X038897Y021871D01*
X038920Y021827D01*
X038939Y021781D01*
X038955Y021733D01*
X038967Y021684D01*
X038975Y021635D01*
X038979Y021585D01*
X038979Y021535D01*
X038975Y021485D01*
X038967Y021436D01*
X038955Y021387D01*
X038939Y021339D01*
X038920Y021293D01*
X038897Y021249D01*
X038870Y021206D01*
X038840Y021166D01*
X038808Y021128D01*
X038772Y021093D01*
X038733Y021061D01*
X038692Y021032D01*
X038649Y021006D01*
X038604Y020984D01*
X038558Y020966D01*
X038510Y020951D01*
X038461Y020940D01*
X038412Y020933D01*
X038362Y020930D01*
X038311Y020931D01*
X038262Y020936D01*
X038212Y020945D01*
X038164Y020958D01*
X038117Y020974D01*
X038071Y020995D01*
X038027Y021019D01*
X037985Y021046D01*
X037945Y021076D01*
X037908Y021110D01*
X037874Y021147D01*
X037842Y021186D01*
X037814Y021227D01*
X037789Y021271D01*
X037768Y021316D01*
X037751Y021363D01*
X037737Y021411D01*
X037727Y021460D01*
X037721Y021510D01*
X037719Y021560D01*
X010554Y021560D02*
X010556Y021610D01*
X010562Y021660D01*
X010572Y021709D01*
X010586Y021757D01*
X010603Y021804D01*
X010624Y021849D01*
X010649Y021893D01*
X010677Y021934D01*
X010709Y021973D01*
X010743Y022010D01*
X010780Y022044D01*
X010820Y022074D01*
X010862Y022101D01*
X010906Y022125D01*
X010952Y022146D01*
X010999Y022162D01*
X011047Y022175D01*
X011097Y022184D01*
X011146Y022189D01*
X011197Y022190D01*
X011247Y022187D01*
X011296Y022180D01*
X011345Y022169D01*
X011393Y022154D01*
X011439Y022136D01*
X011484Y022114D01*
X011527Y022088D01*
X011568Y022059D01*
X011607Y022027D01*
X011643Y021992D01*
X011675Y021954D01*
X011705Y021914D01*
X011732Y021871D01*
X011755Y021827D01*
X011774Y021781D01*
X011790Y021733D01*
X011802Y021684D01*
X011810Y021635D01*
X011814Y021585D01*
X011814Y021535D01*
X011810Y021485D01*
X011802Y021436D01*
X011790Y021387D01*
X011774Y021339D01*
X011755Y021293D01*
X011732Y021249D01*
X011705Y021206D01*
X011675Y021166D01*
X011643Y021128D01*
X011607Y021093D01*
X011568Y021061D01*
X011527Y021032D01*
X011484Y021006D01*
X011439Y020984D01*
X011393Y020966D01*
X011345Y020951D01*
X011296Y020940D01*
X011247Y020933D01*
X011197Y020930D01*
X011146Y020931D01*
X011097Y020936D01*
X011047Y020945D01*
X010999Y020958D01*
X010952Y020974D01*
X010906Y020995D01*
X010862Y021019D01*
X010820Y021046D01*
X010780Y021076D01*
X010743Y021110D01*
X010709Y021147D01*
X010677Y021186D01*
X010649Y021227D01*
X010624Y021271D01*
X010603Y021316D01*
X010586Y021363D01*
X010572Y021411D01*
X010562Y021460D01*
X010556Y021510D01*
X010554Y021560D01*
X005432Y028452D02*
X004251Y028452D01*
X004251Y028767D01*
X005432Y028767D01*
X005432Y028452D01*
X005825Y029810D02*
X005825Y031188D01*
X006219Y031188D01*
X006219Y029810D01*
X005825Y029810D01*
X003817Y029908D02*
X003503Y029908D01*
X003503Y031089D01*
X003817Y031089D01*
X003817Y029908D01*
M02*
