%
M48
M72
T01C0.0240
T02C0.0276
T03C0.0320
T04C0.0400
T05C0.0440
T06C0.0470
T07C0.0590
%
T01
X7680Y14180
X9680Y17680
X4680Y23680
X13180Y24680
X19680Y27680
X28180Y27680
X28680Y25680
X29180Y17180
X26180Y10680
X26180Y8680
T02
X30180Y9180
X27680Y13680
X19180Y18680
X19180Y20680
X21180Y27680
X22680Y27680
X29680Y27680
X14180Y27680
X12680Y27680
X5180Y27680
X1680Y29180
X2680Y15680
X15180Y4680
T03
X6180Y4180
X8680Y4180
X8680Y8180
X6180Y8180
X10180Y11180
X8680Y12180
X8680Y13180
X6180Y13180
X6180Y12180
X5180Y15180
X5180Y19180
X3680Y19180
X3680Y20180
X2680Y22680
X2680Y26680
X10680Y20180
X14680Y16680
X14680Y15680
X17180Y15680
X17180Y16680
X21180Y15180
X21680Y17180
X21680Y18180
X21680Y19180
X21680Y20180
X24680Y20180
X24680Y19180
X24680Y18180
X24680Y17180
X25180Y15180
X27680Y16180
X27680Y18180
X27680Y20180
X26680Y22680
X26680Y26680
X31680Y20180
X31680Y18180
X31680Y16180
X31680Y9180
X29680Y8180
X28680Y8180
X27680Y6180
X28680Y4680
X29680Y4680
X31680Y5180
X27680Y2680
X23680Y2680
X21180Y5180
X21180Y6180
X23680Y6180
X18180Y7180
X17180Y7180
X17180Y4180
X18180Y4180
X12680Y5180
X12680Y6180
X14180Y11180
X10680Y16180
X17180Y22680
X17180Y26680
T04
X31180Y26680
X31180Y25680
X31180Y24680
X31180Y23680
X31180Y27680
X15680Y1680
X14680Y1680
X13680Y1680
T05
X24680Y22680
X24680Y26680
T06
X31930Y13680
X31930Y11680
X1930Y11680
X1930Y13680
T07
X6480Y29530
X8680Y29530
X10880Y29530
X14980Y29530
X17180Y29530
X19380Y29530
X23480Y29530
X25680Y29530
X27880Y29530
M30
