G75*
G70*
%OFA0B0*%
%FSLAX24Y24*%
%IPPOS*%
%LPD*%
%AMOC8*
5,1,8,0,0,1.08239X$1,22.5*
%
%ADD10C,0.0000*%
D10*
X000554Y000174D02*
X042680Y000174D01*
X042680Y000175D02*
X042734Y000177D01*
X042787Y000182D01*
X042840Y000191D01*
X042892Y000204D01*
X042944Y000220D01*
X042994Y000240D01*
X043042Y000263D01*
X043089Y000290D01*
X043134Y000319D01*
X043177Y000352D01*
X043217Y000387D01*
X043255Y000425D01*
X043290Y000465D01*
X043323Y000508D01*
X043352Y000553D01*
X043379Y000600D01*
X043402Y000648D01*
X043422Y000698D01*
X043438Y000750D01*
X043451Y000802D01*
X043460Y000855D01*
X043465Y000908D01*
X043467Y000962D01*
X043467Y038757D01*
X043465Y038811D01*
X043460Y038864D01*
X043451Y038917D01*
X043438Y038969D01*
X043422Y039021D01*
X043402Y039071D01*
X043379Y039119D01*
X043352Y039166D01*
X043323Y039211D01*
X043290Y039254D01*
X043255Y039294D01*
X043217Y039332D01*
X043177Y039367D01*
X043134Y039400D01*
X043089Y039429D01*
X043042Y039456D01*
X042994Y039479D01*
X042944Y039499D01*
X042892Y039515D01*
X042840Y039528D01*
X042787Y039537D01*
X042734Y039542D01*
X042680Y039544D01*
X000947Y039544D01*
X000893Y039542D01*
X000840Y039537D01*
X000787Y039528D01*
X000735Y039515D01*
X000683Y039499D01*
X000633Y039479D01*
X000585Y039456D01*
X000538Y039429D01*
X000493Y039400D01*
X000450Y039367D01*
X000410Y039332D01*
X000372Y039294D01*
X000337Y039254D01*
X000304Y039211D01*
X000275Y039166D01*
X000248Y039119D01*
X000225Y039071D01*
X000205Y039021D01*
X000189Y038969D01*
X000176Y038917D01*
X000167Y038864D01*
X000162Y038811D01*
X000160Y038757D01*
X000160Y000962D01*
X000161Y000962D02*
X000147Y000915D01*
X000137Y000867D01*
X000131Y000819D01*
X000129Y000770D01*
X000131Y000721D01*
X000136Y000672D01*
X000145Y000624D01*
X000158Y000577D01*
X000175Y000531D01*
X000195Y000487D01*
X000218Y000444D01*
X000245Y000403D01*
X000275Y000365D01*
X000308Y000329D01*
X000343Y000295D01*
X000382Y000265D01*
X000422Y000237D01*
X000464Y000213D01*
X000509Y000192D01*
X000554Y000175D01*
X010554Y009229D02*
X010556Y009279D01*
X010562Y009329D01*
X010572Y009378D01*
X010586Y009426D01*
X010603Y009473D01*
X010624Y009518D01*
X010649Y009562D01*
X010677Y009603D01*
X010709Y009642D01*
X010743Y009679D01*
X010780Y009713D01*
X010820Y009743D01*
X010862Y009770D01*
X010906Y009794D01*
X010952Y009815D01*
X010999Y009831D01*
X011047Y009844D01*
X011097Y009853D01*
X011146Y009858D01*
X011197Y009859D01*
X011247Y009856D01*
X011296Y009849D01*
X011345Y009838D01*
X011393Y009823D01*
X011439Y009805D01*
X011484Y009783D01*
X011527Y009757D01*
X011568Y009728D01*
X011607Y009696D01*
X011643Y009661D01*
X011675Y009623D01*
X011705Y009583D01*
X011732Y009540D01*
X011755Y009496D01*
X011774Y009450D01*
X011790Y009402D01*
X011802Y009353D01*
X011810Y009304D01*
X011814Y009254D01*
X011814Y009204D01*
X011810Y009154D01*
X011802Y009105D01*
X011790Y009056D01*
X011774Y009008D01*
X011755Y008962D01*
X011732Y008918D01*
X011705Y008875D01*
X011675Y008835D01*
X011643Y008797D01*
X011607Y008762D01*
X011568Y008730D01*
X011527Y008701D01*
X011484Y008675D01*
X011439Y008653D01*
X011393Y008635D01*
X011345Y008620D01*
X011296Y008609D01*
X011247Y008602D01*
X011197Y008599D01*
X011146Y008600D01*
X011097Y008605D01*
X011047Y008614D01*
X010999Y008627D01*
X010952Y008643D01*
X010906Y008664D01*
X010862Y008688D01*
X010820Y008715D01*
X010780Y008745D01*
X010743Y008779D01*
X010709Y008816D01*
X010677Y008855D01*
X010649Y008896D01*
X010624Y008940D01*
X010603Y008985D01*
X010586Y009032D01*
X010572Y009080D01*
X010562Y009129D01*
X010556Y009179D01*
X010554Y009229D01*
X016067Y010036D02*
X016973Y010036D01*
X016973Y010037D02*
X016995Y010039D01*
X017017Y010043D01*
X017038Y010051D01*
X017058Y010062D01*
X017076Y010075D01*
X017092Y010091D01*
X017105Y010109D01*
X017116Y010129D01*
X017124Y010150D01*
X017128Y010172D01*
X017130Y010194D01*
X017128Y010216D01*
X017124Y010238D01*
X017116Y010259D01*
X017105Y010279D01*
X017092Y010297D01*
X017076Y010313D01*
X017058Y010326D01*
X017038Y010337D01*
X017017Y010345D01*
X016995Y010349D01*
X016973Y010351D01*
X016067Y010351D01*
X015910Y010194D02*
X015912Y010172D01*
X015916Y010150D01*
X015924Y010129D01*
X015935Y010109D01*
X015948Y010091D01*
X015964Y010075D01*
X015982Y010062D01*
X016002Y010051D01*
X016023Y010043D01*
X016045Y010039D01*
X016067Y010037D01*
X015910Y010194D02*
X015912Y010216D01*
X015916Y010238D01*
X015924Y010259D01*
X015935Y010279D01*
X015948Y010297D01*
X015964Y010313D01*
X015982Y010326D01*
X016002Y010337D01*
X016023Y010345D01*
X016045Y010349D01*
X016067Y010351D01*
X017170Y009249D02*
X018075Y009249D01*
X018097Y009247D01*
X018119Y009243D01*
X018140Y009235D01*
X018160Y009224D01*
X018178Y009211D01*
X018194Y009195D01*
X018207Y009177D01*
X018218Y009157D01*
X018226Y009136D01*
X018230Y009114D01*
X018232Y009092D01*
X018230Y009070D01*
X018226Y009048D01*
X018218Y009027D01*
X018207Y009007D01*
X018194Y008989D01*
X018178Y008973D01*
X018160Y008960D01*
X018140Y008949D01*
X018119Y008941D01*
X018097Y008937D01*
X018075Y008935D01*
X018075Y008934D02*
X017170Y008934D01*
X017013Y009092D02*
X017015Y009114D01*
X017019Y009136D01*
X017027Y009157D01*
X017038Y009177D01*
X017051Y009195D01*
X017067Y009211D01*
X017085Y009224D01*
X017105Y009235D01*
X017126Y009243D01*
X017148Y009247D01*
X017170Y009249D01*
X017013Y009092D02*
X017015Y009070D01*
X017019Y009048D01*
X017027Y009027D01*
X017038Y009007D01*
X017051Y008989D01*
X017067Y008973D01*
X017085Y008960D01*
X017105Y008949D01*
X017126Y008941D01*
X017148Y008937D01*
X017170Y008935D01*
X018839Y010863D02*
X018839Y011769D01*
X018840Y011769D02*
X018842Y011791D01*
X018846Y011813D01*
X018854Y011834D01*
X018865Y011854D01*
X018878Y011872D01*
X018894Y011888D01*
X018912Y011901D01*
X018932Y011912D01*
X018953Y011920D01*
X018975Y011924D01*
X018997Y011926D01*
X019019Y011924D01*
X019041Y011920D01*
X019062Y011912D01*
X019082Y011901D01*
X019100Y011888D01*
X019116Y011872D01*
X019129Y011854D01*
X019140Y011834D01*
X019148Y011813D01*
X019152Y011791D01*
X019154Y011769D01*
X019154Y010863D01*
X018997Y010706D02*
X018975Y010708D01*
X018953Y010712D01*
X018932Y010720D01*
X018912Y010731D01*
X018894Y010744D01*
X018878Y010760D01*
X018865Y010778D01*
X018854Y010798D01*
X018846Y010819D01*
X018842Y010841D01*
X018840Y010863D01*
X018997Y010706D02*
X019019Y010708D01*
X019041Y010712D01*
X019062Y010720D01*
X019082Y010731D01*
X019100Y010744D01*
X019116Y010760D01*
X019129Y010778D01*
X019140Y010798D01*
X019148Y010819D01*
X019152Y010841D01*
X019154Y010863D01*
X023941Y010351D02*
X024847Y010351D01*
X025004Y010194D02*
X025002Y010172D01*
X024998Y010150D01*
X024990Y010129D01*
X024979Y010109D01*
X024966Y010091D01*
X024950Y010075D01*
X024932Y010062D01*
X024912Y010051D01*
X024891Y010043D01*
X024869Y010039D01*
X024847Y010037D01*
X024847Y010036D02*
X023941Y010036D01*
X023941Y010037D02*
X023919Y010039D01*
X023897Y010043D01*
X023876Y010051D01*
X023856Y010062D01*
X023838Y010075D01*
X023822Y010091D01*
X023809Y010109D01*
X023798Y010129D01*
X023790Y010150D01*
X023786Y010172D01*
X023784Y010194D01*
X023786Y010216D01*
X023790Y010238D01*
X023798Y010259D01*
X023809Y010279D01*
X023822Y010297D01*
X023838Y010313D01*
X023856Y010326D01*
X023876Y010337D01*
X023897Y010345D01*
X023919Y010349D01*
X023941Y010351D01*
X024847Y010351D02*
X024869Y010349D01*
X024891Y010345D01*
X024912Y010337D01*
X024932Y010326D01*
X024950Y010313D01*
X024966Y010297D01*
X024979Y010279D01*
X024990Y010259D01*
X024998Y010238D01*
X025002Y010216D01*
X025004Y010194D01*
X025044Y009249D02*
X025949Y009249D01*
X025971Y009247D01*
X025993Y009243D01*
X026014Y009235D01*
X026034Y009224D01*
X026052Y009211D01*
X026068Y009195D01*
X026081Y009177D01*
X026092Y009157D01*
X026100Y009136D01*
X026104Y009114D01*
X026106Y009092D01*
X026104Y009070D01*
X026100Y009048D01*
X026092Y009027D01*
X026081Y009007D01*
X026068Y008989D01*
X026052Y008973D01*
X026034Y008960D01*
X026014Y008949D01*
X025993Y008941D01*
X025971Y008937D01*
X025949Y008935D01*
X025949Y008934D02*
X025044Y008934D01*
X024887Y009092D02*
X024889Y009114D01*
X024893Y009136D01*
X024901Y009157D01*
X024912Y009177D01*
X024925Y009195D01*
X024941Y009211D01*
X024959Y009224D01*
X024979Y009235D01*
X025000Y009243D01*
X025022Y009247D01*
X025044Y009249D01*
X024887Y009092D02*
X024889Y009070D01*
X024893Y009048D01*
X024901Y009027D01*
X024912Y009007D01*
X024925Y008989D01*
X024941Y008973D01*
X024959Y008960D01*
X024979Y008949D01*
X025000Y008941D01*
X025022Y008937D01*
X025044Y008935D01*
X026713Y010863D02*
X026713Y011769D01*
X026714Y011769D02*
X026716Y011791D01*
X026720Y011813D01*
X026728Y011834D01*
X026739Y011854D01*
X026752Y011872D01*
X026768Y011888D01*
X026786Y011901D01*
X026806Y011912D01*
X026827Y011920D01*
X026849Y011924D01*
X026871Y011926D01*
X026893Y011924D01*
X026915Y011920D01*
X026936Y011912D01*
X026956Y011901D01*
X026974Y011888D01*
X026990Y011872D01*
X027003Y011854D01*
X027014Y011834D01*
X027022Y011813D01*
X027026Y011791D01*
X027028Y011769D01*
X027028Y010863D01*
X026871Y010706D02*
X026849Y010708D01*
X026827Y010712D01*
X026806Y010720D01*
X026786Y010731D01*
X026768Y010744D01*
X026752Y010760D01*
X026739Y010778D01*
X026728Y010798D01*
X026720Y010819D01*
X026716Y010841D01*
X026714Y010863D01*
X026871Y010706D02*
X026893Y010708D01*
X026915Y010712D01*
X026936Y010720D01*
X026956Y010731D01*
X026974Y010744D01*
X026990Y010760D01*
X027003Y010778D01*
X027014Y010798D01*
X027022Y010819D01*
X027026Y010841D01*
X027028Y010863D01*
X031816Y010351D02*
X032721Y010351D01*
X032878Y010194D02*
X032876Y010172D01*
X032872Y010150D01*
X032864Y010129D01*
X032853Y010109D01*
X032840Y010091D01*
X032824Y010075D01*
X032806Y010062D01*
X032786Y010051D01*
X032765Y010043D01*
X032743Y010039D01*
X032721Y010037D01*
X032721Y010036D02*
X031816Y010036D01*
X031816Y010037D02*
X031794Y010039D01*
X031772Y010043D01*
X031751Y010051D01*
X031731Y010062D01*
X031713Y010075D01*
X031697Y010091D01*
X031684Y010109D01*
X031673Y010129D01*
X031665Y010150D01*
X031661Y010172D01*
X031659Y010194D01*
X031661Y010216D01*
X031665Y010238D01*
X031673Y010259D01*
X031684Y010279D01*
X031697Y010297D01*
X031713Y010313D01*
X031731Y010326D01*
X031751Y010337D01*
X031772Y010345D01*
X031794Y010349D01*
X031816Y010351D01*
X032721Y010351D02*
X032743Y010349D01*
X032765Y010345D01*
X032786Y010337D01*
X032806Y010326D01*
X032824Y010313D01*
X032840Y010297D01*
X032853Y010279D01*
X032864Y010259D01*
X032872Y010238D01*
X032876Y010216D01*
X032878Y010194D01*
X032918Y009249D02*
X033823Y009249D01*
X033845Y009247D01*
X033867Y009243D01*
X033888Y009235D01*
X033908Y009224D01*
X033926Y009211D01*
X033942Y009195D01*
X033955Y009177D01*
X033966Y009157D01*
X033974Y009136D01*
X033978Y009114D01*
X033980Y009092D01*
X033978Y009070D01*
X033974Y009048D01*
X033966Y009027D01*
X033955Y009007D01*
X033942Y008989D01*
X033926Y008973D01*
X033908Y008960D01*
X033888Y008949D01*
X033867Y008941D01*
X033845Y008937D01*
X033823Y008935D01*
X033823Y008934D02*
X032918Y008934D01*
X032761Y009092D02*
X032763Y009114D01*
X032767Y009136D01*
X032775Y009157D01*
X032786Y009177D01*
X032799Y009195D01*
X032815Y009211D01*
X032833Y009224D01*
X032853Y009235D01*
X032874Y009243D01*
X032896Y009247D01*
X032918Y009249D01*
X032761Y009092D02*
X032763Y009070D01*
X032767Y009048D01*
X032775Y009027D01*
X032786Y009007D01*
X032799Y008989D01*
X032815Y008973D01*
X032833Y008960D01*
X032853Y008949D01*
X032874Y008941D01*
X032896Y008937D01*
X032918Y008935D01*
X034587Y010863D02*
X034587Y011769D01*
X034588Y011769D02*
X034590Y011791D01*
X034594Y011813D01*
X034602Y011834D01*
X034613Y011854D01*
X034626Y011872D01*
X034642Y011888D01*
X034660Y011901D01*
X034680Y011912D01*
X034701Y011920D01*
X034723Y011924D01*
X034745Y011926D01*
X034767Y011924D01*
X034789Y011920D01*
X034810Y011912D01*
X034830Y011901D01*
X034848Y011888D01*
X034864Y011872D01*
X034877Y011854D01*
X034888Y011834D01*
X034896Y011813D01*
X034900Y011791D01*
X034902Y011769D01*
X034902Y010863D01*
X034745Y010706D02*
X034723Y010708D01*
X034701Y010712D01*
X034680Y010720D01*
X034660Y010731D01*
X034642Y010744D01*
X034626Y010760D01*
X034613Y010778D01*
X034602Y010798D01*
X034594Y010819D01*
X034590Y010841D01*
X034588Y010863D01*
X034745Y010706D02*
X034767Y010708D01*
X034789Y010712D01*
X034810Y010720D01*
X034830Y010731D01*
X034848Y010744D01*
X034864Y010760D01*
X034877Y010778D01*
X034888Y010798D01*
X034896Y010819D01*
X034900Y010841D01*
X034902Y010863D01*
X037719Y009229D02*
X037721Y009279D01*
X037727Y009329D01*
X037737Y009378D01*
X037751Y009426D01*
X037768Y009473D01*
X037789Y009518D01*
X037814Y009562D01*
X037842Y009603D01*
X037874Y009642D01*
X037908Y009679D01*
X037945Y009713D01*
X037985Y009743D01*
X038027Y009770D01*
X038071Y009794D01*
X038117Y009815D01*
X038164Y009831D01*
X038212Y009844D01*
X038262Y009853D01*
X038311Y009858D01*
X038362Y009859D01*
X038412Y009856D01*
X038461Y009849D01*
X038510Y009838D01*
X038558Y009823D01*
X038604Y009805D01*
X038649Y009783D01*
X038692Y009757D01*
X038733Y009728D01*
X038772Y009696D01*
X038808Y009661D01*
X038840Y009623D01*
X038870Y009583D01*
X038897Y009540D01*
X038920Y009496D01*
X038939Y009450D01*
X038955Y009402D01*
X038967Y009353D01*
X038975Y009304D01*
X038979Y009254D01*
X038979Y009204D01*
X038975Y009154D01*
X038967Y009105D01*
X038955Y009056D01*
X038939Y009008D01*
X038920Y008962D01*
X038897Y008918D01*
X038870Y008875D01*
X038840Y008835D01*
X038808Y008797D01*
X038772Y008762D01*
X038733Y008730D01*
X038692Y008701D01*
X038649Y008675D01*
X038604Y008653D01*
X038558Y008635D01*
X038510Y008620D01*
X038461Y008609D01*
X038412Y008602D01*
X038362Y008599D01*
X038311Y008600D01*
X038262Y008605D01*
X038212Y008614D01*
X038164Y008627D01*
X038117Y008643D01*
X038071Y008664D01*
X038027Y008688D01*
X037985Y008715D01*
X037945Y008745D01*
X037908Y008779D01*
X037874Y008816D01*
X037842Y008855D01*
X037814Y008896D01*
X037789Y008940D01*
X037768Y008985D01*
X037751Y009032D01*
X037737Y009080D01*
X037727Y009129D01*
X037721Y009179D01*
X037719Y009229D01*
X030965Y005469D02*
X030965Y004564D01*
X030808Y004407D02*
X030786Y004409D01*
X030764Y004413D01*
X030743Y004421D01*
X030723Y004432D01*
X030705Y004445D01*
X030689Y004461D01*
X030676Y004479D01*
X030665Y004499D01*
X030657Y004520D01*
X030653Y004542D01*
X030651Y004564D01*
X030650Y004564D02*
X030650Y005469D01*
X030651Y005469D02*
X030653Y005491D01*
X030657Y005513D01*
X030665Y005534D01*
X030676Y005554D01*
X030689Y005572D01*
X030705Y005588D01*
X030723Y005601D01*
X030743Y005612D01*
X030764Y005620D01*
X030786Y005624D01*
X030808Y005626D01*
X030830Y005624D01*
X030852Y005620D01*
X030873Y005612D01*
X030893Y005601D01*
X030911Y005588D01*
X030927Y005572D01*
X030940Y005554D01*
X030951Y005534D01*
X030959Y005513D01*
X030963Y005491D01*
X030965Y005469D01*
X030965Y004564D02*
X030963Y004542D01*
X030959Y004520D01*
X030951Y004499D01*
X030940Y004479D01*
X030927Y004461D01*
X030911Y004445D01*
X030893Y004432D01*
X030873Y004421D01*
X030852Y004413D01*
X030830Y004409D01*
X030808Y004407D01*
X029886Y002950D02*
X028981Y002950D01*
X028981Y002949D02*
X028959Y002947D01*
X028937Y002943D01*
X028916Y002935D01*
X028896Y002924D01*
X028878Y002911D01*
X028862Y002895D01*
X028849Y002877D01*
X028838Y002857D01*
X028830Y002836D01*
X028826Y002814D01*
X028824Y002792D01*
X028826Y002770D01*
X028830Y002748D01*
X028838Y002727D01*
X028849Y002707D01*
X028862Y002689D01*
X028878Y002673D01*
X028896Y002660D01*
X028916Y002649D01*
X028937Y002641D01*
X028959Y002637D01*
X028981Y002635D01*
X029886Y002635D01*
X030043Y002792D02*
X030041Y002814D01*
X030037Y002836D01*
X030029Y002857D01*
X030018Y002877D01*
X030005Y002895D01*
X029989Y002911D01*
X029971Y002924D01*
X029951Y002935D01*
X029930Y002943D01*
X029908Y002947D01*
X029886Y002949D01*
X030043Y002792D02*
X030041Y002770D01*
X030037Y002748D01*
X030029Y002727D01*
X030018Y002707D01*
X030005Y002689D01*
X029989Y002673D01*
X029971Y002660D01*
X029951Y002649D01*
X029930Y002641D01*
X029908Y002637D01*
X029886Y002635D01*
X028784Y003737D02*
X027879Y003737D01*
X027879Y003738D02*
X027857Y003740D01*
X027835Y003744D01*
X027814Y003752D01*
X027794Y003763D01*
X027776Y003776D01*
X027760Y003792D01*
X027747Y003810D01*
X027736Y003830D01*
X027728Y003851D01*
X027724Y003873D01*
X027722Y003895D01*
X027724Y003917D01*
X027728Y003939D01*
X027736Y003960D01*
X027747Y003980D01*
X027760Y003998D01*
X027776Y004014D01*
X027794Y004027D01*
X027814Y004038D01*
X027835Y004046D01*
X027857Y004050D01*
X027879Y004052D01*
X028784Y004052D01*
X028941Y003895D02*
X028939Y003873D01*
X028935Y003851D01*
X028927Y003830D01*
X028916Y003810D01*
X028903Y003792D01*
X028887Y003776D01*
X028869Y003763D01*
X028849Y003752D01*
X028828Y003744D01*
X028806Y003740D01*
X028784Y003738D01*
X028941Y003895D02*
X028939Y003917D01*
X028935Y003939D01*
X028927Y003960D01*
X028916Y003980D01*
X028903Y003998D01*
X028887Y004014D01*
X028869Y004027D01*
X028849Y004038D01*
X028828Y004046D01*
X028806Y004050D01*
X028784Y004052D01*
X023091Y004564D02*
X023091Y005469D01*
X022934Y005626D02*
X022912Y005624D01*
X022890Y005620D01*
X022869Y005612D01*
X022849Y005601D01*
X022831Y005588D01*
X022815Y005572D01*
X022802Y005554D01*
X022791Y005534D01*
X022783Y005513D01*
X022779Y005491D01*
X022777Y005469D01*
X022776Y005469D02*
X022776Y004564D01*
X022777Y004564D02*
X022779Y004542D01*
X022783Y004520D01*
X022791Y004499D01*
X022802Y004479D01*
X022815Y004461D01*
X022831Y004445D01*
X022849Y004432D01*
X022869Y004421D01*
X022890Y004413D01*
X022912Y004409D01*
X022934Y004407D01*
X022956Y004409D01*
X022978Y004413D01*
X022999Y004421D01*
X023019Y004432D01*
X023037Y004445D01*
X023053Y004461D01*
X023066Y004479D01*
X023077Y004499D01*
X023085Y004520D01*
X023089Y004542D01*
X023091Y004564D01*
X023091Y005469D02*
X023089Y005491D01*
X023085Y005513D01*
X023077Y005534D01*
X023066Y005554D01*
X023053Y005572D01*
X023037Y005588D01*
X023019Y005601D01*
X022999Y005612D01*
X022978Y005620D01*
X022956Y005624D01*
X022934Y005626D01*
X020910Y004052D02*
X020004Y004052D01*
X019847Y003895D02*
X019849Y003873D01*
X019853Y003851D01*
X019861Y003830D01*
X019872Y003810D01*
X019885Y003792D01*
X019901Y003776D01*
X019919Y003763D01*
X019939Y003752D01*
X019960Y003744D01*
X019982Y003740D01*
X020004Y003738D01*
X020004Y003737D02*
X020910Y003737D01*
X020910Y003738D02*
X020932Y003740D01*
X020954Y003744D01*
X020975Y003752D01*
X020995Y003763D01*
X021013Y003776D01*
X021029Y003792D01*
X021042Y003810D01*
X021053Y003830D01*
X021061Y003851D01*
X021065Y003873D01*
X021067Y003895D01*
X021065Y003917D01*
X021061Y003939D01*
X021053Y003960D01*
X021042Y003980D01*
X021029Y003998D01*
X021013Y004014D01*
X020995Y004027D01*
X020975Y004038D01*
X020954Y004046D01*
X020932Y004050D01*
X020910Y004052D01*
X020004Y004052D02*
X019982Y004050D01*
X019960Y004046D01*
X019939Y004038D01*
X019919Y004027D01*
X019901Y004014D01*
X019885Y003998D01*
X019872Y003980D01*
X019861Y003960D01*
X019853Y003939D01*
X019849Y003917D01*
X019847Y003895D01*
X021107Y002950D02*
X022012Y002950D01*
X022012Y002949D02*
X022034Y002947D01*
X022056Y002943D01*
X022077Y002935D01*
X022097Y002924D01*
X022115Y002911D01*
X022131Y002895D01*
X022144Y002877D01*
X022155Y002857D01*
X022163Y002836D01*
X022167Y002814D01*
X022169Y002792D01*
X022167Y002770D01*
X022163Y002748D01*
X022155Y002727D01*
X022144Y002707D01*
X022131Y002689D01*
X022115Y002673D01*
X022097Y002660D01*
X022077Y002649D01*
X022056Y002641D01*
X022034Y002637D01*
X022012Y002635D01*
X021107Y002635D01*
X020950Y002792D02*
X020952Y002814D01*
X020956Y002836D01*
X020964Y002857D01*
X020975Y002877D01*
X020988Y002895D01*
X021004Y002911D01*
X021022Y002924D01*
X021042Y002935D01*
X021063Y002943D01*
X021085Y002947D01*
X021107Y002949D01*
X020950Y002792D02*
X020952Y002770D01*
X020956Y002748D01*
X020964Y002727D01*
X020975Y002707D01*
X020988Y002689D01*
X021004Y002673D01*
X021022Y002660D01*
X021042Y002649D01*
X021063Y002641D01*
X021085Y002637D01*
X021107Y002635D01*
X010554Y028521D02*
X010556Y028571D01*
X010562Y028621D01*
X010572Y028670D01*
X010586Y028718D01*
X010603Y028765D01*
X010624Y028810D01*
X010649Y028854D01*
X010677Y028895D01*
X010709Y028934D01*
X010743Y028971D01*
X010780Y029005D01*
X010820Y029035D01*
X010862Y029062D01*
X010906Y029086D01*
X010952Y029107D01*
X010999Y029123D01*
X011047Y029136D01*
X011097Y029145D01*
X011146Y029150D01*
X011197Y029151D01*
X011247Y029148D01*
X011296Y029141D01*
X011345Y029130D01*
X011393Y029115D01*
X011439Y029097D01*
X011484Y029075D01*
X011527Y029049D01*
X011568Y029020D01*
X011607Y028988D01*
X011643Y028953D01*
X011675Y028915D01*
X011705Y028875D01*
X011732Y028832D01*
X011755Y028788D01*
X011774Y028742D01*
X011790Y028694D01*
X011802Y028645D01*
X011810Y028596D01*
X011814Y028546D01*
X011814Y028496D01*
X011810Y028446D01*
X011802Y028397D01*
X011790Y028348D01*
X011774Y028300D01*
X011755Y028254D01*
X011732Y028210D01*
X011705Y028167D01*
X011675Y028127D01*
X011643Y028089D01*
X011607Y028054D01*
X011568Y028022D01*
X011527Y027993D01*
X011484Y027967D01*
X011439Y027945D01*
X011393Y027927D01*
X011345Y027912D01*
X011296Y027901D01*
X011247Y027894D01*
X011197Y027891D01*
X011146Y027892D01*
X011097Y027897D01*
X011047Y027906D01*
X010999Y027919D01*
X010952Y027935D01*
X010906Y027956D01*
X010862Y027980D01*
X010820Y028007D01*
X010780Y028037D01*
X010743Y028071D01*
X010709Y028108D01*
X010677Y028147D01*
X010649Y028188D01*
X010624Y028232D01*
X010603Y028277D01*
X010586Y028324D01*
X010572Y028372D01*
X010562Y028421D01*
X010556Y028471D01*
X010554Y028521D01*
X005432Y035412D02*
X004251Y035412D01*
X004251Y035727D01*
X005432Y035727D01*
X005432Y035412D01*
X005825Y036771D02*
X005825Y038149D01*
X006219Y038149D01*
X006219Y036771D01*
X005825Y036771D01*
X003817Y036869D02*
X003503Y036869D01*
X003503Y038050D01*
X003817Y038050D01*
X003817Y036869D01*
X022305Y037182D02*
X022307Y037247D01*
X022313Y037313D01*
X022323Y037377D01*
X022336Y037441D01*
X022354Y037504D01*
X022375Y037566D01*
X022400Y037626D01*
X022429Y037685D01*
X022461Y037742D01*
X022497Y037797D01*
X022535Y037850D01*
X022577Y037900D01*
X022622Y037948D01*
X022670Y037993D01*
X022720Y038035D01*
X022773Y038073D01*
X022828Y038109D01*
X022885Y038141D01*
X022944Y038170D01*
X023004Y038195D01*
X023066Y038216D01*
X023129Y038234D01*
X023193Y038247D01*
X023257Y038257D01*
X023323Y038263D01*
X023388Y038265D01*
X023453Y038263D01*
X023519Y038257D01*
X023583Y038247D01*
X023647Y038234D01*
X023710Y038216D01*
X023772Y038195D01*
X023832Y038170D01*
X023891Y038141D01*
X023948Y038109D01*
X024003Y038073D01*
X024056Y038035D01*
X024106Y037993D01*
X024154Y037948D01*
X024199Y037900D01*
X024241Y037850D01*
X024279Y037797D01*
X024315Y037742D01*
X024347Y037685D01*
X024376Y037626D01*
X024401Y037566D01*
X024422Y037504D01*
X024440Y037441D01*
X024453Y037377D01*
X024463Y037313D01*
X024469Y037247D01*
X024471Y037182D01*
X024469Y037117D01*
X024463Y037051D01*
X024453Y036987D01*
X024440Y036923D01*
X024422Y036860D01*
X024401Y036798D01*
X024376Y036738D01*
X024347Y036679D01*
X024315Y036622D01*
X024279Y036567D01*
X024241Y036514D01*
X024199Y036464D01*
X024154Y036416D01*
X024106Y036371D01*
X024056Y036329D01*
X024003Y036291D01*
X023948Y036255D01*
X023891Y036223D01*
X023832Y036194D01*
X023772Y036169D01*
X023710Y036148D01*
X023647Y036130D01*
X023583Y036117D01*
X023519Y036107D01*
X023453Y036101D01*
X023388Y036099D01*
X023323Y036101D01*
X023257Y036107D01*
X023193Y036117D01*
X023129Y036130D01*
X023066Y036148D01*
X023004Y036169D01*
X022944Y036194D01*
X022885Y036223D01*
X022828Y036255D01*
X022773Y036291D01*
X022720Y036329D01*
X022670Y036371D01*
X022622Y036416D01*
X022577Y036464D01*
X022535Y036514D01*
X022497Y036567D01*
X022461Y036622D01*
X022429Y036679D01*
X022400Y036738D01*
X022375Y036798D01*
X022354Y036860D01*
X022336Y036923D01*
X022323Y036987D01*
X022313Y037051D01*
X022307Y037117D01*
X022305Y037182D01*
X037719Y028521D02*
X037721Y028571D01*
X037727Y028621D01*
X037737Y028670D01*
X037751Y028718D01*
X037768Y028765D01*
X037789Y028810D01*
X037814Y028854D01*
X037842Y028895D01*
X037874Y028934D01*
X037908Y028971D01*
X037945Y029005D01*
X037985Y029035D01*
X038027Y029062D01*
X038071Y029086D01*
X038117Y029107D01*
X038164Y029123D01*
X038212Y029136D01*
X038262Y029145D01*
X038311Y029150D01*
X038362Y029151D01*
X038412Y029148D01*
X038461Y029141D01*
X038510Y029130D01*
X038558Y029115D01*
X038604Y029097D01*
X038649Y029075D01*
X038692Y029049D01*
X038733Y029020D01*
X038772Y028988D01*
X038808Y028953D01*
X038840Y028915D01*
X038870Y028875D01*
X038897Y028832D01*
X038920Y028788D01*
X038939Y028742D01*
X038955Y028694D01*
X038967Y028645D01*
X038975Y028596D01*
X038979Y028546D01*
X038979Y028496D01*
X038975Y028446D01*
X038967Y028397D01*
X038955Y028348D01*
X038939Y028300D01*
X038920Y028254D01*
X038897Y028210D01*
X038870Y028167D01*
X038840Y028127D01*
X038808Y028089D01*
X038772Y028054D01*
X038733Y028022D01*
X038692Y027993D01*
X038649Y027967D01*
X038604Y027945D01*
X038558Y027927D01*
X038510Y027912D01*
X038461Y027901D01*
X038412Y027894D01*
X038362Y027891D01*
X038311Y027892D01*
X038262Y027897D01*
X038212Y027906D01*
X038164Y027919D01*
X038117Y027935D01*
X038071Y027956D01*
X038027Y027980D01*
X037985Y028007D01*
X037945Y028037D01*
X037908Y028071D01*
X037874Y028108D01*
X037842Y028147D01*
X037814Y028188D01*
X037789Y028232D01*
X037768Y028277D01*
X037751Y028324D01*
X037737Y028372D01*
X037727Y028421D01*
X037721Y028471D01*
X037719Y028521D01*
M02*
