G75*
G70*
%OFA0B0*%
%FSLAX24Y24*%
%IPPOS*%
%LPD*%
%AMOC8*
5,1,8,0,0,1.08239X$1,22.5*
%
%ADD10C,0.0000*%
%ADD11C,0.1300*%
%ADD12C,0.0827*%
%ADD13C,0.1346*%
%ADD14C,0.0594*%
%ADD15R,0.1103X0.1103*%
%ADD16C,0.0700*%
%ADD17R,0.0138X0.0631*%
%ADD18R,0.0631X0.0138*%
%ADD19R,0.0749X0.1300*%
%ADD20R,0.0749X0.0985*%
%ADD21R,0.0552X0.0670*%
%ADD22R,0.1536X0.0591*%
%ADD23R,0.1615X0.0670*%
%ADD24R,0.0670X0.0552*%
%ADD25R,0.0926X0.0926*%
%ADD26C,0.2205*%
%ADD27R,0.0260X0.0560*%
%ADD28R,0.1300X0.0749*%
%ADD29R,0.0540X0.0290*%
%ADD30R,0.0640X0.0260*%
%ADD31R,0.0634X0.0634*%
%ADD32R,0.0555X0.0555*%
%ADD33C,0.0640*%
%ADD34R,0.3583X0.2009*%
%ADD35R,0.0560X0.0430*%
%ADD36R,0.1575X0.0670*%
%ADD37R,0.0906X0.0276*%
%ADD38R,0.0670X0.0631*%
%ADD39R,0.0510X0.0510*%
%ADD40C,0.0780*%
%ADD41R,0.0906X0.0749*%
%ADD42R,0.0512X0.0512*%
%ADD43R,0.3780X0.4138*%
%ADD44R,0.0460X0.0890*%
%ADD45R,0.1536X0.1142*%
%ADD46C,0.0900*%
%ADD47R,0.0500X0.0180*%
%ADD48R,0.0560X0.0260*%
%ADD49R,0.0749X0.0749*%
%ADD50R,0.0749X0.0906*%
%ADD51R,0.0276X0.0434*%
%ADD52R,0.0276X0.0906*%
%ADD53R,0.0867X0.0867*%
%ADD54R,0.0465X0.0453*%
%ADD55R,0.0788X0.0552*%
%ADD56R,0.0434X0.0591*%
D10*
X000554Y000174D02*
X042680Y000174D01*
X042680Y000175D02*
X042734Y000177D01*
X042787Y000182D01*
X042840Y000191D01*
X042892Y000204D01*
X042944Y000220D01*
X042994Y000240D01*
X043042Y000263D01*
X043089Y000290D01*
X043134Y000319D01*
X043177Y000352D01*
X043217Y000387D01*
X043255Y000425D01*
X043290Y000465D01*
X043323Y000508D01*
X043352Y000553D01*
X043379Y000600D01*
X043402Y000648D01*
X043422Y000698D01*
X043438Y000750D01*
X043451Y000802D01*
X043460Y000855D01*
X043465Y000908D01*
X043467Y000962D01*
X043467Y038757D01*
X043465Y038811D01*
X043460Y038864D01*
X043451Y038917D01*
X043438Y038969D01*
X043422Y039021D01*
X043402Y039071D01*
X043379Y039119D01*
X043352Y039166D01*
X043323Y039211D01*
X043290Y039254D01*
X043255Y039294D01*
X043217Y039332D01*
X043177Y039367D01*
X043134Y039400D01*
X043089Y039429D01*
X043042Y039456D01*
X042994Y039479D01*
X042944Y039499D01*
X042892Y039515D01*
X042840Y039528D01*
X042787Y039537D01*
X042734Y039542D01*
X042680Y039544D01*
X000947Y039544D01*
X000893Y039542D01*
X000840Y039537D01*
X000787Y039528D01*
X000735Y039515D01*
X000683Y039499D01*
X000633Y039479D01*
X000585Y039456D01*
X000538Y039429D01*
X000493Y039400D01*
X000450Y039367D01*
X000410Y039332D01*
X000372Y039294D01*
X000337Y039254D01*
X000304Y039211D01*
X000275Y039166D01*
X000248Y039119D01*
X000225Y039071D01*
X000205Y039021D01*
X000189Y038969D01*
X000176Y038917D01*
X000167Y038864D01*
X000162Y038811D01*
X000160Y038757D01*
X000160Y000962D01*
X000161Y000962D02*
X000147Y000915D01*
X000137Y000867D01*
X000131Y000819D01*
X000129Y000770D01*
X000131Y000721D01*
X000136Y000672D01*
X000145Y000624D01*
X000158Y000577D01*
X000175Y000531D01*
X000195Y000487D01*
X000218Y000444D01*
X000245Y000403D01*
X000275Y000365D01*
X000308Y000329D01*
X000343Y000295D01*
X000382Y000265D01*
X000422Y000237D01*
X000464Y000213D01*
X000509Y000192D01*
X000554Y000175D01*
X010554Y009229D02*
X010556Y009279D01*
X010562Y009329D01*
X010572Y009378D01*
X010586Y009426D01*
X010603Y009473D01*
X010624Y009518D01*
X010649Y009562D01*
X010677Y009603D01*
X010709Y009642D01*
X010743Y009679D01*
X010780Y009713D01*
X010820Y009743D01*
X010862Y009770D01*
X010906Y009794D01*
X010952Y009815D01*
X010999Y009831D01*
X011047Y009844D01*
X011097Y009853D01*
X011146Y009858D01*
X011197Y009859D01*
X011247Y009856D01*
X011296Y009849D01*
X011345Y009838D01*
X011393Y009823D01*
X011439Y009805D01*
X011484Y009783D01*
X011527Y009757D01*
X011568Y009728D01*
X011607Y009696D01*
X011643Y009661D01*
X011675Y009623D01*
X011705Y009583D01*
X011732Y009540D01*
X011755Y009496D01*
X011774Y009450D01*
X011790Y009402D01*
X011802Y009353D01*
X011810Y009304D01*
X011814Y009254D01*
X011814Y009204D01*
X011810Y009154D01*
X011802Y009105D01*
X011790Y009056D01*
X011774Y009008D01*
X011755Y008962D01*
X011732Y008918D01*
X011705Y008875D01*
X011675Y008835D01*
X011643Y008797D01*
X011607Y008762D01*
X011568Y008730D01*
X011527Y008701D01*
X011484Y008675D01*
X011439Y008653D01*
X011393Y008635D01*
X011345Y008620D01*
X011296Y008609D01*
X011247Y008602D01*
X011197Y008599D01*
X011146Y008600D01*
X011097Y008605D01*
X011047Y008614D01*
X010999Y008627D01*
X010952Y008643D01*
X010906Y008664D01*
X010862Y008688D01*
X010820Y008715D01*
X010780Y008745D01*
X010743Y008779D01*
X010709Y008816D01*
X010677Y008855D01*
X010649Y008896D01*
X010624Y008940D01*
X010603Y008985D01*
X010586Y009032D01*
X010572Y009080D01*
X010562Y009129D01*
X010556Y009179D01*
X010554Y009229D01*
X010554Y028521D02*
X010556Y028571D01*
X010562Y028621D01*
X010572Y028670D01*
X010586Y028718D01*
X010603Y028765D01*
X010624Y028810D01*
X010649Y028854D01*
X010677Y028895D01*
X010709Y028934D01*
X010743Y028971D01*
X010780Y029005D01*
X010820Y029035D01*
X010862Y029062D01*
X010906Y029086D01*
X010952Y029107D01*
X010999Y029123D01*
X011047Y029136D01*
X011097Y029145D01*
X011146Y029150D01*
X011197Y029151D01*
X011247Y029148D01*
X011296Y029141D01*
X011345Y029130D01*
X011393Y029115D01*
X011439Y029097D01*
X011484Y029075D01*
X011527Y029049D01*
X011568Y029020D01*
X011607Y028988D01*
X011643Y028953D01*
X011675Y028915D01*
X011705Y028875D01*
X011732Y028832D01*
X011755Y028788D01*
X011774Y028742D01*
X011790Y028694D01*
X011802Y028645D01*
X011810Y028596D01*
X011814Y028546D01*
X011814Y028496D01*
X011810Y028446D01*
X011802Y028397D01*
X011790Y028348D01*
X011774Y028300D01*
X011755Y028254D01*
X011732Y028210D01*
X011705Y028167D01*
X011675Y028127D01*
X011643Y028089D01*
X011607Y028054D01*
X011568Y028022D01*
X011527Y027993D01*
X011484Y027967D01*
X011439Y027945D01*
X011393Y027927D01*
X011345Y027912D01*
X011296Y027901D01*
X011247Y027894D01*
X011197Y027891D01*
X011146Y027892D01*
X011097Y027897D01*
X011047Y027906D01*
X010999Y027919D01*
X010952Y027935D01*
X010906Y027956D01*
X010862Y027980D01*
X010820Y028007D01*
X010780Y028037D01*
X010743Y028071D01*
X010709Y028108D01*
X010677Y028147D01*
X010649Y028188D01*
X010624Y028232D01*
X010603Y028277D01*
X010586Y028324D01*
X010572Y028372D01*
X010562Y028421D01*
X010556Y028471D01*
X010554Y028521D01*
X022305Y037182D02*
X022307Y037247D01*
X022313Y037313D01*
X022323Y037377D01*
X022336Y037441D01*
X022354Y037504D01*
X022375Y037566D01*
X022400Y037626D01*
X022429Y037685D01*
X022461Y037742D01*
X022497Y037797D01*
X022535Y037850D01*
X022577Y037900D01*
X022622Y037948D01*
X022670Y037993D01*
X022720Y038035D01*
X022773Y038073D01*
X022828Y038109D01*
X022885Y038141D01*
X022944Y038170D01*
X023004Y038195D01*
X023066Y038216D01*
X023129Y038234D01*
X023193Y038247D01*
X023257Y038257D01*
X023323Y038263D01*
X023388Y038265D01*
X023453Y038263D01*
X023519Y038257D01*
X023583Y038247D01*
X023647Y038234D01*
X023710Y038216D01*
X023772Y038195D01*
X023832Y038170D01*
X023891Y038141D01*
X023948Y038109D01*
X024003Y038073D01*
X024056Y038035D01*
X024106Y037993D01*
X024154Y037948D01*
X024199Y037900D01*
X024241Y037850D01*
X024279Y037797D01*
X024315Y037742D01*
X024347Y037685D01*
X024376Y037626D01*
X024401Y037566D01*
X024422Y037504D01*
X024440Y037441D01*
X024453Y037377D01*
X024463Y037313D01*
X024469Y037247D01*
X024471Y037182D01*
X024469Y037117D01*
X024463Y037051D01*
X024453Y036987D01*
X024440Y036923D01*
X024422Y036860D01*
X024401Y036798D01*
X024376Y036738D01*
X024347Y036679D01*
X024315Y036622D01*
X024279Y036567D01*
X024241Y036514D01*
X024199Y036464D01*
X024154Y036416D01*
X024106Y036371D01*
X024056Y036329D01*
X024003Y036291D01*
X023948Y036255D01*
X023891Y036223D01*
X023832Y036194D01*
X023772Y036169D01*
X023710Y036148D01*
X023647Y036130D01*
X023583Y036117D01*
X023519Y036107D01*
X023453Y036101D01*
X023388Y036099D01*
X023323Y036101D01*
X023257Y036107D01*
X023193Y036117D01*
X023129Y036130D01*
X023066Y036148D01*
X023004Y036169D01*
X022944Y036194D01*
X022885Y036223D01*
X022828Y036255D01*
X022773Y036291D01*
X022720Y036329D01*
X022670Y036371D01*
X022622Y036416D01*
X022577Y036464D01*
X022535Y036514D01*
X022497Y036567D01*
X022461Y036622D01*
X022429Y036679D01*
X022400Y036738D01*
X022375Y036798D01*
X022354Y036860D01*
X022336Y036923D01*
X022323Y036987D01*
X022313Y037051D01*
X022307Y037117D01*
X022305Y037182D01*
X037719Y028521D02*
X037721Y028571D01*
X037727Y028621D01*
X037737Y028670D01*
X037751Y028718D01*
X037768Y028765D01*
X037789Y028810D01*
X037814Y028854D01*
X037842Y028895D01*
X037874Y028934D01*
X037908Y028971D01*
X037945Y029005D01*
X037985Y029035D01*
X038027Y029062D01*
X038071Y029086D01*
X038117Y029107D01*
X038164Y029123D01*
X038212Y029136D01*
X038262Y029145D01*
X038311Y029150D01*
X038362Y029151D01*
X038412Y029148D01*
X038461Y029141D01*
X038510Y029130D01*
X038558Y029115D01*
X038604Y029097D01*
X038649Y029075D01*
X038692Y029049D01*
X038733Y029020D01*
X038772Y028988D01*
X038808Y028953D01*
X038840Y028915D01*
X038870Y028875D01*
X038897Y028832D01*
X038920Y028788D01*
X038939Y028742D01*
X038955Y028694D01*
X038967Y028645D01*
X038975Y028596D01*
X038979Y028546D01*
X038979Y028496D01*
X038975Y028446D01*
X038967Y028397D01*
X038955Y028348D01*
X038939Y028300D01*
X038920Y028254D01*
X038897Y028210D01*
X038870Y028167D01*
X038840Y028127D01*
X038808Y028089D01*
X038772Y028054D01*
X038733Y028022D01*
X038692Y027993D01*
X038649Y027967D01*
X038604Y027945D01*
X038558Y027927D01*
X038510Y027912D01*
X038461Y027901D01*
X038412Y027894D01*
X038362Y027891D01*
X038311Y027892D01*
X038262Y027897D01*
X038212Y027906D01*
X038164Y027919D01*
X038117Y027935D01*
X038071Y027956D01*
X038027Y027980D01*
X037985Y028007D01*
X037945Y028037D01*
X037908Y028071D01*
X037874Y028108D01*
X037842Y028147D01*
X037814Y028188D01*
X037789Y028232D01*
X037768Y028277D01*
X037751Y028324D01*
X037737Y028372D01*
X037727Y028421D01*
X037721Y028471D01*
X037719Y028521D01*
X037719Y009229D02*
X037721Y009279D01*
X037727Y009329D01*
X037737Y009378D01*
X037751Y009426D01*
X037768Y009473D01*
X037789Y009518D01*
X037814Y009562D01*
X037842Y009603D01*
X037874Y009642D01*
X037908Y009679D01*
X037945Y009713D01*
X037985Y009743D01*
X038027Y009770D01*
X038071Y009794D01*
X038117Y009815D01*
X038164Y009831D01*
X038212Y009844D01*
X038262Y009853D01*
X038311Y009858D01*
X038362Y009859D01*
X038412Y009856D01*
X038461Y009849D01*
X038510Y009838D01*
X038558Y009823D01*
X038604Y009805D01*
X038649Y009783D01*
X038692Y009757D01*
X038733Y009728D01*
X038772Y009696D01*
X038808Y009661D01*
X038840Y009623D01*
X038870Y009583D01*
X038897Y009540D01*
X038920Y009496D01*
X038939Y009450D01*
X038955Y009402D01*
X038967Y009353D01*
X038975Y009304D01*
X038979Y009254D01*
X038979Y009204D01*
X038975Y009154D01*
X038967Y009105D01*
X038955Y009056D01*
X038939Y009008D01*
X038920Y008962D01*
X038897Y008918D01*
X038870Y008875D01*
X038840Y008835D01*
X038808Y008797D01*
X038772Y008762D01*
X038733Y008730D01*
X038692Y008701D01*
X038649Y008675D01*
X038604Y008653D01*
X038558Y008635D01*
X038510Y008620D01*
X038461Y008609D01*
X038412Y008602D01*
X038362Y008599D01*
X038311Y008600D01*
X038262Y008605D01*
X038212Y008614D01*
X038164Y008627D01*
X038117Y008643D01*
X038071Y008664D01*
X038027Y008688D01*
X037985Y008715D01*
X037945Y008745D01*
X037908Y008779D01*
X037874Y008816D01*
X037842Y008855D01*
X037814Y008896D01*
X037789Y008940D01*
X037768Y008985D01*
X037751Y009032D01*
X037737Y009080D01*
X037727Y009129D01*
X037721Y009179D01*
X037719Y009229D01*
D11*
X038349Y009229D03*
X038349Y028521D03*
X011184Y028521D03*
X011184Y009229D03*
D12*
X016123Y010194D02*
X016910Y010194D01*
X017225Y009092D02*
X018012Y009092D01*
X018997Y010903D02*
X018997Y011690D01*
X023997Y010194D02*
X024784Y010194D01*
X025099Y009092D02*
X025886Y009092D01*
X026871Y010903D02*
X026871Y011690D01*
X031871Y010194D02*
X032658Y010194D01*
X032973Y009092D02*
X033760Y009092D01*
X034745Y010903D02*
X034745Y011690D01*
X030808Y005391D02*
X030808Y004603D01*
X029823Y002792D02*
X029036Y002792D01*
X028721Y003895D02*
X027934Y003895D01*
X022934Y004603D02*
X022934Y005391D01*
X020847Y003895D02*
X020060Y003895D01*
X021162Y002792D02*
X021949Y002792D01*
D13*
X023613Y017073D03*
X026314Y017073D03*
X031487Y017073D03*
X034188Y017073D03*
X039361Y017073D03*
X018440Y017073D03*
X015739Y017073D03*
X010566Y017073D03*
D14*
X011774Y018140D03*
X012758Y018140D03*
X013546Y018140D03*
X014530Y018140D03*
X019648Y018140D03*
X020632Y018140D03*
X021420Y018140D03*
X022404Y018140D03*
X027522Y018140D03*
X028506Y018140D03*
X029294Y018140D03*
X030278Y018140D03*
X035396Y018140D03*
X036380Y018140D03*
X037168Y018140D03*
X038152Y018140D03*
D15*
X015908Y007851D03*
X015908Y005686D03*
X008097Y031706D03*
X005932Y031706D03*
D16*
X022636Y031080D03*
X023601Y031080D03*
X024601Y031080D03*
X025601Y031080D03*
X026601Y031080D03*
X027601Y031080D03*
X028601Y031080D03*
X029601Y031080D03*
X030601Y031080D03*
X031601Y031080D03*
X032601Y031080D03*
X033601Y031080D03*
X034601Y031080D03*
X035601Y031080D03*
X036601Y031080D03*
X037601Y031080D03*
D17*
X016377Y027347D03*
X016180Y027347D03*
X015983Y027347D03*
X015786Y027347D03*
X015589Y027347D03*
X015392Y027347D03*
X015195Y027347D03*
X014999Y027347D03*
X014802Y027347D03*
X014605Y027347D03*
X014408Y027347D03*
X014211Y027347D03*
X014211Y023962D03*
X014408Y023962D03*
X014605Y023962D03*
X014802Y023962D03*
X014999Y023962D03*
X015195Y023962D03*
X015392Y023962D03*
X015589Y023962D03*
X015786Y023962D03*
X015983Y023962D03*
X016180Y023962D03*
X016377Y023962D03*
D18*
X016987Y024572D03*
X016987Y024769D03*
X016987Y024966D03*
X016987Y025162D03*
X016987Y025359D03*
X016987Y025556D03*
X016987Y025753D03*
X016987Y025950D03*
X016987Y026147D03*
X016987Y026344D03*
X016987Y026540D03*
X016987Y026737D03*
X013601Y026737D03*
X013601Y026540D03*
X013601Y026344D03*
X013601Y026147D03*
X013601Y025950D03*
X013601Y025753D03*
X013601Y025556D03*
X013601Y025359D03*
X013601Y025162D03*
X013601Y024966D03*
X013601Y024769D03*
X013601Y024572D03*
D19*
X009530Y036690D03*
X007325Y036690D03*
D20*
X039914Y035214D03*
X041508Y035214D03*
X041508Y032458D03*
X039914Y032458D03*
X007650Y001355D03*
X006056Y001355D03*
D21*
X019058Y020647D03*
X019845Y020647D03*
X019825Y021828D03*
X019077Y021828D03*
X024569Y023403D03*
X025357Y023403D03*
X019058Y028914D03*
X018270Y028914D03*
X017877Y027733D03*
X018664Y027733D03*
X019471Y030095D03*
X020219Y030095D03*
X012046Y023796D03*
X011258Y023796D03*
X011184Y022615D03*
X010396Y022615D03*
X008802Y032851D03*
X008054Y032851D03*
X008054Y035214D03*
X008802Y035214D03*
X010810Y033639D03*
X011558Y033639D03*
X029314Y038757D03*
X030062Y038757D03*
X030869Y038757D03*
X031656Y038757D03*
X040317Y034032D03*
X041105Y034032D03*
X034392Y028127D03*
X033644Y028127D03*
D22*
X023388Y012379D03*
X021026Y012379D03*
X015908Y037182D03*
X013546Y037182D03*
D23*
X027798Y033639D03*
X030593Y033639D03*
D24*
X032443Y033619D03*
X032443Y032871D03*
X034018Y032871D03*
X034018Y033619D03*
X034018Y034840D03*
X034018Y035588D03*
X032443Y035588D03*
X032443Y034840D03*
X035396Y026631D03*
X035396Y025883D03*
X030475Y020233D03*
X030475Y019485D03*
X029294Y019485D03*
X029294Y020233D03*
X027719Y020233D03*
X027719Y019485D03*
X026538Y019485D03*
X026538Y020233D03*
X024176Y020253D03*
X024176Y019466D03*
X022995Y019466D03*
X022995Y020253D03*
X022699Y015903D03*
X022699Y015155D03*
X021518Y015155D03*
X021518Y015903D03*
X020337Y015903D03*
X020337Y015155D03*
X019156Y015155D03*
X019156Y015903D03*
X017089Y020273D03*
X017089Y021021D03*
X014333Y013934D03*
X014333Y013186D03*
X013152Y013186D03*
X013152Y013934D03*
X013152Y011966D03*
X013152Y011218D03*
X014333Y011218D03*
X014333Y011966D03*
X008428Y013580D03*
X008428Y014328D03*
X004491Y011178D03*
X004491Y010430D03*
X002129Y026277D03*
X002129Y027025D03*
X003703Y026670D03*
X003703Y027418D03*
X004983Y027438D03*
X004983Y026651D03*
X008821Y033639D03*
X008821Y034426D03*
X011577Y032832D03*
X011577Y032084D03*
X012758Y034032D03*
X012758Y034820D03*
X013940Y034800D03*
X013940Y034052D03*
X015121Y034052D03*
X015121Y034800D03*
X016302Y034820D03*
X016302Y034032D03*
X010003Y037989D03*
X010003Y038737D03*
X008920Y038757D03*
X008920Y037969D03*
X023388Y030076D03*
X023388Y029328D03*
X024963Y025351D03*
X024963Y024603D03*
X042680Y034820D03*
X042680Y035607D03*
X039530Y006060D03*
X039530Y005312D03*
X038349Y005312D03*
X038349Y006060D03*
X036774Y006060D03*
X036774Y005312D03*
X035199Y005312D03*
X035199Y006060D03*
D25*
X027995Y037182D03*
X018900Y037182D03*
D26*
X023388Y037182D03*
D27*
X008197Y037963D03*
X007477Y037963D03*
X007837Y038763D03*
X009609Y014354D03*
X010009Y013554D03*
X009209Y013554D03*
D28*
X006853Y032930D03*
X006853Y035135D03*
D29*
X035987Y035139D03*
X035987Y034639D03*
X035987Y034139D03*
X035987Y033639D03*
X037987Y033639D03*
X037987Y034139D03*
X037987Y034639D03*
X037987Y035139D03*
D30*
X037309Y036826D03*
X037309Y037326D03*
X037309Y037826D03*
X037309Y038326D03*
X039389Y038326D03*
X039389Y037826D03*
X039389Y037326D03*
X039389Y036826D03*
X035058Y036826D03*
X035058Y037326D03*
X035058Y037826D03*
X035058Y038326D03*
X032978Y038326D03*
X032978Y037826D03*
X032978Y037326D03*
X032978Y036826D03*
D31*
X032394Y004111D03*
X040367Y004111D03*
D32*
X036282Y026355D03*
X034314Y026355D03*
D33*
X014940Y029795D02*
X014940Y030395D01*
X013940Y030395D02*
X013940Y029795D01*
X012940Y029795D02*
X012940Y030395D01*
X005503Y025221D02*
X004903Y025221D01*
X004903Y024221D02*
X005503Y024221D01*
X005503Y023221D02*
X004903Y023221D01*
X004903Y022221D02*
X005503Y022221D01*
X005503Y021221D02*
X004903Y021221D01*
X004903Y020221D02*
X005503Y020221D01*
X005503Y019221D02*
X004903Y019221D01*
X003610Y017635D02*
X003010Y017635D01*
X003010Y016635D02*
X003610Y016635D01*
X003610Y015635D02*
X003010Y015635D01*
X003010Y014635D02*
X003610Y014635D01*
X003610Y013635D02*
X003010Y013635D01*
X003010Y012635D02*
X003610Y012635D01*
D34*
X040711Y019564D03*
X040711Y026454D03*
D35*
X023788Y021434D03*
X022988Y021064D03*
X022988Y021804D03*
D36*
X028384Y013068D03*
X031731Y013068D03*
D37*
X034176Y020684D03*
X034176Y021184D03*
X034176Y021684D03*
X034176Y022184D03*
X036223Y022184D03*
X036223Y021684D03*
X036223Y021184D03*
X036223Y020684D03*
D38*
X035593Y029485D03*
D39*
X035199Y028206D03*
X035987Y028206D03*
D40*
X026243Y025474D03*
X026243Y023694D03*
X023683Y023694D03*
X023683Y025474D03*
D41*
X018172Y033029D03*
X018172Y035036D03*
D42*
X003310Y011218D03*
X003310Y010391D03*
D43*
X041203Y012265D03*
D44*
X041203Y015545D03*
X041873Y015545D03*
X042543Y015545D03*
X040533Y015545D03*
X039863Y015545D03*
D45*
X031656Y022733D03*
X031656Y025647D03*
D46*
X006022Y037030D02*
X006022Y037890D01*
X003660Y037890D02*
X003660Y037030D01*
X004411Y035570D02*
X005271Y035570D01*
D47*
X009986Y035080D03*
X009986Y034820D03*
X009986Y034560D03*
X010806Y034560D03*
X010806Y034820D03*
X010806Y035080D03*
D48*
X021020Y023803D03*
X021820Y023403D03*
X021020Y023003D03*
X021020Y022228D03*
X021820Y021828D03*
X021020Y021428D03*
X033225Y026546D03*
X033225Y027346D03*
X034025Y026946D03*
D49*
X006499Y028127D03*
X002483Y028127D03*
D50*
X007030Y030095D03*
X009038Y030095D03*
D51*
X011085Y037930D03*
X011085Y038796D03*
D52*
X036024Y014977D03*
X036524Y014977D03*
X037024Y014977D03*
X037524Y014977D03*
X037524Y012930D03*
X037024Y012930D03*
X036524Y012930D03*
X036024Y012930D03*
D53*
X012089Y006473D03*
X010121Y006473D03*
X008152Y006473D03*
X008152Y003521D03*
X010121Y003521D03*
X012089Y003521D03*
X002247Y003521D03*
X002247Y006473D03*
D54*
X012463Y020499D03*
X012463Y021188D03*
X015416Y021188D03*
X015416Y020499D03*
D55*
X014569Y019564D03*
X013310Y019564D03*
X013310Y021729D03*
X014569Y021729D03*
D56*
X021440Y029269D03*
X022188Y029269D03*
X021814Y030135D03*
M02*
