G75*
G70*
%OFA0B0*%
%FSLAX24Y24*%
%IPPOS*%
%LPD*%
%AMOC8*
5,1,8,0,0,1.08239X$1,22.5*
%
%ADD10C,0.0000*%
%ADD11C,0.0787*%
%ADD12C,0.1306*%
%ADD13C,0.0554*%
%ADD14R,0.1063X0.1063*%
%ADD15C,0.0660*%
%ADD16R,0.0594X0.0594*%
%ADD17R,0.0515X0.0515*%
%ADD18C,0.0600*%
%ADD19C,0.0740*%
%ADD20C,0.0860*%
%ADD21C,0.0120*%
D10*
X000300Y000947D02*
X000300Y038743D01*
X000302Y038797D01*
X000307Y038850D01*
X000316Y038903D01*
X000329Y038955D01*
X000345Y039007D01*
X000365Y039057D01*
X000388Y039105D01*
X000415Y039152D01*
X000444Y039197D01*
X000477Y039240D01*
X000512Y039280D01*
X000550Y039318D01*
X000590Y039353D01*
X000633Y039386D01*
X000678Y039415D01*
X000725Y039442D01*
X000773Y039465D01*
X000823Y039485D01*
X000875Y039501D01*
X000927Y039514D01*
X000980Y039523D01*
X001033Y039528D01*
X001087Y039530D01*
X042820Y039530D01*
X042874Y039528D01*
X042927Y039523D01*
X042980Y039514D01*
X043032Y039501D01*
X043084Y039485D01*
X043134Y039465D01*
X043182Y039442D01*
X043229Y039415D01*
X043274Y039386D01*
X043317Y039353D01*
X043357Y039318D01*
X043395Y039280D01*
X043430Y039240D01*
X043463Y039197D01*
X043492Y039152D01*
X043519Y039105D01*
X043542Y039057D01*
X043562Y039007D01*
X043578Y038955D01*
X043591Y038903D01*
X043600Y038850D01*
X043605Y038797D01*
X043607Y038743D01*
X043607Y000947D01*
X043605Y000893D01*
X043600Y000840D01*
X043591Y000787D01*
X043578Y000735D01*
X043562Y000683D01*
X043542Y000633D01*
X043519Y000585D01*
X043492Y000538D01*
X043463Y000493D01*
X043430Y000450D01*
X043395Y000410D01*
X043357Y000372D01*
X043317Y000337D01*
X043274Y000304D01*
X043229Y000275D01*
X043182Y000248D01*
X043134Y000225D01*
X043084Y000205D01*
X043032Y000189D01*
X042980Y000176D01*
X042927Y000167D01*
X042874Y000162D01*
X042820Y000160D01*
X001087Y000160D01*
X001033Y000162D01*
X000980Y000167D01*
X000927Y000176D01*
X000875Y000189D01*
X000823Y000205D01*
X000773Y000225D01*
X000725Y000248D01*
X000678Y000275D01*
X000633Y000304D01*
X000590Y000337D01*
X000550Y000372D01*
X000512Y000410D01*
X000477Y000450D01*
X000444Y000493D01*
X000415Y000538D01*
X000388Y000585D01*
X000365Y000633D01*
X000345Y000683D01*
X000329Y000735D01*
X000316Y000787D01*
X000307Y000840D01*
X000302Y000893D01*
X000300Y000947D01*
X000851Y009215D02*
X000853Y009265D01*
X000859Y009315D01*
X000869Y009364D01*
X000883Y009412D01*
X000900Y009459D01*
X000921Y009504D01*
X000946Y009548D01*
X000974Y009589D01*
X001006Y009628D01*
X001040Y009665D01*
X001077Y009699D01*
X001117Y009729D01*
X001159Y009756D01*
X001203Y009780D01*
X001249Y009801D01*
X001296Y009817D01*
X001344Y009830D01*
X001394Y009839D01*
X001443Y009844D01*
X001494Y009845D01*
X001544Y009842D01*
X001593Y009835D01*
X001642Y009824D01*
X001690Y009809D01*
X001736Y009791D01*
X001781Y009769D01*
X001824Y009743D01*
X001865Y009714D01*
X001904Y009682D01*
X001940Y009647D01*
X001972Y009609D01*
X002002Y009569D01*
X002029Y009526D01*
X002052Y009482D01*
X002071Y009436D01*
X002087Y009388D01*
X002099Y009339D01*
X002107Y009290D01*
X002111Y009240D01*
X002111Y009190D01*
X002107Y009140D01*
X002099Y009091D01*
X002087Y009042D01*
X002071Y008994D01*
X002052Y008948D01*
X002029Y008904D01*
X002002Y008861D01*
X001972Y008821D01*
X001940Y008783D01*
X001904Y008748D01*
X001865Y008716D01*
X001824Y008687D01*
X001781Y008661D01*
X001736Y008639D01*
X001690Y008621D01*
X001642Y008606D01*
X001593Y008595D01*
X001544Y008588D01*
X001494Y008585D01*
X001443Y008586D01*
X001394Y008591D01*
X001344Y008600D01*
X001296Y008613D01*
X001249Y008629D01*
X001203Y008650D01*
X001159Y008674D01*
X001117Y008701D01*
X001077Y008731D01*
X001040Y008765D01*
X001006Y008802D01*
X000974Y008841D01*
X000946Y008882D01*
X000921Y008926D01*
X000900Y008971D01*
X000883Y009018D01*
X000869Y009066D01*
X000859Y009115D01*
X000853Y009165D01*
X000851Y009215D01*
X000851Y029294D02*
X000853Y029344D01*
X000859Y029394D01*
X000869Y029443D01*
X000883Y029491D01*
X000900Y029538D01*
X000921Y029583D01*
X000946Y029627D01*
X000974Y029668D01*
X001006Y029707D01*
X001040Y029744D01*
X001077Y029778D01*
X001117Y029808D01*
X001159Y029835D01*
X001203Y029859D01*
X001249Y029880D01*
X001296Y029896D01*
X001344Y029909D01*
X001394Y029918D01*
X001443Y029923D01*
X001494Y029924D01*
X001544Y029921D01*
X001593Y029914D01*
X001642Y029903D01*
X001690Y029888D01*
X001736Y029870D01*
X001781Y029848D01*
X001824Y029822D01*
X001865Y029793D01*
X001904Y029761D01*
X001940Y029726D01*
X001972Y029688D01*
X002002Y029648D01*
X002029Y029605D01*
X002052Y029561D01*
X002071Y029515D01*
X002087Y029467D01*
X002099Y029418D01*
X002107Y029369D01*
X002111Y029319D01*
X002111Y029269D01*
X002107Y029219D01*
X002099Y029170D01*
X002087Y029121D01*
X002071Y029073D01*
X002052Y029027D01*
X002029Y028983D01*
X002002Y028940D01*
X001972Y028900D01*
X001940Y028862D01*
X001904Y028827D01*
X001865Y028795D01*
X001824Y028766D01*
X001781Y028740D01*
X001736Y028718D01*
X001690Y028700D01*
X001642Y028685D01*
X001593Y028674D01*
X001544Y028667D01*
X001494Y028664D01*
X001443Y028665D01*
X001394Y028670D01*
X001344Y028679D01*
X001296Y028692D01*
X001249Y028708D01*
X001203Y028729D01*
X001159Y028753D01*
X001117Y028780D01*
X001077Y028810D01*
X001040Y028844D01*
X001006Y028881D01*
X000974Y028920D01*
X000946Y028961D01*
X000921Y029005D01*
X000900Y029050D01*
X000883Y029097D01*
X000869Y029145D01*
X000859Y029194D01*
X000853Y029244D01*
X000851Y029294D01*
X028016Y029294D02*
X028018Y029344D01*
X028024Y029394D01*
X028034Y029443D01*
X028048Y029491D01*
X028065Y029538D01*
X028086Y029583D01*
X028111Y029627D01*
X028139Y029668D01*
X028171Y029707D01*
X028205Y029744D01*
X028242Y029778D01*
X028282Y029808D01*
X028324Y029835D01*
X028368Y029859D01*
X028414Y029880D01*
X028461Y029896D01*
X028509Y029909D01*
X028559Y029918D01*
X028608Y029923D01*
X028659Y029924D01*
X028709Y029921D01*
X028758Y029914D01*
X028807Y029903D01*
X028855Y029888D01*
X028901Y029870D01*
X028946Y029848D01*
X028989Y029822D01*
X029030Y029793D01*
X029069Y029761D01*
X029105Y029726D01*
X029137Y029688D01*
X029167Y029648D01*
X029194Y029605D01*
X029217Y029561D01*
X029236Y029515D01*
X029252Y029467D01*
X029264Y029418D01*
X029272Y029369D01*
X029276Y029319D01*
X029276Y029269D01*
X029272Y029219D01*
X029264Y029170D01*
X029252Y029121D01*
X029236Y029073D01*
X029217Y029027D01*
X029194Y028983D01*
X029167Y028940D01*
X029137Y028900D01*
X029105Y028862D01*
X029069Y028827D01*
X029030Y028795D01*
X028989Y028766D01*
X028946Y028740D01*
X028901Y028718D01*
X028855Y028700D01*
X028807Y028685D01*
X028758Y028674D01*
X028709Y028667D01*
X028659Y028664D01*
X028608Y028665D01*
X028559Y028670D01*
X028509Y028679D01*
X028461Y028692D01*
X028414Y028708D01*
X028368Y028729D01*
X028324Y028753D01*
X028282Y028780D01*
X028242Y028810D01*
X028205Y028844D01*
X028171Y028881D01*
X028139Y028920D01*
X028111Y028961D01*
X028086Y029005D01*
X028065Y029050D01*
X028048Y029097D01*
X028034Y029145D01*
X028024Y029194D01*
X028018Y029244D01*
X028016Y029294D01*
X028016Y009215D02*
X028018Y009265D01*
X028024Y009315D01*
X028034Y009364D01*
X028048Y009412D01*
X028065Y009459D01*
X028086Y009504D01*
X028111Y009548D01*
X028139Y009589D01*
X028171Y009628D01*
X028205Y009665D01*
X028242Y009699D01*
X028282Y009729D01*
X028324Y009756D01*
X028368Y009780D01*
X028414Y009801D01*
X028461Y009817D01*
X028509Y009830D01*
X028559Y009839D01*
X028608Y009844D01*
X028659Y009845D01*
X028709Y009842D01*
X028758Y009835D01*
X028807Y009824D01*
X028855Y009809D01*
X028901Y009791D01*
X028946Y009769D01*
X028989Y009743D01*
X029030Y009714D01*
X029069Y009682D01*
X029105Y009647D01*
X029137Y009609D01*
X029167Y009569D01*
X029194Y009526D01*
X029217Y009482D01*
X029236Y009436D01*
X029252Y009388D01*
X029264Y009339D01*
X029272Y009290D01*
X029276Y009240D01*
X029276Y009190D01*
X029272Y009140D01*
X029264Y009091D01*
X029252Y009042D01*
X029236Y008994D01*
X029217Y008948D01*
X029194Y008904D01*
X029167Y008861D01*
X029137Y008821D01*
X029105Y008783D01*
X029069Y008748D01*
X029030Y008716D01*
X028989Y008687D01*
X028946Y008661D01*
X028901Y008639D01*
X028855Y008621D01*
X028807Y008606D01*
X028758Y008595D01*
X028709Y008588D01*
X028659Y008585D01*
X028608Y008586D01*
X028559Y008591D01*
X028509Y008600D01*
X028461Y008613D01*
X028414Y008629D01*
X028368Y008650D01*
X028324Y008674D01*
X028282Y008701D01*
X028242Y008731D01*
X028205Y008765D01*
X028171Y008802D01*
X028139Y008841D01*
X028111Y008882D01*
X028086Y008926D01*
X028065Y008971D01*
X028048Y009018D01*
X028034Y009066D01*
X028024Y009115D01*
X028018Y009165D01*
X028016Y009215D01*
D11*
X027011Y011034D02*
X027011Y011821D01*
X024924Y010325D02*
X024137Y010325D01*
X025239Y009223D02*
X026026Y009223D01*
X023270Y005522D02*
X023270Y004735D01*
X022286Y002924D02*
X021499Y002924D01*
X021184Y004026D02*
X020396Y004026D01*
X018452Y009223D02*
X017664Y009223D01*
X017349Y010325D02*
X016562Y010325D01*
X019436Y011034D02*
X019436Y011821D01*
X027877Y004026D02*
X028664Y004026D01*
X028979Y002924D02*
X029767Y002924D01*
X030751Y004735D02*
X030751Y005522D01*
X032814Y009223D02*
X033601Y009223D01*
X032499Y010325D02*
X031711Y010325D01*
X034585Y011034D02*
X034585Y011821D01*
D12*
X034328Y017059D03*
X031627Y017059D03*
X026454Y017059D03*
X023753Y017059D03*
X018580Y017059D03*
X015879Y017059D03*
X010706Y017059D03*
X039501Y017059D03*
D13*
X038292Y018126D03*
X037308Y018126D03*
X036520Y018126D03*
X035536Y018126D03*
X030418Y018126D03*
X029434Y018126D03*
X028646Y018126D03*
X027662Y018126D03*
X022544Y018126D03*
X021560Y018126D03*
X020772Y018126D03*
X019788Y018126D03*
X014670Y018126D03*
X013686Y018126D03*
X012898Y018126D03*
X011914Y018126D03*
D14*
X008237Y031691D03*
X006072Y031691D03*
D15*
X022776Y031066D03*
X023741Y031066D03*
X024741Y031066D03*
X025741Y031066D03*
X026741Y031066D03*
X027741Y031066D03*
X028741Y031066D03*
X029741Y031066D03*
X030741Y031066D03*
X031741Y031066D03*
X032741Y031066D03*
X033741Y031066D03*
X034741Y031066D03*
X035741Y031066D03*
X036741Y031066D03*
X037741Y031066D03*
D16*
X008174Y017926D03*
X008174Y009953D03*
D17*
X034946Y026538D03*
X036914Y026538D03*
D18*
X014686Y029781D02*
X014686Y030381D01*
X013686Y030381D02*
X013686Y029781D01*
X012686Y029781D02*
X012686Y030381D01*
X005643Y025207D02*
X005043Y025207D01*
X005043Y024207D02*
X005643Y024207D01*
X005643Y023207D02*
X005043Y023207D01*
X005043Y022207D02*
X005643Y022207D01*
X005643Y021207D02*
X005043Y021207D01*
X005043Y020207D02*
X005643Y020207D01*
X005643Y019207D02*
X005043Y019207D01*
X002962Y017621D02*
X002362Y017621D01*
X002362Y016621D02*
X002962Y016621D01*
X002962Y015621D02*
X002362Y015621D01*
X002362Y014621D02*
X002962Y014621D01*
X002962Y013621D02*
X002362Y013621D01*
X002362Y012621D02*
X002962Y012621D01*
D19*
X023823Y023679D03*
X023823Y025459D03*
X026383Y025459D03*
X026383Y023679D03*
D20*
X006162Y037015D02*
X006162Y037875D01*
X005411Y035556D02*
X004551Y035556D01*
X003800Y037015D02*
X003800Y037875D01*
D21*
X000644Y000504D02*
X000803Y000388D01*
X000989Y000328D01*
X001087Y000320D01*
X042820Y000320D01*
X042918Y000328D01*
X043105Y000388D01*
X043263Y000504D01*
X043379Y000663D01*
X043439Y000849D01*
X043447Y000947D01*
X043447Y038743D01*
X043439Y038841D01*
X043379Y039028D01*
X043263Y039186D01*
X043105Y039302D01*
X042918Y039362D01*
X042820Y039370D01*
X001087Y039370D01*
X000989Y039362D01*
X000803Y039302D01*
X000644Y039186D01*
X000528Y039028D01*
X000468Y038841D01*
X000460Y038743D01*
X000460Y000947D01*
X000468Y000849D01*
X000528Y000663D01*
X000644Y000504D01*
X000597Y000569D02*
X043310Y000569D01*
X043387Y000687D02*
X000520Y000687D01*
X000482Y000806D02*
X043425Y000806D01*
X043445Y000924D02*
X000462Y000924D01*
X000460Y001043D02*
X043447Y001043D01*
X043447Y001161D02*
X000460Y001161D01*
X000460Y001280D02*
X043447Y001280D01*
X043447Y001398D02*
X000460Y001398D01*
X000460Y001517D02*
X043447Y001517D01*
X043447Y001635D02*
X000460Y001635D01*
X000460Y001754D02*
X043447Y001754D01*
X043447Y001872D02*
X000460Y001872D01*
X000460Y001991D02*
X043447Y001991D01*
X043447Y002109D02*
X000460Y002109D01*
X000460Y002228D02*
X043447Y002228D01*
X043447Y002346D02*
X000460Y002346D01*
X000460Y002465D02*
X021189Y002465D01*
X021209Y002450D02*
X021286Y002411D01*
X021369Y002384D01*
X021455Y002370D01*
X021873Y002370D01*
X021873Y002904D01*
X021913Y002904D01*
X021913Y002944D01*
X022840Y002944D01*
X022840Y002967D01*
X022826Y003053D01*
X022799Y003136D01*
X022760Y003214D01*
X022709Y003284D01*
X022647Y003346D01*
X022576Y003397D01*
X022499Y003437D01*
X022416Y003464D01*
X022330Y003477D01*
X021913Y003477D01*
X021913Y002944D01*
X021873Y002944D01*
X021873Y003477D01*
X021455Y003477D01*
X021369Y003464D01*
X021286Y003437D01*
X021209Y003397D01*
X021138Y003346D01*
X021076Y003284D01*
X021025Y003214D01*
X020986Y003136D01*
X020959Y003053D01*
X020945Y002967D01*
X020945Y002944D01*
X021873Y002944D01*
X021873Y002904D01*
X020945Y002904D01*
X020945Y002880D01*
X020959Y002794D01*
X020986Y002711D01*
X021025Y002634D01*
X021076Y002563D01*
X021138Y002501D01*
X021209Y002450D01*
X021062Y002583D02*
X000460Y002583D01*
X000460Y002702D02*
X020991Y002702D01*
X020955Y002820D02*
X000460Y002820D01*
X000460Y002939D02*
X021873Y002939D01*
X021913Y002939D02*
X029353Y002939D01*
X029353Y002944D02*
X029353Y002904D01*
X028425Y002904D01*
X028425Y002880D01*
X028439Y002794D01*
X028466Y002711D01*
X028506Y002634D01*
X028557Y002563D01*
X028618Y002501D01*
X028689Y002450D01*
X028767Y002411D01*
X028849Y002384D01*
X028936Y002370D01*
X029353Y002370D01*
X029353Y002904D01*
X029393Y002904D01*
X029393Y002944D01*
X029353Y002944D01*
X029353Y003477D01*
X028936Y003477D01*
X028849Y003464D01*
X028767Y003437D01*
X028689Y003397D01*
X028618Y003346D01*
X028557Y003284D01*
X028506Y003214D01*
X028466Y003136D01*
X028439Y003053D01*
X028425Y002967D01*
X028425Y002944D01*
X029353Y002944D01*
X029393Y002944D02*
X029393Y003477D01*
X029810Y003477D01*
X029896Y003464D01*
X029979Y003437D01*
X030057Y003397D01*
X030127Y003346D01*
X030189Y003284D01*
X030240Y003214D01*
X030280Y003136D01*
X030307Y003053D01*
X030320Y002967D01*
X030320Y002944D01*
X029393Y002944D01*
X029393Y002939D02*
X043447Y002939D01*
X043447Y003057D02*
X030305Y003057D01*
X030260Y003176D02*
X043447Y003176D01*
X043447Y003294D02*
X030179Y003294D01*
X030027Y003413D02*
X043447Y003413D01*
X043447Y003531D02*
X028912Y003531D01*
X028877Y003513D02*
X028954Y003553D01*
X029025Y003604D01*
X029087Y003665D01*
X029138Y003736D01*
X029177Y003814D01*
X029204Y003896D01*
X029218Y003983D01*
X029218Y004006D01*
X028290Y004006D01*
X028290Y003472D01*
X028708Y003472D01*
X028794Y003486D01*
X028877Y003513D01*
X028719Y003413D02*
X022547Y003413D01*
X022699Y003294D02*
X028566Y003294D01*
X028486Y003176D02*
X022779Y003176D01*
X022825Y003057D02*
X028440Y003057D01*
X028435Y002820D02*
X022830Y002820D01*
X022826Y002794D02*
X022840Y002880D01*
X022840Y002904D01*
X021913Y002904D01*
X021913Y002370D01*
X022330Y002370D01*
X022416Y002384D01*
X022499Y002411D01*
X022576Y002450D01*
X022647Y002501D01*
X022709Y002563D01*
X022760Y002634D01*
X022799Y002711D01*
X022826Y002794D01*
X022794Y002702D02*
X028471Y002702D01*
X028542Y002583D02*
X022723Y002583D01*
X022596Y002465D02*
X028669Y002465D01*
X029353Y002465D02*
X029393Y002465D01*
X029393Y002370D02*
X029810Y002370D01*
X029896Y002384D01*
X029979Y002411D01*
X030057Y002450D01*
X030127Y002501D01*
X030189Y002563D01*
X030240Y002634D01*
X030280Y002711D01*
X030307Y002794D01*
X030320Y002880D01*
X030320Y002904D01*
X029393Y002904D01*
X029393Y002370D01*
X029393Y002583D02*
X029353Y002583D01*
X029353Y002702D02*
X029393Y002702D01*
X029393Y002820D02*
X029353Y002820D01*
X029353Y003057D02*
X029393Y003057D01*
X029393Y003176D02*
X029353Y003176D01*
X029353Y003294D02*
X029393Y003294D01*
X029393Y003413D02*
X029353Y003413D01*
X029071Y003650D02*
X043447Y003650D01*
X043447Y003768D02*
X029154Y003768D01*
X029201Y003887D02*
X043447Y003887D01*
X043447Y004005D02*
X029218Y004005D01*
X029218Y004046D02*
X029218Y004070D01*
X029204Y004156D01*
X029177Y004239D01*
X029138Y004316D01*
X029087Y004387D01*
X029025Y004448D01*
X028954Y004500D01*
X028877Y004539D01*
X028794Y004566D01*
X028708Y004580D01*
X028290Y004580D01*
X028290Y004046D01*
X028250Y004046D01*
X028250Y004006D01*
X027323Y004006D01*
X027323Y003983D01*
X027337Y003896D01*
X027364Y003814D01*
X027403Y003736D01*
X027454Y003665D01*
X027516Y003604D01*
X027587Y003553D01*
X027664Y003513D01*
X027747Y003486D01*
X027833Y003472D01*
X028250Y003472D01*
X028250Y004006D01*
X028290Y004006D01*
X028290Y004046D01*
X029218Y004046D01*
X029209Y004124D02*
X030518Y004124D01*
X030621Y004081D02*
X030881Y004081D01*
X031121Y004181D01*
X031305Y004365D01*
X031404Y004605D01*
X031404Y005652D01*
X031305Y005892D01*
X031121Y006076D01*
X030881Y006176D01*
X030621Y006176D01*
X030380Y006076D01*
X030197Y005892D01*
X030097Y005652D01*
X030097Y004605D01*
X030197Y004365D01*
X030380Y004181D01*
X030621Y004081D01*
X030319Y004242D02*
X029176Y004242D01*
X029106Y004361D02*
X030201Y004361D01*
X030149Y004479D02*
X028983Y004479D01*
X028290Y004479D02*
X028250Y004479D01*
X028250Y004580D02*
X027833Y004580D01*
X027747Y004566D01*
X027664Y004539D01*
X027587Y004500D01*
X027516Y004448D01*
X027454Y004387D01*
X027403Y004316D01*
X027364Y004239D01*
X027337Y004156D01*
X027323Y004070D01*
X027323Y004046D01*
X028250Y004046D01*
X028250Y004580D01*
X028250Y004361D02*
X028290Y004361D01*
X028290Y004242D02*
X028250Y004242D01*
X028250Y004124D02*
X028290Y004124D01*
X028290Y004005D02*
X028250Y004005D01*
X028250Y003887D02*
X028290Y003887D01*
X028290Y003768D02*
X028250Y003768D01*
X028250Y003650D02*
X028290Y003650D01*
X028290Y003531D02*
X028250Y003531D01*
X027629Y003531D02*
X021432Y003531D01*
X021396Y003513D02*
X021474Y003553D01*
X021545Y003604D01*
X021606Y003665D01*
X021657Y003736D01*
X021697Y003814D01*
X021724Y003896D01*
X021738Y003983D01*
X021738Y004006D01*
X020810Y004006D01*
X020810Y003472D01*
X021227Y003472D01*
X021314Y003486D01*
X021396Y003513D01*
X021238Y003413D02*
X000460Y003413D01*
X000460Y003531D02*
X020149Y003531D01*
X020184Y003513D02*
X020267Y003486D01*
X020353Y003472D01*
X020770Y003472D01*
X020770Y004006D01*
X020810Y004006D01*
X020810Y004046D01*
X020770Y004046D01*
X020770Y004006D01*
X019843Y004006D01*
X019843Y003983D01*
X019856Y003896D01*
X019883Y003814D01*
X019923Y003736D01*
X019974Y003665D01*
X020036Y003604D01*
X020106Y003553D01*
X020184Y003513D01*
X019990Y003650D02*
X000460Y003650D01*
X000460Y003768D02*
X019907Y003768D01*
X019860Y003887D02*
X000460Y003887D01*
X000460Y004005D02*
X019843Y004005D01*
X019843Y004046D02*
X020770Y004046D01*
X020770Y004580D01*
X020353Y004580D01*
X020267Y004566D01*
X020184Y004539D01*
X020106Y004500D01*
X020036Y004448D01*
X019974Y004387D01*
X019923Y004316D01*
X019883Y004239D01*
X019856Y004156D01*
X019843Y004070D01*
X019843Y004046D01*
X019851Y004124D02*
X000460Y004124D01*
X000460Y004242D02*
X019885Y004242D01*
X019955Y004361D02*
X000460Y004361D01*
X000460Y004479D02*
X020078Y004479D01*
X020770Y004479D02*
X020810Y004479D01*
X020810Y004580D02*
X020810Y004046D01*
X021738Y004046D01*
X021738Y004070D01*
X021724Y004156D01*
X021697Y004239D01*
X021657Y004316D01*
X021606Y004387D01*
X021545Y004448D01*
X021474Y004500D01*
X021396Y004539D01*
X021314Y004566D01*
X021227Y004580D01*
X020810Y004580D01*
X020810Y004361D02*
X020770Y004361D01*
X020770Y004242D02*
X020810Y004242D01*
X020810Y004124D02*
X020770Y004124D01*
X020770Y004005D02*
X020810Y004005D01*
X020810Y003887D02*
X020770Y003887D01*
X020770Y003768D02*
X020810Y003768D01*
X020810Y003650D02*
X020770Y003650D01*
X020770Y003531D02*
X020810Y003531D01*
X021086Y003294D02*
X000460Y003294D01*
X000460Y003176D02*
X021006Y003176D01*
X020960Y003057D02*
X000460Y003057D01*
X000460Y004598D02*
X022620Y004598D01*
X022617Y004605D02*
X022716Y004365D01*
X022900Y004181D01*
X023140Y004081D01*
X023401Y004081D01*
X023641Y004181D01*
X023825Y004365D01*
X023924Y004605D01*
X023924Y005652D01*
X023825Y005892D01*
X023641Y006076D01*
X023401Y006176D01*
X023140Y006176D01*
X022900Y006076D01*
X022716Y005892D01*
X022617Y005652D01*
X022617Y004605D01*
X022617Y004716D02*
X000460Y004716D01*
X000460Y004835D02*
X022617Y004835D01*
X022617Y004953D02*
X000460Y004953D01*
X000460Y005072D02*
X022617Y005072D01*
X022617Y005190D02*
X000460Y005190D01*
X000460Y005309D02*
X022617Y005309D01*
X022617Y005427D02*
X000460Y005427D01*
X000460Y005546D02*
X022617Y005546D01*
X022622Y005664D02*
X000460Y005664D01*
X000460Y005783D02*
X022671Y005783D01*
X022725Y005901D02*
X000460Y005901D01*
X000460Y006020D02*
X022843Y006020D01*
X023049Y006138D02*
X000460Y006138D01*
X000460Y006257D02*
X043447Y006257D01*
X043447Y006375D02*
X000460Y006375D01*
X000460Y006494D02*
X043447Y006494D01*
X043447Y006612D02*
X000460Y006612D01*
X000460Y006731D02*
X043447Y006731D01*
X043447Y006849D02*
X000460Y006849D01*
X000460Y006968D02*
X043447Y006968D01*
X043447Y007086D02*
X000460Y007086D01*
X000460Y007205D02*
X043447Y007205D01*
X043447Y007323D02*
X000460Y007323D01*
X000460Y007442D02*
X043447Y007442D01*
X043447Y007560D02*
X000460Y007560D01*
X000460Y007679D02*
X043447Y007679D01*
X043447Y007797D02*
X000460Y007797D01*
X000460Y007916D02*
X043447Y007916D01*
X043447Y008034D02*
X000460Y008034D01*
X000460Y008153D02*
X043447Y008153D01*
X043447Y008271D02*
X000460Y008271D01*
X000460Y008390D02*
X043447Y008390D01*
X043447Y008508D02*
X029004Y008508D01*
X029094Y008545D02*
X029316Y008768D01*
X029436Y009058D01*
X029436Y009372D01*
X029316Y009663D01*
X029094Y009885D01*
X028804Y010005D01*
X028489Y010005D01*
X028199Y009885D01*
X027977Y009663D01*
X027857Y009372D01*
X027857Y009058D01*
X027977Y008768D01*
X028199Y008545D01*
X028489Y008425D01*
X028804Y008425D01*
X029094Y008545D01*
X029175Y008627D02*
X043447Y008627D01*
X043447Y008745D02*
X033883Y008745D01*
X033891Y008749D02*
X033962Y008801D01*
X034024Y008862D01*
X034075Y008933D01*
X034114Y009010D01*
X034141Y009093D01*
X034155Y009179D01*
X034155Y009203D01*
X033227Y009203D01*
X033227Y008669D01*
X033645Y008669D01*
X033731Y008683D01*
X033814Y008710D01*
X033891Y008749D01*
X034024Y008864D02*
X043447Y008864D01*
X043447Y008982D02*
X034100Y008982D01*
X034142Y009101D02*
X043447Y009101D01*
X043447Y009219D02*
X033227Y009219D01*
X033227Y009203D02*
X033227Y009243D01*
X033187Y009243D01*
X033187Y009203D01*
X032260Y009203D01*
X032260Y009179D01*
X032274Y009093D01*
X032301Y009010D01*
X032340Y008933D01*
X032391Y008862D01*
X032453Y008801D01*
X032524Y008749D01*
X032601Y008710D01*
X032684Y008683D01*
X032770Y008669D01*
X033187Y008669D01*
X033187Y009203D01*
X033227Y009203D01*
X033227Y009243D02*
X034155Y009243D01*
X034155Y009267D01*
X034141Y009353D01*
X034114Y009436D01*
X034075Y009513D01*
X034024Y009584D01*
X033962Y009645D01*
X033891Y009697D01*
X033814Y009736D01*
X033731Y009763D01*
X033645Y009777D01*
X033227Y009777D01*
X033227Y009243D01*
X033187Y009243D02*
X033187Y009777D01*
X032875Y009777D01*
X033053Y009955D01*
X033153Y010195D01*
X033153Y010455D01*
X033053Y010696D01*
X032869Y010880D01*
X032629Y010979D01*
X031581Y010979D01*
X031341Y010880D01*
X031157Y010696D01*
X031058Y010455D01*
X031058Y010195D01*
X031157Y009955D01*
X031341Y009771D01*
X031581Y009672D01*
X032489Y009672D01*
X032453Y009645D01*
X032391Y009584D01*
X032340Y009513D01*
X032301Y009436D01*
X032274Y009353D01*
X032260Y009267D01*
X032260Y009243D01*
X033187Y009243D01*
X033187Y009219D02*
X029436Y009219D01*
X029436Y009101D02*
X032273Y009101D01*
X032315Y008982D02*
X029405Y008982D01*
X029356Y008864D02*
X032391Y008864D01*
X032532Y008745D02*
X029293Y008745D01*
X029436Y009338D02*
X032271Y009338D01*
X032311Y009456D02*
X029402Y009456D01*
X029353Y009575D02*
X032385Y009575D01*
X031530Y009693D02*
X029286Y009693D01*
X029167Y009812D02*
X031301Y009812D01*
X031182Y009930D02*
X028985Y009930D01*
X028308Y009930D02*
X025453Y009930D01*
X025478Y009955D02*
X025578Y010195D01*
X025578Y010455D01*
X025478Y010696D01*
X025294Y010880D01*
X025054Y010979D01*
X024007Y010979D01*
X023766Y010880D01*
X023582Y010696D01*
X023483Y010455D01*
X023483Y010195D01*
X023582Y009955D01*
X023766Y009771D01*
X024007Y009672D01*
X024763Y009672D01*
X024685Y009593D01*
X024585Y009353D01*
X024585Y009093D01*
X024685Y008853D01*
X024869Y008669D01*
X025109Y008569D01*
X026156Y008569D01*
X026397Y008669D01*
X026581Y008853D01*
X026680Y009093D01*
X026680Y009353D01*
X026581Y009593D01*
X026397Y009777D01*
X026156Y009877D01*
X025400Y009877D01*
X025478Y009955D01*
X025517Y010049D02*
X031119Y010049D01*
X031069Y010167D02*
X025566Y010167D01*
X025578Y010286D02*
X031058Y010286D01*
X031058Y010404D02*
X027198Y010404D01*
X027141Y010380D02*
X027381Y010480D01*
X027565Y010664D01*
X027664Y010904D01*
X027664Y011951D01*
X027565Y012192D01*
X027381Y012376D01*
X027141Y012475D01*
X026881Y012475D01*
X026640Y012376D01*
X026456Y012192D01*
X026357Y011951D01*
X026357Y010904D01*
X026456Y010664D01*
X026640Y010480D01*
X026881Y010380D01*
X027141Y010380D01*
X027424Y010523D02*
X031086Y010523D01*
X031135Y010641D02*
X027542Y010641D01*
X027604Y010760D02*
X031221Y010760D01*
X031340Y010878D02*
X027654Y010878D01*
X027664Y010997D02*
X033932Y010997D01*
X033932Y010904D02*
X034031Y010664D01*
X034215Y010480D01*
X034455Y010380D01*
X034715Y010380D01*
X034956Y010480D01*
X035140Y010664D01*
X035239Y010904D01*
X035239Y011951D01*
X035140Y012192D01*
X034956Y012376D01*
X034715Y012475D01*
X034455Y012475D01*
X034215Y012376D01*
X034031Y012192D01*
X033932Y011951D01*
X033932Y010904D01*
X033942Y010878D02*
X032871Y010878D01*
X032989Y010760D02*
X033992Y010760D01*
X034054Y010641D02*
X033076Y010641D01*
X033125Y010523D02*
X034172Y010523D01*
X034398Y010404D02*
X033153Y010404D01*
X033153Y010286D02*
X043447Y010286D01*
X043447Y010404D02*
X034773Y010404D01*
X034998Y010523D02*
X043447Y010523D01*
X043447Y010641D02*
X035117Y010641D01*
X035179Y010760D02*
X043447Y010760D01*
X043447Y010878D02*
X035228Y010878D01*
X035239Y010997D02*
X043447Y010997D01*
X043447Y011115D02*
X035239Y011115D01*
X035239Y011234D02*
X043447Y011234D01*
X043447Y011352D02*
X035239Y011352D01*
X035239Y011471D02*
X043447Y011471D01*
X043447Y011589D02*
X035239Y011589D01*
X035239Y011708D02*
X043447Y011708D01*
X043447Y011826D02*
X035239Y011826D01*
X035239Y011945D02*
X043447Y011945D01*
X043447Y012063D02*
X035193Y012063D01*
X035144Y012182D02*
X043447Y012182D01*
X043447Y012300D02*
X035031Y012300D01*
X034852Y012419D02*
X043447Y012419D01*
X043447Y012537D02*
X003522Y012537D01*
X003522Y012509D02*
X003522Y012732D01*
X003437Y012938D01*
X003279Y013095D01*
X003218Y013121D01*
X003279Y013146D01*
X003437Y013303D01*
X003522Y013509D01*
X003522Y013732D01*
X003437Y013938D01*
X003279Y014095D01*
X003084Y014176D01*
X003139Y014194D01*
X003203Y014227D01*
X003262Y014270D01*
X003313Y014321D01*
X003356Y014380D01*
X003389Y014444D01*
X003411Y014513D01*
X003422Y014581D01*
X002702Y014581D01*
X002702Y014661D01*
X003422Y014661D01*
X003411Y014728D01*
X003389Y014797D01*
X003356Y014862D01*
X003313Y014920D01*
X003262Y014971D01*
X003203Y015014D01*
X003139Y015047D01*
X003084Y015065D01*
X003279Y015146D01*
X003437Y015303D01*
X003522Y015509D01*
X003522Y015732D01*
X003437Y015938D01*
X003279Y016095D01*
X003218Y016121D01*
X003279Y016146D01*
X003437Y016303D01*
X003522Y016509D01*
X003522Y016732D01*
X003437Y016938D01*
X003279Y017095D01*
X003218Y017121D01*
X003279Y017146D01*
X003437Y017303D01*
X003522Y017509D01*
X003522Y017732D01*
X003437Y017938D01*
X003279Y018095D01*
X003074Y018181D01*
X002251Y018181D01*
X002045Y018095D01*
X001887Y017938D01*
X001802Y017732D01*
X001802Y017509D01*
X001887Y017303D01*
X002045Y017146D01*
X002106Y017121D01*
X002045Y017095D01*
X001887Y016938D01*
X001802Y016732D01*
X001802Y016509D01*
X001887Y016303D01*
X002045Y016146D01*
X002106Y016121D01*
X002045Y016095D01*
X001887Y015938D01*
X001802Y015732D01*
X001802Y015509D01*
X001887Y015303D01*
X002045Y015146D01*
X002241Y015065D01*
X002186Y015047D01*
X002121Y015014D01*
X002063Y014971D01*
X002011Y014920D01*
X001969Y014862D01*
X001936Y014797D01*
X001914Y014728D01*
X001903Y014661D01*
X002622Y014661D01*
X002622Y014581D01*
X001903Y014581D01*
X001914Y014513D01*
X001936Y014444D01*
X001969Y014380D01*
X002011Y014321D01*
X002063Y014270D01*
X002121Y014227D01*
X002186Y014194D01*
X002241Y014176D01*
X002045Y014095D01*
X001887Y013938D01*
X001802Y013732D01*
X001802Y013509D01*
X001887Y013303D01*
X002045Y013146D01*
X002106Y013121D01*
X002045Y013095D01*
X001887Y012938D01*
X001802Y012732D01*
X001802Y012509D01*
X001887Y012303D01*
X002045Y012146D01*
X002251Y012061D01*
X003074Y012061D01*
X003279Y012146D01*
X003437Y012303D01*
X003522Y012509D01*
X003485Y012419D02*
X019169Y012419D01*
X019066Y012376D02*
X018882Y012192D01*
X018782Y011951D01*
X018782Y010904D01*
X018882Y010664D01*
X019066Y010480D01*
X019306Y010380D01*
X019566Y010380D01*
X019806Y010480D01*
X019990Y010664D01*
X020090Y010904D01*
X020090Y011951D01*
X019990Y012192D01*
X019806Y012376D01*
X019566Y012475D01*
X019306Y012475D01*
X019066Y012376D01*
X018990Y012300D02*
X003434Y012300D01*
X003315Y012182D02*
X018877Y012182D01*
X018828Y012063D02*
X003079Y012063D01*
X003522Y012656D02*
X043447Y012656D01*
X043447Y012774D02*
X003505Y012774D01*
X003456Y012893D02*
X043447Y012893D01*
X043447Y013011D02*
X003364Y013011D01*
X003240Y013130D02*
X043447Y013130D01*
X043447Y013248D02*
X003382Y013248D01*
X003463Y013367D02*
X043447Y013367D01*
X043447Y013485D02*
X003512Y013485D01*
X003522Y013604D02*
X043447Y013604D01*
X043447Y013722D02*
X003522Y013722D01*
X003477Y013841D02*
X043447Y013841D01*
X043447Y013959D02*
X003416Y013959D01*
X003297Y014078D02*
X043447Y014078D01*
X043447Y014196D02*
X003142Y014196D01*
X003307Y014315D02*
X043447Y014315D01*
X043447Y014433D02*
X003383Y014433D01*
X003417Y014552D02*
X043447Y014552D01*
X043447Y014670D02*
X003420Y014670D01*
X003391Y014789D02*
X043447Y014789D01*
X043447Y014907D02*
X003323Y014907D01*
X003181Y015026D02*
X043447Y015026D01*
X043447Y015144D02*
X003275Y015144D01*
X003396Y015263D02*
X043447Y015263D01*
X043447Y015381D02*
X003469Y015381D01*
X003518Y015500D02*
X043447Y015500D01*
X043447Y015618D02*
X003522Y015618D01*
X003520Y015737D02*
X043447Y015737D01*
X043447Y015855D02*
X003471Y015855D01*
X003401Y015974D02*
X043447Y015974D01*
X043447Y016092D02*
X003283Y016092D01*
X003344Y016211D02*
X043447Y016211D01*
X043447Y016329D02*
X039862Y016329D01*
X039861Y016329D02*
X039953Y016382D01*
X040038Y016447D01*
X040113Y016522D01*
X040178Y016607D01*
X040231Y016699D01*
X040272Y016797D01*
X040300Y016900D01*
X040313Y016999D01*
X039561Y016999D01*
X039561Y017119D01*
X040313Y017119D01*
X040300Y017218D01*
X040272Y017321D01*
X040231Y017419D01*
X040178Y017512D01*
X040113Y017596D01*
X040038Y017672D01*
X039953Y017736D01*
X039861Y017790D01*
X039763Y017830D01*
X039660Y017858D01*
X039561Y017871D01*
X039561Y017119D01*
X039441Y017119D01*
X039441Y016999D01*
X039561Y016999D01*
X039561Y016247D01*
X039660Y016260D01*
X039763Y016288D01*
X039861Y016329D01*
X040039Y016448D02*
X043447Y016448D01*
X043447Y016566D02*
X040147Y016566D01*
X040223Y016685D02*
X043447Y016685D01*
X043447Y016803D02*
X040274Y016803D01*
X040302Y016922D02*
X043447Y016922D01*
X043447Y017040D02*
X039561Y017040D01*
X039561Y016922D02*
X039441Y016922D01*
X039441Y016999D02*
X039441Y016247D01*
X039342Y016260D01*
X039239Y016288D01*
X039141Y016329D01*
X039048Y016382D01*
X038964Y016447D01*
X038888Y016522D01*
X038824Y016607D01*
X038770Y016699D01*
X038730Y016797D01*
X038702Y016900D01*
X038689Y016999D01*
X039441Y016999D01*
X039441Y017040D02*
X034388Y017040D01*
X034388Y016999D02*
X034388Y017119D01*
X035139Y017119D01*
X035126Y017218D01*
X035099Y017321D01*
X035058Y017419D01*
X035005Y017512D01*
X034940Y017596D01*
X034865Y017672D01*
X034780Y017736D01*
X034688Y017790D01*
X034589Y017830D01*
X034486Y017858D01*
X034388Y017871D01*
X034388Y017119D01*
X034268Y017119D01*
X034268Y017871D01*
X034169Y017858D01*
X034066Y017830D01*
X033967Y017790D01*
X033875Y017736D01*
X033791Y017672D01*
X033715Y017596D01*
X033650Y017512D01*
X033597Y017419D01*
X033556Y017321D01*
X033529Y017218D01*
X033516Y017119D01*
X034268Y017119D01*
X034268Y016999D01*
X034388Y016999D01*
X035139Y016999D01*
X035126Y016900D01*
X035099Y016797D01*
X035058Y016699D01*
X035005Y016607D01*
X034940Y016522D01*
X034865Y016447D01*
X034780Y016382D01*
X034688Y016329D01*
X034589Y016288D01*
X034486Y016260D01*
X034388Y016247D01*
X034388Y016999D01*
X034388Y016922D02*
X034268Y016922D01*
X034268Y016999D02*
X034268Y016247D01*
X034169Y016260D01*
X034066Y016288D01*
X033967Y016329D01*
X031988Y016329D01*
X031987Y016329D02*
X032079Y016382D01*
X032164Y016447D01*
X032239Y016522D01*
X032304Y016607D01*
X032357Y016699D01*
X032398Y016797D01*
X032426Y016900D01*
X032439Y016999D01*
X031687Y016999D01*
X031687Y017119D01*
X032439Y017119D01*
X032426Y017218D01*
X032398Y017321D01*
X032357Y017419D01*
X032304Y017512D01*
X032239Y017596D01*
X032164Y017672D01*
X032079Y017736D01*
X031987Y017790D01*
X031889Y017830D01*
X031786Y017858D01*
X031687Y017871D01*
X031687Y017119D01*
X031567Y017119D01*
X031567Y016999D01*
X031687Y016999D01*
X031687Y016247D01*
X031786Y016260D01*
X031889Y016288D01*
X031987Y016329D01*
X032165Y016448D02*
X033790Y016448D01*
X033791Y016447D02*
X033875Y016382D01*
X033967Y016329D01*
X033791Y016447D02*
X033715Y016522D01*
X033650Y016607D01*
X033597Y016699D01*
X033556Y016797D01*
X033529Y016900D01*
X033516Y016999D01*
X034268Y016999D01*
X034268Y017040D02*
X031687Y017040D01*
X031687Y016922D02*
X031567Y016922D01*
X031567Y016999D02*
X031567Y016247D01*
X031468Y016260D01*
X031365Y016288D01*
X031267Y016329D01*
X031174Y016382D01*
X031090Y016447D01*
X031014Y016522D01*
X030950Y016607D01*
X030896Y016699D01*
X030855Y016797D01*
X030828Y016900D01*
X030815Y016999D01*
X031567Y016999D01*
X031567Y017040D02*
X026514Y017040D01*
X026514Y016999D02*
X026514Y017119D01*
X027265Y017119D01*
X027252Y017218D01*
X027225Y017321D01*
X027184Y017419D01*
X027131Y017512D01*
X027066Y017596D01*
X026991Y017672D01*
X026906Y017736D01*
X026814Y017790D01*
X026715Y017830D01*
X026612Y017858D01*
X026514Y017871D01*
X026514Y017119D01*
X026394Y017119D01*
X026394Y017871D01*
X026295Y017858D01*
X026192Y017830D01*
X026093Y017790D01*
X026001Y017736D01*
X025917Y017672D01*
X025841Y017596D01*
X025776Y017512D01*
X025723Y017419D01*
X025682Y017321D01*
X025655Y017218D01*
X025642Y017119D01*
X026394Y017119D01*
X026394Y016999D01*
X026514Y016999D01*
X027265Y016999D01*
X027252Y016900D01*
X027225Y016797D01*
X027184Y016699D01*
X027131Y016607D01*
X027066Y016522D01*
X026991Y016447D01*
X026906Y016382D01*
X026814Y016329D01*
X031266Y016329D01*
X031089Y016448D02*
X026991Y016448D01*
X027100Y016566D02*
X030981Y016566D01*
X030905Y016685D02*
X027176Y016685D01*
X027226Y016803D02*
X030854Y016803D01*
X030825Y016922D02*
X027255Y016922D01*
X027260Y017159D02*
X030820Y017159D01*
X030815Y017119D02*
X031567Y017119D01*
X031567Y017871D01*
X031468Y017858D01*
X031365Y017830D01*
X031267Y017790D01*
X031174Y017736D01*
X031090Y017672D01*
X031014Y017596D01*
X030950Y017512D01*
X030896Y017419D01*
X030855Y017321D01*
X030828Y017218D01*
X030815Y017119D01*
X030844Y017277D02*
X027237Y017277D01*
X027194Y017396D02*
X030886Y017396D01*
X030951Y017514D02*
X027129Y017514D01*
X027030Y017633D02*
X028434Y017633D01*
X028342Y017671D02*
X028540Y017589D01*
X028753Y017589D01*
X028951Y017671D01*
X029040Y017760D01*
X029130Y017671D01*
X029327Y017589D01*
X029541Y017589D01*
X029738Y017671D01*
X029889Y017822D01*
X029926Y017911D01*
X029963Y017822D01*
X030114Y017671D01*
X030311Y017589D01*
X030525Y017589D01*
X030722Y017671D01*
X030873Y017822D01*
X030955Y018019D01*
X030955Y018233D01*
X030873Y018430D01*
X030722Y018582D01*
X030525Y018663D01*
X030311Y018663D01*
X030114Y018582D01*
X029963Y018430D01*
X029926Y018342D01*
X029889Y018430D01*
X029738Y018582D01*
X029541Y018663D01*
X029327Y018663D01*
X029130Y018582D01*
X029040Y018492D01*
X028951Y018582D01*
X028753Y018663D01*
X028540Y018663D01*
X028342Y018582D01*
X028191Y018430D01*
X028109Y018233D01*
X028109Y018019D01*
X028191Y017822D01*
X028342Y017671D01*
X028262Y017751D02*
X027889Y017751D01*
X027891Y017752D02*
X027830Y017721D01*
X027765Y017700D01*
X027697Y017689D01*
X027691Y017689D01*
X027691Y018098D01*
X027691Y018155D01*
X027634Y018155D01*
X027634Y018563D01*
X027628Y018563D01*
X027560Y018553D01*
X027494Y018531D01*
X027433Y018500D01*
X027377Y018460D01*
X027329Y018411D01*
X027288Y018355D01*
X027257Y018294D01*
X027236Y018229D01*
X027225Y018161D01*
X027225Y018155D01*
X027634Y018155D01*
X027634Y018098D01*
X027225Y018098D01*
X027225Y018092D01*
X027236Y018024D01*
X027257Y017958D01*
X027288Y017897D01*
X027329Y017841D01*
X027377Y017793D01*
X027433Y017752D01*
X027494Y017721D01*
X027560Y017700D01*
X027628Y017689D01*
X027634Y017689D01*
X027634Y018098D01*
X027691Y018098D01*
X028099Y018098D01*
X028099Y018092D01*
X028089Y018024D01*
X028067Y017958D01*
X028036Y017897D01*
X027996Y017841D01*
X027947Y017793D01*
X027891Y017752D01*
X028016Y017870D02*
X028171Y017870D01*
X028122Y017988D02*
X028077Y017988D01*
X028109Y018107D02*
X027691Y018107D01*
X027691Y018155D02*
X028099Y018155D01*
X028099Y018161D01*
X028089Y018229D01*
X028067Y018294D01*
X028036Y018355D01*
X027996Y018411D01*
X027947Y018460D01*
X027891Y018500D01*
X027830Y018531D01*
X027765Y018553D01*
X027697Y018563D01*
X027691Y018563D01*
X027691Y018155D01*
X027691Y018225D02*
X027634Y018225D01*
X027634Y018107D02*
X023081Y018107D01*
X023081Y018019D02*
X022999Y017822D01*
X022848Y017671D01*
X022651Y017589D01*
X022437Y017589D01*
X022240Y017671D01*
X022089Y017822D01*
X022052Y017911D01*
X022015Y017822D01*
X021864Y017671D01*
X021667Y017589D01*
X021453Y017589D01*
X021256Y017671D01*
X021166Y017760D01*
X021077Y017671D01*
X020879Y017589D01*
X020666Y017589D01*
X020468Y017671D01*
X020317Y017822D01*
X020235Y018019D01*
X020235Y018233D01*
X020317Y018430D01*
X020468Y018582D01*
X020666Y018663D01*
X020879Y018663D01*
X021077Y018582D01*
X021166Y018492D01*
X021256Y018582D01*
X021453Y018663D01*
X021667Y018663D01*
X021864Y018582D01*
X022015Y018430D01*
X022052Y018342D01*
X022089Y018430D01*
X022240Y018582D01*
X022437Y018663D01*
X022651Y018663D01*
X022848Y018582D01*
X022999Y018430D01*
X023081Y018233D01*
X023081Y018019D01*
X023068Y017988D02*
X027247Y017988D01*
X027308Y017870D02*
X026525Y017870D01*
X026514Y017870D02*
X026394Y017870D01*
X026382Y017870D02*
X023824Y017870D01*
X023813Y017870D02*
X023693Y017870D01*
X023693Y017871D02*
X023594Y017858D01*
X023491Y017830D01*
X023393Y017790D01*
X023300Y017736D01*
X023216Y017672D01*
X023140Y017596D01*
X023076Y017512D01*
X023022Y017419D01*
X022981Y017321D01*
X022954Y017218D01*
X022941Y017119D01*
X023693Y017119D01*
X023693Y016999D01*
X023813Y016999D01*
X023813Y017119D01*
X024565Y017119D01*
X024552Y017218D01*
X024524Y017321D01*
X024483Y017419D01*
X024430Y017512D01*
X024365Y017596D01*
X024290Y017672D01*
X024205Y017736D01*
X024113Y017790D01*
X024015Y017830D01*
X023912Y017858D01*
X023813Y017871D01*
X023813Y017119D01*
X023693Y017119D01*
X023693Y017871D01*
X023681Y017870D02*
X023019Y017870D01*
X022929Y017751D02*
X023326Y017751D01*
X023177Y017633D02*
X022756Y017633D01*
X023077Y017514D02*
X019255Y017514D01*
X019257Y017512D02*
X019192Y017596D01*
X019117Y017672D01*
X019032Y017736D01*
X018940Y017790D01*
X018841Y017830D01*
X018738Y017858D01*
X018640Y017871D01*
X018640Y017119D01*
X019391Y017119D01*
X019378Y017218D01*
X019351Y017321D01*
X019310Y017419D01*
X019257Y017512D01*
X019320Y017396D02*
X023012Y017396D01*
X022970Y017277D02*
X019363Y017277D01*
X019386Y017159D02*
X022946Y017159D01*
X022941Y016999D02*
X022954Y016900D01*
X022981Y016797D01*
X023022Y016699D01*
X023076Y016607D01*
X023140Y016522D01*
X023216Y016447D01*
X023300Y016382D01*
X023393Y016329D01*
X023491Y016288D01*
X023594Y016260D01*
X023693Y016247D01*
X023693Y016999D01*
X022941Y016999D01*
X022951Y016922D02*
X019381Y016922D01*
X019378Y016900D02*
X019391Y016999D01*
X018640Y016999D01*
X018640Y017119D01*
X018520Y017119D01*
X018520Y017871D01*
X018421Y017858D01*
X018318Y017830D01*
X018219Y017790D01*
X018127Y017736D01*
X018042Y017672D01*
X017967Y017596D01*
X017902Y017512D01*
X017849Y017419D01*
X017808Y017321D01*
X017781Y017218D01*
X017768Y017119D01*
X018520Y017119D01*
X018520Y016999D01*
X018640Y016999D01*
X018640Y016247D01*
X018738Y016260D01*
X018841Y016288D01*
X018940Y016329D01*
X023392Y016329D01*
X023215Y016448D02*
X019117Y016448D01*
X019117Y016447D02*
X019192Y016522D01*
X019257Y016607D01*
X019310Y016699D01*
X019351Y016797D01*
X019378Y016900D01*
X019352Y016803D02*
X022980Y016803D01*
X023031Y016685D02*
X019302Y016685D01*
X019226Y016566D02*
X023107Y016566D01*
X023693Y016566D02*
X023813Y016566D01*
X023813Y016448D02*
X023693Y016448D01*
X023693Y016329D02*
X023813Y016329D01*
X023813Y016247D02*
X023912Y016260D01*
X024015Y016288D01*
X024113Y016329D01*
X024205Y016382D01*
X024290Y016447D01*
X024365Y016522D01*
X024430Y016607D01*
X024483Y016699D01*
X024524Y016797D01*
X024552Y016900D01*
X024565Y016999D01*
X023813Y016999D01*
X023813Y016247D01*
X024114Y016329D02*
X026093Y016329D01*
X026192Y016288D01*
X026295Y016260D01*
X026394Y016247D01*
X026394Y016999D01*
X025642Y016999D01*
X025655Y016900D01*
X025682Y016797D01*
X025723Y016699D01*
X025776Y016607D01*
X025841Y016522D01*
X025917Y016447D01*
X026001Y016382D01*
X026093Y016329D01*
X025916Y016448D02*
X024290Y016448D01*
X024399Y016566D02*
X025808Y016566D01*
X025731Y016685D02*
X024475Y016685D01*
X024526Y016803D02*
X025681Y016803D01*
X025652Y016922D02*
X024554Y016922D01*
X024559Y017159D02*
X025647Y017159D01*
X025670Y017277D02*
X024536Y017277D01*
X024493Y017396D02*
X025713Y017396D01*
X025778Y017514D02*
X024428Y017514D01*
X024329Y017633D02*
X025877Y017633D01*
X026026Y017751D02*
X024180Y017751D01*
X023813Y017751D02*
X023693Y017751D01*
X023693Y017633D02*
X023813Y017633D01*
X023813Y017514D02*
X023693Y017514D01*
X023693Y017396D02*
X023813Y017396D01*
X023813Y017277D02*
X023693Y017277D01*
X023693Y017159D02*
X023813Y017159D01*
X023813Y017040D02*
X026394Y017040D01*
X026394Y016922D02*
X026514Y016922D01*
X026514Y016999D02*
X026514Y016247D01*
X026612Y016260D01*
X026715Y016288D01*
X026814Y016329D01*
X026514Y016329D02*
X026394Y016329D01*
X026394Y016448D02*
X026514Y016448D01*
X026514Y016566D02*
X026394Y016566D01*
X026394Y016685D02*
X026514Y016685D01*
X026514Y016803D02*
X026394Y016803D01*
X026394Y017159D02*
X026514Y017159D01*
X026514Y017277D02*
X026394Y017277D01*
X026394Y017396D02*
X026514Y017396D01*
X026514Y017514D02*
X026394Y017514D01*
X026394Y017633D02*
X026514Y017633D01*
X026514Y017751D02*
X026394Y017751D01*
X026881Y017751D02*
X027435Y017751D01*
X027634Y017751D02*
X027691Y017751D01*
X027691Y017870D02*
X027634Y017870D01*
X027634Y017988D02*
X027691Y017988D01*
X027691Y018344D02*
X027634Y018344D01*
X027634Y018462D02*
X027691Y018462D01*
X027944Y018462D02*
X028223Y018462D01*
X028155Y018344D02*
X028042Y018344D01*
X028089Y018225D02*
X028109Y018225D01*
X028341Y018581D02*
X022849Y018581D01*
X022968Y018462D02*
X027381Y018462D01*
X027282Y018344D02*
X023035Y018344D01*
X023081Y018225D02*
X027235Y018225D01*
X028858Y017633D02*
X029222Y017633D01*
X029049Y017751D02*
X029031Y017751D01*
X029646Y017633D02*
X030206Y017633D01*
X030034Y017751D02*
X029818Y017751D01*
X029909Y017870D02*
X029943Y017870D01*
X029925Y018344D02*
X029927Y018344D01*
X029994Y018462D02*
X029858Y018462D01*
X029739Y018581D02*
X030113Y018581D01*
X030723Y018581D02*
X036215Y018581D01*
X036216Y018582D02*
X036065Y018430D01*
X035983Y018233D01*
X035983Y018019D01*
X036065Y017822D01*
X036216Y017671D01*
X036414Y017589D01*
X036627Y017589D01*
X036825Y017671D01*
X036914Y017760D01*
X037004Y017671D01*
X037201Y017589D01*
X037415Y017589D01*
X037612Y017671D01*
X037763Y017822D01*
X037800Y017911D01*
X037837Y017822D01*
X037988Y017671D01*
X038185Y017589D01*
X038399Y017589D01*
X038596Y017671D01*
X038748Y017822D01*
X038829Y018019D01*
X038829Y018233D01*
X038748Y018430D01*
X038596Y018582D01*
X038399Y018663D01*
X038185Y018663D01*
X037988Y018582D01*
X037837Y018430D01*
X037800Y018342D01*
X037763Y018430D01*
X037612Y018582D01*
X037415Y018663D01*
X037201Y018663D01*
X037004Y018582D01*
X036914Y018492D01*
X036825Y018582D01*
X036627Y018663D01*
X036414Y018663D01*
X036216Y018582D01*
X036097Y018462D02*
X035818Y018462D01*
X035821Y018460D02*
X035765Y018500D01*
X035704Y018531D01*
X035639Y018553D01*
X035571Y018563D01*
X035565Y018563D01*
X035565Y018155D01*
X035508Y018155D01*
X035508Y018563D01*
X035502Y018563D01*
X035434Y018553D01*
X035368Y018531D01*
X035307Y018500D01*
X035251Y018460D01*
X035203Y018411D01*
X035162Y018355D01*
X035131Y018294D01*
X035110Y018229D01*
X035099Y018161D01*
X035099Y018155D01*
X035508Y018155D01*
X035508Y018098D01*
X035565Y018098D01*
X035565Y018155D01*
X035973Y018155D01*
X035973Y018161D01*
X035963Y018229D01*
X035941Y018294D01*
X035910Y018355D01*
X035870Y018411D01*
X035821Y018460D01*
X035916Y018344D02*
X036029Y018344D01*
X035983Y018225D02*
X035963Y018225D01*
X035983Y018107D02*
X035565Y018107D01*
X035565Y018098D02*
X035973Y018098D01*
X035973Y018092D01*
X035963Y018024D01*
X035941Y017958D01*
X035910Y017897D01*
X035870Y017841D01*
X035821Y017793D01*
X035765Y017752D01*
X035704Y017721D01*
X035639Y017700D01*
X035571Y017689D01*
X035565Y017689D01*
X035565Y018098D01*
X035508Y018098D02*
X035508Y017689D01*
X035502Y017689D01*
X035434Y017700D01*
X035368Y017721D01*
X035307Y017752D01*
X035251Y017793D01*
X035203Y017841D01*
X035162Y017897D01*
X035131Y017958D01*
X035110Y018024D01*
X035099Y018092D01*
X035099Y018098D01*
X035508Y018098D01*
X035508Y018107D02*
X030955Y018107D01*
X030955Y018225D02*
X035109Y018225D01*
X035156Y018344D02*
X030909Y018344D01*
X030842Y018462D02*
X035255Y018462D01*
X035508Y018462D02*
X035565Y018462D01*
X035565Y018344D02*
X035508Y018344D01*
X035508Y018225D02*
X035565Y018225D01*
X035565Y017988D02*
X035508Y017988D01*
X035508Y017870D02*
X035565Y017870D01*
X035565Y017751D02*
X035508Y017751D01*
X035309Y017751D02*
X034755Y017751D01*
X034904Y017633D02*
X036308Y017633D01*
X036136Y017751D02*
X035763Y017751D01*
X035890Y017870D02*
X036045Y017870D01*
X035996Y017988D02*
X035951Y017988D01*
X036732Y017633D02*
X037096Y017633D01*
X036923Y017751D02*
X036905Y017751D01*
X037520Y017633D02*
X038080Y017633D01*
X037908Y017751D02*
X037692Y017751D01*
X037783Y017870D02*
X037817Y017870D01*
X037799Y018344D02*
X037801Y018344D01*
X037868Y018462D02*
X037732Y018462D01*
X037613Y018581D02*
X037987Y018581D01*
X038597Y018581D02*
X043447Y018581D01*
X043447Y018699D02*
X005880Y018699D01*
X005961Y018732D02*
X006118Y018890D01*
X006203Y019096D01*
X006203Y019319D01*
X006118Y019524D01*
X005961Y019682D01*
X005900Y019707D01*
X005961Y019732D01*
X006118Y019890D01*
X006203Y020096D01*
X006203Y020319D01*
X006118Y020524D01*
X005961Y020682D01*
X005900Y020707D01*
X005961Y020732D01*
X006118Y020890D01*
X006203Y021096D01*
X006203Y021319D01*
X006118Y021524D01*
X005961Y021682D01*
X005900Y021707D01*
X005961Y021732D01*
X006118Y021890D01*
X006203Y022096D01*
X006203Y022319D01*
X006118Y022524D01*
X005961Y022682D01*
X005900Y022707D01*
X005961Y022732D01*
X006118Y022890D01*
X006203Y023096D01*
X006203Y023319D01*
X006118Y023524D01*
X005961Y023682D01*
X005900Y023707D01*
X005961Y023732D01*
X006118Y023890D01*
X006203Y024096D01*
X006203Y024319D01*
X006118Y024524D01*
X005961Y024682D01*
X005900Y024707D01*
X005961Y024732D01*
X006118Y024890D01*
X006203Y025096D01*
X006203Y025319D01*
X006118Y025524D01*
X005961Y025682D01*
X005755Y025767D01*
X004932Y025767D01*
X004726Y025682D01*
X004569Y025524D01*
X004483Y025319D01*
X004483Y025096D01*
X004569Y024890D01*
X004726Y024732D01*
X004787Y024707D01*
X004726Y024682D01*
X004569Y024524D01*
X004483Y024319D01*
X004483Y024096D01*
X004569Y023890D01*
X004726Y023732D01*
X004787Y023707D01*
X004726Y023682D01*
X004569Y023524D01*
X004483Y023319D01*
X004483Y023096D01*
X004569Y022890D01*
X004726Y022732D01*
X004787Y022707D01*
X004726Y022682D01*
X004569Y022524D01*
X004483Y022319D01*
X004483Y022096D01*
X004569Y021890D01*
X004726Y021732D01*
X004787Y021707D01*
X004726Y021682D01*
X004569Y021524D01*
X004483Y021319D01*
X004483Y021096D01*
X004569Y020890D01*
X004726Y020732D01*
X004787Y020707D01*
X004726Y020682D01*
X004569Y020524D01*
X004483Y020319D01*
X004483Y020096D01*
X004569Y019890D01*
X004726Y019732D01*
X004787Y019707D01*
X004726Y019682D01*
X004569Y019524D01*
X004483Y019319D01*
X004483Y019096D01*
X004569Y018890D01*
X004726Y018732D01*
X004932Y018647D01*
X005755Y018647D01*
X005961Y018732D01*
X006046Y018818D02*
X043447Y018818D01*
X043447Y018936D02*
X006137Y018936D01*
X006186Y019055D02*
X043447Y019055D01*
X043447Y019173D02*
X006203Y019173D01*
X006203Y019292D02*
X043447Y019292D01*
X043447Y019410D02*
X006165Y019410D01*
X006114Y019529D02*
X043447Y019529D01*
X043447Y019647D02*
X005995Y019647D01*
X005994Y019766D02*
X043447Y019766D01*
X043447Y019884D02*
X006112Y019884D01*
X006165Y020003D02*
X043447Y020003D01*
X043447Y020121D02*
X006203Y020121D01*
X006203Y020240D02*
X043447Y020240D01*
X043447Y020358D02*
X006187Y020358D01*
X006138Y020477D02*
X043447Y020477D01*
X043447Y020595D02*
X006047Y020595D01*
X005915Y020714D02*
X043447Y020714D01*
X043447Y020832D02*
X006060Y020832D01*
X006143Y020951D02*
X043447Y020951D01*
X043447Y021069D02*
X006192Y021069D01*
X006203Y021188D02*
X043447Y021188D01*
X043447Y021306D02*
X006203Y021306D01*
X006159Y021425D02*
X043447Y021425D01*
X043447Y021543D02*
X006099Y021543D01*
X005981Y021662D02*
X043447Y021662D01*
X043447Y021780D02*
X006008Y021780D01*
X006122Y021899D02*
X043447Y021899D01*
X043447Y022017D02*
X006171Y022017D01*
X006203Y022136D02*
X043447Y022136D01*
X043447Y022254D02*
X006203Y022254D01*
X006181Y022373D02*
X043447Y022373D01*
X043447Y022491D02*
X006132Y022491D01*
X006033Y022610D02*
X043447Y022610D01*
X043447Y022728D02*
X005950Y022728D01*
X006075Y022847D02*
X043447Y022847D01*
X043447Y022965D02*
X006149Y022965D01*
X006198Y023084D02*
X023616Y023084D01*
X023698Y023049D02*
X023466Y023145D01*
X023289Y023323D01*
X023193Y023554D01*
X023193Y023805D01*
X023289Y024036D01*
X023466Y024214D01*
X023698Y024309D01*
X023948Y024309D01*
X024180Y024214D01*
X024357Y024036D01*
X024453Y023805D01*
X024453Y023554D01*
X024357Y023323D01*
X024180Y023145D01*
X023948Y023049D01*
X023698Y023049D01*
X023410Y023202D02*
X006203Y023202D01*
X006203Y023321D02*
X023291Y023321D01*
X023241Y023439D02*
X006153Y023439D01*
X006085Y023558D02*
X023193Y023558D01*
X023193Y023676D02*
X005966Y023676D01*
X006023Y023795D02*
X023193Y023795D01*
X023238Y023913D02*
X006128Y023913D01*
X006177Y024032D02*
X023287Y024032D01*
X023403Y024150D02*
X006203Y024150D01*
X006203Y024269D02*
X023599Y024269D01*
X024047Y024269D02*
X026159Y024269D01*
X026258Y024309D02*
X026026Y024214D01*
X025849Y024036D01*
X025753Y023805D01*
X025753Y023554D01*
X025849Y023323D01*
X026026Y023145D01*
X026258Y023049D01*
X026508Y023049D01*
X026740Y023145D01*
X026917Y023323D01*
X027013Y023554D01*
X027013Y023805D01*
X026917Y024036D01*
X026740Y024214D01*
X026508Y024309D01*
X026258Y024309D01*
X025963Y024150D02*
X024244Y024150D01*
X024359Y024032D02*
X025847Y024032D01*
X025798Y023913D02*
X024408Y023913D01*
X024453Y023795D02*
X025753Y023795D01*
X025753Y023676D02*
X024453Y023676D01*
X024453Y023558D02*
X025753Y023558D01*
X025801Y023439D02*
X024405Y023439D01*
X024355Y023321D02*
X025851Y023321D01*
X025970Y023202D02*
X024237Y023202D01*
X024031Y023084D02*
X026176Y023084D01*
X026591Y023084D02*
X043447Y023084D01*
X043447Y023202D02*
X026797Y023202D01*
X026915Y023321D02*
X043447Y023321D01*
X043447Y023439D02*
X026965Y023439D01*
X027013Y023558D02*
X043447Y023558D01*
X043447Y023676D02*
X027013Y023676D01*
X027013Y023795D02*
X043447Y023795D01*
X043447Y023913D02*
X026968Y023913D01*
X026919Y024032D02*
X043447Y024032D01*
X043447Y024150D02*
X026804Y024150D01*
X026607Y024269D02*
X043447Y024269D01*
X043447Y024387D02*
X006175Y024387D01*
X006126Y024506D02*
X043447Y024506D01*
X043447Y024624D02*
X006018Y024624D01*
X005971Y024743D02*
X043447Y024743D01*
X043447Y024861D02*
X026585Y024861D01*
X026508Y024829D02*
X026258Y024829D01*
X026026Y024925D01*
X025849Y025103D01*
X025753Y025334D01*
X025753Y025585D01*
X025849Y025816D01*
X026026Y025994D01*
X026258Y026089D01*
X026508Y026089D01*
X026740Y025994D01*
X026917Y025816D01*
X027013Y025585D01*
X027013Y025334D01*
X026917Y025103D01*
X026740Y024925D01*
X026508Y024829D01*
X026794Y024980D02*
X043447Y024980D01*
X043447Y025098D02*
X026913Y025098D01*
X026964Y025217D02*
X043447Y025217D01*
X043447Y025335D02*
X027013Y025335D01*
X027013Y025454D02*
X043447Y025454D01*
X043447Y025572D02*
X027013Y025572D01*
X026969Y025691D02*
X043447Y025691D01*
X043447Y025809D02*
X026920Y025809D01*
X026806Y025928D02*
X043447Y025928D01*
X043447Y026046D02*
X035317Y026046D01*
X035350Y026060D02*
X035424Y026133D01*
X035463Y026229D01*
X035463Y026847D01*
X035424Y026943D01*
X035350Y027016D01*
X035255Y027055D01*
X034636Y027055D01*
X034541Y027016D01*
X034468Y026943D01*
X034428Y026847D01*
X034428Y026229D01*
X034468Y026133D01*
X034541Y026060D01*
X034636Y026020D01*
X035255Y026020D01*
X035350Y026060D01*
X035437Y026165D02*
X036546Y026165D01*
X036558Y026152D02*
X036595Y026131D01*
X036636Y026120D01*
X036895Y026120D01*
X036895Y026519D01*
X036497Y026519D01*
X036497Y026259D01*
X036508Y026219D01*
X036529Y026182D01*
X036558Y026152D01*
X036497Y026283D02*
X035463Y026283D01*
X035463Y026402D02*
X036497Y026402D01*
X036497Y026557D02*
X036895Y026557D01*
X036895Y026519D01*
X036933Y026519D01*
X036933Y026120D01*
X037193Y026120D01*
X037233Y026131D01*
X037270Y026152D01*
X037300Y026182D01*
X037321Y026219D01*
X037332Y026259D01*
X037332Y026519D01*
X036933Y026519D01*
X036933Y026557D01*
X036895Y026557D01*
X036895Y026955D01*
X036636Y026955D01*
X036595Y026945D01*
X036558Y026923D01*
X036529Y026894D01*
X036508Y026857D01*
X036497Y026816D01*
X036497Y026557D01*
X036497Y026639D02*
X035463Y026639D01*
X035463Y026757D02*
X036497Y026757D01*
X036518Y026876D02*
X035451Y026876D01*
X035372Y026994D02*
X043447Y026994D01*
X043447Y026876D02*
X037310Y026876D01*
X037300Y026894D02*
X037270Y026923D01*
X037233Y026945D01*
X037193Y026955D01*
X036933Y026955D01*
X036933Y026557D01*
X037332Y026557D01*
X037332Y026816D01*
X037321Y026857D01*
X037300Y026894D01*
X037332Y026757D02*
X043447Y026757D01*
X043447Y026639D02*
X037332Y026639D01*
X037332Y026402D02*
X043447Y026402D01*
X043447Y026520D02*
X036933Y026520D01*
X036895Y026520D02*
X035463Y026520D01*
X034575Y026046D02*
X026613Y026046D01*
X026153Y026046D02*
X024053Y026046D01*
X023948Y026089D02*
X023698Y026089D01*
X023466Y025994D01*
X023289Y025816D01*
X023193Y025585D01*
X023193Y025334D01*
X023289Y025103D01*
X023466Y024925D01*
X023698Y024829D01*
X023948Y024829D01*
X024180Y024925D01*
X024357Y025103D01*
X024453Y025334D01*
X024453Y025585D01*
X024357Y025816D01*
X024180Y025994D01*
X023948Y026089D01*
X024246Y025928D02*
X025960Y025928D01*
X025846Y025809D02*
X024360Y025809D01*
X024409Y025691D02*
X025797Y025691D01*
X025753Y025572D02*
X024453Y025572D01*
X024453Y025454D02*
X025753Y025454D01*
X025753Y025335D02*
X024453Y025335D01*
X024404Y025217D02*
X025802Y025217D01*
X025854Y025098D02*
X024353Y025098D01*
X024234Y024980D02*
X025972Y024980D01*
X026182Y024861D02*
X024025Y024861D01*
X023622Y024861D02*
X006089Y024861D01*
X006155Y024980D02*
X023412Y024980D01*
X023294Y025098D02*
X006203Y025098D01*
X006203Y025217D02*
X023242Y025217D01*
X023193Y025335D02*
X006197Y025335D01*
X006147Y025454D02*
X023193Y025454D01*
X023193Y025572D02*
X006070Y025572D01*
X005940Y025691D02*
X023237Y025691D01*
X023286Y025809D02*
X000460Y025809D01*
X000460Y025691D02*
X004747Y025691D01*
X004616Y025572D02*
X000460Y025572D01*
X000460Y025454D02*
X004539Y025454D01*
X004490Y025335D02*
X000460Y025335D01*
X000460Y025217D02*
X004483Y025217D01*
X004483Y025098D02*
X000460Y025098D01*
X000460Y024980D02*
X004531Y024980D01*
X004598Y024861D02*
X000460Y024861D01*
X000460Y024743D02*
X004716Y024743D01*
X004668Y024624D02*
X000460Y024624D01*
X000460Y024506D02*
X004561Y024506D01*
X004512Y024387D02*
X000460Y024387D01*
X000460Y024269D02*
X004483Y024269D01*
X004483Y024150D02*
X000460Y024150D01*
X000460Y024032D02*
X004510Y024032D01*
X004559Y023913D02*
X000460Y023913D01*
X000460Y023795D02*
X004664Y023795D01*
X004720Y023676D02*
X000460Y023676D01*
X000460Y023558D02*
X004602Y023558D01*
X004533Y023439D02*
X000460Y023439D01*
X000460Y023321D02*
X004484Y023321D01*
X004483Y023202D02*
X000460Y023202D01*
X000460Y023084D02*
X004488Y023084D01*
X004537Y022965D02*
X000460Y022965D01*
X000460Y022847D02*
X004612Y022847D01*
X004737Y022728D02*
X000460Y022728D01*
X000460Y022610D02*
X004654Y022610D01*
X004555Y022491D02*
X000460Y022491D01*
X000460Y022373D02*
X004506Y022373D01*
X004483Y022254D02*
X000460Y022254D01*
X000460Y022136D02*
X004483Y022136D01*
X004516Y022017D02*
X000460Y022017D01*
X000460Y021899D02*
X004565Y021899D01*
X004679Y021780D02*
X000460Y021780D01*
X000460Y021662D02*
X004706Y021662D01*
X004587Y021543D02*
X000460Y021543D01*
X000460Y021425D02*
X004527Y021425D01*
X004483Y021306D02*
X000460Y021306D01*
X000460Y021188D02*
X004483Y021188D01*
X004494Y021069D02*
X000460Y021069D01*
X000460Y020951D02*
X004543Y020951D01*
X004627Y020832D02*
X000460Y020832D01*
X000460Y020714D02*
X004772Y020714D01*
X004639Y020595D02*
X000460Y020595D01*
X000460Y020477D02*
X004549Y020477D01*
X004500Y020358D02*
X000460Y020358D01*
X000460Y020240D02*
X004483Y020240D01*
X004483Y020121D02*
X000460Y020121D01*
X000460Y020003D02*
X004522Y020003D01*
X004575Y019884D02*
X000460Y019884D01*
X000460Y019766D02*
X004693Y019766D01*
X004691Y019647D02*
X000460Y019647D01*
X000460Y019529D02*
X004573Y019529D01*
X004521Y019410D02*
X000460Y019410D01*
X000460Y019292D02*
X004483Y019292D01*
X004483Y019173D02*
X000460Y019173D01*
X000460Y019055D02*
X004500Y019055D01*
X004550Y018936D02*
X000460Y018936D01*
X000460Y018818D02*
X004641Y018818D01*
X004807Y018699D02*
X000460Y018699D01*
X000460Y018581D02*
X012593Y018581D01*
X012594Y018582D02*
X012443Y018430D01*
X012361Y018233D01*
X012361Y018019D01*
X012443Y017822D01*
X012594Y017671D01*
X012792Y017589D01*
X013005Y017589D01*
X013203Y017671D01*
X013292Y017760D01*
X013382Y017671D01*
X013579Y017589D01*
X013793Y017589D01*
X013990Y017671D01*
X014141Y017822D01*
X014178Y017911D01*
X014215Y017822D01*
X014366Y017671D01*
X014563Y017589D01*
X014777Y017589D01*
X014974Y017671D01*
X015125Y017822D01*
X015207Y018019D01*
X015207Y018233D01*
X015125Y018430D01*
X014974Y018582D01*
X014777Y018663D01*
X014563Y018663D01*
X014366Y018582D01*
X014215Y018430D01*
X014178Y018342D01*
X014141Y018430D01*
X013990Y018582D01*
X013793Y018663D01*
X013579Y018663D01*
X013382Y018582D01*
X013292Y018492D01*
X013203Y018582D01*
X013005Y018663D01*
X012792Y018663D01*
X012594Y018582D01*
X012475Y018462D02*
X012196Y018462D01*
X012199Y018460D02*
X012143Y018500D01*
X012082Y018531D01*
X012017Y018553D01*
X011949Y018563D01*
X011943Y018563D01*
X011943Y018155D01*
X011886Y018155D01*
X011886Y018563D01*
X011880Y018563D01*
X011812Y018553D01*
X011746Y018531D01*
X011685Y018500D01*
X011629Y018460D01*
X011581Y018411D01*
X011540Y018355D01*
X011509Y018294D01*
X011488Y018229D01*
X011477Y018161D01*
X011477Y018155D01*
X011886Y018155D01*
X011886Y018098D01*
X011943Y018098D01*
X011943Y018155D01*
X012351Y018155D01*
X012351Y018161D01*
X012341Y018229D01*
X012319Y018294D01*
X012288Y018355D01*
X012248Y018411D01*
X012199Y018460D01*
X012294Y018344D02*
X012407Y018344D01*
X012361Y018225D02*
X012341Y018225D01*
X012361Y018107D02*
X011943Y018107D01*
X011943Y018098D02*
X012351Y018098D01*
X012351Y018092D01*
X012341Y018024D01*
X012319Y017958D01*
X012288Y017897D01*
X012248Y017841D01*
X012199Y017793D01*
X012143Y017752D01*
X012082Y017721D01*
X012017Y017700D01*
X011949Y017689D01*
X011943Y017689D01*
X011943Y018098D01*
X011886Y018098D02*
X011886Y017689D01*
X011880Y017689D01*
X011812Y017700D01*
X011746Y017721D01*
X011685Y017752D01*
X011629Y017793D01*
X011581Y017841D01*
X011540Y017897D01*
X011509Y017958D01*
X011488Y018024D01*
X011477Y018092D01*
X011477Y018098D01*
X011886Y018098D01*
X011886Y018107D02*
X008731Y018107D01*
X008731Y018225D02*
X011487Y018225D01*
X011534Y018344D02*
X008702Y018344D01*
X008691Y018370D02*
X008618Y018443D01*
X008523Y018483D01*
X007825Y018483D01*
X007730Y018443D01*
X007657Y018370D01*
X007617Y018274D01*
X007617Y017577D01*
X007657Y017482D01*
X007730Y017408D01*
X007825Y017369D01*
X008523Y017369D01*
X008618Y017408D01*
X008691Y017482D01*
X008731Y017577D01*
X008731Y018274D01*
X008691Y018370D01*
X008572Y018462D02*
X011633Y018462D01*
X011886Y018462D02*
X011943Y018462D01*
X011943Y018344D02*
X011886Y018344D01*
X011886Y018225D02*
X011943Y018225D01*
X011943Y017988D02*
X011886Y017988D01*
X011886Y017870D02*
X011943Y017870D01*
X011943Y017751D02*
X011886Y017751D01*
X011687Y017751D02*
X011133Y017751D01*
X011158Y017736D02*
X011066Y017790D01*
X010967Y017830D01*
X010864Y017858D01*
X010766Y017871D01*
X010766Y017119D01*
X011517Y017119D01*
X011504Y017218D01*
X011477Y017321D01*
X011436Y017419D01*
X011383Y017512D01*
X011318Y017596D01*
X011243Y017672D01*
X011158Y017736D01*
X011282Y017633D02*
X012686Y017633D01*
X012514Y017751D02*
X012141Y017751D01*
X012268Y017870D02*
X012423Y017870D01*
X012374Y017988D02*
X012329Y017988D01*
X013110Y017633D02*
X013474Y017633D01*
X013301Y017751D02*
X013283Y017751D01*
X013898Y017633D02*
X014458Y017633D01*
X014286Y017751D02*
X014070Y017751D01*
X014161Y017870D02*
X014195Y017870D01*
X014177Y018344D02*
X014179Y018344D01*
X014246Y018462D02*
X014110Y018462D01*
X013991Y018581D02*
X014365Y018581D01*
X014975Y018581D02*
X020467Y018581D01*
X020349Y018462D02*
X020070Y018462D01*
X020073Y018460D02*
X020017Y018500D01*
X019956Y018531D01*
X019891Y018553D01*
X019823Y018563D01*
X019817Y018563D01*
X019817Y018155D01*
X019760Y018155D01*
X019760Y018563D01*
X019754Y018563D01*
X019686Y018553D01*
X019620Y018531D01*
X019559Y018500D01*
X019503Y018460D01*
X019455Y018411D01*
X019414Y018355D01*
X019383Y018294D01*
X019362Y018229D01*
X019351Y018161D01*
X019351Y018155D01*
X019760Y018155D01*
X019760Y018098D01*
X019817Y018098D01*
X019817Y018155D01*
X020225Y018155D01*
X020225Y018161D01*
X020215Y018229D01*
X020193Y018294D01*
X020162Y018355D01*
X020122Y018411D01*
X020073Y018460D01*
X020168Y018344D02*
X020281Y018344D01*
X020235Y018225D02*
X020215Y018225D01*
X020235Y018107D02*
X019817Y018107D01*
X019817Y018098D02*
X020225Y018098D01*
X020225Y018092D01*
X020215Y018024D01*
X020193Y017958D01*
X020162Y017897D01*
X020122Y017841D01*
X020073Y017793D01*
X020017Y017752D01*
X019956Y017721D01*
X019891Y017700D01*
X019823Y017689D01*
X019817Y017689D01*
X019817Y018098D01*
X019760Y018098D02*
X019760Y017689D01*
X019754Y017689D01*
X019686Y017700D01*
X019620Y017721D01*
X019559Y017752D01*
X019503Y017793D01*
X019455Y017841D01*
X019414Y017897D01*
X019383Y017958D01*
X019362Y018024D01*
X019351Y018092D01*
X019351Y018098D01*
X019760Y018098D01*
X019760Y018107D02*
X015207Y018107D01*
X015207Y018225D02*
X019361Y018225D01*
X019408Y018344D02*
X015161Y018344D01*
X015094Y018462D02*
X019507Y018462D01*
X019760Y018462D02*
X019817Y018462D01*
X019817Y018344D02*
X019760Y018344D01*
X019760Y018225D02*
X019817Y018225D01*
X019817Y017988D02*
X019760Y017988D01*
X019760Y017870D02*
X019817Y017870D01*
X019817Y017751D02*
X019760Y017751D01*
X019561Y017751D02*
X019007Y017751D01*
X019156Y017633D02*
X020560Y017633D01*
X020388Y017751D02*
X020015Y017751D01*
X020142Y017870D02*
X020297Y017870D01*
X020248Y017988D02*
X020203Y017988D01*
X020984Y017633D02*
X021348Y017633D01*
X021175Y017751D02*
X021157Y017751D01*
X021772Y017633D02*
X022332Y017633D01*
X022160Y017751D02*
X021944Y017751D01*
X022035Y017870D02*
X022069Y017870D01*
X022051Y018344D02*
X022053Y018344D01*
X022120Y018462D02*
X021984Y018462D01*
X021865Y018581D02*
X022239Y018581D01*
X021255Y018581D02*
X021078Y018581D01*
X019434Y017870D02*
X018651Y017870D01*
X018640Y017870D02*
X018520Y017870D01*
X018508Y017870D02*
X015950Y017870D01*
X015939Y017870D02*
X015819Y017870D01*
X015819Y017871D02*
X015720Y017858D01*
X015617Y017830D01*
X015518Y017790D01*
X015426Y017736D01*
X015342Y017672D01*
X015266Y017596D01*
X015202Y017512D01*
X015148Y017419D01*
X015107Y017321D01*
X015080Y017218D01*
X015067Y017119D01*
X015819Y017119D01*
X015819Y016999D01*
X015939Y016999D01*
X015939Y017119D01*
X016691Y017119D01*
X016678Y017218D01*
X016650Y017321D01*
X016609Y017419D01*
X016556Y017512D01*
X016491Y017596D01*
X016416Y017672D01*
X016331Y017736D01*
X016239Y017790D01*
X016141Y017830D01*
X016038Y017858D01*
X015939Y017871D01*
X015939Y017119D01*
X015819Y017119D01*
X015819Y017871D01*
X015807Y017870D02*
X015145Y017870D01*
X015194Y017988D02*
X019373Y017988D01*
X018640Y017751D02*
X018520Y017751D01*
X018520Y017633D02*
X018640Y017633D01*
X018640Y017514D02*
X018520Y017514D01*
X018520Y017396D02*
X018640Y017396D01*
X018640Y017277D02*
X018520Y017277D01*
X018520Y017159D02*
X018640Y017159D01*
X018640Y017040D02*
X023693Y017040D01*
X023693Y016922D02*
X023813Y016922D01*
X023813Y016803D02*
X023693Y016803D01*
X023693Y016685D02*
X023813Y016685D01*
X026744Y012419D02*
X019702Y012419D01*
X019882Y012300D02*
X026565Y012300D01*
X026452Y012182D02*
X019994Y012182D01*
X020043Y012063D02*
X026403Y012063D01*
X026357Y011945D02*
X020090Y011945D01*
X020090Y011826D02*
X026357Y011826D01*
X026357Y011708D02*
X020090Y011708D01*
X020090Y011589D02*
X026357Y011589D01*
X026357Y011471D02*
X020090Y011471D01*
X020090Y011352D02*
X026357Y011352D01*
X026357Y011234D02*
X020090Y011234D01*
X020090Y011115D02*
X026357Y011115D01*
X026357Y010997D02*
X020090Y010997D01*
X020079Y010878D02*
X023765Y010878D01*
X023646Y010760D02*
X020030Y010760D01*
X019967Y010641D02*
X023560Y010641D01*
X023511Y010523D02*
X019849Y010523D01*
X019623Y010404D02*
X023483Y010404D01*
X023483Y010286D02*
X018003Y010286D01*
X018003Y010195D02*
X018003Y010455D01*
X017903Y010696D01*
X017720Y010880D01*
X017479Y010979D01*
X016432Y010979D01*
X016192Y010880D01*
X016008Y010696D01*
X015908Y010455D01*
X015908Y010195D01*
X016008Y009955D01*
X016192Y009771D01*
X016432Y009672D01*
X017188Y009672D01*
X017110Y009593D01*
X017010Y009353D01*
X017010Y009093D01*
X017110Y008853D01*
X017294Y008669D01*
X017534Y008569D01*
X018582Y008569D01*
X018822Y008669D01*
X019006Y008853D01*
X019105Y009093D01*
X019105Y009353D01*
X019006Y009593D01*
X018822Y009777D01*
X018582Y009877D01*
X017825Y009877D01*
X017903Y009955D01*
X018003Y010195D01*
X017991Y010167D02*
X023495Y010167D01*
X023544Y010049D02*
X017942Y010049D01*
X017878Y009930D02*
X023607Y009930D01*
X023726Y009812D02*
X018739Y009812D01*
X018906Y009693D02*
X023955Y009693D01*
X024628Y009456D02*
X019063Y009456D01*
X019105Y009338D02*
X024585Y009338D01*
X024585Y009219D02*
X019105Y009219D01*
X019105Y009101D02*
X024585Y009101D01*
X024631Y008982D02*
X019059Y008982D01*
X019010Y008864D02*
X024680Y008864D01*
X024792Y008745D02*
X018898Y008745D01*
X018720Y008627D02*
X024971Y008627D01*
X024677Y009575D02*
X019014Y009575D01*
X019249Y010404D02*
X018003Y010404D01*
X017975Y010523D02*
X019023Y010523D01*
X018904Y010641D02*
X017926Y010641D01*
X017840Y010760D02*
X018842Y010760D01*
X018793Y010878D02*
X017721Y010878D01*
X018782Y010997D02*
X000460Y010997D01*
X000460Y011115D02*
X018782Y011115D01*
X018782Y011234D02*
X000460Y011234D01*
X000460Y011352D02*
X018782Y011352D01*
X018782Y011471D02*
X000460Y011471D01*
X000460Y011589D02*
X018782Y011589D01*
X018782Y011708D02*
X000460Y011708D01*
X000460Y011826D02*
X018782Y011826D01*
X018782Y011945D02*
X000460Y011945D01*
X000460Y012063D02*
X002245Y012063D01*
X002009Y012182D02*
X000460Y012182D01*
X000460Y012300D02*
X001891Y012300D01*
X001840Y012419D02*
X000460Y012419D01*
X000460Y012537D02*
X001802Y012537D01*
X001802Y012656D02*
X000460Y012656D01*
X000460Y012774D02*
X001820Y012774D01*
X001869Y012893D02*
X000460Y012893D01*
X000460Y013011D02*
X001961Y013011D01*
X002084Y013130D02*
X000460Y013130D01*
X000460Y013248D02*
X001943Y013248D01*
X001861Y013367D02*
X000460Y013367D01*
X000460Y013485D02*
X001812Y013485D01*
X001802Y013604D02*
X000460Y013604D01*
X000460Y013722D02*
X001802Y013722D01*
X001847Y013841D02*
X000460Y013841D01*
X000460Y013959D02*
X001909Y013959D01*
X002027Y014078D02*
X000460Y014078D01*
X000460Y014196D02*
X002182Y014196D01*
X002018Y014315D02*
X000460Y014315D01*
X000460Y014433D02*
X001942Y014433D01*
X001907Y014552D02*
X000460Y014552D01*
X000460Y014670D02*
X001904Y014670D01*
X001933Y014789D02*
X000460Y014789D01*
X000460Y014907D02*
X002002Y014907D01*
X002144Y015026D02*
X000460Y015026D01*
X000460Y015144D02*
X002049Y015144D01*
X001928Y015263D02*
X000460Y015263D01*
X000460Y015381D02*
X001855Y015381D01*
X001806Y015500D02*
X000460Y015500D01*
X000460Y015618D02*
X001802Y015618D01*
X001804Y015737D02*
X000460Y015737D01*
X000460Y015855D02*
X001853Y015855D01*
X001923Y015974D02*
X000460Y015974D01*
X000460Y016092D02*
X002042Y016092D01*
X001980Y016211D02*
X000460Y016211D01*
X000460Y016329D02*
X001877Y016329D01*
X001828Y016448D02*
X000460Y016448D01*
X000460Y016566D02*
X001802Y016566D01*
X001802Y016685D02*
X000460Y016685D01*
X000460Y016803D02*
X001832Y016803D01*
X001881Y016922D02*
X000460Y016922D01*
X000460Y017040D02*
X001990Y017040D01*
X002032Y017159D02*
X000460Y017159D01*
X000460Y017277D02*
X001914Y017277D01*
X001849Y017396D02*
X000460Y017396D01*
X000460Y017514D02*
X001802Y017514D01*
X001802Y017633D02*
X000460Y017633D01*
X000460Y017751D02*
X001810Y017751D01*
X001859Y017870D02*
X000460Y017870D01*
X000460Y017988D02*
X001938Y017988D01*
X002072Y018107D02*
X000460Y018107D01*
X000460Y018225D02*
X007617Y018225D01*
X007617Y018107D02*
X003252Y018107D01*
X003387Y017988D02*
X007617Y017988D01*
X007617Y017870D02*
X003465Y017870D01*
X003514Y017751D02*
X007617Y017751D01*
X007617Y017633D02*
X003522Y017633D01*
X003522Y017514D02*
X007643Y017514D01*
X007761Y017396D02*
X003475Y017396D01*
X003411Y017277D02*
X009922Y017277D01*
X009934Y017321D02*
X009907Y017218D01*
X009894Y017119D01*
X010646Y017119D01*
X010646Y017871D01*
X010547Y017858D01*
X010444Y017830D01*
X010345Y017790D01*
X010253Y017736D01*
X010168Y017672D01*
X010093Y017596D01*
X010028Y017512D01*
X009975Y017419D01*
X009934Y017321D01*
X009965Y017396D02*
X008587Y017396D01*
X008705Y017514D02*
X010030Y017514D01*
X010129Y017633D02*
X008731Y017633D01*
X008731Y017751D02*
X010278Y017751D01*
X010646Y017751D02*
X010766Y017751D01*
X010766Y017633D02*
X010646Y017633D01*
X010646Y017514D02*
X010766Y017514D01*
X010766Y017396D02*
X010646Y017396D01*
X010646Y017277D02*
X010766Y017277D01*
X010766Y017159D02*
X010646Y017159D01*
X010646Y017119D02*
X010766Y017119D01*
X010766Y016999D01*
X011517Y016999D01*
X011504Y016900D01*
X011477Y016797D01*
X011436Y016699D01*
X011383Y016607D01*
X011318Y016522D01*
X011243Y016447D01*
X011158Y016382D01*
X011066Y016329D01*
X015518Y016329D01*
X015617Y016288D01*
X015720Y016260D01*
X015819Y016247D01*
X015819Y016999D01*
X015067Y016999D01*
X015080Y016900D01*
X015107Y016797D01*
X015148Y016699D01*
X015202Y016607D01*
X015266Y016522D01*
X015342Y016447D01*
X015426Y016382D01*
X015518Y016329D01*
X015341Y016448D02*
X011243Y016448D01*
X011352Y016566D02*
X015233Y016566D01*
X015157Y016685D02*
X011428Y016685D01*
X011478Y016803D02*
X015106Y016803D01*
X015077Y016922D02*
X011507Y016922D01*
X011512Y017159D02*
X015072Y017159D01*
X015096Y017277D02*
X011489Y017277D01*
X011446Y017396D02*
X015138Y017396D01*
X015203Y017514D02*
X011381Y017514D01*
X011560Y017870D02*
X010777Y017870D01*
X010766Y017870D02*
X010646Y017870D01*
X010634Y017870D02*
X008731Y017870D01*
X008731Y017988D02*
X011499Y017988D01*
X010766Y017040D02*
X015819Y017040D01*
X015819Y016922D02*
X015939Y016922D01*
X015939Y016999D02*
X015939Y016247D01*
X016038Y016260D01*
X016141Y016288D01*
X016239Y016329D01*
X016331Y016382D01*
X016416Y016447D01*
X016491Y016522D01*
X016556Y016607D01*
X016609Y016699D01*
X016650Y016797D01*
X016678Y016900D01*
X016691Y016999D01*
X015939Y016999D01*
X015939Y017040D02*
X018520Y017040D01*
X018520Y016999D02*
X017768Y016999D01*
X017781Y016900D01*
X017808Y016797D01*
X017849Y016699D01*
X017902Y016607D01*
X017967Y016522D01*
X018042Y016447D01*
X018127Y016382D01*
X018219Y016329D01*
X016240Y016329D01*
X016416Y016448D02*
X018042Y016448D01*
X017934Y016566D02*
X016525Y016566D01*
X016601Y016685D02*
X017857Y016685D01*
X017807Y016803D02*
X016652Y016803D01*
X016680Y016922D02*
X017778Y016922D01*
X017773Y017159D02*
X016685Y017159D01*
X016662Y017277D02*
X017796Y017277D01*
X017839Y017396D02*
X016619Y017396D01*
X016554Y017514D02*
X017904Y017514D01*
X018003Y017633D02*
X016455Y017633D01*
X016306Y017751D02*
X018152Y017751D01*
X018520Y016999D02*
X018520Y016247D01*
X018421Y016260D01*
X018318Y016288D01*
X018219Y016329D01*
X018520Y016329D02*
X018640Y016329D01*
X018640Y016448D02*
X018520Y016448D01*
X018520Y016566D02*
X018640Y016566D01*
X018640Y016685D02*
X018520Y016685D01*
X018520Y016803D02*
X018640Y016803D01*
X018640Y016922D02*
X018520Y016922D01*
X019032Y016382D02*
X019117Y016447D01*
X019032Y016382D02*
X018940Y016329D01*
X015939Y016329D02*
X015819Y016329D01*
X015819Y016448D02*
X015939Y016448D01*
X015939Y016566D02*
X015819Y016566D01*
X015819Y016685D02*
X015939Y016685D01*
X015939Y016803D02*
X015819Y016803D01*
X015819Y017159D02*
X015939Y017159D01*
X015939Y017277D02*
X015819Y017277D01*
X015819Y017396D02*
X015939Y017396D01*
X015939Y017514D02*
X015819Y017514D01*
X015819Y017633D02*
X015939Y017633D01*
X015939Y017751D02*
X015819Y017751D01*
X015452Y017751D02*
X015055Y017751D01*
X014882Y017633D02*
X015303Y017633D01*
X013381Y018581D02*
X013204Y018581D01*
X011066Y016329D02*
X010967Y016288D01*
X010864Y016260D01*
X010766Y016247D01*
X010766Y016999D01*
X010646Y016999D01*
X010646Y016247D01*
X010547Y016260D01*
X010444Y016288D01*
X010345Y016329D01*
X003448Y016329D01*
X003497Y016448D02*
X010168Y016448D01*
X010168Y016447D02*
X010253Y016382D01*
X010345Y016329D01*
X010168Y016447D02*
X010093Y016522D01*
X010028Y016607D01*
X009975Y016699D01*
X009934Y016797D01*
X009907Y016900D01*
X009894Y016999D01*
X010646Y016999D01*
X010646Y017119D01*
X010646Y017040D02*
X003335Y017040D01*
X003292Y017159D02*
X009899Y017159D01*
X009904Y016922D02*
X003444Y016922D01*
X003493Y016803D02*
X009933Y016803D01*
X009983Y016685D02*
X003522Y016685D01*
X003522Y016566D02*
X010059Y016566D01*
X010646Y016566D02*
X010766Y016566D01*
X010766Y016448D02*
X010646Y016448D01*
X010646Y016329D02*
X010766Y016329D01*
X010766Y016685D02*
X010646Y016685D01*
X010646Y016803D02*
X010766Y016803D01*
X010766Y016922D02*
X010646Y016922D01*
X007776Y018462D02*
X000460Y018462D01*
X000460Y018344D02*
X007646Y018344D01*
X000460Y010878D02*
X016190Y010878D01*
X016072Y010760D02*
X000460Y010760D01*
X000460Y010641D02*
X015985Y010641D01*
X015936Y010523D02*
X000460Y010523D01*
X000460Y010404D02*
X007833Y010404D01*
X007815Y010399D02*
X007779Y010378D01*
X007749Y010348D01*
X007728Y010312D01*
X007717Y010271D01*
X007717Y009992D01*
X008136Y009992D01*
X008136Y010410D01*
X007856Y010410D01*
X007815Y010399D01*
X007721Y010286D02*
X000460Y010286D01*
X000460Y010167D02*
X007717Y010167D01*
X007717Y010049D02*
X000460Y010049D01*
X000460Y009930D02*
X001143Y009930D01*
X001034Y009885D02*
X000811Y009663D01*
X000691Y009372D01*
X000691Y009058D01*
X000811Y008768D01*
X001034Y008545D01*
X001324Y008425D01*
X001638Y008425D01*
X001929Y008545D01*
X002151Y008768D01*
X002271Y009058D01*
X002271Y009372D01*
X002151Y009663D01*
X001929Y009885D01*
X001638Y010005D01*
X001324Y010005D01*
X001034Y009885D01*
X000960Y009812D02*
X000460Y009812D01*
X000460Y009693D02*
X000842Y009693D01*
X000775Y009575D02*
X000460Y009575D01*
X000460Y009456D02*
X000726Y009456D01*
X000691Y009338D02*
X000460Y009338D01*
X000460Y009219D02*
X000691Y009219D01*
X000691Y009101D02*
X000460Y009101D01*
X000460Y008982D02*
X000723Y008982D01*
X000772Y008864D02*
X000460Y008864D01*
X000460Y008745D02*
X000834Y008745D01*
X000953Y008627D02*
X000460Y008627D01*
X000460Y008508D02*
X001124Y008508D01*
X001838Y008508D02*
X028289Y008508D01*
X028118Y008627D02*
X026295Y008627D01*
X026473Y008745D02*
X027999Y008745D01*
X027937Y008864D02*
X026585Y008864D01*
X026634Y008982D02*
X027888Y008982D01*
X027857Y009101D02*
X026680Y009101D01*
X026680Y009219D02*
X027857Y009219D01*
X027857Y009338D02*
X026680Y009338D01*
X026637Y009456D02*
X027891Y009456D01*
X027940Y009575D02*
X026588Y009575D01*
X026481Y009693D02*
X028007Y009693D01*
X028126Y009812D02*
X026314Y009812D01*
X026598Y010523D02*
X025550Y010523D01*
X025578Y010404D02*
X026823Y010404D01*
X026479Y010641D02*
X025501Y010641D01*
X025414Y010760D02*
X026417Y010760D01*
X026368Y010878D02*
X025296Y010878D01*
X027277Y012419D02*
X034319Y012419D01*
X034140Y012300D02*
X027456Y012300D01*
X027569Y012182D02*
X034027Y012182D01*
X033978Y012063D02*
X027618Y012063D01*
X027664Y011945D02*
X033932Y011945D01*
X033932Y011826D02*
X027664Y011826D01*
X027664Y011708D02*
X033932Y011708D01*
X033932Y011589D02*
X027664Y011589D01*
X027664Y011471D02*
X033932Y011471D01*
X033932Y011352D02*
X027664Y011352D01*
X027664Y011234D02*
X033932Y011234D01*
X033932Y011115D02*
X027664Y011115D01*
X031567Y016329D02*
X031687Y016329D01*
X031687Y016448D02*
X031567Y016448D01*
X031567Y016566D02*
X031687Y016566D01*
X031687Y016685D02*
X031567Y016685D01*
X031567Y016803D02*
X031687Y016803D01*
X031687Y017159D02*
X031567Y017159D01*
X031567Y017277D02*
X031687Y017277D01*
X031687Y017396D02*
X031567Y017396D01*
X031567Y017514D02*
X031687Y017514D01*
X031687Y017633D02*
X031567Y017633D01*
X031567Y017751D02*
X031687Y017751D01*
X031687Y017870D02*
X031567Y017870D01*
X031555Y017870D02*
X030893Y017870D01*
X030942Y017988D02*
X035121Y017988D01*
X035182Y017870D02*
X034399Y017870D01*
X034388Y017870D02*
X034268Y017870D01*
X034256Y017870D02*
X031699Y017870D01*
X032054Y017751D02*
X033900Y017751D01*
X033751Y017633D02*
X032203Y017633D01*
X032302Y017514D02*
X033652Y017514D01*
X033587Y017396D02*
X032367Y017396D01*
X032410Y017277D02*
X033544Y017277D01*
X033521Y017159D02*
X032433Y017159D01*
X032428Y016922D02*
X033526Y016922D01*
X033555Y016803D02*
X032400Y016803D01*
X032349Y016685D02*
X033605Y016685D01*
X033682Y016566D02*
X032273Y016566D01*
X031200Y017751D02*
X030803Y017751D01*
X030630Y017633D02*
X031051Y017633D01*
X029129Y018581D02*
X028952Y018581D01*
X034268Y017751D02*
X034388Y017751D01*
X034388Y017633D02*
X034268Y017633D01*
X034268Y017514D02*
X034388Y017514D01*
X034388Y017396D02*
X034268Y017396D01*
X034268Y017277D02*
X034388Y017277D01*
X034388Y017159D02*
X034268Y017159D01*
X034268Y016803D02*
X034388Y016803D01*
X034388Y016685D02*
X034268Y016685D01*
X034268Y016566D02*
X034388Y016566D01*
X034388Y016448D02*
X034268Y016448D01*
X034268Y016329D02*
X034388Y016329D01*
X034688Y016329D02*
X039140Y016329D01*
X038963Y016448D02*
X034865Y016448D01*
X034974Y016566D02*
X038855Y016566D01*
X038779Y016685D02*
X035050Y016685D01*
X035100Y016803D02*
X038728Y016803D01*
X038699Y016922D02*
X035129Y016922D01*
X035134Y017159D02*
X038694Y017159D01*
X038689Y017119D02*
X039441Y017119D01*
X039441Y017871D01*
X039342Y017858D01*
X039239Y017830D01*
X039141Y017790D01*
X039048Y017736D01*
X038964Y017672D01*
X038888Y017596D01*
X038824Y017512D01*
X038770Y017419D01*
X038730Y017321D01*
X038702Y017218D01*
X038689Y017119D01*
X038718Y017277D02*
X035111Y017277D01*
X035068Y017396D02*
X038760Y017396D01*
X038825Y017514D02*
X035003Y017514D01*
X036826Y018581D02*
X037003Y018581D01*
X038504Y017633D02*
X038925Y017633D01*
X039074Y017751D02*
X038677Y017751D01*
X038767Y017870D02*
X039429Y017870D01*
X039441Y017870D02*
X039561Y017870D01*
X039573Y017870D02*
X043447Y017870D01*
X043447Y017988D02*
X038816Y017988D01*
X038829Y018107D02*
X043447Y018107D01*
X043447Y018225D02*
X038829Y018225D01*
X038784Y018344D02*
X043447Y018344D01*
X043447Y018462D02*
X038716Y018462D01*
X039441Y017751D02*
X039561Y017751D01*
X039561Y017633D02*
X039441Y017633D01*
X039441Y017514D02*
X039561Y017514D01*
X039561Y017396D02*
X039441Y017396D01*
X039441Y017277D02*
X039561Y017277D01*
X039561Y017159D02*
X039441Y017159D01*
X039441Y016803D02*
X039561Y016803D01*
X039561Y016685D02*
X039441Y016685D01*
X039441Y016566D02*
X039561Y016566D01*
X039561Y016448D02*
X039441Y016448D01*
X039441Y016329D02*
X039561Y016329D01*
X040307Y017159D02*
X043447Y017159D01*
X043447Y017277D02*
X040284Y017277D01*
X040241Y017396D02*
X043447Y017396D01*
X043447Y017514D02*
X040176Y017514D01*
X040077Y017633D02*
X043447Y017633D01*
X043447Y017751D02*
X039928Y017751D01*
X043447Y010167D02*
X033141Y010167D01*
X033092Y010049D02*
X043447Y010049D01*
X043447Y009930D02*
X033028Y009930D01*
X032909Y009812D02*
X043447Y009812D01*
X043447Y009693D02*
X033896Y009693D01*
X034030Y009575D02*
X043447Y009575D01*
X043447Y009456D02*
X034104Y009456D01*
X034144Y009338D02*
X043447Y009338D01*
X043447Y006138D02*
X030972Y006138D01*
X031178Y006020D02*
X043447Y006020D01*
X043447Y005901D02*
X031296Y005901D01*
X031351Y005783D02*
X043447Y005783D01*
X043447Y005664D02*
X031400Y005664D01*
X031404Y005546D02*
X043447Y005546D01*
X043447Y005427D02*
X031404Y005427D01*
X031404Y005309D02*
X043447Y005309D01*
X043447Y005190D02*
X031404Y005190D01*
X031404Y005072D02*
X043447Y005072D01*
X043447Y004953D02*
X031404Y004953D01*
X031404Y004835D02*
X043447Y004835D01*
X043447Y004716D02*
X031404Y004716D01*
X031401Y004598D02*
X043447Y004598D01*
X043447Y004479D02*
X031352Y004479D01*
X031301Y004361D02*
X043447Y004361D01*
X043447Y004242D02*
X031182Y004242D01*
X030983Y004124D02*
X043447Y004124D01*
X043447Y002820D02*
X030311Y002820D01*
X030275Y002702D02*
X043447Y002702D01*
X043447Y002583D02*
X030203Y002583D01*
X030076Y002465D02*
X043447Y002465D01*
X043189Y000450D02*
X000718Y000450D01*
X000978Y000331D02*
X042929Y000331D01*
X033227Y008745D02*
X033187Y008745D01*
X033187Y008864D02*
X033227Y008864D01*
X033227Y008982D02*
X033187Y008982D01*
X033187Y009101D02*
X033227Y009101D01*
X033227Y009338D02*
X033187Y009338D01*
X033187Y009456D02*
X033227Y009456D01*
X033227Y009575D02*
X033187Y009575D01*
X033187Y009693D02*
X033227Y009693D01*
X030529Y006138D02*
X023492Y006138D01*
X023698Y006020D02*
X030324Y006020D01*
X030205Y005901D02*
X023816Y005901D01*
X023870Y005783D02*
X030151Y005783D01*
X030102Y005664D02*
X023919Y005664D01*
X023924Y005546D02*
X030097Y005546D01*
X030097Y005427D02*
X023924Y005427D01*
X023924Y005309D02*
X030097Y005309D01*
X030097Y005190D02*
X023924Y005190D01*
X023924Y005072D02*
X030097Y005072D01*
X030097Y004953D02*
X023924Y004953D01*
X023924Y004835D02*
X030097Y004835D01*
X030097Y004716D02*
X023924Y004716D01*
X023921Y004598D02*
X030100Y004598D01*
X027558Y004479D02*
X023872Y004479D01*
X023821Y004361D02*
X027435Y004361D01*
X027365Y004242D02*
X023702Y004242D01*
X023503Y004124D02*
X027332Y004124D01*
X027323Y004005D02*
X021738Y004005D01*
X021729Y004124D02*
X023038Y004124D01*
X022839Y004242D02*
X021695Y004242D01*
X021625Y004361D02*
X022720Y004361D01*
X022669Y004479D02*
X021503Y004479D01*
X021721Y003887D02*
X027340Y003887D01*
X027387Y003768D02*
X021674Y003768D01*
X021590Y003650D02*
X027470Y003650D01*
X021913Y003413D02*
X021873Y003413D01*
X021873Y003294D02*
X021913Y003294D01*
X021913Y003176D02*
X021873Y003176D01*
X021873Y003057D02*
X021913Y003057D01*
X021913Y002820D02*
X021873Y002820D01*
X021873Y002702D02*
X021913Y002702D01*
X021913Y002583D02*
X021873Y002583D01*
X021873Y002465D02*
X021913Y002465D01*
X017396Y008627D02*
X002010Y008627D01*
X002128Y008745D02*
X017218Y008745D01*
X017106Y008864D02*
X002190Y008864D01*
X002240Y008982D02*
X017056Y008982D01*
X017010Y009101D02*
X002271Y009101D01*
X002271Y009219D02*
X017010Y009219D01*
X017010Y009338D02*
X002271Y009338D01*
X002236Y009456D02*
X017053Y009456D01*
X017102Y009575D02*
X008608Y009575D01*
X008599Y009558D02*
X008620Y009595D01*
X008631Y009635D01*
X008631Y009915D01*
X008212Y009915D01*
X008212Y009496D01*
X008492Y009496D01*
X008533Y009507D01*
X008569Y009528D01*
X008599Y009558D01*
X008631Y009693D02*
X016380Y009693D01*
X016151Y009812D02*
X008631Y009812D01*
X008631Y009992D02*
X008631Y010271D01*
X008620Y010312D01*
X008599Y010348D01*
X008569Y010378D01*
X008533Y010399D01*
X008492Y010410D01*
X008212Y010410D01*
X008212Y009992D01*
X008136Y009992D01*
X008136Y009915D01*
X008212Y009915D01*
X008212Y009992D01*
X008631Y009992D01*
X008631Y010049D02*
X015969Y010049D01*
X015920Y010167D02*
X008631Y010167D01*
X008627Y010286D02*
X015908Y010286D01*
X015908Y010404D02*
X008515Y010404D01*
X008212Y010404D02*
X008136Y010404D01*
X008136Y010286D02*
X008212Y010286D01*
X008212Y010167D02*
X008136Y010167D01*
X008136Y010049D02*
X008212Y010049D01*
X008212Y009930D02*
X016033Y009930D01*
X008212Y009812D02*
X008136Y009812D01*
X008136Y009915D02*
X008136Y009496D01*
X007856Y009496D01*
X007815Y009507D01*
X007779Y009528D01*
X007749Y009558D01*
X007728Y009595D01*
X007717Y009635D01*
X007717Y009915D01*
X008136Y009915D01*
X008136Y009930D02*
X001819Y009930D01*
X002002Y009812D02*
X007717Y009812D01*
X007717Y009693D02*
X002120Y009693D01*
X002187Y009575D02*
X007740Y009575D01*
X008136Y009575D02*
X008212Y009575D01*
X008212Y009693D02*
X008136Y009693D01*
X000460Y025928D02*
X023400Y025928D01*
X023593Y026046D02*
X000460Y026046D01*
X000460Y026165D02*
X034455Y026165D01*
X034428Y026283D02*
X000460Y026283D01*
X000460Y026402D02*
X034428Y026402D01*
X034428Y026520D02*
X000460Y026520D01*
X000460Y026639D02*
X034428Y026639D01*
X034428Y026757D02*
X000460Y026757D01*
X000460Y026876D02*
X034440Y026876D01*
X034519Y026994D02*
X000460Y026994D01*
X000460Y027113D02*
X043447Y027113D01*
X043447Y027231D02*
X000460Y027231D01*
X000460Y027350D02*
X043447Y027350D01*
X043447Y027468D02*
X000460Y027468D01*
X000460Y027587D02*
X043447Y027587D01*
X043447Y027705D02*
X000460Y027705D01*
X000460Y027824D02*
X043447Y027824D01*
X043447Y027942D02*
X000460Y027942D01*
X000460Y028061D02*
X043447Y028061D01*
X043447Y028179D02*
X000460Y028179D01*
X000460Y028298D02*
X043447Y028298D01*
X043447Y028416D02*
X000460Y028416D01*
X000460Y028535D02*
X001250Y028535D01*
X001324Y028504D02*
X001034Y028624D01*
X000811Y028846D01*
X000691Y029137D01*
X000691Y029451D01*
X000811Y029741D01*
X001034Y029964D01*
X001324Y030084D01*
X001638Y030084D01*
X001929Y029964D01*
X002151Y029741D01*
X002271Y029451D01*
X002271Y029137D01*
X002151Y028846D01*
X001929Y028624D01*
X001638Y028504D01*
X001324Y028504D01*
X001005Y028653D02*
X000460Y028653D01*
X000460Y028772D02*
X000886Y028772D01*
X000793Y028890D02*
X000460Y028890D01*
X000460Y029009D02*
X000744Y029009D01*
X000695Y029127D02*
X000460Y029127D01*
X000460Y029246D02*
X000691Y029246D01*
X000691Y029364D02*
X000460Y029364D01*
X000460Y029483D02*
X000704Y029483D01*
X000753Y029601D02*
X000460Y029601D01*
X000460Y029720D02*
X000802Y029720D01*
X000908Y029838D02*
X000460Y029838D01*
X000460Y029957D02*
X001027Y029957D01*
X001303Y030075D02*
X000460Y030075D01*
X000460Y030194D02*
X012126Y030194D01*
X012126Y030312D02*
X000460Y030312D01*
X000460Y030431D02*
X012126Y030431D01*
X012126Y030493D02*
X012126Y029670D01*
X012211Y029464D01*
X012369Y029307D01*
X012574Y029221D01*
X012797Y029221D01*
X013003Y029307D01*
X013161Y029464D01*
X013186Y029525D01*
X013211Y029464D01*
X013369Y029307D01*
X013574Y029221D01*
X013797Y029221D01*
X014003Y029307D01*
X014161Y029464D01*
X014242Y029660D01*
X014260Y029605D01*
X014292Y029540D01*
X014335Y029482D01*
X014386Y029430D01*
X014445Y029388D01*
X014509Y029355D01*
X014578Y029333D01*
X014646Y029322D01*
X014646Y030041D01*
X014726Y030041D01*
X014726Y029322D01*
X014794Y029333D01*
X014862Y029355D01*
X014927Y029388D01*
X014985Y029430D01*
X015037Y029482D01*
X015079Y029540D01*
X015112Y029605D01*
X015134Y029674D01*
X015146Y029745D01*
X015146Y030041D01*
X014726Y030041D01*
X014726Y030121D01*
X015146Y030121D01*
X015146Y030417D01*
X015134Y030489D01*
X015112Y030558D01*
X015079Y030622D01*
X015037Y030681D01*
X014985Y030732D01*
X014927Y030775D01*
X014862Y030808D01*
X014794Y030830D01*
X014726Y030841D01*
X014726Y030121D01*
X014646Y030121D01*
X014646Y030841D01*
X014578Y030830D01*
X014509Y030808D01*
X014445Y030775D01*
X014386Y030732D01*
X014335Y030681D01*
X014292Y030622D01*
X014260Y030558D01*
X014242Y030503D01*
X014161Y030698D01*
X014003Y030856D01*
X013797Y030941D01*
X013574Y030941D01*
X013369Y030856D01*
X013211Y030698D01*
X013186Y030638D01*
X013161Y030698D01*
X013003Y030856D01*
X012797Y030941D01*
X012574Y030941D01*
X012369Y030856D01*
X012211Y030698D01*
X012126Y030493D01*
X012149Y030549D02*
X000460Y030549D01*
X000460Y030668D02*
X012198Y030668D01*
X012299Y030786D02*
X000460Y030786D01*
X000460Y030905D02*
X005477Y030905D01*
X005488Y030900D02*
X005393Y030940D01*
X005320Y031013D01*
X005280Y031108D01*
X005280Y032275D01*
X005320Y032370D01*
X005393Y032443D01*
X005488Y032483D01*
X006655Y032483D01*
X006750Y032443D01*
X006824Y032370D01*
X006863Y032275D01*
X006863Y031108D01*
X006824Y031013D01*
X006750Y030940D01*
X006655Y030900D01*
X005488Y030900D01*
X005315Y031023D02*
X000460Y031023D01*
X000460Y031142D02*
X005280Y031142D01*
X005280Y031260D02*
X000460Y031260D01*
X000460Y031379D02*
X005280Y031379D01*
X005280Y031497D02*
X000460Y031497D01*
X000460Y031616D02*
X005280Y031616D01*
X005280Y031734D02*
X000460Y031734D01*
X000460Y031853D02*
X005280Y031853D01*
X005280Y031971D02*
X000460Y031971D01*
X000460Y032090D02*
X005280Y032090D01*
X005280Y032208D02*
X000460Y032208D01*
X000460Y032327D02*
X005302Y032327D01*
X005397Y032445D02*
X000460Y032445D01*
X000460Y032564D02*
X043447Y032564D01*
X043447Y032682D02*
X000460Y032682D01*
X000460Y032801D02*
X043447Y032801D01*
X043447Y032919D02*
X000460Y032919D01*
X000460Y033038D02*
X043447Y033038D01*
X043447Y033156D02*
X000460Y033156D01*
X000460Y033275D02*
X043447Y033275D01*
X043447Y033393D02*
X000460Y033393D01*
X000460Y033512D02*
X043447Y033512D01*
X043447Y033630D02*
X000460Y033630D01*
X000460Y033749D02*
X043447Y033749D01*
X043447Y033867D02*
X000460Y033867D01*
X000460Y033986D02*
X043447Y033986D01*
X043447Y034104D02*
X000460Y034104D01*
X000460Y034223D02*
X043447Y034223D01*
X043447Y034341D02*
X000460Y034341D01*
X000460Y034460D02*
X043447Y034460D01*
X043447Y034578D02*
X000460Y034578D01*
X000460Y034697D02*
X043447Y034697D01*
X043447Y034815D02*
X000460Y034815D01*
X000460Y034934D02*
X043447Y034934D01*
X043447Y035052D02*
X005722Y035052D01*
X005720Y035051D02*
X005795Y035106D01*
X005861Y035171D01*
X005916Y035246D01*
X005958Y035329D01*
X005987Y035418D01*
X006001Y035509D01*
X006001Y035537D01*
X005000Y035537D01*
X005000Y035574D01*
X006001Y035574D01*
X006001Y035602D01*
X005987Y035694D01*
X005958Y035782D01*
X005916Y035865D01*
X005861Y035940D01*
X005795Y036006D01*
X005720Y036060D01*
X005638Y036102D01*
X005549Y036131D01*
X005458Y036146D01*
X005000Y036146D01*
X005000Y035574D01*
X004962Y035574D01*
X004962Y035537D01*
X003961Y035537D01*
X003961Y035509D01*
X003976Y035418D01*
X004004Y035329D01*
X004046Y035246D01*
X004101Y035171D01*
X004167Y035106D01*
X004242Y035051D01*
X004325Y035009D01*
X004413Y034980D01*
X004505Y034966D01*
X004962Y034966D01*
X004962Y035537D01*
X005000Y035537D01*
X005000Y034966D01*
X005458Y034966D01*
X005549Y034980D01*
X005638Y035009D01*
X005720Y035051D01*
X005860Y035171D02*
X043447Y035171D01*
X043447Y035289D02*
X005937Y035289D01*
X005983Y035408D02*
X043447Y035408D01*
X043447Y035526D02*
X006001Y035526D01*
X005994Y035645D02*
X043447Y035645D01*
X043447Y035763D02*
X005964Y035763D01*
X005904Y035882D02*
X043447Y035882D01*
X043447Y036000D02*
X005801Y036000D01*
X005588Y036119D02*
X043447Y036119D01*
X043447Y036237D02*
X000460Y036237D01*
X000460Y036119D02*
X004374Y036119D01*
X004413Y036131D02*
X004325Y036102D01*
X004242Y036060D01*
X004167Y036006D01*
X004101Y035940D01*
X004046Y035865D01*
X004004Y035782D01*
X003976Y035694D01*
X003961Y035602D01*
X003961Y035574D01*
X004962Y035574D01*
X004962Y036146D01*
X004505Y036146D01*
X004413Y036131D01*
X004161Y036000D02*
X000460Y036000D01*
X000460Y035882D02*
X004059Y035882D01*
X003998Y035763D02*
X000460Y035763D01*
X000460Y035645D02*
X003968Y035645D01*
X003961Y035526D02*
X000460Y035526D01*
X000460Y035408D02*
X003979Y035408D01*
X004025Y035289D02*
X000460Y035289D01*
X000460Y035171D02*
X004102Y035171D01*
X004240Y035052D02*
X000460Y035052D01*
X000460Y036356D02*
X005952Y036356D01*
X006025Y036325D02*
X006299Y036325D01*
X006553Y036430D01*
X006747Y036625D01*
X006852Y036878D01*
X006852Y038013D01*
X006747Y038266D01*
X006553Y038460D01*
X006299Y038565D01*
X006025Y038565D01*
X005771Y038460D01*
X005577Y038266D01*
X005472Y038013D01*
X005472Y036878D01*
X005577Y036625D01*
X005771Y036430D01*
X006025Y036325D01*
X005728Y036474D02*
X004037Y036474D01*
X004026Y036469D02*
X004109Y036511D01*
X004184Y036565D01*
X004250Y036631D01*
X004305Y036706D01*
X004347Y036789D01*
X004375Y036877D01*
X004390Y036969D01*
X004390Y037427D01*
X003819Y037427D01*
X003819Y037464D01*
X004390Y037464D01*
X004390Y037922D01*
X004375Y038014D01*
X004375Y038015D02*
X005473Y038015D01*
X005472Y037896D02*
X004390Y037896D01*
X004390Y037778D02*
X005472Y037778D01*
X005472Y037659D02*
X004390Y037659D01*
X004390Y037541D02*
X005472Y037541D01*
X005472Y037422D02*
X004390Y037422D01*
X004390Y037304D02*
X005472Y037304D01*
X005472Y037185D02*
X004390Y037185D01*
X004390Y037067D02*
X005472Y037067D01*
X005472Y036948D02*
X004387Y036948D01*
X004360Y036830D02*
X005492Y036830D01*
X005541Y036711D02*
X004307Y036711D01*
X004212Y036593D02*
X005609Y036593D01*
X005000Y036119D02*
X004962Y036119D01*
X004962Y036000D02*
X005000Y036000D01*
X005000Y035882D02*
X004962Y035882D01*
X004962Y035763D02*
X005000Y035763D01*
X005000Y035645D02*
X004962Y035645D01*
X004962Y035526D02*
X005000Y035526D01*
X005000Y035408D02*
X004962Y035408D01*
X004962Y035289D02*
X005000Y035289D01*
X005000Y035171D02*
X004962Y035171D01*
X004962Y035052D02*
X005000Y035052D01*
X006372Y036356D02*
X043447Y036356D01*
X043447Y036474D02*
X006597Y036474D01*
X006715Y036593D02*
X043447Y036593D01*
X043447Y036711D02*
X006783Y036711D01*
X006832Y036830D02*
X043447Y036830D01*
X043447Y036948D02*
X006852Y036948D01*
X006852Y037067D02*
X043447Y037067D01*
X043447Y037185D02*
X006852Y037185D01*
X006852Y037304D02*
X043447Y037304D01*
X043447Y037422D02*
X006852Y037422D01*
X006852Y037541D02*
X043447Y037541D01*
X043447Y037659D02*
X006852Y037659D01*
X006852Y037778D02*
X043447Y037778D01*
X043447Y037896D02*
X006852Y037896D01*
X006851Y038015D02*
X043447Y038015D01*
X043447Y038133D02*
X006802Y038133D01*
X006753Y038252D02*
X043447Y038252D01*
X043447Y038370D02*
X006643Y038370D01*
X006485Y038489D02*
X043447Y038489D01*
X043447Y038607D02*
X000460Y038607D01*
X000460Y038489D02*
X005839Y038489D01*
X005681Y038370D02*
X004123Y038370D01*
X004109Y038380D02*
X004026Y038422D01*
X003938Y038451D01*
X003846Y038465D01*
X003819Y038465D01*
X003819Y037464D01*
X003781Y037464D01*
X003781Y037427D01*
X003210Y037427D01*
X003210Y036969D01*
X003225Y036877D01*
X003253Y036789D01*
X003295Y036706D01*
X003350Y036631D01*
X003416Y036565D01*
X003491Y036511D01*
X003574Y036469D01*
X003662Y036440D01*
X003754Y036425D01*
X003781Y036425D01*
X003781Y037427D01*
X003819Y037427D01*
X003819Y036425D01*
X003846Y036425D01*
X003938Y036440D01*
X004026Y036469D01*
X003819Y036474D02*
X003781Y036474D01*
X003781Y036593D02*
X003819Y036593D01*
X003819Y036711D02*
X003781Y036711D01*
X003781Y036830D02*
X003819Y036830D01*
X003819Y036948D02*
X003781Y036948D01*
X003781Y037067D02*
X003819Y037067D01*
X003819Y037185D02*
X003781Y037185D01*
X003781Y037304D02*
X003819Y037304D01*
X003819Y037422D02*
X003781Y037422D01*
X003781Y037464D02*
X003210Y037464D01*
X003210Y037922D01*
X003225Y038014D01*
X003225Y038015D02*
X000460Y038015D01*
X000460Y038133D02*
X003269Y038133D01*
X003253Y038102D02*
X003225Y038014D01*
X003253Y038102D02*
X003295Y038185D01*
X003350Y038260D01*
X003416Y038325D01*
X003491Y038380D01*
X003574Y038422D01*
X003662Y038451D01*
X003754Y038465D01*
X003781Y038465D01*
X003781Y037464D01*
X003781Y037541D02*
X003819Y037541D01*
X003819Y037659D02*
X003781Y037659D01*
X003781Y037778D02*
X003819Y037778D01*
X003819Y037896D02*
X003781Y037896D01*
X003781Y038015D02*
X003819Y038015D01*
X003819Y038133D02*
X003781Y038133D01*
X003781Y038252D02*
X003819Y038252D01*
X003819Y038370D02*
X003781Y038370D01*
X003477Y038370D02*
X000460Y038370D01*
X000460Y038252D02*
X003344Y038252D01*
X003210Y037896D02*
X000460Y037896D01*
X000460Y037778D02*
X003210Y037778D01*
X003210Y037659D02*
X000460Y037659D01*
X000460Y037541D02*
X003210Y037541D01*
X003210Y037422D02*
X000460Y037422D01*
X000460Y037304D02*
X003210Y037304D01*
X003210Y037185D02*
X000460Y037185D01*
X000460Y037067D02*
X003210Y037067D01*
X003213Y036948D02*
X000460Y036948D01*
X000460Y036830D02*
X003240Y036830D01*
X003293Y036711D02*
X000460Y036711D01*
X000460Y036593D02*
X003388Y036593D01*
X003563Y036474D02*
X000460Y036474D01*
X000460Y038726D02*
X043447Y038726D01*
X043438Y038844D02*
X000469Y038844D01*
X000507Y038963D02*
X043400Y038963D01*
X043340Y039081D02*
X000567Y039081D01*
X000662Y039200D02*
X043245Y039200D01*
X043054Y039318D02*
X000853Y039318D01*
X004109Y038380D02*
X004184Y038325D01*
X004250Y038260D01*
X004305Y038185D01*
X004347Y038102D01*
X004375Y038014D01*
X004331Y038133D02*
X005522Y038133D01*
X005571Y038252D02*
X004256Y038252D01*
X006746Y032445D02*
X043447Y032445D01*
X043447Y032327D02*
X008891Y032327D01*
X008897Y032321D02*
X008867Y032351D01*
X008830Y032372D01*
X008790Y032383D01*
X008297Y032383D01*
X008297Y031752D01*
X008177Y031752D01*
X008177Y032383D01*
X007684Y032383D01*
X007644Y032372D01*
X007607Y032351D01*
X007577Y032321D01*
X007556Y032285D01*
X007546Y032244D01*
X007546Y031751D01*
X008177Y031751D01*
X008177Y031631D01*
X008297Y031631D01*
X008297Y031000D01*
X008790Y031000D01*
X008830Y031011D01*
X008867Y031032D01*
X008897Y031062D01*
X008918Y031098D01*
X008929Y031139D01*
X008929Y031631D01*
X008297Y031631D01*
X008297Y031751D01*
X008929Y031751D01*
X008929Y032244D01*
X008918Y032285D01*
X008897Y032321D01*
X008929Y032208D02*
X043447Y032208D01*
X043447Y032090D02*
X008929Y032090D01*
X008929Y031971D02*
X043447Y031971D01*
X043447Y031853D02*
X008929Y031853D01*
X008929Y031616D02*
X022563Y031616D01*
X022659Y031656D02*
X022442Y031566D01*
X022276Y031400D01*
X022186Y031183D01*
X022186Y030948D01*
X022276Y030731D01*
X022442Y030565D01*
X022659Y030476D01*
X022894Y030476D01*
X023111Y030565D01*
X023259Y030713D01*
X023407Y030565D01*
X023624Y030476D01*
X023858Y030476D01*
X024075Y030565D01*
X024241Y030731D01*
X024407Y030565D01*
X024624Y030476D01*
X024858Y030476D01*
X025075Y030565D01*
X025241Y030731D01*
X025407Y030565D01*
X025624Y030476D01*
X025858Y030476D01*
X026075Y030565D01*
X026241Y030731D01*
X026407Y030565D01*
X026624Y030476D01*
X026858Y030476D01*
X027075Y030565D01*
X027241Y030731D01*
X027407Y030565D01*
X027624Y030476D01*
X027858Y030476D01*
X028075Y030565D01*
X028241Y030731D01*
X028407Y030565D01*
X028624Y030476D01*
X028858Y030476D01*
X029075Y030565D01*
X029241Y030731D01*
X029407Y030565D01*
X029624Y030476D01*
X029858Y030476D01*
X030075Y030565D01*
X030241Y030731D01*
X030407Y030565D01*
X030624Y030476D01*
X030858Y030476D01*
X031075Y030565D01*
X031241Y030731D01*
X031407Y030565D01*
X031624Y030476D01*
X031858Y030476D01*
X032075Y030565D01*
X032241Y030731D01*
X032407Y030565D01*
X032624Y030476D01*
X032858Y030476D01*
X033075Y030565D01*
X033241Y030731D01*
X033407Y030565D01*
X033624Y030476D01*
X033858Y030476D01*
X034075Y030565D01*
X034241Y030731D01*
X034407Y030565D01*
X034624Y030476D01*
X034858Y030476D01*
X035075Y030565D01*
X035241Y030731D01*
X035407Y030565D01*
X035624Y030476D01*
X035858Y030476D01*
X036075Y030565D01*
X036241Y030731D01*
X036407Y030565D01*
X036624Y030476D01*
X036858Y030476D01*
X037075Y030565D01*
X037241Y030731D01*
X037407Y030565D01*
X037624Y030476D01*
X037858Y030476D01*
X038075Y030565D01*
X038241Y030731D01*
X038331Y030948D01*
X038331Y031183D01*
X038241Y031400D01*
X038075Y031566D01*
X037858Y031656D01*
X037624Y031656D01*
X037407Y031566D01*
X037241Y031400D01*
X037075Y031566D01*
X036858Y031656D01*
X036624Y031656D01*
X036407Y031566D01*
X036241Y031400D01*
X036075Y031566D01*
X035858Y031656D01*
X035624Y031656D01*
X035407Y031566D01*
X035241Y031400D01*
X035075Y031566D01*
X034858Y031656D01*
X034624Y031656D01*
X034407Y031566D01*
X034241Y031400D01*
X034075Y031566D01*
X033858Y031656D01*
X033624Y031656D01*
X033407Y031566D01*
X033241Y031400D01*
X033075Y031566D01*
X032858Y031656D01*
X032624Y031656D01*
X032407Y031566D01*
X032241Y031400D01*
X032075Y031566D01*
X031858Y031656D01*
X031624Y031656D01*
X031407Y031566D01*
X031241Y031400D01*
X031075Y031566D01*
X030858Y031656D01*
X030624Y031656D01*
X030407Y031566D01*
X030241Y031400D01*
X030075Y031566D01*
X029858Y031656D01*
X029624Y031656D01*
X029407Y031566D01*
X029241Y031400D01*
X029075Y031566D01*
X028858Y031656D01*
X028624Y031656D01*
X028407Y031566D01*
X028241Y031400D01*
X028075Y031566D01*
X027858Y031656D01*
X027624Y031656D01*
X027407Y031566D01*
X027241Y031400D01*
X027075Y031566D01*
X026858Y031656D01*
X026624Y031656D01*
X026407Y031566D01*
X026241Y031400D01*
X026075Y031566D01*
X025858Y031656D01*
X025624Y031656D01*
X025407Y031566D01*
X025241Y031400D01*
X025075Y031566D01*
X024858Y031656D01*
X024624Y031656D01*
X024407Y031566D01*
X024241Y031400D01*
X024075Y031566D01*
X023858Y031656D01*
X023624Y031656D01*
X023407Y031566D01*
X023259Y031418D01*
X023111Y031566D01*
X022894Y031656D01*
X022659Y031656D01*
X022374Y031497D02*
X008929Y031497D01*
X008929Y031379D02*
X022267Y031379D01*
X022218Y031260D02*
X008929Y031260D01*
X008929Y031142D02*
X022186Y031142D01*
X022186Y031023D02*
X008851Y031023D01*
X008297Y031023D02*
X008177Y031023D01*
X008177Y031000D02*
X008177Y031631D01*
X007546Y031631D01*
X007546Y031139D01*
X007556Y031098D01*
X007577Y031062D01*
X007607Y031032D01*
X007644Y031011D01*
X007684Y031000D01*
X008177Y031000D01*
X008177Y031142D02*
X008297Y031142D01*
X008297Y031260D02*
X008177Y031260D01*
X008177Y031379D02*
X008297Y031379D01*
X008297Y031497D02*
X008177Y031497D01*
X008177Y031616D02*
X008297Y031616D01*
X008297Y031734D02*
X043447Y031734D01*
X043447Y031616D02*
X037955Y031616D01*
X038144Y031497D02*
X043447Y031497D01*
X043447Y031379D02*
X038250Y031379D01*
X038299Y031260D02*
X043447Y031260D01*
X043447Y031142D02*
X038331Y031142D01*
X038331Y031023D02*
X043447Y031023D01*
X043447Y030905D02*
X038313Y030905D01*
X038264Y030786D02*
X043447Y030786D01*
X043447Y030668D02*
X038177Y030668D01*
X038036Y030549D02*
X043447Y030549D01*
X043447Y030431D02*
X015144Y030431D01*
X015146Y030312D02*
X043447Y030312D01*
X043447Y030194D02*
X015146Y030194D01*
X015146Y029957D02*
X028192Y029957D01*
X028199Y029964D02*
X027977Y029741D01*
X027857Y029451D01*
X027857Y029137D01*
X027977Y028846D01*
X028199Y028624D01*
X028489Y028504D01*
X028804Y028504D01*
X029094Y028624D01*
X029316Y028846D01*
X029436Y029137D01*
X029436Y029451D01*
X029316Y029741D01*
X029094Y029964D01*
X028804Y030084D01*
X028489Y030084D01*
X028199Y029964D01*
X028074Y029838D02*
X015146Y029838D01*
X015142Y029720D02*
X027968Y029720D01*
X027919Y029601D02*
X015110Y029601D01*
X015037Y029483D02*
X027870Y029483D01*
X027857Y029364D02*
X014880Y029364D01*
X014726Y029364D02*
X014646Y029364D01*
X014646Y029483D02*
X014726Y029483D01*
X014726Y029601D02*
X014646Y029601D01*
X014646Y029720D02*
X014726Y029720D01*
X014726Y029838D02*
X014646Y029838D01*
X014646Y029957D02*
X014726Y029957D01*
X014726Y030075D02*
X028468Y030075D01*
X028825Y030075D02*
X043447Y030075D01*
X043447Y029957D02*
X029101Y029957D01*
X029219Y029838D02*
X043447Y029838D01*
X043447Y029720D02*
X029325Y029720D01*
X029374Y029601D02*
X043447Y029601D01*
X043447Y029483D02*
X029423Y029483D01*
X029436Y029364D02*
X043447Y029364D01*
X043447Y029246D02*
X029436Y029246D01*
X029432Y029127D02*
X043447Y029127D01*
X043447Y029009D02*
X029383Y029009D01*
X029334Y028890D02*
X043447Y028890D01*
X043447Y028772D02*
X029241Y028772D01*
X029123Y028653D02*
X043447Y028653D01*
X043447Y028535D02*
X028878Y028535D01*
X028415Y028535D02*
X001712Y028535D01*
X001957Y028653D02*
X028170Y028653D01*
X028052Y028772D02*
X002076Y028772D01*
X002169Y028890D02*
X027959Y028890D01*
X027910Y029009D02*
X002218Y029009D01*
X002267Y029127D02*
X027861Y029127D01*
X027857Y029246D02*
X013856Y029246D01*
X014061Y029364D02*
X014491Y029364D01*
X014334Y029483D02*
X014168Y029483D01*
X014217Y029601D02*
X014261Y029601D01*
X014646Y030194D02*
X014726Y030194D01*
X014726Y030312D02*
X014646Y030312D01*
X014646Y030431D02*
X014726Y030431D01*
X014726Y030549D02*
X014646Y030549D01*
X014646Y030668D02*
X014726Y030668D01*
X014726Y030786D02*
X014646Y030786D01*
X014467Y030786D02*
X014073Y030786D01*
X014173Y030668D02*
X014325Y030668D01*
X014257Y030549D02*
X014222Y030549D01*
X013886Y030905D02*
X022204Y030905D01*
X022254Y030786D02*
X014905Y030786D01*
X015046Y030668D02*
X022340Y030668D01*
X022481Y030549D02*
X015115Y030549D01*
X013486Y030905D02*
X012886Y030905D01*
X013073Y030786D02*
X013299Y030786D01*
X013198Y030668D02*
X013173Y030668D01*
X012486Y030905D02*
X006666Y030905D01*
X006828Y031023D02*
X007623Y031023D01*
X007546Y031142D02*
X006863Y031142D01*
X006863Y031260D02*
X007546Y031260D01*
X007546Y031379D02*
X006863Y031379D01*
X006863Y031497D02*
X007546Y031497D01*
X007546Y031616D02*
X006863Y031616D01*
X006863Y031734D02*
X008177Y031734D01*
X008177Y031853D02*
X008297Y031853D01*
X008297Y031971D02*
X008177Y031971D01*
X008177Y032090D02*
X008297Y032090D01*
X008297Y032208D02*
X008177Y032208D01*
X008177Y032327D02*
X008297Y032327D01*
X007583Y032327D02*
X006842Y032327D01*
X006863Y032208D02*
X007546Y032208D01*
X007546Y032090D02*
X006863Y032090D01*
X006863Y031971D02*
X007546Y031971D01*
X007546Y031853D02*
X006863Y031853D01*
X002209Y029601D02*
X012154Y029601D01*
X012126Y029720D02*
X002160Y029720D01*
X002054Y029838D02*
X012126Y029838D01*
X012126Y029957D02*
X001936Y029957D01*
X001659Y030075D02*
X012126Y030075D01*
X012203Y029483D02*
X002258Y029483D01*
X002271Y029364D02*
X012311Y029364D01*
X012516Y029246D02*
X002271Y029246D01*
X012856Y029246D02*
X013516Y029246D01*
X013311Y029364D02*
X013061Y029364D01*
X013168Y029483D02*
X013203Y029483D01*
X023071Y030549D02*
X023446Y030549D01*
X023305Y030668D02*
X023213Y030668D01*
X023179Y031497D02*
X023338Y031497D01*
X023527Y031616D02*
X022990Y031616D01*
X023955Y031616D02*
X024527Y031616D01*
X024338Y031497D02*
X024144Y031497D01*
X024177Y030668D02*
X024305Y030668D01*
X024446Y030549D02*
X024036Y030549D01*
X025036Y030549D02*
X025446Y030549D01*
X025305Y030668D02*
X025177Y030668D01*
X025144Y031497D02*
X025338Y031497D01*
X025527Y031616D02*
X024955Y031616D01*
X025955Y031616D02*
X026527Y031616D01*
X026338Y031497D02*
X026144Y031497D01*
X026177Y030668D02*
X026305Y030668D01*
X026446Y030549D02*
X026036Y030549D01*
X027036Y030549D02*
X027446Y030549D01*
X027305Y030668D02*
X027177Y030668D01*
X027144Y031497D02*
X027338Y031497D01*
X027527Y031616D02*
X026955Y031616D01*
X027955Y031616D02*
X028527Y031616D01*
X028338Y031497D02*
X028144Y031497D01*
X028177Y030668D02*
X028305Y030668D01*
X028446Y030549D02*
X028036Y030549D01*
X029036Y030549D02*
X029446Y030549D01*
X029305Y030668D02*
X029177Y030668D01*
X029144Y031497D02*
X029338Y031497D01*
X029527Y031616D02*
X028955Y031616D01*
X029955Y031616D02*
X030527Y031616D01*
X030338Y031497D02*
X030144Y031497D01*
X030177Y030668D02*
X030305Y030668D01*
X030446Y030549D02*
X030036Y030549D01*
X031036Y030549D02*
X031446Y030549D01*
X031305Y030668D02*
X031177Y030668D01*
X031144Y031497D02*
X031338Y031497D01*
X031527Y031616D02*
X030955Y031616D01*
X031955Y031616D02*
X032527Y031616D01*
X032338Y031497D02*
X032144Y031497D01*
X032177Y030668D02*
X032305Y030668D01*
X032446Y030549D02*
X032036Y030549D01*
X033036Y030549D02*
X033446Y030549D01*
X033305Y030668D02*
X033177Y030668D01*
X033144Y031497D02*
X033338Y031497D01*
X033527Y031616D02*
X032955Y031616D01*
X033955Y031616D02*
X034527Y031616D01*
X034338Y031497D02*
X034144Y031497D01*
X034955Y031616D02*
X035527Y031616D01*
X035338Y031497D02*
X035144Y031497D01*
X035177Y030668D02*
X035305Y030668D01*
X035446Y030549D02*
X035036Y030549D01*
X034446Y030549D02*
X034036Y030549D01*
X034177Y030668D02*
X034305Y030668D01*
X036036Y030549D02*
X036446Y030549D01*
X036305Y030668D02*
X036177Y030668D01*
X036144Y031497D02*
X036338Y031497D01*
X036527Y031616D02*
X035955Y031616D01*
X036955Y031616D02*
X037527Y031616D01*
X037338Y031497D02*
X037144Y031497D01*
X037177Y030668D02*
X037305Y030668D01*
X037446Y030549D02*
X037036Y030549D01*
X036933Y026876D02*
X036895Y026876D01*
X036895Y026757D02*
X036933Y026757D01*
X036933Y026639D02*
X036895Y026639D01*
X036895Y026402D02*
X036933Y026402D01*
X036933Y026283D02*
X036895Y026283D01*
X036895Y026165D02*
X036933Y026165D01*
X037282Y026165D02*
X043447Y026165D01*
X043447Y026283D02*
X037332Y026283D01*
M02*
