%
M48
M72
T01C0.0315
T02C0.0320
T03C0.0354
T04C0.0394
T05C0.0400
T06C0.0709
T07C0.0906
T08C0.1260
%
T01
X34946Y26538
X36914Y26538
X4981Y35556
X3800Y37445
T02
X19436Y11428
X18058Y9223
X16956Y10325
X20790Y4026
X21893Y2924
X23270Y5129
X25633Y9223
X24530Y10325
X27011Y11428
X32105Y10325
X33207Y9223
X34585Y11428
X30751Y5129
X29373Y2924
X28270Y4026
T03
X28646Y18126
X29434Y18126
X30418Y18126
X27662Y18126
X22544Y18126
X21560Y18126
X20772Y18126
X19788Y18126
X14670Y18126
X13686Y18126
X12898Y18126
X11914Y18126
X35536Y18126
X36520Y18126
X37308Y18126
X38292Y18126
T04
X37741Y31066
X36741Y31066
X35741Y31066
X34741Y31066
X33741Y31066
X32741Y31066
X31741Y31066
X30741Y31066
X29741Y31066
X28741Y31066
X27741Y31066
X26741Y31066
X25741Y31066
X24741Y31066
X23741Y31066
X22776Y31066
X8174Y17926
X8174Y9953
X6162Y37445
T05
X12686Y30081
X13686Y30081
X14686Y30081
X23823Y25459
X23823Y23679
X26383Y23679
X26383Y25459
X5343Y25207
X5343Y24207
X5343Y23207
X5343Y22207
X5343Y21207
X5343Y20207
X5343Y19207
X2662Y17621
X2662Y16621
X2662Y15621
X2662Y14621
X2662Y13621
X2662Y12621
T06
X6072Y31691
X8237Y31691
T07
X10706Y17059
X15879Y17059
X18580Y17059
X23753Y17059
X26454Y17059
X31627Y17059
X34328Y17059
X39501Y17059
T08
X1481Y9215
X1481Y29294
X28646Y29294
X28646Y9215
M30
