G75*
G70*
%OFA0B0*%
%FSLAX24Y24*%
%IPPOS*%
%LPD*%
%AMOC8*
5,1,8,0,0,1.08239X$1,22.5*
%
%ADD10C,0.0000*%
%ADD11C,0.0040*%
%ADD12R,0.0060X0.0010*%
%ADD13R,0.0230X0.0010*%
%ADD14R,0.0270X0.0010*%
%ADD15R,0.0210X0.0010*%
%ADD16R,0.0320X0.0010*%
%ADD17R,0.0250X0.0010*%
%ADD18R,0.0390X0.0010*%
%ADD19R,0.0760X0.0010*%
%ADD20R,0.0890X0.0010*%
%ADD21R,0.0940X0.0010*%
%ADD22R,0.0990X0.0010*%
%ADD23R,0.0490X0.0010*%
%ADD24R,0.0160X0.0010*%
%ADD25R,0.0440X0.0010*%
%ADD26R,0.0080X0.0010*%
%ADD27R,0.0420X0.0010*%
%ADD28R,0.0090X0.0010*%
%ADD29R,0.0380X0.0010*%
%ADD30R,0.0010X0.0010*%
%ADD31R,0.0280X0.0010*%
%ADD32R,0.0200X0.0010*%
%ADD33R,0.0100X0.0010*%
%ADD34R,0.0170X0.0010*%
%ADD35R,0.0120X0.0010*%
%ADD36R,0.0150X0.0010*%
%ADD37R,0.0240X0.0010*%
%ADD38R,0.0140X0.0010*%
%ADD39R,0.0110X0.0010*%
%ADD40R,0.0040X0.0010*%
%ADD41R,0.0180X0.0010*%
%ADD42R,0.0190X0.0010*%
%ADD43R,0.0070X0.0010*%
%ADD44R,0.0260X0.0010*%
%ADD45R,0.0290X0.0010*%
%ADD46R,0.0220X0.0010*%
%ADD47R,0.0020X0.0010*%
%ADD48R,0.0030X0.0010*%
%ADD49R,0.0050X0.0010*%
%ADD50R,0.0130X0.0010*%
%ADD51R,0.1810X0.0010*%
%ADD52R,0.1830X0.0010*%
%ADD53R,0.1870X0.0010*%
%ADD54R,0.1910X0.0010*%
%ADD55R,0.1940X0.0010*%
%ADD56R,0.1270X0.0010*%
%ADD57R,0.1300X0.0010*%
%ADD58R,0.1280X0.0010*%
%ADD59R,0.1970X0.0010*%
%ADD60R,0.1370X0.0010*%
%ADD61R,0.1390X0.0010*%
%ADD62R,0.1550X0.0010*%
%ADD63R,0.2000X0.0010*%
%ADD64R,0.1430X0.0010*%
%ADD65R,0.1460X0.0010*%
%ADD66R,0.1570X0.0010*%
%ADD67R,0.2040X0.0010*%
%ADD68R,0.1510X0.0010*%
%ADD69R,0.1520X0.0010*%
%ADD70R,0.1610X0.0010*%
%ADD71R,0.2070X0.0010*%
%ADD72R,0.1580X0.0010*%
%ADD73R,0.1650X0.0010*%
%ADD74R,0.2090X0.0010*%
%ADD75R,0.1630X0.0010*%
%ADD76R,0.1690X0.0010*%
%ADD77R,0.2100X0.0010*%
%ADD78R,0.1680X0.0010*%
%ADD79R,0.1670X0.0010*%
%ADD80R,0.1720X0.0010*%
%ADD81R,0.2110X0.0010*%
%ADD82R,0.1770X0.0010*%
%ADD83R,0.2120X0.0010*%
%ADD84R,0.0300X0.0010*%
%ADD85R,0.1760X0.0010*%
%ADD86R,0.1750X0.0010*%
%ADD87R,0.1780X0.0010*%
%ADD88R,0.1800X0.0010*%
%ADD89R,0.1860X0.0010*%
%ADD90R,0.2130X0.0010*%
%ADD91R,0.0310X0.0010*%
%ADD92R,0.0330X0.0010*%
%ADD93R,0.0350X0.0010*%
%ADD94R,0.0360X0.0010*%
%ADD95R,0.0550X0.0010*%
%ADD96R,0.1960X0.0010*%
%ADD97R,0.0520X0.0010*%
%ADD98R,0.0410X0.0010*%
%ADD99R,0.2210X0.0010*%
%ADD100R,0.1930X0.0010*%
%ADD101R,0.2200X0.0010*%
%ADD102R,0.2190X0.0010*%
%ADD103R,0.1900X0.0010*%
%ADD104R,0.2180X0.0010*%
%ADD105R,0.1920X0.0010*%
%ADD106R,0.1950X0.0010*%
%ADD107R,0.0340X0.0010*%
%ADD108R,0.1980X0.0010*%
%ADD109R,0.1990X0.0010*%
%ADD110R,0.2010X0.0010*%
%ADD111R,0.2020X0.0010*%
%ADD112R,0.0460X0.0010*%
%ADD113R,0.1820X0.0010*%
%ADD114R,0.1410X0.0010*%
%ADD115R,0.0370X0.0010*%
%ADD116R,0.0930X0.0010*%
%ADD117R,0.1060X0.0010*%
%ADD118R,0.1790X0.0010*%
%ADD119R,0.1740X0.0010*%
%ADD120R,0.1700X0.0010*%
%ADD121R,0.2080X0.0010*%
%ADD122R,0.1640X0.0010*%
%ADD123R,0.2060X0.0010*%
%ADD124R,0.1590X0.0010*%
%ADD125R,0.1490X0.0010*%
%ADD126R,0.1560X0.0010*%
%ADD127R,0.1400X0.0010*%
%ADD128R,0.1480X0.0010*%
%ADD129R,0.1350X0.0010*%
%ADD130R,0.1330X0.0010*%
%ADD131R,0.0400X0.0010*%
%ADD132R,0.0430X0.0010*%
%ADD133R,0.0450X0.0010*%
%ADD134R,0.0470X0.0010*%
%ADD135R,0.0480X0.0010*%
%ADD136R,0.0500X0.0010*%
%ADD137R,0.0510X0.0010*%
%ADD138R,0.0530X0.0010*%
%ADD139R,0.0540X0.0010*%
%ADD140R,0.0560X0.0010*%
%ADD141R,0.0570X0.0010*%
%ADD142R,0.0580X0.0010*%
%ADD143R,0.0590X0.0010*%
%ADD144R,0.0600X0.0010*%
%ADD145R,0.0620X0.0010*%
%ADD146R,0.0630X0.0010*%
%ADD147R,0.0700X0.0010*%
%ADD148R,0.0640X0.0010*%
%ADD149R,0.0750X0.0010*%
%ADD150R,0.0650X0.0010*%
%ADD151R,0.0810X0.0010*%
%ADD152R,0.0850X0.0010*%
%ADD153R,0.0660X0.0010*%
%ADD154R,0.0910X0.0010*%
%ADD155R,0.0670X0.0010*%
%ADD156R,0.1010X0.0010*%
%ADD157R,0.1030X0.0010*%
%ADD158R,0.0680X0.0010*%
%ADD159R,0.1040X0.0010*%
%ADD160R,0.0690X0.0010*%
%ADD161R,0.1050X0.0010*%
%ADD162R,0.0710X0.0010*%
%ADD163R,0.1150X0.0010*%
%ADD164R,0.1180X0.0010*%
%ADD165R,0.0720X0.0010*%
%ADD166R,0.2030X0.0010*%
%ADD167R,0.2050X0.0010*%
%ADD168R,0.2140X0.0010*%
%ADD169R,0.2150X0.0010*%
%ADD170R,0.2160X0.0010*%
%ADD171R,0.2170X0.0010*%
%ADD172R,0.3130X0.0010*%
%ADD173R,0.3120X0.0010*%
%ADD174R,0.3110X0.0010*%
%ADD175R,0.3100X0.0010*%
%ADD176R,0.3080X0.0010*%
%ADD177R,0.3060X0.0010*%
%ADD178R,0.3030X0.0010*%
%ADD179R,0.3010X0.0010*%
%ADD180R,0.2990X0.0010*%
%ADD181R,0.2970X0.0010*%
%ADD182R,0.2950X0.0010*%
%ADD183R,0.2920X0.0010*%
%ADD184R,0.2910X0.0010*%
%ADD185R,0.2880X0.0010*%
%ADD186R,0.2850X0.0010*%
%ADD187R,0.2830X0.0010*%
%ADD188R,0.2800X0.0010*%
%ADD189R,0.2780X0.0010*%
%ADD190R,0.2740X0.0010*%
%ADD191R,0.2690X0.0010*%
%ADD192R,0.2630X0.0010*%
%ADD193R,0.2570X0.0010*%
%ADD194R,0.2540X0.0010*%
%ADD195R,0.2520X0.0010*%
%ADD196R,0.2500X0.0010*%
%ADD197R,0.2480X0.0010*%
%ADD198R,0.2360X0.0010*%
%ADD199R,0.2350X0.0010*%
%ADD200R,0.2310X0.0010*%
%ADD201R,0.2290X0.0010*%
%ADD202R,0.2260X0.0010*%
%ADD203R,0.2220X0.0010*%
%ADD204R,0.1530X0.0010*%
%ADD205R,0.1320X0.0010*%
%ADD206R,0.1230X0.0010*%
%ADD207R,0.1190X0.0010*%
%ADD208R,0.1160X0.0010*%
%ADD209R,0.1100X0.0010*%
%ADD210R,0.1070X0.0010*%
%ADD211R,0.1000X0.0010*%
%ADD212R,0.0960X0.0010*%
%ADD213R,0.0920X0.0010*%
%ADD214R,0.0800X0.0010*%
%ADD215C,0.0050*%
%ADD216C,0.0030*%
%ADD217C,0.0080*%
D10*
X000554Y000174D02*
X042680Y000174D01*
X042680Y000175D02*
X042734Y000177D01*
X042787Y000182D01*
X042840Y000191D01*
X042892Y000204D01*
X042944Y000220D01*
X042994Y000240D01*
X043042Y000263D01*
X043089Y000290D01*
X043134Y000319D01*
X043177Y000352D01*
X043217Y000387D01*
X043255Y000425D01*
X043290Y000465D01*
X043323Y000508D01*
X043352Y000553D01*
X043379Y000600D01*
X043402Y000648D01*
X043422Y000698D01*
X043438Y000750D01*
X043451Y000802D01*
X043460Y000855D01*
X043465Y000908D01*
X043467Y000962D01*
X043467Y038757D01*
X043465Y038811D01*
X043460Y038864D01*
X043451Y038917D01*
X043438Y038969D01*
X043422Y039021D01*
X043402Y039071D01*
X043379Y039119D01*
X043352Y039166D01*
X043323Y039211D01*
X043290Y039254D01*
X043255Y039294D01*
X043217Y039332D01*
X043177Y039367D01*
X043134Y039400D01*
X043089Y039429D01*
X043042Y039456D01*
X042994Y039479D01*
X042944Y039499D01*
X042892Y039515D01*
X042840Y039528D01*
X042787Y039537D01*
X042734Y039542D01*
X042680Y039544D01*
X000947Y039544D01*
X000893Y039542D01*
X000840Y039537D01*
X000787Y039528D01*
X000735Y039515D01*
X000683Y039499D01*
X000633Y039479D01*
X000585Y039456D01*
X000538Y039429D01*
X000493Y039400D01*
X000450Y039367D01*
X000410Y039332D01*
X000372Y039294D01*
X000337Y039254D01*
X000304Y039211D01*
X000275Y039166D01*
X000248Y039119D01*
X000225Y039071D01*
X000205Y039021D01*
X000189Y038969D01*
X000176Y038917D01*
X000167Y038864D01*
X000162Y038811D01*
X000160Y038757D01*
X000160Y000962D01*
X000161Y000962D02*
X000147Y000915D01*
X000137Y000867D01*
X000131Y000819D01*
X000129Y000770D01*
X000131Y000721D01*
X000136Y000672D01*
X000145Y000624D01*
X000158Y000577D01*
X000175Y000531D01*
X000195Y000487D01*
X000218Y000444D01*
X000245Y000403D01*
X000275Y000365D01*
X000308Y000329D01*
X000343Y000295D01*
X000382Y000265D01*
X000422Y000237D01*
X000464Y000213D01*
X000509Y000192D01*
X000554Y000175D01*
X010554Y009229D02*
X010556Y009279D01*
X010562Y009329D01*
X010572Y009378D01*
X010586Y009426D01*
X010603Y009473D01*
X010624Y009518D01*
X010649Y009562D01*
X010677Y009603D01*
X010709Y009642D01*
X010743Y009679D01*
X010780Y009713D01*
X010820Y009743D01*
X010862Y009770D01*
X010906Y009794D01*
X010952Y009815D01*
X010999Y009831D01*
X011047Y009844D01*
X011097Y009853D01*
X011146Y009858D01*
X011197Y009859D01*
X011247Y009856D01*
X011296Y009849D01*
X011345Y009838D01*
X011393Y009823D01*
X011439Y009805D01*
X011484Y009783D01*
X011527Y009757D01*
X011568Y009728D01*
X011607Y009696D01*
X011643Y009661D01*
X011675Y009623D01*
X011705Y009583D01*
X011732Y009540D01*
X011755Y009496D01*
X011774Y009450D01*
X011790Y009402D01*
X011802Y009353D01*
X011810Y009304D01*
X011814Y009254D01*
X011814Y009204D01*
X011810Y009154D01*
X011802Y009105D01*
X011790Y009056D01*
X011774Y009008D01*
X011755Y008962D01*
X011732Y008918D01*
X011705Y008875D01*
X011675Y008835D01*
X011643Y008797D01*
X011607Y008762D01*
X011568Y008730D01*
X011527Y008701D01*
X011484Y008675D01*
X011439Y008653D01*
X011393Y008635D01*
X011345Y008620D01*
X011296Y008609D01*
X011247Y008602D01*
X011197Y008599D01*
X011146Y008600D01*
X011097Y008605D01*
X011047Y008614D01*
X010999Y008627D01*
X010952Y008643D01*
X010906Y008664D01*
X010862Y008688D01*
X010820Y008715D01*
X010780Y008745D01*
X010743Y008779D01*
X010709Y008816D01*
X010677Y008855D01*
X010649Y008896D01*
X010624Y008940D01*
X010603Y008985D01*
X010586Y009032D01*
X010572Y009080D01*
X010562Y009129D01*
X010556Y009179D01*
X010554Y009229D01*
X010554Y028521D02*
X010556Y028571D01*
X010562Y028621D01*
X010572Y028670D01*
X010586Y028718D01*
X010603Y028765D01*
X010624Y028810D01*
X010649Y028854D01*
X010677Y028895D01*
X010709Y028934D01*
X010743Y028971D01*
X010780Y029005D01*
X010820Y029035D01*
X010862Y029062D01*
X010906Y029086D01*
X010952Y029107D01*
X010999Y029123D01*
X011047Y029136D01*
X011097Y029145D01*
X011146Y029150D01*
X011197Y029151D01*
X011247Y029148D01*
X011296Y029141D01*
X011345Y029130D01*
X011393Y029115D01*
X011439Y029097D01*
X011484Y029075D01*
X011527Y029049D01*
X011568Y029020D01*
X011607Y028988D01*
X011643Y028953D01*
X011675Y028915D01*
X011705Y028875D01*
X011732Y028832D01*
X011755Y028788D01*
X011774Y028742D01*
X011790Y028694D01*
X011802Y028645D01*
X011810Y028596D01*
X011814Y028546D01*
X011814Y028496D01*
X011810Y028446D01*
X011802Y028397D01*
X011790Y028348D01*
X011774Y028300D01*
X011755Y028254D01*
X011732Y028210D01*
X011705Y028167D01*
X011675Y028127D01*
X011643Y028089D01*
X011607Y028054D01*
X011568Y028022D01*
X011527Y027993D01*
X011484Y027967D01*
X011439Y027945D01*
X011393Y027927D01*
X011345Y027912D01*
X011296Y027901D01*
X011247Y027894D01*
X011197Y027891D01*
X011146Y027892D01*
X011097Y027897D01*
X011047Y027906D01*
X010999Y027919D01*
X010952Y027935D01*
X010906Y027956D01*
X010862Y027980D01*
X010820Y028007D01*
X010780Y028037D01*
X010743Y028071D01*
X010709Y028108D01*
X010677Y028147D01*
X010649Y028188D01*
X010624Y028232D01*
X010603Y028277D01*
X010586Y028324D01*
X010572Y028372D01*
X010562Y028421D01*
X010556Y028471D01*
X010554Y028521D01*
X022305Y037182D02*
X022307Y037247D01*
X022313Y037313D01*
X022323Y037377D01*
X022336Y037441D01*
X022354Y037504D01*
X022375Y037566D01*
X022400Y037626D01*
X022429Y037685D01*
X022461Y037742D01*
X022497Y037797D01*
X022535Y037850D01*
X022577Y037900D01*
X022622Y037948D01*
X022670Y037993D01*
X022720Y038035D01*
X022773Y038073D01*
X022828Y038109D01*
X022885Y038141D01*
X022944Y038170D01*
X023004Y038195D01*
X023066Y038216D01*
X023129Y038234D01*
X023193Y038247D01*
X023257Y038257D01*
X023323Y038263D01*
X023388Y038265D01*
X023453Y038263D01*
X023519Y038257D01*
X023583Y038247D01*
X023647Y038234D01*
X023710Y038216D01*
X023772Y038195D01*
X023832Y038170D01*
X023891Y038141D01*
X023948Y038109D01*
X024003Y038073D01*
X024056Y038035D01*
X024106Y037993D01*
X024154Y037948D01*
X024199Y037900D01*
X024241Y037850D01*
X024279Y037797D01*
X024315Y037742D01*
X024347Y037685D01*
X024376Y037626D01*
X024401Y037566D01*
X024422Y037504D01*
X024440Y037441D01*
X024453Y037377D01*
X024463Y037313D01*
X024469Y037247D01*
X024471Y037182D01*
X024469Y037117D01*
X024463Y037051D01*
X024453Y036987D01*
X024440Y036923D01*
X024422Y036860D01*
X024401Y036798D01*
X024376Y036738D01*
X024347Y036679D01*
X024315Y036622D01*
X024279Y036567D01*
X024241Y036514D01*
X024199Y036464D01*
X024154Y036416D01*
X024106Y036371D01*
X024056Y036329D01*
X024003Y036291D01*
X023948Y036255D01*
X023891Y036223D01*
X023832Y036194D01*
X023772Y036169D01*
X023710Y036148D01*
X023647Y036130D01*
X023583Y036117D01*
X023519Y036107D01*
X023453Y036101D01*
X023388Y036099D01*
X023323Y036101D01*
X023257Y036107D01*
X023193Y036117D01*
X023129Y036130D01*
X023066Y036148D01*
X023004Y036169D01*
X022944Y036194D01*
X022885Y036223D01*
X022828Y036255D01*
X022773Y036291D01*
X022720Y036329D01*
X022670Y036371D01*
X022622Y036416D01*
X022577Y036464D01*
X022535Y036514D01*
X022497Y036567D01*
X022461Y036622D01*
X022429Y036679D01*
X022400Y036738D01*
X022375Y036798D01*
X022354Y036860D01*
X022336Y036923D01*
X022323Y036987D01*
X022313Y037051D01*
X022307Y037117D01*
X022305Y037182D01*
X037719Y028521D02*
X037721Y028571D01*
X037727Y028621D01*
X037737Y028670D01*
X037751Y028718D01*
X037768Y028765D01*
X037789Y028810D01*
X037814Y028854D01*
X037842Y028895D01*
X037874Y028934D01*
X037908Y028971D01*
X037945Y029005D01*
X037985Y029035D01*
X038027Y029062D01*
X038071Y029086D01*
X038117Y029107D01*
X038164Y029123D01*
X038212Y029136D01*
X038262Y029145D01*
X038311Y029150D01*
X038362Y029151D01*
X038412Y029148D01*
X038461Y029141D01*
X038510Y029130D01*
X038558Y029115D01*
X038604Y029097D01*
X038649Y029075D01*
X038692Y029049D01*
X038733Y029020D01*
X038772Y028988D01*
X038808Y028953D01*
X038840Y028915D01*
X038870Y028875D01*
X038897Y028832D01*
X038920Y028788D01*
X038939Y028742D01*
X038955Y028694D01*
X038967Y028645D01*
X038975Y028596D01*
X038979Y028546D01*
X038979Y028496D01*
X038975Y028446D01*
X038967Y028397D01*
X038955Y028348D01*
X038939Y028300D01*
X038920Y028254D01*
X038897Y028210D01*
X038870Y028167D01*
X038840Y028127D01*
X038808Y028089D01*
X038772Y028054D01*
X038733Y028022D01*
X038692Y027993D01*
X038649Y027967D01*
X038604Y027945D01*
X038558Y027927D01*
X038510Y027912D01*
X038461Y027901D01*
X038412Y027894D01*
X038362Y027891D01*
X038311Y027892D01*
X038262Y027897D01*
X038212Y027906D01*
X038164Y027919D01*
X038117Y027935D01*
X038071Y027956D01*
X038027Y027980D01*
X037985Y028007D01*
X037945Y028037D01*
X037908Y028071D01*
X037874Y028108D01*
X037842Y028147D01*
X037814Y028188D01*
X037789Y028232D01*
X037768Y028277D01*
X037751Y028324D01*
X037737Y028372D01*
X037727Y028421D01*
X037721Y028471D01*
X037719Y028521D01*
X037719Y009229D02*
X037721Y009279D01*
X037727Y009329D01*
X037737Y009378D01*
X037751Y009426D01*
X037768Y009473D01*
X037789Y009518D01*
X037814Y009562D01*
X037842Y009603D01*
X037874Y009642D01*
X037908Y009679D01*
X037945Y009713D01*
X037985Y009743D01*
X038027Y009770D01*
X038071Y009794D01*
X038117Y009815D01*
X038164Y009831D01*
X038212Y009844D01*
X038262Y009853D01*
X038311Y009858D01*
X038362Y009859D01*
X038412Y009856D01*
X038461Y009849D01*
X038510Y009838D01*
X038558Y009823D01*
X038604Y009805D01*
X038649Y009783D01*
X038692Y009757D01*
X038733Y009728D01*
X038772Y009696D01*
X038808Y009661D01*
X038840Y009623D01*
X038870Y009583D01*
X038897Y009540D01*
X038920Y009496D01*
X038939Y009450D01*
X038955Y009402D01*
X038967Y009353D01*
X038975Y009304D01*
X038979Y009254D01*
X038979Y009204D01*
X038975Y009154D01*
X038967Y009105D01*
X038955Y009056D01*
X038939Y009008D01*
X038920Y008962D01*
X038897Y008918D01*
X038870Y008875D01*
X038840Y008835D01*
X038808Y008797D01*
X038772Y008762D01*
X038733Y008730D01*
X038692Y008701D01*
X038649Y008675D01*
X038604Y008653D01*
X038558Y008635D01*
X038510Y008620D01*
X038461Y008609D01*
X038412Y008602D01*
X038362Y008599D01*
X038311Y008600D01*
X038262Y008605D01*
X038212Y008614D01*
X038164Y008627D01*
X038117Y008643D01*
X038071Y008664D01*
X038027Y008688D01*
X037985Y008715D01*
X037945Y008745D01*
X037908Y008779D01*
X037874Y008816D01*
X037842Y008855D01*
X037814Y008896D01*
X037789Y008940D01*
X037768Y008985D01*
X037751Y009032D01*
X037737Y009080D01*
X037727Y009129D01*
X037721Y009179D01*
X037719Y009229D01*
D11*
X037789Y003501D02*
X037742Y003454D01*
X037742Y003407D01*
X037789Y003361D01*
X037929Y003361D01*
X037929Y003501D02*
X037789Y003501D01*
X037929Y003501D02*
X037929Y003221D01*
X037789Y003221D01*
X037742Y003267D01*
X037742Y003314D01*
X037789Y003361D01*
X037634Y003361D02*
X037448Y003361D01*
X037448Y003407D02*
X037448Y003221D01*
X037634Y003221D02*
X037634Y003407D01*
X037541Y003501D01*
X037448Y003407D01*
X037340Y003501D02*
X037153Y003501D01*
X037246Y003501D02*
X037246Y003221D01*
X036952Y003221D02*
X036952Y003501D01*
X037045Y003501D02*
X036858Y003501D01*
X036750Y003174D02*
X036564Y003174D01*
X036456Y003221D02*
X036316Y003221D01*
X036269Y003267D01*
X036269Y003314D01*
X036316Y003361D01*
X036456Y003361D01*
X036456Y003501D02*
X036316Y003501D01*
X036269Y003454D01*
X036269Y003407D01*
X036316Y003361D01*
X036161Y003454D02*
X036161Y003267D01*
X036114Y003221D01*
X036021Y003221D01*
X035974Y003267D01*
X035866Y003221D02*
X035866Y003501D01*
X035974Y003454D02*
X036021Y003501D01*
X036114Y003501D01*
X036161Y003454D01*
X036456Y003501D02*
X036456Y003221D01*
X035866Y003314D02*
X035680Y003501D01*
X035572Y003501D02*
X035572Y003267D01*
X035525Y003221D01*
X035432Y003221D01*
X035385Y003267D01*
X035385Y003501D01*
X035277Y003501D02*
X035137Y003501D01*
X035090Y003454D01*
X035090Y003361D01*
X035137Y003314D01*
X035277Y003314D01*
X035277Y003221D02*
X035277Y003501D01*
X035680Y003221D02*
X035820Y003361D01*
X032321Y003361D02*
X032014Y003361D01*
X032167Y003208D02*
X032167Y003515D01*
X041014Y003361D02*
X041321Y003361D01*
X034159Y015896D02*
X033972Y016176D01*
X033864Y016129D02*
X033817Y016176D01*
X033724Y016176D01*
X033677Y016129D01*
X033677Y016082D01*
X033724Y016036D01*
X033677Y015989D01*
X033677Y015942D01*
X033724Y015896D01*
X033817Y015896D01*
X033864Y015942D01*
X033972Y015896D02*
X034159Y016176D01*
X033771Y016036D02*
X033724Y016036D01*
X034590Y016336D02*
X034590Y016656D01*
X034590Y016648D02*
X035231Y016648D01*
X035265Y016606D01*
X035265Y016488D01*
X035264Y016488D02*
X035266Y016475D01*
X035271Y016463D01*
X035279Y016452D01*
X035290Y016444D01*
X035302Y016439D01*
X035315Y016437D01*
X035923Y016437D01*
X035936Y016438D01*
X035949Y016443D01*
X035960Y016450D01*
X035969Y016459D01*
X035976Y016470D01*
X035981Y016483D01*
X035982Y016496D01*
X035982Y016623D01*
X036015Y016656D01*
X035872Y016825D01*
X035358Y016825D01*
X035223Y016656D01*
X035147Y017145D02*
X035670Y017145D01*
X035670Y017643D01*
X036116Y017651D02*
X036125Y017651D01*
X036125Y017145D01*
X036639Y017145D01*
X036639Y017634D01*
X036909Y017643D02*
X036909Y017145D01*
X037423Y017145D01*
X037423Y017651D01*
X037887Y017651D02*
X037887Y017145D01*
X038402Y017145D01*
X038402Y017651D01*
X038747Y017811D02*
X038747Y018174D01*
X038882Y018292D01*
X038941Y018166D02*
X038941Y017660D01*
X038933Y017660D01*
X038747Y017811D01*
X034809Y017811D01*
X034801Y018174D01*
X034675Y018284D01*
X034599Y018124D02*
X034599Y017660D01*
X034809Y017811D01*
X034599Y017660D02*
X038933Y017660D01*
X039101Y017862D02*
X039203Y017972D01*
X039220Y018419D02*
X039506Y018419D01*
X039525Y018417D01*
X039544Y018412D01*
X039561Y018404D01*
X039577Y018393D01*
X039590Y018380D01*
X039601Y018364D01*
X039609Y018347D01*
X039614Y018328D01*
X039616Y018309D01*
X039380Y018427D02*
X039380Y018638D01*
X039378Y018663D01*
X039373Y018688D01*
X039364Y018712D01*
X039352Y018734D01*
X039337Y018754D01*
X039319Y018772D01*
X039299Y018787D01*
X039277Y018799D01*
X039253Y018808D01*
X039228Y018813D01*
X039203Y018815D01*
X038967Y018815D01*
X038967Y018958D01*
X038966Y018958D02*
X038964Y018974D01*
X038960Y018990D01*
X038952Y019005D01*
X038941Y019017D01*
X038929Y019028D01*
X038914Y019036D01*
X038898Y019040D01*
X038882Y019042D01*
X038882Y019043D02*
X037322Y019043D01*
X037307Y019042D01*
X037293Y019037D01*
X037280Y019030D01*
X037268Y019021D01*
X037259Y019009D01*
X037252Y018996D01*
X037247Y018982D01*
X037246Y018967D01*
X037246Y018815D01*
X036319Y018815D01*
X036310Y018941D02*
X036310Y018655D01*
X037541Y018655D01*
X037575Y018688D01*
X037575Y018866D01*
X038292Y018866D01*
X038292Y018705D01*
X038191Y018520D01*
X038199Y018511D02*
X038115Y018739D01*
X037744Y018739D01*
X037693Y018511D01*
X037584Y018714D01*
X037541Y018655D02*
X037676Y018495D01*
X038208Y018495D01*
X038343Y018655D01*
X038967Y018655D01*
X038967Y018815D01*
X038967Y018655D02*
X039144Y018655D01*
X039144Y018654D02*
X039159Y018652D01*
X039173Y018647D01*
X039186Y018639D01*
X039196Y018629D01*
X039204Y018616D01*
X039209Y018602D01*
X039211Y018587D01*
X038941Y018166D02*
X038939Y018194D01*
X038934Y018221D01*
X038925Y018247D01*
X038913Y018272D01*
X038897Y018294D01*
X038879Y018315D01*
X038858Y018333D01*
X038836Y018349D01*
X038811Y018361D01*
X038785Y018370D01*
X038758Y018375D01*
X038730Y018377D01*
X038343Y018655D02*
X038292Y018705D01*
X037246Y018655D02*
X037246Y018815D01*
X036310Y018655D02*
X036007Y018655D01*
X035965Y018714D01*
X035864Y018537D01*
X035796Y018756D01*
X035433Y018756D01*
X035358Y018511D01*
X035349Y018503D02*
X035872Y018503D01*
X036007Y018655D01*
X035965Y018714D02*
X035965Y018857D01*
X035964Y018864D01*
X035960Y018869D01*
X035955Y018873D01*
X035948Y018874D01*
X035307Y018874D01*
X035294Y018873D01*
X035281Y018868D01*
X035270Y018861D01*
X035261Y018852D01*
X035254Y018841D01*
X035249Y018828D01*
X035248Y018815D01*
X035248Y018714D01*
X035214Y018655D01*
X035214Y018655D01*
X034413Y018655D01*
X034354Y018815D02*
X034328Y018813D01*
X034302Y018807D01*
X034277Y018798D01*
X034253Y018785D01*
X034232Y018770D01*
X034213Y018751D01*
X034198Y018730D01*
X034185Y018706D01*
X034176Y018681D01*
X034170Y018655D01*
X034168Y018629D01*
X034169Y018629D02*
X034169Y018427D01*
X034034Y018419D02*
X034329Y018419D01*
X034329Y018570D01*
X034331Y018586D01*
X034335Y018602D01*
X034343Y018617D01*
X034354Y018629D01*
X034366Y018640D01*
X034381Y018648D01*
X034397Y018652D01*
X034413Y018654D01*
X034354Y018815D02*
X034590Y018815D01*
X034590Y018655D01*
X034590Y018815D02*
X034590Y018975D01*
X034591Y018975D02*
X034593Y018990D01*
X034598Y019004D01*
X034606Y019017D01*
X034616Y019027D01*
X034629Y019035D01*
X034643Y019040D01*
X034658Y019042D01*
X034658Y019043D02*
X036209Y019043D01*
X036209Y019042D02*
X036227Y019040D01*
X036244Y019036D01*
X036260Y019028D01*
X036274Y019018D01*
X036286Y019006D01*
X036296Y018992D01*
X036304Y018976D01*
X036308Y018959D01*
X036310Y018941D01*
X035358Y018554D02*
X035256Y018731D01*
X035214Y018646D02*
X035349Y018503D01*
X034852Y018377D02*
X034822Y018375D01*
X034791Y018370D01*
X034762Y018361D01*
X034734Y018348D01*
X034708Y018332D01*
X034684Y018313D01*
X034663Y018292D01*
X034644Y018268D01*
X034628Y018242D01*
X034615Y018214D01*
X034606Y018185D01*
X034601Y018154D01*
X034599Y018124D01*
X034447Y017879D02*
X034337Y017980D01*
X033950Y018334D02*
X033952Y018350D01*
X033956Y018366D01*
X033964Y018381D01*
X033975Y018393D01*
X033987Y018404D01*
X034002Y018412D01*
X034018Y018416D01*
X034034Y018418D01*
X035147Y017643D02*
X035147Y017145D01*
X034591Y016336D02*
X034593Y016321D01*
X034598Y016307D01*
X034606Y016294D01*
X034616Y016284D01*
X034629Y016276D01*
X034643Y016271D01*
X034658Y016269D01*
X034658Y016268D02*
X036243Y016268D01*
X036243Y016269D02*
X036258Y016271D01*
X036272Y016276D01*
X036285Y016284D01*
X036295Y016294D01*
X036303Y016307D01*
X036308Y016321D01*
X036310Y016336D01*
X036310Y016656D01*
X037246Y016656D01*
X037541Y016656D01*
X037575Y016623D01*
X037575Y016496D01*
X037576Y016483D01*
X037581Y016470D01*
X037588Y016459D01*
X037597Y016450D01*
X037608Y016443D01*
X037621Y016438D01*
X037634Y016437D01*
X038241Y016437D01*
X038254Y016439D01*
X038267Y016444D01*
X038277Y016452D01*
X038285Y016463D01*
X038290Y016475D01*
X038292Y016488D01*
X038292Y016606D01*
X038326Y016648D01*
X038967Y016648D01*
X038967Y016336D01*
X038966Y016336D02*
X038964Y016321D01*
X038959Y016307D01*
X038951Y016294D01*
X038941Y016284D01*
X038928Y016276D01*
X038914Y016271D01*
X038899Y016269D01*
X038899Y016268D02*
X037322Y016268D01*
X037307Y016269D01*
X037293Y016274D01*
X037280Y016281D01*
X037268Y016290D01*
X037259Y016302D01*
X037252Y016315D01*
X037247Y016329D01*
X037246Y016344D01*
X037246Y016496D01*
X037246Y016656D01*
X037246Y016496D02*
X036319Y016496D01*
X036310Y016656D02*
X036015Y016656D01*
X037541Y016656D02*
X037685Y016825D01*
X038199Y016825D01*
X038334Y016656D01*
X031742Y018309D02*
X031740Y018328D01*
X031735Y018347D01*
X031727Y018364D01*
X031716Y018380D01*
X031703Y018393D01*
X031687Y018404D01*
X031670Y018412D01*
X031651Y018417D01*
X031632Y018419D01*
X031346Y018419D01*
X031506Y018427D02*
X031506Y018638D01*
X031504Y018663D01*
X031499Y018688D01*
X031490Y018712D01*
X031478Y018734D01*
X031463Y018754D01*
X031445Y018772D01*
X031425Y018787D01*
X031403Y018799D01*
X031379Y018808D01*
X031354Y018813D01*
X031329Y018815D01*
X031093Y018815D01*
X031093Y018958D01*
X031092Y018958D02*
X031090Y018974D01*
X031086Y018990D01*
X031078Y019005D01*
X031067Y019017D01*
X031055Y019028D01*
X031040Y019036D01*
X031024Y019040D01*
X031008Y019042D01*
X031008Y019043D02*
X029448Y019043D01*
X029433Y019042D01*
X029419Y019037D01*
X029406Y019030D01*
X029394Y019021D01*
X029385Y019009D01*
X029378Y018996D01*
X029373Y018982D01*
X029372Y018967D01*
X029372Y018815D01*
X028445Y018815D01*
X028436Y018941D02*
X028436Y018655D01*
X029667Y018655D01*
X029701Y018688D01*
X029701Y018866D01*
X030418Y018866D01*
X030418Y018705D01*
X030317Y018520D01*
X030325Y018511D02*
X030241Y018739D01*
X029870Y018739D01*
X029819Y018511D01*
X029710Y018714D01*
X029667Y018655D02*
X029802Y018495D01*
X030334Y018495D01*
X030469Y018655D01*
X031093Y018655D01*
X031093Y018815D01*
X031093Y018655D02*
X031270Y018655D01*
X031270Y018654D02*
X031285Y018652D01*
X031299Y018647D01*
X031312Y018639D01*
X031322Y018629D01*
X031330Y018616D01*
X031335Y018602D01*
X031337Y018587D01*
X031008Y018292D02*
X030873Y018174D01*
X030873Y017811D01*
X031059Y017660D01*
X031067Y017660D01*
X031067Y018166D01*
X031065Y018194D01*
X031060Y018221D01*
X031051Y018247D01*
X031039Y018272D01*
X031023Y018294D01*
X031005Y018315D01*
X030984Y018333D01*
X030962Y018349D01*
X030937Y018361D01*
X030911Y018370D01*
X030884Y018375D01*
X030856Y018377D01*
X030469Y018655D02*
X030418Y018705D01*
X030873Y017811D02*
X026935Y017811D01*
X026927Y018174D01*
X026801Y018284D01*
X026725Y018124D02*
X026725Y017660D01*
X026935Y017811D01*
X026725Y017660D02*
X031059Y017660D01*
X031227Y017862D02*
X031329Y017972D01*
X030528Y017651D02*
X030528Y017145D01*
X030013Y017145D01*
X030013Y017651D01*
X029549Y017651D02*
X029549Y017145D01*
X029035Y017145D01*
X029035Y017643D01*
X028765Y017634D02*
X028765Y017145D01*
X028251Y017145D01*
X028251Y017651D01*
X028242Y017651D01*
X027796Y017643D02*
X027796Y017145D01*
X027273Y017145D01*
X027273Y017643D01*
X026725Y018124D02*
X026727Y018154D01*
X026732Y018185D01*
X026741Y018214D01*
X026754Y018242D01*
X026770Y018268D01*
X026789Y018292D01*
X026810Y018313D01*
X026834Y018332D01*
X026860Y018348D01*
X026888Y018361D01*
X026917Y018370D01*
X026948Y018375D01*
X026978Y018377D01*
X026716Y018655D02*
X026716Y018815D01*
X026480Y018815D01*
X026539Y018655D02*
X027340Y018655D01*
X027374Y018714D01*
X027374Y018815D01*
X027375Y018828D01*
X027380Y018841D01*
X027387Y018852D01*
X027396Y018861D01*
X027407Y018868D01*
X027420Y018873D01*
X027433Y018874D01*
X028074Y018874D01*
X028081Y018873D01*
X028086Y018869D01*
X028090Y018864D01*
X028091Y018857D01*
X028091Y018714D01*
X027989Y018537D01*
X027922Y018756D01*
X027559Y018756D01*
X027484Y018511D01*
X027475Y018503D02*
X027998Y018503D01*
X028133Y018655D01*
X028091Y018714D01*
X028133Y018655D02*
X028436Y018655D01*
X028436Y018941D02*
X028434Y018959D01*
X028430Y018976D01*
X028422Y018992D01*
X028412Y019006D01*
X028400Y019018D01*
X028386Y019028D01*
X028370Y019036D01*
X028353Y019040D01*
X028335Y019042D01*
X028335Y019043D02*
X026784Y019043D01*
X026784Y019042D02*
X026769Y019040D01*
X026755Y019035D01*
X026742Y019027D01*
X026732Y019017D01*
X026724Y019004D01*
X026719Y018990D01*
X026717Y018975D01*
X026716Y018975D02*
X026716Y018815D01*
X026480Y018815D02*
X026454Y018813D01*
X026428Y018807D01*
X026403Y018798D01*
X026379Y018785D01*
X026358Y018770D01*
X026339Y018751D01*
X026324Y018730D01*
X026311Y018706D01*
X026302Y018681D01*
X026296Y018655D01*
X026294Y018629D01*
X026295Y018629D02*
X026295Y018427D01*
X026160Y018419D02*
X026455Y018419D01*
X026455Y018570D01*
X026457Y018586D01*
X026461Y018602D01*
X026469Y018617D01*
X026480Y018629D01*
X026492Y018640D01*
X026507Y018648D01*
X026523Y018652D01*
X026539Y018654D01*
X026160Y018418D02*
X026144Y018416D01*
X026128Y018412D01*
X026113Y018404D01*
X026101Y018393D01*
X026090Y018381D01*
X026082Y018366D01*
X026078Y018350D01*
X026076Y018334D01*
X026463Y017980D02*
X026573Y017879D01*
X027340Y018646D02*
X027475Y018503D01*
X027484Y018554D02*
X027382Y018731D01*
X027340Y018655D02*
X027340Y018655D01*
X027484Y016825D02*
X027349Y016656D01*
X027357Y016648D02*
X027391Y016606D01*
X027391Y016488D01*
X027390Y016488D02*
X027392Y016475D01*
X027397Y016463D01*
X027405Y016452D01*
X027416Y016444D01*
X027428Y016439D01*
X027441Y016437D01*
X028049Y016437D01*
X028062Y016438D01*
X028075Y016443D01*
X028086Y016450D01*
X028095Y016459D01*
X028102Y016470D01*
X028107Y016483D01*
X028108Y016496D01*
X028108Y016623D01*
X028141Y016656D01*
X027998Y016825D01*
X027484Y016825D01*
X027357Y016648D02*
X026716Y016648D01*
X026716Y016656D02*
X026716Y016336D01*
X026717Y016336D02*
X026719Y016321D01*
X026724Y016307D01*
X026732Y016294D01*
X026742Y016284D01*
X026755Y016276D01*
X026769Y016271D01*
X026784Y016269D01*
X026784Y016268D02*
X028369Y016268D01*
X028369Y016269D02*
X028384Y016271D01*
X028398Y016276D01*
X028411Y016284D01*
X028421Y016294D01*
X028429Y016307D01*
X028434Y016321D01*
X028436Y016336D01*
X028436Y016656D01*
X029372Y016656D01*
X029667Y016656D01*
X029701Y016623D01*
X029701Y016496D01*
X029702Y016483D01*
X029707Y016470D01*
X029714Y016459D01*
X029723Y016450D01*
X029734Y016443D01*
X029747Y016438D01*
X029760Y016437D01*
X030367Y016437D01*
X030380Y016439D01*
X030393Y016444D01*
X030403Y016452D01*
X030411Y016463D01*
X030416Y016475D01*
X030418Y016488D01*
X030418Y016606D01*
X030452Y016648D01*
X031093Y016648D01*
X031093Y016336D01*
X031092Y016336D02*
X031090Y016321D01*
X031085Y016307D01*
X031077Y016294D01*
X031067Y016284D01*
X031054Y016276D01*
X031040Y016271D01*
X031025Y016269D01*
X031025Y016268D02*
X029448Y016268D01*
X029433Y016269D01*
X029419Y016274D01*
X029406Y016281D01*
X029394Y016290D01*
X029385Y016302D01*
X029378Y016315D01*
X029373Y016329D01*
X029372Y016344D01*
X029372Y016496D01*
X029372Y016656D01*
X029372Y016496D02*
X028445Y016496D01*
X028436Y016656D02*
X028141Y016656D01*
X029667Y016656D02*
X029811Y016825D01*
X030325Y016825D01*
X030460Y016656D01*
X029372Y018655D02*
X029372Y018815D01*
X026285Y016176D02*
X026098Y015896D01*
X025990Y015896D02*
X025803Y015896D01*
X025897Y015896D02*
X025897Y016176D01*
X025990Y016082D01*
X026098Y016176D02*
X026285Y015896D01*
X023868Y018309D02*
X023866Y018328D01*
X023861Y018347D01*
X023853Y018364D01*
X023842Y018380D01*
X023829Y018393D01*
X023813Y018404D01*
X023796Y018412D01*
X023777Y018417D01*
X023758Y018419D01*
X023471Y018419D01*
X023632Y018427D02*
X023632Y018638D01*
X023630Y018663D01*
X023625Y018688D01*
X023616Y018712D01*
X023604Y018734D01*
X023589Y018754D01*
X023571Y018772D01*
X023551Y018787D01*
X023529Y018799D01*
X023505Y018808D01*
X023480Y018813D01*
X023455Y018815D01*
X023219Y018815D01*
X023219Y018958D01*
X023218Y018958D02*
X023216Y018974D01*
X023212Y018990D01*
X023204Y019005D01*
X023193Y019017D01*
X023181Y019028D01*
X023166Y019036D01*
X023150Y019040D01*
X023134Y019042D01*
X023134Y019043D02*
X021574Y019043D01*
X021559Y019042D01*
X021545Y019037D01*
X021532Y019030D01*
X021520Y019021D01*
X021511Y019009D01*
X021504Y018996D01*
X021499Y018982D01*
X021498Y018967D01*
X021498Y018815D01*
X020571Y018815D01*
X020562Y018941D02*
X020562Y018655D01*
X021793Y018655D01*
X021827Y018688D01*
X021827Y018866D01*
X022544Y018866D01*
X022544Y018705D01*
X022443Y018520D01*
X022451Y018511D02*
X022367Y018739D01*
X021996Y018739D01*
X021945Y018511D01*
X021836Y018714D01*
X021793Y018655D02*
X021928Y018495D01*
X022460Y018495D01*
X022595Y018655D01*
X023219Y018655D01*
X023219Y018815D01*
X023219Y018655D02*
X023396Y018655D01*
X023396Y018654D02*
X023411Y018652D01*
X023425Y018647D01*
X023438Y018639D01*
X023448Y018629D01*
X023456Y018616D01*
X023461Y018602D01*
X023463Y018587D01*
X023134Y018292D02*
X022999Y018174D01*
X022999Y017811D01*
X023185Y017660D01*
X023193Y017660D01*
X023193Y018166D01*
X023191Y018194D01*
X023186Y018221D01*
X023177Y018247D01*
X023165Y018272D01*
X023149Y018294D01*
X023131Y018315D01*
X023110Y018333D01*
X023088Y018349D01*
X023063Y018361D01*
X023037Y018370D01*
X023010Y018375D01*
X022982Y018377D01*
X022595Y018655D02*
X022544Y018705D01*
X022999Y017811D02*
X019061Y017811D01*
X019053Y018174D01*
X018926Y018284D01*
X018851Y018124D02*
X018851Y017660D01*
X019061Y017811D01*
X018851Y017660D02*
X023185Y017660D01*
X023353Y017862D02*
X023455Y017972D01*
X022654Y017651D02*
X022654Y017145D01*
X022139Y017145D01*
X022139Y017651D01*
X021675Y017651D02*
X021675Y017145D01*
X021161Y017145D01*
X021161Y017643D01*
X020891Y017634D02*
X020891Y017145D01*
X020377Y017145D01*
X020377Y017651D01*
X020368Y017651D01*
X019921Y017643D02*
X019921Y017145D01*
X019399Y017145D01*
X019399Y017643D01*
X018851Y018124D02*
X018853Y018154D01*
X018858Y018185D01*
X018867Y018214D01*
X018880Y018242D01*
X018896Y018268D01*
X018915Y018292D01*
X018936Y018313D01*
X018960Y018332D01*
X018986Y018348D01*
X019014Y018361D01*
X019043Y018370D01*
X019074Y018375D01*
X019104Y018377D01*
X018842Y018655D02*
X018842Y018815D01*
X018606Y018815D01*
X018665Y018655D02*
X019466Y018655D01*
X019500Y018714D01*
X019500Y018815D01*
X019501Y018828D01*
X019506Y018841D01*
X019513Y018852D01*
X019522Y018861D01*
X019533Y018868D01*
X019546Y018873D01*
X019559Y018874D01*
X020200Y018874D01*
X020207Y018873D01*
X020212Y018869D01*
X020216Y018864D01*
X020217Y018857D01*
X020217Y018714D01*
X020115Y018537D01*
X020048Y018756D01*
X019685Y018756D01*
X019610Y018511D01*
X019601Y018503D02*
X020124Y018503D01*
X020259Y018655D01*
X020217Y018714D01*
X020259Y018655D02*
X020562Y018655D01*
X020562Y018941D02*
X020560Y018959D01*
X020556Y018976D01*
X020548Y018992D01*
X020538Y019006D01*
X020526Y019018D01*
X020512Y019028D01*
X020496Y019036D01*
X020479Y019040D01*
X020461Y019042D01*
X020461Y019043D02*
X018910Y019043D01*
X018910Y019042D02*
X018895Y019040D01*
X018881Y019035D01*
X018868Y019027D01*
X018858Y019017D01*
X018850Y019004D01*
X018845Y018990D01*
X018843Y018975D01*
X018842Y018975D02*
X018842Y018815D01*
X018606Y018815D02*
X018580Y018813D01*
X018554Y018807D01*
X018529Y018798D01*
X018505Y018785D01*
X018484Y018770D01*
X018465Y018751D01*
X018450Y018730D01*
X018437Y018706D01*
X018428Y018681D01*
X018422Y018655D01*
X018420Y018629D01*
X018421Y018629D02*
X018421Y018427D01*
X018286Y018419D02*
X018581Y018419D01*
X018581Y018570D01*
X018583Y018586D01*
X018587Y018602D01*
X018595Y018617D01*
X018606Y018629D01*
X018618Y018640D01*
X018633Y018648D01*
X018649Y018652D01*
X018665Y018654D01*
X018286Y018418D02*
X018270Y018416D01*
X018254Y018412D01*
X018239Y018404D01*
X018227Y018393D01*
X018216Y018381D01*
X018208Y018366D01*
X018204Y018350D01*
X018202Y018334D01*
X018589Y017980D02*
X018699Y017879D01*
X019466Y018646D02*
X019601Y018503D01*
X019610Y018554D02*
X019508Y018731D01*
X019466Y018655D02*
X019466Y018655D01*
X019610Y016825D02*
X019475Y016656D01*
X019483Y016648D02*
X019517Y016606D01*
X019517Y016488D01*
X019516Y016488D02*
X019518Y016475D01*
X019523Y016463D01*
X019531Y016452D01*
X019542Y016444D01*
X019554Y016439D01*
X019567Y016437D01*
X020174Y016437D01*
X020187Y016438D01*
X020200Y016443D01*
X020211Y016450D01*
X020220Y016459D01*
X020227Y016470D01*
X020232Y016483D01*
X020233Y016496D01*
X020234Y016496D02*
X020234Y016623D01*
X020267Y016656D01*
X020124Y016825D01*
X019610Y016825D01*
X019483Y016648D02*
X018842Y016648D01*
X018842Y016656D02*
X018842Y016336D01*
X018843Y016336D02*
X018845Y016321D01*
X018850Y016307D01*
X018858Y016294D01*
X018868Y016284D01*
X018881Y016276D01*
X018895Y016271D01*
X018910Y016269D01*
X018910Y016268D02*
X020495Y016268D01*
X020495Y016269D02*
X020510Y016271D01*
X020524Y016276D01*
X020537Y016284D01*
X020547Y016294D01*
X020555Y016307D01*
X020560Y016321D01*
X020562Y016336D01*
X020562Y016656D01*
X021498Y016656D01*
X021793Y016656D01*
X021827Y016623D01*
X021827Y016496D01*
X021828Y016483D01*
X021833Y016470D01*
X021840Y016459D01*
X021849Y016450D01*
X021860Y016443D01*
X021873Y016438D01*
X021886Y016437D01*
X022493Y016437D01*
X022506Y016439D01*
X022519Y016444D01*
X022529Y016452D01*
X022537Y016463D01*
X022542Y016475D01*
X022544Y016488D01*
X022544Y016606D01*
X022578Y016648D01*
X023219Y016648D01*
X023219Y016336D01*
X023218Y016336D02*
X023216Y016321D01*
X023211Y016307D01*
X023203Y016294D01*
X023193Y016284D01*
X023180Y016276D01*
X023166Y016271D01*
X023151Y016269D01*
X023151Y016268D02*
X021574Y016268D01*
X021559Y016269D01*
X021545Y016274D01*
X021532Y016281D01*
X021520Y016290D01*
X021511Y016302D01*
X021504Y016315D01*
X021499Y016329D01*
X021498Y016344D01*
X021498Y016496D01*
X021498Y016656D01*
X021498Y016496D02*
X020571Y016496D01*
X020562Y016656D02*
X020267Y016656D01*
X021793Y016656D02*
X021937Y016825D01*
X022451Y016825D01*
X022586Y016656D01*
X021498Y018655D02*
X021498Y018815D01*
X018411Y016176D02*
X018224Y015896D01*
X018116Y015896D02*
X017929Y016082D01*
X017929Y016129D01*
X017976Y016176D01*
X018069Y016176D01*
X018116Y016129D01*
X018224Y016176D02*
X018411Y015896D01*
X018116Y015896D02*
X017929Y015896D01*
X015345Y016336D02*
X015345Y016648D01*
X014704Y016648D01*
X014670Y016606D01*
X014670Y016488D01*
X014668Y016475D01*
X014663Y016463D01*
X014655Y016452D01*
X014645Y016444D01*
X014632Y016439D01*
X014619Y016437D01*
X014012Y016437D01*
X013999Y016438D01*
X013986Y016443D01*
X013975Y016450D01*
X013966Y016459D01*
X013959Y016470D01*
X013954Y016483D01*
X013953Y016496D01*
X013953Y016623D01*
X013919Y016656D01*
X014063Y016825D01*
X014577Y016825D01*
X014712Y016656D01*
X014780Y017145D02*
X014265Y017145D01*
X014265Y017651D01*
X013801Y017651D02*
X013801Y017145D01*
X013287Y017145D01*
X013287Y017643D01*
X013017Y017634D02*
X013017Y017145D01*
X012503Y017145D01*
X012503Y017651D01*
X012494Y017651D01*
X012047Y017643D02*
X012047Y017145D01*
X011525Y017145D01*
X011525Y017643D01*
X011187Y017811D02*
X015125Y017811D01*
X015125Y018174D01*
X015260Y018292D01*
X015319Y018166D02*
X015319Y017660D01*
X015311Y017660D01*
X015125Y017811D01*
X015311Y017660D02*
X010977Y017660D01*
X011187Y017811D01*
X011179Y018174D01*
X011052Y018284D01*
X010977Y018124D02*
X010977Y017660D01*
X010825Y017879D02*
X010715Y017980D01*
X010707Y018419D02*
X010412Y018419D01*
X010412Y018418D02*
X010396Y018416D01*
X010380Y018412D01*
X010365Y018404D01*
X010353Y018393D01*
X010342Y018381D01*
X010334Y018366D01*
X010330Y018350D01*
X010328Y018334D01*
X010547Y018427D02*
X010547Y018629D01*
X010707Y018570D02*
X010707Y018419D01*
X010707Y018570D02*
X010709Y018586D01*
X010713Y018602D01*
X010721Y018617D01*
X010732Y018629D01*
X010744Y018640D01*
X010759Y018648D01*
X010775Y018652D01*
X010791Y018654D01*
X010791Y018655D02*
X011592Y018655D01*
X011626Y018714D01*
X011626Y018815D01*
X011627Y018828D01*
X011632Y018841D01*
X011639Y018852D01*
X011648Y018861D01*
X011659Y018868D01*
X011672Y018873D01*
X011685Y018874D01*
X012326Y018874D01*
X012333Y018873D01*
X012338Y018869D01*
X012342Y018864D01*
X012343Y018857D01*
X012343Y018714D01*
X012241Y018537D01*
X012174Y018756D01*
X011811Y018756D01*
X011736Y018511D01*
X011727Y018503D02*
X012250Y018503D01*
X012385Y018655D01*
X012343Y018714D01*
X012385Y018655D02*
X012688Y018655D01*
X013919Y018655D01*
X013953Y018688D01*
X013953Y018866D01*
X014670Y018866D01*
X014670Y018705D01*
X014569Y018520D01*
X014577Y018511D02*
X014493Y018739D01*
X014122Y018739D01*
X014071Y018511D01*
X013962Y018714D01*
X013919Y018655D02*
X014054Y018495D01*
X014586Y018495D01*
X014721Y018655D01*
X015345Y018655D01*
X015345Y018815D01*
X015581Y018815D01*
X015522Y018655D02*
X015345Y018655D01*
X015345Y018815D02*
X015345Y018958D01*
X015344Y018958D02*
X015342Y018974D01*
X015338Y018990D01*
X015330Y019005D01*
X015319Y019017D01*
X015307Y019028D01*
X015292Y019036D01*
X015276Y019040D01*
X015260Y019042D01*
X015260Y019043D02*
X013700Y019043D01*
X013685Y019042D01*
X013671Y019037D01*
X013658Y019030D01*
X013646Y019021D01*
X013637Y019009D01*
X013630Y018996D01*
X013625Y018982D01*
X013624Y018967D01*
X013624Y018815D01*
X012697Y018815D01*
X012688Y018941D02*
X012688Y018655D01*
X012688Y018941D02*
X012686Y018959D01*
X012682Y018976D01*
X012674Y018992D01*
X012664Y019006D01*
X012652Y019018D01*
X012638Y019028D01*
X012622Y019036D01*
X012605Y019040D01*
X012587Y019042D01*
X012587Y019043D02*
X011036Y019043D01*
X011036Y019042D02*
X011021Y019040D01*
X011007Y019035D01*
X010994Y019027D01*
X010984Y019017D01*
X010976Y019004D01*
X010971Y018990D01*
X010969Y018975D01*
X010968Y018975D02*
X010968Y018815D01*
X010732Y018815D01*
X010706Y018813D01*
X010680Y018807D01*
X010655Y018798D01*
X010631Y018785D01*
X010610Y018770D01*
X010591Y018751D01*
X010576Y018730D01*
X010563Y018706D01*
X010554Y018681D01*
X010548Y018655D01*
X010546Y018629D01*
X010968Y018655D02*
X010968Y018815D01*
X011592Y018655D02*
X011592Y018655D01*
X011592Y018646D02*
X011727Y018503D01*
X011736Y018554D02*
X011634Y018731D01*
X011230Y018377D02*
X011200Y018375D01*
X011169Y018370D01*
X011140Y018361D01*
X011112Y018348D01*
X011086Y018332D01*
X011062Y018313D01*
X011041Y018292D01*
X011022Y018268D01*
X011006Y018242D01*
X010993Y018214D01*
X010984Y018185D01*
X010979Y018154D01*
X010977Y018124D01*
X010968Y016656D02*
X010968Y016336D01*
X010969Y016336D02*
X010971Y016321D01*
X010976Y016307D01*
X010984Y016294D01*
X010994Y016284D01*
X011007Y016276D01*
X011021Y016271D01*
X011036Y016269D01*
X011036Y016268D02*
X012621Y016268D01*
X012621Y016269D02*
X012636Y016271D01*
X012650Y016276D01*
X012663Y016284D01*
X012673Y016294D01*
X012681Y016307D01*
X012686Y016321D01*
X012688Y016336D01*
X012688Y016656D01*
X013624Y016656D01*
X013919Y016656D01*
X013624Y016656D02*
X013624Y016496D01*
X013624Y016344D01*
X013625Y016329D01*
X013630Y016315D01*
X013637Y016302D01*
X013646Y016290D01*
X013658Y016281D01*
X013671Y016274D01*
X013685Y016269D01*
X013700Y016268D01*
X015277Y016268D01*
X015277Y016269D02*
X015292Y016271D01*
X015306Y016276D01*
X015319Y016284D01*
X015329Y016294D01*
X015337Y016307D01*
X015342Y016321D01*
X015344Y016336D01*
X014780Y017145D02*
X014780Y017651D01*
X015319Y018166D02*
X015317Y018194D01*
X015312Y018221D01*
X015303Y018247D01*
X015291Y018272D01*
X015275Y018294D01*
X015257Y018315D01*
X015236Y018333D01*
X015214Y018349D01*
X015189Y018361D01*
X015163Y018370D01*
X015136Y018375D01*
X015108Y018377D01*
X015522Y018654D02*
X015537Y018652D01*
X015551Y018647D01*
X015564Y018639D01*
X015574Y018629D01*
X015582Y018616D01*
X015587Y018602D01*
X015589Y018587D01*
X015758Y018638D02*
X015756Y018663D01*
X015751Y018688D01*
X015742Y018712D01*
X015730Y018734D01*
X015715Y018754D01*
X015697Y018772D01*
X015677Y018787D01*
X015655Y018799D01*
X015631Y018808D01*
X015606Y018813D01*
X015581Y018815D01*
X015758Y018638D02*
X015758Y018427D01*
X015884Y018419D02*
X015597Y018419D01*
X015884Y018419D02*
X015903Y018417D01*
X015922Y018412D01*
X015939Y018404D01*
X015955Y018393D01*
X015968Y018380D01*
X015979Y018364D01*
X015987Y018347D01*
X015992Y018328D01*
X015994Y018309D01*
X015581Y017972D02*
X015479Y017862D01*
X014721Y018655D02*
X014670Y018705D01*
X013624Y018655D02*
X013624Y018815D01*
X013624Y016496D02*
X012697Y016496D01*
X012688Y016656D02*
X012393Y016656D01*
X012359Y016623D01*
X012359Y016496D01*
X012358Y016483D01*
X012353Y016470D01*
X012346Y016459D01*
X012337Y016450D01*
X012326Y016443D01*
X012313Y016438D01*
X012300Y016437D01*
X011693Y016437D01*
X011680Y016439D01*
X011668Y016444D01*
X011657Y016452D01*
X011649Y016463D01*
X011644Y016475D01*
X011642Y016488D01*
X011643Y016488D02*
X011643Y016606D01*
X011609Y016648D01*
X010968Y016648D01*
X011601Y016656D02*
X011736Y016825D01*
X012250Y016825D01*
X012393Y016656D01*
X010537Y016176D02*
X010350Y015896D01*
X010242Y016036D02*
X010055Y016036D01*
X010102Y015896D02*
X010102Y016176D01*
X010242Y016036D01*
X010350Y016176D02*
X010537Y015896D01*
X001349Y015729D02*
X001302Y015729D01*
X001209Y015729D02*
X001022Y015729D01*
X001022Y015775D02*
X001022Y015682D01*
X001022Y015579D02*
X001022Y015486D01*
X001022Y015532D02*
X001302Y015532D01*
X001302Y015486D01*
X001162Y015378D02*
X001022Y015378D01*
X001022Y015238D01*
X001068Y015191D01*
X001115Y015238D01*
X001115Y015378D01*
X001162Y015378D02*
X001209Y015331D01*
X001209Y015238D01*
X001162Y015083D02*
X001115Y015083D01*
X001115Y014896D01*
X001068Y014896D02*
X001162Y014896D01*
X001209Y014943D01*
X001209Y015036D01*
X001162Y015083D01*
X001022Y015036D02*
X001022Y014943D01*
X001068Y014896D01*
X001209Y014791D02*
X001209Y014744D01*
X001115Y014651D01*
X001022Y014651D02*
X001209Y014651D01*
X001255Y014543D02*
X001302Y014496D01*
X001302Y014403D01*
X001255Y014356D01*
X001068Y014356D01*
X001022Y014403D01*
X001022Y014496D01*
X001068Y014543D01*
X001162Y014543D01*
X001162Y014449D01*
X000761Y014452D02*
X000761Y014545D01*
X000714Y014592D01*
X000574Y014592D01*
X000574Y014452D01*
X000620Y014405D01*
X000667Y014452D01*
X000667Y014592D01*
X000714Y014297D02*
X000574Y014297D01*
X000714Y014297D02*
X000761Y014251D01*
X000761Y014110D01*
X000574Y014110D01*
X000574Y014007D02*
X000574Y013914D01*
X000574Y013961D02*
X000761Y013961D01*
X000761Y013914D01*
X000854Y013961D02*
X000901Y013961D01*
X000928Y013907D02*
X000928Y013860D01*
X000928Y013907D02*
X000975Y013954D01*
X001209Y013954D01*
X001209Y013767D02*
X001068Y013767D01*
X001022Y013813D01*
X001022Y013954D01*
X001115Y013659D02*
X001115Y013472D01*
X001068Y013472D02*
X001162Y013472D01*
X001209Y013519D01*
X001209Y013612D01*
X001162Y013659D01*
X001115Y013659D01*
X001022Y013612D02*
X001022Y013519D01*
X001068Y013472D01*
X001022Y013369D02*
X001022Y013276D01*
X001022Y013322D02*
X001302Y013322D01*
X001302Y013276D01*
X001162Y013168D02*
X001022Y013168D01*
X001162Y013168D02*
X001209Y013121D01*
X001209Y013028D01*
X001162Y012981D01*
X001209Y012873D02*
X001209Y012733D01*
X001162Y012686D01*
X001115Y012733D01*
X001115Y012826D01*
X001068Y012873D01*
X001022Y012826D01*
X001022Y012686D01*
X001022Y012578D02*
X001209Y012578D01*
X001302Y012485D01*
X001209Y012392D01*
X001022Y012392D01*
X001162Y012392D02*
X001162Y012578D01*
X000901Y012586D02*
X000854Y012586D01*
X000761Y012586D02*
X000574Y012586D01*
X000574Y012632D02*
X000574Y012539D01*
X000761Y012539D02*
X000761Y012586D01*
X000761Y012735D02*
X000761Y012876D01*
X000714Y012922D01*
X000574Y012922D01*
X000574Y012735D02*
X000761Y012735D01*
X001022Y012981D02*
X001302Y012981D01*
X000854Y013371D02*
X000807Y013325D01*
X000620Y013325D01*
X000574Y013371D01*
X000574Y013465D01*
X000620Y013512D01*
X000574Y013619D02*
X000854Y013619D01*
X000761Y013666D02*
X000761Y013759D01*
X000714Y013806D01*
X000574Y013806D01*
X000714Y013619D02*
X000761Y013666D01*
X000807Y013512D02*
X000854Y013465D01*
X000854Y013371D01*
X000854Y012137D02*
X000574Y012137D01*
X000574Y011996D01*
X000620Y011950D01*
X000714Y011950D01*
X000761Y011996D01*
X000761Y012137D01*
X000928Y011942D02*
X000928Y011896D01*
X000928Y011942D02*
X000975Y011989D01*
X001209Y011989D01*
X001209Y011802D02*
X001068Y011802D01*
X001022Y011849D01*
X001022Y011989D01*
X001068Y011695D02*
X001162Y011695D01*
X001209Y011648D01*
X001209Y011508D01*
X001302Y011508D02*
X001022Y011508D01*
X001022Y011648D01*
X001068Y011695D01*
X000761Y011702D02*
X000761Y011795D01*
X000714Y011842D01*
X000667Y011842D01*
X000667Y011655D01*
X000620Y011655D02*
X000714Y011655D01*
X000761Y011702D01*
X000620Y011655D02*
X000574Y011702D01*
X000574Y011795D01*
X000761Y011550D02*
X000761Y011503D01*
X000667Y011409D01*
X000574Y011409D02*
X000761Y011409D01*
X000761Y011302D02*
X000574Y011302D01*
X000574Y011162D01*
X000620Y011115D01*
X000761Y011115D01*
X000761Y011012D02*
X000761Y010918D01*
X000807Y010965D02*
X000620Y010965D01*
X000574Y011012D01*
X000574Y010811D02*
X000574Y010670D01*
X000620Y010624D01*
X000714Y010624D01*
X000761Y010670D01*
X000761Y010811D01*
X001022Y010764D02*
X001022Y010670D01*
X001068Y010624D01*
X001162Y010624D01*
X001209Y010670D01*
X001209Y010764D01*
X001162Y010811D01*
X001115Y010811D01*
X001115Y010624D01*
X001162Y010516D02*
X001022Y010516D01*
X001162Y010516D02*
X001209Y010469D01*
X001209Y010329D01*
X001022Y010329D01*
X001022Y010221D02*
X001022Y010081D01*
X001068Y010034D01*
X001162Y010034D01*
X001209Y010081D01*
X001209Y010221D01*
X000975Y010221D01*
X000928Y010175D01*
X000928Y010128D01*
X000854Y010226D02*
X000807Y010179D01*
X000574Y010179D01*
X000714Y010133D02*
X000714Y010226D01*
X000620Y010329D02*
X000667Y010376D01*
X000667Y010516D01*
X000714Y010516D02*
X000574Y010516D01*
X000574Y010376D01*
X000620Y010329D01*
X000761Y010376D02*
X000761Y010469D01*
X000714Y010516D01*
X000761Y010025D02*
X000574Y010025D01*
X000574Y009885D01*
X000620Y009838D01*
X000761Y009838D01*
X000714Y009730D02*
X000574Y009730D01*
X000714Y009730D02*
X000761Y009683D01*
X000761Y009543D01*
X000574Y009543D01*
X000574Y009436D02*
X000574Y009295D01*
X000620Y009249D01*
X000667Y009295D01*
X000667Y009436D01*
X000714Y009436D02*
X000574Y009436D01*
X000714Y009436D02*
X000761Y009389D01*
X000761Y009295D01*
X000854Y009141D02*
X000574Y009141D01*
X000574Y008954D02*
X000854Y008954D01*
X000761Y009047D01*
X000854Y009141D01*
X001022Y009094D02*
X001068Y009141D01*
X001255Y009141D01*
X001302Y009094D01*
X001302Y008954D01*
X001022Y008954D01*
X001022Y009094D01*
X001068Y009249D02*
X001162Y009249D01*
X001209Y009295D01*
X001209Y009389D01*
X001162Y009436D01*
X001115Y009436D01*
X001115Y009249D01*
X001068Y009249D02*
X001022Y009295D01*
X001022Y009389D01*
X001022Y009543D02*
X001022Y009683D01*
X001068Y009730D01*
X001115Y009683D01*
X001115Y009590D01*
X001162Y009543D01*
X001209Y009590D01*
X001209Y009730D01*
X001209Y009838D02*
X001209Y009885D01*
X001022Y009885D01*
X001022Y009931D02*
X001022Y009838D01*
X001302Y009885D02*
X001349Y009885D01*
X001162Y010918D02*
X001209Y010965D01*
X001209Y011105D01*
X001302Y011105D02*
X001022Y011105D01*
X001022Y010965D01*
X001068Y010918D01*
X001162Y010918D01*
X001209Y015682D02*
X001209Y015729D01*
X001162Y015878D02*
X001209Y015925D01*
X001209Y016065D01*
X001115Y016018D02*
X001115Y015925D01*
X001162Y015878D01*
X001022Y015878D02*
X001022Y016018D01*
X001068Y016065D01*
X001115Y016018D01*
X001162Y016173D02*
X001209Y016220D01*
X001209Y016313D01*
X001162Y016360D01*
X001022Y016360D01*
X001022Y016173D02*
X001302Y016173D01*
X001209Y016762D02*
X001209Y016809D01*
X001022Y016809D01*
X001022Y016762D02*
X001022Y016856D01*
X001022Y016959D02*
X001209Y016959D01*
X001209Y017099D01*
X001162Y017146D01*
X001022Y017146D01*
X001022Y017548D02*
X001022Y017735D01*
X001068Y017843D02*
X001022Y017889D01*
X001022Y017983D01*
X001068Y018030D01*
X001162Y018030D01*
X001209Y017983D01*
X001209Y017889D01*
X001162Y017843D01*
X001068Y017843D01*
X001022Y018137D02*
X001209Y018137D01*
X001209Y018277D01*
X001162Y018324D01*
X001022Y018324D01*
X001068Y018432D02*
X001162Y018432D01*
X001209Y018479D01*
X001209Y018619D01*
X001302Y018619D02*
X001022Y018619D01*
X001022Y018479D01*
X001068Y018432D01*
X001068Y018727D02*
X001022Y018773D01*
X001022Y018867D01*
X001068Y018913D01*
X001162Y018913D01*
X001209Y018867D01*
X001209Y018773D01*
X001162Y018727D01*
X001068Y018727D01*
X001022Y019021D02*
X001209Y019021D01*
X001209Y019161D01*
X001162Y019208D01*
X001022Y019208D01*
X001022Y017548D02*
X001302Y017548D01*
X001302Y016809D02*
X001349Y016809D01*
D12*
X017447Y021695D03*
X017447Y021705D03*
X017447Y021715D03*
X017447Y021725D03*
X017447Y021735D03*
X017447Y021745D03*
X017447Y021775D03*
X017447Y021785D03*
X017447Y021795D03*
X017447Y021805D03*
X017447Y021815D03*
X017447Y021825D03*
X017447Y021835D03*
X017447Y021845D03*
X017447Y021855D03*
X017447Y021865D03*
X017447Y021885D03*
X017447Y021895D03*
X017447Y021905D03*
X017457Y021925D03*
X017457Y021935D03*
X017457Y021945D03*
X017457Y022345D03*
X017447Y022375D03*
X017447Y022385D03*
X017447Y022395D03*
X017447Y022405D03*
X017447Y022415D03*
X017447Y022425D03*
X017447Y022435D03*
X017447Y022445D03*
X017447Y022455D03*
X017447Y022495D03*
X017447Y022505D03*
X017447Y022515D03*
X017447Y022525D03*
X017447Y022535D03*
X017447Y022545D03*
X017447Y022555D03*
X019547Y022555D03*
X019547Y022545D03*
X019547Y022535D03*
X019547Y022525D03*
X019537Y022345D03*
X019837Y022325D03*
X019837Y022315D03*
X019827Y022255D03*
X019827Y022245D03*
X019827Y022235D03*
X019827Y022225D03*
X019827Y022215D03*
X019827Y022205D03*
X019827Y022195D03*
X019827Y022185D03*
X019827Y022175D03*
X019827Y022165D03*
X019827Y022155D03*
X019827Y022145D03*
X019827Y022135D03*
X019827Y022125D03*
X019827Y022115D03*
X019827Y022105D03*
X019827Y022095D03*
X019827Y022085D03*
X019827Y022075D03*
X019827Y022065D03*
X019827Y022055D03*
X019827Y022045D03*
X019827Y022035D03*
X019827Y022025D03*
X019827Y022015D03*
X019827Y022005D03*
X019837Y021985D03*
X019537Y021935D03*
X019537Y021925D03*
X019537Y021915D03*
X019547Y021845D03*
X019547Y021835D03*
X019547Y021825D03*
X019547Y021815D03*
X021757Y021925D03*
X021757Y021935D03*
X021757Y021945D03*
X021757Y021955D03*
X021757Y021965D03*
X021757Y022015D03*
X021757Y022025D03*
X021757Y022035D03*
X021757Y022045D03*
X021757Y022055D03*
X021757Y022105D03*
X021757Y022115D03*
X021757Y022125D03*
X021757Y022135D03*
X021757Y022145D03*
X021757Y022315D03*
X022037Y022285D03*
X022037Y022275D03*
X022037Y022265D03*
X022037Y022255D03*
X022037Y022245D03*
X022037Y022235D03*
X022037Y022225D03*
X022037Y022215D03*
X022037Y022205D03*
X022037Y022195D03*
X022037Y022185D03*
X022037Y022175D03*
X022037Y022165D03*
X022037Y022155D03*
X022037Y022145D03*
X022037Y022135D03*
X022037Y022125D03*
X022037Y022115D03*
X022037Y022105D03*
X022037Y022095D03*
X022037Y022085D03*
X022037Y022075D03*
X022037Y022065D03*
X022037Y022055D03*
X022037Y022045D03*
X022037Y022035D03*
X022037Y022025D03*
X022037Y022015D03*
X022037Y022005D03*
X022037Y021995D03*
X022037Y021985D03*
X022037Y021975D03*
X022037Y021965D03*
X022037Y021955D03*
X022037Y021945D03*
X022037Y021935D03*
X022037Y021925D03*
X022037Y021915D03*
X022037Y021905D03*
X022037Y021895D03*
X022037Y021885D03*
X022037Y021875D03*
X022037Y021865D03*
X022037Y021855D03*
X022037Y021845D03*
X022037Y021835D03*
X022037Y021825D03*
X022037Y021815D03*
X022037Y021805D03*
X022037Y021795D03*
X022037Y021785D03*
X022037Y021775D03*
X022037Y021765D03*
X022037Y021755D03*
X022037Y021745D03*
X022037Y021735D03*
X022037Y021725D03*
X022037Y021715D03*
X022037Y021705D03*
X022037Y021695D03*
X023977Y021695D03*
X023977Y021685D03*
X023977Y021705D03*
X023977Y021715D03*
X023977Y021725D03*
X023977Y021735D03*
X023977Y021745D03*
X023977Y021755D03*
X023977Y021765D03*
X023977Y021775D03*
X023977Y021785D03*
X023977Y021795D03*
X023977Y021805D03*
X023977Y021815D03*
X023977Y021825D03*
X023977Y021835D03*
X023977Y021845D03*
X023977Y021855D03*
X023977Y021865D03*
X023977Y021875D03*
X023977Y021885D03*
X023977Y021895D03*
X023977Y021905D03*
X023977Y021915D03*
X023977Y021925D03*
X023977Y021935D03*
X023977Y021945D03*
X023977Y021955D03*
X023977Y021965D03*
X023977Y021975D03*
X023977Y021985D03*
X023977Y021995D03*
X023977Y022005D03*
X023977Y022015D03*
X023977Y022025D03*
X023977Y022035D03*
X023977Y022045D03*
X023977Y022055D03*
X023977Y022065D03*
X023977Y022075D03*
X023977Y022085D03*
X023977Y022095D03*
X023977Y022105D03*
X023977Y022115D03*
X023977Y022125D03*
X023977Y022135D03*
X023977Y022195D03*
X023977Y022205D03*
X023977Y022215D03*
X023977Y022225D03*
X023977Y022235D03*
X023977Y022275D03*
X023977Y022285D03*
X023977Y022295D03*
X024277Y022515D03*
X024277Y022525D03*
X024277Y022535D03*
X024277Y022545D03*
X024277Y022555D03*
X024577Y022555D03*
X024577Y022545D03*
X024577Y022535D03*
X024577Y022525D03*
X024577Y022515D03*
X024577Y022505D03*
X024577Y022495D03*
X024577Y022485D03*
X024577Y022475D03*
X024577Y022465D03*
X024577Y022455D03*
X024577Y022445D03*
X024577Y022435D03*
X024577Y022425D03*
X024577Y022415D03*
X024577Y022405D03*
X024577Y022395D03*
X024577Y022385D03*
X024577Y022375D03*
X024577Y022365D03*
X024577Y022355D03*
X024577Y022345D03*
X024577Y022335D03*
X024577Y022325D03*
X024577Y022315D03*
X024577Y022305D03*
X024577Y022295D03*
X024577Y022285D03*
X024577Y022275D03*
X024577Y022265D03*
X024577Y022255D03*
X024577Y022245D03*
X024577Y022235D03*
X024577Y022225D03*
X024577Y022215D03*
X024577Y022205D03*
X024577Y022195D03*
X024577Y022185D03*
X024577Y022175D03*
X024577Y022165D03*
X024577Y022155D03*
X024577Y022145D03*
X024577Y022135D03*
X024577Y022125D03*
X024577Y022115D03*
X024577Y022105D03*
X024577Y022035D03*
X024577Y022025D03*
X024577Y022015D03*
X024577Y022005D03*
X024577Y021995D03*
X024577Y021985D03*
X024577Y021975D03*
X024577Y021965D03*
X024587Y021945D03*
X024587Y021935D03*
X024577Y022565D03*
X026517Y022565D03*
X026517Y022555D03*
X026517Y022545D03*
X026517Y022535D03*
X026517Y022525D03*
X026517Y022515D03*
X026517Y022505D03*
X026517Y022495D03*
X026517Y022485D03*
X026517Y022475D03*
X026517Y022465D03*
X026517Y022455D03*
X026517Y022445D03*
X026517Y022435D03*
X026517Y022425D03*
X026517Y022415D03*
X026517Y022405D03*
X026517Y022395D03*
X026517Y022385D03*
X026517Y022375D03*
X026517Y022365D03*
X026517Y022355D03*
X026517Y022345D03*
X026517Y022335D03*
X026517Y022325D03*
X026517Y022315D03*
X026517Y022305D03*
X026517Y022295D03*
X026517Y022285D03*
X026517Y022275D03*
X026517Y022265D03*
X026517Y022255D03*
X026517Y022245D03*
X026517Y022235D03*
X026517Y022225D03*
X026517Y022215D03*
X026517Y022205D03*
X026517Y022195D03*
X026517Y022185D03*
X026517Y022175D03*
X026517Y022165D03*
X026517Y022155D03*
X026517Y022145D03*
X026517Y022135D03*
X026517Y022125D03*
X026517Y022115D03*
X026517Y022105D03*
X026517Y022095D03*
X026517Y022085D03*
X026517Y022075D03*
X026517Y022065D03*
X026517Y022055D03*
X026517Y022045D03*
X026517Y022035D03*
X026517Y022025D03*
X026517Y022015D03*
X026527Y021995D03*
X026527Y021985D03*
X026517Y021965D03*
X026517Y021955D03*
X026517Y021945D03*
X026757Y021965D03*
X026757Y021975D03*
X026757Y021985D03*
X026757Y021995D03*
X026757Y022005D03*
X026757Y022015D03*
X026757Y022025D03*
X026757Y022035D03*
X026757Y022045D03*
X026757Y022055D03*
X026757Y022065D03*
X026757Y022075D03*
X026757Y022085D03*
X026757Y022095D03*
X026757Y022105D03*
X026757Y022115D03*
X026757Y022125D03*
X026757Y022135D03*
X026757Y022145D03*
X026757Y022155D03*
X026757Y022165D03*
X026757Y022175D03*
X026757Y022245D03*
X026757Y022255D03*
X026757Y022265D03*
X026757Y022275D03*
X026757Y022285D03*
X026757Y022295D03*
X026757Y022305D03*
X026517Y022575D03*
X029127Y023075D03*
X029127Y023085D03*
X029277Y023395D03*
X029277Y023405D03*
X029317Y023445D03*
X029327Y023465D03*
X029327Y023475D03*
X029327Y023485D03*
X029437Y023635D03*
X029447Y023645D03*
X029447Y023655D03*
X029457Y023665D03*
X029467Y023685D03*
X029477Y023695D03*
X029487Y023705D03*
X029497Y023715D03*
X029507Y023735D03*
X029517Y023745D03*
X029527Y023755D03*
X029537Y023765D03*
X029547Y023775D03*
X029557Y023785D03*
X029567Y023795D03*
X029577Y023805D03*
X029577Y023815D03*
X029587Y023825D03*
X029597Y023835D03*
X029667Y023905D03*
X029727Y023945D03*
X029817Y024035D03*
X033277Y023525D03*
X033697Y021145D03*
X033687Y021135D03*
X031507Y019635D03*
X030447Y019905D03*
X030177Y019975D03*
D13*
X029942Y020145D03*
X029912Y020165D03*
X029902Y020175D03*
X029532Y020505D03*
X029402Y020665D03*
X029402Y020675D03*
X029352Y020745D03*
X029342Y020755D03*
X029332Y020765D03*
X029322Y020775D03*
X029312Y020785D03*
X029312Y020795D03*
X029302Y020805D03*
X029302Y020815D03*
X030952Y022015D03*
X030952Y022345D03*
X030342Y024395D03*
X026922Y021785D03*
X031552Y019645D03*
X033882Y021435D03*
X033892Y021455D03*
X021632Y021805D03*
X021622Y022455D03*
X019992Y022465D03*
X019972Y021795D03*
X017632Y022095D03*
D14*
X021582Y022475D03*
X021592Y021785D03*
X023802Y022475D03*
X024752Y021785D03*
X028592Y021795D03*
X029472Y020555D03*
X029592Y020425D03*
X029622Y020395D03*
X029692Y020335D03*
X030922Y021845D03*
X030932Y022365D03*
X030922Y022375D03*
X030372Y024415D03*
X033972Y021655D03*
X033962Y021635D03*
X033952Y021605D03*
X033952Y021595D03*
X033942Y021585D03*
X031532Y019655D03*
D15*
X031122Y019665D03*
X030652Y019825D03*
X030632Y019835D03*
X029972Y020125D03*
X029962Y020135D03*
X029892Y020185D03*
X029882Y020195D03*
X029872Y020215D03*
X029672Y020385D03*
X029382Y020705D03*
X029372Y020715D03*
X029292Y020825D03*
X029242Y020905D03*
X029242Y020915D03*
X030962Y021965D03*
X030962Y021975D03*
X030962Y021995D03*
X030962Y022005D03*
X030962Y022245D03*
X030962Y022255D03*
X030962Y022335D03*
X033872Y021405D03*
X019952Y021805D03*
X019972Y022455D03*
D16*
X026307Y021775D03*
X028567Y021785D03*
X028557Y022475D03*
X029907Y022215D03*
X030907Y022035D03*
X031507Y019665D03*
X034007Y021775D03*
X034017Y021785D03*
X034017Y021795D03*
X034017Y021805D03*
X034017Y021815D03*
X034017Y021825D03*
X034017Y021835D03*
X034027Y021865D03*
X034027Y021875D03*
X034027Y021885D03*
X034027Y021895D03*
X034027Y021905D03*
X034027Y021915D03*
X034037Y021985D03*
X034037Y021995D03*
X034037Y022005D03*
X034037Y022015D03*
X034037Y022025D03*
X034047Y022095D03*
X034047Y022105D03*
X030437Y024445D03*
D17*
X030942Y022355D03*
X030942Y021855D03*
X029422Y020635D03*
X029422Y020625D03*
X029432Y020605D03*
X029442Y020595D03*
X029412Y020645D03*
X029582Y020445D03*
X029682Y020355D03*
X029742Y020305D03*
X029782Y020275D03*
X029792Y020255D03*
X029922Y020155D03*
X031132Y019675D03*
X028612Y021805D03*
X028612Y022455D03*
X033912Y021485D03*
X033922Y021525D03*
X033922Y021535D03*
X033932Y021545D03*
X033932Y021555D03*
X022222Y022475D03*
X021602Y022465D03*
X021612Y021795D03*
X020012Y022475D03*
X017582Y022235D03*
D18*
X031522Y019675D03*
X034042Y022525D03*
X034042Y022535D03*
X034042Y022545D03*
X034042Y022555D03*
X034042Y022565D03*
X034042Y022575D03*
X034042Y022585D03*
X034042Y022595D03*
X034042Y022605D03*
X034042Y022615D03*
X032752Y023385D03*
D19*
X031377Y019685D03*
D20*
X031342Y019695D03*
D21*
X031337Y019705D03*
X032497Y025205D03*
D22*
X031312Y019715D03*
D23*
X030952Y019725D03*
X030822Y022215D03*
X030802Y022425D03*
X030652Y024525D03*
X033982Y022955D03*
D24*
X033817Y021325D03*
X033807Y021305D03*
X033807Y021295D03*
X031737Y019725D03*
X030187Y020005D03*
X030057Y020105D03*
X029237Y020965D03*
X029237Y020975D03*
X029227Y020985D03*
X029217Y020995D03*
X029207Y021005D03*
X029197Y021025D03*
X029187Y021055D03*
X029117Y021185D03*
X029117Y021195D03*
X029107Y021205D03*
X029107Y021215D03*
X029097Y021225D03*
X029097Y021235D03*
X029087Y021255D03*
X029087Y021265D03*
X029087Y021275D03*
X029007Y021605D03*
X028677Y021845D03*
X028667Y021835D03*
X028937Y022035D03*
X030987Y021935D03*
X030987Y021905D03*
X030117Y024265D03*
X030207Y024315D03*
X030227Y024325D03*
X030237Y024335D03*
X027017Y021665D03*
X026427Y021825D03*
X024667Y021825D03*
X022137Y022435D03*
X021667Y022435D03*
X021677Y021825D03*
X019917Y022435D03*
X019907Y022425D03*
X019437Y022235D03*
X019447Y022055D03*
X017567Y022065D03*
D25*
X030917Y019735D03*
X034017Y022785D03*
X034017Y022795D03*
X034017Y022805D03*
X032467Y025285D03*
D26*
X029837Y024055D03*
X029797Y024025D03*
X029787Y024015D03*
X029757Y023985D03*
X029747Y023975D03*
X029407Y023615D03*
X029377Y023565D03*
X029367Y023555D03*
X029357Y023545D03*
X029347Y023535D03*
X029337Y023515D03*
X029237Y023335D03*
X029237Y023325D03*
X029227Y023305D03*
X029217Y023295D03*
X029147Y023145D03*
X029147Y023135D03*
X029137Y023125D03*
X029137Y023115D03*
X029117Y023045D03*
X029107Y023015D03*
X029087Y022995D03*
X029077Y022975D03*
X029077Y022965D03*
X029077Y022955D03*
X028737Y022025D03*
X028737Y022015D03*
X028737Y022005D03*
X028737Y021985D03*
X028737Y021975D03*
X028957Y021925D03*
X028957Y021915D03*
X028957Y021905D03*
X029037Y021495D03*
X026777Y021895D03*
X026767Y021905D03*
X026767Y021915D03*
X026497Y021895D03*
X026767Y022345D03*
X026767Y022355D03*
X026737Y021405D03*
X024597Y021905D03*
X024597Y021915D03*
X023967Y022335D03*
X023967Y022345D03*
X022057Y022345D03*
X022047Y022335D03*
X022047Y022325D03*
X021747Y022345D03*
X021747Y021895D03*
X019847Y021905D03*
X019837Y021915D03*
X019837Y021925D03*
X019837Y021935D03*
X019527Y021965D03*
X019527Y021975D03*
X019527Y022315D03*
X019527Y022325D03*
X019847Y022355D03*
X019847Y022365D03*
X017467Y022315D03*
X017477Y021985D03*
X017467Y021965D03*
X031787Y019735D03*
D27*
X030907Y019745D03*
X034027Y022695D03*
X034027Y022705D03*
X030507Y024485D03*
D28*
X030082Y024235D03*
X029862Y024075D03*
X029852Y024065D03*
X029232Y023315D03*
X029202Y023285D03*
X029192Y023265D03*
X029192Y023255D03*
X029182Y023235D03*
X029182Y023225D03*
X029182Y023215D03*
X029152Y023165D03*
X029152Y023155D03*
X029082Y022985D03*
X029072Y022945D03*
X029072Y022935D03*
X029072Y022925D03*
X029062Y022915D03*
X029062Y022905D03*
X029062Y022895D03*
X029052Y022885D03*
X029042Y022865D03*
X028732Y022315D03*
X028732Y022305D03*
X028732Y022295D03*
X028732Y022285D03*
X028732Y022275D03*
X028732Y022265D03*
X028732Y022255D03*
X028732Y022245D03*
X028732Y022235D03*
X028732Y022225D03*
X028732Y022215D03*
X028732Y022205D03*
X028732Y022195D03*
X028732Y022185D03*
X028732Y022115D03*
X028732Y022105D03*
X028732Y022095D03*
X028732Y022085D03*
X028732Y022075D03*
X028732Y022065D03*
X028732Y022055D03*
X028732Y022045D03*
X028732Y022035D03*
X028742Y021995D03*
X028732Y021965D03*
X028732Y021955D03*
X028732Y021945D03*
X028732Y021935D03*
X028732Y021925D03*
X028952Y021935D03*
X028952Y021945D03*
X028962Y021895D03*
X028962Y021885D03*
X028962Y021875D03*
X028962Y021865D03*
X028962Y021855D03*
X029032Y021515D03*
X029032Y021505D03*
X029042Y021475D03*
X029912Y020105D03*
X030172Y019985D03*
X030662Y019775D03*
X031912Y019745D03*
X033742Y021205D03*
X033752Y021225D03*
X026782Y021885D03*
X026492Y021885D03*
X026022Y021775D03*
X026742Y021415D03*
X026772Y022365D03*
X024602Y021895D03*
X023962Y022355D03*
X022072Y022365D03*
X022062Y022355D03*
X021742Y022355D03*
X021732Y022375D03*
X021742Y021885D03*
X019852Y021895D03*
X019522Y021985D03*
X019512Y021995D03*
X019512Y022295D03*
X019522Y022305D03*
X019852Y022375D03*
X017472Y022305D03*
X017482Y021995D03*
X017472Y021975D03*
D29*
X030487Y024475D03*
X034047Y022515D03*
X034047Y022505D03*
X034047Y022495D03*
X030877Y019755D03*
D30*
X030512Y019885D03*
X030362Y019955D03*
X031932Y019755D03*
X033472Y020745D03*
X033632Y021005D03*
X029712Y022215D03*
X029642Y022215D03*
X029032Y023005D03*
X029182Y023365D03*
X031352Y024925D03*
X032512Y025305D03*
X019542Y022595D03*
X017452Y021665D03*
D31*
X019337Y022105D03*
X019377Y022225D03*
X029477Y020545D03*
X029477Y020535D03*
X029487Y020525D03*
X029497Y020515D03*
X029597Y020415D03*
X029607Y020405D03*
X029697Y020325D03*
X030807Y019765D03*
X030917Y021835D03*
X030917Y022385D03*
X030387Y024425D03*
X033987Y021705D03*
X033987Y021695D03*
X033977Y021685D03*
X033977Y021675D03*
X033977Y021665D03*
X033967Y021645D03*
X033957Y021625D03*
X033957Y021615D03*
D32*
X033867Y021395D03*
X030967Y021875D03*
X030967Y021945D03*
X030967Y021955D03*
X030967Y021985D03*
X030967Y022265D03*
X030967Y022315D03*
X030967Y022325D03*
X029137Y021125D03*
X029287Y020835D03*
X029877Y020205D03*
X030667Y019815D03*
X030827Y019775D03*
X028657Y022435D03*
X026897Y021795D03*
X026387Y021805D03*
X024707Y021805D03*
X023857Y022455D03*
X019397Y022085D03*
D33*
X019507Y022005D03*
X019507Y022285D03*
X019857Y022385D03*
X019857Y021885D03*
X021727Y021865D03*
X021737Y021875D03*
X021737Y022365D03*
X021727Y022385D03*
X022077Y022375D03*
X022087Y022385D03*
X023947Y022375D03*
X023957Y022365D03*
X024607Y021885D03*
X026477Y021865D03*
X026487Y021875D03*
X026787Y021875D03*
X026797Y021865D03*
X026747Y021425D03*
X026777Y022375D03*
X026787Y022385D03*
X028727Y022335D03*
X028727Y022325D03*
X028737Y022175D03*
X028737Y022165D03*
X028737Y022155D03*
X028737Y022145D03*
X028737Y022135D03*
X028737Y022125D03*
X028727Y021915D03*
X028727Y021905D03*
X028947Y021955D03*
X028957Y021845D03*
X028957Y021835D03*
X029027Y021525D03*
X029037Y021465D03*
X028947Y022255D03*
X028947Y022265D03*
X028947Y022275D03*
X028947Y022285D03*
X028947Y022295D03*
X028957Y022425D03*
X028957Y022435D03*
X029037Y022855D03*
X029047Y022875D03*
X029147Y023175D03*
X029187Y023245D03*
X029197Y023275D03*
X029877Y024085D03*
X029887Y024095D03*
X029907Y024105D03*
X029917Y024115D03*
X029927Y024125D03*
X029937Y024135D03*
X029947Y024145D03*
X033757Y021235D03*
X033767Y021245D03*
X033747Y021215D03*
X030657Y019785D03*
X030547Y019875D03*
X017497Y022015D03*
X017487Y022005D03*
X017477Y022295D03*
D34*
X017582Y022075D03*
X019432Y022065D03*
X023872Y022445D03*
X026842Y022435D03*
X026862Y021815D03*
X028692Y022405D03*
X028972Y021775D03*
X029092Y021245D03*
X029122Y021175D03*
X029122Y021165D03*
X029172Y021075D03*
X029182Y021065D03*
X029192Y021045D03*
X029192Y021035D03*
X029202Y021015D03*
X030162Y020035D03*
X030822Y019785D03*
X033812Y021315D03*
X033822Y021335D03*
X033832Y021355D03*
X030192Y024305D03*
D35*
X030057Y024225D03*
X029997Y024185D03*
X029987Y024175D03*
X029977Y024165D03*
X029157Y023205D03*
X029017Y022815D03*
X029017Y022805D03*
X028977Y022645D03*
X028977Y022635D03*
X028977Y022625D03*
X028957Y022445D03*
X028947Y022405D03*
X028937Y022355D03*
X028937Y022345D03*
X028947Y022225D03*
X028947Y022215D03*
X028937Y021965D03*
X028957Y021825D03*
X029037Y021455D03*
X029057Y021385D03*
X029057Y021375D03*
X029067Y021355D03*
X029067Y021345D03*
X029357Y022215D03*
X028717Y022355D03*
X026817Y021845D03*
X026467Y021855D03*
X026767Y021455D03*
X026757Y021445D03*
X024627Y021855D03*
X023917Y022415D03*
X022097Y022405D03*
X021707Y022405D03*
X021707Y021855D03*
X019877Y022405D03*
X019477Y022255D03*
X019477Y022035D03*
X017527Y022045D03*
X017517Y022035D03*
X017497Y022275D03*
X030567Y019855D03*
X030647Y019795D03*
X033777Y021255D03*
D36*
X033802Y021285D03*
X030992Y021915D03*
X029082Y021305D03*
X029082Y021295D03*
X029082Y021285D03*
X029042Y021425D03*
X029002Y021575D03*
X029002Y021585D03*
X029002Y021595D03*
X028962Y021785D03*
X028932Y022015D03*
X028932Y022025D03*
X028962Y022205D03*
X028702Y022395D03*
X028702Y021865D03*
X028692Y021855D03*
X026992Y021655D03*
X026982Y021645D03*
X026972Y021635D03*
X026962Y021625D03*
X026872Y021555D03*
X026862Y021545D03*
X026852Y021535D03*
X026842Y021525D03*
X026832Y021515D03*
X026842Y021825D03*
X026442Y021835D03*
X026822Y022415D03*
X026832Y022425D03*
X023892Y022435D03*
X022122Y022425D03*
X021682Y022425D03*
X019912Y021825D03*
X019032Y022225D03*
X017522Y022255D03*
X030062Y020095D03*
X030072Y020085D03*
X030102Y020075D03*
X030142Y020045D03*
X030812Y019795D03*
D37*
X030697Y019805D03*
X029987Y020115D03*
X029767Y020285D03*
X029757Y020295D03*
X029677Y020365D03*
X029567Y020455D03*
X029557Y020465D03*
X029547Y020475D03*
X029547Y020485D03*
X029537Y020495D03*
X029407Y020655D03*
X029247Y020865D03*
X029247Y020875D03*
X029247Y020885D03*
X028627Y022445D03*
X026907Y022465D03*
X024727Y021795D03*
X023827Y022465D03*
X022207Y022465D03*
X019367Y022095D03*
X030357Y024405D03*
X033917Y021515D03*
X033917Y021505D03*
X033917Y021495D03*
X033907Y021475D03*
X033897Y021465D03*
X033887Y021445D03*
D38*
X033797Y021275D03*
X033787Y021265D03*
X030997Y021925D03*
X029077Y021315D03*
X029047Y021405D03*
X029047Y021415D03*
X029037Y021435D03*
X029037Y021445D03*
X029007Y021555D03*
X029007Y021565D03*
X028957Y021795D03*
X028927Y021995D03*
X028927Y022005D03*
X028707Y022375D03*
X028707Y022385D03*
X028977Y022605D03*
X028977Y022675D03*
X028977Y022685D03*
X028977Y022695D03*
X028977Y022705D03*
X028987Y022715D03*
X028997Y022735D03*
X030037Y024215D03*
X030167Y024285D03*
X030177Y024295D03*
X026827Y021835D03*
X026947Y021615D03*
X026937Y021605D03*
X026927Y021595D03*
X026917Y021585D03*
X026897Y021575D03*
X026887Y021565D03*
X026817Y021505D03*
X026807Y021495D03*
X026797Y021485D03*
X026787Y021475D03*
X026777Y021465D03*
X024647Y021835D03*
X021697Y021845D03*
X021687Y021835D03*
X021697Y022415D03*
X019897Y022415D03*
X019467Y022045D03*
X017547Y022055D03*
X017507Y022265D03*
X030127Y020065D03*
X030137Y020055D03*
X030577Y019845D03*
D39*
X030562Y019865D03*
X030172Y019995D03*
X029062Y021365D03*
X029022Y021535D03*
X028722Y021895D03*
X028942Y022235D03*
X028942Y022245D03*
X028942Y022305D03*
X028942Y022315D03*
X028942Y022325D03*
X028942Y022335D03*
X028942Y022365D03*
X028942Y022375D03*
X028942Y022385D03*
X028942Y022395D03*
X028952Y022415D03*
X028722Y022345D03*
X029022Y022825D03*
X029022Y022835D03*
X029032Y022845D03*
X029152Y023185D03*
X029152Y023195D03*
X029962Y024155D03*
X030092Y024245D03*
X032412Y025305D03*
X026792Y022395D03*
X026802Y021855D03*
X026752Y021435D03*
X024622Y021865D03*
X024612Y021875D03*
X023942Y022385D03*
X023942Y022395D03*
X023932Y022405D03*
X022092Y022395D03*
X021722Y022395D03*
X019872Y022395D03*
X019492Y022275D03*
X019482Y022265D03*
X019492Y022025D03*
X019502Y022015D03*
X019862Y021875D03*
X019872Y021865D03*
X019882Y021855D03*
X017502Y022025D03*
X017492Y022285D03*
D40*
X017447Y021675D03*
X019547Y021675D03*
X019547Y021685D03*
X019547Y022575D03*
X019547Y022585D03*
X022037Y021675D03*
X023977Y021675D03*
X024577Y022585D03*
X026517Y022585D03*
X029297Y023425D03*
X029307Y023435D03*
X029617Y023855D03*
X029637Y023865D03*
X029647Y023875D03*
X030357Y024515D03*
X030417Y024555D03*
X030807Y022015D03*
X029917Y020085D03*
X030367Y019945D03*
X030367Y019935D03*
X030467Y019895D03*
X033637Y021035D03*
X033637Y021045D03*
X033667Y021085D03*
X033677Y021105D03*
X033677Y021115D03*
X033707Y021165D03*
D41*
X033827Y021345D03*
X033837Y021365D03*
X033847Y021375D03*
X030977Y021895D03*
X029237Y020955D03*
X029237Y020945D03*
X029157Y021085D03*
X029127Y021155D03*
X028947Y022045D03*
X028687Y022415D03*
X030267Y024345D03*
X030287Y024355D03*
X030297Y024365D03*
X030187Y020015D03*
X026407Y021815D03*
X024687Y021815D03*
X022157Y022445D03*
X019937Y022445D03*
X019937Y021815D03*
X019417Y022075D03*
X017537Y022245D03*
D42*
X017602Y022085D03*
X021652Y022445D03*
X021662Y021815D03*
X026882Y021805D03*
X026862Y022445D03*
X028672Y022425D03*
X028652Y021825D03*
X029132Y021145D03*
X029132Y021135D03*
X029142Y021115D03*
X029142Y021105D03*
X029152Y021095D03*
X029242Y020935D03*
X029242Y020925D03*
X029282Y020855D03*
X029282Y020845D03*
X030172Y020025D03*
X030972Y021885D03*
X030972Y022275D03*
X030972Y022285D03*
X030972Y022295D03*
X030972Y022305D03*
X030312Y024375D03*
X033852Y021385D03*
D43*
X033732Y021195D03*
X032742Y023365D03*
X029832Y024045D03*
X029782Y024005D03*
X029772Y023995D03*
X029742Y023965D03*
X029732Y023955D03*
X029692Y023925D03*
X029682Y023915D03*
X029462Y023675D03*
X029422Y023625D03*
X029402Y023605D03*
X029392Y023595D03*
X029392Y023585D03*
X029382Y023575D03*
X029342Y023525D03*
X029332Y023505D03*
X029332Y023495D03*
X029272Y023385D03*
X029272Y023375D03*
X029272Y023365D03*
X029262Y023355D03*
X029252Y023345D03*
X029132Y023105D03*
X029132Y023095D03*
X029122Y023065D03*
X029122Y023055D03*
X029112Y023035D03*
X029112Y023025D03*
X029102Y023005D03*
X029042Y021485D03*
X029912Y020095D03*
X026732Y021395D03*
X026762Y021925D03*
X026762Y021935D03*
X026762Y021945D03*
X026762Y021955D03*
X026522Y021975D03*
X026512Y021935D03*
X026512Y021925D03*
X026502Y021915D03*
X026502Y021905D03*
X026762Y022315D03*
X026762Y022325D03*
X026762Y022335D03*
X024592Y021925D03*
X024582Y021955D03*
X023972Y022305D03*
X023972Y022315D03*
X023972Y022325D03*
X022042Y022315D03*
X022042Y022305D03*
X022042Y022295D03*
X021762Y022295D03*
X021762Y022285D03*
X021762Y022275D03*
X021762Y022265D03*
X021762Y022255D03*
X021762Y022245D03*
X021762Y022235D03*
X021762Y022225D03*
X021762Y022215D03*
X021762Y022205D03*
X021762Y022195D03*
X021762Y022185D03*
X021762Y022175D03*
X021762Y022165D03*
X021762Y022155D03*
X021762Y022095D03*
X021762Y022085D03*
X021762Y022075D03*
X021762Y022065D03*
X021762Y022005D03*
X021762Y021995D03*
X021762Y021985D03*
X021762Y021975D03*
X021752Y021915D03*
X021752Y021905D03*
X021762Y022305D03*
X021752Y022325D03*
X021752Y022335D03*
X019842Y022335D03*
X019842Y022345D03*
X019832Y022305D03*
X019832Y022295D03*
X019832Y022285D03*
X019832Y022275D03*
X019832Y022265D03*
X019832Y021975D03*
X019832Y021965D03*
X019832Y021955D03*
X019832Y021945D03*
X019532Y021945D03*
X019532Y021955D03*
X019532Y022335D03*
X017462Y022335D03*
X017462Y022325D03*
X017452Y022355D03*
X017452Y022365D03*
X017462Y021955D03*
D44*
X019997Y021785D03*
X026347Y021785D03*
X026927Y022475D03*
X028597Y022465D03*
X029427Y020615D03*
X029447Y020585D03*
X029457Y020575D03*
X029467Y020565D03*
X029587Y020435D03*
X029687Y020345D03*
X029787Y020265D03*
X029807Y020245D03*
X029817Y020235D03*
X029837Y020225D03*
X033937Y021565D03*
X033937Y021575D03*
D45*
X033992Y021715D03*
X033992Y021725D03*
X032452Y025295D03*
X030402Y024435D03*
X029712Y020315D03*
D46*
X029677Y020375D03*
X029397Y020685D03*
X029387Y020695D03*
X029367Y020725D03*
X029357Y020735D03*
X029247Y020895D03*
X028627Y021815D03*
X026887Y022455D03*
X026377Y021795D03*
X030327Y024385D03*
X030957Y022235D03*
X030957Y021865D03*
X032747Y023375D03*
X033877Y021425D03*
X033877Y021415D03*
X022187Y022455D03*
D47*
X024577Y022595D03*
X028877Y022605D03*
X029027Y023015D03*
X030987Y024845D03*
X033227Y023455D03*
X033227Y023445D03*
X033647Y021065D03*
X033467Y020735D03*
X029147Y020845D03*
X029147Y020855D03*
X017457Y022595D03*
D48*
X017452Y022585D03*
X024272Y022585D03*
X024272Y021675D03*
X026732Y021385D03*
X029112Y023215D03*
X030052Y024275D03*
X033222Y023465D03*
X033282Y023515D03*
X033672Y021095D03*
X033662Y021075D03*
X033642Y021055D03*
X033632Y021025D03*
X033632Y021015D03*
D49*
X033682Y021125D03*
X033702Y021155D03*
X033712Y021175D03*
X033712Y021185D03*
X030982Y024835D03*
X029712Y023935D03*
X029662Y023895D03*
X029652Y023885D03*
X029602Y023845D03*
X029502Y023725D03*
X029322Y023455D03*
X029282Y023415D03*
X026752Y022235D03*
X026752Y022225D03*
X026752Y022215D03*
X026752Y022205D03*
X026752Y022195D03*
X026752Y022185D03*
X026522Y022005D03*
X024582Y022045D03*
X024582Y022055D03*
X024582Y022065D03*
X024582Y022075D03*
X024582Y022085D03*
X024582Y022095D03*
X024272Y022095D03*
X024272Y022085D03*
X024272Y022075D03*
X024272Y022065D03*
X024272Y022055D03*
X024272Y022045D03*
X024272Y022035D03*
X024272Y022025D03*
X024272Y022015D03*
X024272Y022005D03*
X024272Y021995D03*
X024272Y021985D03*
X024272Y021975D03*
X024272Y021965D03*
X024272Y021955D03*
X024272Y021945D03*
X024272Y021935D03*
X024272Y021925D03*
X024272Y021915D03*
X024272Y021905D03*
X024272Y021895D03*
X024272Y021885D03*
X024272Y021875D03*
X024272Y021865D03*
X024272Y021855D03*
X024272Y021845D03*
X024272Y021835D03*
X024272Y021825D03*
X024272Y021815D03*
X024272Y021805D03*
X024272Y021795D03*
X024272Y021785D03*
X024272Y021775D03*
X024272Y021765D03*
X024272Y021755D03*
X024272Y021745D03*
X024272Y021735D03*
X024272Y021725D03*
X024272Y021715D03*
X024272Y021705D03*
X024272Y021695D03*
X024272Y021685D03*
X024272Y022105D03*
X024272Y022115D03*
X024272Y022125D03*
X024272Y022135D03*
X024272Y022145D03*
X024272Y022155D03*
X024272Y022165D03*
X024272Y022175D03*
X024272Y022185D03*
X024272Y022195D03*
X024272Y022205D03*
X024272Y022215D03*
X024272Y022225D03*
X024272Y022235D03*
X024272Y022245D03*
X024272Y022255D03*
X024272Y022265D03*
X024272Y022275D03*
X024272Y022285D03*
X024272Y022295D03*
X024272Y022305D03*
X024272Y022315D03*
X024272Y022325D03*
X024272Y022335D03*
X024272Y022345D03*
X024272Y022355D03*
X024272Y022365D03*
X024272Y022375D03*
X024272Y022385D03*
X024272Y022395D03*
X024272Y022405D03*
X024272Y022415D03*
X024272Y022425D03*
X024272Y022435D03*
X024272Y022445D03*
X024272Y022455D03*
X024272Y022465D03*
X024272Y022475D03*
X024272Y022485D03*
X024272Y022495D03*
X024272Y022505D03*
X024272Y022565D03*
X024272Y022575D03*
X024582Y022575D03*
X023982Y022265D03*
X023982Y022255D03*
X023982Y022245D03*
X023982Y022185D03*
X023982Y022175D03*
X023982Y022165D03*
X023982Y022155D03*
X023982Y022145D03*
X022032Y021685D03*
X019832Y021995D03*
X019542Y021905D03*
X019542Y021895D03*
X019542Y021885D03*
X019542Y021875D03*
X019542Y021865D03*
X019542Y021855D03*
X019542Y021805D03*
X019542Y021795D03*
X019542Y021785D03*
X019542Y021775D03*
X019542Y021765D03*
X019542Y021755D03*
X019542Y021745D03*
X019542Y021735D03*
X019542Y021725D03*
X019542Y021715D03*
X019542Y021705D03*
X019542Y021695D03*
X019542Y022355D03*
X019542Y022365D03*
X019542Y022375D03*
X019542Y022385D03*
X019542Y022395D03*
X019542Y022405D03*
X019542Y022415D03*
X019542Y022425D03*
X019542Y022435D03*
X019542Y022445D03*
X019542Y022455D03*
X019542Y022465D03*
X019542Y022475D03*
X019542Y022485D03*
X019542Y022495D03*
X019542Y022505D03*
X019542Y022515D03*
X019542Y022565D03*
X017452Y022565D03*
X017452Y022575D03*
X017452Y022485D03*
X017452Y022475D03*
X017452Y022465D03*
X017452Y021915D03*
X017452Y021875D03*
X017452Y021765D03*
X017452Y021755D03*
X017452Y021685D03*
X032552Y025305D03*
D50*
X030152Y024275D03*
X030102Y024255D03*
X030022Y024205D03*
X030012Y024195D03*
X029012Y022795D03*
X029012Y022785D03*
X029002Y022775D03*
X029002Y022765D03*
X029002Y022755D03*
X029002Y022745D03*
X028992Y022725D03*
X028972Y022665D03*
X028972Y022655D03*
X028982Y022615D03*
X028712Y022365D03*
X028932Y021985D03*
X028932Y021975D03*
X028952Y021815D03*
X028952Y021805D03*
X028722Y021885D03*
X028712Y021875D03*
X029012Y021545D03*
X029052Y021395D03*
X029072Y021335D03*
X029072Y021325D03*
X026802Y022405D03*
X026452Y021845D03*
X024642Y021845D03*
X023912Y022425D03*
X022112Y022415D03*
X019902Y021835D03*
X019892Y021845D03*
X019462Y022245D03*
D51*
X020792Y021765D03*
X027762Y021745D03*
X027752Y022515D03*
X029832Y021615D03*
D52*
X029842Y021625D03*
X027762Y021755D03*
X027752Y022505D03*
X032382Y024955D03*
D53*
X029862Y021635D03*
D54*
X029882Y021645D03*
X029822Y022595D03*
X032362Y024935D03*
X018492Y022135D03*
X018482Y022155D03*
D55*
X018507Y022115D03*
X029887Y021655D03*
D56*
X020802Y021665D03*
X020782Y022595D03*
D57*
X025547Y021665D03*
D58*
X027787Y021665D03*
X023007Y022595D03*
X032457Y025125D03*
D59*
X032652Y024505D03*
X032662Y024495D03*
X033072Y023575D03*
X029892Y021665D03*
D60*
X032452Y025105D03*
X020792Y021675D03*
D61*
X025562Y021675D03*
D62*
X027712Y021675D03*
X029952Y022605D03*
D63*
X029897Y021675D03*
X032677Y024435D03*
X032677Y024455D03*
D64*
X032442Y025085D03*
X027752Y022585D03*
X023012Y022575D03*
X020792Y021685D03*
D65*
X025557Y021685D03*
X032447Y025075D03*
D66*
X027722Y021685D03*
X020792Y022555D03*
D67*
X029887Y022555D03*
X029907Y021685D03*
X032707Y024345D03*
X032707Y024355D03*
X032697Y024365D03*
X032677Y024395D03*
X032677Y024405D03*
X032597Y024555D03*
X033007Y023665D03*
X033017Y023655D03*
X033017Y023645D03*
D68*
X020802Y021695D03*
D69*
X023017Y022565D03*
X025547Y021695D03*
D70*
X027742Y021695D03*
X032432Y025025D03*
X020792Y022545D03*
D71*
X029912Y021695D03*
X032702Y024315D03*
X032992Y023705D03*
D72*
X032437Y025035D03*
X025547Y021705D03*
X020787Y021705D03*
D73*
X027752Y021705D03*
X027752Y022555D03*
D74*
X029922Y022515D03*
X029922Y021705D03*
X032712Y024295D03*
X032972Y023735D03*
X032982Y023725D03*
D75*
X032432Y025015D03*
X025542Y021715D03*
X023022Y022545D03*
X020792Y021715D03*
D76*
X027762Y021715D03*
X032412Y025005D03*
D77*
X032717Y024285D03*
X032727Y024275D03*
X029927Y022505D03*
X029927Y021715D03*
D78*
X027757Y022545D03*
X020797Y021725D03*
D79*
X023022Y022535D03*
X025542Y021725D03*
D80*
X025547Y021735D03*
X027767Y021725D03*
X027757Y022535D03*
X020797Y021735D03*
D81*
X029932Y021725D03*
X029942Y021745D03*
X029952Y021755D03*
X029942Y022475D03*
X029942Y022485D03*
X029932Y022495D03*
X032742Y024235D03*
X032742Y024245D03*
X032732Y024255D03*
X032732Y024265D03*
X032552Y024565D03*
X032962Y023745D03*
D82*
X032392Y024985D03*
X027752Y022525D03*
X027762Y021735D03*
X023012Y022505D03*
X020802Y022505D03*
D83*
X029947Y022465D03*
X029937Y021735D03*
X032747Y024215D03*
X032747Y024225D03*
X032757Y024205D03*
X032897Y023835D03*
X032917Y023805D03*
X032927Y023795D03*
X032937Y023775D03*
X032947Y023765D03*
X032957Y023755D03*
X032297Y024905D03*
D84*
X030917Y022025D03*
X030907Y021825D03*
X033997Y021755D03*
X033997Y021745D03*
X033997Y021735D03*
D85*
X020797Y021745D03*
D86*
X025542Y021745D03*
D87*
X025547Y021755D03*
X020797Y021755D03*
X020797Y022495D03*
D88*
X025547Y021765D03*
X032387Y024975D03*
D89*
X032377Y024945D03*
X027747Y022495D03*
X027767Y021765D03*
D90*
X029962Y021765D03*
X029952Y022455D03*
X032762Y024185D03*
X032762Y024195D03*
X032882Y023865D03*
X032882Y023855D03*
X032892Y023845D03*
X032902Y023825D03*
X032912Y023815D03*
X032932Y023785D03*
D91*
X034032Y021975D03*
X034032Y021965D03*
X034032Y021955D03*
X034032Y021945D03*
X034032Y021935D03*
X034032Y021925D03*
X034002Y021765D03*
X030912Y022225D03*
X030902Y022395D03*
X026972Y021775D03*
X017682Y022105D03*
D92*
X020042Y021775D03*
X027402Y022485D03*
X034022Y021855D03*
X034022Y021845D03*
X034042Y022035D03*
X034042Y022045D03*
X034042Y022055D03*
X034042Y022065D03*
X034042Y022075D03*
X034042Y022085D03*
X034052Y022115D03*
X034052Y022125D03*
X034052Y022135D03*
X034052Y022145D03*
X034052Y022155D03*
X034052Y022165D03*
D93*
X034062Y022225D03*
X034062Y022245D03*
X034062Y022255D03*
X034062Y022265D03*
X034062Y022275D03*
X034062Y022285D03*
X034062Y022295D03*
X034052Y022305D03*
X034052Y022315D03*
X034052Y022325D03*
X034052Y022335D03*
X034052Y022345D03*
X034052Y022355D03*
X034052Y022365D03*
X034052Y022375D03*
X034052Y022385D03*
X034052Y022395D03*
X034052Y022405D03*
X034052Y022415D03*
X034052Y022425D03*
X034052Y022435D03*
X030882Y022405D03*
X030882Y021815D03*
X030872Y021805D03*
X030462Y024455D03*
X021532Y021775D03*
X020072Y022485D03*
D94*
X023747Y022485D03*
X024807Y021775D03*
X034047Y022445D03*
X034047Y022455D03*
X034047Y022465D03*
X034047Y022475D03*
D95*
X033892Y023195D03*
X033892Y023205D03*
X032732Y023405D03*
X030672Y024535D03*
X028442Y021775D03*
D96*
X030057Y021775D03*
X030087Y022045D03*
X032347Y024925D03*
D97*
X033907Y023145D03*
X033917Y023125D03*
X033927Y023105D03*
X033937Y023095D03*
X033967Y023025D03*
X030787Y021785D03*
D98*
X030842Y021795D03*
X030842Y022415D03*
X034032Y022665D03*
X034032Y022675D03*
X034032Y022685D03*
D99*
X029962Y022115D03*
X029962Y022105D03*
X029962Y022095D03*
X029962Y022085D03*
X029962Y022075D03*
X029962Y022065D03*
X029962Y022055D03*
D100*
X033102Y023555D03*
X018502Y022125D03*
D101*
X029967Y022125D03*
D102*
X029972Y022135D03*
X029972Y022145D03*
D103*
X018487Y022145D03*
D104*
X029977Y022155D03*
X029977Y022165D03*
X029977Y022175D03*
X029977Y022185D03*
X029977Y022195D03*
D105*
X018487Y022165D03*
D106*
X018482Y022175D03*
X029842Y022585D03*
X030052Y022445D03*
X033092Y023565D03*
D107*
X034057Y022235D03*
X034057Y022215D03*
X034057Y022205D03*
X034057Y022195D03*
X034057Y022185D03*
X034057Y022175D03*
X026977Y022485D03*
D108*
X030077Y022205D03*
X032667Y024485D03*
X032647Y024515D03*
X032637Y024525D03*
X032637Y024535D03*
X018477Y022185D03*
D109*
X018482Y022195D03*
X029862Y022575D03*
X032682Y024445D03*
X032672Y024465D03*
X032672Y024475D03*
X032622Y024545D03*
X033052Y023595D03*
X033062Y023585D03*
D110*
X033042Y023605D03*
X032682Y024425D03*
X018482Y022205D03*
D111*
X018487Y022215D03*
X029877Y022565D03*
X033027Y023625D03*
X033037Y023615D03*
D112*
X032747Y023395D03*
X033997Y022895D03*
X033997Y022885D03*
X033997Y022875D03*
X033997Y022865D03*
X034007Y022855D03*
X034007Y022845D03*
X034007Y022835D03*
X030537Y024495D03*
X017697Y022225D03*
D113*
X030127Y022435D03*
X032387Y024965D03*
D114*
X020992Y022485D03*
D115*
X022292Y022485D03*
X030472Y024465D03*
X034042Y022485D03*
D116*
X022992Y022485D03*
D117*
X028167Y022485D03*
D118*
X023012Y022495D03*
D119*
X023017Y022515D03*
X020797Y022515D03*
X032407Y024995D03*
D120*
X023017Y022525D03*
X020797Y022525D03*
D121*
X029917Y022525D03*
X032707Y024305D03*
X032987Y023715D03*
D122*
X020797Y022535D03*
D123*
X029897Y022545D03*
X029907Y022535D03*
X032997Y023695D03*
D124*
X023022Y022555D03*
D125*
X020792Y022565D03*
X032452Y025065D03*
D126*
X032437Y025045D03*
X027747Y022565D03*
D127*
X032447Y025095D03*
X020787Y022575D03*
D128*
X027747Y022575D03*
D129*
X023012Y022585D03*
X020782Y022585D03*
D130*
X027732Y022595D03*
D131*
X034037Y022625D03*
X034037Y022635D03*
X034037Y022645D03*
X034037Y022655D03*
D132*
X034022Y022715D03*
X034022Y022725D03*
X034022Y022735D03*
X034022Y022745D03*
X034022Y022755D03*
X034022Y022765D03*
X030622Y024515D03*
D133*
X034012Y022825D03*
X034012Y022815D03*
X034022Y022775D03*
D134*
X033992Y022905D03*
X033992Y022915D03*
X033992Y022925D03*
D135*
X033987Y022935D03*
X033987Y022945D03*
X030557Y024505D03*
D136*
X033977Y022975D03*
X033977Y022965D03*
D137*
X033972Y022985D03*
X033972Y022995D03*
X033972Y023005D03*
X033972Y023015D03*
X033922Y023115D03*
X032472Y025275D03*
D138*
X033902Y023165D03*
X033902Y023155D03*
X033912Y023135D03*
X033942Y023085D03*
X033952Y023075D03*
X033962Y023045D03*
X033962Y023035D03*
D139*
X033957Y023055D03*
X033957Y023065D03*
X033897Y023175D03*
X033897Y023185D03*
D140*
X033887Y023215D03*
X033887Y023235D03*
D141*
X033892Y023225D03*
X033882Y023245D03*
X032482Y025265D03*
D142*
X033857Y023285D03*
X033867Y023275D03*
X033877Y023265D03*
X033877Y023255D03*
D143*
X033852Y023295D03*
X033852Y023305D03*
X033842Y023315D03*
X033842Y023325D03*
X030772Y024555D03*
D144*
X033827Y023345D03*
X033837Y023335D03*
D145*
X033817Y023355D03*
X033807Y023365D03*
X033807Y023375D03*
X033807Y023385D03*
X032487Y025255D03*
X030697Y024545D03*
D146*
X032722Y023415D03*
X033792Y023415D03*
X033792Y023405D03*
X033802Y023395D03*
D147*
X032727Y023425D03*
X032497Y025245D03*
D148*
X033787Y023425D03*
D149*
X032722Y023435D03*
D150*
X033772Y023435D03*
X033772Y023445D03*
D151*
X032722Y023445D03*
D152*
X032722Y023455D03*
X032482Y025225D03*
D153*
X030807Y024565D03*
X033757Y023475D03*
X033767Y023455D03*
D154*
X032712Y023465D03*
D155*
X033742Y023495D03*
X033752Y023485D03*
X033762Y023465D03*
D156*
X032732Y023475D03*
D157*
X032722Y023485D03*
X032712Y023495D03*
X032712Y023505D03*
D158*
X033737Y023505D03*
D159*
X032707Y023515D03*
D160*
X033732Y023515D03*
D161*
X032702Y023525D03*
D162*
X033712Y023535D03*
X033722Y023525D03*
D163*
X032742Y023535D03*
D164*
X032737Y023545D03*
D165*
X033707Y023545D03*
D166*
X033022Y023635D03*
X032682Y024415D03*
D167*
X032682Y024385D03*
X032692Y024375D03*
X032702Y024335D03*
X032702Y024325D03*
X033002Y023685D03*
X033002Y023675D03*
X032322Y024915D03*
D168*
X032767Y024175D03*
X032767Y024165D03*
X032867Y023885D03*
X032877Y023875D03*
D169*
X032862Y023895D03*
X032862Y023905D03*
X032852Y023915D03*
X032852Y023925D03*
X032782Y024125D03*
X032782Y024135D03*
X032772Y024145D03*
X032772Y024155D03*
D170*
X032787Y024115D03*
X032787Y024105D03*
X032797Y024095D03*
X032797Y024085D03*
X032797Y024075D03*
X032807Y024055D03*
X032827Y023995D03*
X032847Y023935D03*
D171*
X032842Y023945D03*
X032842Y023955D03*
X032842Y023965D03*
X032832Y023975D03*
X032832Y023985D03*
X032822Y024005D03*
X032822Y024015D03*
X032822Y024025D03*
X032812Y024035D03*
X032812Y024045D03*
X032802Y024065D03*
X032282Y024895D03*
D172*
X032042Y024575D03*
D173*
X032037Y024585D03*
D174*
X032042Y024595D03*
D175*
X032037Y024605D03*
D176*
X032047Y024615D03*
D177*
X032047Y024625D03*
D178*
X032052Y024635D03*
D179*
X032052Y024645D03*
D180*
X032052Y024655D03*
D181*
X032062Y024665D03*
D182*
X032062Y024675D03*
D183*
X032067Y024685D03*
D184*
X032072Y024695D03*
D185*
X032077Y024705D03*
D186*
X032082Y024715D03*
D187*
X032082Y024725D03*
D188*
X032087Y024735D03*
D189*
X032087Y024745D03*
D190*
X032097Y024755D03*
D191*
X032122Y024765D03*
D192*
X032142Y024775D03*
D193*
X032172Y024785D03*
D194*
X032177Y024795D03*
D195*
X032187Y024805D03*
D196*
X032187Y024815D03*
D197*
X032187Y024825D03*
D198*
X032237Y024835D03*
D199*
X032242Y024845D03*
D200*
X032242Y024855D03*
D201*
X032252Y024865D03*
D202*
X032257Y024875D03*
D203*
X032267Y024885D03*
D204*
X032442Y025055D03*
D205*
X032457Y025115D03*
D206*
X032462Y025135D03*
D207*
X032462Y025145D03*
D208*
X032457Y025155D03*
D209*
X032457Y025165D03*
D210*
X032462Y025175D03*
D211*
X032477Y025185D03*
D212*
X032487Y025195D03*
D213*
X032487Y025215D03*
D214*
X032487Y025235D03*
D215*
X032818Y026355D02*
X032821Y026477D01*
X032830Y026598D01*
X032845Y026719D01*
X032866Y026839D01*
X032892Y026958D01*
X032925Y027075D01*
X032963Y027190D01*
X033007Y027304D01*
X033056Y027415D01*
X033111Y027524D01*
X033171Y027630D01*
X033236Y027733D01*
X033306Y027832D01*
X033381Y027928D01*
X033460Y028020D01*
X033544Y028109D01*
X033633Y028193D01*
X033725Y028272D01*
X033821Y028347D01*
X033920Y028417D01*
X034023Y028482D01*
X034129Y028542D01*
X034238Y028597D01*
X034349Y028646D01*
X034463Y028690D01*
X034578Y028728D01*
X034695Y028761D01*
X034814Y028787D01*
X034934Y028808D01*
X035055Y028823D01*
X035176Y028832D01*
X035298Y028835D01*
X035420Y028832D01*
X035541Y028823D01*
X035662Y028808D01*
X035782Y028787D01*
X035901Y028761D01*
X036018Y028728D01*
X036133Y028690D01*
X036247Y028646D01*
X036358Y028597D01*
X036467Y028542D01*
X036573Y028482D01*
X036676Y028417D01*
X036775Y028347D01*
X036871Y028272D01*
X036963Y028193D01*
X037052Y028109D01*
X037136Y028020D01*
X037215Y027928D01*
X037290Y027832D01*
X037360Y027733D01*
X037425Y027630D01*
X037485Y027524D01*
X037540Y027415D01*
X037589Y027304D01*
X037633Y027190D01*
X037671Y027075D01*
X037704Y026958D01*
X037730Y026839D01*
X037751Y026719D01*
X037766Y026598D01*
X037775Y026477D01*
X037778Y026355D01*
X037775Y026233D01*
X037766Y026112D01*
X037751Y025991D01*
X037730Y025871D01*
X037704Y025752D01*
X037671Y025635D01*
X037633Y025520D01*
X037589Y025406D01*
X037540Y025295D01*
X037485Y025186D01*
X037425Y025080D01*
X037360Y024977D01*
X037290Y024878D01*
X037215Y024782D01*
X037136Y024690D01*
X037052Y024601D01*
X036963Y024517D01*
X036871Y024438D01*
X036775Y024363D01*
X036676Y024293D01*
X036573Y024228D01*
X036467Y024168D01*
X036358Y024113D01*
X036247Y024064D01*
X036133Y024020D01*
X036018Y023982D01*
X035901Y023949D01*
X035782Y023923D01*
X035662Y023902D01*
X035541Y023887D01*
X035420Y023878D01*
X035298Y023875D01*
X035176Y023878D01*
X035055Y023887D01*
X034934Y023902D01*
X034814Y023923D01*
X034695Y023949D01*
X034578Y023982D01*
X034463Y024020D01*
X034349Y024064D01*
X034238Y024113D01*
X034129Y024168D01*
X034023Y024228D01*
X033920Y024293D01*
X033821Y024363D01*
X033725Y024438D01*
X033633Y024517D01*
X033544Y024601D01*
X033460Y024690D01*
X033381Y024782D01*
X033306Y024878D01*
X033236Y024977D01*
X033171Y025080D01*
X033111Y025186D01*
X033056Y025295D01*
X033007Y025406D01*
X032963Y025520D01*
X032925Y025635D01*
X032892Y025752D01*
X032866Y025871D01*
X032845Y025991D01*
X032830Y026112D01*
X032821Y026233D01*
X032818Y026355D01*
X034587Y013029D02*
X031044Y013029D01*
X031044Y008698D01*
X034587Y008698D01*
X034587Y013029D01*
X034587Y012635D02*
X031044Y012635D01*
X032403Y011218D02*
X032405Y011258D01*
X032411Y011299D01*
X032421Y011338D01*
X032434Y011376D01*
X032452Y011413D01*
X032473Y011447D01*
X032497Y011480D01*
X032524Y011510D01*
X032554Y011537D01*
X032587Y011561D01*
X032621Y011582D01*
X032658Y011600D01*
X032696Y011613D01*
X032735Y011623D01*
X032776Y011629D01*
X032816Y011631D01*
X032856Y011629D01*
X032897Y011623D01*
X032936Y011613D01*
X032974Y011600D01*
X033011Y011582D01*
X033045Y011561D01*
X033078Y011537D01*
X033108Y011510D01*
X033135Y011480D01*
X033159Y011447D01*
X033180Y011413D01*
X033198Y011376D01*
X033211Y011338D01*
X033221Y011299D01*
X033227Y011258D01*
X033229Y011218D01*
X033227Y011178D01*
X033221Y011137D01*
X033211Y011098D01*
X033198Y011060D01*
X033180Y011023D01*
X033159Y010989D01*
X033135Y010956D01*
X033108Y010926D01*
X033078Y010899D01*
X033045Y010875D01*
X033011Y010854D01*
X032974Y010836D01*
X032936Y010823D01*
X032897Y010813D01*
X032856Y010807D01*
X032816Y010805D01*
X032776Y010807D01*
X032735Y010813D01*
X032696Y010823D01*
X032658Y010836D01*
X032621Y010854D01*
X032587Y010875D01*
X032554Y010899D01*
X032524Y010926D01*
X032497Y010956D01*
X032473Y010989D01*
X032452Y011023D01*
X032434Y011060D01*
X032421Y011098D01*
X032411Y011137D01*
X032405Y011178D01*
X032403Y011218D01*
X031556Y011218D02*
X031558Y011289D01*
X031564Y011359D01*
X031574Y011429D01*
X031588Y011498D01*
X031605Y011567D01*
X031627Y011634D01*
X031652Y011700D01*
X031681Y011765D01*
X031713Y011827D01*
X031749Y011888D01*
X031788Y011947D01*
X031831Y012004D01*
X031876Y012058D01*
X031925Y012109D01*
X031976Y012158D01*
X032030Y012203D01*
X032087Y012246D01*
X032146Y012285D01*
X032207Y012321D01*
X032269Y012353D01*
X032334Y012382D01*
X032400Y012407D01*
X032467Y012429D01*
X032536Y012446D01*
X032605Y012460D01*
X032675Y012470D01*
X032745Y012476D01*
X032816Y012478D01*
X032887Y012476D01*
X032957Y012470D01*
X033027Y012460D01*
X033096Y012446D01*
X033165Y012429D01*
X033232Y012407D01*
X033298Y012382D01*
X033363Y012353D01*
X033425Y012321D01*
X033486Y012285D01*
X033545Y012246D01*
X033602Y012203D01*
X033656Y012158D01*
X033707Y012109D01*
X033756Y012058D01*
X033801Y012004D01*
X033844Y011947D01*
X033883Y011888D01*
X033919Y011827D01*
X033951Y011765D01*
X033980Y011700D01*
X034005Y011634D01*
X034027Y011567D01*
X034044Y011498D01*
X034058Y011429D01*
X034068Y011359D01*
X034074Y011289D01*
X034076Y011218D01*
X034074Y011147D01*
X034068Y011077D01*
X034058Y011007D01*
X034044Y010938D01*
X034027Y010869D01*
X034005Y010802D01*
X033980Y010736D01*
X033951Y010671D01*
X033919Y010609D01*
X033883Y010548D01*
X033844Y010489D01*
X033801Y010432D01*
X033756Y010378D01*
X033707Y010327D01*
X033656Y010278D01*
X033602Y010233D01*
X033545Y010190D01*
X033486Y010151D01*
X033425Y010115D01*
X033363Y010083D01*
X033298Y010054D01*
X033232Y010029D01*
X033165Y010007D01*
X033096Y009990D01*
X033027Y009976D01*
X032957Y009966D01*
X032887Y009960D01*
X032816Y009958D01*
X032745Y009960D01*
X032675Y009966D01*
X032605Y009976D01*
X032536Y009990D01*
X032467Y010007D01*
X032400Y010029D01*
X032334Y010054D01*
X032269Y010083D01*
X032207Y010115D01*
X032146Y010151D01*
X032087Y010190D01*
X032030Y010233D01*
X031976Y010278D01*
X031925Y010327D01*
X031876Y010378D01*
X031831Y010432D01*
X031788Y010489D01*
X031749Y010548D01*
X031713Y010609D01*
X031681Y010671D01*
X031652Y010736D01*
X031627Y010802D01*
X031605Y010869D01*
X031588Y010938D01*
X031574Y011007D01*
X031564Y011077D01*
X031558Y011147D01*
X031556Y011218D01*
X030650Y006729D02*
X027107Y006729D01*
X027107Y002399D01*
X030650Y002399D01*
X030650Y006729D01*
X030650Y006336D02*
X027107Y006336D01*
X028466Y004918D02*
X028468Y004958D01*
X028474Y004999D01*
X028484Y005038D01*
X028497Y005076D01*
X028515Y005113D01*
X028536Y005147D01*
X028560Y005180D01*
X028587Y005210D01*
X028617Y005237D01*
X028650Y005261D01*
X028684Y005282D01*
X028721Y005300D01*
X028759Y005313D01*
X028798Y005323D01*
X028839Y005329D01*
X028879Y005331D01*
X028919Y005329D01*
X028960Y005323D01*
X028999Y005313D01*
X029037Y005300D01*
X029074Y005282D01*
X029108Y005261D01*
X029141Y005237D01*
X029171Y005210D01*
X029198Y005180D01*
X029222Y005147D01*
X029243Y005113D01*
X029261Y005076D01*
X029274Y005038D01*
X029284Y004999D01*
X029290Y004958D01*
X029292Y004918D01*
X029290Y004878D01*
X029284Y004837D01*
X029274Y004798D01*
X029261Y004760D01*
X029243Y004723D01*
X029222Y004689D01*
X029198Y004656D01*
X029171Y004626D01*
X029141Y004599D01*
X029108Y004575D01*
X029074Y004554D01*
X029037Y004536D01*
X028999Y004523D01*
X028960Y004513D01*
X028919Y004507D01*
X028879Y004505D01*
X028839Y004507D01*
X028798Y004513D01*
X028759Y004523D01*
X028721Y004536D01*
X028684Y004554D01*
X028650Y004575D01*
X028617Y004599D01*
X028587Y004626D01*
X028560Y004656D01*
X028536Y004689D01*
X028515Y004723D01*
X028497Y004760D01*
X028484Y004798D01*
X028474Y004837D01*
X028468Y004878D01*
X028466Y004918D01*
X027619Y004918D02*
X027621Y004989D01*
X027627Y005059D01*
X027637Y005129D01*
X027651Y005198D01*
X027668Y005267D01*
X027690Y005334D01*
X027715Y005400D01*
X027744Y005465D01*
X027776Y005527D01*
X027812Y005588D01*
X027851Y005647D01*
X027894Y005704D01*
X027939Y005758D01*
X027988Y005809D01*
X028039Y005858D01*
X028093Y005903D01*
X028150Y005946D01*
X028209Y005985D01*
X028270Y006021D01*
X028332Y006053D01*
X028397Y006082D01*
X028463Y006107D01*
X028530Y006129D01*
X028599Y006146D01*
X028668Y006160D01*
X028738Y006170D01*
X028808Y006176D01*
X028879Y006178D01*
X028950Y006176D01*
X029020Y006170D01*
X029090Y006160D01*
X029159Y006146D01*
X029228Y006129D01*
X029295Y006107D01*
X029361Y006082D01*
X029426Y006053D01*
X029488Y006021D01*
X029549Y005985D01*
X029608Y005946D01*
X029665Y005903D01*
X029719Y005858D01*
X029770Y005809D01*
X029819Y005758D01*
X029864Y005704D01*
X029907Y005647D01*
X029946Y005588D01*
X029982Y005527D01*
X030014Y005465D01*
X030043Y005400D01*
X030068Y005334D01*
X030090Y005267D01*
X030107Y005198D01*
X030121Y005129D01*
X030131Y005059D01*
X030137Y004989D01*
X030139Y004918D01*
X030137Y004847D01*
X030131Y004777D01*
X030121Y004707D01*
X030107Y004638D01*
X030090Y004569D01*
X030068Y004502D01*
X030043Y004436D01*
X030014Y004371D01*
X029982Y004309D01*
X029946Y004248D01*
X029907Y004189D01*
X029864Y004132D01*
X029819Y004078D01*
X029770Y004027D01*
X029719Y003978D01*
X029665Y003933D01*
X029608Y003890D01*
X029549Y003851D01*
X029488Y003815D01*
X029426Y003783D01*
X029361Y003754D01*
X029295Y003729D01*
X029228Y003707D01*
X029159Y003690D01*
X029090Y003676D01*
X029020Y003666D01*
X028950Y003660D01*
X028879Y003658D01*
X028808Y003660D01*
X028738Y003666D01*
X028668Y003676D01*
X028599Y003690D01*
X028530Y003707D01*
X028463Y003729D01*
X028397Y003754D01*
X028332Y003783D01*
X028270Y003815D01*
X028209Y003851D01*
X028150Y003890D01*
X028093Y003933D01*
X028039Y003978D01*
X027988Y004027D01*
X027939Y004078D01*
X027894Y004132D01*
X027851Y004189D01*
X027812Y004248D01*
X027776Y004309D01*
X027744Y004371D01*
X027715Y004436D01*
X027690Y004502D01*
X027668Y004569D01*
X027651Y004638D01*
X027637Y004707D01*
X027627Y004777D01*
X027621Y004847D01*
X027619Y004918D01*
X026713Y008698D02*
X026713Y013029D01*
X023170Y013029D01*
X023170Y008698D01*
X026713Y008698D01*
X024528Y011218D02*
X024530Y011258D01*
X024536Y011299D01*
X024546Y011338D01*
X024559Y011376D01*
X024577Y011413D01*
X024598Y011447D01*
X024622Y011480D01*
X024649Y011510D01*
X024679Y011537D01*
X024712Y011561D01*
X024746Y011582D01*
X024783Y011600D01*
X024821Y011613D01*
X024860Y011623D01*
X024901Y011629D01*
X024941Y011631D01*
X024981Y011629D01*
X025022Y011623D01*
X025061Y011613D01*
X025099Y011600D01*
X025136Y011582D01*
X025170Y011561D01*
X025203Y011537D01*
X025233Y011510D01*
X025260Y011480D01*
X025284Y011447D01*
X025305Y011413D01*
X025323Y011376D01*
X025336Y011338D01*
X025346Y011299D01*
X025352Y011258D01*
X025354Y011218D01*
X025352Y011178D01*
X025346Y011137D01*
X025336Y011098D01*
X025323Y011060D01*
X025305Y011023D01*
X025284Y010989D01*
X025260Y010956D01*
X025233Y010926D01*
X025203Y010899D01*
X025170Y010875D01*
X025136Y010854D01*
X025099Y010836D01*
X025061Y010823D01*
X025022Y010813D01*
X024981Y010807D01*
X024941Y010805D01*
X024901Y010807D01*
X024860Y010813D01*
X024821Y010823D01*
X024783Y010836D01*
X024746Y010854D01*
X024712Y010875D01*
X024679Y010899D01*
X024649Y010926D01*
X024622Y010956D01*
X024598Y010989D01*
X024577Y011023D01*
X024559Y011060D01*
X024546Y011098D01*
X024536Y011137D01*
X024530Y011178D01*
X024528Y011218D01*
X023681Y011218D02*
X023683Y011289D01*
X023689Y011359D01*
X023699Y011429D01*
X023713Y011498D01*
X023730Y011567D01*
X023752Y011634D01*
X023777Y011700D01*
X023806Y011765D01*
X023838Y011827D01*
X023874Y011888D01*
X023913Y011947D01*
X023956Y012004D01*
X024001Y012058D01*
X024050Y012109D01*
X024101Y012158D01*
X024155Y012203D01*
X024212Y012246D01*
X024271Y012285D01*
X024332Y012321D01*
X024394Y012353D01*
X024459Y012382D01*
X024525Y012407D01*
X024592Y012429D01*
X024661Y012446D01*
X024730Y012460D01*
X024800Y012470D01*
X024870Y012476D01*
X024941Y012478D01*
X025012Y012476D01*
X025082Y012470D01*
X025152Y012460D01*
X025221Y012446D01*
X025290Y012429D01*
X025357Y012407D01*
X025423Y012382D01*
X025488Y012353D01*
X025550Y012321D01*
X025611Y012285D01*
X025670Y012246D01*
X025727Y012203D01*
X025781Y012158D01*
X025832Y012109D01*
X025881Y012058D01*
X025926Y012004D01*
X025969Y011947D01*
X026008Y011888D01*
X026044Y011827D01*
X026076Y011765D01*
X026105Y011700D01*
X026130Y011634D01*
X026152Y011567D01*
X026169Y011498D01*
X026183Y011429D01*
X026193Y011359D01*
X026199Y011289D01*
X026201Y011218D01*
X026199Y011147D01*
X026193Y011077D01*
X026183Y011007D01*
X026169Y010938D01*
X026152Y010869D01*
X026130Y010802D01*
X026105Y010736D01*
X026076Y010671D01*
X026044Y010609D01*
X026008Y010548D01*
X025969Y010489D01*
X025926Y010432D01*
X025881Y010378D01*
X025832Y010327D01*
X025781Y010278D01*
X025727Y010233D01*
X025670Y010190D01*
X025611Y010151D01*
X025550Y010115D01*
X025488Y010083D01*
X025423Y010054D01*
X025357Y010029D01*
X025290Y010007D01*
X025221Y009990D01*
X025152Y009976D01*
X025082Y009966D01*
X025012Y009960D01*
X024941Y009958D01*
X024870Y009960D01*
X024800Y009966D01*
X024730Y009976D01*
X024661Y009990D01*
X024592Y010007D01*
X024525Y010029D01*
X024459Y010054D01*
X024394Y010083D01*
X024332Y010115D01*
X024271Y010151D01*
X024212Y010190D01*
X024155Y010233D01*
X024101Y010278D01*
X024050Y010327D01*
X024001Y010378D01*
X023956Y010432D01*
X023913Y010489D01*
X023874Y010548D01*
X023838Y010609D01*
X023806Y010671D01*
X023777Y010736D01*
X023752Y010802D01*
X023730Y010869D01*
X023713Y010938D01*
X023699Y011007D01*
X023689Y011077D01*
X023683Y011147D01*
X023681Y011218D01*
X023170Y012635D02*
X026713Y012635D01*
X022776Y006729D02*
X019233Y006729D01*
X019233Y002399D01*
X022776Y002399D01*
X022776Y006729D01*
X022776Y006336D02*
X019233Y006336D01*
X020591Y004918D02*
X020593Y004958D01*
X020599Y004999D01*
X020609Y005038D01*
X020622Y005076D01*
X020640Y005113D01*
X020661Y005147D01*
X020685Y005180D01*
X020712Y005210D01*
X020742Y005237D01*
X020775Y005261D01*
X020809Y005282D01*
X020846Y005300D01*
X020884Y005313D01*
X020923Y005323D01*
X020964Y005329D01*
X021004Y005331D01*
X021044Y005329D01*
X021085Y005323D01*
X021124Y005313D01*
X021162Y005300D01*
X021199Y005282D01*
X021233Y005261D01*
X021266Y005237D01*
X021296Y005210D01*
X021323Y005180D01*
X021347Y005147D01*
X021368Y005113D01*
X021386Y005076D01*
X021399Y005038D01*
X021409Y004999D01*
X021415Y004958D01*
X021417Y004918D01*
X021415Y004878D01*
X021409Y004837D01*
X021399Y004798D01*
X021386Y004760D01*
X021368Y004723D01*
X021347Y004689D01*
X021323Y004656D01*
X021296Y004626D01*
X021266Y004599D01*
X021233Y004575D01*
X021199Y004554D01*
X021162Y004536D01*
X021124Y004523D01*
X021085Y004513D01*
X021044Y004507D01*
X021004Y004505D01*
X020964Y004507D01*
X020923Y004513D01*
X020884Y004523D01*
X020846Y004536D01*
X020809Y004554D01*
X020775Y004575D01*
X020742Y004599D01*
X020712Y004626D01*
X020685Y004656D01*
X020661Y004689D01*
X020640Y004723D01*
X020622Y004760D01*
X020609Y004798D01*
X020599Y004837D01*
X020593Y004878D01*
X020591Y004918D01*
X019744Y004918D02*
X019746Y004989D01*
X019752Y005059D01*
X019762Y005129D01*
X019776Y005198D01*
X019793Y005267D01*
X019815Y005334D01*
X019840Y005400D01*
X019869Y005465D01*
X019901Y005527D01*
X019937Y005588D01*
X019976Y005647D01*
X020019Y005704D01*
X020064Y005758D01*
X020113Y005809D01*
X020164Y005858D01*
X020218Y005903D01*
X020275Y005946D01*
X020334Y005985D01*
X020395Y006021D01*
X020457Y006053D01*
X020522Y006082D01*
X020588Y006107D01*
X020655Y006129D01*
X020724Y006146D01*
X020793Y006160D01*
X020863Y006170D01*
X020933Y006176D01*
X021004Y006178D01*
X021075Y006176D01*
X021145Y006170D01*
X021215Y006160D01*
X021284Y006146D01*
X021353Y006129D01*
X021420Y006107D01*
X021486Y006082D01*
X021551Y006053D01*
X021613Y006021D01*
X021674Y005985D01*
X021733Y005946D01*
X021790Y005903D01*
X021844Y005858D01*
X021895Y005809D01*
X021944Y005758D01*
X021989Y005704D01*
X022032Y005647D01*
X022071Y005588D01*
X022107Y005527D01*
X022139Y005465D01*
X022168Y005400D01*
X022193Y005334D01*
X022215Y005267D01*
X022232Y005198D01*
X022246Y005129D01*
X022256Y005059D01*
X022262Y004989D01*
X022264Y004918D01*
X022262Y004847D01*
X022256Y004777D01*
X022246Y004707D01*
X022232Y004638D01*
X022215Y004569D01*
X022193Y004502D01*
X022168Y004436D01*
X022139Y004371D01*
X022107Y004309D01*
X022071Y004248D01*
X022032Y004189D01*
X021989Y004132D01*
X021944Y004078D01*
X021895Y004027D01*
X021844Y003978D01*
X021790Y003933D01*
X021733Y003890D01*
X021674Y003851D01*
X021613Y003815D01*
X021551Y003783D01*
X021486Y003754D01*
X021420Y003729D01*
X021353Y003707D01*
X021284Y003690D01*
X021215Y003676D01*
X021145Y003666D01*
X021075Y003660D01*
X021004Y003658D01*
X020933Y003660D01*
X020863Y003666D01*
X020793Y003676D01*
X020724Y003690D01*
X020655Y003707D01*
X020588Y003729D01*
X020522Y003754D01*
X020457Y003783D01*
X020395Y003815D01*
X020334Y003851D01*
X020275Y003890D01*
X020218Y003933D01*
X020164Y003978D01*
X020113Y004027D01*
X020064Y004078D01*
X020019Y004132D01*
X019976Y004189D01*
X019937Y004248D01*
X019901Y004309D01*
X019869Y004371D01*
X019840Y004436D01*
X019815Y004502D01*
X019793Y004569D01*
X019776Y004638D01*
X019762Y004707D01*
X019752Y004777D01*
X019746Y004847D01*
X019744Y004918D01*
X018839Y008698D02*
X018839Y013029D01*
X015296Y013029D01*
X015296Y008698D01*
X018839Y008698D01*
X016654Y011218D02*
X016656Y011258D01*
X016662Y011299D01*
X016672Y011338D01*
X016685Y011376D01*
X016703Y011413D01*
X016724Y011447D01*
X016748Y011480D01*
X016775Y011510D01*
X016805Y011537D01*
X016838Y011561D01*
X016872Y011582D01*
X016909Y011600D01*
X016947Y011613D01*
X016986Y011623D01*
X017027Y011629D01*
X017067Y011631D01*
X017107Y011629D01*
X017148Y011623D01*
X017187Y011613D01*
X017225Y011600D01*
X017262Y011582D01*
X017296Y011561D01*
X017329Y011537D01*
X017359Y011510D01*
X017386Y011480D01*
X017410Y011447D01*
X017431Y011413D01*
X017449Y011376D01*
X017462Y011338D01*
X017472Y011299D01*
X017478Y011258D01*
X017480Y011218D01*
X017478Y011178D01*
X017472Y011137D01*
X017462Y011098D01*
X017449Y011060D01*
X017431Y011023D01*
X017410Y010989D01*
X017386Y010956D01*
X017359Y010926D01*
X017329Y010899D01*
X017296Y010875D01*
X017262Y010854D01*
X017225Y010836D01*
X017187Y010823D01*
X017148Y010813D01*
X017107Y010807D01*
X017067Y010805D01*
X017027Y010807D01*
X016986Y010813D01*
X016947Y010823D01*
X016909Y010836D01*
X016872Y010854D01*
X016838Y010875D01*
X016805Y010899D01*
X016775Y010926D01*
X016748Y010956D01*
X016724Y010989D01*
X016703Y011023D01*
X016685Y011060D01*
X016672Y011098D01*
X016662Y011137D01*
X016656Y011178D01*
X016654Y011218D01*
X015807Y011218D02*
X015809Y011289D01*
X015815Y011359D01*
X015825Y011429D01*
X015839Y011498D01*
X015856Y011567D01*
X015878Y011634D01*
X015903Y011700D01*
X015932Y011765D01*
X015964Y011827D01*
X016000Y011888D01*
X016039Y011947D01*
X016082Y012004D01*
X016127Y012058D01*
X016176Y012109D01*
X016227Y012158D01*
X016281Y012203D01*
X016338Y012246D01*
X016397Y012285D01*
X016458Y012321D01*
X016520Y012353D01*
X016585Y012382D01*
X016651Y012407D01*
X016718Y012429D01*
X016787Y012446D01*
X016856Y012460D01*
X016926Y012470D01*
X016996Y012476D01*
X017067Y012478D01*
X017138Y012476D01*
X017208Y012470D01*
X017278Y012460D01*
X017347Y012446D01*
X017416Y012429D01*
X017483Y012407D01*
X017549Y012382D01*
X017614Y012353D01*
X017676Y012321D01*
X017737Y012285D01*
X017796Y012246D01*
X017853Y012203D01*
X017907Y012158D01*
X017958Y012109D01*
X018007Y012058D01*
X018052Y012004D01*
X018095Y011947D01*
X018134Y011888D01*
X018170Y011827D01*
X018202Y011765D01*
X018231Y011700D01*
X018256Y011634D01*
X018278Y011567D01*
X018295Y011498D01*
X018309Y011429D01*
X018319Y011359D01*
X018325Y011289D01*
X018327Y011218D01*
X018325Y011147D01*
X018319Y011077D01*
X018309Y011007D01*
X018295Y010938D01*
X018278Y010869D01*
X018256Y010802D01*
X018231Y010736D01*
X018202Y010671D01*
X018170Y010609D01*
X018134Y010548D01*
X018095Y010489D01*
X018052Y010432D01*
X018007Y010378D01*
X017958Y010327D01*
X017907Y010278D01*
X017853Y010233D01*
X017796Y010190D01*
X017737Y010151D01*
X017676Y010115D01*
X017614Y010083D01*
X017549Y010054D01*
X017483Y010029D01*
X017416Y010007D01*
X017347Y009990D01*
X017278Y009976D01*
X017208Y009966D01*
X017138Y009960D01*
X017067Y009958D01*
X016996Y009960D01*
X016926Y009966D01*
X016856Y009976D01*
X016787Y009990D01*
X016718Y010007D01*
X016651Y010029D01*
X016585Y010054D01*
X016520Y010083D01*
X016458Y010115D01*
X016397Y010151D01*
X016338Y010190D01*
X016281Y010233D01*
X016227Y010278D01*
X016176Y010327D01*
X016127Y010378D01*
X016082Y010432D01*
X016039Y010489D01*
X016000Y010548D01*
X015964Y010609D01*
X015932Y010671D01*
X015903Y010736D01*
X015878Y010802D01*
X015856Y010869D01*
X015839Y010938D01*
X015825Y011007D01*
X015815Y011077D01*
X015809Y011147D01*
X015807Y011218D01*
X015296Y012635D02*
X018839Y012635D01*
X032394Y004111D02*
X032399Y004307D01*
X032413Y004502D01*
X032437Y004696D01*
X032471Y004889D01*
X032513Y005080D01*
X032566Y005268D01*
X032627Y005454D01*
X032697Y005636D01*
X032777Y005815D01*
X032865Y005990D01*
X032961Y006160D01*
X033066Y006326D01*
X033178Y006485D01*
X033299Y006640D01*
X033427Y006788D01*
X033561Y006930D01*
X033703Y007064D01*
X033851Y007192D01*
X034006Y007313D01*
X034165Y007425D01*
X034331Y007530D01*
X034501Y007626D01*
X034676Y007714D01*
X034855Y007794D01*
X035037Y007864D01*
X035223Y007925D01*
X035411Y007978D01*
X035602Y008020D01*
X035795Y008054D01*
X035989Y008078D01*
X036184Y008092D01*
X036380Y008097D01*
X036576Y008092D01*
X036771Y008078D01*
X036965Y008054D01*
X037158Y008020D01*
X037349Y007978D01*
X037537Y007925D01*
X037723Y007864D01*
X037905Y007794D01*
X038084Y007714D01*
X038259Y007626D01*
X038429Y007530D01*
X038595Y007425D01*
X038754Y007313D01*
X038909Y007192D01*
X039057Y007064D01*
X039199Y006930D01*
X039333Y006788D01*
X039461Y006640D01*
X039582Y006485D01*
X039694Y006326D01*
X039799Y006160D01*
X039895Y005990D01*
X039983Y005815D01*
X040063Y005636D01*
X040133Y005454D01*
X040194Y005268D01*
X040247Y005080D01*
X040289Y004889D01*
X040323Y004696D01*
X040347Y004502D01*
X040361Y004307D01*
X040366Y004111D01*
X040361Y003915D01*
X040347Y003720D01*
X040323Y003526D01*
X040289Y003333D01*
X040247Y003142D01*
X040194Y002954D01*
X040133Y002768D01*
X040063Y002586D01*
X039983Y002407D01*
X039895Y002232D01*
X039799Y002062D01*
X039694Y001896D01*
X039582Y001737D01*
X039461Y001582D01*
X039333Y001434D01*
X039199Y001292D01*
X039057Y001158D01*
X038909Y001030D01*
X038754Y000909D01*
X038595Y000797D01*
X038429Y000692D01*
X038259Y000596D01*
X038084Y000508D01*
X037905Y000428D01*
X037723Y000358D01*
X037537Y000297D01*
X037349Y000244D01*
X037158Y000202D01*
X036965Y000168D01*
X036771Y000144D01*
X036576Y000130D01*
X036380Y000125D01*
X036184Y000130D01*
X035989Y000144D01*
X035795Y000168D01*
X035602Y000202D01*
X035411Y000244D01*
X035223Y000297D01*
X035037Y000358D01*
X034855Y000428D01*
X034676Y000508D01*
X034501Y000596D01*
X034331Y000692D01*
X034165Y000797D01*
X034006Y000909D01*
X033851Y001030D01*
X033703Y001158D01*
X033561Y001292D01*
X033427Y001434D01*
X033299Y001582D01*
X033178Y001737D01*
X033066Y001896D01*
X032961Y002062D01*
X032865Y002232D01*
X032777Y002407D01*
X032697Y002586D01*
X032627Y002768D01*
X032566Y002954D01*
X032513Y003142D01*
X032471Y003333D01*
X032437Y003526D01*
X032413Y003720D01*
X032399Y003915D01*
X032394Y004111D01*
D216*
X030399Y006823D02*
X030254Y006823D01*
X030205Y006871D01*
X030205Y007065D01*
X030254Y007113D01*
X030399Y007113D01*
X030399Y006823D01*
X030104Y006871D02*
X030056Y006823D01*
X029959Y006823D01*
X029911Y006871D01*
X029810Y006968D02*
X029616Y006968D01*
X029665Y006823D02*
X029665Y007113D01*
X029810Y006968D01*
X029911Y007065D02*
X029959Y007113D01*
X030056Y007113D01*
X030104Y007065D01*
X030104Y006871D01*
X033602Y013122D02*
X033698Y013122D01*
X033747Y013171D01*
X033848Y013171D02*
X033896Y013122D01*
X033993Y013122D01*
X034041Y013171D01*
X034041Y013364D01*
X033993Y013413D01*
X033896Y013413D01*
X033848Y013364D01*
X033747Y013364D02*
X033698Y013413D01*
X033602Y013413D01*
X033553Y013364D01*
X033553Y013316D01*
X033602Y013267D01*
X033553Y013219D01*
X033553Y013171D01*
X033602Y013122D01*
X033602Y013267D02*
X033650Y013267D01*
X034142Y013171D02*
X034142Y013364D01*
X034191Y013413D01*
X034336Y013413D01*
X034336Y013122D01*
X034191Y013122D01*
X034142Y013171D01*
X026462Y013122D02*
X026317Y013122D01*
X026268Y013171D01*
X026268Y013364D01*
X026317Y013413D01*
X026462Y013413D01*
X026462Y013122D01*
X026167Y013171D02*
X026167Y013364D01*
X026119Y013413D01*
X026022Y013413D01*
X025974Y013364D01*
X025873Y013364D02*
X025824Y013413D01*
X025728Y013413D01*
X025679Y013364D01*
X025679Y013316D01*
X025873Y013122D01*
X025679Y013122D01*
X025974Y013171D02*
X026022Y013122D01*
X026119Y013122D01*
X026167Y013171D01*
X022525Y007113D02*
X022380Y007113D01*
X022331Y007065D01*
X022331Y006871D01*
X022380Y006823D01*
X022525Y006823D01*
X022525Y007113D01*
X022230Y007065D02*
X022230Y006871D01*
X022182Y006823D01*
X022085Y006823D01*
X022037Y006871D01*
X021936Y006871D02*
X021887Y006823D01*
X021790Y006823D01*
X021742Y006871D01*
X021742Y006968D01*
X021790Y007017D01*
X021839Y007017D01*
X021936Y006968D01*
X021936Y007113D01*
X021742Y007113D01*
X022037Y007065D02*
X022085Y007113D01*
X022182Y007113D01*
X022230Y007065D01*
X018588Y013122D02*
X018443Y013122D01*
X018394Y013171D01*
X018394Y013364D01*
X018443Y013413D01*
X018588Y013413D01*
X018588Y013122D01*
X018293Y013171D02*
X018293Y013364D01*
X018245Y013413D01*
X018148Y013413D01*
X018100Y013364D01*
X017999Y013316D02*
X017902Y013413D01*
X017902Y013122D01*
X017999Y013122D02*
X017805Y013122D01*
X018100Y013171D02*
X018148Y013122D01*
X018245Y013122D01*
X018293Y013171D01*
X025165Y026099D02*
X025165Y026389D01*
X025359Y026389D02*
X025359Y026099D01*
X025262Y026195D01*
X025165Y026099D01*
X025460Y026147D02*
X025460Y026341D01*
X025508Y026389D01*
X025605Y026389D01*
X025653Y026341D01*
X025653Y026147D01*
X025605Y026099D01*
X025508Y026099D01*
X025460Y026147D01*
X025755Y026244D02*
X025803Y026195D01*
X025948Y026195D01*
X025948Y026099D02*
X025948Y026389D01*
X025803Y026389D01*
X025755Y026341D01*
X025755Y026244D01*
X034384Y025050D02*
X034577Y025050D01*
X034481Y025050D02*
X034481Y025341D01*
X034577Y025244D01*
X034679Y025292D02*
X034679Y025341D01*
X034872Y025341D01*
X034973Y025341D02*
X034973Y025292D01*
X035167Y025099D01*
X035167Y025050D01*
X034973Y025050D01*
X034872Y025050D02*
X034679Y025050D01*
X034872Y025050D02*
X034872Y025099D01*
X034679Y025292D01*
X034973Y025341D02*
X035167Y025341D01*
X035268Y025341D02*
X035268Y025099D01*
X035316Y025050D01*
X035413Y025050D01*
X035461Y025099D01*
X035461Y025341D01*
X035563Y025292D02*
X035563Y025244D01*
X035611Y025195D01*
X035756Y025195D01*
X035756Y025050D02*
X035611Y025050D01*
X035563Y025099D01*
X035563Y025147D01*
X035611Y025195D01*
X035563Y025292D02*
X035611Y025341D01*
X035756Y025341D01*
X035756Y025050D01*
X036650Y032002D02*
X036844Y032002D01*
X036747Y032002D02*
X036747Y032292D01*
X036844Y032196D01*
X036945Y032244D02*
X036993Y032292D01*
X037090Y032292D01*
X037138Y032244D01*
X037138Y032196D01*
X037090Y032147D01*
X036993Y032147D01*
X036945Y032099D01*
X036945Y032051D01*
X036993Y032002D01*
X037090Y032002D01*
X037138Y032051D01*
X037238Y032002D02*
X037335Y032002D01*
X037286Y032002D02*
X037286Y032292D01*
X037238Y032292D02*
X037335Y032292D01*
X037436Y032244D02*
X037484Y032292D01*
X037629Y032292D01*
X037629Y032002D01*
X037484Y032002D01*
X037436Y032051D01*
X037436Y032244D01*
D217*
X026163Y024988D02*
X026163Y024184D01*
X025813Y023384D02*
X024113Y023384D01*
X023763Y024184D02*
X023763Y024977D01*
X024113Y025784D02*
X025813Y025784D01*
X024263Y024584D02*
X024265Y024636D01*
X024271Y024688D01*
X024281Y024740D01*
X024294Y024790D01*
X024311Y024840D01*
X024332Y024888D01*
X024357Y024934D01*
X024385Y024978D01*
X024416Y025020D01*
X024450Y025060D01*
X024487Y025097D01*
X024527Y025131D01*
X024569Y025162D01*
X024613Y025190D01*
X024659Y025215D01*
X024707Y025236D01*
X024757Y025253D01*
X024807Y025266D01*
X024859Y025276D01*
X024911Y025282D01*
X024963Y025284D01*
X025015Y025282D01*
X025067Y025276D01*
X025119Y025266D01*
X025169Y025253D01*
X025219Y025236D01*
X025267Y025215D01*
X025313Y025190D01*
X025357Y025162D01*
X025399Y025131D01*
X025439Y025097D01*
X025476Y025060D01*
X025510Y025020D01*
X025541Y024978D01*
X025569Y024934D01*
X025594Y024888D01*
X025615Y024840D01*
X025632Y024790D01*
X025645Y024740D01*
X025655Y024688D01*
X025661Y024636D01*
X025663Y024584D01*
X025661Y024532D01*
X025655Y024480D01*
X025645Y024428D01*
X025632Y024378D01*
X025615Y024328D01*
X025594Y024280D01*
X025569Y024234D01*
X025541Y024190D01*
X025510Y024148D01*
X025476Y024108D01*
X025439Y024071D01*
X025399Y024037D01*
X025357Y024006D01*
X025313Y023978D01*
X025267Y023953D01*
X025219Y023932D01*
X025169Y023915D01*
X025119Y023902D01*
X025067Y023892D01*
X025015Y023886D01*
X024963Y023884D01*
X024911Y023886D01*
X024859Y023892D01*
X024807Y023902D01*
X024757Y023915D01*
X024707Y023932D01*
X024659Y023953D01*
X024613Y023978D01*
X024569Y024006D01*
X024527Y024037D01*
X024487Y024071D01*
X024450Y024108D01*
X024416Y024148D01*
X024385Y024190D01*
X024357Y024234D01*
X024332Y024280D01*
X024311Y024328D01*
X024294Y024378D01*
X024281Y024428D01*
X024271Y024480D01*
X024265Y024532D01*
X024263Y024584D01*
M02*
