%
M48
M72
T01C0.0236
T02C0.0315
T03C0.0320
T04C0.0354
T05C0.0394
T06C0.0400
T07C0.0472
T08C0.0551
T09C0.0591
T10C0.0709
T11C0.0906
T12C0.1260
T13C0.2165
%
T01
X12365Y13560
X13940Y12773
X14727Y14741
X10790Y14347
X7247Y14347
X8428Y18678
X13030Y22548
X12758Y23796
X15908Y25371
X16302Y25765
X15908Y26552
X16695Y28127
X18270Y26946
X20239Y27733
X21026Y28127
X22995Y28521
X21814Y25765
X21026Y26158
X21026Y24584
X20239Y23403
X17877Y23009
X17089Y23403
X17483Y23796
X18172Y20056
X17089Y19466
X20947Y20647
X23782Y22221
X25357Y25765
X27325Y25371
X30081Y21828
X31656Y21040
X33231Y20647
X33231Y22221
X35199Y22615
X37168Y22221
X36380Y20253
X38546Y19466
X42581Y17300
X42581Y16867
X42581Y16414
X42581Y15922
X41695Y13560
X40908Y13560
X40908Y12773
X40121Y12773
X40121Y13560
X40121Y11985
X40121Y11198
X40908Y11198
X40908Y11985
X41695Y11985
X41695Y11198
X41695Y12773
X37955Y12773
X32443Y14347
X28506Y19466
X31656Y26552
X32443Y27340
X36774Y27733
X37955Y32851
X38940Y34623
X37758Y36296
X35987Y35607
X35003Y36296
X34806Y34820
X35199Y33639
X33231Y34426
X41105Y36788
X41105Y37182
X41105Y37576
X21026Y16710
X14727Y28127
X14215Y28403
X16282Y30489
X17089Y34032
X17483Y36788
X12758Y33639
X12758Y32458
X11380Y34859
X10790Y37182
X11262Y37379
X11971Y37281
X11971Y37773
X11971Y38265
X11971Y38757
X10180Y37399
X10396Y30489
X9510Y29111
X9018Y28521
X7247Y28914
X4884Y28127
X35987Y5686
X37562Y4899
X37955Y6867
T02
X36282Y26355
X34314Y26355
X4841Y35570
X3660Y37460
T03
X18997Y11296
X17619Y9092
X16516Y10194
X20453Y3895
X21556Y2792
X22934Y4997
X25493Y9092
X24390Y10194
X26871Y11296
X32264Y10194
X33367Y9092
X34745Y11296
X30808Y4997
X29430Y2792
X28327Y3895
T04
X28506Y18140
X29294Y18140
X30278Y18140
X27522Y18140
X22404Y18140
X21420Y18140
X20632Y18140
X19648Y18140
X14530Y18140
X13546Y18140
X12758Y18140
X11774Y18140
X35396Y18140
X36380Y18140
X37168Y18140
X38152Y18140
T05
X37601Y31080
X36601Y31080
X35601Y31080
X34601Y31080
X33601Y31080
X32601Y31080
X31601Y31080
X30601Y31080
X29601Y31080
X28601Y31080
X27601Y31080
X26601Y31080
X25601Y31080
X24601Y31080
X23601Y31080
X22636Y31080
X6022Y37460
X32394Y4111
X40367Y4111
T06
X26243Y23694
X26243Y25474
X23683Y25474
X23683Y23694
X14940Y30095
X13940Y30095
X12940Y30095
X5203Y25221
X5203Y24221
X5203Y23221
X5203Y22221
X5203Y21221
X5203Y20221
X5203Y19221
X3310Y17635
X3310Y16635
X3310Y15635
X3310Y14635
X3310Y13635
X3310Y12635
T07
X2483Y28127
X6499Y28127
T08
X2247Y3521
X2247Y6473
X8152Y6473
X10121Y6473
X12089Y6473
X12089Y3521
X10121Y3521
X8152Y3521
T09
X18900Y37182
X27995Y37182
T10
X8097Y31706
X5932Y31706
X15908Y7851
X15908Y5686
T11
X15739Y17073
X18440Y17073
X23613Y17073
X26314Y17073
X31487Y17073
X34188Y17073
X39361Y17073
X10566Y17073
T12
X11184Y9229
X11184Y28521
X38349Y28521
X38349Y9229
T13
X23388Y37182
M30
