G75*
G70*
%OFA0B0*%
%FSLAX24Y24*%
%IPPOS*%
%LPD*%
%AMOC8*
5,1,8,0,0,1.08239X$1,22.5*
%
%ADD10C,0.0000*%
%ADD11C,0.0030*%
%ADD12C,0.0050*%
%ADD13C,0.0060*%
%ADD14C,0.0079*%
%ADD15C,0.0157*%
%ADD16C,0.0040*%
%ADD17C,0.0080*%
%ADD18R,0.0266X0.0965*%
%ADD19C,0.0300*%
%ADD20R,0.0200X0.0300*%
%ADD21R,0.0400X0.0300*%
%ADD22C,0.0100*%
%ADD23R,0.0827X0.0118*%
%ADD24R,0.0079X0.0079*%
%ADD25R,0.0380X0.0660*%
%ADD26R,0.2441X0.0492*%
%ADD27C,0.0039*%
%ADD28R,0.0118X0.0827*%
D10*
X000554Y000174D02*
X042680Y000174D01*
X042680Y000175D02*
X042734Y000177D01*
X042787Y000182D01*
X042840Y000191D01*
X042892Y000204D01*
X042944Y000220D01*
X042994Y000240D01*
X043042Y000263D01*
X043089Y000290D01*
X043134Y000319D01*
X043177Y000352D01*
X043217Y000387D01*
X043255Y000425D01*
X043290Y000465D01*
X043323Y000508D01*
X043352Y000553D01*
X043379Y000600D01*
X043402Y000648D01*
X043422Y000698D01*
X043438Y000750D01*
X043451Y000802D01*
X043460Y000855D01*
X043465Y000908D01*
X043467Y000962D01*
X043467Y038757D01*
X043465Y038811D01*
X043460Y038864D01*
X043451Y038917D01*
X043438Y038969D01*
X043422Y039021D01*
X043402Y039071D01*
X043379Y039119D01*
X043352Y039166D01*
X043323Y039211D01*
X043290Y039254D01*
X043255Y039294D01*
X043217Y039332D01*
X043177Y039367D01*
X043134Y039400D01*
X043089Y039429D01*
X043042Y039456D01*
X042994Y039479D01*
X042944Y039499D01*
X042892Y039515D01*
X042840Y039528D01*
X042787Y039537D01*
X042734Y039542D01*
X042680Y039544D01*
X000947Y039544D01*
X000893Y039542D01*
X000840Y039537D01*
X000787Y039528D01*
X000735Y039515D01*
X000683Y039499D01*
X000633Y039479D01*
X000585Y039456D01*
X000538Y039429D01*
X000493Y039400D01*
X000450Y039367D01*
X000410Y039332D01*
X000372Y039294D01*
X000337Y039254D01*
X000304Y039211D01*
X000275Y039166D01*
X000248Y039119D01*
X000225Y039071D01*
X000205Y039021D01*
X000189Y038969D01*
X000176Y038917D01*
X000167Y038864D01*
X000162Y038811D01*
X000160Y038757D01*
X000160Y000962D01*
X000161Y000962D02*
X000147Y000915D01*
X000137Y000867D01*
X000131Y000819D01*
X000129Y000770D01*
X000131Y000721D01*
X000136Y000672D01*
X000145Y000624D01*
X000158Y000577D01*
X000175Y000531D01*
X000195Y000487D01*
X000218Y000444D01*
X000245Y000403D01*
X000275Y000365D01*
X000308Y000329D01*
X000343Y000295D01*
X000382Y000265D01*
X000422Y000237D01*
X000464Y000213D01*
X000509Y000192D01*
X000554Y000175D01*
X010554Y009229D02*
X010556Y009279D01*
X010562Y009329D01*
X010572Y009378D01*
X010586Y009426D01*
X010603Y009473D01*
X010624Y009518D01*
X010649Y009562D01*
X010677Y009603D01*
X010709Y009642D01*
X010743Y009679D01*
X010780Y009713D01*
X010820Y009743D01*
X010862Y009770D01*
X010906Y009794D01*
X010952Y009815D01*
X010999Y009831D01*
X011047Y009844D01*
X011097Y009853D01*
X011146Y009858D01*
X011197Y009859D01*
X011247Y009856D01*
X011296Y009849D01*
X011345Y009838D01*
X011393Y009823D01*
X011439Y009805D01*
X011484Y009783D01*
X011527Y009757D01*
X011568Y009728D01*
X011607Y009696D01*
X011643Y009661D01*
X011675Y009623D01*
X011705Y009583D01*
X011732Y009540D01*
X011755Y009496D01*
X011774Y009450D01*
X011790Y009402D01*
X011802Y009353D01*
X011810Y009304D01*
X011814Y009254D01*
X011814Y009204D01*
X011810Y009154D01*
X011802Y009105D01*
X011790Y009056D01*
X011774Y009008D01*
X011755Y008962D01*
X011732Y008918D01*
X011705Y008875D01*
X011675Y008835D01*
X011643Y008797D01*
X011607Y008762D01*
X011568Y008730D01*
X011527Y008701D01*
X011484Y008675D01*
X011439Y008653D01*
X011393Y008635D01*
X011345Y008620D01*
X011296Y008609D01*
X011247Y008602D01*
X011197Y008599D01*
X011146Y008600D01*
X011097Y008605D01*
X011047Y008614D01*
X010999Y008627D01*
X010952Y008643D01*
X010906Y008664D01*
X010862Y008688D01*
X010820Y008715D01*
X010780Y008745D01*
X010743Y008779D01*
X010709Y008816D01*
X010677Y008855D01*
X010649Y008896D01*
X010624Y008940D01*
X010603Y008985D01*
X010586Y009032D01*
X010572Y009080D01*
X010562Y009129D01*
X010556Y009179D01*
X010554Y009229D01*
X010554Y028521D02*
X010556Y028571D01*
X010562Y028621D01*
X010572Y028670D01*
X010586Y028718D01*
X010603Y028765D01*
X010624Y028810D01*
X010649Y028854D01*
X010677Y028895D01*
X010709Y028934D01*
X010743Y028971D01*
X010780Y029005D01*
X010820Y029035D01*
X010862Y029062D01*
X010906Y029086D01*
X010952Y029107D01*
X010999Y029123D01*
X011047Y029136D01*
X011097Y029145D01*
X011146Y029150D01*
X011197Y029151D01*
X011247Y029148D01*
X011296Y029141D01*
X011345Y029130D01*
X011393Y029115D01*
X011439Y029097D01*
X011484Y029075D01*
X011527Y029049D01*
X011568Y029020D01*
X011607Y028988D01*
X011643Y028953D01*
X011675Y028915D01*
X011705Y028875D01*
X011732Y028832D01*
X011755Y028788D01*
X011774Y028742D01*
X011790Y028694D01*
X011802Y028645D01*
X011810Y028596D01*
X011814Y028546D01*
X011814Y028496D01*
X011810Y028446D01*
X011802Y028397D01*
X011790Y028348D01*
X011774Y028300D01*
X011755Y028254D01*
X011732Y028210D01*
X011705Y028167D01*
X011675Y028127D01*
X011643Y028089D01*
X011607Y028054D01*
X011568Y028022D01*
X011527Y027993D01*
X011484Y027967D01*
X011439Y027945D01*
X011393Y027927D01*
X011345Y027912D01*
X011296Y027901D01*
X011247Y027894D01*
X011197Y027891D01*
X011146Y027892D01*
X011097Y027897D01*
X011047Y027906D01*
X010999Y027919D01*
X010952Y027935D01*
X010906Y027956D01*
X010862Y027980D01*
X010820Y028007D01*
X010780Y028037D01*
X010743Y028071D01*
X010709Y028108D01*
X010677Y028147D01*
X010649Y028188D01*
X010624Y028232D01*
X010603Y028277D01*
X010586Y028324D01*
X010572Y028372D01*
X010562Y028421D01*
X010556Y028471D01*
X010554Y028521D01*
X022305Y037182D02*
X022307Y037247D01*
X022313Y037313D01*
X022323Y037377D01*
X022336Y037441D01*
X022354Y037504D01*
X022375Y037566D01*
X022400Y037626D01*
X022429Y037685D01*
X022461Y037742D01*
X022497Y037797D01*
X022535Y037850D01*
X022577Y037900D01*
X022622Y037948D01*
X022670Y037993D01*
X022720Y038035D01*
X022773Y038073D01*
X022828Y038109D01*
X022885Y038141D01*
X022944Y038170D01*
X023004Y038195D01*
X023066Y038216D01*
X023129Y038234D01*
X023193Y038247D01*
X023257Y038257D01*
X023323Y038263D01*
X023388Y038265D01*
X023453Y038263D01*
X023519Y038257D01*
X023583Y038247D01*
X023647Y038234D01*
X023710Y038216D01*
X023772Y038195D01*
X023832Y038170D01*
X023891Y038141D01*
X023948Y038109D01*
X024003Y038073D01*
X024056Y038035D01*
X024106Y037993D01*
X024154Y037948D01*
X024199Y037900D01*
X024241Y037850D01*
X024279Y037797D01*
X024315Y037742D01*
X024347Y037685D01*
X024376Y037626D01*
X024401Y037566D01*
X024422Y037504D01*
X024440Y037441D01*
X024453Y037377D01*
X024463Y037313D01*
X024469Y037247D01*
X024471Y037182D01*
X024469Y037117D01*
X024463Y037051D01*
X024453Y036987D01*
X024440Y036923D01*
X024422Y036860D01*
X024401Y036798D01*
X024376Y036738D01*
X024347Y036679D01*
X024315Y036622D01*
X024279Y036567D01*
X024241Y036514D01*
X024199Y036464D01*
X024154Y036416D01*
X024106Y036371D01*
X024056Y036329D01*
X024003Y036291D01*
X023948Y036255D01*
X023891Y036223D01*
X023832Y036194D01*
X023772Y036169D01*
X023710Y036148D01*
X023647Y036130D01*
X023583Y036117D01*
X023519Y036107D01*
X023453Y036101D01*
X023388Y036099D01*
X023323Y036101D01*
X023257Y036107D01*
X023193Y036117D01*
X023129Y036130D01*
X023066Y036148D01*
X023004Y036169D01*
X022944Y036194D01*
X022885Y036223D01*
X022828Y036255D01*
X022773Y036291D01*
X022720Y036329D01*
X022670Y036371D01*
X022622Y036416D01*
X022577Y036464D01*
X022535Y036514D01*
X022497Y036567D01*
X022461Y036622D01*
X022429Y036679D01*
X022400Y036738D01*
X022375Y036798D01*
X022354Y036860D01*
X022336Y036923D01*
X022323Y036987D01*
X022313Y037051D01*
X022307Y037117D01*
X022305Y037182D01*
X037719Y028521D02*
X037721Y028571D01*
X037727Y028621D01*
X037737Y028670D01*
X037751Y028718D01*
X037768Y028765D01*
X037789Y028810D01*
X037814Y028854D01*
X037842Y028895D01*
X037874Y028934D01*
X037908Y028971D01*
X037945Y029005D01*
X037985Y029035D01*
X038027Y029062D01*
X038071Y029086D01*
X038117Y029107D01*
X038164Y029123D01*
X038212Y029136D01*
X038262Y029145D01*
X038311Y029150D01*
X038362Y029151D01*
X038412Y029148D01*
X038461Y029141D01*
X038510Y029130D01*
X038558Y029115D01*
X038604Y029097D01*
X038649Y029075D01*
X038692Y029049D01*
X038733Y029020D01*
X038772Y028988D01*
X038808Y028953D01*
X038840Y028915D01*
X038870Y028875D01*
X038897Y028832D01*
X038920Y028788D01*
X038939Y028742D01*
X038955Y028694D01*
X038967Y028645D01*
X038975Y028596D01*
X038979Y028546D01*
X038979Y028496D01*
X038975Y028446D01*
X038967Y028397D01*
X038955Y028348D01*
X038939Y028300D01*
X038920Y028254D01*
X038897Y028210D01*
X038870Y028167D01*
X038840Y028127D01*
X038808Y028089D01*
X038772Y028054D01*
X038733Y028022D01*
X038692Y027993D01*
X038649Y027967D01*
X038604Y027945D01*
X038558Y027927D01*
X038510Y027912D01*
X038461Y027901D01*
X038412Y027894D01*
X038362Y027891D01*
X038311Y027892D01*
X038262Y027897D01*
X038212Y027906D01*
X038164Y027919D01*
X038117Y027935D01*
X038071Y027956D01*
X038027Y027980D01*
X037985Y028007D01*
X037945Y028037D01*
X037908Y028071D01*
X037874Y028108D01*
X037842Y028147D01*
X037814Y028188D01*
X037789Y028232D01*
X037768Y028277D01*
X037751Y028324D01*
X037737Y028372D01*
X037727Y028421D01*
X037721Y028471D01*
X037719Y028521D01*
X037719Y009229D02*
X037721Y009279D01*
X037727Y009329D01*
X037737Y009378D01*
X037751Y009426D01*
X037768Y009473D01*
X037789Y009518D01*
X037814Y009562D01*
X037842Y009603D01*
X037874Y009642D01*
X037908Y009679D01*
X037945Y009713D01*
X037985Y009743D01*
X038027Y009770D01*
X038071Y009794D01*
X038117Y009815D01*
X038164Y009831D01*
X038212Y009844D01*
X038262Y009853D01*
X038311Y009858D01*
X038362Y009859D01*
X038412Y009856D01*
X038461Y009849D01*
X038510Y009838D01*
X038558Y009823D01*
X038604Y009805D01*
X038649Y009783D01*
X038692Y009757D01*
X038733Y009728D01*
X038772Y009696D01*
X038808Y009661D01*
X038840Y009623D01*
X038870Y009583D01*
X038897Y009540D01*
X038920Y009496D01*
X038939Y009450D01*
X038955Y009402D01*
X038967Y009353D01*
X038975Y009304D01*
X038979Y009254D01*
X038979Y009204D01*
X038975Y009154D01*
X038967Y009105D01*
X038955Y009056D01*
X038939Y009008D01*
X038920Y008962D01*
X038897Y008918D01*
X038870Y008875D01*
X038840Y008835D01*
X038808Y008797D01*
X038772Y008762D01*
X038733Y008730D01*
X038692Y008701D01*
X038649Y008675D01*
X038604Y008653D01*
X038558Y008635D01*
X038510Y008620D01*
X038461Y008609D01*
X038412Y008602D01*
X038362Y008599D01*
X038311Y008600D01*
X038262Y008605D01*
X038212Y008614D01*
X038164Y008627D01*
X038117Y008643D01*
X038071Y008664D01*
X038027Y008688D01*
X037985Y008715D01*
X037945Y008745D01*
X037908Y008779D01*
X037874Y008816D01*
X037842Y008855D01*
X037814Y008896D01*
X037789Y008940D01*
X037768Y008985D01*
X037751Y009032D01*
X037737Y009080D01*
X037727Y009129D01*
X037721Y009179D01*
X037719Y009229D01*
D11*
X040987Y009426D02*
X041035Y009377D01*
X041132Y009377D01*
X041180Y009426D01*
X041180Y009668D01*
X041281Y009619D02*
X041281Y009571D01*
X041330Y009523D01*
X041475Y009523D01*
X041475Y009619D02*
X041427Y009668D01*
X041330Y009668D01*
X041281Y009619D01*
X041281Y009426D02*
X041330Y009377D01*
X041427Y009377D01*
X041475Y009426D01*
X041475Y009619D01*
X040987Y009668D02*
X040987Y009426D01*
X038329Y013933D02*
X038329Y014030D01*
X038329Y013981D02*
X038039Y013981D01*
X038039Y013933D02*
X038039Y014030D01*
X038087Y014129D02*
X038281Y014129D01*
X038329Y014178D01*
X038329Y014275D01*
X038281Y014323D01*
X038184Y014424D02*
X038184Y014618D01*
X038039Y014569D02*
X038184Y014424D01*
X038087Y014323D02*
X038039Y014275D01*
X038039Y014178D01*
X038087Y014129D01*
X038039Y014569D02*
X038329Y014569D01*
X030824Y018601D02*
X030824Y018891D01*
X030679Y018746D01*
X030873Y018746D01*
X030578Y018795D02*
X030385Y018601D01*
X030578Y018601D01*
X030578Y018795D02*
X030578Y018843D01*
X030530Y018891D01*
X030433Y018891D01*
X030385Y018843D01*
X030283Y018843D02*
X030283Y018746D01*
X030235Y018698D01*
X030090Y018698D01*
X030187Y018698D02*
X030283Y018601D01*
X030090Y018601D02*
X030090Y018891D01*
X030235Y018891D01*
X030283Y018843D01*
X029790Y018843D02*
X029790Y018795D01*
X029742Y018746D01*
X029790Y018698D01*
X029790Y018649D01*
X029742Y018601D01*
X029645Y018601D01*
X029597Y018649D01*
X029495Y018601D02*
X029302Y018601D01*
X029495Y018795D01*
X029495Y018843D01*
X029447Y018891D01*
X029350Y018891D01*
X029302Y018843D01*
X029201Y018843D02*
X029201Y018746D01*
X029152Y018698D01*
X029007Y018698D01*
X029007Y018601D02*
X029007Y018891D01*
X029152Y018891D01*
X029201Y018843D01*
X029104Y018698D02*
X029201Y018601D01*
X029597Y018843D02*
X029645Y018891D01*
X029742Y018891D01*
X029790Y018843D01*
X029742Y018746D02*
X029693Y018746D01*
X028117Y018843D02*
X027923Y018649D01*
X027923Y018601D01*
X027822Y018601D02*
X027629Y018601D01*
X027822Y018795D01*
X027822Y018843D01*
X027774Y018891D01*
X027677Y018891D01*
X027629Y018843D01*
X027528Y018843D02*
X027528Y018746D01*
X027479Y018698D01*
X027334Y018698D01*
X027431Y018698D02*
X027528Y018601D01*
X027334Y018601D02*
X027334Y018891D01*
X027479Y018891D01*
X027528Y018843D01*
X027923Y018891D02*
X028117Y018891D01*
X028117Y018843D01*
X026936Y018843D02*
X026936Y018795D01*
X026887Y018746D01*
X026791Y018746D01*
X026742Y018795D01*
X026742Y018843D01*
X026791Y018891D01*
X026887Y018891D01*
X026936Y018843D01*
X026887Y018746D02*
X026936Y018698D01*
X026936Y018649D01*
X026887Y018601D01*
X026791Y018601D01*
X026742Y018649D01*
X026742Y018698D01*
X026791Y018746D01*
X026641Y018795D02*
X026448Y018601D01*
X026641Y018601D01*
X026641Y018795D02*
X026641Y018843D01*
X026593Y018891D01*
X026496Y018891D01*
X026448Y018843D01*
X026346Y018843D02*
X026346Y018746D01*
X026298Y018698D01*
X026153Y018698D01*
X026250Y018698D02*
X026346Y018601D01*
X026153Y018601D02*
X026153Y018891D01*
X026298Y018891D01*
X026346Y018843D01*
X025096Y019529D02*
X025096Y019626D01*
X025047Y019674D01*
X025096Y019775D02*
X024902Y019969D01*
X024854Y019969D01*
X024806Y019920D01*
X024806Y019824D01*
X024854Y019775D01*
X024854Y019674D02*
X024806Y019626D01*
X024806Y019529D01*
X024854Y019481D01*
X025047Y019481D01*
X025096Y019529D01*
X025096Y019775D02*
X025096Y019969D01*
X025047Y020070D02*
X024854Y020263D01*
X025047Y020263D01*
X025096Y020215D01*
X025096Y020118D01*
X025047Y020070D01*
X024854Y020070D01*
X024806Y020118D01*
X024806Y020215D01*
X024854Y020263D01*
X024785Y021885D02*
X024592Y021885D01*
X024592Y022176D01*
X024785Y022176D01*
X024886Y022127D02*
X024886Y021934D01*
X024935Y021885D01*
X025031Y021885D01*
X025080Y021934D01*
X025080Y022030D01*
X024983Y022030D01*
X024886Y022127D02*
X024935Y022176D01*
X025031Y022176D01*
X025080Y022127D01*
X024688Y022030D02*
X024592Y022030D01*
X024491Y022030D02*
X024442Y021982D01*
X024297Y021982D01*
X024297Y021885D02*
X024297Y022176D01*
X024442Y022176D01*
X024491Y022127D01*
X024491Y022030D01*
X024394Y021982D02*
X024491Y021885D01*
X024196Y021982D02*
X024196Y022176D01*
X024002Y022176D02*
X024002Y021982D01*
X024099Y021885D01*
X024196Y021982D01*
X024634Y022556D02*
X024731Y022556D01*
X024779Y022605D01*
X024880Y022556D02*
X025074Y022750D01*
X025074Y022798D01*
X025025Y022846D01*
X024929Y022846D01*
X024880Y022798D01*
X024779Y022798D02*
X024731Y022846D01*
X024634Y022846D01*
X024586Y022798D01*
X024586Y022605D01*
X024634Y022556D01*
X024880Y022556D02*
X025074Y022556D01*
X022630Y022494D02*
X022630Y022446D01*
X022582Y022397D01*
X022630Y022349D01*
X022630Y022301D01*
X022582Y022252D01*
X022485Y022252D01*
X022436Y022301D01*
X022335Y022301D02*
X022335Y022542D01*
X022436Y022494D02*
X022485Y022542D01*
X022582Y022542D01*
X022630Y022494D01*
X022582Y022397D02*
X022533Y022397D01*
X022335Y022301D02*
X022287Y022252D01*
X022190Y022252D01*
X022142Y022301D01*
X022142Y022542D01*
X021018Y022491D02*
X020705Y022805D01*
X020862Y022805D02*
X020862Y022491D01*
X020705Y022491D02*
X021018Y022805D01*
X021018Y022648D02*
X020705Y022648D01*
X019554Y022633D02*
X019506Y022585D01*
X019554Y022536D01*
X019554Y022488D01*
X019506Y022440D01*
X019409Y022440D01*
X019361Y022488D01*
X019260Y022440D02*
X019163Y022536D01*
X019211Y022536D02*
X019066Y022536D01*
X019066Y022440D02*
X019066Y022730D01*
X019211Y022730D01*
X019260Y022681D01*
X019260Y022585D01*
X019211Y022536D01*
X019361Y022681D02*
X019409Y022730D01*
X019506Y022730D01*
X019554Y022681D01*
X019554Y022633D01*
X019506Y022585D02*
X019458Y022585D01*
X020705Y024066D02*
X021018Y024380D01*
X020862Y024380D02*
X020862Y024066D01*
X021018Y024066D02*
X020705Y024380D01*
X020705Y024223D02*
X021018Y024223D01*
X021945Y024216D02*
X021945Y023974D01*
X021993Y023925D01*
X022090Y023925D01*
X022138Y023974D01*
X022138Y024216D01*
X022240Y024167D02*
X022288Y024216D01*
X022385Y024216D01*
X022433Y024167D01*
X022433Y024119D01*
X022240Y023925D01*
X022433Y023925D01*
X024578Y025983D02*
X024578Y026273D01*
X024723Y026273D01*
X024772Y026225D01*
X024772Y026128D01*
X024723Y026080D01*
X024578Y026080D01*
X024675Y026080D02*
X024772Y025983D01*
X024873Y025983D02*
X025066Y026176D01*
X025066Y026225D01*
X025018Y026273D01*
X024921Y026273D01*
X024873Y026225D01*
X024873Y025983D02*
X025066Y025983D01*
X024820Y030018D02*
X024869Y030067D01*
X024869Y030260D01*
X024820Y030309D01*
X024724Y030309D01*
X024675Y030260D01*
X024675Y030212D01*
X024724Y030163D01*
X024869Y030163D01*
X024820Y030018D02*
X024724Y030018D01*
X024675Y030067D01*
X024574Y030018D02*
X024381Y030018D01*
X024477Y030018D02*
X024477Y030309D01*
X024381Y030212D01*
X024280Y030260D02*
X024280Y030163D01*
X024231Y030115D01*
X024086Y030115D01*
X024086Y030018D02*
X024086Y030309D01*
X024231Y030309D01*
X024280Y030260D01*
X024183Y030115D02*
X024280Y030018D01*
X021567Y030467D02*
X021373Y030467D01*
X021470Y030467D02*
X021470Y030757D01*
X021373Y030660D01*
X021272Y030757D02*
X021079Y030757D01*
X021175Y030757D02*
X021175Y030467D01*
X019849Y030657D02*
X019801Y030609D01*
X019704Y030609D01*
X019656Y030657D01*
X019849Y030851D01*
X019849Y030657D01*
X019656Y030657D02*
X019656Y030851D01*
X019704Y030899D01*
X019801Y030899D01*
X019849Y030851D01*
X019554Y030851D02*
X019506Y030899D01*
X019409Y030899D01*
X019361Y030851D01*
X019260Y030851D02*
X019260Y030754D01*
X019211Y030706D01*
X019066Y030706D01*
X019163Y030706D02*
X019260Y030609D01*
X019361Y030609D02*
X019554Y030802D01*
X019554Y030851D01*
X019554Y030609D02*
X019361Y030609D01*
X019260Y030851D02*
X019211Y030899D01*
X019066Y030899D01*
X019066Y030609D01*
X017740Y029072D02*
X017595Y028927D01*
X017789Y028927D01*
X017740Y028782D02*
X017740Y029072D01*
X017397Y029072D02*
X017397Y028782D01*
X017300Y028782D02*
X017494Y028782D01*
X017300Y028975D02*
X017397Y029072D01*
X017199Y029024D02*
X017151Y029072D01*
X017054Y029072D01*
X017006Y029024D01*
X017006Y028830D01*
X017054Y028782D01*
X017151Y028782D01*
X017199Y028830D01*
X017201Y027891D02*
X017201Y027746D01*
X017298Y027794D01*
X017346Y027794D01*
X017395Y027746D01*
X017395Y027649D01*
X017346Y027601D01*
X017250Y027601D01*
X017201Y027649D01*
X017100Y027601D02*
X016907Y027601D01*
X017003Y027601D02*
X017003Y027891D01*
X016907Y027794D01*
X016806Y027843D02*
X016757Y027891D01*
X016660Y027891D01*
X016612Y027843D01*
X016612Y027649D01*
X016660Y027601D01*
X016757Y027601D01*
X016806Y027649D01*
X017201Y027891D02*
X017395Y027891D01*
X015106Y028486D02*
X015106Y028582D01*
X015057Y028631D01*
X014961Y028631D01*
X014961Y028534D01*
X015057Y028437D02*
X015106Y028486D01*
X015057Y028437D02*
X014864Y028437D01*
X014815Y028486D01*
X014815Y028582D01*
X014864Y028631D01*
X014815Y028732D02*
X015106Y028925D01*
X014815Y028925D01*
X014815Y029027D02*
X014815Y029172D01*
X014864Y029220D01*
X015057Y029220D01*
X015106Y029172D01*
X015106Y029027D01*
X014815Y029027D01*
X014815Y028732D02*
X015106Y028732D01*
X014121Y028829D02*
X013831Y028829D01*
X013831Y028733D02*
X013831Y028926D01*
X013831Y029027D02*
X014121Y029221D01*
X014121Y029027D02*
X013831Y029221D01*
X013137Y029221D02*
X012847Y029027D01*
X012895Y028926D02*
X012992Y028926D01*
X013040Y028878D01*
X013040Y028733D01*
X013040Y028829D02*
X013137Y028926D01*
X013137Y029027D02*
X012847Y029221D01*
X012895Y028926D02*
X012847Y028878D01*
X012847Y028733D01*
X013137Y028733D01*
X013207Y030830D02*
X013111Y030927D01*
X013159Y030927D02*
X013014Y030927D01*
X013014Y030830D02*
X013014Y031121D01*
X013159Y031121D01*
X013207Y031072D01*
X013207Y030976D01*
X013159Y030927D01*
X013308Y030830D02*
X013405Y030830D01*
X013357Y030830D02*
X013357Y031121D01*
X013405Y031121D02*
X013308Y031121D01*
X013505Y031024D02*
X013602Y031121D01*
X013698Y031024D01*
X013698Y030830D01*
X013800Y030830D02*
X013993Y030830D01*
X013800Y030830D02*
X013800Y031121D01*
X013698Y030976D02*
X013505Y030976D01*
X013505Y031024D02*
X013505Y030830D01*
X012913Y030830D02*
X012719Y030830D01*
X012719Y031121D01*
X012913Y031121D01*
X012816Y030976D02*
X012719Y030976D01*
X012618Y030927D02*
X012618Y030879D01*
X012570Y030830D01*
X012473Y030830D01*
X012425Y030879D01*
X012473Y030976D02*
X012570Y030976D01*
X012618Y030927D01*
X012618Y031072D02*
X012570Y031121D01*
X012473Y031121D01*
X012425Y031072D01*
X012425Y031024D01*
X012473Y030976D01*
X011893Y031406D02*
X011893Y031454D01*
X011844Y031503D01*
X011699Y031503D01*
X011699Y031406D01*
X011748Y031357D01*
X011844Y031357D01*
X011893Y031406D01*
X011796Y031599D02*
X011699Y031503D01*
X011796Y031599D02*
X011893Y031648D01*
X011501Y031648D02*
X011501Y031357D01*
X011405Y031357D02*
X011598Y031357D01*
X011405Y031551D02*
X011501Y031648D01*
X011303Y031599D02*
X011303Y031503D01*
X011255Y031454D01*
X011110Y031454D01*
X011110Y031357D02*
X011110Y031648D01*
X011255Y031648D01*
X011303Y031599D01*
X011207Y031454D02*
X011303Y031357D01*
X009725Y032384D02*
X009435Y032384D01*
X009435Y032529D01*
X009483Y032577D01*
X009580Y032577D01*
X009628Y032529D01*
X009628Y032384D01*
X009628Y032481D02*
X009725Y032577D01*
X009725Y032679D02*
X009725Y032872D01*
X009725Y032775D02*
X009435Y032775D01*
X009531Y032679D01*
X009531Y032973D02*
X009483Y032973D01*
X009435Y033022D01*
X009435Y033118D01*
X009483Y033167D01*
X009531Y033167D01*
X009580Y033118D01*
X009580Y033022D01*
X009531Y032973D01*
X009580Y033022D02*
X009628Y032973D01*
X009676Y032973D01*
X009725Y033022D01*
X009725Y033118D01*
X009676Y033167D01*
X009628Y033167D01*
X009580Y033118D01*
X009927Y033270D02*
X009927Y033415D01*
X009975Y033463D01*
X010072Y033463D01*
X010120Y033415D01*
X010120Y033270D01*
X010120Y033367D02*
X010217Y033463D01*
X010217Y033564D02*
X010217Y033758D01*
X010217Y033661D02*
X009927Y033661D01*
X010023Y033564D01*
X010072Y033859D02*
X010023Y033956D01*
X010023Y034004D01*
X010072Y034053D01*
X010169Y034053D01*
X010217Y034004D01*
X010217Y033908D01*
X010169Y033859D01*
X010072Y033859D02*
X009927Y033859D01*
X009927Y034053D01*
X009927Y033270D02*
X010217Y033270D01*
X010808Y034073D02*
X011121Y034386D01*
X011121Y034230D02*
X010808Y034230D01*
X010808Y034386D02*
X011121Y034073D01*
X010964Y034073D02*
X010964Y034386D01*
X010625Y035540D02*
X010625Y035588D01*
X010819Y035781D01*
X010819Y035830D01*
X010625Y035830D01*
X010524Y035830D02*
X010524Y035588D01*
X010476Y035540D01*
X010379Y035540D01*
X010331Y035588D01*
X010331Y035830D01*
X010373Y036697D02*
X010083Y036697D01*
X010083Y036842D01*
X010131Y036891D01*
X010228Y036891D01*
X010277Y036842D01*
X010277Y036697D01*
X010277Y036794D02*
X010373Y036891D01*
X010373Y036992D02*
X010373Y037185D01*
X010373Y037088D02*
X010083Y037088D01*
X010180Y036992D01*
X010965Y036941D02*
X010965Y037086D01*
X011013Y037135D01*
X011207Y037135D01*
X011255Y037086D01*
X011255Y036941D01*
X010965Y036941D01*
X011062Y037236D02*
X010965Y037333D01*
X011255Y037333D01*
X011255Y037429D02*
X011255Y037236D01*
X008932Y037222D02*
X008739Y037222D01*
X008835Y037222D02*
X008835Y037512D01*
X008739Y037415D01*
X008637Y037463D02*
X008589Y037512D01*
X008492Y037512D01*
X008444Y037463D01*
X008444Y037270D01*
X008492Y037222D01*
X008589Y037222D01*
X008637Y037270D01*
X008769Y036958D02*
X008720Y036909D01*
X008720Y036861D01*
X008769Y036813D01*
X008865Y036813D01*
X008914Y036764D01*
X008914Y036716D01*
X008865Y036668D01*
X008769Y036668D01*
X008720Y036716D01*
X008619Y036619D02*
X008426Y036619D01*
X008325Y036716D02*
X008276Y036668D01*
X008179Y036668D01*
X008131Y036716D01*
X008179Y036813D02*
X008276Y036813D01*
X008325Y036764D01*
X008325Y036716D01*
X008179Y036813D02*
X008131Y036861D01*
X008131Y036909D01*
X008179Y036958D01*
X008276Y036958D01*
X008325Y036909D01*
X008030Y036909D02*
X008030Y036813D01*
X007982Y036764D01*
X007836Y036764D01*
X007836Y036668D02*
X007836Y036958D01*
X007982Y036958D01*
X008030Y036909D01*
X007933Y036764D02*
X008030Y036668D01*
X007960Y035880D02*
X008105Y035880D01*
X008154Y035832D01*
X008154Y035735D01*
X008105Y035686D01*
X007960Y035686D01*
X007960Y035590D02*
X007960Y035880D01*
X008057Y035686D02*
X008154Y035590D01*
X008255Y035590D02*
X008448Y035590D01*
X008352Y035590D02*
X008352Y035880D01*
X008255Y035783D01*
X008550Y035880D02*
X008743Y035880D01*
X008743Y035832D01*
X008550Y035638D01*
X008550Y035590D01*
X008023Y034338D02*
X008217Y034145D01*
X008265Y034145D01*
X008265Y034044D02*
X008265Y033850D01*
X008265Y033947D02*
X007975Y033947D01*
X008072Y033850D01*
X008023Y033749D02*
X007975Y033700D01*
X007975Y033604D01*
X008023Y033555D01*
X008217Y033555D01*
X008265Y033604D01*
X008265Y033700D01*
X008217Y033749D01*
X007975Y034145D02*
X007975Y034338D01*
X008023Y034338D01*
X006086Y034160D02*
X006086Y033966D01*
X005989Y033865D02*
X006038Y033817D01*
X006038Y033720D01*
X005989Y033671D01*
X005893Y033720D02*
X005893Y033817D01*
X005941Y033865D01*
X005989Y033865D01*
X005893Y033720D02*
X005844Y033671D01*
X005796Y033671D01*
X005748Y033720D01*
X005748Y033817D01*
X005796Y033865D01*
X005796Y033570D02*
X005893Y033570D01*
X005941Y033522D01*
X005941Y033377D01*
X005941Y033473D02*
X006038Y033570D01*
X006038Y033377D02*
X005748Y033377D01*
X005748Y033522D01*
X005796Y033570D01*
X005748Y034261D02*
X005748Y034406D01*
X005796Y034454D01*
X005844Y034454D01*
X005893Y034406D01*
X005893Y034261D01*
X005893Y034406D02*
X005941Y034454D01*
X005989Y034454D01*
X006038Y034406D01*
X006038Y034261D01*
X005748Y034261D01*
X008769Y036958D02*
X008865Y036958D01*
X008914Y036909D01*
X008414Y038765D02*
X008101Y039078D01*
X008257Y039078D02*
X008257Y038765D01*
X008101Y038765D02*
X008414Y039078D01*
X008414Y038921D02*
X008101Y038921D01*
X007079Y038788D02*
X006885Y038788D01*
X006982Y038788D02*
X006982Y039078D01*
X006885Y038981D01*
X006784Y039078D02*
X006784Y038836D01*
X006736Y038788D01*
X006639Y038788D01*
X006591Y038836D01*
X006591Y039078D01*
X001445Y035336D02*
X001445Y035046D01*
X001639Y035046D01*
X001344Y035094D02*
X001344Y035287D01*
X001296Y035336D01*
X001199Y035336D01*
X001151Y035287D01*
X001151Y035094D01*
X001199Y035046D01*
X001296Y035046D01*
X001344Y035094D01*
X001050Y035094D02*
X001001Y035046D01*
X000904Y035046D01*
X000856Y035094D01*
X000904Y035191D02*
X000856Y035239D01*
X000856Y035287D01*
X000904Y035336D01*
X001001Y035336D01*
X001050Y035287D01*
X001001Y035191D02*
X001050Y035142D01*
X001050Y035094D01*
X001001Y035191D02*
X000904Y035191D01*
X000947Y033554D02*
X001092Y033554D01*
X001140Y033506D01*
X001140Y033458D01*
X001092Y033409D01*
X000947Y033409D01*
X001092Y033409D02*
X001140Y033361D01*
X001140Y033312D01*
X001092Y033264D01*
X000947Y033264D01*
X000947Y033554D01*
X001241Y033458D02*
X001338Y033554D01*
X001435Y033458D01*
X001435Y033264D01*
X001435Y033409D02*
X001241Y033409D01*
X001241Y033458D02*
X001241Y033264D01*
X001633Y033264D02*
X001633Y033554D01*
X001729Y033554D02*
X001536Y033554D01*
X001831Y033554D02*
X002024Y033554D01*
X001927Y033554D02*
X001927Y033264D01*
X001746Y028235D02*
X001746Y027945D01*
X001650Y027945D02*
X001843Y027945D01*
X001650Y028139D02*
X001746Y028235D01*
X001548Y028187D02*
X001500Y028235D01*
X001403Y028235D01*
X001355Y028187D01*
X001355Y027993D01*
X001403Y027945D01*
X001500Y027945D01*
X001548Y027993D01*
X001254Y028235D02*
X001060Y028235D01*
X001157Y028235D02*
X001157Y027945D01*
X000959Y028090D02*
X000911Y028042D01*
X000766Y028042D01*
X000766Y027945D02*
X000766Y028235D01*
X000911Y028235D01*
X000959Y028187D01*
X000959Y028090D01*
X001001Y027161D02*
X000856Y027161D01*
X000856Y026870D01*
X000856Y026967D02*
X001001Y026967D01*
X001050Y027015D01*
X001050Y027112D01*
X001001Y027161D01*
X001151Y027064D02*
X001248Y027161D01*
X001248Y026870D01*
X001344Y026870D02*
X001151Y026870D01*
X001050Y026870D02*
X000953Y026967D01*
X001445Y026919D02*
X001494Y026870D01*
X001591Y026870D01*
X001639Y026919D01*
X001639Y026967D01*
X001591Y027015D01*
X001542Y027015D01*
X001591Y027015D02*
X001639Y027064D01*
X001639Y027112D01*
X001591Y027161D01*
X001494Y027161D01*
X001445Y027112D01*
X002701Y027097D02*
X002846Y026952D01*
X002846Y027145D01*
X002991Y027097D02*
X002701Y027097D01*
X002701Y026754D02*
X002991Y026754D01*
X002991Y026657D02*
X002991Y026851D01*
X002798Y026657D02*
X002701Y026754D01*
X002750Y026556D02*
X002846Y026556D01*
X002895Y026508D01*
X002895Y026362D01*
X002991Y026362D02*
X002701Y026362D01*
X002701Y026508D01*
X002750Y026556D01*
X002895Y026459D02*
X002991Y026556D01*
X005613Y026515D02*
X005613Y026419D01*
X005661Y026370D01*
X005855Y026370D01*
X005903Y026419D01*
X005903Y026515D01*
X005855Y026564D01*
X005903Y026665D02*
X005903Y026858D01*
X005903Y026762D02*
X005613Y026762D01*
X005709Y026665D01*
X005661Y026564D02*
X005613Y026515D01*
X005661Y026960D02*
X005613Y027008D01*
X005613Y027105D01*
X005661Y027153D01*
X005709Y027153D01*
X005758Y027105D01*
X005806Y027153D01*
X005855Y027153D01*
X005903Y027105D01*
X005903Y027008D01*
X005855Y026960D01*
X005758Y027056D02*
X005758Y027105D01*
X007895Y029101D02*
X007895Y029391D01*
X008041Y029391D01*
X008089Y029343D01*
X008089Y029149D01*
X008041Y029101D01*
X007895Y029101D01*
X008190Y029149D02*
X008238Y029101D01*
X008335Y029101D01*
X008384Y029149D01*
X008384Y029246D01*
X008335Y029295D01*
X008287Y029295D01*
X008190Y029246D01*
X008190Y029391D01*
X008384Y029391D01*
X012429Y033113D02*
X012477Y033064D01*
X012671Y033064D01*
X012719Y033113D01*
X012719Y033210D01*
X012671Y033258D01*
X012671Y033359D02*
X012719Y033408D01*
X012719Y033504D01*
X012671Y033553D01*
X012574Y033553D01*
X012525Y033504D01*
X012525Y033456D01*
X012574Y033359D01*
X012429Y033359D01*
X012429Y033553D01*
X012477Y033258D02*
X012429Y033210D01*
X012429Y033113D01*
X013823Y033004D02*
X013872Y033052D01*
X013968Y033052D01*
X014017Y033004D01*
X014017Y032859D01*
X014017Y032955D02*
X014114Y033052D01*
X013968Y033153D02*
X013968Y033347D01*
X013823Y033298D02*
X013968Y033153D01*
X014114Y033298D02*
X013823Y033298D01*
X013823Y033004D02*
X013823Y032859D01*
X014114Y032859D01*
X015004Y032859D02*
X015004Y033004D01*
X015053Y033052D01*
X015149Y033052D01*
X015198Y033004D01*
X015198Y032859D01*
X015198Y032955D02*
X015295Y033052D01*
X015246Y033153D02*
X015295Y033202D01*
X015295Y033298D01*
X015246Y033347D01*
X015149Y033347D01*
X015101Y033298D01*
X015101Y033250D01*
X015149Y033153D01*
X015004Y033153D01*
X015004Y033347D01*
X015004Y032859D02*
X015295Y032859D01*
X016144Y032915D02*
X016192Y032866D01*
X016386Y032866D01*
X016434Y032915D01*
X016434Y033012D01*
X016386Y033060D01*
X016386Y033161D02*
X016434Y033209D01*
X016434Y033306D01*
X016386Y033355D01*
X016338Y033355D01*
X016289Y033306D01*
X016289Y033258D01*
X016289Y033306D02*
X016241Y033355D01*
X016192Y033355D01*
X016144Y033306D01*
X016144Y033209D01*
X016192Y033161D01*
X016192Y033060D02*
X016144Y033012D01*
X016144Y032915D01*
X019146Y033710D02*
X019146Y033855D01*
X019194Y033904D01*
X019387Y033904D01*
X019436Y033855D01*
X019436Y033710D01*
X019146Y033710D01*
X019291Y034005D02*
X019146Y034150D01*
X019436Y034150D01*
X019291Y034198D02*
X019291Y034005D01*
X017859Y039027D02*
X017859Y039317D01*
X017762Y039317D02*
X017956Y039317D01*
X017661Y039269D02*
X017661Y039172D01*
X017613Y039123D01*
X017468Y039123D01*
X017468Y039027D02*
X017468Y039317D01*
X017613Y039317D01*
X017661Y039269D01*
X017366Y039269D02*
X017366Y039172D01*
X017318Y039123D01*
X017173Y039123D01*
X017173Y039027D02*
X017173Y039317D01*
X017318Y039317D01*
X017366Y039269D01*
X017072Y039317D02*
X017072Y039027D01*
X016878Y039027D02*
X016878Y039317D01*
X016975Y039220D01*
X017072Y039317D01*
X016777Y038978D02*
X016584Y038978D01*
X016482Y039027D02*
X016289Y039027D01*
X016289Y039317D01*
X014521Y039230D02*
X014521Y039182D01*
X014473Y039134D01*
X014376Y039134D01*
X014328Y039182D01*
X014328Y039230D01*
X014376Y039279D01*
X014473Y039279D01*
X014521Y039230D01*
X014473Y039134D02*
X014521Y039085D01*
X014521Y039037D01*
X014473Y038988D01*
X014376Y038988D01*
X014328Y039037D01*
X014328Y039085D01*
X014376Y039134D01*
X014227Y039230D02*
X014178Y039279D01*
X014082Y039279D01*
X014033Y039230D01*
X014033Y039037D01*
X014082Y038988D01*
X014178Y038988D01*
X014227Y039037D01*
X026850Y032375D02*
X026850Y032181D01*
X026898Y032133D01*
X026995Y032133D01*
X027044Y032181D01*
X027145Y032133D02*
X027338Y032133D01*
X027241Y032133D02*
X027241Y032423D01*
X027145Y032326D01*
X027044Y032375D02*
X026995Y032423D01*
X026898Y032423D01*
X026850Y032375D01*
X027439Y032375D02*
X027488Y032423D01*
X027585Y032423D01*
X027633Y032375D01*
X027633Y032326D01*
X027439Y032133D01*
X027633Y032133D01*
X031482Y035336D02*
X031482Y035481D01*
X031530Y035530D01*
X031627Y035530D01*
X031675Y035481D01*
X031675Y035336D01*
X031675Y035433D02*
X031772Y035530D01*
X031724Y035631D02*
X031772Y035679D01*
X031772Y035776D01*
X031724Y035824D01*
X031530Y035824D01*
X031482Y035776D01*
X031482Y035679D01*
X031530Y035631D01*
X031579Y035631D01*
X031627Y035679D01*
X031627Y035824D01*
X031772Y035336D02*
X031482Y035336D01*
X033155Y035383D02*
X033203Y035431D01*
X033300Y035431D01*
X033349Y035383D01*
X033349Y035238D01*
X033445Y035238D02*
X033155Y035238D01*
X033155Y035383D01*
X033203Y035532D02*
X033252Y035532D01*
X033300Y035581D01*
X033300Y035677D01*
X033349Y035726D01*
X033397Y035726D01*
X033445Y035677D01*
X033445Y035581D01*
X033397Y035532D01*
X033349Y035532D01*
X033300Y035581D01*
X033300Y035677D02*
X033252Y035726D01*
X033203Y035726D01*
X033155Y035677D01*
X033155Y035581D01*
X033203Y035532D01*
X033349Y035334D02*
X033445Y035431D01*
X036252Y035654D02*
X036349Y035654D01*
X036300Y035654D02*
X036300Y035944D01*
X036252Y035944D02*
X036349Y035944D01*
X036448Y035896D02*
X036448Y035702D01*
X036497Y035654D01*
X036593Y035654D01*
X036642Y035702D01*
X036743Y035654D02*
X036936Y035654D01*
X036840Y035654D02*
X036840Y035944D01*
X036743Y035847D01*
X036642Y035896D02*
X036593Y035944D01*
X036497Y035944D01*
X036448Y035896D01*
X036994Y038589D02*
X037308Y038903D01*
X037308Y038746D02*
X036994Y038746D01*
X036994Y038903D02*
X037308Y038589D01*
X037151Y038589D02*
X037151Y038903D01*
X038012Y038803D02*
X038060Y038754D01*
X038157Y038754D01*
X038205Y038803D01*
X038205Y039044D01*
X038307Y038899D02*
X038500Y038899D01*
X038452Y038754D02*
X038452Y039044D01*
X038307Y038899D01*
X038012Y038803D02*
X038012Y039044D01*
X039726Y036269D02*
X039871Y036269D01*
X039920Y036220D01*
X039920Y036027D01*
X039871Y035979D01*
X039726Y035979D01*
X039726Y036269D01*
X040021Y036220D02*
X040069Y036269D01*
X040166Y036269D01*
X040214Y036220D01*
X040214Y036172D01*
X040021Y035979D01*
X040214Y035979D01*
X042399Y036310D02*
X042448Y036262D01*
X042545Y036262D01*
X042593Y036310D01*
X042694Y036310D02*
X042742Y036262D01*
X042839Y036262D01*
X042888Y036310D01*
X042888Y036504D01*
X042839Y036552D01*
X042742Y036552D01*
X042694Y036504D01*
X042694Y036456D01*
X042742Y036407D01*
X042888Y036407D01*
X042593Y036504D02*
X042545Y036552D01*
X042448Y036552D01*
X042399Y036504D01*
X042399Y036310D01*
X042151Y034067D02*
X042200Y034019D01*
X042006Y033825D01*
X042055Y033777D01*
X042151Y033777D01*
X042200Y033825D01*
X042200Y034019D01*
X042151Y034067D02*
X042055Y034067D01*
X042006Y034019D01*
X042006Y033825D01*
X041905Y033777D02*
X041712Y033777D01*
X041808Y033777D02*
X041808Y034067D01*
X041712Y033970D01*
X041611Y034019D02*
X041562Y034067D01*
X041465Y034067D01*
X041417Y034019D01*
X041417Y033825D01*
X041465Y033777D01*
X041562Y033777D01*
X041611Y033825D01*
X042285Y032627D02*
X042430Y032627D01*
X042479Y032579D01*
X042479Y032385D01*
X042430Y032337D01*
X042285Y032337D01*
X042285Y032627D01*
X042580Y032579D02*
X042628Y032627D01*
X042725Y032627D01*
X042773Y032579D01*
X042773Y032530D01*
X042725Y032482D01*
X042773Y032434D01*
X042773Y032385D01*
X042725Y032337D01*
X042628Y032337D01*
X042580Y032385D01*
X042677Y032482D02*
X042725Y032482D01*
X042694Y026761D02*
X042888Y026761D01*
X042985Y026665D01*
X042888Y026568D01*
X042694Y026568D01*
X042694Y026467D02*
X042694Y026273D01*
X042840Y026273D01*
X042791Y026370D01*
X042791Y026418D01*
X042840Y026467D01*
X042936Y026467D01*
X042985Y026418D01*
X042985Y026322D01*
X042936Y026273D01*
X043033Y026172D02*
X043033Y025978D01*
X042985Y025877D02*
X042985Y025684D01*
X042694Y025684D01*
X037039Y027978D02*
X036990Y027929D01*
X036797Y027929D01*
X036748Y027978D01*
X036748Y028074D01*
X036797Y028123D01*
X036797Y028224D02*
X036990Y028224D01*
X037039Y028272D01*
X037039Y028369D01*
X036990Y028418D01*
X036797Y028418D01*
X036748Y028369D01*
X036748Y028272D01*
X036797Y028224D01*
X036990Y028123D02*
X037039Y028074D01*
X037039Y027978D01*
X037039Y028519D02*
X036748Y028519D01*
X037039Y028712D01*
X036748Y028712D01*
X036748Y028813D02*
X036748Y029007D01*
X036748Y028910D02*
X037039Y028910D01*
X037039Y029108D02*
X036748Y029108D01*
X036748Y029253D01*
X036797Y029301D01*
X036894Y029301D01*
X036942Y029253D01*
X036942Y029108D01*
X036942Y029205D02*
X037039Y029301D01*
X035031Y027070D02*
X034935Y027022D01*
X034838Y026925D01*
X034983Y026925D01*
X035031Y026877D01*
X035031Y026828D01*
X034983Y026780D01*
X034886Y026780D01*
X034838Y026828D01*
X034838Y026925D01*
X034737Y026828D02*
X034737Y027070D01*
X034543Y027070D02*
X034543Y026828D01*
X034592Y026780D01*
X034688Y026780D01*
X034737Y026828D01*
X034739Y026655D02*
X034691Y026606D01*
X034691Y026510D01*
X034739Y026461D01*
X034739Y026655D02*
X034788Y026655D01*
X034981Y026461D01*
X034981Y026655D01*
X034981Y026360D02*
X034981Y026167D01*
X034981Y026263D02*
X034691Y026263D01*
X034788Y026167D01*
X034836Y026065D02*
X034884Y026017D01*
X034884Y025872D01*
X034884Y025969D02*
X034981Y026065D01*
X034836Y026065D02*
X034739Y026065D01*
X034691Y026017D01*
X034691Y025872D01*
X034981Y025872D01*
X033284Y025417D02*
X033235Y025466D01*
X033187Y025466D01*
X033138Y025417D01*
X033138Y025272D01*
X033235Y025272D01*
X033284Y025320D01*
X033284Y025417D01*
X033138Y025272D02*
X033042Y025369D01*
X032993Y025466D01*
X033042Y025171D02*
X032993Y025123D01*
X032993Y024977D01*
X033284Y024977D01*
X033284Y025123D01*
X033235Y025171D01*
X033042Y025171D01*
X034883Y022925D02*
X034980Y022925D01*
X034932Y022925D02*
X034932Y022635D01*
X034980Y022635D02*
X034883Y022635D01*
X035080Y022683D02*
X035128Y022635D01*
X035225Y022635D01*
X035273Y022683D01*
X035374Y022683D02*
X035423Y022635D01*
X035520Y022635D01*
X035568Y022683D01*
X035568Y022732D01*
X035520Y022780D01*
X035471Y022780D01*
X035520Y022780D02*
X035568Y022828D01*
X035568Y022877D01*
X035520Y022925D01*
X035423Y022925D01*
X035374Y022877D01*
X035273Y022877D02*
X035225Y022925D01*
X035128Y022925D01*
X035080Y022877D01*
X035080Y022683D01*
X033223Y027609D02*
X032910Y027923D01*
X033066Y027923D02*
X033066Y027609D01*
X032910Y027609D02*
X033223Y027923D01*
X033223Y027766D02*
X032910Y027766D01*
X032944Y028739D02*
X032944Y029029D01*
X033089Y029029D01*
X033138Y028981D01*
X033138Y028884D01*
X033089Y028836D01*
X032944Y028836D01*
X033041Y028836D02*
X033138Y028739D01*
X033239Y028739D02*
X033432Y028739D01*
X033336Y028739D02*
X033336Y029029D01*
X033239Y028932D01*
X033534Y028981D02*
X033534Y028787D01*
X033727Y028981D01*
X033727Y028787D01*
X033679Y028739D01*
X033582Y028739D01*
X033534Y028787D01*
X033534Y028981D02*
X033582Y029029D01*
X033679Y029029D01*
X033727Y028981D01*
X033902Y031874D02*
X033902Y032019D01*
X033950Y032068D01*
X034047Y032068D01*
X034095Y032019D01*
X034095Y031874D01*
X034095Y031971D02*
X034192Y032068D01*
X034192Y032169D02*
X034144Y032169D01*
X033950Y032362D01*
X033902Y032362D01*
X033902Y032169D01*
X033902Y031874D02*
X034192Y031874D01*
X032519Y031969D02*
X032422Y031873D01*
X032422Y031921D02*
X032422Y031776D01*
X032519Y031776D02*
X032229Y031776D01*
X032229Y031921D01*
X032277Y031969D01*
X032374Y031969D01*
X032422Y031921D01*
X032374Y032070D02*
X032374Y032216D01*
X032422Y032264D01*
X032471Y032264D01*
X032519Y032216D01*
X032519Y032119D01*
X032471Y032070D01*
X032374Y032070D01*
X032277Y032167D01*
X032229Y032264D01*
X031765Y037837D02*
X031571Y037837D01*
X031668Y037837D02*
X031668Y038127D01*
X031571Y038030D01*
X031470Y037837D02*
X031277Y037837D01*
X031373Y037837D02*
X031373Y038127D01*
X031277Y038030D01*
X031176Y038079D02*
X031127Y038127D01*
X031030Y038127D01*
X030982Y038079D01*
X030982Y037885D01*
X031030Y037837D01*
X031127Y037837D01*
X031176Y037885D01*
X030674Y037796D02*
X030481Y037796D01*
X030578Y037796D02*
X030578Y038086D01*
X030481Y037989D01*
X030380Y037796D02*
X030186Y037796D01*
X030283Y037796D02*
X030283Y038086D01*
X030186Y037989D01*
X030085Y037941D02*
X030037Y037892D01*
X029892Y037892D01*
X029988Y037892D02*
X030085Y037796D01*
X030085Y037941D02*
X030085Y038037D01*
X030037Y038086D01*
X029892Y038086D01*
X029892Y037796D01*
X032663Y038589D02*
X032977Y038903D01*
X032820Y038903D02*
X032820Y038589D01*
X032977Y038589D02*
X032663Y038903D01*
X032663Y038746D02*
X032977Y038746D01*
X033732Y038783D02*
X033781Y038734D01*
X033877Y038734D01*
X033926Y038783D01*
X033926Y039025D01*
X034027Y039025D02*
X034027Y038880D01*
X034124Y038928D01*
X034172Y038928D01*
X034220Y038880D01*
X034220Y038783D01*
X034172Y038734D01*
X034075Y038734D01*
X034027Y038783D01*
X034027Y039025D02*
X034220Y039025D01*
X033732Y039025D02*
X033732Y038783D01*
X016574Y021142D02*
X016284Y021142D01*
X016284Y021238D02*
X016284Y021045D01*
X016332Y020944D02*
X016284Y020895D01*
X016284Y020799D01*
X016332Y020750D01*
X016381Y020750D01*
X016429Y020799D01*
X016429Y020895D01*
X016477Y020944D01*
X016526Y020944D01*
X016574Y020895D01*
X016574Y020799D01*
X016526Y020750D01*
X016574Y020649D02*
X016477Y020552D01*
X016477Y020601D02*
X016477Y020456D01*
X016574Y020456D02*
X016284Y020456D01*
X016284Y020601D01*
X016332Y020649D01*
X016429Y020649D01*
X016477Y020601D01*
X016623Y020355D02*
X016623Y020161D01*
X016574Y020060D02*
X016477Y019963D01*
X016477Y020012D02*
X016477Y019866D01*
X016574Y019866D02*
X016284Y019866D01*
X016284Y020012D01*
X016332Y020060D01*
X016429Y020060D01*
X016477Y020012D01*
X015145Y020592D02*
X015145Y020689D01*
X015097Y020737D01*
X015097Y020838D02*
X015145Y020838D01*
X015097Y020838D02*
X014903Y021032D01*
X014855Y021032D01*
X014855Y020838D01*
X014903Y020737D02*
X014855Y020689D01*
X014855Y020592D01*
X014903Y020544D01*
X015097Y020544D01*
X015145Y020592D01*
X015111Y021655D02*
X015063Y021703D01*
X015063Y021800D01*
X015111Y021848D01*
X015304Y021848D01*
X015353Y021800D01*
X015353Y021703D01*
X015304Y021655D01*
X015111Y021655D01*
X015256Y021751D02*
X015353Y021848D01*
X015353Y021949D02*
X015353Y022143D01*
X015353Y022046D02*
X015063Y022046D01*
X015159Y021949D01*
X012192Y020983D02*
X012144Y021032D01*
X012095Y021032D01*
X012047Y020983D01*
X012047Y020838D01*
X012144Y020838D01*
X012192Y020887D01*
X012192Y020983D01*
X012047Y020838D02*
X011950Y020935D01*
X011902Y021032D01*
X011950Y020737D02*
X011902Y020689D01*
X011902Y020592D01*
X011950Y020544D01*
X012144Y020544D01*
X012192Y020592D01*
X012192Y020689D01*
X012144Y020737D01*
X009816Y022531D02*
X009768Y022483D01*
X009671Y022483D01*
X009623Y022531D01*
X009623Y022579D01*
X009671Y022628D01*
X009768Y022628D01*
X009816Y022579D01*
X009816Y022531D01*
X009768Y022628D02*
X009816Y022676D01*
X009816Y022724D01*
X009768Y022773D01*
X009671Y022773D01*
X009623Y022724D01*
X009623Y022676D01*
X009671Y022628D01*
X009521Y022483D02*
X009328Y022483D01*
X009425Y022483D02*
X009425Y022773D01*
X009328Y022676D01*
X009227Y022724D02*
X009178Y022773D01*
X009082Y022773D01*
X009033Y022724D01*
X009033Y022531D01*
X009082Y022483D01*
X009178Y022483D01*
X009227Y022531D01*
X009944Y023664D02*
X010041Y023664D01*
X010089Y023712D01*
X010190Y023664D02*
X010384Y023664D01*
X010287Y023664D02*
X010287Y023954D01*
X010190Y023857D01*
X010089Y023905D02*
X010041Y023954D01*
X009944Y023954D01*
X009895Y023905D01*
X009895Y023712D01*
X009944Y023664D01*
X010485Y023712D02*
X010533Y023664D01*
X010630Y023664D01*
X010678Y023712D01*
X010678Y023760D01*
X010630Y023809D01*
X010485Y023809D01*
X010485Y023712D01*
X010485Y023809D02*
X010582Y023905D01*
X010678Y023954D01*
X006380Y023390D02*
X006332Y023438D01*
X006138Y023438D01*
X006090Y023390D01*
X006090Y023245D01*
X006380Y023245D01*
X006380Y023390D01*
X006380Y023144D02*
X006187Y023144D01*
X006090Y023047D01*
X006187Y022950D01*
X006380Y022950D01*
X006235Y022950D02*
X006235Y023144D01*
X006235Y022849D02*
X006284Y022801D01*
X006284Y022656D01*
X006380Y022656D02*
X006090Y022656D01*
X006090Y022801D01*
X006138Y022849D01*
X006235Y022849D01*
X006138Y022554D02*
X006090Y022554D01*
X006138Y022554D02*
X006235Y022458D01*
X006380Y022458D01*
X006235Y022458D02*
X006138Y022361D01*
X006090Y022361D01*
X006090Y022260D02*
X006090Y022066D01*
X006380Y022066D01*
X006380Y022260D01*
X006235Y022163D02*
X006235Y022066D01*
X006090Y021965D02*
X006284Y021772D01*
X006235Y021820D02*
X006380Y021965D01*
X006380Y021772D02*
X006090Y021772D01*
X008041Y015350D02*
X008186Y015350D01*
X008235Y015301D01*
X008235Y015204D01*
X008186Y015156D01*
X008041Y015156D01*
X008041Y015059D02*
X008041Y015350D01*
X008138Y015156D02*
X008235Y015059D01*
X008336Y015059D02*
X008529Y015253D01*
X008529Y015301D01*
X008481Y015350D01*
X008384Y015350D01*
X008336Y015301D01*
X008336Y015059D02*
X008529Y015059D01*
X008630Y015059D02*
X008824Y015253D01*
X008824Y015301D01*
X008776Y015350D01*
X008679Y015350D01*
X008630Y015301D01*
X008630Y015059D02*
X008824Y015059D01*
X009445Y015116D02*
X009493Y015067D01*
X009590Y015067D01*
X009638Y015116D01*
X009638Y015357D01*
X009740Y015261D02*
X009836Y015357D01*
X009836Y015067D01*
X009740Y015067D02*
X009933Y015067D01*
X010034Y015116D02*
X010228Y015309D01*
X010228Y015116D01*
X010179Y015067D01*
X010083Y015067D01*
X010034Y015116D01*
X010034Y015309D01*
X010083Y015357D01*
X010179Y015357D01*
X010228Y015309D01*
X009445Y015357D02*
X009445Y015116D01*
X008945Y013552D02*
X008632Y013239D01*
X008632Y013396D02*
X008945Y013396D01*
X008945Y013239D02*
X008632Y013552D01*
X008789Y013552D02*
X008789Y013239D01*
X012447Y013175D02*
X012447Y013320D01*
X012495Y013369D01*
X012592Y013369D01*
X012640Y013320D01*
X012640Y013175D01*
X012640Y013272D02*
X012737Y013369D01*
X012689Y013470D02*
X012737Y013518D01*
X012737Y013615D01*
X012689Y013663D01*
X012640Y013663D01*
X012592Y013615D01*
X012592Y013566D01*
X012592Y013615D02*
X012544Y013663D01*
X012495Y013663D01*
X012447Y013615D01*
X012447Y013518D01*
X012495Y013470D01*
X012447Y013764D02*
X012447Y013958D01*
X012495Y013958D01*
X012689Y013764D01*
X012737Y013764D01*
X012737Y013175D02*
X012447Y013175D01*
X012495Y011989D02*
X012544Y011989D01*
X012592Y011941D01*
X012592Y011844D01*
X012544Y011796D01*
X012495Y011796D01*
X012447Y011844D01*
X012447Y011941D01*
X012495Y011989D01*
X012592Y011941D02*
X012640Y011989D01*
X012689Y011989D01*
X012737Y011941D01*
X012737Y011844D01*
X012689Y011796D01*
X012640Y011796D01*
X012592Y011844D01*
X012544Y011695D02*
X012592Y011646D01*
X012640Y011695D01*
X012689Y011695D01*
X012737Y011646D01*
X012737Y011550D01*
X012689Y011501D01*
X012737Y011400D02*
X012640Y011303D01*
X012640Y011352D02*
X012640Y011207D01*
X012737Y011207D02*
X012447Y011207D01*
X012447Y011352D01*
X012495Y011400D01*
X012592Y011400D01*
X012640Y011352D01*
X012495Y011501D02*
X012447Y011550D01*
X012447Y011646D01*
X012495Y011695D01*
X012544Y011695D01*
X012592Y011646D02*
X012592Y011598D01*
X013628Y011646D02*
X013676Y011695D01*
X013725Y011695D01*
X013773Y011646D01*
X013821Y011695D01*
X013870Y011695D01*
X013918Y011646D01*
X013918Y011550D01*
X013870Y011501D01*
X013918Y011400D02*
X013821Y011303D01*
X013821Y011352D02*
X013821Y011207D01*
X013918Y011207D02*
X013628Y011207D01*
X013628Y011352D01*
X013676Y011400D01*
X013773Y011400D01*
X013821Y011352D01*
X013676Y011501D02*
X013628Y011550D01*
X013628Y011646D01*
X013773Y011646D02*
X013773Y011598D01*
X013773Y011796D02*
X013773Y011989D01*
X013628Y011941D02*
X013773Y011796D01*
X013918Y011941D02*
X013628Y011941D01*
X013628Y013175D02*
X013628Y013320D01*
X013676Y013369D01*
X013773Y013369D01*
X013821Y013320D01*
X013821Y013175D01*
X013821Y013272D02*
X013918Y013369D01*
X013870Y013470D02*
X013918Y013518D01*
X013918Y013615D01*
X013870Y013663D01*
X013821Y013663D01*
X013773Y013615D01*
X013773Y013566D01*
X013773Y013615D02*
X013725Y013663D01*
X013676Y013663D01*
X013628Y013615D01*
X013628Y013518D01*
X013676Y013470D01*
X013676Y013764D02*
X013628Y013813D01*
X013628Y013909D01*
X013676Y013958D01*
X013725Y013958D01*
X013773Y013909D01*
X013821Y013958D01*
X013870Y013958D01*
X013918Y013909D01*
X013918Y013813D01*
X013870Y013764D01*
X013773Y013861D02*
X013773Y013909D01*
X013918Y013175D02*
X013628Y013175D01*
X018673Y014270D02*
X018673Y014561D01*
X018818Y014561D01*
X018866Y014512D01*
X018866Y014415D01*
X018818Y014367D01*
X018673Y014367D01*
X018769Y014367D02*
X018866Y014270D01*
X018967Y014319D02*
X019016Y014270D01*
X019112Y014270D01*
X019161Y014319D01*
X019161Y014367D01*
X019112Y014415D01*
X019064Y014415D01*
X019112Y014415D02*
X019161Y014464D01*
X019161Y014512D01*
X019112Y014561D01*
X019016Y014561D01*
X018967Y014512D01*
X019262Y014512D02*
X019310Y014561D01*
X019407Y014561D01*
X019455Y014512D01*
X019262Y014319D01*
X019310Y014270D01*
X019407Y014270D01*
X019455Y014319D01*
X019455Y014512D01*
X019262Y014512D02*
X019262Y014319D01*
X019854Y014367D02*
X019999Y014367D01*
X020047Y014415D01*
X020047Y014512D01*
X019999Y014561D01*
X019854Y014561D01*
X019854Y014270D01*
X019950Y014367D02*
X020047Y014270D01*
X020148Y014270D02*
X020342Y014464D01*
X020342Y014512D01*
X020294Y014561D01*
X020197Y014561D01*
X020148Y014512D01*
X020148Y014270D02*
X020342Y014270D01*
X020443Y014319D02*
X020491Y014270D01*
X020588Y014270D01*
X020637Y014319D01*
X020637Y014512D01*
X020588Y014561D01*
X020491Y014561D01*
X020443Y014512D01*
X020443Y014464D01*
X020491Y014415D01*
X020637Y014415D01*
X021140Y014361D02*
X021285Y014361D01*
X021333Y014409D01*
X021333Y014506D01*
X021285Y014554D01*
X021140Y014554D01*
X021140Y014264D01*
X021236Y014361D02*
X021333Y014264D01*
X021434Y014264D02*
X021628Y014458D01*
X021628Y014506D01*
X021579Y014554D01*
X021483Y014554D01*
X021434Y014506D01*
X021434Y014264D02*
X021628Y014264D01*
X021729Y014312D02*
X021777Y014264D01*
X021874Y014264D01*
X021922Y014312D01*
X021922Y014409D01*
X021874Y014458D01*
X021826Y014458D01*
X021729Y014409D01*
X021729Y014554D01*
X021922Y014554D01*
X022413Y014561D02*
X022558Y014561D01*
X022606Y014512D01*
X022606Y014415D01*
X022558Y014367D01*
X022413Y014367D01*
X022510Y014367D02*
X022606Y014270D01*
X022707Y014270D02*
X022901Y014464D01*
X022901Y014512D01*
X022853Y014561D01*
X022756Y014561D01*
X022707Y014512D01*
X022707Y014270D02*
X022901Y014270D01*
X023002Y014319D02*
X023050Y014270D01*
X023147Y014270D01*
X023196Y014319D01*
X023196Y014367D01*
X023147Y014415D01*
X023002Y014415D01*
X023002Y014319D01*
X023002Y014415D02*
X023099Y014512D01*
X023196Y014561D01*
X022413Y014561D02*
X022413Y014270D01*
X023777Y014132D02*
X023777Y013938D01*
X023826Y013890D01*
X023922Y013890D01*
X023971Y013938D01*
X024072Y013890D02*
X024266Y013890D01*
X024169Y013890D02*
X024169Y014180D01*
X024072Y014083D01*
X023971Y014132D02*
X023922Y014180D01*
X023826Y014180D01*
X023777Y014132D01*
X024367Y014132D02*
X024367Y014083D01*
X024415Y014035D01*
X024560Y014035D01*
X024560Y013938D02*
X024560Y014132D01*
X024512Y014180D01*
X024415Y014180D01*
X024367Y014132D01*
X024367Y013938D02*
X024415Y013890D01*
X024512Y013890D01*
X024560Y013938D01*
X028183Y015297D02*
X028231Y015248D01*
X028328Y015248D01*
X028376Y015297D01*
X028478Y015248D02*
X028671Y015442D01*
X028671Y015490D01*
X028623Y015539D01*
X028526Y015539D01*
X028478Y015490D01*
X028376Y015490D02*
X028328Y015539D01*
X028231Y015539D01*
X028183Y015490D01*
X028183Y015297D01*
X028478Y015248D02*
X028671Y015248D01*
X028772Y015248D02*
X028966Y015442D01*
X028966Y015490D01*
X028917Y015539D01*
X028821Y015539D01*
X028772Y015490D01*
X028772Y015248D02*
X028966Y015248D01*
X022340Y019529D02*
X022340Y019626D01*
X022292Y019674D01*
X022340Y019775D02*
X022146Y019969D01*
X022098Y019969D01*
X022050Y019920D01*
X022050Y019824D01*
X022098Y019775D01*
X022098Y019674D02*
X022050Y019626D01*
X022050Y019529D01*
X022098Y019481D01*
X022292Y019481D01*
X022340Y019529D01*
X022340Y019775D02*
X022340Y019969D01*
X022340Y020070D02*
X022340Y020263D01*
X022340Y020167D02*
X022050Y020167D01*
X022146Y020070D01*
X020890Y020514D02*
X020890Y020804D01*
X020745Y020659D01*
X020939Y020659D01*
X020644Y020562D02*
X020596Y020514D01*
X020499Y020514D01*
X020451Y020562D01*
X020451Y020756D01*
X020499Y020804D01*
X020596Y020804D01*
X020644Y020756D01*
X005589Y011118D02*
X005589Y010924D01*
X005589Y011021D02*
X005299Y011021D01*
X005396Y010924D01*
X005396Y010823D02*
X005348Y010823D01*
X005299Y010775D01*
X005299Y010678D01*
X005348Y010630D01*
X005348Y010529D02*
X005444Y010529D01*
X005493Y010480D01*
X005493Y010335D01*
X005589Y010335D02*
X005299Y010335D01*
X005299Y010480D01*
X005348Y010529D01*
X005493Y010432D02*
X005589Y010529D01*
X005589Y010630D02*
X005396Y010823D01*
X005589Y010823D02*
X005589Y010630D01*
X002638Y010534D02*
X002638Y010727D01*
X002638Y010828D02*
X002638Y010973D01*
X002590Y011022D01*
X002396Y011022D01*
X002348Y010973D01*
X002348Y010828D01*
X002638Y010828D01*
X002493Y010630D02*
X002493Y010534D01*
X002348Y010534D02*
X002638Y010534D01*
X002638Y010432D02*
X002638Y010239D01*
X002348Y010239D01*
X002348Y010534D02*
X002348Y010727D01*
X002445Y011123D02*
X002348Y011220D01*
X002638Y011220D01*
X002638Y011316D02*
X002638Y011123D01*
X002231Y012317D02*
X002279Y012365D01*
X002279Y012413D01*
X002231Y012462D01*
X001989Y012462D01*
X001989Y012510D02*
X001989Y012413D01*
X001989Y012611D02*
X001989Y012805D01*
X001989Y012708D02*
X002279Y012708D01*
X002279Y012906D02*
X002086Y012906D01*
X001989Y013003D01*
X002086Y013099D01*
X002279Y013099D01*
X002231Y013201D02*
X002279Y013249D01*
X002279Y013346D01*
X002231Y013394D01*
X002134Y013394D01*
X002134Y013297D01*
X002037Y013201D02*
X002231Y013201D01*
X002134Y013099D02*
X002134Y012906D01*
X002037Y013201D02*
X001989Y013249D01*
X001989Y013346D01*
X002037Y013394D01*
X001748Y008008D02*
X001748Y007621D01*
X001796Y007670D02*
X001699Y007670D01*
X001651Y007718D01*
X001550Y007718D02*
X001550Y007960D01*
X001651Y007911D02*
X001699Y007960D01*
X001796Y007960D01*
X001844Y007911D01*
X001945Y007911D02*
X001994Y007960D01*
X002091Y007960D01*
X002139Y007911D01*
X002139Y007863D01*
X001945Y007670D01*
X002139Y007670D01*
X001844Y007718D02*
X001844Y007766D01*
X001796Y007815D01*
X001699Y007815D01*
X001651Y007863D01*
X001651Y007911D01*
X001550Y007718D02*
X001501Y007670D01*
X001404Y007670D01*
X001356Y007718D01*
X001356Y007960D01*
X001796Y007670D02*
X001844Y007718D01*
X001844Y002054D02*
X001651Y002054D01*
X001651Y001764D01*
X001844Y001764D01*
X001945Y001764D02*
X002139Y001764D01*
X002240Y001764D02*
X002240Y001958D01*
X002337Y002054D01*
X002434Y001958D01*
X002434Y001764D01*
X002434Y001909D02*
X002240Y001909D01*
X002535Y002006D02*
X002631Y001909D01*
X002631Y001764D01*
X002631Y001909D02*
X002728Y002006D01*
X002728Y002054D01*
X002535Y002054D02*
X002535Y002006D01*
X002829Y001716D02*
X003023Y001716D01*
X003124Y001812D02*
X003172Y001764D01*
X003269Y001764D01*
X003318Y001812D01*
X003318Y001909D01*
X003221Y001909D01*
X003318Y002006D02*
X003269Y002054D01*
X003172Y002054D01*
X003124Y002006D01*
X003124Y001812D01*
X003419Y001812D02*
X003467Y001764D01*
X003564Y001764D01*
X003612Y001812D01*
X003612Y001909D01*
X003564Y001958D01*
X003515Y001958D01*
X003419Y001909D01*
X003419Y002054D01*
X003612Y002054D01*
X003713Y002054D02*
X003858Y002054D01*
X003907Y002006D01*
X003907Y001909D01*
X003858Y001861D01*
X003713Y001861D01*
X003713Y001764D02*
X003713Y002054D01*
X003810Y001861D02*
X003907Y001764D01*
X004008Y001764D02*
X004008Y002054D01*
X004008Y001764D02*
X004201Y001764D01*
X004303Y001909D02*
X004496Y001909D01*
X004597Y001958D02*
X004694Y002054D01*
X004694Y001764D01*
X004597Y001764D02*
X004791Y001764D01*
X004892Y001764D02*
X004892Y002054D01*
X005085Y002054D01*
X004989Y001909D02*
X004892Y001909D01*
X004892Y001764D02*
X005085Y001764D01*
X007279Y000591D02*
X007279Y000300D01*
X007424Y000300D01*
X007472Y000349D01*
X007472Y000542D01*
X007424Y000591D01*
X007279Y000591D01*
X007573Y000591D02*
X007767Y000591D01*
X007767Y000542D01*
X007573Y000349D01*
X007573Y000300D01*
X001945Y001764D02*
X001945Y002054D01*
X001748Y001909D02*
X001651Y001909D01*
X001550Y001909D02*
X001501Y001861D01*
X001356Y001861D01*
X001453Y001861D02*
X001550Y001764D01*
X001550Y001909D02*
X001550Y002006D01*
X001501Y002054D01*
X001356Y002054D01*
X001356Y001764D01*
X017222Y001235D02*
X017319Y001235D01*
X017271Y001235D02*
X017271Y000945D01*
X017319Y000945D02*
X017222Y000945D01*
X017419Y000945D02*
X017419Y001235D01*
X017612Y000945D01*
X017612Y001235D01*
X017713Y001235D02*
X017713Y001042D01*
X017810Y000945D01*
X017907Y001042D01*
X017907Y001235D01*
X018008Y001235D02*
X018008Y000945D01*
X018201Y000945D01*
X018303Y000945D02*
X018303Y001235D01*
X018448Y001235D01*
X018496Y001187D01*
X018496Y001090D01*
X018448Y001042D01*
X018303Y001042D01*
X018399Y001042D02*
X018496Y000945D01*
X018694Y000945D02*
X018694Y001235D01*
X018597Y001235D02*
X018791Y001235D01*
X018892Y001235D02*
X018892Y000945D01*
X019085Y000945D01*
X019187Y000945D02*
X019187Y001235D01*
X019332Y001235D01*
X019380Y001187D01*
X019380Y001090D01*
X019332Y001042D01*
X019187Y001042D01*
X019283Y001042D02*
X019380Y000945D01*
X019085Y001235D02*
X018892Y001235D01*
X018892Y001090D02*
X018989Y001090D01*
X018201Y001235D02*
X018008Y001235D01*
X018008Y001090D02*
X018105Y001090D01*
X035024Y004036D02*
X035024Y004181D01*
X035072Y004229D01*
X035169Y004229D01*
X035217Y004181D01*
X035217Y004036D01*
X035217Y004133D02*
X035314Y004229D01*
X035265Y004331D02*
X035314Y004379D01*
X035314Y004476D01*
X035265Y004524D01*
X035217Y004524D01*
X035169Y004476D01*
X035169Y004427D01*
X035169Y004476D02*
X035120Y004524D01*
X035072Y004524D01*
X035024Y004476D01*
X035024Y004379D01*
X035072Y004331D01*
X035072Y004625D02*
X035024Y004674D01*
X035024Y004770D01*
X035072Y004819D01*
X035120Y004819D01*
X035314Y004625D01*
X035314Y004819D01*
X035314Y004036D02*
X035024Y004036D01*
X036598Y004036D02*
X036598Y004181D01*
X036647Y004229D01*
X036743Y004229D01*
X036792Y004181D01*
X036792Y004036D01*
X036889Y004036D02*
X036598Y004036D01*
X036792Y004133D02*
X036889Y004229D01*
X036840Y004331D02*
X036889Y004379D01*
X036889Y004476D01*
X036840Y004524D01*
X036792Y004524D01*
X036743Y004476D01*
X036743Y004427D01*
X036743Y004476D02*
X036695Y004524D01*
X036647Y004524D01*
X036598Y004476D01*
X036598Y004379D01*
X036647Y004331D01*
X036695Y004625D02*
X036598Y004722D01*
X036889Y004722D01*
X036889Y004625D02*
X036889Y004819D01*
X038272Y004819D02*
X038272Y004625D01*
X038417Y004625D01*
X038368Y004722D01*
X038368Y004770D01*
X038417Y004819D01*
X038513Y004819D01*
X038562Y004770D01*
X038562Y004674D01*
X038513Y004625D01*
X038513Y004524D02*
X038562Y004476D01*
X038562Y004379D01*
X038513Y004331D01*
X038562Y004229D02*
X038465Y004133D01*
X038465Y004181D02*
X038465Y004036D01*
X038562Y004036D02*
X038272Y004036D01*
X038272Y004181D01*
X038320Y004229D01*
X038417Y004229D01*
X038465Y004181D01*
X038320Y004331D02*
X038272Y004379D01*
X038272Y004476D01*
X038320Y004524D01*
X038368Y004524D01*
X038417Y004476D01*
X038465Y004524D01*
X038513Y004524D01*
X038417Y004476D02*
X038417Y004427D01*
X039453Y004377D02*
X039501Y004426D01*
X039549Y004426D01*
X039598Y004377D01*
X039646Y004426D01*
X039695Y004426D01*
X039743Y004377D01*
X039743Y004281D01*
X039695Y004232D01*
X039743Y004131D02*
X039646Y004034D01*
X039646Y004083D02*
X039646Y003938D01*
X039743Y003938D02*
X039453Y003938D01*
X039453Y004083D01*
X039501Y004131D01*
X039598Y004131D01*
X039646Y004083D01*
X039501Y004232D02*
X039453Y004281D01*
X039453Y004377D01*
X039598Y004377D02*
X039598Y004329D01*
X039598Y004527D02*
X039598Y004672D01*
X039646Y004720D01*
X039695Y004720D01*
X039743Y004672D01*
X039743Y004575D01*
X039695Y004527D01*
X039598Y004527D01*
X039501Y004624D01*
X039453Y004720D01*
D12*
X037719Y013678D02*
X037689Y013685D01*
X037659Y013695D01*
X037631Y013708D01*
X037605Y013725D01*
X037580Y013745D01*
X037559Y013767D01*
X037540Y013792D01*
X037524Y013819D01*
X037511Y013847D01*
X037502Y013877D01*
X037496Y013908D01*
X037494Y013939D01*
X037496Y013970D01*
X037501Y014001D01*
X037510Y014031D01*
X037522Y014060D01*
X037537Y014087D01*
X037556Y014112D01*
X037577Y014135D01*
X037601Y014155D01*
X037628Y014172D01*
X037655Y014186D01*
X037685Y014196D01*
X037715Y014203D01*
X037877Y014958D02*
X037879Y014973D01*
X037884Y014986D01*
X037893Y014998D01*
X037904Y015008D01*
X037918Y015014D01*
X037932Y015017D01*
X037947Y015016D01*
X037961Y015011D01*
X037974Y015003D01*
X037984Y014993D01*
X037991Y014980D01*
X037995Y014965D01*
X037995Y014951D01*
X037991Y014936D01*
X037984Y014923D01*
X037974Y014913D01*
X037961Y014905D01*
X037947Y014900D01*
X037932Y014899D01*
X037918Y014902D01*
X037904Y014908D01*
X037893Y014918D01*
X037884Y014930D01*
X037879Y014943D01*
X037877Y014958D01*
X039136Y018678D02*
X039136Y020450D01*
X037758Y021828D01*
X037758Y024190D01*
X039136Y025568D01*
X039136Y027340D01*
X042286Y027340D01*
X042286Y025568D01*
X043664Y024190D01*
X043664Y021828D01*
X042286Y020450D01*
X042286Y018678D01*
X039136Y018678D01*
X035475Y022379D02*
X035468Y022349D01*
X035458Y022319D01*
X035445Y022291D01*
X035428Y022265D01*
X035408Y022240D01*
X035386Y022219D01*
X035361Y022200D01*
X035334Y022184D01*
X035306Y022171D01*
X035276Y022162D01*
X035245Y022156D01*
X035214Y022154D01*
X035183Y022156D01*
X035152Y022161D01*
X035122Y022170D01*
X035093Y022182D01*
X035066Y022197D01*
X035041Y022216D01*
X035018Y022237D01*
X034998Y022261D01*
X034981Y022288D01*
X034967Y022315D01*
X034957Y022345D01*
X034950Y022375D01*
X034136Y022595D02*
X034138Y022610D01*
X034143Y022623D01*
X034152Y022635D01*
X034163Y022645D01*
X034177Y022651D01*
X034191Y022654D01*
X034206Y022653D01*
X034220Y022648D01*
X034233Y022640D01*
X034243Y022630D01*
X034250Y022617D01*
X034254Y022602D01*
X034254Y022588D01*
X034250Y022573D01*
X034243Y022560D01*
X034233Y022550D01*
X034220Y022542D01*
X034206Y022537D01*
X034191Y022536D01*
X034177Y022539D01*
X034163Y022545D01*
X034152Y022555D01*
X034143Y022567D01*
X034138Y022580D01*
X034136Y022595D01*
X034843Y028164D02*
X034843Y029664D01*
X036343Y029664D01*
X036343Y028164D01*
X034843Y028164D01*
X035593Y028664D02*
X035593Y028914D01*
X035034Y028914D02*
X035036Y028961D01*
X035042Y029007D01*
X035052Y029053D01*
X035065Y029098D01*
X035082Y029141D01*
X035103Y029183D01*
X035127Y029223D01*
X035155Y029261D01*
X035186Y029297D01*
X035219Y029329D01*
X035255Y029359D01*
X035293Y029386D01*
X035334Y029409D01*
X035376Y029429D01*
X035420Y029446D01*
X035465Y029458D01*
X035511Y029467D01*
X035558Y029472D01*
X035605Y029473D01*
X035651Y029470D01*
X035698Y029463D01*
X035743Y029452D01*
X035788Y029438D01*
X035831Y029420D01*
X035872Y029398D01*
X035912Y029373D01*
X035949Y029345D01*
X035984Y029313D01*
X036016Y029279D01*
X036045Y029243D01*
X036071Y029204D01*
X036094Y029163D01*
X036113Y029120D01*
X036128Y029076D01*
X036140Y029030D01*
X036148Y028984D01*
X036152Y028937D01*
X036152Y028891D01*
X036148Y028844D01*
X036140Y028798D01*
X036128Y028752D01*
X036113Y028708D01*
X036094Y028665D01*
X036071Y028624D01*
X036045Y028585D01*
X036016Y028549D01*
X035984Y028515D01*
X035949Y028483D01*
X035912Y028455D01*
X035873Y028430D01*
X035831Y028408D01*
X035788Y028390D01*
X035743Y028376D01*
X035698Y028365D01*
X035651Y028358D01*
X035605Y028355D01*
X035558Y028356D01*
X035511Y028361D01*
X035465Y028370D01*
X035420Y028382D01*
X035376Y028399D01*
X035334Y028419D01*
X035293Y028442D01*
X035255Y028469D01*
X035219Y028499D01*
X035186Y028531D01*
X035155Y028567D01*
X035127Y028605D01*
X035103Y028645D01*
X035082Y028687D01*
X035065Y028730D01*
X035052Y028775D01*
X035042Y028821D01*
X035036Y028867D01*
X035034Y028914D01*
X035343Y028914D02*
X035593Y028914D01*
X035593Y029164D01*
X035593Y028914D02*
X035843Y028914D01*
X036237Y033389D02*
X036237Y035389D01*
X036737Y035389D01*
X036739Y035359D01*
X036744Y035329D01*
X036753Y035300D01*
X036766Y035273D01*
X036781Y035247D01*
X036800Y035223D01*
X036821Y035202D01*
X036845Y035183D01*
X036871Y035168D01*
X036898Y035155D01*
X036927Y035146D01*
X036957Y035141D01*
X036987Y035139D01*
X037017Y035141D01*
X037047Y035146D01*
X037076Y035155D01*
X037103Y035168D01*
X037129Y035183D01*
X037153Y035202D01*
X037174Y035223D01*
X037193Y035247D01*
X037208Y035273D01*
X037221Y035300D01*
X037230Y035329D01*
X037235Y035359D01*
X037237Y035389D01*
X037737Y035389D01*
X037737Y033389D01*
X036237Y033389D01*
X018782Y037182D02*
X018788Y037408D01*
X018804Y037633D01*
X018832Y037858D01*
X018871Y038081D01*
X018920Y038301D01*
X018980Y038519D01*
X019051Y038734D01*
X019133Y038945D01*
X019224Y039151D01*
X019326Y039353D01*
X019437Y039550D01*
X019558Y039741D01*
X019688Y039926D01*
X019828Y040104D01*
X019975Y040275D01*
X020131Y040439D01*
X020295Y040595D01*
X020466Y040742D01*
X020644Y040882D01*
X020829Y041012D01*
X021020Y041133D01*
X021217Y041244D01*
X021419Y041346D01*
X021625Y041437D01*
X021836Y041519D01*
X022051Y041590D01*
X022269Y041650D01*
X022489Y041699D01*
X022712Y041738D01*
X022937Y041766D01*
X023162Y041782D01*
X023388Y041788D01*
X023614Y041782D01*
X023839Y041766D01*
X024064Y041738D01*
X024287Y041699D01*
X024507Y041650D01*
X024725Y041590D01*
X024940Y041519D01*
X025151Y041437D01*
X025357Y041346D01*
X025559Y041244D01*
X025756Y041133D01*
X025947Y041012D01*
X026132Y040882D01*
X026310Y040742D01*
X026481Y040595D01*
X026645Y040439D01*
X026801Y040275D01*
X026948Y040104D01*
X027088Y039926D01*
X027218Y039741D01*
X027339Y039550D01*
X027450Y039353D01*
X027552Y039151D01*
X027643Y038945D01*
X027725Y038734D01*
X027796Y038519D01*
X027856Y038301D01*
X027905Y038081D01*
X027944Y037858D01*
X027972Y037633D01*
X027988Y037408D01*
X027994Y037182D01*
X027988Y036956D01*
X027972Y036731D01*
X027944Y036506D01*
X027905Y036283D01*
X027856Y036063D01*
X027796Y035845D01*
X027725Y035630D01*
X027643Y035419D01*
X027552Y035213D01*
X027450Y035011D01*
X027339Y034814D01*
X027218Y034623D01*
X027088Y034438D01*
X026948Y034260D01*
X026801Y034089D01*
X026645Y033925D01*
X026481Y033769D01*
X026310Y033622D01*
X026132Y033482D01*
X025947Y033352D01*
X025756Y033231D01*
X025559Y033120D01*
X025357Y033018D01*
X025151Y032927D01*
X024940Y032845D01*
X024725Y032774D01*
X024507Y032714D01*
X024287Y032665D01*
X024064Y032626D01*
X023839Y032598D01*
X023614Y032582D01*
X023388Y032576D01*
X023162Y032582D01*
X022937Y032598D01*
X022712Y032626D01*
X022489Y032665D01*
X022269Y032714D01*
X022051Y032774D01*
X021836Y032845D01*
X021625Y032927D01*
X021419Y033018D01*
X021217Y033120D01*
X021020Y033231D01*
X020829Y033352D01*
X020644Y033482D01*
X020466Y033622D01*
X020295Y033769D01*
X020131Y033925D01*
X019975Y034089D01*
X019828Y034260D01*
X019688Y034438D01*
X019558Y034623D01*
X019437Y034814D01*
X019326Y035011D01*
X019224Y035213D01*
X019133Y035419D01*
X019051Y035630D01*
X018980Y035845D01*
X018920Y036063D01*
X018871Y036283D01*
X018832Y036506D01*
X018804Y036731D01*
X018788Y036956D01*
X018782Y037182D01*
X008821Y028718D02*
X008821Y027536D01*
X000160Y027536D01*
X000160Y028718D01*
X008821Y028718D01*
X005499Y028674D02*
X003058Y028674D01*
X003058Y030643D01*
X000814Y030643D01*
X000814Y032769D01*
X000459Y032769D01*
X000459Y030643D01*
X000814Y030643D01*
X000814Y032769D02*
X003058Y032769D01*
X003058Y034737D01*
X005499Y034737D01*
X005499Y032769D01*
X003058Y032769D01*
X003058Y030643D02*
X005499Y030643D01*
X005499Y028674D01*
X005499Y030643D02*
X005499Y032769D01*
X001341Y007458D02*
X012758Y007458D01*
X012758Y002536D01*
X001341Y002536D01*
X001341Y007458D01*
X012877Y005253D02*
X012877Y002812D01*
X014845Y002812D01*
X014845Y000568D01*
X016971Y000568D01*
X016971Y000214D01*
X014845Y000214D01*
X014845Y000568D01*
X016971Y000568D02*
X016971Y002812D01*
X018940Y002812D01*
X018940Y005253D01*
X016971Y005253D01*
X016971Y002812D01*
X014845Y002812D02*
X014845Y005253D01*
X016971Y005253D01*
X014845Y005253D02*
X012877Y005253D01*
D13*
X009769Y013674D02*
X009449Y013674D01*
X009019Y013914D02*
X009019Y014074D01*
X009019Y014234D01*
X009369Y014234D01*
X009139Y013944D02*
X009139Y013964D01*
X009135Y013983D01*
X009129Y014002D01*
X009119Y014020D01*
X009107Y014035D01*
X009093Y014049D01*
X009076Y014060D01*
X009058Y014068D01*
X009038Y014072D01*
X009019Y014074D01*
X009849Y014234D02*
X010199Y014234D01*
X010199Y013914D01*
X004453Y018721D02*
X004453Y019721D01*
X004453Y020721D01*
X004453Y021721D01*
X004453Y022721D01*
X004453Y023721D01*
X004453Y024721D01*
X004453Y025721D01*
X003453Y025721D01*
X003453Y024721D01*
X003453Y023721D01*
X003453Y022721D01*
X003453Y021721D01*
X003453Y020721D01*
X003453Y019721D01*
X003453Y018721D01*
X004453Y018721D01*
X004453Y019721D02*
X003453Y019721D01*
X003453Y020721D02*
X004453Y020721D01*
X004453Y021721D02*
X003453Y021721D01*
X003453Y022721D02*
X004453Y022721D01*
X004453Y023721D02*
X003453Y023721D01*
X003453Y024721D02*
X004453Y024721D01*
X003560Y018135D02*
X003060Y018135D01*
X002810Y017885D01*
X002810Y017385D01*
X003060Y017135D01*
X003560Y017135D01*
X003810Y017385D01*
X003810Y017885D01*
X003560Y018135D01*
X003560Y017135D02*
X003810Y016885D01*
X003810Y016385D01*
X003560Y016135D01*
X003810Y015885D01*
X003810Y015385D01*
X003560Y015135D01*
X003810Y014885D01*
X003810Y014385D01*
X003560Y014135D01*
X003810Y013885D01*
X003810Y013385D01*
X003560Y013135D01*
X003810Y012885D01*
X003810Y012385D01*
X003560Y012135D01*
X003060Y012135D01*
X002810Y012385D01*
X002810Y012885D01*
X003060Y013135D01*
X002810Y013385D01*
X002810Y013885D01*
X003060Y014135D01*
X003560Y014135D01*
X003060Y014135D02*
X002810Y014385D01*
X002810Y014885D01*
X003060Y015135D01*
X002810Y015385D01*
X002810Y015885D01*
X003060Y016135D01*
X002810Y016385D01*
X002810Y016885D01*
X003060Y017135D01*
X003060Y016135D02*
X003560Y016135D01*
X003560Y015135D02*
X003060Y015135D01*
X003060Y013135D02*
X003560Y013135D01*
X014073Y024316D02*
X016514Y024316D01*
X016632Y024434D01*
X016632Y026875D01*
X016514Y026993D01*
X014073Y026993D01*
X013955Y026875D01*
X013955Y024434D01*
X014073Y024316D01*
X014190Y029595D02*
X013690Y029595D01*
X013440Y029845D01*
X013190Y029595D01*
X012690Y029595D01*
X012440Y029845D01*
X012440Y030345D01*
X012690Y030595D01*
X013190Y030595D01*
X013440Y030345D01*
X013690Y030595D01*
X014190Y030595D01*
X014440Y030345D01*
X014690Y030595D01*
X015190Y030595D01*
X015440Y030345D01*
X015440Y029845D01*
X015190Y029595D01*
X014690Y029595D01*
X014440Y029845D01*
X014190Y029595D01*
X014440Y029845D02*
X014440Y030345D01*
X013440Y030345D02*
X013440Y029845D01*
X010486Y034400D02*
X010306Y034400D01*
X010346Y034510D02*
X010365Y034517D01*
X010386Y034521D01*
X010406Y034521D01*
X010427Y034517D01*
X010446Y034510D01*
X010486Y035240D02*
X010306Y035240D01*
X007957Y038083D02*
X007717Y038083D01*
X007247Y038273D02*
X007247Y038643D01*
X007597Y038643D01*
X008077Y038643D02*
X008427Y038643D01*
X008427Y038483D01*
X008427Y038273D01*
X008307Y038353D02*
X008307Y038373D01*
X008311Y038392D01*
X008317Y038411D01*
X008327Y038429D01*
X008339Y038444D01*
X008353Y038458D01*
X008370Y038469D01*
X008388Y038477D01*
X008408Y038481D01*
X008427Y038483D01*
X021380Y023993D02*
X021540Y023993D01*
X021700Y023993D01*
X021700Y023643D01*
X021410Y023872D02*
X021430Y023872D01*
X021449Y023876D01*
X021468Y023882D01*
X021486Y023892D01*
X021501Y023904D01*
X021515Y023918D01*
X021526Y023935D01*
X021534Y023953D01*
X021538Y023973D01*
X021540Y023992D01*
X021140Y023563D02*
X021140Y023243D01*
X021380Y022813D02*
X021700Y022813D01*
X021700Y023163D01*
X021700Y022418D02*
X021540Y022418D01*
X021380Y022418D01*
X021410Y022297D02*
X021430Y022297D01*
X021449Y022301D01*
X021468Y022307D01*
X021486Y022317D01*
X021501Y022329D01*
X021515Y022343D01*
X021526Y022360D01*
X021534Y022378D01*
X021538Y022398D01*
X021540Y022417D01*
X021700Y022418D02*
X021700Y022068D01*
X021700Y021588D02*
X021700Y021238D01*
X021380Y021238D01*
X021140Y021668D02*
X021140Y021988D01*
X023108Y021554D02*
X023108Y021314D01*
X023328Y022034D02*
X023668Y022034D01*
X023668Y021684D01*
X023668Y021184D02*
X023668Y020834D01*
X023328Y020834D01*
X033585Y026356D02*
X033905Y026356D01*
X033905Y026706D01*
X033905Y027186D02*
X033905Y027536D01*
X033745Y027536D01*
X033585Y027536D01*
X033615Y027415D02*
X033635Y027415D01*
X033654Y027419D01*
X033673Y027425D01*
X033691Y027435D01*
X033706Y027447D01*
X033720Y027461D01*
X033731Y027478D01*
X033739Y027496D01*
X033743Y027516D01*
X033745Y027535D01*
X033345Y027106D02*
X033345Y026786D01*
X033338Y036606D02*
X034698Y036606D01*
X034698Y038546D02*
X034138Y038546D01*
X033898Y038546D01*
X033338Y038546D01*
X033898Y038546D02*
X033900Y038525D01*
X033905Y038505D01*
X033914Y038486D01*
X033926Y038469D01*
X033941Y038454D01*
X033958Y038442D01*
X033977Y038433D01*
X033997Y038428D01*
X034018Y038426D01*
X034039Y038428D01*
X034059Y038433D01*
X034078Y038442D01*
X034095Y038454D01*
X034110Y038469D01*
X034122Y038486D01*
X034131Y038505D01*
X034136Y038525D01*
X034138Y038546D01*
X037669Y038546D02*
X038229Y038546D01*
X038469Y038546D01*
X039029Y038546D01*
X038469Y038546D02*
X038467Y038525D01*
X038462Y038505D01*
X038453Y038486D01*
X038441Y038469D01*
X038426Y038454D01*
X038409Y038442D01*
X038390Y038433D01*
X038370Y038428D01*
X038349Y038426D01*
X038328Y038428D01*
X038308Y038433D01*
X038289Y038442D01*
X038272Y038454D01*
X038257Y038469D01*
X038245Y038486D01*
X038236Y038505D01*
X038231Y038525D01*
X038229Y038546D01*
X037669Y036606D02*
X039029Y036606D01*
D14*
X013797Y023765D02*
X013799Y023777D01*
X013804Y023788D01*
X013813Y023797D01*
X013824Y023802D01*
X013836Y023804D01*
X013848Y023802D01*
X013859Y023797D01*
X013868Y023788D01*
X013873Y023777D01*
X013875Y023765D01*
X013873Y023753D01*
X013868Y023742D01*
X013859Y023733D01*
X013848Y023728D01*
X013836Y023726D01*
X013824Y023728D01*
X013813Y023733D01*
X013804Y023742D01*
X013799Y023753D01*
X013797Y023765D01*
D15*
X014290Y024710D02*
X014292Y024728D01*
X014298Y024744D01*
X014307Y024759D01*
X014320Y024772D01*
X014335Y024781D01*
X014351Y024787D01*
X014369Y024789D01*
X014387Y024787D01*
X014403Y024781D01*
X014418Y024772D01*
X014431Y024759D01*
X014440Y024744D01*
X014446Y024728D01*
X014448Y024710D01*
X014446Y024692D01*
X014440Y024676D01*
X014431Y024661D01*
X014418Y024648D01*
X014403Y024639D01*
X014387Y024633D01*
X014369Y024631D01*
X014351Y024633D01*
X014335Y024639D01*
X014320Y024648D01*
X014307Y024661D01*
X014298Y024676D01*
X014292Y024692D01*
X014290Y024710D01*
D16*
X013187Y024747D02*
X013187Y024840D01*
X013140Y024887D01*
X013187Y024995D02*
X013000Y025182D01*
X012954Y025182D01*
X012907Y025135D01*
X012907Y025041D01*
X012954Y024995D01*
X012954Y024887D02*
X012907Y024840D01*
X012907Y024747D01*
X012954Y024700D01*
X013140Y024700D01*
X013187Y024747D01*
X013187Y024597D02*
X013187Y024504D01*
X013187Y024550D02*
X012907Y024550D01*
X012907Y024504D02*
X012907Y024597D01*
X013187Y024995D02*
X013187Y025182D01*
X014018Y035568D02*
X013113Y036473D01*
X013113Y036828D01*
X013113Y037536D02*
X013113Y037891D01*
X014018Y038796D01*
X016341Y038796D01*
X016341Y037536D01*
X016341Y036828D02*
X016341Y035568D01*
X014018Y035568D01*
X013211Y036828D02*
X013231Y036751D01*
X013254Y036676D01*
X013282Y036602D01*
X013313Y036530D01*
X013348Y036459D01*
X013386Y036390D01*
X013428Y036324D01*
X013473Y036259D01*
X013521Y036197D01*
X013573Y036137D01*
X013627Y036080D01*
X013684Y036026D01*
X013744Y035974D01*
X013806Y035926D01*
X013871Y035881D01*
X013938Y035840D01*
X014007Y035802D01*
X014078Y035767D01*
X014150Y035736D01*
X014224Y035708D01*
X014299Y035685D01*
X014375Y035665D01*
X014453Y035649D01*
X014531Y035637D01*
X014609Y035629D01*
X014688Y035625D01*
X014766Y035625D01*
X014845Y035629D01*
X014923Y035637D01*
X015001Y035649D01*
X015079Y035665D01*
X015155Y035685D01*
X015230Y035708D01*
X015304Y035736D01*
X015376Y035767D01*
X015447Y035802D01*
X015516Y035840D01*
X015583Y035881D01*
X015648Y035926D01*
X015710Y035974D01*
X015770Y036026D01*
X015827Y036080D01*
X015881Y036137D01*
X015933Y036197D01*
X015981Y036259D01*
X016026Y036324D01*
X016068Y036390D01*
X016106Y036459D01*
X016141Y036530D01*
X016172Y036602D01*
X016200Y036676D01*
X016223Y036751D01*
X016243Y036828D01*
X016243Y037536D02*
X016223Y037613D01*
X016200Y037688D01*
X016172Y037762D01*
X016141Y037834D01*
X016106Y037905D01*
X016068Y037974D01*
X016026Y038040D01*
X015981Y038105D01*
X015933Y038167D01*
X015881Y038227D01*
X015827Y038284D01*
X015770Y038338D01*
X015710Y038390D01*
X015648Y038438D01*
X015583Y038483D01*
X015516Y038524D01*
X015447Y038562D01*
X015376Y038597D01*
X015304Y038628D01*
X015230Y038656D01*
X015155Y038679D01*
X015079Y038699D01*
X015001Y038715D01*
X014923Y038727D01*
X014845Y038735D01*
X014766Y038739D01*
X014688Y038739D01*
X014609Y038735D01*
X014531Y038727D01*
X014453Y038715D01*
X014375Y038699D01*
X014299Y038679D01*
X014224Y038656D01*
X014150Y038628D01*
X014078Y038597D01*
X014007Y038562D01*
X013938Y038524D01*
X013871Y038483D01*
X013806Y038438D01*
X013744Y038390D01*
X013684Y038338D01*
X013627Y038284D01*
X013573Y038227D01*
X013521Y038167D01*
X013473Y038105D01*
X013428Y038040D01*
X013386Y037974D01*
X013348Y037905D01*
X013313Y037834D01*
X013282Y037762D01*
X013254Y037688D01*
X013231Y037613D01*
X013211Y037536D01*
X027581Y034347D02*
X027581Y034032D01*
X027581Y034347D02*
X028487Y035253D01*
X030810Y035253D01*
X030810Y034032D01*
X030810Y033245D02*
X030810Y032025D01*
X028487Y032025D01*
X027581Y032930D01*
X027581Y033245D01*
X027679Y033993D02*
X027699Y034070D01*
X027722Y034145D01*
X027750Y034219D01*
X027781Y034291D01*
X027816Y034362D01*
X027854Y034431D01*
X027896Y034497D01*
X027941Y034562D01*
X027989Y034624D01*
X028041Y034684D01*
X028095Y034741D01*
X028152Y034795D01*
X028212Y034847D01*
X028274Y034895D01*
X028339Y034940D01*
X028406Y034981D01*
X028475Y035019D01*
X028546Y035054D01*
X028618Y035085D01*
X028692Y035113D01*
X028767Y035136D01*
X028843Y035156D01*
X028921Y035172D01*
X028999Y035184D01*
X029077Y035192D01*
X029156Y035196D01*
X029234Y035196D01*
X029313Y035192D01*
X029391Y035184D01*
X029469Y035172D01*
X029547Y035156D01*
X029623Y035136D01*
X029698Y035113D01*
X029772Y035085D01*
X029844Y035054D01*
X029915Y035019D01*
X029984Y034981D01*
X030051Y034940D01*
X030116Y034895D01*
X030178Y034847D01*
X030238Y034795D01*
X030295Y034741D01*
X030349Y034684D01*
X030401Y034624D01*
X030449Y034562D01*
X030494Y034497D01*
X030536Y034431D01*
X030574Y034362D01*
X030609Y034291D01*
X030640Y034219D01*
X030668Y034145D01*
X030691Y034070D01*
X030711Y033993D01*
X030711Y033285D02*
X030691Y033208D01*
X030668Y033133D01*
X030640Y033059D01*
X030609Y032987D01*
X030574Y032916D01*
X030536Y032847D01*
X030494Y032781D01*
X030449Y032716D01*
X030401Y032654D01*
X030349Y032594D01*
X030295Y032537D01*
X030238Y032483D01*
X030178Y032431D01*
X030116Y032383D01*
X030051Y032338D01*
X029984Y032297D01*
X029915Y032259D01*
X029844Y032224D01*
X029772Y032193D01*
X029698Y032165D01*
X029623Y032142D01*
X029547Y032122D01*
X029469Y032106D01*
X029391Y032094D01*
X029313Y032086D01*
X029234Y032082D01*
X029156Y032082D01*
X029077Y032086D01*
X028999Y032094D01*
X028921Y032106D01*
X028843Y032122D01*
X028767Y032142D01*
X028692Y032165D01*
X028618Y032193D01*
X028546Y032224D01*
X028475Y032259D01*
X028406Y032297D01*
X028339Y032338D01*
X028274Y032383D01*
X028212Y032431D01*
X028152Y032483D01*
X028095Y032537D01*
X028041Y032594D01*
X027989Y032654D01*
X027941Y032716D01*
X027896Y032781D01*
X027854Y032847D01*
X027816Y032916D01*
X027781Y032987D01*
X027750Y033059D01*
X027722Y033133D01*
X027699Y033208D01*
X027679Y033285D01*
X030434Y025592D02*
X030434Y022788D01*
X032879Y022788D02*
X032879Y025592D01*
X031160Y015076D02*
X028050Y015076D01*
X028050Y013462D01*
X028050Y012674D02*
X028050Y011060D01*
X031160Y011060D01*
X032066Y011966D01*
X032066Y012674D01*
X032066Y013462D02*
X032066Y014170D01*
X031160Y015076D01*
X031968Y012674D02*
X031946Y012581D01*
X031920Y012490D01*
X031890Y012400D01*
X031855Y012311D01*
X031816Y012224D01*
X031773Y012139D01*
X031725Y012057D01*
X031674Y011977D01*
X031619Y011899D01*
X031560Y011824D01*
X031497Y011752D01*
X031431Y011684D01*
X031362Y011618D01*
X031290Y011556D01*
X031215Y011498D01*
X031137Y011443D01*
X031056Y011393D01*
X030973Y011346D01*
X030888Y011303D01*
X030801Y011265D01*
X030712Y011231D01*
X030621Y011201D01*
X030529Y011176D01*
X030437Y011155D01*
X030343Y011139D01*
X030248Y011127D01*
X030153Y011120D01*
X030058Y011118D01*
X029963Y011120D01*
X029868Y011127D01*
X029773Y011139D01*
X029679Y011155D01*
X029587Y011176D01*
X029495Y011201D01*
X029404Y011231D01*
X029315Y011265D01*
X029228Y011303D01*
X029143Y011346D01*
X029060Y011393D01*
X028979Y011443D01*
X028901Y011498D01*
X028826Y011556D01*
X028754Y011618D01*
X028685Y011684D01*
X028619Y011752D01*
X028556Y011824D01*
X028497Y011899D01*
X028442Y011977D01*
X028391Y012057D01*
X028343Y012139D01*
X028300Y012224D01*
X028261Y012311D01*
X028226Y012400D01*
X028196Y012490D01*
X028170Y012581D01*
X028148Y012674D01*
X028148Y013462D02*
X028170Y013555D01*
X028196Y013646D01*
X028226Y013736D01*
X028261Y013825D01*
X028300Y013912D01*
X028343Y013997D01*
X028391Y014079D01*
X028442Y014159D01*
X028497Y014237D01*
X028556Y014312D01*
X028619Y014384D01*
X028685Y014452D01*
X028754Y014518D01*
X028826Y014580D01*
X028901Y014638D01*
X028979Y014693D01*
X029060Y014743D01*
X029143Y014790D01*
X029228Y014833D01*
X029315Y014871D01*
X029404Y014905D01*
X029495Y014935D01*
X029587Y014960D01*
X029679Y014981D01*
X029773Y014997D01*
X029868Y015009D01*
X029963Y015016D01*
X030058Y015018D01*
X030153Y015016D01*
X030248Y015009D01*
X030343Y014997D01*
X030437Y014981D01*
X030529Y014960D01*
X030621Y014935D01*
X030712Y014905D01*
X030801Y014871D01*
X030888Y014833D01*
X030973Y014790D01*
X031056Y014743D01*
X031137Y014693D01*
X031215Y014638D01*
X031290Y014580D01*
X031362Y014518D01*
X031431Y014452D01*
X031497Y014384D01*
X031560Y014312D01*
X031619Y014237D01*
X031674Y014159D01*
X031725Y014079D01*
X031773Y013997D01*
X031816Y013912D01*
X031855Y013825D01*
X031890Y013736D01*
X031920Y013646D01*
X031946Y013555D01*
X031968Y013462D01*
X023821Y013088D02*
X023821Y012733D01*
X023821Y013088D02*
X022916Y013993D01*
X020593Y013993D01*
X020593Y012733D01*
X020593Y012025D02*
X020593Y010765D01*
X022916Y010765D01*
X023821Y011670D01*
X023821Y012025D01*
X023723Y012025D02*
X023703Y011948D01*
X023680Y011873D01*
X023652Y011799D01*
X023621Y011727D01*
X023586Y011656D01*
X023548Y011587D01*
X023506Y011521D01*
X023461Y011456D01*
X023413Y011394D01*
X023361Y011334D01*
X023307Y011277D01*
X023250Y011223D01*
X023190Y011171D01*
X023128Y011123D01*
X023063Y011078D01*
X022996Y011037D01*
X022927Y010999D01*
X022856Y010964D01*
X022784Y010933D01*
X022710Y010905D01*
X022635Y010882D01*
X022559Y010862D01*
X022481Y010846D01*
X022403Y010834D01*
X022325Y010826D01*
X022246Y010822D01*
X022168Y010822D01*
X022089Y010826D01*
X022011Y010834D01*
X021933Y010846D01*
X021855Y010862D01*
X021779Y010882D01*
X021704Y010905D01*
X021630Y010933D01*
X021558Y010964D01*
X021487Y010999D01*
X021418Y011037D01*
X021351Y011078D01*
X021286Y011123D01*
X021224Y011171D01*
X021164Y011223D01*
X021107Y011277D01*
X021053Y011334D01*
X021001Y011394D01*
X020953Y011456D01*
X020908Y011521D01*
X020866Y011587D01*
X020828Y011656D01*
X020793Y011727D01*
X020762Y011799D01*
X020734Y011873D01*
X020711Y011948D01*
X020691Y012025D01*
X020691Y012733D02*
X020711Y012810D01*
X020734Y012885D01*
X020762Y012959D01*
X020793Y013031D01*
X020828Y013102D01*
X020866Y013171D01*
X020908Y013237D01*
X020953Y013302D01*
X021001Y013364D01*
X021053Y013424D01*
X021107Y013481D01*
X021164Y013535D01*
X021224Y013587D01*
X021286Y013635D01*
X021351Y013680D01*
X021418Y013721D01*
X021487Y013759D01*
X021558Y013794D01*
X021630Y013825D01*
X021704Y013853D01*
X021779Y013876D01*
X021855Y013896D01*
X021933Y013912D01*
X022011Y013924D01*
X022089Y013932D01*
X022168Y013936D01*
X022246Y013936D01*
X022325Y013932D01*
X022403Y013924D01*
X022481Y013912D01*
X022559Y013896D01*
X022635Y013876D01*
X022710Y013853D01*
X022784Y013825D01*
X022856Y013794D01*
X022927Y013759D01*
X022996Y013721D01*
X023063Y013680D01*
X023128Y013635D01*
X023190Y013587D01*
X023250Y013535D01*
X023307Y013481D01*
X023361Y013424D01*
X023413Y013364D01*
X023461Y013302D01*
X023506Y013237D01*
X023548Y013171D01*
X023586Y013102D01*
X023621Y013031D01*
X023652Y012959D01*
X023680Y012885D01*
X023703Y012810D01*
X023723Y012733D01*
D17*
X014530Y019111D02*
X013349Y019111D01*
X013349Y020095D02*
X013349Y021198D01*
X013349Y022182D02*
X014530Y022182D01*
X014137Y022143D02*
X014135Y022116D01*
X014130Y022090D01*
X014121Y022065D01*
X014108Y022041D01*
X014093Y022019D01*
X014074Y021999D01*
X014054Y021982D01*
X014031Y021968D01*
X014006Y021957D01*
X013980Y021950D01*
X013953Y021946D01*
X013927Y021946D01*
X013900Y021950D01*
X013874Y021957D01*
X013849Y021968D01*
X013826Y021982D01*
X013806Y021999D01*
X013787Y022019D01*
X013772Y022041D01*
X013759Y022065D01*
X013750Y022090D01*
X013745Y022116D01*
X013743Y022143D01*
X014530Y021198D02*
X014530Y020095D01*
X031262Y023976D02*
X032050Y023976D01*
X031656Y024517D01*
X031262Y023976D01*
X034451Y022379D02*
X034648Y022379D01*
X034648Y020489D01*
X034451Y020489D01*
X034451Y022379D01*
X034648Y022379D02*
X035475Y022379D01*
X035947Y022379D01*
X035947Y020489D01*
X034648Y020489D01*
X035829Y014702D02*
X037719Y014702D01*
X037719Y014505D01*
X035829Y014505D01*
X035829Y014702D01*
X035829Y014505D02*
X035829Y013206D01*
X037719Y013206D01*
X037719Y013678D01*
X037719Y014505D01*
X039198Y014399D02*
X043209Y014399D01*
X041115Y031946D02*
X040304Y031946D01*
X040304Y032969D02*
X041115Y032969D01*
X041115Y034702D02*
X040304Y034702D01*
X040304Y035725D02*
X041115Y035725D01*
X007260Y001867D02*
X006449Y001867D01*
X006449Y000844D02*
X007260Y000844D01*
D18*
X007139Y001355D03*
X040425Y032458D03*
X040425Y035214D03*
D19*
X003203Y025221D02*
X000953Y025221D01*
X000953Y024221D02*
X003203Y024221D01*
X003203Y023221D02*
X000953Y023221D01*
X000953Y022221D02*
X003203Y022221D01*
X003203Y021221D02*
X000953Y021221D01*
X000953Y020221D02*
X003203Y020221D01*
X003203Y019221D02*
X000953Y019221D01*
D20*
X003353Y019221D03*
X003353Y020221D03*
X003353Y021221D03*
X003353Y022221D03*
X003353Y023221D03*
X003353Y024221D03*
X003353Y025221D03*
D21*
X004653Y025221D03*
X004653Y024221D03*
X004653Y023221D03*
X004653Y022221D03*
X004653Y021221D03*
X004653Y020221D03*
X004653Y019221D03*
D22*
X008054Y029820D02*
X007562Y030095D01*
X008054Y030371D01*
X008054Y029820D01*
X017896Y034052D02*
X018447Y034052D01*
X018172Y033560D01*
X017896Y034052D01*
D23*
X018172Y033540D03*
D24*
X003310Y010765D03*
D25*
X039863Y014695D03*
X040533Y014695D03*
X041203Y014695D03*
X041873Y014695D03*
X042543Y014695D03*
D26*
X031656Y024771D03*
D27*
X006121Y035885D02*
X006121Y036534D01*
X005924Y036534D02*
X005924Y035885D01*
X006121Y035885D01*
X005333Y036385D02*
X005333Y039034D01*
X005924Y039034D01*
X005924Y038385D01*
X006121Y038385D02*
X006121Y039034D01*
X005924Y039034D01*
X005333Y039034D02*
X005333Y039231D01*
X000609Y039231D01*
X000609Y038719D01*
X001003Y038719D01*
X001396Y038719D02*
X001790Y038719D01*
X001987Y039034D02*
X005333Y039034D01*
X004152Y038719D02*
X004152Y038483D01*
X004152Y038719D02*
X003758Y038719D01*
X003365Y038719D02*
X002971Y038719D01*
X002577Y038719D02*
X002184Y038719D01*
X001987Y039034D02*
X001987Y039231D01*
X001987Y039034D02*
X001987Y035688D01*
X002184Y036200D02*
X002577Y036200D01*
X002971Y036200D02*
X003365Y036200D01*
X003758Y036200D02*
X004152Y036200D01*
X004152Y036436D01*
X004152Y036830D02*
X004152Y037066D01*
X004152Y037853D01*
X004152Y038090D01*
X003833Y035688D02*
X000609Y035688D01*
X000609Y036200D01*
X001003Y036200D01*
X001396Y036200D02*
X001790Y036200D01*
X000609Y036200D02*
X000609Y038719D01*
X001396Y037854D02*
X001357Y037852D01*
X001319Y037846D01*
X001282Y037837D01*
X001245Y037824D01*
X001210Y037807D01*
X001177Y037788D01*
X001146Y037765D01*
X001117Y037739D01*
X001091Y037710D01*
X001068Y037679D01*
X001049Y037646D01*
X001032Y037611D01*
X001019Y037574D01*
X001010Y037537D01*
X001004Y037499D01*
X001002Y037460D01*
X001004Y037421D01*
X001010Y037383D01*
X001019Y037346D01*
X001032Y037309D01*
X001049Y037274D01*
X001068Y037241D01*
X001091Y037210D01*
X001117Y037181D01*
X001146Y037155D01*
X001177Y037132D01*
X001210Y037113D01*
X001245Y037096D01*
X001282Y037083D01*
X001319Y037074D01*
X001357Y037068D01*
X001396Y037066D01*
D28*
X007542Y030095D03*
M02*
