%
M48
M72
T01C0.0236
T02C0.0240
T03C0.0276
T04C0.0315
T05C0.0320
T06C0.0354
T07C0.0394
T08C0.0400
T09C0.0709
T10C0.0906
T11C0.1260
%
T01
X7387Y7780
X9355Y6993
X7387Y9749
X9355Y12505
X8961Y13686
X9749Y14473
X12898Y16835
X15654Y19198
X16442Y18410
X17623Y16835
X17229Y16442
X18017Y15654
X18804Y15654
X19690Y15753
X19591Y16442
X19198Y17229
X21166Y19198
X21954Y18804
X22816Y18623
X22839Y18017
X20379Y20772
X19591Y20772
X18410Y19985
X20280Y22446
X21166Y21166
X24316Y21560
X25103Y21954
X26678Y21855
X27072Y21855
X27859Y19198
X27269Y18509
X28450Y17820
X28942Y17328
X30418Y17131
X30812Y17131
X31206Y17131
X31599Y17131
X31993Y17131
X29434Y19198
X27269Y16343
X23627Y13981
X17623Y12505
X11324Y10536
X10536Y10536
X13292Y1875
X13686Y1875
X14080Y1875
X14473Y1875
X26678Y6206
X27072Y6206
X27465Y6206
X31206Y13194
X35733Y12505
X38784Y10536
X38784Y10143
X38784Y9749
X38784Y9355
X38587Y5418
X37800Y5418
X37800Y4631
X37013Y4631
X37013Y5418
X36225Y5418
X36225Y4631
X36225Y3843
X36225Y3056
X36225Y2269
X37013Y2269
X37013Y3056
X37800Y3056
X37800Y3843
X37013Y3843
X38587Y3843
X38587Y3056
X37800Y2269
X38587Y4631
X38883Y15654
X34552Y22347
X31698Y25989
X30615Y27859
X31796Y28646
X30812Y29335
X29040Y27465
X33568Y29335
X34749Y27662
X34749Y26678
X36914Y29828
X36914Y30221
X36914Y30615
X17131Y28745
X16343Y28745
X15556Y28745
X13194Y25989
X13194Y25595
X12111Y23922
X10536Y23528
X11028Y25398
X11914Y28154
X11422Y28843
X12111Y30320
X12111Y30812
X12111Y31304
X12111Y31796
X10438Y30320
X8568Y29434
X15729Y23209
X14080Y21166
X13292Y20772
X11717Y21560
X11324Y21166
X10930Y21560
X10143Y21560
X4237Y20379
T02
X15300Y24587
X37300Y21087
T03
X38587Y2269
X1087Y18509
X1087Y19001
X1087Y19493
X1087Y19985
T04
X4981Y28609
X3800Y30499
X34946Y19591
X36914Y19591
T05
X34585Y4481
X33207Y2276
X32105Y3379
X27011Y4481
X25633Y2276
X24530Y3379
X19436Y4481
X18058Y2276
X16956Y3379
T06
X19756Y11180
X20740Y11180
X21527Y11180
X22511Y11180
X27751Y11180
X28736Y11180
X29523Y11180
X30507Y11180
T07
X30741Y24119
X31741Y24119
X32741Y24119
X33741Y24119
X34741Y24119
X35741Y24119
X36741Y24119
X37741Y24119
X29741Y24119
X28741Y24119
X27741Y24119
X26741Y24119
X25741Y24119
X24741Y24119
X23741Y24119
X22776Y24119
X8174Y10979
X8174Y3007
X6162Y30499
T08
X12686Y23135
X13686Y23135
X14686Y23135
X23823Y18513
X23823Y16733
X26383Y16733
X26383Y18513
X5343Y18261
X5343Y17261
X5343Y16261
X5343Y15261
X5343Y14261
X5343Y13261
X5343Y12261
X2662Y10674
X2662Y9674
X2662Y8674
X2662Y7674
X2662Y6674
X2662Y5674
T09
X6072Y24745
X8237Y24745
T10
X18547Y10113
X23720Y10113
X26543Y10113
X31716Y10113
T11
X1481Y2269
X1481Y22347
X28646Y22347
X28646Y2269
M30
