G75*
G70*
%OFA0B0*%
%FSLAX24Y24*%
%IPPOS*%
%LPD*%
%AMOC8*
5,1,8,0,0,1.08239X$1,22.5*
%
%ADD10C,0.0000*%
%ADD11R,0.0060X0.0010*%
%ADD12R,0.0230X0.0010*%
%ADD13R,0.0270X0.0010*%
%ADD14R,0.0210X0.0010*%
%ADD15R,0.0320X0.0010*%
%ADD16R,0.0250X0.0010*%
%ADD17R,0.0390X0.0010*%
%ADD18R,0.0760X0.0010*%
%ADD19R,0.0890X0.0010*%
%ADD20R,0.0940X0.0010*%
%ADD21R,0.0990X0.0010*%
%ADD22R,0.0490X0.0010*%
%ADD23R,0.0160X0.0010*%
%ADD24R,0.0440X0.0010*%
%ADD25R,0.0080X0.0010*%
%ADD26R,0.0420X0.0010*%
%ADD27R,0.0090X0.0010*%
%ADD28R,0.0380X0.0010*%
%ADD29R,0.0010X0.0010*%
%ADD30R,0.0280X0.0010*%
%ADD31R,0.0200X0.0010*%
%ADD32R,0.0100X0.0010*%
%ADD33R,0.0170X0.0010*%
%ADD34R,0.0120X0.0010*%
%ADD35R,0.0150X0.0010*%
%ADD36R,0.0240X0.0010*%
%ADD37R,0.0140X0.0010*%
%ADD38R,0.0110X0.0010*%
%ADD39R,0.0040X0.0010*%
%ADD40R,0.0180X0.0010*%
%ADD41R,0.0190X0.0010*%
%ADD42R,0.0070X0.0010*%
%ADD43R,0.0260X0.0010*%
%ADD44R,0.0290X0.0010*%
%ADD45R,0.0220X0.0010*%
%ADD46R,0.0020X0.0010*%
%ADD47R,0.0030X0.0010*%
%ADD48R,0.0050X0.0010*%
%ADD49R,0.0130X0.0010*%
%ADD50R,0.1810X0.0010*%
%ADD51R,0.1830X0.0010*%
%ADD52R,0.1870X0.0010*%
%ADD53R,0.1910X0.0010*%
%ADD54R,0.1940X0.0010*%
%ADD55R,0.1270X0.0010*%
%ADD56R,0.1300X0.0010*%
%ADD57R,0.1280X0.0010*%
%ADD58R,0.1970X0.0010*%
%ADD59R,0.1370X0.0010*%
%ADD60R,0.1390X0.0010*%
%ADD61R,0.1550X0.0010*%
%ADD62R,0.2000X0.0010*%
%ADD63R,0.1430X0.0010*%
%ADD64R,0.1460X0.0010*%
%ADD65R,0.1570X0.0010*%
%ADD66R,0.2040X0.0010*%
%ADD67R,0.1510X0.0010*%
%ADD68R,0.1520X0.0010*%
%ADD69R,0.1610X0.0010*%
%ADD70R,0.2070X0.0010*%
%ADD71R,0.1580X0.0010*%
%ADD72R,0.1650X0.0010*%
%ADD73R,0.2090X0.0010*%
%ADD74R,0.1630X0.0010*%
%ADD75R,0.1690X0.0010*%
%ADD76R,0.2100X0.0010*%
%ADD77R,0.1680X0.0010*%
%ADD78R,0.1670X0.0010*%
%ADD79R,0.1720X0.0010*%
%ADD80R,0.2110X0.0010*%
%ADD81R,0.1770X0.0010*%
%ADD82R,0.2120X0.0010*%
%ADD83R,0.0300X0.0010*%
%ADD84R,0.1760X0.0010*%
%ADD85R,0.1750X0.0010*%
%ADD86R,0.1780X0.0010*%
%ADD87R,0.1800X0.0010*%
%ADD88R,0.1860X0.0010*%
%ADD89R,0.2130X0.0010*%
%ADD90R,0.0310X0.0010*%
%ADD91R,0.0330X0.0010*%
%ADD92R,0.0350X0.0010*%
%ADD93R,0.0360X0.0010*%
%ADD94R,0.0550X0.0010*%
%ADD95R,0.1960X0.0010*%
%ADD96R,0.0520X0.0010*%
%ADD97R,0.0410X0.0010*%
%ADD98R,0.2210X0.0010*%
%ADD99R,0.1930X0.0010*%
%ADD100R,0.2200X0.0010*%
%ADD101R,0.2190X0.0010*%
%ADD102R,0.1900X0.0010*%
%ADD103R,0.2180X0.0010*%
%ADD104R,0.1920X0.0010*%
%ADD105R,0.1950X0.0010*%
%ADD106R,0.0340X0.0010*%
%ADD107R,0.1980X0.0010*%
%ADD108R,0.1990X0.0010*%
%ADD109R,0.2010X0.0010*%
%ADD110R,0.2020X0.0010*%
%ADD111R,0.0460X0.0010*%
%ADD112R,0.1820X0.0010*%
%ADD113R,0.1410X0.0010*%
%ADD114R,0.0370X0.0010*%
%ADD115R,0.0930X0.0010*%
%ADD116R,0.1060X0.0010*%
%ADD117R,0.1790X0.0010*%
%ADD118R,0.1740X0.0010*%
%ADD119R,0.1700X0.0010*%
%ADD120R,0.2080X0.0010*%
%ADD121R,0.1640X0.0010*%
%ADD122R,0.2060X0.0010*%
%ADD123R,0.1590X0.0010*%
%ADD124R,0.1490X0.0010*%
%ADD125R,0.1560X0.0010*%
%ADD126R,0.1400X0.0010*%
%ADD127R,0.1480X0.0010*%
%ADD128R,0.1350X0.0010*%
%ADD129R,0.1330X0.0010*%
%ADD130R,0.0400X0.0010*%
%ADD131R,0.0430X0.0010*%
%ADD132R,0.0450X0.0010*%
%ADD133R,0.0470X0.0010*%
%ADD134R,0.0480X0.0010*%
%ADD135R,0.0500X0.0010*%
%ADD136R,0.0510X0.0010*%
%ADD137R,0.0530X0.0010*%
%ADD138R,0.0540X0.0010*%
%ADD139R,0.0560X0.0010*%
%ADD140R,0.0570X0.0010*%
%ADD141R,0.0580X0.0010*%
%ADD142R,0.0590X0.0010*%
%ADD143R,0.0600X0.0010*%
%ADD144R,0.0620X0.0010*%
%ADD145R,0.0630X0.0010*%
%ADD146R,0.0700X0.0010*%
%ADD147R,0.0640X0.0010*%
%ADD148R,0.0750X0.0010*%
%ADD149R,0.0650X0.0010*%
%ADD150R,0.0810X0.0010*%
%ADD151R,0.0850X0.0010*%
%ADD152R,0.0660X0.0010*%
%ADD153R,0.0910X0.0010*%
%ADD154R,0.0670X0.0010*%
%ADD155R,0.1010X0.0010*%
%ADD156R,0.1030X0.0010*%
%ADD157R,0.0680X0.0010*%
%ADD158R,0.1040X0.0010*%
%ADD159R,0.0690X0.0010*%
%ADD160R,0.1050X0.0010*%
%ADD161R,0.0710X0.0010*%
%ADD162R,0.1150X0.0010*%
%ADD163R,0.1180X0.0010*%
%ADD164R,0.0720X0.0010*%
%ADD165R,0.2030X0.0010*%
%ADD166R,0.2050X0.0010*%
%ADD167R,0.2140X0.0010*%
%ADD168R,0.2150X0.0010*%
%ADD169R,0.2160X0.0010*%
%ADD170R,0.2170X0.0010*%
%ADD171R,0.3130X0.0010*%
%ADD172R,0.3120X0.0010*%
%ADD173R,0.3110X0.0010*%
%ADD174R,0.3100X0.0010*%
%ADD175R,0.3080X0.0010*%
%ADD176R,0.3060X0.0010*%
%ADD177R,0.3030X0.0010*%
%ADD178R,0.3010X0.0010*%
%ADD179R,0.2990X0.0010*%
%ADD180R,0.2970X0.0010*%
%ADD181R,0.2950X0.0010*%
%ADD182R,0.2920X0.0010*%
%ADD183R,0.2910X0.0010*%
%ADD184R,0.2880X0.0010*%
%ADD185R,0.2850X0.0010*%
%ADD186R,0.2830X0.0010*%
%ADD187R,0.2800X0.0010*%
%ADD188R,0.2780X0.0010*%
%ADD189R,0.2740X0.0010*%
%ADD190R,0.2690X0.0010*%
%ADD191R,0.2630X0.0010*%
%ADD192R,0.2570X0.0010*%
%ADD193R,0.2540X0.0010*%
%ADD194R,0.2520X0.0010*%
%ADD195R,0.2500X0.0010*%
%ADD196R,0.2480X0.0010*%
%ADD197R,0.2360X0.0010*%
%ADD198R,0.2350X0.0010*%
%ADD199R,0.2310X0.0010*%
%ADD200R,0.2290X0.0010*%
%ADD201R,0.2260X0.0010*%
%ADD202R,0.2220X0.0010*%
%ADD203R,0.1530X0.0010*%
%ADD204R,0.1320X0.0010*%
%ADD205R,0.1230X0.0010*%
%ADD206R,0.1190X0.0010*%
%ADD207R,0.1160X0.0010*%
%ADD208R,0.1100X0.0010*%
%ADD209R,0.1070X0.0010*%
%ADD210R,0.1000X0.0010*%
%ADD211R,0.0960X0.0010*%
%ADD212R,0.0920X0.0010*%
%ADD213R,0.0800X0.0010*%
%ADD214C,0.0040*%
%ADD215C,0.0050*%
%ADD216C,0.0080*%
D10*
X005277Y004117D02*
X043073Y004117D01*
X043127Y004119D01*
X043180Y004124D01*
X043233Y004133D01*
X043285Y004146D01*
X043337Y004162D01*
X043387Y004182D01*
X043435Y004205D01*
X043482Y004232D01*
X043527Y004261D01*
X043570Y004294D01*
X043610Y004329D01*
X043648Y004367D01*
X043683Y004407D01*
X043716Y004450D01*
X043745Y004495D01*
X043772Y004542D01*
X043795Y004590D01*
X043815Y004640D01*
X043831Y004692D01*
X043844Y004744D01*
X043853Y004797D01*
X043858Y004850D01*
X043860Y004904D01*
X043860Y034826D01*
X043858Y034880D01*
X043853Y034933D01*
X043844Y034986D01*
X043831Y035038D01*
X043815Y035090D01*
X043795Y035140D01*
X043772Y035188D01*
X043745Y035235D01*
X043716Y035280D01*
X043683Y035323D01*
X043648Y035363D01*
X043610Y035401D01*
X043570Y035436D01*
X043527Y035469D01*
X043482Y035498D01*
X043435Y035525D01*
X043387Y035548D01*
X043337Y035568D01*
X043285Y035584D01*
X043233Y035597D01*
X043180Y035606D01*
X043127Y035611D01*
X043073Y035613D01*
X005277Y035613D01*
X005223Y035611D01*
X005170Y035606D01*
X005117Y035597D01*
X005065Y035584D01*
X005013Y035568D01*
X004963Y035548D01*
X004915Y035525D01*
X004868Y035498D01*
X004823Y035469D01*
X004780Y035436D01*
X004740Y035401D01*
X004702Y035363D01*
X004667Y035323D01*
X004634Y035280D01*
X004605Y035235D01*
X004578Y035188D01*
X004555Y035140D01*
X004535Y035090D01*
X004519Y035038D01*
X004506Y034986D01*
X004497Y034933D01*
X004492Y034880D01*
X004490Y034826D01*
X004490Y004904D01*
X004492Y004850D01*
X004497Y004797D01*
X004506Y004744D01*
X004519Y004692D01*
X004535Y004640D01*
X004555Y004590D01*
X004578Y004542D01*
X004605Y004495D01*
X004634Y004450D01*
X004667Y004407D01*
X004702Y004367D01*
X004740Y004329D01*
X004780Y004294D01*
X004823Y004261D01*
X004868Y004232D01*
X004915Y004205D01*
X004963Y004182D01*
X005013Y004162D01*
X005065Y004146D01*
X005117Y004133D01*
X005170Y004124D01*
X005223Y004119D01*
X005277Y004117D01*
X005041Y005298D02*
X005043Y005348D01*
X005049Y005398D01*
X005059Y005447D01*
X005073Y005495D01*
X005090Y005542D01*
X005111Y005587D01*
X005136Y005631D01*
X005164Y005672D01*
X005196Y005711D01*
X005230Y005748D01*
X005267Y005782D01*
X005307Y005812D01*
X005349Y005839D01*
X005393Y005863D01*
X005439Y005884D01*
X005486Y005900D01*
X005534Y005913D01*
X005584Y005922D01*
X005633Y005927D01*
X005684Y005928D01*
X005734Y005925D01*
X005783Y005918D01*
X005832Y005907D01*
X005880Y005892D01*
X005926Y005874D01*
X005971Y005852D01*
X006014Y005826D01*
X006055Y005797D01*
X006094Y005765D01*
X006130Y005730D01*
X006162Y005692D01*
X006192Y005652D01*
X006219Y005609D01*
X006242Y005565D01*
X006261Y005519D01*
X006277Y005471D01*
X006289Y005422D01*
X006297Y005373D01*
X006301Y005323D01*
X006301Y005273D01*
X006297Y005223D01*
X006289Y005174D01*
X006277Y005125D01*
X006261Y005077D01*
X006242Y005031D01*
X006219Y004987D01*
X006192Y004944D01*
X006162Y004904D01*
X006130Y004866D01*
X006094Y004831D01*
X006055Y004799D01*
X006014Y004770D01*
X005971Y004744D01*
X005926Y004722D01*
X005880Y004704D01*
X005832Y004689D01*
X005783Y004678D01*
X005734Y004671D01*
X005684Y004668D01*
X005633Y004669D01*
X005584Y004674D01*
X005534Y004683D01*
X005486Y004696D01*
X005439Y004712D01*
X005393Y004733D01*
X005349Y004757D01*
X005307Y004784D01*
X005267Y004814D01*
X005230Y004848D01*
X005196Y004885D01*
X005164Y004924D01*
X005136Y004965D01*
X005111Y005009D01*
X005090Y005054D01*
X005073Y005101D01*
X005059Y005149D01*
X005049Y005198D01*
X005043Y005248D01*
X005041Y005298D01*
X020083Y005306D02*
X020085Y005336D01*
X020091Y005366D01*
X020100Y005395D01*
X020113Y005422D01*
X020130Y005447D01*
X020149Y005470D01*
X020172Y005491D01*
X020197Y005508D01*
X020223Y005522D01*
X020252Y005532D01*
X020281Y005539D01*
X020311Y005542D01*
X020342Y005541D01*
X020372Y005536D01*
X020401Y005527D01*
X020428Y005515D01*
X020454Y005500D01*
X020478Y005481D01*
X020499Y005459D01*
X020517Y005435D01*
X020532Y005408D01*
X020543Y005380D01*
X020551Y005351D01*
X020555Y005321D01*
X020555Y005291D01*
X020551Y005261D01*
X020543Y005232D01*
X020532Y005204D01*
X020517Y005177D01*
X020499Y005153D01*
X020478Y005131D01*
X020454Y005112D01*
X020428Y005097D01*
X020401Y005085D01*
X020372Y005076D01*
X020342Y005071D01*
X020311Y005070D01*
X020281Y005073D01*
X020252Y005080D01*
X020223Y005090D01*
X020197Y005104D01*
X020172Y005121D01*
X020149Y005142D01*
X020130Y005165D01*
X020113Y005190D01*
X020100Y005217D01*
X020091Y005246D01*
X020085Y005276D01*
X020083Y005306D01*
X022839Y005306D02*
X022841Y005336D01*
X022847Y005366D01*
X022856Y005395D01*
X022869Y005422D01*
X022886Y005447D01*
X022905Y005470D01*
X022928Y005491D01*
X022953Y005508D01*
X022979Y005522D01*
X023008Y005532D01*
X023037Y005539D01*
X023067Y005542D01*
X023098Y005541D01*
X023128Y005536D01*
X023157Y005527D01*
X023184Y005515D01*
X023210Y005500D01*
X023234Y005481D01*
X023255Y005459D01*
X023273Y005435D01*
X023288Y005408D01*
X023299Y005380D01*
X023307Y005351D01*
X023311Y005321D01*
X023311Y005291D01*
X023307Y005261D01*
X023299Y005232D01*
X023288Y005204D01*
X023273Y005177D01*
X023255Y005153D01*
X023234Y005131D01*
X023210Y005112D01*
X023184Y005097D01*
X023157Y005085D01*
X023128Y005076D01*
X023098Y005071D01*
X023067Y005070D01*
X023037Y005073D01*
X023008Y005080D01*
X022979Y005090D01*
X022953Y005104D01*
X022928Y005121D01*
X022905Y005142D01*
X022886Y005165D01*
X022869Y005190D01*
X022856Y005217D01*
X022847Y005246D01*
X022841Y005276D01*
X022839Y005306D01*
X022839Y008377D02*
X022841Y008407D01*
X022847Y008437D01*
X022856Y008466D01*
X022869Y008493D01*
X022886Y008518D01*
X022905Y008541D01*
X022928Y008562D01*
X022953Y008579D01*
X022979Y008593D01*
X023008Y008603D01*
X023037Y008610D01*
X023067Y008613D01*
X023098Y008612D01*
X023128Y008607D01*
X023157Y008598D01*
X023184Y008586D01*
X023210Y008571D01*
X023234Y008552D01*
X023255Y008530D01*
X023273Y008506D01*
X023288Y008479D01*
X023299Y008451D01*
X023307Y008422D01*
X023311Y008392D01*
X023311Y008362D01*
X023307Y008332D01*
X023299Y008303D01*
X023288Y008275D01*
X023273Y008248D01*
X023255Y008224D01*
X023234Y008202D01*
X023210Y008183D01*
X023184Y008168D01*
X023157Y008156D01*
X023128Y008147D01*
X023098Y008142D01*
X023067Y008141D01*
X023037Y008144D01*
X023008Y008151D01*
X022979Y008161D01*
X022953Y008175D01*
X022928Y008192D01*
X022905Y008213D01*
X022886Y008236D01*
X022869Y008261D01*
X022856Y008288D01*
X022847Y008317D01*
X022841Y008347D01*
X022839Y008377D01*
X020083Y008377D02*
X020085Y008407D01*
X020091Y008437D01*
X020100Y008466D01*
X020113Y008493D01*
X020130Y008518D01*
X020149Y008541D01*
X020172Y008562D01*
X020197Y008579D01*
X020223Y008593D01*
X020252Y008603D01*
X020281Y008610D01*
X020311Y008613D01*
X020342Y008612D01*
X020372Y008607D01*
X020401Y008598D01*
X020428Y008586D01*
X020454Y008571D01*
X020478Y008552D01*
X020499Y008530D01*
X020517Y008506D01*
X020532Y008479D01*
X020543Y008451D01*
X020551Y008422D01*
X020555Y008392D01*
X020555Y008362D01*
X020551Y008332D01*
X020543Y008303D01*
X020532Y008275D01*
X020517Y008248D01*
X020499Y008224D01*
X020478Y008202D01*
X020454Y008183D01*
X020428Y008168D01*
X020401Y008156D01*
X020372Y008147D01*
X020342Y008142D01*
X020311Y008141D01*
X020281Y008144D01*
X020252Y008151D01*
X020223Y008161D01*
X020197Y008175D01*
X020172Y008192D01*
X020149Y008213D01*
X020130Y008236D01*
X020113Y008261D01*
X020100Y008288D01*
X020091Y008317D01*
X020085Y008347D01*
X020083Y008377D01*
X027658Y008377D02*
X027660Y008407D01*
X027666Y008437D01*
X027675Y008466D01*
X027688Y008493D01*
X027705Y008518D01*
X027724Y008541D01*
X027747Y008562D01*
X027772Y008579D01*
X027798Y008593D01*
X027827Y008603D01*
X027856Y008610D01*
X027886Y008613D01*
X027917Y008612D01*
X027947Y008607D01*
X027976Y008598D01*
X028003Y008586D01*
X028029Y008571D01*
X028053Y008552D01*
X028074Y008530D01*
X028092Y008506D01*
X028107Y008479D01*
X028118Y008451D01*
X028126Y008422D01*
X028130Y008392D01*
X028130Y008362D01*
X028126Y008332D01*
X028118Y008303D01*
X028107Y008275D01*
X028092Y008248D01*
X028074Y008224D01*
X028053Y008202D01*
X028029Y008183D01*
X028003Y008168D01*
X027976Y008156D01*
X027947Y008147D01*
X027917Y008142D01*
X027886Y008141D01*
X027856Y008144D01*
X027827Y008151D01*
X027798Y008161D01*
X027772Y008175D01*
X027747Y008192D01*
X027724Y008213D01*
X027705Y008236D01*
X027688Y008261D01*
X027675Y008288D01*
X027666Y008317D01*
X027660Y008347D01*
X027658Y008377D01*
X030413Y008377D02*
X030415Y008407D01*
X030421Y008437D01*
X030430Y008466D01*
X030443Y008493D01*
X030460Y008518D01*
X030479Y008541D01*
X030502Y008562D01*
X030527Y008579D01*
X030553Y008593D01*
X030582Y008603D01*
X030611Y008610D01*
X030641Y008613D01*
X030672Y008612D01*
X030702Y008607D01*
X030731Y008598D01*
X030758Y008586D01*
X030784Y008571D01*
X030808Y008552D01*
X030829Y008530D01*
X030847Y008506D01*
X030862Y008479D01*
X030873Y008451D01*
X030881Y008422D01*
X030885Y008392D01*
X030885Y008362D01*
X030881Y008332D01*
X030873Y008303D01*
X030862Y008275D01*
X030847Y008248D01*
X030829Y008224D01*
X030808Y008202D01*
X030784Y008183D01*
X030758Y008168D01*
X030731Y008156D01*
X030702Y008147D01*
X030672Y008142D01*
X030641Y008141D01*
X030611Y008144D01*
X030582Y008151D01*
X030553Y008161D01*
X030527Y008175D01*
X030502Y008192D01*
X030479Y008213D01*
X030460Y008236D01*
X030443Y008261D01*
X030430Y008288D01*
X030421Y008317D01*
X030415Y008347D01*
X030413Y008377D01*
X030413Y005306D02*
X030415Y005336D01*
X030421Y005366D01*
X030430Y005395D01*
X030443Y005422D01*
X030460Y005447D01*
X030479Y005470D01*
X030502Y005491D01*
X030527Y005508D01*
X030553Y005522D01*
X030582Y005532D01*
X030611Y005539D01*
X030641Y005542D01*
X030672Y005541D01*
X030702Y005536D01*
X030731Y005527D01*
X030758Y005515D01*
X030784Y005500D01*
X030808Y005481D01*
X030829Y005459D01*
X030847Y005435D01*
X030862Y005408D01*
X030873Y005380D01*
X030881Y005351D01*
X030885Y005321D01*
X030885Y005291D01*
X030881Y005261D01*
X030873Y005232D01*
X030862Y005204D01*
X030847Y005177D01*
X030829Y005153D01*
X030808Y005131D01*
X030784Y005112D01*
X030758Y005097D01*
X030731Y005085D01*
X030702Y005076D01*
X030672Y005071D01*
X030641Y005070D01*
X030611Y005073D01*
X030582Y005080D01*
X030553Y005090D01*
X030527Y005104D01*
X030502Y005121D01*
X030479Y005142D01*
X030460Y005165D01*
X030443Y005190D01*
X030430Y005217D01*
X030421Y005246D01*
X030415Y005276D01*
X030413Y005306D01*
X027658Y005306D02*
X027660Y005336D01*
X027666Y005366D01*
X027675Y005395D01*
X027688Y005422D01*
X027705Y005447D01*
X027724Y005470D01*
X027747Y005491D01*
X027772Y005508D01*
X027798Y005522D01*
X027827Y005532D01*
X027856Y005539D01*
X027886Y005542D01*
X027917Y005541D01*
X027947Y005536D01*
X027976Y005527D01*
X028003Y005515D01*
X028029Y005500D01*
X028053Y005481D01*
X028074Y005459D01*
X028092Y005435D01*
X028107Y005408D01*
X028118Y005380D01*
X028126Y005351D01*
X028130Y005321D01*
X028130Y005291D01*
X028126Y005261D01*
X028118Y005232D01*
X028107Y005204D01*
X028092Y005177D01*
X028074Y005153D01*
X028053Y005131D01*
X028029Y005112D01*
X028003Y005097D01*
X027976Y005085D01*
X027947Y005076D01*
X027917Y005071D01*
X027886Y005070D01*
X027856Y005073D01*
X027827Y005080D01*
X027798Y005090D01*
X027772Y005104D01*
X027747Y005121D01*
X027724Y005142D01*
X027705Y005165D01*
X027688Y005190D01*
X027675Y005217D01*
X027666Y005246D01*
X027660Y005276D01*
X027658Y005306D01*
X035232Y005306D02*
X035234Y005336D01*
X035240Y005366D01*
X035249Y005395D01*
X035262Y005422D01*
X035279Y005447D01*
X035298Y005470D01*
X035321Y005491D01*
X035346Y005508D01*
X035372Y005522D01*
X035401Y005532D01*
X035430Y005539D01*
X035460Y005542D01*
X035491Y005541D01*
X035521Y005536D01*
X035550Y005527D01*
X035577Y005515D01*
X035603Y005500D01*
X035627Y005481D01*
X035648Y005459D01*
X035666Y005435D01*
X035681Y005408D01*
X035692Y005380D01*
X035700Y005351D01*
X035704Y005321D01*
X035704Y005291D01*
X035700Y005261D01*
X035692Y005232D01*
X035681Y005204D01*
X035666Y005177D01*
X035648Y005153D01*
X035627Y005131D01*
X035603Y005112D01*
X035577Y005097D01*
X035550Y005085D01*
X035521Y005076D01*
X035491Y005071D01*
X035460Y005070D01*
X035430Y005073D01*
X035401Y005080D01*
X035372Y005090D01*
X035346Y005104D01*
X035321Y005121D01*
X035298Y005142D01*
X035279Y005165D01*
X035262Y005190D01*
X035249Y005217D01*
X035240Y005246D01*
X035234Y005276D01*
X035232Y005306D01*
X037988Y005306D02*
X037990Y005336D01*
X037996Y005366D01*
X038005Y005395D01*
X038018Y005422D01*
X038035Y005447D01*
X038054Y005470D01*
X038077Y005491D01*
X038102Y005508D01*
X038128Y005522D01*
X038157Y005532D01*
X038186Y005539D01*
X038216Y005542D01*
X038247Y005541D01*
X038277Y005536D01*
X038306Y005527D01*
X038333Y005515D01*
X038359Y005500D01*
X038383Y005481D01*
X038404Y005459D01*
X038422Y005435D01*
X038437Y005408D01*
X038448Y005380D01*
X038456Y005351D01*
X038460Y005321D01*
X038460Y005291D01*
X038456Y005261D01*
X038448Y005232D01*
X038437Y005204D01*
X038422Y005177D01*
X038404Y005153D01*
X038383Y005131D01*
X038359Y005112D01*
X038333Y005097D01*
X038306Y005085D01*
X038277Y005076D01*
X038247Y005071D01*
X038216Y005070D01*
X038186Y005073D01*
X038157Y005080D01*
X038128Y005090D01*
X038102Y005104D01*
X038077Y005121D01*
X038054Y005142D01*
X038035Y005165D01*
X038018Y005190D01*
X038005Y005217D01*
X037996Y005246D01*
X037990Y005276D01*
X037988Y005306D01*
X037988Y008377D02*
X037990Y008407D01*
X037996Y008437D01*
X038005Y008466D01*
X038018Y008493D01*
X038035Y008518D01*
X038054Y008541D01*
X038077Y008562D01*
X038102Y008579D01*
X038128Y008593D01*
X038157Y008603D01*
X038186Y008610D01*
X038216Y008613D01*
X038247Y008612D01*
X038277Y008607D01*
X038306Y008598D01*
X038333Y008586D01*
X038359Y008571D01*
X038383Y008552D01*
X038404Y008530D01*
X038422Y008506D01*
X038437Y008479D01*
X038448Y008451D01*
X038456Y008422D01*
X038460Y008392D01*
X038460Y008362D01*
X038456Y008332D01*
X038448Y008303D01*
X038437Y008275D01*
X038422Y008248D01*
X038404Y008224D01*
X038383Y008202D01*
X038359Y008183D01*
X038333Y008168D01*
X038306Y008156D01*
X038277Y008147D01*
X038247Y008142D01*
X038216Y008141D01*
X038186Y008144D01*
X038157Y008151D01*
X038128Y008161D01*
X038102Y008175D01*
X038077Y008192D01*
X038054Y008213D01*
X038035Y008236D01*
X038018Y008261D01*
X038005Y008288D01*
X037996Y008317D01*
X037990Y008347D01*
X037988Y008377D01*
X035232Y008377D02*
X035234Y008407D01*
X035240Y008437D01*
X035249Y008466D01*
X035262Y008493D01*
X035279Y008518D01*
X035298Y008541D01*
X035321Y008562D01*
X035346Y008579D01*
X035372Y008593D01*
X035401Y008603D01*
X035430Y008610D01*
X035460Y008613D01*
X035491Y008612D01*
X035521Y008607D01*
X035550Y008598D01*
X035577Y008586D01*
X035603Y008571D01*
X035627Y008552D01*
X035648Y008530D01*
X035666Y008506D01*
X035681Y008479D01*
X035692Y008451D01*
X035700Y008422D01*
X035704Y008392D01*
X035704Y008362D01*
X035700Y008332D01*
X035692Y008303D01*
X035681Y008275D01*
X035666Y008248D01*
X035648Y008224D01*
X035627Y008202D01*
X035603Y008183D01*
X035577Y008168D01*
X035550Y008156D01*
X035521Y008147D01*
X035491Y008142D01*
X035460Y008141D01*
X035430Y008144D01*
X035401Y008151D01*
X035372Y008161D01*
X035346Y008175D01*
X035321Y008192D01*
X035298Y008213D01*
X035279Y008236D01*
X035262Y008261D01*
X035249Y008288D01*
X035240Y008317D01*
X035234Y008347D01*
X035232Y008377D01*
X042049Y005298D02*
X042051Y005348D01*
X042057Y005398D01*
X042067Y005447D01*
X042081Y005495D01*
X042098Y005542D01*
X042119Y005587D01*
X042144Y005631D01*
X042172Y005672D01*
X042204Y005711D01*
X042238Y005748D01*
X042275Y005782D01*
X042315Y005812D01*
X042357Y005839D01*
X042401Y005863D01*
X042447Y005884D01*
X042494Y005900D01*
X042542Y005913D01*
X042592Y005922D01*
X042641Y005927D01*
X042692Y005928D01*
X042742Y005925D01*
X042791Y005918D01*
X042840Y005907D01*
X042888Y005892D01*
X042934Y005874D01*
X042979Y005852D01*
X043022Y005826D01*
X043063Y005797D01*
X043102Y005765D01*
X043138Y005730D01*
X043170Y005692D01*
X043200Y005652D01*
X043227Y005609D01*
X043250Y005565D01*
X043269Y005519D01*
X043285Y005471D01*
X043297Y005422D01*
X043305Y005373D01*
X043309Y005323D01*
X043309Y005273D01*
X043305Y005223D01*
X043297Y005174D01*
X043285Y005125D01*
X043269Y005077D01*
X043250Y005031D01*
X043227Y004987D01*
X043200Y004944D01*
X043170Y004904D01*
X043138Y004866D01*
X043102Y004831D01*
X043063Y004799D01*
X043022Y004770D01*
X042979Y004744D01*
X042934Y004722D01*
X042888Y004704D01*
X042840Y004689D01*
X042791Y004678D01*
X042742Y004671D01*
X042692Y004668D01*
X042641Y004669D01*
X042592Y004674D01*
X042542Y004683D01*
X042494Y004696D01*
X042447Y004712D01*
X042401Y004733D01*
X042357Y004757D01*
X042315Y004784D01*
X042275Y004814D01*
X042238Y004848D01*
X042204Y004885D01*
X042172Y004924D01*
X042144Y004965D01*
X042119Y005009D01*
X042098Y005054D01*
X042081Y005101D01*
X042067Y005149D01*
X042057Y005198D01*
X042051Y005248D01*
X042049Y005298D01*
X042049Y034432D02*
X042051Y034482D01*
X042057Y034532D01*
X042067Y034581D01*
X042081Y034629D01*
X042098Y034676D01*
X042119Y034721D01*
X042144Y034765D01*
X042172Y034806D01*
X042204Y034845D01*
X042238Y034882D01*
X042275Y034916D01*
X042315Y034946D01*
X042357Y034973D01*
X042401Y034997D01*
X042447Y035018D01*
X042494Y035034D01*
X042542Y035047D01*
X042592Y035056D01*
X042641Y035061D01*
X042692Y035062D01*
X042742Y035059D01*
X042791Y035052D01*
X042840Y035041D01*
X042888Y035026D01*
X042934Y035008D01*
X042979Y034986D01*
X043022Y034960D01*
X043063Y034931D01*
X043102Y034899D01*
X043138Y034864D01*
X043170Y034826D01*
X043200Y034786D01*
X043227Y034743D01*
X043250Y034699D01*
X043269Y034653D01*
X043285Y034605D01*
X043297Y034556D01*
X043305Y034507D01*
X043309Y034457D01*
X043309Y034407D01*
X043305Y034357D01*
X043297Y034308D01*
X043285Y034259D01*
X043269Y034211D01*
X043250Y034165D01*
X043227Y034121D01*
X043200Y034078D01*
X043170Y034038D01*
X043138Y034000D01*
X043102Y033965D01*
X043063Y033933D01*
X043022Y033904D01*
X042979Y033878D01*
X042934Y033856D01*
X042888Y033838D01*
X042840Y033823D01*
X042791Y033812D01*
X042742Y033805D01*
X042692Y033802D01*
X042641Y033803D01*
X042592Y033808D01*
X042542Y033817D01*
X042494Y033830D01*
X042447Y033846D01*
X042401Y033867D01*
X042357Y033891D01*
X042315Y033918D01*
X042275Y033948D01*
X042238Y033982D01*
X042204Y034019D01*
X042172Y034058D01*
X042144Y034099D01*
X042119Y034143D01*
X042098Y034188D01*
X042081Y034235D01*
X042067Y034283D01*
X042057Y034332D01*
X042051Y034382D01*
X042049Y034432D01*
X005041Y034432D02*
X005043Y034482D01*
X005049Y034532D01*
X005059Y034581D01*
X005073Y034629D01*
X005090Y034676D01*
X005111Y034721D01*
X005136Y034765D01*
X005164Y034806D01*
X005196Y034845D01*
X005230Y034882D01*
X005267Y034916D01*
X005307Y034946D01*
X005349Y034973D01*
X005393Y034997D01*
X005439Y035018D01*
X005486Y035034D01*
X005534Y035047D01*
X005584Y035056D01*
X005633Y035061D01*
X005684Y035062D01*
X005734Y035059D01*
X005783Y035052D01*
X005832Y035041D01*
X005880Y035026D01*
X005926Y035008D01*
X005971Y034986D01*
X006014Y034960D01*
X006055Y034931D01*
X006094Y034899D01*
X006130Y034864D01*
X006162Y034826D01*
X006192Y034786D01*
X006219Y034743D01*
X006242Y034699D01*
X006261Y034653D01*
X006277Y034605D01*
X006289Y034556D01*
X006297Y034507D01*
X006301Y034457D01*
X006301Y034407D01*
X006297Y034357D01*
X006289Y034308D01*
X006277Y034259D01*
X006261Y034211D01*
X006242Y034165D01*
X006219Y034121D01*
X006192Y034078D01*
X006162Y034038D01*
X006130Y034000D01*
X006094Y033965D01*
X006055Y033933D01*
X006014Y033904D01*
X005971Y033878D01*
X005926Y033856D01*
X005880Y033838D01*
X005832Y033823D01*
X005783Y033812D01*
X005734Y033805D01*
X005684Y033802D01*
X005633Y033803D01*
X005584Y033808D01*
X005534Y033817D01*
X005486Y033830D01*
X005439Y033846D01*
X005393Y033867D01*
X005349Y033891D01*
X005307Y033918D01*
X005267Y033948D01*
X005230Y033982D01*
X005196Y034019D01*
X005164Y034058D01*
X005136Y034099D01*
X005111Y034143D01*
X005090Y034188D01*
X005073Y034235D01*
X005059Y034283D01*
X005049Y034332D01*
X005043Y034382D01*
X005041Y034432D01*
D11*
X007210Y029648D03*
X007210Y029638D03*
X007210Y029628D03*
X007210Y029618D03*
X007210Y029608D03*
X007210Y029598D03*
X007210Y029588D03*
X007210Y029548D03*
X007210Y029538D03*
X007210Y029528D03*
X007210Y029518D03*
X007210Y029508D03*
X007210Y029498D03*
X007210Y029488D03*
X007210Y029478D03*
X007210Y029468D03*
X007220Y029438D03*
X007220Y029038D03*
X007220Y029028D03*
X007220Y029018D03*
X007210Y028998D03*
X007210Y028988D03*
X007210Y028978D03*
X007210Y028958D03*
X007210Y028948D03*
X007210Y028938D03*
X007210Y028928D03*
X007210Y028918D03*
X007210Y028908D03*
X007210Y028898D03*
X007210Y028888D03*
X007210Y028878D03*
X007210Y028868D03*
X007210Y028838D03*
X007210Y028828D03*
X007210Y028818D03*
X007210Y028808D03*
X007210Y028798D03*
X007210Y028788D03*
X009300Y029008D03*
X009300Y029018D03*
X009300Y029028D03*
X009310Y028938D03*
X009310Y028928D03*
X009310Y028918D03*
X009310Y028908D03*
X009600Y029078D03*
X009590Y029098D03*
X009590Y029108D03*
X009590Y029118D03*
X009590Y029128D03*
X009590Y029138D03*
X009590Y029148D03*
X009590Y029158D03*
X009590Y029168D03*
X009590Y029178D03*
X009590Y029188D03*
X009590Y029198D03*
X009590Y029208D03*
X009590Y029218D03*
X009590Y029228D03*
X009590Y029238D03*
X009590Y029248D03*
X009590Y029258D03*
X009590Y029268D03*
X009590Y029278D03*
X009590Y029288D03*
X009590Y029298D03*
X009590Y029308D03*
X009590Y029318D03*
X009590Y029328D03*
X009590Y029338D03*
X009590Y029348D03*
X009600Y029408D03*
X009600Y029418D03*
X009300Y029438D03*
X009310Y029618D03*
X009310Y029628D03*
X009310Y029638D03*
X009310Y029648D03*
X011520Y029408D03*
X011520Y029238D03*
X011520Y029228D03*
X011520Y029218D03*
X011520Y029208D03*
X011520Y029198D03*
X011520Y029148D03*
X011520Y029138D03*
X011520Y029128D03*
X011520Y029118D03*
X011520Y029108D03*
X011520Y029058D03*
X011520Y029048D03*
X011520Y029038D03*
X011520Y029028D03*
X011520Y029018D03*
X011800Y029018D03*
X011800Y029028D03*
X011800Y029038D03*
X011800Y029048D03*
X011800Y029058D03*
X011800Y029068D03*
X011800Y029078D03*
X011800Y029088D03*
X011800Y029098D03*
X011800Y029108D03*
X011800Y029118D03*
X011800Y029128D03*
X011800Y029138D03*
X011800Y029148D03*
X011800Y029158D03*
X011800Y029168D03*
X011800Y029178D03*
X011800Y029188D03*
X011800Y029198D03*
X011800Y029208D03*
X011800Y029218D03*
X011800Y029228D03*
X011800Y029238D03*
X011800Y029248D03*
X011800Y029258D03*
X011800Y029268D03*
X011800Y029278D03*
X011800Y029288D03*
X011800Y029298D03*
X011800Y029308D03*
X011800Y029318D03*
X011800Y029328D03*
X011800Y029338D03*
X011800Y029348D03*
X011800Y029358D03*
X011800Y029368D03*
X011800Y029378D03*
X011800Y029008D03*
X011800Y028998D03*
X011800Y028988D03*
X011800Y028978D03*
X011800Y028968D03*
X011800Y028958D03*
X011800Y028948D03*
X011800Y028938D03*
X011800Y028928D03*
X011800Y028918D03*
X011800Y028908D03*
X011800Y028898D03*
X011800Y028888D03*
X011800Y028878D03*
X011800Y028868D03*
X011800Y028858D03*
X011800Y028848D03*
X011800Y028838D03*
X011800Y028828D03*
X011800Y028818D03*
X011800Y028808D03*
X011800Y028798D03*
X011800Y028788D03*
X013740Y028788D03*
X013740Y028798D03*
X013740Y028808D03*
X013740Y028818D03*
X013740Y028828D03*
X013740Y028838D03*
X013740Y028848D03*
X013740Y028858D03*
X013740Y028868D03*
X013740Y028878D03*
X013740Y028888D03*
X013740Y028898D03*
X013740Y028908D03*
X013740Y028918D03*
X013740Y028928D03*
X013740Y028938D03*
X013740Y028948D03*
X013740Y028958D03*
X013740Y028968D03*
X013740Y028978D03*
X013740Y028988D03*
X013740Y028998D03*
X013740Y029008D03*
X013740Y029018D03*
X013740Y029028D03*
X013740Y029038D03*
X013740Y029048D03*
X013740Y029058D03*
X013740Y029068D03*
X013740Y029078D03*
X013740Y029088D03*
X013740Y029098D03*
X013740Y029108D03*
X013740Y029118D03*
X013740Y029128D03*
X013740Y029138D03*
X013740Y029148D03*
X013740Y029158D03*
X013740Y029168D03*
X013740Y029178D03*
X013740Y029188D03*
X013740Y029198D03*
X013740Y029208D03*
X013740Y029218D03*
X013740Y029228D03*
X013740Y029288D03*
X013740Y029298D03*
X013740Y029308D03*
X013740Y029318D03*
X013740Y029328D03*
X013740Y029368D03*
X013740Y029378D03*
X013740Y029388D03*
X014040Y029608D03*
X014040Y029618D03*
X014040Y029628D03*
X014040Y029638D03*
X014040Y029648D03*
X014340Y029648D03*
X014340Y029658D03*
X014340Y029638D03*
X014340Y029628D03*
X014340Y029618D03*
X014340Y029608D03*
X014340Y029598D03*
X014340Y029588D03*
X014340Y029578D03*
X014340Y029568D03*
X014340Y029558D03*
X014340Y029548D03*
X014340Y029538D03*
X014340Y029528D03*
X014340Y029518D03*
X014340Y029508D03*
X014340Y029498D03*
X014340Y029488D03*
X014340Y029478D03*
X014340Y029468D03*
X014340Y029458D03*
X014340Y029448D03*
X014340Y029438D03*
X014340Y029428D03*
X014340Y029418D03*
X014340Y029408D03*
X014340Y029398D03*
X014340Y029388D03*
X014340Y029378D03*
X014340Y029368D03*
X014340Y029358D03*
X014340Y029348D03*
X014340Y029338D03*
X014340Y029328D03*
X014340Y029318D03*
X014340Y029308D03*
X014340Y029298D03*
X014340Y029288D03*
X014340Y029278D03*
X014340Y029268D03*
X014340Y029258D03*
X014340Y029248D03*
X014340Y029238D03*
X014340Y029228D03*
X014340Y029218D03*
X014340Y029208D03*
X014340Y029198D03*
X014340Y029128D03*
X014340Y029118D03*
X014340Y029108D03*
X014340Y029098D03*
X014340Y029088D03*
X014340Y029078D03*
X014340Y029068D03*
X014340Y029058D03*
X014350Y029038D03*
X014350Y029028D03*
X013740Y028778D03*
X016280Y029038D03*
X016280Y029048D03*
X016280Y029058D03*
X016290Y029078D03*
X016290Y029088D03*
X016280Y029108D03*
X016280Y029118D03*
X016280Y029128D03*
X016280Y029138D03*
X016280Y029148D03*
X016280Y029158D03*
X016280Y029168D03*
X016280Y029178D03*
X016280Y029188D03*
X016280Y029198D03*
X016280Y029208D03*
X016280Y029218D03*
X016280Y029228D03*
X016280Y029238D03*
X016280Y029248D03*
X016280Y029258D03*
X016280Y029268D03*
X016280Y029278D03*
X016280Y029288D03*
X016280Y029298D03*
X016280Y029308D03*
X016280Y029318D03*
X016280Y029328D03*
X016280Y029338D03*
X016280Y029348D03*
X016280Y029358D03*
X016280Y029368D03*
X016280Y029378D03*
X016280Y029388D03*
X016280Y029398D03*
X016280Y029408D03*
X016280Y029418D03*
X016280Y029428D03*
X016280Y029438D03*
X016280Y029448D03*
X016280Y029458D03*
X016280Y029468D03*
X016280Y029478D03*
X016280Y029488D03*
X016280Y029498D03*
X016280Y029508D03*
X016280Y029518D03*
X016280Y029528D03*
X016280Y029538D03*
X016280Y029548D03*
X016280Y029558D03*
X016280Y029568D03*
X016280Y029578D03*
X016280Y029588D03*
X016280Y029598D03*
X016280Y029608D03*
X016280Y029618D03*
X016280Y029628D03*
X016280Y029638D03*
X016280Y029648D03*
X016280Y029658D03*
X016280Y029668D03*
X016520Y029398D03*
X016520Y029388D03*
X016520Y029378D03*
X016520Y029368D03*
X016520Y029358D03*
X016520Y029348D03*
X016520Y029338D03*
X016520Y029268D03*
X016520Y029258D03*
X016520Y029248D03*
X016520Y029238D03*
X016520Y029228D03*
X016520Y029218D03*
X016520Y029208D03*
X016520Y029198D03*
X016520Y029188D03*
X016520Y029178D03*
X016520Y029168D03*
X016520Y029158D03*
X016520Y029148D03*
X016520Y029138D03*
X016520Y029128D03*
X016520Y029118D03*
X016520Y029108D03*
X016520Y029098D03*
X016520Y029088D03*
X016520Y029078D03*
X016520Y029068D03*
X016520Y029058D03*
X018890Y030168D03*
X018890Y030178D03*
X019040Y030488D03*
X019040Y030498D03*
X019080Y030538D03*
X019090Y030558D03*
X019090Y030568D03*
X019090Y030578D03*
X019200Y030728D03*
X019210Y030738D03*
X019210Y030748D03*
X019220Y030758D03*
X019230Y030778D03*
X019240Y030788D03*
X019250Y030798D03*
X019260Y030808D03*
X019270Y030828D03*
X019280Y030838D03*
X019290Y030848D03*
X019300Y030858D03*
X019310Y030868D03*
X019320Y030878D03*
X019330Y030888D03*
X019340Y030898D03*
X019340Y030908D03*
X019350Y030918D03*
X019360Y030928D03*
X019430Y030998D03*
X019490Y031038D03*
X019580Y031128D03*
X023040Y030618D03*
X023460Y028238D03*
X023450Y028228D03*
X021270Y026728D03*
X020210Y026998D03*
X019940Y027068D03*
D12*
X019705Y027238D03*
X019675Y027258D03*
X019665Y027268D03*
X019295Y027598D03*
X019165Y027758D03*
X019165Y027768D03*
X019115Y027838D03*
X019105Y027848D03*
X019095Y027858D03*
X019085Y027868D03*
X019075Y027878D03*
X019075Y027888D03*
X019065Y027898D03*
X019065Y027908D03*
X020715Y029108D03*
X020715Y029438D03*
X020105Y031488D03*
X016685Y028878D03*
X021315Y026738D03*
X023645Y028528D03*
X023655Y028548D03*
X011395Y028898D03*
X011385Y029548D03*
X009755Y029558D03*
X009735Y028888D03*
X007395Y029188D03*
D13*
X011345Y029568D03*
X011355Y028878D03*
X013565Y029568D03*
X014515Y028878D03*
X018355Y028888D03*
X019235Y027648D03*
X019355Y027518D03*
X019385Y027488D03*
X019455Y027428D03*
X020685Y028938D03*
X020695Y029458D03*
X020685Y029468D03*
X020135Y031508D03*
X023735Y028748D03*
X023725Y028728D03*
X023715Y028698D03*
X023715Y028688D03*
X023705Y028678D03*
X021295Y026748D03*
D14*
X020885Y026758D03*
X020415Y026918D03*
X020395Y026928D03*
X019735Y027218D03*
X019725Y027228D03*
X019655Y027278D03*
X019645Y027288D03*
X019635Y027308D03*
X019435Y027478D03*
X019145Y027798D03*
X019135Y027808D03*
X019055Y027918D03*
X019005Y027998D03*
X019005Y028008D03*
X020725Y029058D03*
X020725Y029068D03*
X020725Y029088D03*
X020725Y029098D03*
X020725Y029338D03*
X020725Y029348D03*
X020725Y029428D03*
X023635Y028498D03*
X009715Y028898D03*
X009735Y029548D03*
D15*
X016070Y028868D03*
X018330Y028878D03*
X018320Y029568D03*
X019670Y029308D03*
X020670Y029128D03*
X021270Y026758D03*
X023770Y028868D03*
X023780Y028878D03*
X023780Y028888D03*
X023780Y028898D03*
X023780Y028908D03*
X023780Y028918D03*
X023780Y028928D03*
X023790Y028958D03*
X023790Y028968D03*
X023790Y028978D03*
X023790Y028988D03*
X023790Y028998D03*
X023790Y029008D03*
X023800Y029078D03*
X023800Y029088D03*
X023800Y029098D03*
X023800Y029108D03*
X023800Y029118D03*
X023810Y029188D03*
X023810Y029198D03*
X020200Y031538D03*
D16*
X020705Y029448D03*
X020705Y028948D03*
X019185Y027728D03*
X019185Y027718D03*
X019175Y027738D03*
X019195Y027698D03*
X019205Y027688D03*
X019345Y027538D03*
X019445Y027448D03*
X019505Y027398D03*
X019545Y027368D03*
X019555Y027348D03*
X019685Y027248D03*
X020895Y026768D03*
X018375Y028898D03*
X018375Y029548D03*
X023675Y028578D03*
X023685Y028618D03*
X023685Y028628D03*
X023695Y028638D03*
X023695Y028648D03*
X011985Y029568D03*
X011365Y029558D03*
X011375Y028888D03*
X009775Y029568D03*
X007345Y029328D03*
D17*
X021285Y026768D03*
X023805Y029618D03*
X023805Y029628D03*
X023805Y029638D03*
X023805Y029648D03*
X023805Y029658D03*
X023805Y029668D03*
X023805Y029678D03*
X023805Y029688D03*
X023805Y029698D03*
X023805Y029708D03*
X022515Y030478D03*
D18*
X021140Y026778D03*
D19*
X021105Y026788D03*
D20*
X021100Y026798D03*
X022260Y032298D03*
D21*
X021075Y026808D03*
D22*
X020715Y026818D03*
X020585Y029308D03*
X020565Y029518D03*
X020415Y031618D03*
X023745Y030048D03*
D23*
X023580Y028418D03*
X023570Y028398D03*
X023570Y028388D03*
X021500Y026818D03*
X019950Y027098D03*
X019820Y027198D03*
X019000Y028058D03*
X019000Y028068D03*
X018990Y028078D03*
X018980Y028088D03*
X018970Y028098D03*
X018960Y028118D03*
X018950Y028148D03*
X018880Y028278D03*
X018880Y028288D03*
X018870Y028298D03*
X018870Y028308D03*
X018860Y028318D03*
X018860Y028328D03*
X018850Y028348D03*
X018850Y028358D03*
X018850Y028368D03*
X018770Y028698D03*
X018440Y028938D03*
X018430Y028928D03*
X018700Y029128D03*
X016780Y028758D03*
X016190Y028918D03*
X014430Y028918D03*
X011900Y029528D03*
X011430Y029528D03*
X011440Y028918D03*
X009680Y029528D03*
X009670Y029518D03*
X009200Y029328D03*
X009210Y029148D03*
X007330Y029158D03*
X019880Y031358D03*
X019970Y031408D03*
X019990Y031418D03*
X020000Y031428D03*
X020750Y029028D03*
X020750Y028998D03*
D24*
X020680Y026828D03*
X023780Y029878D03*
X023780Y029888D03*
X023780Y029898D03*
X022230Y032378D03*
D25*
X019600Y031148D03*
X019560Y031118D03*
X019550Y031108D03*
X019520Y031078D03*
X019510Y031068D03*
X019170Y030708D03*
X019140Y030658D03*
X019130Y030648D03*
X019120Y030638D03*
X019110Y030628D03*
X019100Y030608D03*
X019000Y030428D03*
X019000Y030418D03*
X018990Y030398D03*
X018980Y030388D03*
X018910Y030238D03*
X018910Y030228D03*
X018900Y030218D03*
X018900Y030208D03*
X018880Y030138D03*
X018870Y030108D03*
X018850Y030088D03*
X018840Y030068D03*
X018840Y030058D03*
X018840Y030048D03*
X018500Y029118D03*
X018500Y029108D03*
X018500Y029098D03*
X018500Y029078D03*
X018500Y029068D03*
X018720Y029018D03*
X018720Y029008D03*
X018720Y028998D03*
X018800Y028588D03*
X016540Y028988D03*
X016530Y028998D03*
X016530Y029008D03*
X016260Y028988D03*
X016530Y029438D03*
X016530Y029448D03*
X016500Y028498D03*
X014360Y028998D03*
X014360Y029008D03*
X013730Y029428D03*
X013730Y029438D03*
X011820Y029438D03*
X011810Y029428D03*
X011810Y029418D03*
X011510Y029438D03*
X011510Y028988D03*
X009610Y028998D03*
X009600Y029008D03*
X009600Y029018D03*
X009600Y029028D03*
X009290Y029058D03*
X009290Y029068D03*
X009290Y029408D03*
X009290Y029418D03*
X009610Y029448D03*
X009610Y029458D03*
X007230Y029408D03*
X007240Y029078D03*
X007230Y029058D03*
X021550Y026828D03*
D26*
X020670Y026838D03*
X023790Y029788D03*
X023790Y029798D03*
X020270Y031578D03*
D27*
X019845Y031328D03*
X019625Y031168D03*
X019615Y031158D03*
X018995Y030408D03*
X018965Y030378D03*
X018955Y030358D03*
X018955Y030348D03*
X018945Y030328D03*
X018945Y030318D03*
X018945Y030308D03*
X018915Y030258D03*
X018915Y030248D03*
X018845Y030078D03*
X018835Y030038D03*
X018835Y030028D03*
X018835Y030018D03*
X018825Y030008D03*
X018825Y029998D03*
X018825Y029988D03*
X018815Y029978D03*
X018805Y029958D03*
X018495Y029408D03*
X018495Y029398D03*
X018495Y029388D03*
X018495Y029378D03*
X018495Y029368D03*
X018495Y029358D03*
X018495Y029348D03*
X018495Y029338D03*
X018495Y029328D03*
X018495Y029318D03*
X018495Y029308D03*
X018495Y029298D03*
X018495Y029288D03*
X018495Y029278D03*
X018495Y029208D03*
X018495Y029198D03*
X018495Y029188D03*
X018495Y029178D03*
X018495Y029168D03*
X018495Y029158D03*
X018495Y029148D03*
X018495Y029138D03*
X018495Y029128D03*
X018505Y029088D03*
X018495Y029058D03*
X018495Y029048D03*
X018495Y029038D03*
X018495Y029028D03*
X018495Y029018D03*
X018715Y029028D03*
X018715Y029038D03*
X018725Y028988D03*
X018725Y028978D03*
X018725Y028968D03*
X018725Y028958D03*
X018725Y028948D03*
X018795Y028608D03*
X018795Y028598D03*
X018805Y028568D03*
X019675Y027198D03*
X019935Y027078D03*
X020425Y026868D03*
X021675Y026838D03*
X023505Y028298D03*
X023515Y028318D03*
X016545Y028978D03*
X016255Y028978D03*
X015785Y028868D03*
X016505Y028508D03*
X016535Y029458D03*
X014365Y028988D03*
X013725Y029448D03*
X011835Y029458D03*
X011825Y029448D03*
X011505Y029448D03*
X011495Y029468D03*
X011505Y028978D03*
X009615Y028988D03*
X009285Y029078D03*
X009275Y029088D03*
X009275Y029388D03*
X009285Y029398D03*
X009615Y029468D03*
X007235Y029398D03*
X007245Y029088D03*
X007235Y029068D03*
D28*
X020250Y031568D03*
X023810Y029608D03*
X023810Y029598D03*
X023810Y029588D03*
X020640Y026848D03*
D29*
X020275Y026978D03*
X020125Y027048D03*
X021695Y026848D03*
X023235Y027838D03*
X023395Y028098D03*
X019475Y029308D03*
X019405Y029308D03*
X018795Y030098D03*
X018945Y030458D03*
X021115Y032018D03*
X022275Y032398D03*
X009305Y029688D03*
X007215Y028758D03*
D30*
X009100Y029198D03*
X009140Y029318D03*
X019240Y027638D03*
X019240Y027628D03*
X019250Y027618D03*
X019260Y027608D03*
X019360Y027508D03*
X019370Y027498D03*
X019460Y027418D03*
X020570Y026858D03*
X020680Y028928D03*
X020680Y029478D03*
X020150Y031518D03*
X023750Y028798D03*
X023750Y028788D03*
X023740Y028778D03*
X023740Y028768D03*
X023740Y028758D03*
X023730Y028738D03*
X023720Y028718D03*
X023720Y028708D03*
D31*
X023630Y028488D03*
X020730Y028968D03*
X020730Y029038D03*
X020730Y029048D03*
X020730Y029078D03*
X020730Y029358D03*
X020730Y029408D03*
X020730Y029418D03*
X018900Y028218D03*
X019050Y027928D03*
X019640Y027298D03*
X020430Y026908D03*
X020590Y026868D03*
X018420Y029528D03*
X016660Y028888D03*
X016150Y028898D03*
X014470Y028898D03*
X013620Y029548D03*
X009160Y029178D03*
D32*
X009270Y029098D03*
X009270Y029378D03*
X009620Y029478D03*
X009620Y028978D03*
X011490Y028958D03*
X011500Y028968D03*
X011500Y029458D03*
X011490Y029478D03*
X011840Y029468D03*
X011850Y029478D03*
X013710Y029468D03*
X013720Y029458D03*
X014370Y028978D03*
X016240Y028958D03*
X016250Y028968D03*
X016550Y028968D03*
X016560Y028958D03*
X016510Y028518D03*
X016540Y029468D03*
X016550Y029478D03*
X018490Y029428D03*
X018490Y029418D03*
X018500Y029268D03*
X018500Y029258D03*
X018500Y029248D03*
X018500Y029238D03*
X018500Y029228D03*
X018500Y029218D03*
X018490Y029008D03*
X018490Y028998D03*
X018710Y029048D03*
X018720Y028938D03*
X018720Y028928D03*
X018790Y028618D03*
X018800Y028558D03*
X018710Y029348D03*
X018710Y029358D03*
X018710Y029368D03*
X018710Y029378D03*
X018710Y029388D03*
X018720Y029518D03*
X018720Y029528D03*
X018800Y029948D03*
X018810Y029968D03*
X018910Y030268D03*
X018950Y030338D03*
X018960Y030368D03*
X019640Y031178D03*
X019650Y031188D03*
X019670Y031198D03*
X019680Y031208D03*
X019690Y031218D03*
X019700Y031228D03*
X019710Y031238D03*
X023520Y028328D03*
X023530Y028338D03*
X023510Y028308D03*
X020420Y026878D03*
X020310Y026968D03*
X007260Y029108D03*
X007250Y029098D03*
X007240Y029388D03*
D33*
X007345Y029168D03*
X009195Y029158D03*
X013635Y029538D03*
X016605Y029528D03*
X016625Y028908D03*
X018455Y029498D03*
X018735Y028868D03*
X018855Y028338D03*
X018885Y028268D03*
X018885Y028258D03*
X018935Y028168D03*
X018945Y028158D03*
X018955Y028138D03*
X018955Y028128D03*
X018965Y028108D03*
X019925Y027128D03*
X020585Y026878D03*
X023575Y028408D03*
X023585Y028428D03*
X023595Y028448D03*
X019955Y031398D03*
D34*
X019820Y031318D03*
X019760Y031278D03*
X019750Y031268D03*
X019740Y031258D03*
X018920Y030298D03*
X018780Y029908D03*
X018780Y029898D03*
X018740Y029738D03*
X018740Y029728D03*
X018740Y029718D03*
X018720Y029538D03*
X018710Y029498D03*
X018700Y029448D03*
X018700Y029438D03*
X018710Y029318D03*
X018710Y029308D03*
X018700Y029058D03*
X018720Y028918D03*
X018800Y028548D03*
X018820Y028478D03*
X018820Y028468D03*
X018830Y028448D03*
X018830Y028438D03*
X019120Y029308D03*
X018480Y029448D03*
X016580Y028938D03*
X016230Y028948D03*
X016530Y028548D03*
X016520Y028538D03*
X014390Y028948D03*
X013680Y029508D03*
X011860Y029498D03*
X011470Y029498D03*
X011470Y028948D03*
X009640Y029498D03*
X009240Y029348D03*
X009240Y029128D03*
X007290Y029138D03*
X007280Y029128D03*
X007260Y029368D03*
X020330Y026948D03*
X020410Y026888D03*
X023540Y028348D03*
D35*
X023565Y028378D03*
X020755Y029008D03*
X018845Y028398D03*
X018845Y028388D03*
X018845Y028378D03*
X018805Y028518D03*
X018765Y028668D03*
X018765Y028678D03*
X018765Y028688D03*
X018725Y028878D03*
X018695Y029108D03*
X018695Y029118D03*
X018725Y029298D03*
X018465Y029488D03*
X018465Y028958D03*
X018455Y028948D03*
X016755Y028748D03*
X016745Y028738D03*
X016735Y028728D03*
X016725Y028718D03*
X016635Y028648D03*
X016625Y028638D03*
X016615Y028628D03*
X016605Y028618D03*
X016595Y028608D03*
X016605Y028918D03*
X016205Y028928D03*
X016585Y029508D03*
X016595Y029518D03*
X013655Y029528D03*
X011885Y029518D03*
X011445Y029518D03*
X009675Y028918D03*
X008795Y029318D03*
X007285Y029348D03*
X019825Y027188D03*
X019835Y027178D03*
X019865Y027168D03*
X019905Y027138D03*
X020575Y026888D03*
D36*
X020460Y026898D03*
X019750Y027208D03*
X019530Y027378D03*
X019520Y027388D03*
X019440Y027458D03*
X019330Y027548D03*
X019320Y027558D03*
X019310Y027568D03*
X019310Y027578D03*
X019300Y027588D03*
X019170Y027748D03*
X019010Y027958D03*
X019010Y027968D03*
X019010Y027978D03*
X018390Y029538D03*
X016670Y029558D03*
X014490Y028888D03*
X013590Y029558D03*
X011970Y029558D03*
X009130Y029188D03*
X020120Y031498D03*
X023680Y028608D03*
X023680Y028598D03*
X023680Y028588D03*
X023670Y028568D03*
X023660Y028558D03*
X023650Y028538D03*
D37*
X023560Y028368D03*
X023550Y028358D03*
X020760Y029018D03*
X018840Y028408D03*
X018810Y028498D03*
X018810Y028508D03*
X018800Y028528D03*
X018800Y028538D03*
X018770Y028648D03*
X018770Y028658D03*
X018720Y028888D03*
X018690Y029088D03*
X018690Y029098D03*
X018470Y029468D03*
X018470Y029478D03*
X018740Y029698D03*
X018740Y029768D03*
X018740Y029778D03*
X018740Y029788D03*
X018740Y029798D03*
X018750Y029808D03*
X018760Y029828D03*
X019800Y031308D03*
X019930Y031378D03*
X019940Y031388D03*
X016590Y028928D03*
X016710Y028708D03*
X016700Y028698D03*
X016690Y028688D03*
X016680Y028678D03*
X016660Y028668D03*
X016650Y028658D03*
X016580Y028598D03*
X016570Y028588D03*
X016560Y028578D03*
X016550Y028568D03*
X016540Y028558D03*
X014410Y028928D03*
X011460Y028938D03*
X011450Y028928D03*
X011460Y029508D03*
X009660Y029508D03*
X009230Y029138D03*
X007310Y029148D03*
X007270Y029358D03*
X019890Y027158D03*
X019900Y027148D03*
X020340Y026938D03*
D38*
X020325Y026958D03*
X019935Y027088D03*
X018825Y028458D03*
X018785Y028628D03*
X018485Y028988D03*
X018705Y029328D03*
X018705Y029338D03*
X018705Y029398D03*
X018705Y029408D03*
X018705Y029418D03*
X018705Y029428D03*
X018705Y029458D03*
X018705Y029468D03*
X018705Y029478D03*
X018705Y029488D03*
X018715Y029508D03*
X018485Y029438D03*
X018785Y029918D03*
X018785Y029928D03*
X018795Y029938D03*
X018915Y030278D03*
X018915Y030288D03*
X019725Y031248D03*
X019855Y031338D03*
X022175Y032398D03*
X016555Y029488D03*
X016565Y028948D03*
X016515Y028528D03*
X014385Y028958D03*
X014375Y028968D03*
X013705Y029478D03*
X013705Y029488D03*
X013695Y029498D03*
X011855Y029488D03*
X011485Y029488D03*
X009635Y029488D03*
X009255Y029368D03*
X009245Y029358D03*
X009255Y029118D03*
X009265Y029108D03*
X009625Y028968D03*
X009635Y028958D03*
X009645Y028948D03*
X007265Y029118D03*
X007255Y029378D03*
D39*
X007210Y028768D03*
X009310Y028768D03*
X009310Y028778D03*
X009310Y029668D03*
X009310Y029678D03*
X011800Y028768D03*
X013740Y028768D03*
X014340Y029678D03*
X016280Y029678D03*
X019060Y030518D03*
X019070Y030528D03*
X019380Y030948D03*
X019400Y030958D03*
X019410Y030968D03*
X020120Y031608D03*
X020180Y031648D03*
X020570Y029108D03*
X020130Y027038D03*
X020130Y027028D03*
X020230Y026988D03*
X019680Y027178D03*
X023400Y028128D03*
X023400Y028138D03*
X023430Y028178D03*
X023440Y028198D03*
X023440Y028208D03*
X023470Y028258D03*
D40*
X023590Y028438D03*
X023600Y028458D03*
X023610Y028468D03*
X020740Y028988D03*
X019000Y028048D03*
X019000Y028038D03*
X018920Y028178D03*
X018890Y028248D03*
X018710Y029138D03*
X018450Y029508D03*
X016170Y028908D03*
X014450Y028908D03*
X011920Y029538D03*
X009700Y029538D03*
X009700Y028908D03*
X009180Y029168D03*
X007300Y029338D03*
X019950Y027108D03*
X020030Y031438D03*
X020050Y031448D03*
X020060Y031458D03*
D41*
X020075Y031468D03*
X020735Y029398D03*
X020735Y029388D03*
X020735Y029378D03*
X020735Y029368D03*
X020735Y028978D03*
X019005Y028028D03*
X019005Y028018D03*
X019045Y027948D03*
X019045Y027938D03*
X018915Y028188D03*
X018905Y028198D03*
X018905Y028208D03*
X018895Y028228D03*
X018895Y028238D03*
X018415Y028918D03*
X018435Y029518D03*
X016625Y029538D03*
X016645Y028898D03*
X019935Y027118D03*
X023615Y028478D03*
X011425Y028908D03*
X011415Y029538D03*
X007365Y029178D03*
D42*
X007225Y029048D03*
X007225Y029418D03*
X007225Y029428D03*
X007215Y029448D03*
X007215Y029458D03*
X009295Y029428D03*
X009595Y029398D03*
X009595Y029388D03*
X009595Y029378D03*
X009595Y029368D03*
X009595Y029358D03*
X009605Y029428D03*
X009605Y029438D03*
X009595Y029068D03*
X009595Y029058D03*
X009595Y029048D03*
X009595Y029038D03*
X009295Y029038D03*
X009295Y029048D03*
X011515Y029008D03*
X011515Y028998D03*
X011525Y029068D03*
X011525Y029078D03*
X011525Y029088D03*
X011525Y029098D03*
X011525Y029158D03*
X011525Y029168D03*
X011525Y029178D03*
X011525Y029188D03*
X011525Y029248D03*
X011525Y029258D03*
X011525Y029268D03*
X011525Y029278D03*
X011525Y029288D03*
X011525Y029298D03*
X011525Y029308D03*
X011525Y029318D03*
X011525Y029328D03*
X011525Y029338D03*
X011525Y029348D03*
X011525Y029358D03*
X011525Y029368D03*
X011525Y029378D03*
X011525Y029388D03*
X011525Y029398D03*
X011515Y029418D03*
X011515Y029428D03*
X011805Y029408D03*
X011805Y029398D03*
X011805Y029388D03*
X013735Y029398D03*
X013735Y029408D03*
X013735Y029418D03*
X014345Y029048D03*
X014355Y029018D03*
X016265Y029008D03*
X016265Y028998D03*
X016275Y029018D03*
X016275Y029028D03*
X016285Y029068D03*
X016525Y029048D03*
X016525Y029038D03*
X016525Y029028D03*
X016525Y029018D03*
X016525Y029408D03*
X016525Y029418D03*
X016525Y029428D03*
X016495Y028488D03*
X018805Y028578D03*
X018865Y030098D03*
X018875Y030118D03*
X018875Y030128D03*
X018885Y030148D03*
X018885Y030158D03*
X018895Y030188D03*
X018895Y030198D03*
X019015Y030438D03*
X019025Y030448D03*
X019035Y030458D03*
X019035Y030468D03*
X019035Y030478D03*
X019095Y030588D03*
X019095Y030598D03*
X019105Y030618D03*
X019145Y030668D03*
X019155Y030678D03*
X019155Y030688D03*
X019165Y030698D03*
X019185Y030718D03*
X019225Y030768D03*
X019445Y031008D03*
X019455Y031018D03*
X019495Y031048D03*
X019505Y031058D03*
X019535Y031088D03*
X019545Y031098D03*
X019595Y031138D03*
X022505Y030458D03*
X023495Y028288D03*
X019675Y027188D03*
D43*
X019600Y027318D03*
X019580Y027328D03*
X019570Y027338D03*
X019550Y027358D03*
X019450Y027438D03*
X019350Y027528D03*
X019230Y027658D03*
X019220Y027668D03*
X019210Y027678D03*
X019190Y027708D03*
X018360Y029558D03*
X016690Y029568D03*
X016110Y028878D03*
X009760Y028878D03*
X023700Y028668D03*
X023700Y028658D03*
D44*
X023755Y028808D03*
X023755Y028818D03*
X020165Y031528D03*
X022215Y032388D03*
X019475Y027408D03*
D45*
X019440Y027468D03*
X019160Y027778D03*
X019150Y027788D03*
X019130Y027818D03*
X019120Y027828D03*
X019010Y027988D03*
X018390Y028908D03*
X016650Y029548D03*
X016140Y028888D03*
X011950Y029548D03*
X020090Y031478D03*
X020720Y029328D03*
X020720Y028958D03*
X022510Y030468D03*
X023640Y028518D03*
X023640Y028508D03*
D46*
X023410Y028158D03*
X023230Y027828D03*
X022990Y030538D03*
X022990Y030548D03*
X020750Y031938D03*
X018790Y030108D03*
X018640Y029698D03*
X018910Y027948D03*
X018910Y027938D03*
X014340Y029688D03*
X007220Y029688D03*
D47*
X007215Y029678D03*
X014035Y029678D03*
X014035Y028768D03*
X016495Y028478D03*
X018875Y030308D03*
X019815Y031368D03*
X022985Y030558D03*
X023045Y030608D03*
X023435Y028188D03*
X023425Y028168D03*
X023405Y028148D03*
X023395Y028118D03*
X023395Y028108D03*
D48*
X023445Y028218D03*
X023465Y028248D03*
X023475Y028268D03*
X023475Y028278D03*
X019475Y031028D03*
X019425Y030988D03*
X019415Y030978D03*
X019365Y030938D03*
X019265Y030818D03*
X019085Y030548D03*
X019045Y030508D03*
X020745Y031928D03*
X022315Y032398D03*
X016515Y029328D03*
X016515Y029318D03*
X016515Y029308D03*
X016515Y029298D03*
X016515Y029288D03*
X016515Y029278D03*
X016285Y029098D03*
X014345Y029138D03*
X014345Y029148D03*
X014345Y029158D03*
X014345Y029168D03*
X014345Y029178D03*
X014345Y029188D03*
X014035Y029188D03*
X014035Y029198D03*
X014035Y029208D03*
X014035Y029218D03*
X014035Y029228D03*
X014035Y029238D03*
X014035Y029248D03*
X014035Y029258D03*
X014035Y029268D03*
X014035Y029278D03*
X014035Y029288D03*
X014035Y029298D03*
X014035Y029308D03*
X014035Y029318D03*
X014035Y029328D03*
X014035Y029338D03*
X014035Y029348D03*
X014035Y029358D03*
X014035Y029368D03*
X014035Y029378D03*
X014035Y029388D03*
X014035Y029398D03*
X014035Y029408D03*
X014035Y029418D03*
X014035Y029428D03*
X014035Y029438D03*
X014035Y029448D03*
X014035Y029458D03*
X014035Y029468D03*
X014035Y029478D03*
X014035Y029488D03*
X014035Y029498D03*
X014035Y029508D03*
X014035Y029518D03*
X014035Y029528D03*
X014035Y029538D03*
X014035Y029548D03*
X014035Y029558D03*
X014035Y029568D03*
X014035Y029578D03*
X014035Y029588D03*
X014035Y029598D03*
X014035Y029658D03*
X014035Y029668D03*
X014345Y029668D03*
X014035Y029178D03*
X014035Y029168D03*
X014035Y029158D03*
X014035Y029148D03*
X014035Y029138D03*
X014035Y029128D03*
X014035Y029118D03*
X014035Y029108D03*
X014035Y029098D03*
X014035Y029088D03*
X014035Y029078D03*
X014035Y029068D03*
X014035Y029058D03*
X014035Y029048D03*
X014035Y029038D03*
X014035Y029028D03*
X014035Y029018D03*
X014035Y029008D03*
X014035Y028998D03*
X014035Y028988D03*
X014035Y028978D03*
X014035Y028968D03*
X014035Y028958D03*
X014035Y028948D03*
X014035Y028938D03*
X014035Y028928D03*
X014035Y028918D03*
X014035Y028908D03*
X014035Y028898D03*
X014035Y028888D03*
X014035Y028878D03*
X014035Y028868D03*
X014035Y028858D03*
X014035Y028848D03*
X014035Y028838D03*
X014035Y028828D03*
X014035Y028818D03*
X014035Y028808D03*
X014035Y028798D03*
X014035Y028788D03*
X014035Y028778D03*
X013745Y029238D03*
X013745Y029248D03*
X013745Y029258D03*
X013745Y029268D03*
X013745Y029278D03*
X013745Y029338D03*
X013745Y029348D03*
X013745Y029358D03*
X011795Y028778D03*
X009595Y029088D03*
X009305Y028998D03*
X009305Y028988D03*
X009305Y028978D03*
X009305Y028968D03*
X009305Y028958D03*
X009305Y028948D03*
X009305Y028898D03*
X009305Y028888D03*
X009305Y028878D03*
X009305Y028868D03*
X009305Y028858D03*
X009305Y028848D03*
X009305Y028838D03*
X009305Y028828D03*
X009305Y028818D03*
X009305Y028808D03*
X009305Y028798D03*
X009305Y028788D03*
X009305Y029448D03*
X009305Y029458D03*
X009305Y029468D03*
X009305Y029478D03*
X009305Y029488D03*
X009305Y029498D03*
X009305Y029508D03*
X009305Y029518D03*
X009305Y029528D03*
X009305Y029538D03*
X009305Y029548D03*
X009305Y029558D03*
X009305Y029568D03*
X009305Y029578D03*
X009305Y029588D03*
X009305Y029598D03*
X009305Y029608D03*
X009305Y029658D03*
X007215Y029658D03*
X007215Y029668D03*
X007215Y029578D03*
X007215Y029568D03*
X007215Y029558D03*
X007215Y029008D03*
X007215Y028968D03*
X007215Y028858D03*
X007215Y028848D03*
X007215Y028778D03*
D49*
X009225Y029338D03*
X009655Y028938D03*
X009665Y028928D03*
X011875Y029508D03*
X013675Y029518D03*
X014405Y028938D03*
X016215Y028938D03*
X016565Y029498D03*
X018475Y029458D03*
X018745Y029708D03*
X018735Y029748D03*
X018735Y029758D03*
X018755Y029818D03*
X018765Y029838D03*
X018765Y029848D03*
X018765Y029858D03*
X018765Y029868D03*
X018775Y029878D03*
X018775Y029888D03*
X018695Y029078D03*
X018695Y029068D03*
X018715Y028908D03*
X018715Y028898D03*
X018485Y028978D03*
X018475Y028968D03*
X018775Y028638D03*
X018815Y028488D03*
X018835Y028428D03*
X018835Y028418D03*
X019775Y031288D03*
X019785Y031298D03*
X019865Y031348D03*
X019915Y031368D03*
D50*
X017515Y029608D03*
X017525Y028838D03*
X019595Y028708D03*
X010555Y028858D03*
D51*
X017525Y028848D03*
X017515Y029598D03*
X019605Y028718D03*
X022145Y032048D03*
D52*
X019625Y028728D03*
D53*
X019645Y028738D03*
X019585Y029688D03*
X022125Y032028D03*
X008255Y029228D03*
X008245Y029248D03*
D54*
X008270Y029208D03*
X019650Y028748D03*
D55*
X010565Y028758D03*
X010545Y029688D03*
D56*
X015310Y028758D03*
D57*
X017550Y028758D03*
X012770Y029688D03*
X022220Y032218D03*
D58*
X022415Y031598D03*
X022425Y031588D03*
X022835Y030668D03*
X019655Y028758D03*
D59*
X022215Y032198D03*
X010555Y028768D03*
D60*
X015325Y028768D03*
D61*
X017475Y028768D03*
X019715Y029698D03*
D62*
X019660Y028768D03*
X022440Y031528D03*
X022440Y031548D03*
D63*
X022205Y032178D03*
X017515Y029678D03*
X012775Y029668D03*
X010555Y028778D03*
D64*
X015320Y028778D03*
X022210Y032168D03*
D65*
X017485Y028778D03*
X010555Y029648D03*
D66*
X019650Y029648D03*
X019670Y028778D03*
X022780Y030738D03*
X022780Y030748D03*
X022770Y030758D03*
X022470Y031438D03*
X022470Y031448D03*
X022460Y031458D03*
X022440Y031488D03*
X022440Y031498D03*
X022360Y031648D03*
D67*
X010565Y028788D03*
D68*
X012780Y029658D03*
X015310Y028788D03*
D69*
X017505Y028788D03*
X022195Y032118D03*
X010555Y029638D03*
D70*
X019675Y028788D03*
X022755Y030798D03*
X022465Y031408D03*
D71*
X022200Y032128D03*
X015310Y028798D03*
X010550Y028798D03*
D72*
X017515Y028798D03*
X017515Y029648D03*
D73*
X019685Y029608D03*
X019685Y028798D03*
X022735Y030828D03*
X022745Y030818D03*
X022475Y031388D03*
D74*
X022195Y032108D03*
X015305Y028808D03*
X012785Y029638D03*
X010555Y028808D03*
D75*
X017525Y028808D03*
X022175Y032098D03*
D76*
X022480Y031378D03*
X022490Y031368D03*
X019690Y029598D03*
X019690Y028808D03*
D77*
X017520Y029638D03*
X010560Y028818D03*
D78*
X012785Y029628D03*
X015305Y028818D03*
D79*
X015310Y028828D03*
X017530Y028818D03*
X017520Y029628D03*
X010560Y028828D03*
D80*
X019695Y028818D03*
X019705Y028838D03*
X019715Y028848D03*
X019705Y029568D03*
X019705Y029578D03*
X019695Y029588D03*
X022725Y030838D03*
X022505Y031328D03*
X022505Y031338D03*
X022495Y031348D03*
X022495Y031358D03*
X022315Y031658D03*
D81*
X022155Y032078D03*
X017515Y029618D03*
X017525Y028828D03*
X012775Y029598D03*
X010565Y029598D03*
D82*
X019710Y029558D03*
X019700Y028828D03*
X022700Y030868D03*
X022710Y030858D03*
X022720Y030848D03*
X022690Y030888D03*
X022680Y030898D03*
X022660Y030928D03*
X022520Y031298D03*
X022510Y031308D03*
X022510Y031318D03*
X022060Y031998D03*
D83*
X020680Y029118D03*
X020670Y028918D03*
X023760Y028848D03*
X023760Y028838D03*
X023760Y028828D03*
D84*
X010560Y028838D03*
D85*
X015305Y028838D03*
D86*
X015310Y028848D03*
X010560Y028848D03*
X010560Y029588D03*
D87*
X015310Y028858D03*
X022150Y032068D03*
D88*
X022140Y032038D03*
X017510Y029588D03*
X017530Y028858D03*
D89*
X019725Y028858D03*
X019715Y029548D03*
X022645Y030948D03*
X022645Y030958D03*
X022655Y030938D03*
X022665Y030918D03*
X022675Y030908D03*
X022695Y030878D03*
X022525Y031278D03*
X022525Y031288D03*
D90*
X020665Y029488D03*
X020675Y029318D03*
X023765Y028858D03*
X023795Y029018D03*
X023795Y029028D03*
X023795Y029038D03*
X023795Y029048D03*
X023795Y029058D03*
X023795Y029068D03*
X016735Y028868D03*
X007445Y029198D03*
D91*
X009805Y028868D03*
X017165Y029578D03*
X023785Y028948D03*
X023785Y028938D03*
X023805Y029128D03*
X023805Y029138D03*
X023805Y029148D03*
X023805Y029158D03*
X023805Y029168D03*
X023805Y029178D03*
X023815Y029208D03*
X023815Y029218D03*
X023815Y029228D03*
X023815Y029238D03*
X023815Y029248D03*
X023815Y029258D03*
D92*
X023825Y029318D03*
X023825Y029338D03*
X023825Y029348D03*
X023825Y029358D03*
X023825Y029368D03*
X023825Y029378D03*
X023825Y029388D03*
X023815Y029398D03*
X023815Y029408D03*
X023815Y029418D03*
X023815Y029428D03*
X023815Y029438D03*
X023815Y029448D03*
X023815Y029458D03*
X023815Y029468D03*
X023815Y029478D03*
X023815Y029488D03*
X023815Y029498D03*
X023815Y029508D03*
X023815Y029518D03*
X023815Y029528D03*
X020645Y029498D03*
X020645Y028908D03*
X020635Y028898D03*
X020225Y031548D03*
X011295Y028868D03*
X009835Y029578D03*
D93*
X013510Y029578D03*
X014570Y028868D03*
X023810Y029538D03*
X023810Y029548D03*
X023810Y029558D03*
X023810Y029568D03*
D94*
X023655Y030288D03*
X023655Y030298D03*
X022495Y030498D03*
X020435Y031628D03*
X018205Y028868D03*
D95*
X019820Y028868D03*
X019850Y029138D03*
X022110Y032018D03*
D96*
X023670Y030238D03*
X023680Y030218D03*
X023690Y030198D03*
X023700Y030188D03*
X023730Y030118D03*
X020550Y028878D03*
D97*
X020605Y028888D03*
X020605Y029508D03*
X023795Y029758D03*
X023795Y029768D03*
X023795Y029778D03*
D98*
X019725Y029208D03*
X019725Y029198D03*
X019725Y029188D03*
X019725Y029178D03*
X019725Y029168D03*
X019725Y029158D03*
X019725Y029148D03*
D99*
X022865Y030648D03*
X008265Y029218D03*
D100*
X019730Y029218D03*
D101*
X019735Y029228D03*
X019735Y029238D03*
D102*
X008250Y029238D03*
D103*
X019740Y029248D03*
X019740Y029258D03*
X019740Y029268D03*
X019740Y029278D03*
X019740Y029288D03*
D104*
X008250Y029258D03*
D105*
X008245Y029268D03*
X019605Y029678D03*
X019815Y029538D03*
X022855Y030658D03*
D106*
X023820Y029328D03*
X023820Y029308D03*
X023820Y029298D03*
X023820Y029288D03*
X023820Y029278D03*
X023820Y029268D03*
X016740Y029578D03*
D107*
X019840Y029298D03*
X022430Y031578D03*
X022410Y031608D03*
X022400Y031618D03*
X022400Y031628D03*
X008240Y029278D03*
D108*
X008245Y029288D03*
X019625Y029668D03*
X022815Y030688D03*
X022825Y030678D03*
X022445Y031538D03*
X022435Y031558D03*
X022435Y031568D03*
X022385Y031638D03*
D109*
X022445Y031518D03*
X022805Y030698D03*
X008245Y029298D03*
D110*
X008250Y029308D03*
X019640Y029658D03*
X022790Y030718D03*
X022800Y030708D03*
D111*
X022510Y030488D03*
X023760Y029988D03*
X023760Y029978D03*
X023760Y029968D03*
X023760Y029958D03*
X023770Y029948D03*
X023770Y029938D03*
X023770Y029928D03*
X020300Y031588D03*
X007460Y029318D03*
D112*
X019890Y029528D03*
X022150Y032058D03*
D113*
X010755Y029578D03*
D114*
X012055Y029578D03*
X020235Y031558D03*
X023805Y029578D03*
D115*
X012755Y029578D03*
D116*
X017930Y029578D03*
D117*
X012775Y029588D03*
D118*
X012780Y029608D03*
X010560Y029608D03*
X022170Y032088D03*
D119*
X012780Y029618D03*
X010560Y029618D03*
D120*
X019680Y029618D03*
X022750Y030808D03*
X022470Y031398D03*
D121*
X010560Y029628D03*
D122*
X019660Y029638D03*
X019670Y029628D03*
X022760Y030788D03*
D123*
X012785Y029648D03*
D124*
X010555Y029658D03*
X022215Y032158D03*
D125*
X022200Y032138D03*
X017510Y029658D03*
D126*
X022210Y032188D03*
X010550Y029668D03*
D127*
X017510Y029668D03*
D128*
X012775Y029678D03*
X010545Y029678D03*
D129*
X017495Y029688D03*
D130*
X023800Y029718D03*
X023800Y029728D03*
X023800Y029738D03*
X023800Y029748D03*
D131*
X023785Y029808D03*
X023785Y029818D03*
X023785Y029828D03*
X023785Y029838D03*
X023785Y029848D03*
X023785Y029858D03*
X020385Y031608D03*
D132*
X023775Y029918D03*
X023775Y029908D03*
X023785Y029868D03*
D133*
X023755Y029998D03*
X023755Y030008D03*
X023755Y030018D03*
D134*
X023750Y030028D03*
X023750Y030038D03*
X020320Y031598D03*
D135*
X023740Y030068D03*
X023740Y030058D03*
D136*
X023735Y030078D03*
X023735Y030088D03*
X023735Y030098D03*
X023735Y030108D03*
X023685Y030208D03*
X022235Y032368D03*
D137*
X023665Y030258D03*
X023665Y030248D03*
X023675Y030228D03*
X023705Y030178D03*
X023715Y030168D03*
X023725Y030138D03*
X023725Y030128D03*
D138*
X023720Y030148D03*
X023720Y030158D03*
X023660Y030268D03*
X023660Y030278D03*
D139*
X023650Y030308D03*
X023650Y030328D03*
D140*
X023645Y030338D03*
X023655Y030318D03*
X022245Y032358D03*
D141*
X023620Y030378D03*
X023630Y030368D03*
X023640Y030358D03*
X023640Y030348D03*
D142*
X023615Y030388D03*
X023615Y030398D03*
X023605Y030408D03*
X023605Y030418D03*
X020535Y031648D03*
D143*
X023590Y030438D03*
X023600Y030428D03*
D144*
X023580Y030448D03*
X023570Y030458D03*
X023570Y030468D03*
X023570Y030478D03*
X022250Y032348D03*
X020460Y031638D03*
D145*
X022485Y030508D03*
X023555Y030508D03*
X023555Y030498D03*
X023565Y030488D03*
D146*
X022490Y030518D03*
X022260Y032338D03*
D147*
X023550Y030518D03*
D148*
X022485Y030528D03*
D149*
X023535Y030528D03*
X023535Y030538D03*
D150*
X022485Y030538D03*
D151*
X022485Y030548D03*
X022245Y032318D03*
D152*
X020570Y031658D03*
X023520Y030568D03*
X023530Y030548D03*
D153*
X022475Y030558D03*
D154*
X023505Y030588D03*
X023515Y030578D03*
X023525Y030558D03*
D155*
X022495Y030568D03*
D156*
X022485Y030578D03*
X022475Y030588D03*
X022475Y030598D03*
D157*
X023500Y030598D03*
D158*
X022470Y030608D03*
D159*
X023495Y030608D03*
D160*
X022465Y030618D03*
D161*
X023475Y030628D03*
X023485Y030618D03*
D162*
X022505Y030628D03*
D163*
X022500Y030638D03*
D164*
X023470Y030638D03*
D165*
X022785Y030728D03*
X022445Y031508D03*
D166*
X022445Y031478D03*
X022455Y031468D03*
X022465Y031428D03*
X022465Y031418D03*
X022085Y032008D03*
X022765Y030778D03*
X022765Y030768D03*
D167*
X022640Y030968D03*
X022630Y030978D03*
X022530Y031258D03*
X022530Y031268D03*
D168*
X022535Y031248D03*
X022535Y031238D03*
X022545Y031228D03*
X022545Y031218D03*
X022615Y031018D03*
X022615Y031008D03*
X022625Y030998D03*
X022625Y030988D03*
D169*
X022610Y031028D03*
X022590Y031088D03*
X022570Y031148D03*
X022560Y031168D03*
X022560Y031178D03*
X022560Y031188D03*
X022550Y031198D03*
X022550Y031208D03*
D170*
X022565Y031158D03*
X022575Y031138D03*
X022575Y031128D03*
X022585Y031118D03*
X022585Y031108D03*
X022585Y031098D03*
X022595Y031078D03*
X022595Y031068D03*
X022605Y031058D03*
X022605Y031048D03*
X022605Y031038D03*
X022045Y031988D03*
D171*
X021805Y031668D03*
D172*
X021800Y031678D03*
D173*
X021805Y031688D03*
D174*
X021800Y031698D03*
D175*
X021810Y031708D03*
D176*
X021810Y031718D03*
D177*
X021815Y031728D03*
D178*
X021815Y031738D03*
D179*
X021815Y031748D03*
D180*
X021825Y031758D03*
D181*
X021825Y031768D03*
D182*
X021830Y031778D03*
D183*
X021835Y031788D03*
D184*
X021840Y031798D03*
D185*
X021845Y031808D03*
D186*
X021845Y031818D03*
D187*
X021850Y031828D03*
D188*
X021850Y031838D03*
D189*
X021860Y031848D03*
D190*
X021885Y031858D03*
D191*
X021905Y031868D03*
D192*
X021935Y031878D03*
D193*
X021940Y031888D03*
D194*
X021950Y031898D03*
D195*
X021950Y031908D03*
D196*
X021950Y031918D03*
D197*
X022000Y031928D03*
D198*
X022005Y031938D03*
D199*
X022005Y031948D03*
D200*
X022015Y031958D03*
D201*
X022020Y031968D03*
D202*
X022030Y031978D03*
D203*
X022205Y032148D03*
D204*
X022220Y032208D03*
D205*
X022225Y032228D03*
D206*
X022225Y032238D03*
D207*
X022220Y032248D03*
D208*
X022220Y032258D03*
D209*
X022225Y032268D03*
D210*
X022240Y032278D03*
D211*
X022250Y032288D03*
D212*
X022250Y032308D03*
D213*
X022250Y032328D03*
D214*
X020037Y028038D02*
X019807Y028038D01*
X019730Y027962D01*
X019730Y027885D01*
X019807Y027808D01*
X020037Y027808D01*
X020037Y027578D02*
X020037Y028038D01*
X019807Y027808D02*
X019730Y027731D01*
X019730Y027655D01*
X019807Y027578D01*
X020037Y027578D01*
X019577Y027655D02*
X019577Y028038D01*
X019270Y028038D02*
X019270Y027655D01*
X019346Y027578D01*
X019500Y027578D01*
X019577Y027655D01*
X019116Y027655D02*
X019116Y027578D01*
X018809Y027578D01*
X018656Y027578D02*
X018349Y027578D01*
X018195Y027578D02*
X017888Y027578D01*
X018042Y027578D02*
X018042Y028038D01*
X018195Y027885D01*
X018349Y027962D02*
X018656Y027655D01*
X018656Y027578D01*
X018809Y027962D02*
X019116Y027655D01*
X019116Y028038D02*
X018809Y028038D01*
X018809Y027962D01*
X018656Y028038D02*
X018349Y028038D01*
X018349Y027962D01*
X023207Y015111D02*
X024758Y015111D01*
X024776Y015109D01*
X024793Y015105D01*
X024809Y015097D01*
X024823Y015087D01*
X024835Y015075D01*
X024845Y015061D01*
X024853Y015045D01*
X024857Y015028D01*
X024859Y015010D01*
X024860Y015010D02*
X024860Y014724D01*
X026091Y014724D01*
X026125Y014757D01*
X026125Y014934D01*
X026841Y014934D01*
X026841Y014774D01*
X026740Y014589D01*
X026748Y014580D02*
X026664Y014808D01*
X026293Y014808D01*
X026243Y014580D01*
X026133Y014783D01*
X026091Y014724D02*
X026226Y014563D01*
X026757Y014563D01*
X026892Y014724D01*
X027516Y014724D01*
X027516Y014884D01*
X027752Y014884D01*
X027693Y014724D02*
X027516Y014724D01*
X027516Y014884D02*
X027516Y015027D01*
X027514Y015043D01*
X027510Y015059D01*
X027502Y015074D01*
X027491Y015086D01*
X027479Y015097D01*
X027464Y015105D01*
X027448Y015109D01*
X027432Y015111D01*
X025872Y015111D01*
X025857Y015110D01*
X025843Y015105D01*
X025830Y015098D01*
X025818Y015089D01*
X025809Y015077D01*
X025802Y015064D01*
X025797Y015050D01*
X025796Y015035D01*
X025796Y014884D01*
X024868Y014884D01*
X024860Y014724D02*
X024556Y014724D01*
X024514Y014783D01*
X024413Y014605D01*
X024345Y014825D01*
X023983Y014825D01*
X023907Y014580D01*
X023898Y014572D02*
X024421Y014572D01*
X024556Y014724D01*
X024514Y014783D02*
X024514Y014926D01*
X024513Y014933D01*
X024509Y014938D01*
X024504Y014942D01*
X024497Y014943D01*
X023856Y014943D01*
X023843Y014942D01*
X023830Y014937D01*
X023819Y014930D01*
X023810Y014921D01*
X023803Y014910D01*
X023798Y014897D01*
X023797Y014884D01*
X023797Y014783D01*
X023763Y014724D01*
X023763Y014724D01*
X022962Y014724D01*
X022903Y014884D02*
X022877Y014882D01*
X022851Y014876D01*
X022826Y014867D01*
X022802Y014854D01*
X022781Y014839D01*
X022762Y014820D01*
X022747Y014799D01*
X022734Y014775D01*
X022725Y014750D01*
X022719Y014724D01*
X022717Y014698D01*
X022718Y014698D02*
X022718Y014496D01*
X022583Y014487D02*
X022878Y014487D01*
X022878Y014639D01*
X022880Y014655D01*
X022884Y014671D01*
X022892Y014686D01*
X022903Y014698D01*
X022915Y014709D01*
X022930Y014717D01*
X022946Y014721D01*
X022962Y014723D01*
X022903Y014884D02*
X023139Y014884D01*
X023139Y014724D01*
X023139Y014884D02*
X023139Y015044D01*
X023140Y015044D02*
X023142Y015059D01*
X023147Y015073D01*
X023155Y015086D01*
X023165Y015096D01*
X023178Y015104D01*
X023192Y015109D01*
X023207Y015111D01*
X023806Y014799D02*
X023907Y014622D01*
X023898Y014572D02*
X023763Y014715D01*
X023350Y014243D02*
X023224Y014352D01*
X023350Y014243D02*
X023359Y013880D01*
X027297Y013880D01*
X027297Y014243D01*
X027432Y014361D01*
X027491Y014234D02*
X027491Y013729D01*
X027482Y013729D01*
X027297Y013880D01*
X027482Y013729D02*
X023148Y013729D01*
X023359Y013880D01*
X023148Y013729D02*
X023148Y014192D01*
X023150Y014222D01*
X023155Y014253D01*
X023164Y014282D01*
X023177Y014310D01*
X023193Y014336D01*
X023212Y014360D01*
X023233Y014381D01*
X023257Y014400D01*
X023283Y014416D01*
X023311Y014429D01*
X023340Y014438D01*
X023371Y014443D01*
X023401Y014445D01*
X022996Y013948D02*
X022887Y014049D01*
X022499Y014403D02*
X022501Y014419D01*
X022505Y014435D01*
X022513Y014450D01*
X022524Y014462D01*
X022536Y014473D01*
X022551Y014481D01*
X022567Y014485D01*
X022583Y014487D01*
X023696Y013712D02*
X023696Y013214D01*
X024219Y013214D01*
X024219Y013712D01*
X024666Y013720D02*
X024674Y013720D01*
X024674Y013214D01*
X025189Y013214D01*
X025189Y013703D01*
X025458Y013712D02*
X025458Y013214D01*
X025973Y013214D01*
X025973Y013720D01*
X026437Y013720D02*
X026437Y013214D01*
X026951Y013214D01*
X026951Y013720D01*
X027491Y014234D02*
X027489Y014262D01*
X027484Y014289D01*
X027475Y014315D01*
X027463Y014340D01*
X027447Y014362D01*
X027429Y014383D01*
X027408Y014401D01*
X027386Y014417D01*
X027361Y014429D01*
X027335Y014438D01*
X027308Y014443D01*
X027280Y014445D01*
X027693Y014723D02*
X027708Y014721D01*
X027722Y014716D01*
X027735Y014708D01*
X027745Y014698D01*
X027753Y014685D01*
X027758Y014671D01*
X027760Y014656D01*
X027929Y014707D02*
X027927Y014732D01*
X027922Y014757D01*
X027913Y014781D01*
X027901Y014803D01*
X027886Y014823D01*
X027868Y014841D01*
X027848Y014856D01*
X027826Y014868D01*
X027802Y014877D01*
X027777Y014882D01*
X027752Y014884D01*
X027929Y014707D02*
X027929Y014496D01*
X028055Y014487D02*
X027769Y014487D01*
X028055Y014488D02*
X028074Y014486D01*
X028093Y014481D01*
X028110Y014473D01*
X028126Y014462D01*
X028139Y014449D01*
X028150Y014433D01*
X028158Y014416D01*
X028163Y014397D01*
X028165Y014378D01*
X027752Y014040D02*
X027651Y013931D01*
X026892Y014724D02*
X026841Y014774D01*
X025796Y014724D02*
X025796Y014884D01*
X026234Y012894D02*
X026748Y012894D01*
X026883Y012725D01*
X026875Y012717D02*
X026841Y012674D01*
X026841Y012556D01*
X026842Y012556D02*
X026840Y012543D01*
X026835Y012531D01*
X026827Y012520D01*
X026817Y012512D01*
X026804Y012507D01*
X026791Y012505D01*
X026791Y012506D02*
X026184Y012506D01*
X026171Y012507D01*
X026158Y012512D01*
X026147Y012519D01*
X026138Y012528D01*
X026131Y012539D01*
X026126Y012552D01*
X026125Y012565D01*
X026125Y012691D01*
X026091Y012725D01*
X026234Y012894D01*
X026091Y012725D02*
X025796Y012725D01*
X024860Y012725D01*
X024565Y012725D01*
X024531Y012691D01*
X024531Y012565D01*
X024530Y012552D01*
X024525Y012539D01*
X024518Y012528D01*
X024509Y012519D01*
X024498Y012512D01*
X024485Y012507D01*
X024472Y012506D01*
X023865Y012506D01*
X023865Y012505D02*
X023852Y012507D01*
X023840Y012512D01*
X023829Y012520D01*
X023821Y012531D01*
X023816Y012543D01*
X023814Y012556D01*
X023814Y012674D01*
X023780Y012717D01*
X023139Y012717D01*
X023139Y012725D02*
X023139Y012405D01*
X023140Y012405D02*
X023142Y012390D01*
X023147Y012376D01*
X023155Y012363D01*
X023165Y012353D01*
X023178Y012345D01*
X023192Y012340D01*
X023207Y012338D01*
X023207Y012337D02*
X024792Y012337D01*
X024792Y012338D02*
X024807Y012340D01*
X024821Y012345D01*
X024834Y012353D01*
X024844Y012363D01*
X024852Y012376D01*
X024857Y012390D01*
X024859Y012405D01*
X024860Y012405D02*
X024860Y012725D01*
X024868Y012565D02*
X025796Y012565D01*
X025796Y012725D01*
X025796Y012565D02*
X025796Y012413D01*
X025797Y012398D01*
X025802Y012384D01*
X025809Y012371D01*
X025818Y012359D01*
X025830Y012350D01*
X025843Y012343D01*
X025857Y012338D01*
X025872Y012337D01*
X027448Y012337D01*
X027448Y012338D02*
X027463Y012340D01*
X027477Y012345D01*
X027490Y012353D01*
X027500Y012363D01*
X027508Y012376D01*
X027513Y012390D01*
X027515Y012405D01*
X027516Y012405D02*
X027516Y012717D01*
X026875Y012717D01*
X024565Y012725D02*
X024421Y012894D01*
X023907Y012894D01*
X023772Y012725D01*
X023039Y012245D02*
X022732Y011784D01*
X022579Y011784D02*
X022272Y012091D01*
X022272Y012168D01*
X022349Y012245D01*
X022502Y012245D01*
X022579Y012168D01*
X022732Y012245D02*
X023039Y011784D01*
X022579Y011784D02*
X022272Y011784D01*
X022598Y009879D02*
X022598Y009265D01*
X022522Y009342D02*
X022445Y009418D01*
X022445Y009495D01*
X022522Y009572D01*
X022675Y009572D01*
X022752Y009649D01*
X022752Y009725D01*
X022675Y009802D01*
X022522Y009802D01*
X022445Y009725D01*
X022291Y009725D02*
X022215Y009802D01*
X022061Y009802D01*
X021984Y009725D01*
X021984Y009649D01*
X022291Y009342D01*
X021984Y009342D01*
X022522Y009342D02*
X022675Y009342D01*
X022752Y009418D01*
X022905Y009418D02*
X022905Y009802D01*
X023212Y009802D02*
X023212Y009418D01*
X023135Y009342D01*
X022982Y009342D01*
X022905Y009418D01*
X029559Y009418D02*
X029636Y009342D01*
X029789Y009342D01*
X029866Y009418D01*
X030020Y009418D02*
X030020Y009495D01*
X030096Y009572D01*
X030250Y009572D01*
X030327Y009649D01*
X030327Y009725D01*
X030250Y009802D01*
X030096Y009802D01*
X030020Y009725D01*
X029866Y009725D02*
X029789Y009802D01*
X029636Y009802D01*
X029559Y009725D01*
X029559Y009649D01*
X029636Y009572D01*
X029559Y009495D01*
X029559Y009418D01*
X029636Y009572D02*
X029713Y009572D01*
X030020Y009418D02*
X030096Y009342D01*
X030250Y009342D01*
X030327Y009418D01*
X030480Y009418D02*
X030480Y009802D01*
X030787Y009802D02*
X030787Y009418D01*
X030710Y009342D01*
X030557Y009342D01*
X030480Y009418D01*
X030173Y009265D02*
X030173Y009879D01*
X030268Y011784D02*
X030575Y011784D01*
X030728Y011784D02*
X031035Y012245D01*
X031135Y012405D02*
X031135Y012725D01*
X031135Y012717D02*
X031776Y012717D01*
X031810Y012674D01*
X031810Y012556D01*
X031812Y012543D01*
X031817Y012531D01*
X031825Y012520D01*
X031836Y012512D01*
X031848Y012507D01*
X031861Y012505D01*
X031861Y012506D02*
X032468Y012506D01*
X032481Y012507D01*
X032494Y012512D01*
X032505Y012519D01*
X032514Y012528D01*
X032521Y012539D01*
X032526Y012552D01*
X032527Y012565D01*
X032527Y012691D01*
X032560Y012725D01*
X032417Y012894D01*
X031903Y012894D01*
X031768Y012725D01*
X031692Y013214D02*
X032215Y013214D01*
X032215Y013712D01*
X032662Y013720D02*
X032670Y013720D01*
X032670Y013214D01*
X033184Y013214D01*
X033184Y013703D01*
X033454Y013712D02*
X033454Y013214D01*
X033969Y013214D01*
X033969Y013720D01*
X034432Y013720D02*
X034432Y013214D01*
X034947Y013214D01*
X034947Y013720D01*
X035292Y013880D02*
X035292Y014243D01*
X035427Y014361D01*
X035486Y014234D02*
X035486Y013729D01*
X035478Y013729D01*
X035292Y013880D01*
X031355Y013880D01*
X031346Y014243D01*
X031220Y014352D01*
X031144Y014192D02*
X031144Y013729D01*
X031355Y013880D01*
X031144Y013729D02*
X035478Y013729D01*
X035647Y013931D02*
X035748Y014040D01*
X035765Y014487D02*
X036051Y014487D01*
X036051Y014488D02*
X036070Y014486D01*
X036089Y014481D01*
X036106Y014473D01*
X036122Y014462D01*
X036135Y014449D01*
X036146Y014433D01*
X036154Y014416D01*
X036159Y014397D01*
X036161Y014378D01*
X035925Y014496D02*
X035925Y014707D01*
X035923Y014732D01*
X035918Y014757D01*
X035909Y014781D01*
X035897Y014803D01*
X035882Y014823D01*
X035864Y014841D01*
X035844Y014856D01*
X035822Y014868D01*
X035798Y014877D01*
X035773Y014882D01*
X035748Y014884D01*
X035512Y014884D01*
X035512Y015027D01*
X035511Y015027D02*
X035509Y015043D01*
X035505Y015059D01*
X035497Y015074D01*
X035486Y015086D01*
X035474Y015097D01*
X035459Y015105D01*
X035443Y015109D01*
X035427Y015111D01*
X033867Y015111D01*
X033852Y015110D01*
X033838Y015105D01*
X033825Y015098D01*
X033813Y015089D01*
X033804Y015077D01*
X033797Y015064D01*
X033792Y015050D01*
X033791Y015035D01*
X033792Y015035D02*
X033792Y014884D01*
X032864Y014884D01*
X032856Y015010D02*
X032856Y014724D01*
X034087Y014724D01*
X034120Y014757D01*
X034120Y014934D01*
X034837Y014934D01*
X034837Y014774D01*
X034736Y014589D01*
X034744Y014580D02*
X034660Y014808D01*
X034289Y014808D01*
X034238Y014580D01*
X034129Y014783D01*
X034087Y014724D02*
X034222Y014563D01*
X034753Y014563D01*
X034888Y014724D01*
X035512Y014724D01*
X035512Y014884D01*
X035512Y014724D02*
X035689Y014724D01*
X035689Y014723D02*
X035704Y014721D01*
X035718Y014716D01*
X035731Y014708D01*
X035741Y014698D01*
X035749Y014685D01*
X035754Y014671D01*
X035756Y014656D01*
X035487Y014234D02*
X035485Y014262D01*
X035480Y014289D01*
X035471Y014315D01*
X035459Y014340D01*
X035443Y014362D01*
X035425Y014383D01*
X035404Y014401D01*
X035382Y014417D01*
X035357Y014429D01*
X035331Y014438D01*
X035304Y014443D01*
X035276Y014445D01*
X034888Y014724D02*
X034837Y014774D01*
X033792Y014724D02*
X033792Y014884D01*
X032856Y014724D02*
X032552Y014724D01*
X032510Y014783D01*
X032409Y014605D01*
X032341Y014825D01*
X031979Y014825D01*
X031903Y014580D01*
X031894Y014572D02*
X032417Y014572D01*
X032552Y014724D01*
X032510Y014783D02*
X032510Y014926D01*
X032509Y014933D01*
X032505Y014938D01*
X032500Y014942D01*
X032493Y014943D01*
X031852Y014943D01*
X031839Y014942D01*
X031826Y014937D01*
X031815Y014930D01*
X031806Y014921D01*
X031799Y014910D01*
X031794Y014897D01*
X031793Y014884D01*
X031793Y014783D01*
X031759Y014724D01*
X031759Y014724D01*
X030958Y014724D01*
X030899Y014884D02*
X030873Y014882D01*
X030847Y014876D01*
X030822Y014867D01*
X030798Y014854D01*
X030777Y014839D01*
X030758Y014820D01*
X030743Y014799D01*
X030730Y014775D01*
X030721Y014750D01*
X030715Y014724D01*
X030713Y014698D01*
X030714Y014698D02*
X030714Y014496D01*
X030579Y014487D02*
X030874Y014487D01*
X030874Y014639D01*
X030876Y014655D01*
X030880Y014671D01*
X030888Y014686D01*
X030899Y014698D01*
X030911Y014709D01*
X030926Y014717D01*
X030942Y014721D01*
X030958Y014723D01*
X030899Y014884D02*
X031135Y014884D01*
X031135Y014724D01*
X031135Y014884D02*
X031135Y015044D01*
X031136Y015044D02*
X031138Y015059D01*
X031143Y015073D01*
X031151Y015086D01*
X031161Y015096D01*
X031174Y015104D01*
X031188Y015109D01*
X031203Y015111D01*
X032754Y015111D01*
X032772Y015109D01*
X032789Y015105D01*
X032805Y015097D01*
X032819Y015087D01*
X032831Y015075D01*
X032841Y015061D01*
X032849Y015045D01*
X032853Y015028D01*
X032855Y015010D01*
X031903Y014622D02*
X031802Y014799D01*
X031759Y014715D02*
X031894Y014572D01*
X031397Y014445D02*
X031367Y014443D01*
X031336Y014438D01*
X031307Y014429D01*
X031279Y014416D01*
X031253Y014400D01*
X031229Y014381D01*
X031208Y014360D01*
X031189Y014336D01*
X031173Y014310D01*
X031160Y014282D01*
X031151Y014253D01*
X031146Y014222D01*
X031144Y014192D01*
X030992Y013948D02*
X030882Y014049D01*
X030495Y014403D02*
X030497Y014419D01*
X030501Y014435D01*
X030509Y014450D01*
X030520Y014462D01*
X030532Y014473D01*
X030547Y014481D01*
X030563Y014485D01*
X030579Y014487D01*
X031692Y013712D02*
X031692Y013214D01*
X031136Y012405D02*
X031138Y012390D01*
X031143Y012376D01*
X031151Y012363D01*
X031161Y012353D01*
X031174Y012345D01*
X031188Y012340D01*
X031203Y012338D01*
X031203Y012337D02*
X032788Y012337D01*
X032788Y012338D02*
X032803Y012340D01*
X032817Y012345D01*
X032830Y012353D01*
X032840Y012363D01*
X032848Y012376D01*
X032853Y012390D01*
X032855Y012405D01*
X032856Y012405D02*
X032856Y012725D01*
X033792Y012725D01*
X034087Y012725D01*
X034120Y012691D01*
X034120Y012565D01*
X034121Y012552D01*
X034126Y012539D01*
X034133Y012528D01*
X034142Y012519D01*
X034153Y012512D01*
X034166Y012507D01*
X034179Y012506D01*
X034787Y012506D01*
X034787Y012505D02*
X034800Y012507D01*
X034813Y012512D01*
X034823Y012520D01*
X034831Y012531D01*
X034836Y012543D01*
X034838Y012556D01*
X034837Y012556D02*
X034837Y012674D01*
X034871Y012717D01*
X035512Y012717D01*
X035512Y012405D01*
X035511Y012405D02*
X035509Y012390D01*
X035504Y012376D01*
X035496Y012363D01*
X035486Y012353D01*
X035473Y012345D01*
X035459Y012340D01*
X035444Y012338D01*
X035444Y012337D02*
X033867Y012337D01*
X033852Y012338D01*
X033838Y012343D01*
X033825Y012350D01*
X033813Y012359D01*
X033804Y012371D01*
X033797Y012384D01*
X033792Y012398D01*
X033791Y012413D01*
X033792Y012413D02*
X033792Y012565D01*
X033792Y012725D01*
X033792Y012565D02*
X032864Y012565D01*
X032856Y012725D02*
X032560Y012725D01*
X034087Y012725D02*
X034230Y012894D01*
X034744Y012894D01*
X034879Y012725D01*
X037211Y009802D02*
X037441Y009572D01*
X037134Y009572D01*
X037211Y009342D02*
X037211Y009802D01*
X037594Y009725D02*
X037671Y009802D01*
X037825Y009802D01*
X037901Y009725D01*
X037901Y009649D01*
X037825Y009572D01*
X037671Y009572D01*
X037594Y009495D01*
X037594Y009418D01*
X037671Y009342D01*
X037825Y009342D01*
X037901Y009418D01*
X038055Y009418D02*
X038055Y009802D01*
X038362Y009802D02*
X038362Y009418D01*
X038285Y009342D01*
X038132Y009342D01*
X038055Y009418D01*
X037748Y009265D02*
X037748Y009879D01*
X031035Y011784D02*
X030728Y012245D01*
X030575Y012091D02*
X030421Y012245D01*
X030421Y011784D01*
X011951Y011724D02*
X011951Y011417D01*
X011490Y011417D01*
X011490Y011724D01*
X011490Y011878D02*
X011490Y012185D01*
X011490Y012338D02*
X011490Y012645D01*
X011490Y012338D02*
X011951Y012338D01*
X011951Y011878D02*
X011490Y011878D01*
X011720Y011571D02*
X011720Y011417D01*
X011567Y011264D02*
X011490Y011187D01*
X011490Y011034D01*
X011567Y010957D01*
X011874Y010957D01*
X011951Y011034D01*
X011951Y011187D01*
X011874Y011264D01*
X011414Y010803D02*
X011414Y010496D01*
X011490Y010343D02*
X011951Y010343D01*
X011951Y010036D02*
X011490Y010036D01*
X011490Y009883D02*
X011490Y009729D01*
X011490Y009806D02*
X011951Y009806D01*
X011951Y009729D02*
X011951Y009883D01*
X011951Y010036D02*
X011490Y010343D01*
X010770Y010496D02*
X010770Y010727D01*
X010693Y010803D01*
X010616Y010803D01*
X010539Y010727D01*
X010539Y010496D01*
X010309Y010496D02*
X010309Y010727D01*
X010386Y010803D01*
X010463Y010803D01*
X010539Y010727D01*
X010386Y010957D02*
X010309Y011034D01*
X010309Y011187D01*
X010386Y011264D01*
X010463Y011417D02*
X010770Y011724D01*
X010770Y011878D02*
X010386Y011878D01*
X010309Y011954D01*
X010309Y012108D01*
X010386Y012185D01*
X010770Y012185D01*
X010770Y012338D02*
X010770Y012568D01*
X010693Y012645D01*
X010539Y012645D01*
X010463Y012568D01*
X010463Y012338D01*
X010309Y012338D02*
X010770Y012338D01*
X010309Y011724D02*
X010539Y011494D01*
X010309Y011417D02*
X010770Y011417D01*
X010693Y011264D02*
X010770Y011187D01*
X010770Y011034D01*
X010693Y010957D01*
X010386Y010957D01*
X010309Y010496D02*
X010770Y010496D01*
X010232Y010343D02*
X010232Y010036D01*
X010309Y009729D02*
X010770Y009729D01*
X010770Y009576D02*
X010770Y009883D01*
X010770Y009422D02*
X010770Y009115D01*
X010770Y009269D02*
X010309Y009269D01*
X010309Y008962D02*
X010616Y008962D01*
X010770Y008808D01*
X010616Y008655D01*
X010309Y008655D01*
X010386Y008501D02*
X010309Y008425D01*
X010309Y008194D01*
X010770Y008194D01*
X010770Y008425D01*
X010693Y008501D01*
X010616Y008501D01*
X010539Y008425D01*
X010539Y008194D01*
X010539Y008425D02*
X010463Y008501D01*
X010386Y008501D01*
X010539Y008655D02*
X010539Y008962D01*
X011414Y008655D02*
X011414Y008348D01*
X011490Y008194D02*
X011797Y008194D01*
X011951Y008041D01*
X011797Y007888D01*
X011490Y007888D01*
X011720Y007888D02*
X011720Y008194D01*
X011951Y007734D02*
X011951Y007427D01*
X011951Y007581D02*
X011490Y007581D01*
X011490Y007274D02*
X011797Y007274D01*
X011951Y007120D01*
X011797Y006967D01*
X011490Y006967D01*
X011490Y006813D02*
X011951Y006813D01*
X011720Y006967D02*
X011720Y007274D01*
X011490Y006813D02*
X011951Y006506D01*
X011490Y006506D01*
X011490Y006353D02*
X011490Y006046D01*
X011951Y006046D01*
X011951Y006353D01*
X011720Y006199D02*
X011720Y006046D01*
X011720Y005893D02*
X011644Y005816D01*
X011644Y005586D01*
X011644Y005739D02*
X011490Y005893D01*
X011720Y005893D02*
X011874Y005893D01*
X011951Y005816D01*
X011951Y005586D01*
X011490Y005586D01*
X010433Y005389D02*
X010433Y005082D01*
X011567Y008808D02*
X011490Y008885D01*
X011490Y009039D01*
X011567Y009115D01*
X011567Y009269D02*
X011490Y009345D01*
X011490Y009499D01*
X011567Y009576D01*
X011874Y009576D01*
X011951Y009499D01*
X011951Y009345D01*
X011874Y009269D01*
X011567Y009269D01*
X011874Y009115D02*
X011951Y009039D01*
X011951Y008885D01*
X011874Y008808D01*
X011567Y008808D01*
X010433Y014082D02*
X010433Y014389D01*
X010280Y014236D02*
X010587Y014236D01*
X040420Y028076D02*
X040727Y028076D01*
X040573Y028076D02*
X040573Y028536D01*
X040727Y028383D01*
X040880Y028460D02*
X040957Y028536D01*
X041110Y028536D01*
X041187Y028460D01*
X041187Y028383D01*
X041110Y028306D01*
X040957Y028306D01*
X040880Y028229D01*
X040880Y028153D01*
X040957Y028076D01*
X041110Y028076D01*
X041187Y028153D01*
X041340Y028076D02*
X041494Y028076D01*
X041417Y028076D02*
X041417Y028536D01*
X041494Y028536D02*
X041340Y028536D01*
X041647Y028460D02*
X041724Y028536D01*
X041954Y028536D01*
X041954Y028076D01*
X041724Y028076D01*
X041647Y028153D01*
X041647Y028460D01*
D215*
X030268Y022628D02*
X030268Y022177D01*
X030268Y022328D02*
X030043Y022328D01*
X029968Y022403D01*
X029968Y022553D01*
X030043Y022628D01*
X030268Y022628D01*
X029808Y022553D02*
X029808Y022253D01*
X029733Y022177D01*
X029583Y022177D01*
X029507Y022253D01*
X029507Y022553D01*
X029583Y022628D01*
X029733Y022628D01*
X029808Y022553D01*
X029347Y022628D02*
X029347Y022177D01*
X029197Y022328D01*
X029047Y022177D01*
X029047Y022628D01*
X016498Y026558D02*
X016501Y026693D01*
X016511Y026828D01*
X016528Y026962D01*
X016551Y027096D01*
X016581Y027228D01*
X016617Y027358D01*
X016659Y027486D01*
X016708Y027613D01*
X016763Y027736D01*
X016823Y027857D01*
X016890Y027975D01*
X016962Y028089D01*
X017040Y028200D01*
X017124Y028306D01*
X017212Y028409D01*
X017305Y028507D01*
X017403Y028600D01*
X017506Y028688D01*
X017612Y028772D01*
X017723Y028850D01*
X017837Y028922D01*
X017955Y028989D01*
X018076Y029049D01*
X018199Y029104D01*
X018326Y029153D01*
X018454Y029195D01*
X018584Y029231D01*
X018716Y029261D01*
X018850Y029284D01*
X018984Y029301D01*
X019119Y029311D01*
X019254Y029314D01*
X019389Y029311D01*
X019524Y029301D01*
X019658Y029284D01*
X019792Y029261D01*
X019924Y029231D01*
X020054Y029195D01*
X020182Y029153D01*
X020309Y029104D01*
X020432Y029049D01*
X020553Y028989D01*
X020671Y028922D01*
X020785Y028850D01*
X020896Y028772D01*
X021002Y028688D01*
X021105Y028600D01*
X021203Y028507D01*
X021296Y028409D01*
X021384Y028306D01*
X021468Y028200D01*
X021546Y028089D01*
X021618Y027975D01*
X021685Y027857D01*
X021745Y027736D01*
X021800Y027613D01*
X021849Y027486D01*
X021891Y027358D01*
X021927Y027228D01*
X021957Y027096D01*
X021980Y026962D01*
X021997Y026828D01*
X022007Y026693D01*
X022010Y026558D01*
X022007Y026423D01*
X021997Y026288D01*
X021980Y026154D01*
X021957Y026020D01*
X021927Y025888D01*
X021891Y025758D01*
X021849Y025630D01*
X021800Y025503D01*
X021745Y025380D01*
X021685Y025259D01*
X021618Y025141D01*
X021546Y025027D01*
X021468Y024916D01*
X021384Y024810D01*
X021296Y024707D01*
X021203Y024609D01*
X021105Y024516D01*
X021002Y024428D01*
X020896Y024344D01*
X020785Y024266D01*
X020671Y024194D01*
X020553Y024127D01*
X020432Y024067D01*
X020309Y024012D01*
X020182Y023963D01*
X020054Y023921D01*
X019924Y023885D01*
X019792Y023855D01*
X019658Y023832D01*
X019524Y023815D01*
X019389Y023805D01*
X019254Y023802D01*
X019119Y023805D01*
X018984Y023815D01*
X018850Y023832D01*
X018716Y023855D01*
X018584Y023885D01*
X018454Y023921D01*
X018326Y023963D01*
X018199Y024012D01*
X018076Y024067D01*
X017955Y024127D01*
X017837Y024194D01*
X017723Y024266D01*
X017612Y024344D01*
X017506Y024428D01*
X017403Y024516D01*
X017305Y024609D01*
X017212Y024707D01*
X017124Y024810D01*
X017040Y024916D01*
X016962Y025027D01*
X016890Y025141D01*
X016823Y025259D01*
X016763Y025380D01*
X016708Y025503D01*
X016659Y025630D01*
X016617Y025758D01*
X016581Y025888D01*
X016551Y026020D01*
X016528Y026154D01*
X016511Y026288D01*
X016501Y026423D01*
X016498Y026558D01*
X007197Y010023D02*
X007202Y010219D01*
X007216Y010414D01*
X007240Y010608D01*
X007274Y010801D01*
X007316Y010992D01*
X007369Y011180D01*
X007430Y011366D01*
X007500Y011548D01*
X007580Y011727D01*
X007668Y011902D01*
X007764Y012072D01*
X007869Y012238D01*
X007981Y012397D01*
X008102Y012552D01*
X008230Y012700D01*
X008364Y012842D01*
X008506Y012976D01*
X008654Y013104D01*
X008809Y013225D01*
X008968Y013337D01*
X009134Y013442D01*
X009304Y013538D01*
X009479Y013626D01*
X009658Y013706D01*
X009840Y013776D01*
X010026Y013837D01*
X010214Y013890D01*
X010405Y013932D01*
X010598Y013966D01*
X010792Y013990D01*
X010987Y014004D01*
X011183Y014009D01*
X011379Y014004D01*
X011574Y013990D01*
X011768Y013966D01*
X011961Y013932D01*
X012152Y013890D01*
X012340Y013837D01*
X012526Y013776D01*
X012708Y013706D01*
X012887Y013626D01*
X013062Y013538D01*
X013232Y013442D01*
X013398Y013337D01*
X013557Y013225D01*
X013712Y013104D01*
X013860Y012976D01*
X014002Y012842D01*
X014136Y012700D01*
X014264Y012552D01*
X014385Y012397D01*
X014497Y012238D01*
X014602Y012072D01*
X014698Y011902D01*
X014786Y011727D01*
X014866Y011548D01*
X014936Y011366D01*
X014997Y011180D01*
X015050Y010992D01*
X015092Y010801D01*
X015126Y010608D01*
X015150Y010414D01*
X015164Y010219D01*
X015169Y010023D01*
X015164Y009827D01*
X015150Y009632D01*
X015126Y009438D01*
X015092Y009245D01*
X015050Y009054D01*
X014997Y008866D01*
X014936Y008680D01*
X014866Y008498D01*
X014786Y008319D01*
X014698Y008144D01*
X014602Y007974D01*
X014497Y007808D01*
X014385Y007649D01*
X014264Y007494D01*
X014136Y007346D01*
X014002Y007204D01*
X013860Y007070D01*
X013712Y006942D01*
X013557Y006821D01*
X013398Y006709D01*
X013232Y006604D01*
X013062Y006508D01*
X012887Y006420D01*
X012708Y006340D01*
X012526Y006270D01*
X012340Y006209D01*
X012152Y006156D01*
X011961Y006114D01*
X011768Y006080D01*
X011574Y006056D01*
X011379Y006042D01*
X011183Y006037D01*
X010987Y006042D01*
X010792Y006056D01*
X010598Y006080D01*
X010405Y006114D01*
X010214Y006156D01*
X010026Y006209D01*
X009840Y006270D01*
X009658Y006340D01*
X009479Y006420D01*
X009304Y006508D01*
X009134Y006604D01*
X008968Y006709D01*
X008809Y006821D01*
X008654Y006942D01*
X008506Y007070D01*
X008364Y007204D01*
X008230Y007346D01*
X008102Y007494D01*
X007981Y007649D01*
X007869Y007808D01*
X007764Y007974D01*
X007668Y008144D01*
X007580Y008319D01*
X007500Y008498D01*
X007430Y008680D01*
X007369Y008866D01*
X007316Y009054D01*
X007274Y009245D01*
X007240Y009438D01*
X007216Y009632D01*
X007202Y009827D01*
X007197Y010023D01*
X019925Y009243D02*
X019925Y004912D01*
X023468Y004912D01*
X023468Y009243D01*
X019925Y009243D01*
X019925Y008849D02*
X023468Y008849D01*
X021284Y007432D02*
X021286Y007472D01*
X021292Y007513D01*
X021302Y007552D01*
X021315Y007590D01*
X021333Y007627D01*
X021354Y007661D01*
X021378Y007694D01*
X021405Y007724D01*
X021435Y007751D01*
X021468Y007775D01*
X021502Y007796D01*
X021539Y007814D01*
X021577Y007827D01*
X021616Y007837D01*
X021657Y007843D01*
X021697Y007845D01*
X021737Y007843D01*
X021778Y007837D01*
X021817Y007827D01*
X021855Y007814D01*
X021892Y007796D01*
X021926Y007775D01*
X021959Y007751D01*
X021989Y007724D01*
X022016Y007694D01*
X022040Y007661D01*
X022061Y007627D01*
X022079Y007590D01*
X022092Y007552D01*
X022102Y007513D01*
X022108Y007472D01*
X022110Y007432D01*
X022108Y007392D01*
X022102Y007351D01*
X022092Y007312D01*
X022079Y007274D01*
X022061Y007237D01*
X022040Y007203D01*
X022016Y007170D01*
X021989Y007140D01*
X021959Y007113D01*
X021926Y007089D01*
X021892Y007068D01*
X021855Y007050D01*
X021817Y007037D01*
X021778Y007027D01*
X021737Y007021D01*
X021697Y007019D01*
X021657Y007021D01*
X021616Y007027D01*
X021577Y007037D01*
X021539Y007050D01*
X021502Y007068D01*
X021468Y007089D01*
X021435Y007113D01*
X021405Y007140D01*
X021378Y007170D01*
X021354Y007203D01*
X021333Y007237D01*
X021315Y007274D01*
X021302Y007312D01*
X021292Y007351D01*
X021286Y007392D01*
X021284Y007432D01*
X020437Y007432D02*
X020439Y007503D01*
X020445Y007573D01*
X020455Y007643D01*
X020469Y007712D01*
X020486Y007781D01*
X020508Y007848D01*
X020533Y007914D01*
X020562Y007979D01*
X020594Y008041D01*
X020630Y008102D01*
X020669Y008161D01*
X020712Y008218D01*
X020757Y008272D01*
X020806Y008323D01*
X020857Y008372D01*
X020911Y008417D01*
X020968Y008460D01*
X021027Y008499D01*
X021088Y008535D01*
X021150Y008567D01*
X021215Y008596D01*
X021281Y008621D01*
X021348Y008643D01*
X021417Y008660D01*
X021486Y008674D01*
X021556Y008684D01*
X021626Y008690D01*
X021697Y008692D01*
X021768Y008690D01*
X021838Y008684D01*
X021908Y008674D01*
X021977Y008660D01*
X022046Y008643D01*
X022113Y008621D01*
X022179Y008596D01*
X022244Y008567D01*
X022306Y008535D01*
X022367Y008499D01*
X022426Y008460D01*
X022483Y008417D01*
X022537Y008372D01*
X022588Y008323D01*
X022637Y008272D01*
X022682Y008218D01*
X022725Y008161D01*
X022764Y008102D01*
X022800Y008041D01*
X022832Y007979D01*
X022861Y007914D01*
X022886Y007848D01*
X022908Y007781D01*
X022925Y007712D01*
X022939Y007643D01*
X022949Y007573D01*
X022955Y007503D01*
X022957Y007432D01*
X022955Y007361D01*
X022949Y007291D01*
X022939Y007221D01*
X022925Y007152D01*
X022908Y007083D01*
X022886Y007016D01*
X022861Y006950D01*
X022832Y006885D01*
X022800Y006823D01*
X022764Y006762D01*
X022725Y006703D01*
X022682Y006646D01*
X022637Y006592D01*
X022588Y006541D01*
X022537Y006492D01*
X022483Y006447D01*
X022426Y006404D01*
X022367Y006365D01*
X022306Y006329D01*
X022244Y006297D01*
X022179Y006268D01*
X022113Y006243D01*
X022046Y006221D01*
X021977Y006204D01*
X021908Y006190D01*
X021838Y006180D01*
X021768Y006174D01*
X021697Y006172D01*
X021626Y006174D01*
X021556Y006180D01*
X021486Y006190D01*
X021417Y006204D01*
X021348Y006221D01*
X021281Y006243D01*
X021215Y006268D01*
X021150Y006297D01*
X021088Y006329D01*
X021027Y006365D01*
X020968Y006404D01*
X020911Y006447D01*
X020857Y006492D01*
X020806Y006541D01*
X020757Y006592D01*
X020712Y006646D01*
X020669Y006703D01*
X020630Y006762D01*
X020594Y006823D01*
X020562Y006885D01*
X020533Y006950D01*
X020508Y007016D01*
X020486Y007083D01*
X020469Y007152D01*
X020455Y007221D01*
X020445Y007291D01*
X020439Y007361D01*
X020437Y007432D01*
X027500Y008849D02*
X031043Y008849D01*
X031043Y009243D02*
X027500Y009243D01*
X027500Y004912D01*
X031043Y004912D01*
X031043Y009243D01*
X028858Y007432D02*
X028860Y007472D01*
X028866Y007513D01*
X028876Y007552D01*
X028889Y007590D01*
X028907Y007627D01*
X028928Y007661D01*
X028952Y007694D01*
X028979Y007724D01*
X029009Y007751D01*
X029042Y007775D01*
X029076Y007796D01*
X029113Y007814D01*
X029151Y007827D01*
X029190Y007837D01*
X029231Y007843D01*
X029271Y007845D01*
X029311Y007843D01*
X029352Y007837D01*
X029391Y007827D01*
X029429Y007814D01*
X029466Y007796D01*
X029500Y007775D01*
X029533Y007751D01*
X029563Y007724D01*
X029590Y007694D01*
X029614Y007661D01*
X029635Y007627D01*
X029653Y007590D01*
X029666Y007552D01*
X029676Y007513D01*
X029682Y007472D01*
X029684Y007432D01*
X029682Y007392D01*
X029676Y007351D01*
X029666Y007312D01*
X029653Y007274D01*
X029635Y007237D01*
X029614Y007203D01*
X029590Y007170D01*
X029563Y007140D01*
X029533Y007113D01*
X029500Y007089D01*
X029466Y007068D01*
X029429Y007050D01*
X029391Y007037D01*
X029352Y007027D01*
X029311Y007021D01*
X029271Y007019D01*
X029231Y007021D01*
X029190Y007027D01*
X029151Y007037D01*
X029113Y007050D01*
X029076Y007068D01*
X029042Y007089D01*
X029009Y007113D01*
X028979Y007140D01*
X028952Y007170D01*
X028928Y007203D01*
X028907Y007237D01*
X028889Y007274D01*
X028876Y007312D01*
X028866Y007351D01*
X028860Y007392D01*
X028858Y007432D01*
X028011Y007432D02*
X028013Y007503D01*
X028019Y007573D01*
X028029Y007643D01*
X028043Y007712D01*
X028060Y007781D01*
X028082Y007848D01*
X028107Y007914D01*
X028136Y007979D01*
X028168Y008041D01*
X028204Y008102D01*
X028243Y008161D01*
X028286Y008218D01*
X028331Y008272D01*
X028380Y008323D01*
X028431Y008372D01*
X028485Y008417D01*
X028542Y008460D01*
X028601Y008499D01*
X028662Y008535D01*
X028724Y008567D01*
X028789Y008596D01*
X028855Y008621D01*
X028922Y008643D01*
X028991Y008660D01*
X029060Y008674D01*
X029130Y008684D01*
X029200Y008690D01*
X029271Y008692D01*
X029342Y008690D01*
X029412Y008684D01*
X029482Y008674D01*
X029551Y008660D01*
X029620Y008643D01*
X029687Y008621D01*
X029753Y008596D01*
X029818Y008567D01*
X029880Y008535D01*
X029941Y008499D01*
X030000Y008460D01*
X030057Y008417D01*
X030111Y008372D01*
X030162Y008323D01*
X030211Y008272D01*
X030256Y008218D01*
X030299Y008161D01*
X030338Y008102D01*
X030374Y008041D01*
X030406Y007979D01*
X030435Y007914D01*
X030460Y007848D01*
X030482Y007781D01*
X030499Y007712D01*
X030513Y007643D01*
X030523Y007573D01*
X030529Y007503D01*
X030531Y007432D01*
X030529Y007361D01*
X030523Y007291D01*
X030513Y007221D01*
X030499Y007152D01*
X030482Y007083D01*
X030460Y007016D01*
X030435Y006950D01*
X030406Y006885D01*
X030374Y006823D01*
X030338Y006762D01*
X030299Y006703D01*
X030256Y006646D01*
X030211Y006592D01*
X030162Y006541D01*
X030111Y006492D01*
X030057Y006447D01*
X030000Y006404D01*
X029941Y006365D01*
X029880Y006329D01*
X029818Y006297D01*
X029753Y006268D01*
X029687Y006243D01*
X029620Y006221D01*
X029551Y006204D01*
X029482Y006190D01*
X029412Y006180D01*
X029342Y006174D01*
X029271Y006172D01*
X029200Y006174D01*
X029130Y006180D01*
X029060Y006190D01*
X028991Y006204D01*
X028922Y006221D01*
X028855Y006243D01*
X028789Y006268D01*
X028724Y006297D01*
X028662Y006329D01*
X028601Y006365D01*
X028542Y006404D01*
X028485Y006447D01*
X028431Y006492D01*
X028380Y006541D01*
X028331Y006592D01*
X028286Y006646D01*
X028243Y006703D01*
X028204Y006762D01*
X028168Y006823D01*
X028136Y006885D01*
X028107Y006950D01*
X028082Y007016D01*
X028060Y007083D01*
X028043Y007152D01*
X028029Y007221D01*
X028019Y007291D01*
X028013Y007361D01*
X028011Y007432D01*
X035075Y008849D02*
X038618Y008849D01*
X038618Y009243D02*
X035075Y009243D01*
X035075Y004912D01*
X038618Y004912D01*
X038618Y009243D01*
X036433Y007432D02*
X036435Y007472D01*
X036441Y007513D01*
X036451Y007552D01*
X036464Y007590D01*
X036482Y007627D01*
X036503Y007661D01*
X036527Y007694D01*
X036554Y007724D01*
X036584Y007751D01*
X036617Y007775D01*
X036651Y007796D01*
X036688Y007814D01*
X036726Y007827D01*
X036765Y007837D01*
X036806Y007843D01*
X036846Y007845D01*
X036886Y007843D01*
X036927Y007837D01*
X036966Y007827D01*
X037004Y007814D01*
X037041Y007796D01*
X037075Y007775D01*
X037108Y007751D01*
X037138Y007724D01*
X037165Y007694D01*
X037189Y007661D01*
X037210Y007627D01*
X037228Y007590D01*
X037241Y007552D01*
X037251Y007513D01*
X037257Y007472D01*
X037259Y007432D01*
X037257Y007392D01*
X037251Y007351D01*
X037241Y007312D01*
X037228Y007274D01*
X037210Y007237D01*
X037189Y007203D01*
X037165Y007170D01*
X037138Y007140D01*
X037108Y007113D01*
X037075Y007089D01*
X037041Y007068D01*
X037004Y007050D01*
X036966Y007037D01*
X036927Y007027D01*
X036886Y007021D01*
X036846Y007019D01*
X036806Y007021D01*
X036765Y007027D01*
X036726Y007037D01*
X036688Y007050D01*
X036651Y007068D01*
X036617Y007089D01*
X036584Y007113D01*
X036554Y007140D01*
X036527Y007170D01*
X036503Y007203D01*
X036482Y007237D01*
X036464Y007274D01*
X036451Y007312D01*
X036441Y007351D01*
X036435Y007392D01*
X036433Y007432D01*
X035586Y007432D02*
X035588Y007503D01*
X035594Y007573D01*
X035604Y007643D01*
X035618Y007712D01*
X035635Y007781D01*
X035657Y007848D01*
X035682Y007914D01*
X035711Y007979D01*
X035743Y008041D01*
X035779Y008102D01*
X035818Y008161D01*
X035861Y008218D01*
X035906Y008272D01*
X035955Y008323D01*
X036006Y008372D01*
X036060Y008417D01*
X036117Y008460D01*
X036176Y008499D01*
X036237Y008535D01*
X036299Y008567D01*
X036364Y008596D01*
X036430Y008621D01*
X036497Y008643D01*
X036566Y008660D01*
X036635Y008674D01*
X036705Y008684D01*
X036775Y008690D01*
X036846Y008692D01*
X036917Y008690D01*
X036987Y008684D01*
X037057Y008674D01*
X037126Y008660D01*
X037195Y008643D01*
X037262Y008621D01*
X037328Y008596D01*
X037393Y008567D01*
X037455Y008535D01*
X037516Y008499D01*
X037575Y008460D01*
X037632Y008417D01*
X037686Y008372D01*
X037737Y008323D01*
X037786Y008272D01*
X037831Y008218D01*
X037874Y008161D01*
X037913Y008102D01*
X037949Y008041D01*
X037981Y007979D01*
X038010Y007914D01*
X038035Y007848D01*
X038057Y007781D01*
X038074Y007712D01*
X038088Y007643D01*
X038098Y007573D01*
X038104Y007503D01*
X038106Y007432D01*
X038104Y007361D01*
X038098Y007291D01*
X038088Y007221D01*
X038074Y007152D01*
X038057Y007083D01*
X038035Y007016D01*
X038010Y006950D01*
X037981Y006885D01*
X037949Y006823D01*
X037913Y006762D01*
X037874Y006703D01*
X037831Y006646D01*
X037786Y006592D01*
X037737Y006541D01*
X037686Y006492D01*
X037632Y006447D01*
X037575Y006404D01*
X037516Y006365D01*
X037455Y006329D01*
X037393Y006297D01*
X037328Y006268D01*
X037262Y006243D01*
X037195Y006221D01*
X037126Y006204D01*
X037057Y006190D01*
X036987Y006180D01*
X036917Y006174D01*
X036846Y006172D01*
X036775Y006174D01*
X036705Y006180D01*
X036635Y006190D01*
X036566Y006204D01*
X036497Y006221D01*
X036430Y006243D01*
X036364Y006268D01*
X036299Y006297D01*
X036237Y006329D01*
X036176Y006365D01*
X036117Y006404D01*
X036060Y006447D01*
X036006Y006492D01*
X035955Y006541D01*
X035906Y006592D01*
X035861Y006646D01*
X035818Y006703D01*
X035779Y006762D01*
X035743Y006823D01*
X035711Y006885D01*
X035682Y006950D01*
X035657Y007016D01*
X035635Y007083D01*
X035618Y007152D01*
X035604Y007221D01*
X035594Y007291D01*
X035588Y007361D01*
X035586Y007432D01*
D216*
X030143Y019452D02*
X028443Y019452D01*
X028093Y020252D02*
X028093Y021045D01*
X028443Y021852D02*
X030143Y021852D01*
X030493Y021057D02*
X030493Y020252D01*
X028593Y020652D02*
X028595Y020704D01*
X028601Y020756D01*
X028611Y020808D01*
X028624Y020858D01*
X028641Y020908D01*
X028662Y020956D01*
X028687Y021002D01*
X028715Y021046D01*
X028746Y021088D01*
X028780Y021128D01*
X028817Y021165D01*
X028857Y021199D01*
X028899Y021230D01*
X028943Y021258D01*
X028989Y021283D01*
X029037Y021304D01*
X029087Y021321D01*
X029137Y021334D01*
X029189Y021344D01*
X029241Y021350D01*
X029293Y021352D01*
X029345Y021350D01*
X029397Y021344D01*
X029449Y021334D01*
X029499Y021321D01*
X029549Y021304D01*
X029597Y021283D01*
X029643Y021258D01*
X029687Y021230D01*
X029729Y021199D01*
X029769Y021165D01*
X029806Y021128D01*
X029840Y021088D01*
X029871Y021046D01*
X029899Y021002D01*
X029924Y020956D01*
X029945Y020908D01*
X029962Y020858D01*
X029975Y020808D01*
X029985Y020756D01*
X029991Y020704D01*
X029993Y020652D01*
X029991Y020600D01*
X029985Y020548D01*
X029975Y020496D01*
X029962Y020446D01*
X029945Y020396D01*
X029924Y020348D01*
X029899Y020302D01*
X029871Y020258D01*
X029840Y020216D01*
X029806Y020176D01*
X029769Y020139D01*
X029729Y020105D01*
X029687Y020074D01*
X029643Y020046D01*
X029597Y020021D01*
X029549Y020000D01*
X029499Y019983D01*
X029449Y019970D01*
X029397Y019960D01*
X029345Y019954D01*
X029293Y019952D01*
X029241Y019954D01*
X029189Y019960D01*
X029137Y019970D01*
X029087Y019983D01*
X029037Y020000D01*
X028989Y020021D01*
X028943Y020046D01*
X028899Y020074D01*
X028857Y020105D01*
X028817Y020139D01*
X028780Y020176D01*
X028746Y020216D01*
X028715Y020258D01*
X028687Y020302D01*
X028662Y020348D01*
X028641Y020396D01*
X028624Y020446D01*
X028611Y020496D01*
X028601Y020548D01*
X028595Y020600D01*
X028593Y020652D01*
M02*
