G75*
G70*
%OFA0B0*%
%FSLAX24Y24*%
%IPPOS*%
%LPD*%
%AMOC8*
5,1,8,0,0,1.08239X$1,22.5*
%
%ADD10C,0.0000*%
%ADD11C,0.0050*%
%ADD12C,0.0040*%
%ADD13C,0.0060*%
%ADD14C,0.0079*%
%ADD15C,0.0157*%
%ADD16C,0.0080*%
%ADD17R,0.0266X0.0965*%
%ADD18C,0.0030*%
%ADD19C,0.0300*%
%ADD20R,0.0200X0.0300*%
%ADD21R,0.0400X0.0300*%
%ADD22C,0.0020*%
%ADD23C,0.0100*%
%ADD24R,0.0118X0.0827*%
%ADD25R,0.0079X0.0079*%
%ADD26R,0.0380X0.0660*%
%ADD27R,0.2441X0.0492*%
%ADD28C,0.0039*%
D10*
X001087Y001087D02*
X038883Y001087D01*
X038883Y001088D02*
X038937Y001090D01*
X038990Y001095D01*
X039043Y001104D01*
X039095Y001117D01*
X039147Y001133D01*
X039197Y001153D01*
X039245Y001176D01*
X039292Y001203D01*
X039337Y001232D01*
X039380Y001265D01*
X039420Y001300D01*
X039458Y001338D01*
X039493Y001378D01*
X039526Y001421D01*
X039555Y001466D01*
X039582Y001513D01*
X039605Y001561D01*
X039625Y001611D01*
X039641Y001663D01*
X039654Y001715D01*
X039663Y001768D01*
X039668Y001821D01*
X039670Y001875D01*
X039670Y031796D01*
X039668Y031850D01*
X039663Y031903D01*
X039654Y031956D01*
X039641Y032008D01*
X039625Y032060D01*
X039605Y032110D01*
X039582Y032158D01*
X039555Y032205D01*
X039526Y032250D01*
X039493Y032293D01*
X039458Y032333D01*
X039420Y032371D01*
X039380Y032406D01*
X039337Y032439D01*
X039292Y032468D01*
X039245Y032495D01*
X039197Y032518D01*
X039147Y032538D01*
X039095Y032554D01*
X039043Y032567D01*
X038990Y032576D01*
X038937Y032581D01*
X038883Y032583D01*
X001087Y032583D01*
X001033Y032581D01*
X000980Y032576D01*
X000927Y032567D01*
X000875Y032554D01*
X000823Y032538D01*
X000773Y032518D01*
X000725Y032495D01*
X000678Y032468D01*
X000633Y032439D01*
X000590Y032406D01*
X000550Y032371D01*
X000512Y032333D01*
X000477Y032293D01*
X000444Y032250D01*
X000415Y032205D01*
X000388Y032158D01*
X000365Y032110D01*
X000345Y032060D01*
X000329Y032008D01*
X000316Y031956D01*
X000307Y031903D01*
X000302Y031850D01*
X000300Y031796D01*
X000300Y001875D01*
X000302Y001821D01*
X000307Y001768D01*
X000316Y001715D01*
X000329Y001663D01*
X000345Y001611D01*
X000365Y001561D01*
X000388Y001513D01*
X000415Y001466D01*
X000444Y001421D01*
X000477Y001378D01*
X000512Y001338D01*
X000550Y001300D01*
X000590Y001265D01*
X000633Y001232D01*
X000678Y001203D01*
X000725Y001176D01*
X000773Y001153D01*
X000823Y001133D01*
X000875Y001117D01*
X000927Y001104D01*
X000980Y001095D01*
X001033Y001090D01*
X001087Y001088D01*
X000851Y002269D02*
X000853Y002319D01*
X000859Y002369D01*
X000869Y002418D01*
X000883Y002466D01*
X000900Y002513D01*
X000921Y002558D01*
X000946Y002602D01*
X000974Y002643D01*
X001006Y002682D01*
X001040Y002719D01*
X001077Y002753D01*
X001117Y002783D01*
X001159Y002810D01*
X001203Y002834D01*
X001249Y002855D01*
X001296Y002871D01*
X001344Y002884D01*
X001394Y002893D01*
X001443Y002898D01*
X001494Y002899D01*
X001544Y002896D01*
X001593Y002889D01*
X001642Y002878D01*
X001690Y002863D01*
X001736Y002845D01*
X001781Y002823D01*
X001824Y002797D01*
X001865Y002768D01*
X001904Y002736D01*
X001940Y002701D01*
X001972Y002663D01*
X002002Y002623D01*
X002029Y002580D01*
X002052Y002536D01*
X002071Y002490D01*
X002087Y002442D01*
X002099Y002393D01*
X002107Y002344D01*
X002111Y002294D01*
X002111Y002244D01*
X002107Y002194D01*
X002099Y002145D01*
X002087Y002096D01*
X002071Y002048D01*
X002052Y002002D01*
X002029Y001958D01*
X002002Y001915D01*
X001972Y001875D01*
X001940Y001837D01*
X001904Y001802D01*
X001865Y001770D01*
X001824Y001741D01*
X001781Y001715D01*
X001736Y001693D01*
X001690Y001675D01*
X001642Y001660D01*
X001593Y001649D01*
X001544Y001642D01*
X001494Y001639D01*
X001443Y001640D01*
X001394Y001645D01*
X001344Y001654D01*
X001296Y001667D01*
X001249Y001683D01*
X001203Y001704D01*
X001159Y001728D01*
X001117Y001755D01*
X001077Y001785D01*
X001040Y001819D01*
X001006Y001856D01*
X000974Y001895D01*
X000946Y001936D01*
X000921Y001980D01*
X000900Y002025D01*
X000883Y002072D01*
X000869Y002120D01*
X000859Y002169D01*
X000853Y002219D01*
X000851Y002269D01*
X000851Y022347D02*
X000853Y022397D01*
X000859Y022447D01*
X000869Y022496D01*
X000883Y022544D01*
X000900Y022591D01*
X000921Y022636D01*
X000946Y022680D01*
X000974Y022721D01*
X001006Y022760D01*
X001040Y022797D01*
X001077Y022831D01*
X001117Y022861D01*
X001159Y022888D01*
X001203Y022912D01*
X001249Y022933D01*
X001296Y022949D01*
X001344Y022962D01*
X001394Y022971D01*
X001443Y022976D01*
X001494Y022977D01*
X001544Y022974D01*
X001593Y022967D01*
X001642Y022956D01*
X001690Y022941D01*
X001736Y022923D01*
X001781Y022901D01*
X001824Y022875D01*
X001865Y022846D01*
X001904Y022814D01*
X001940Y022779D01*
X001972Y022741D01*
X002002Y022701D01*
X002029Y022658D01*
X002052Y022614D01*
X002071Y022568D01*
X002087Y022520D01*
X002099Y022471D01*
X002107Y022422D01*
X002111Y022372D01*
X002111Y022322D01*
X002107Y022272D01*
X002099Y022223D01*
X002087Y022174D01*
X002071Y022126D01*
X002052Y022080D01*
X002029Y022036D01*
X002002Y021993D01*
X001972Y021953D01*
X001940Y021915D01*
X001904Y021880D01*
X001865Y021848D01*
X001824Y021819D01*
X001781Y021793D01*
X001736Y021771D01*
X001690Y021753D01*
X001642Y021738D01*
X001593Y021727D01*
X001544Y021720D01*
X001494Y021717D01*
X001443Y021718D01*
X001394Y021723D01*
X001344Y021732D01*
X001296Y021745D01*
X001249Y021761D01*
X001203Y021782D01*
X001159Y021806D01*
X001117Y021833D01*
X001077Y021863D01*
X001040Y021897D01*
X001006Y021934D01*
X000974Y021973D01*
X000946Y022014D01*
X000921Y022058D01*
X000900Y022103D01*
X000883Y022150D01*
X000869Y022198D01*
X000859Y022247D01*
X000853Y022297D01*
X000851Y022347D01*
X028016Y022347D02*
X028018Y022397D01*
X028024Y022447D01*
X028034Y022496D01*
X028048Y022544D01*
X028065Y022591D01*
X028086Y022636D01*
X028111Y022680D01*
X028139Y022721D01*
X028171Y022760D01*
X028205Y022797D01*
X028242Y022831D01*
X028282Y022861D01*
X028324Y022888D01*
X028368Y022912D01*
X028414Y022933D01*
X028461Y022949D01*
X028509Y022962D01*
X028559Y022971D01*
X028608Y022976D01*
X028659Y022977D01*
X028709Y022974D01*
X028758Y022967D01*
X028807Y022956D01*
X028855Y022941D01*
X028901Y022923D01*
X028946Y022901D01*
X028989Y022875D01*
X029030Y022846D01*
X029069Y022814D01*
X029105Y022779D01*
X029137Y022741D01*
X029167Y022701D01*
X029194Y022658D01*
X029217Y022614D01*
X029236Y022568D01*
X029252Y022520D01*
X029264Y022471D01*
X029272Y022422D01*
X029276Y022372D01*
X029276Y022322D01*
X029272Y022272D01*
X029264Y022223D01*
X029252Y022174D01*
X029236Y022126D01*
X029217Y022080D01*
X029194Y022036D01*
X029167Y021993D01*
X029137Y021953D01*
X029105Y021915D01*
X029069Y021880D01*
X029030Y021848D01*
X028989Y021819D01*
X028946Y021793D01*
X028901Y021771D01*
X028855Y021753D01*
X028807Y021738D01*
X028758Y021727D01*
X028709Y021720D01*
X028659Y021717D01*
X028608Y021718D01*
X028559Y021723D01*
X028509Y021732D01*
X028461Y021745D01*
X028414Y021761D01*
X028368Y021782D01*
X028324Y021806D01*
X028282Y021833D01*
X028242Y021863D01*
X028205Y021897D01*
X028171Y021934D01*
X028139Y021973D01*
X028111Y022014D01*
X028086Y022058D01*
X028065Y022103D01*
X028048Y022150D01*
X028034Y022198D01*
X028024Y022247D01*
X028018Y022297D01*
X028016Y022347D01*
X028016Y002269D02*
X028018Y002319D01*
X028024Y002369D01*
X028034Y002418D01*
X028048Y002466D01*
X028065Y002513D01*
X028086Y002558D01*
X028111Y002602D01*
X028139Y002643D01*
X028171Y002682D01*
X028205Y002719D01*
X028242Y002753D01*
X028282Y002783D01*
X028324Y002810D01*
X028368Y002834D01*
X028414Y002855D01*
X028461Y002871D01*
X028509Y002884D01*
X028559Y002893D01*
X028608Y002898D01*
X028659Y002899D01*
X028709Y002896D01*
X028758Y002889D01*
X028807Y002878D01*
X028855Y002863D01*
X028901Y002845D01*
X028946Y002823D01*
X028989Y002797D01*
X029030Y002768D01*
X029069Y002736D01*
X029105Y002701D01*
X029137Y002663D01*
X029167Y002623D01*
X029194Y002580D01*
X029217Y002536D01*
X029236Y002490D01*
X029252Y002442D01*
X029264Y002393D01*
X029272Y002344D01*
X029276Y002294D01*
X029276Y002244D01*
X029272Y002194D01*
X029264Y002145D01*
X029252Y002096D01*
X029236Y002048D01*
X029217Y002002D01*
X029194Y001958D01*
X029167Y001915D01*
X029137Y001875D01*
X029105Y001837D01*
X029069Y001802D01*
X029030Y001770D01*
X028989Y001741D01*
X028946Y001715D01*
X028901Y001693D01*
X028855Y001675D01*
X028807Y001660D01*
X028758Y001649D01*
X028709Y001642D01*
X028659Y001639D01*
X028608Y001640D01*
X028559Y001645D01*
X028509Y001654D01*
X028461Y001667D01*
X028414Y001683D01*
X028368Y001704D01*
X028324Y001728D01*
X028282Y001755D01*
X028242Y001785D01*
X028205Y001819D01*
X028171Y001856D01*
X028139Y001895D01*
X028111Y001936D01*
X028086Y001980D01*
X028065Y002025D01*
X028048Y002072D01*
X028034Y002120D01*
X028024Y002169D01*
X028018Y002219D01*
X028016Y002269D01*
D11*
X034158Y009355D02*
X034158Y011127D01*
X032780Y012505D01*
X032780Y014867D01*
X034158Y016245D01*
X034158Y018017D01*
X037308Y018017D01*
X037308Y016245D01*
X038686Y014867D01*
X038686Y012505D01*
X037308Y011127D01*
X037308Y009355D01*
X034158Y009355D01*
X029591Y015379D02*
X029561Y015386D01*
X029531Y015396D01*
X029503Y015409D01*
X029477Y015426D01*
X029452Y015446D01*
X029431Y015468D01*
X029412Y015493D01*
X029396Y015520D01*
X029383Y015548D01*
X029374Y015578D01*
X029368Y015609D01*
X029366Y015640D01*
X029368Y015671D01*
X029373Y015702D01*
X029382Y015732D01*
X029394Y015761D01*
X029409Y015788D01*
X029428Y015813D01*
X029449Y015836D01*
X029473Y015856D01*
X029500Y015873D01*
X029527Y015887D01*
X029557Y015897D01*
X029587Y015904D01*
X029749Y016658D02*
X029751Y016673D01*
X029756Y016686D01*
X029765Y016698D01*
X029776Y016708D01*
X029790Y016714D01*
X029804Y016717D01*
X029819Y016716D01*
X029833Y016711D01*
X029846Y016703D01*
X029856Y016693D01*
X029863Y016680D01*
X029867Y016665D01*
X029867Y016651D01*
X029863Y016636D01*
X029856Y016623D01*
X029846Y016613D01*
X029833Y016605D01*
X029819Y016600D01*
X029804Y016599D01*
X029790Y016602D01*
X029776Y016608D01*
X029765Y016618D01*
X029756Y016630D01*
X029751Y016643D01*
X029749Y016658D01*
X032046Y026428D02*
X032046Y028428D01*
X032546Y028428D01*
X032548Y028398D01*
X032553Y028368D01*
X032562Y028339D01*
X032575Y028312D01*
X032590Y028286D01*
X032609Y028262D01*
X032630Y028241D01*
X032654Y028222D01*
X032680Y028207D01*
X032707Y028194D01*
X032736Y028185D01*
X032766Y028180D01*
X032796Y028178D01*
X032826Y028180D01*
X032856Y028185D01*
X032885Y028194D01*
X032912Y028207D01*
X032938Y028222D01*
X032962Y028241D01*
X032983Y028262D01*
X033002Y028286D01*
X033017Y028312D01*
X033030Y028339D01*
X033039Y028368D01*
X033044Y028398D01*
X033046Y028428D01*
X033546Y028428D01*
X033546Y026428D01*
X032046Y026428D01*
X024316Y029721D02*
X021816Y028221D01*
X020816Y028221D01*
X018316Y029721D01*
X018316Y030721D02*
X020816Y032221D01*
X021816Y032221D01*
X024316Y030721D01*
X019316Y030221D02*
X019318Y030319D01*
X019326Y030417D01*
X019338Y030514D01*
X019354Y030611D01*
X019376Y030707D01*
X019402Y030802D01*
X019433Y030895D01*
X019468Y030986D01*
X019508Y031076D01*
X019552Y031164D01*
X019601Y031249D01*
X019653Y031332D01*
X019710Y031412D01*
X019770Y031490D01*
X019834Y031564D01*
X019902Y031635D01*
X019973Y031703D01*
X020047Y031767D01*
X020125Y031827D01*
X020205Y031884D01*
X020288Y031936D01*
X020373Y031985D01*
X020461Y032029D01*
X020551Y032069D01*
X020642Y032104D01*
X020735Y032135D01*
X020830Y032161D01*
X020926Y032183D01*
X021023Y032199D01*
X021120Y032211D01*
X021218Y032219D01*
X021316Y032221D01*
X021414Y032219D01*
X021512Y032211D01*
X021609Y032199D01*
X021706Y032183D01*
X021802Y032161D01*
X021897Y032135D01*
X021990Y032104D01*
X022081Y032069D01*
X022171Y032029D01*
X022259Y031985D01*
X022344Y031936D01*
X022427Y031884D01*
X022507Y031827D01*
X022585Y031767D01*
X022659Y031703D01*
X022730Y031635D01*
X022798Y031564D01*
X022862Y031490D01*
X022922Y031412D01*
X022979Y031332D01*
X023031Y031249D01*
X023080Y031164D01*
X023124Y031076D01*
X023164Y030986D01*
X023199Y030895D01*
X023230Y030802D01*
X023256Y030707D01*
X023278Y030611D01*
X023294Y030514D01*
X023306Y030417D01*
X023314Y030319D01*
X023316Y030221D01*
X023314Y030123D01*
X023306Y030025D01*
X023294Y029928D01*
X023278Y029831D01*
X023256Y029735D01*
X023230Y029640D01*
X023199Y029547D01*
X023164Y029456D01*
X023124Y029366D01*
X023080Y029278D01*
X023031Y029193D01*
X022979Y029110D01*
X022922Y029030D01*
X022862Y028952D01*
X022798Y028878D01*
X022730Y028807D01*
X022659Y028739D01*
X022585Y028675D01*
X022507Y028615D01*
X022427Y028558D01*
X022344Y028506D01*
X022259Y028457D01*
X022171Y028413D01*
X022081Y028373D01*
X021990Y028338D01*
X021897Y028307D01*
X021802Y028281D01*
X021706Y028259D01*
X021609Y028243D01*
X021512Y028231D01*
X021414Y028223D01*
X021316Y028221D01*
X021218Y028223D01*
X021120Y028231D01*
X021023Y028243D01*
X020926Y028259D01*
X020830Y028281D01*
X020735Y028307D01*
X020642Y028338D01*
X020551Y028373D01*
X020461Y028413D01*
X020373Y028457D01*
X020288Y028506D01*
X020205Y028558D01*
X020125Y028615D01*
X020047Y028675D01*
X019973Y028739D01*
X019902Y028807D01*
X019834Y028878D01*
X019770Y028952D01*
X019710Y029030D01*
X019653Y029110D01*
X019601Y029193D01*
X019552Y029278D01*
X019508Y029366D01*
X019468Y029456D01*
X019433Y029547D01*
X019402Y029640D01*
X019376Y029735D01*
X019354Y029831D01*
X019338Y029928D01*
X019326Y030025D01*
X019318Y030123D01*
X019316Y030221D01*
X018475Y028506D02*
X018550Y028431D01*
X018550Y028356D01*
X018475Y028281D01*
X018550Y028206D01*
X018550Y028131D01*
X018475Y028056D01*
X018325Y028056D01*
X018250Y028131D01*
X018090Y028131D02*
X018015Y028056D01*
X017790Y028056D01*
X017790Y028506D01*
X018015Y028506D01*
X018090Y028431D01*
X018090Y028131D01*
X018250Y028431D02*
X018325Y028506D01*
X018475Y028506D01*
X018475Y028281D02*
X018400Y028281D01*
X014329Y024330D02*
X014329Y023880D01*
X014630Y023880D01*
X014169Y023880D02*
X014169Y024180D01*
X014019Y024330D01*
X013869Y024180D01*
X013869Y023880D01*
X013712Y023880D02*
X013562Y023880D01*
X013637Y023880D02*
X013637Y024330D01*
X013562Y024330D02*
X013712Y024330D01*
X013869Y024105D02*
X014169Y024105D01*
X013402Y024105D02*
X013327Y024030D01*
X013102Y024030D01*
X013252Y024030D02*
X013402Y023880D01*
X013402Y024105D02*
X013402Y024255D01*
X013327Y024330D01*
X013102Y024330D01*
X013102Y023880D01*
X012941Y023880D02*
X012641Y023880D01*
X012641Y024330D01*
X012941Y024330D01*
X012791Y024105D02*
X012641Y024105D01*
X012481Y024030D02*
X012481Y023955D01*
X012406Y023880D01*
X012256Y023880D01*
X012181Y023955D01*
X012256Y024105D02*
X012406Y024105D01*
X012481Y024030D01*
X012481Y024255D02*
X012406Y024330D01*
X012256Y024330D01*
X012181Y024255D01*
X012181Y024180D01*
X012256Y024105D01*
X013322Y018615D02*
X013322Y018315D01*
X013322Y018465D02*
X012872Y018465D01*
X013022Y018315D01*
X012947Y018155D02*
X012872Y018080D01*
X012872Y017930D01*
X012947Y017855D01*
X013247Y017855D01*
X013322Y017930D01*
X013322Y018080D01*
X013247Y018155D01*
X013322Y017698D02*
X013322Y017548D01*
X013322Y017623D02*
X012872Y017623D01*
X012872Y017548D02*
X012872Y017698D01*
X013017Y015103D02*
X013017Y011206D01*
X014631Y011206D01*
X014631Y015103D01*
X013017Y015103D01*
X006690Y015208D02*
X006240Y015208D01*
X006240Y015433D01*
X006315Y015508D01*
X006465Y015508D01*
X006540Y015433D01*
X006540Y015208D01*
X006315Y015047D02*
X006240Y015047D01*
X006315Y015047D02*
X006465Y014897D01*
X006690Y014897D01*
X006465Y014897D02*
X006315Y014747D01*
X006240Y014747D01*
X006240Y014587D02*
X006240Y014287D01*
X006690Y014287D01*
X006690Y014587D01*
X006465Y014437D02*
X006465Y014287D01*
X006240Y014127D02*
X006540Y013826D01*
X006465Y013901D02*
X006690Y014127D01*
X006690Y013826D02*
X006240Y013826D01*
X006390Y015668D02*
X006240Y015818D01*
X006390Y015968D01*
X006690Y015968D01*
X006690Y016128D02*
X006240Y016128D01*
X006240Y016354D01*
X006315Y016429D01*
X006615Y016429D01*
X006690Y016354D01*
X006690Y016128D01*
X006465Y015968D02*
X006465Y015668D01*
X006390Y015668D02*
X006690Y015668D01*
X005639Y021713D02*
X003198Y021713D01*
X003198Y023682D01*
X000954Y023682D01*
X000954Y025808D01*
X000599Y025808D01*
X000599Y023682D01*
X000954Y023682D01*
X000954Y025808D02*
X003198Y025808D01*
X003198Y027776D01*
X005639Y027776D01*
X005639Y025808D01*
X003198Y025808D01*
X003198Y023682D02*
X005639Y023682D01*
X005639Y021713D01*
X005639Y023682D02*
X005639Y025808D01*
X001842Y006850D02*
X001692Y006850D01*
X001692Y006700D01*
X001542Y006550D02*
X001842Y006550D01*
X001917Y006625D01*
X001917Y006775D01*
X001842Y006850D01*
X001542Y006850D02*
X001467Y006775D01*
X001467Y006625D01*
X001542Y006550D01*
X001617Y006390D02*
X001917Y006390D01*
X001692Y006390D02*
X001692Y006090D01*
X001617Y006090D02*
X001917Y006090D01*
X001617Y006090D02*
X001467Y006240D01*
X001617Y006390D01*
X001467Y005930D02*
X001467Y005629D01*
X001467Y005780D02*
X001917Y005780D01*
X001842Y005394D02*
X001467Y005394D01*
X001467Y005319D02*
X001467Y005469D01*
X001842Y005394D02*
X001917Y005319D01*
X001917Y005244D01*
X001842Y005169D01*
X012229Y006186D02*
X012231Y006201D01*
X012236Y006214D01*
X012245Y006226D01*
X012256Y006236D01*
X012270Y006242D01*
X012284Y006245D01*
X012299Y006244D01*
X012313Y006239D01*
X012326Y006231D01*
X012336Y006221D01*
X012343Y006208D01*
X012347Y006193D01*
X012347Y006179D01*
X012343Y006164D01*
X012336Y006151D01*
X012326Y006141D01*
X012313Y006133D01*
X012299Y006128D01*
X012284Y006127D01*
X012270Y006130D01*
X012256Y006136D01*
X012245Y006146D01*
X012236Y006158D01*
X012231Y006171D01*
X012229Y006186D01*
X013043Y005965D02*
X013050Y005935D01*
X013060Y005905D01*
X013074Y005878D01*
X013091Y005851D01*
X013111Y005827D01*
X013134Y005806D01*
X013159Y005787D01*
X013186Y005772D01*
X013215Y005760D01*
X013245Y005751D01*
X013276Y005746D01*
X013307Y005744D01*
X013338Y005746D01*
X013369Y005752D01*
X013399Y005761D01*
X013427Y005774D01*
X013454Y005790D01*
X013479Y005809D01*
X013501Y005830D01*
X013521Y005855D01*
X013538Y005881D01*
X013551Y005909D01*
X013561Y005939D01*
X013568Y005969D01*
D12*
X013253Y006294D02*
X013099Y006294D01*
X013023Y006371D01*
X012869Y006371D02*
X012869Y006755D01*
X013023Y006678D02*
X013099Y006755D01*
X013253Y006755D01*
X013329Y006678D01*
X013329Y006371D01*
X013253Y006294D01*
X013329Y006525D02*
X013099Y006525D01*
X013023Y006601D01*
X013023Y006678D01*
X012869Y006371D02*
X012792Y006294D01*
X012639Y006294D01*
X012562Y006371D01*
X012562Y006755D01*
X010986Y005716D02*
X010746Y005716D01*
X010746Y005536D01*
X010866Y005596D01*
X010926Y005596D01*
X010986Y005536D01*
X010986Y005415D01*
X010926Y005355D01*
X010806Y005355D01*
X010746Y005415D01*
X010618Y005415D02*
X010618Y005716D01*
X010377Y005716D02*
X010377Y005415D01*
X010437Y005355D01*
X010557Y005355D01*
X010618Y005415D01*
X010420Y002068D02*
X010266Y002068D01*
X010190Y001991D01*
X010190Y001684D01*
X010497Y001991D01*
X010497Y001684D01*
X010420Y001607D01*
X010266Y001607D01*
X010190Y001684D01*
X010036Y001607D02*
X009729Y001607D01*
X010036Y001914D01*
X010036Y001991D01*
X009959Y002068D01*
X009806Y002068D01*
X009729Y001991D01*
X009576Y001991D02*
X009576Y001838D01*
X009499Y001761D01*
X009269Y001761D01*
X009422Y001761D02*
X009576Y001607D01*
X009269Y001607D02*
X009269Y002068D01*
X009499Y002068D01*
X009576Y001991D01*
X010420Y002068D02*
X010497Y001991D01*
X011631Y002068D02*
X011631Y001607D01*
X011631Y001761D02*
X011861Y001761D01*
X011938Y001838D01*
X011938Y001991D01*
X011861Y002068D01*
X011631Y002068D01*
X011784Y001761D02*
X011938Y001607D01*
X012091Y001607D02*
X012398Y001607D01*
X012245Y001607D02*
X012245Y002068D01*
X012091Y001914D01*
X012552Y001838D02*
X012859Y001838D01*
X012782Y002068D02*
X012552Y001838D01*
X012782Y001607D02*
X012782Y002068D01*
X006298Y002882D02*
X005838Y002882D01*
X005838Y003112D01*
X005914Y003189D01*
X006068Y003189D01*
X006145Y003112D01*
X006145Y002882D01*
X006145Y003036D02*
X006298Y003189D01*
X006298Y003343D02*
X005991Y003649D01*
X005914Y003649D01*
X005838Y003573D01*
X005838Y003419D01*
X005914Y003343D01*
X006298Y003343D02*
X006298Y003649D01*
X006298Y003803D02*
X006298Y004110D01*
X006298Y003956D02*
X005838Y003956D01*
X005991Y003803D01*
X005217Y003836D02*
X005217Y004066D01*
X005140Y004143D01*
X004833Y004143D01*
X004757Y004066D01*
X004757Y003836D01*
X005217Y003836D01*
X005217Y003683D02*
X005217Y003376D01*
X004757Y003376D01*
X004757Y003683D01*
X004987Y003529D02*
X004987Y003376D01*
X005217Y003222D02*
X005217Y002915D01*
X004757Y002915D01*
X004910Y004297D02*
X004757Y004450D01*
X005217Y004450D01*
X005217Y004297D02*
X005217Y004604D01*
X012418Y011814D02*
X012418Y011968D01*
X012495Y012044D01*
X012802Y012044D01*
X012878Y011968D01*
X012878Y011814D01*
X012802Y011737D01*
X012495Y011737D01*
X012418Y011814D01*
X012725Y011891D02*
X012878Y012044D01*
X012878Y012198D02*
X012571Y012505D01*
X012495Y012505D01*
X012418Y012428D01*
X012418Y012274D01*
X012495Y012198D01*
X012878Y012198D02*
X012878Y012505D01*
X016060Y014600D02*
X016060Y015060D01*
X016290Y015060D01*
X016367Y014983D01*
X016367Y014830D01*
X016290Y014753D01*
X016060Y014753D01*
X016214Y014753D02*
X016367Y014600D01*
X016521Y014523D02*
X016827Y014523D01*
X016981Y014600D02*
X016981Y015060D01*
X017211Y015060D01*
X017288Y014983D01*
X017288Y014830D01*
X017211Y014753D01*
X016981Y014753D01*
X017134Y014753D02*
X017288Y014600D01*
X017441Y014676D02*
X017518Y014600D01*
X017672Y014600D01*
X017748Y014676D01*
X017748Y014753D01*
X017672Y014830D01*
X017518Y014830D01*
X017441Y014906D01*
X017441Y014983D01*
X017518Y015060D01*
X017672Y015060D01*
X017748Y014983D01*
X017902Y015060D02*
X018209Y015060D01*
X018055Y015060D02*
X018055Y014600D01*
X020407Y017018D02*
X020527Y016898D01*
X020647Y017018D01*
X020647Y017258D01*
X020776Y017258D02*
X020776Y016898D01*
X020776Y017018D02*
X020956Y017018D01*
X021016Y017078D01*
X021016Y017198D01*
X020956Y017258D01*
X020776Y017258D01*
X020896Y017018D02*
X021016Y016898D01*
X021144Y016898D02*
X021144Y017258D01*
X021384Y017258D01*
X021512Y017198D02*
X021512Y016958D01*
X021572Y016898D01*
X021692Y016898D01*
X021752Y016958D01*
X021752Y017078D01*
X021632Y017078D01*
X021512Y017198D02*
X021572Y017258D01*
X021692Y017258D01*
X021752Y017198D01*
X021384Y016898D02*
X021144Y016898D01*
X021144Y017078D02*
X021264Y017078D01*
X020407Y017018D02*
X020407Y017258D01*
X024223Y017637D02*
X024223Y017867D01*
X024299Y017943D01*
X024453Y017943D01*
X024530Y017867D01*
X024530Y017637D01*
X024530Y017790D02*
X024683Y017943D01*
X024683Y018097D02*
X024376Y018404D01*
X024299Y018404D01*
X024223Y018327D01*
X024223Y018174D01*
X024299Y018097D01*
X024683Y018097D02*
X024683Y018404D01*
X024453Y018557D02*
X024453Y018864D01*
X024683Y018788D02*
X024223Y018788D01*
X024453Y018557D01*
X024683Y017637D02*
X024223Y017637D01*
X024625Y021291D02*
X024625Y021751D01*
X024855Y021751D01*
X024932Y021675D01*
X024932Y021521D01*
X024855Y021444D01*
X024625Y021444D01*
X024778Y021444D02*
X024932Y021291D01*
X025085Y021291D02*
X025392Y021291D01*
X025239Y021291D02*
X025239Y021751D01*
X025085Y021598D01*
X023884Y021696D02*
X023884Y021773D01*
X023807Y021850D01*
X023654Y021850D01*
X023577Y021773D01*
X023424Y021773D02*
X023347Y021850D01*
X023193Y021850D01*
X023117Y021773D01*
X022963Y021773D02*
X022963Y021619D01*
X022886Y021543D01*
X022656Y021543D01*
X022810Y021543D02*
X022963Y021389D01*
X023117Y021389D02*
X023424Y021696D01*
X023424Y021773D01*
X023424Y021389D02*
X023117Y021389D01*
X022963Y021773D02*
X022886Y021850D01*
X022656Y021850D01*
X022656Y021389D01*
X023577Y021389D02*
X023884Y021696D01*
X023884Y021389D02*
X023577Y021389D01*
X021556Y023367D02*
X021436Y023367D01*
X021376Y023427D01*
X021376Y023547D01*
X021556Y023547D01*
X021616Y023487D01*
X021616Y023427D01*
X021556Y023367D01*
X021376Y023547D02*
X021496Y023668D01*
X021616Y023728D01*
X021247Y023728D02*
X021247Y023427D01*
X021187Y023367D01*
X021067Y023367D01*
X021007Y023427D01*
X021007Y023728D01*
X020439Y023730D02*
X020362Y023653D01*
X020209Y023653D01*
X020132Y023730D01*
X019979Y023653D02*
X019672Y023653D01*
X019979Y023960D01*
X019979Y024037D01*
X019902Y024113D01*
X019748Y024113D01*
X019672Y024037D01*
X019518Y024037D02*
X019518Y023883D01*
X019442Y023807D01*
X019211Y023807D01*
X019365Y023807D02*
X019518Y023653D01*
X019211Y023653D02*
X019211Y024113D01*
X019442Y024113D01*
X019518Y024037D01*
X020132Y024037D02*
X020209Y024113D01*
X020362Y024113D01*
X020439Y024037D01*
X020439Y023960D01*
X020362Y023883D01*
X020439Y023807D01*
X020439Y023730D01*
X020362Y023883D02*
X020286Y023883D01*
X023095Y026363D02*
X023095Y026678D01*
X023095Y026363D02*
X024001Y025457D01*
X026324Y025457D01*
X026324Y026678D01*
X026324Y027465D02*
X026324Y028686D01*
X024001Y028686D01*
X023095Y027780D01*
X023095Y027465D01*
X023193Y027426D02*
X023213Y027503D01*
X023236Y027578D01*
X023264Y027652D01*
X023295Y027724D01*
X023330Y027795D01*
X023368Y027864D01*
X023410Y027930D01*
X023455Y027995D01*
X023503Y028057D01*
X023555Y028117D01*
X023609Y028174D01*
X023666Y028228D01*
X023726Y028280D01*
X023788Y028328D01*
X023853Y028373D01*
X023920Y028414D01*
X023989Y028452D01*
X024060Y028487D01*
X024132Y028518D01*
X024206Y028546D01*
X024281Y028569D01*
X024357Y028589D01*
X024435Y028605D01*
X024513Y028617D01*
X024591Y028625D01*
X024670Y028629D01*
X024748Y028629D01*
X024827Y028625D01*
X024905Y028617D01*
X024983Y028605D01*
X025061Y028589D01*
X025137Y028569D01*
X025212Y028546D01*
X025286Y028518D01*
X025358Y028487D01*
X025429Y028452D01*
X025498Y028414D01*
X025565Y028373D01*
X025630Y028328D01*
X025692Y028280D01*
X025752Y028228D01*
X025809Y028174D01*
X025863Y028117D01*
X025915Y028057D01*
X025963Y027995D01*
X026008Y027930D01*
X026050Y027864D01*
X026088Y027795D01*
X026123Y027724D01*
X026154Y027652D01*
X026182Y027578D01*
X026205Y027503D01*
X026225Y027426D01*
X027296Y027588D02*
X027296Y027819D01*
X027373Y027895D01*
X027526Y027895D01*
X027603Y027819D01*
X027603Y027588D01*
X027756Y027588D02*
X027296Y027588D01*
X027603Y027742D02*
X027756Y027895D01*
X027756Y028049D02*
X027756Y028356D01*
X027756Y028202D02*
X027296Y028202D01*
X027449Y028049D01*
X027373Y028509D02*
X027296Y028586D01*
X027296Y028739D01*
X027373Y028816D01*
X027680Y028509D01*
X027756Y028586D01*
X027756Y028739D01*
X027680Y028816D01*
X027373Y028816D01*
X027373Y028509D02*
X027680Y028509D01*
X028969Y028488D02*
X029046Y028411D01*
X029123Y028411D01*
X029199Y028488D01*
X029199Y028718D01*
X029046Y028718D02*
X028969Y028641D01*
X028969Y028488D01*
X029046Y028718D02*
X029353Y028718D01*
X029430Y028641D01*
X029430Y028488D01*
X029353Y028411D01*
X029430Y028257D02*
X029276Y028104D01*
X029276Y028181D02*
X029276Y027950D01*
X029430Y027950D02*
X028969Y027950D01*
X028969Y028181D01*
X029046Y028257D01*
X029199Y028257D01*
X029276Y028181D01*
X028924Y026572D02*
X029231Y026265D01*
X029308Y026265D01*
X029308Y026111D02*
X029154Y025958D01*
X029154Y026034D02*
X029154Y025804D01*
X029308Y025804D02*
X028847Y025804D01*
X028847Y026034D01*
X028924Y026111D01*
X029077Y026111D01*
X029154Y026034D01*
X028847Y026265D02*
X028847Y026572D01*
X028924Y026572D01*
X027733Y026495D02*
X027733Y026341D01*
X027656Y026265D01*
X027579Y026265D01*
X027503Y026341D01*
X027503Y026495D01*
X027579Y026572D01*
X027656Y026572D01*
X027733Y026495D01*
X027503Y026495D02*
X027426Y026572D01*
X027349Y026572D01*
X027272Y026495D01*
X027272Y026341D01*
X027349Y026265D01*
X027426Y026265D01*
X027503Y026341D01*
X027503Y026111D02*
X027579Y026034D01*
X027579Y025804D01*
X027579Y025958D02*
X027733Y026111D01*
X027503Y026111D02*
X027349Y026111D01*
X027272Y026034D01*
X027272Y025804D01*
X027733Y025804D01*
X027303Y023432D02*
X027303Y023072D01*
X027183Y023072D02*
X027423Y023072D01*
X027183Y023312D02*
X027303Y023432D01*
X027055Y023432D02*
X027055Y023132D01*
X026994Y023072D01*
X026874Y023072D01*
X026814Y023132D01*
X026814Y023432D01*
X026225Y026718D02*
X026205Y026641D01*
X026182Y026566D01*
X026154Y026492D01*
X026123Y026420D01*
X026088Y026349D01*
X026050Y026280D01*
X026008Y026214D01*
X025963Y026149D01*
X025915Y026087D01*
X025863Y026027D01*
X025809Y025970D01*
X025752Y025916D01*
X025692Y025864D01*
X025630Y025816D01*
X025565Y025771D01*
X025498Y025730D01*
X025429Y025692D01*
X025358Y025657D01*
X025286Y025626D01*
X025212Y025598D01*
X025137Y025575D01*
X025061Y025555D01*
X024983Y025539D01*
X024905Y025527D01*
X024827Y025519D01*
X024748Y025515D01*
X024670Y025515D01*
X024591Y025519D01*
X024513Y025527D01*
X024435Y025539D01*
X024357Y025555D01*
X024281Y025575D01*
X024206Y025598D01*
X024132Y025626D01*
X024060Y025657D01*
X023989Y025692D01*
X023920Y025730D01*
X023853Y025771D01*
X023788Y025816D01*
X023726Y025864D01*
X023666Y025916D01*
X023609Y025970D01*
X023555Y026027D01*
X023503Y026087D01*
X023455Y026149D01*
X023410Y026214D01*
X023368Y026280D01*
X023330Y026349D01*
X023295Y026420D01*
X023264Y026492D01*
X023236Y026566D01*
X023213Y026641D01*
X023193Y026718D01*
X023115Y031922D02*
X023422Y032229D01*
X023422Y032306D01*
X023345Y032383D01*
X023192Y032383D01*
X023115Y032306D01*
X022962Y032306D02*
X022962Y032153D01*
X022885Y032076D01*
X022655Y032076D01*
X022808Y032076D02*
X022962Y031922D01*
X023115Y031922D02*
X023422Y031922D01*
X022962Y032306D02*
X022885Y032383D01*
X022655Y032383D01*
X022655Y031922D01*
X016481Y031835D02*
X016481Y030576D01*
X016481Y029867D02*
X016481Y028607D01*
X014158Y028607D01*
X013253Y029513D01*
X013253Y029867D01*
X013253Y030576D02*
X013253Y030930D01*
X014158Y031835D01*
X016481Y031835D01*
X016383Y030575D02*
X016363Y030652D01*
X016340Y030727D01*
X016312Y030801D01*
X016281Y030873D01*
X016246Y030944D01*
X016208Y031013D01*
X016166Y031079D01*
X016121Y031144D01*
X016073Y031206D01*
X016021Y031266D01*
X015967Y031323D01*
X015910Y031377D01*
X015850Y031429D01*
X015788Y031477D01*
X015723Y031522D01*
X015656Y031563D01*
X015587Y031601D01*
X015516Y031636D01*
X015444Y031667D01*
X015370Y031695D01*
X015295Y031718D01*
X015219Y031738D01*
X015141Y031754D01*
X015063Y031766D01*
X014985Y031774D01*
X014906Y031778D01*
X014828Y031778D01*
X014749Y031774D01*
X014671Y031766D01*
X014593Y031754D01*
X014515Y031738D01*
X014439Y031718D01*
X014364Y031695D01*
X014290Y031667D01*
X014218Y031636D01*
X014147Y031601D01*
X014078Y031563D01*
X014011Y031522D01*
X013946Y031477D01*
X013884Y031429D01*
X013824Y031377D01*
X013767Y031323D01*
X013713Y031266D01*
X013661Y031206D01*
X013613Y031144D01*
X013568Y031079D01*
X013526Y031013D01*
X013488Y030944D01*
X013453Y030873D01*
X013422Y030801D01*
X013394Y030727D01*
X013371Y030652D01*
X013351Y030575D01*
X013351Y029867D02*
X013371Y029790D01*
X013394Y029715D01*
X013422Y029641D01*
X013453Y029569D01*
X013488Y029498D01*
X013526Y029429D01*
X013568Y029363D01*
X013613Y029298D01*
X013661Y029236D01*
X013713Y029176D01*
X013767Y029119D01*
X013824Y029065D01*
X013884Y029013D01*
X013946Y028965D01*
X014011Y028920D01*
X014078Y028879D01*
X014147Y028841D01*
X014218Y028806D01*
X014290Y028775D01*
X014364Y028747D01*
X014439Y028724D01*
X014515Y028704D01*
X014593Y028688D01*
X014671Y028676D01*
X014749Y028668D01*
X014828Y028664D01*
X014906Y028664D01*
X014985Y028668D01*
X015063Y028676D01*
X015141Y028688D01*
X015219Y028704D01*
X015295Y028724D01*
X015370Y028747D01*
X015444Y028775D01*
X015516Y028806D01*
X015587Y028841D01*
X015656Y028879D01*
X015723Y028920D01*
X015788Y028965D01*
X015850Y029013D01*
X015910Y029065D01*
X015967Y029119D01*
X016021Y029176D01*
X016073Y029236D01*
X016121Y029298D01*
X016166Y029363D01*
X016208Y029429D01*
X016246Y029498D01*
X016281Y029569D01*
X016312Y029641D01*
X016340Y029715D01*
X016363Y029790D01*
X016383Y029867D01*
X015298Y026572D02*
X015298Y026265D01*
X015068Y026495D01*
X015528Y026495D01*
X015528Y026111D02*
X015375Y025958D01*
X015375Y026034D02*
X015375Y025804D01*
X015528Y025804D02*
X015068Y025804D01*
X015068Y026034D01*
X015144Y026111D01*
X015298Y026111D01*
X015375Y026034D01*
X014347Y026111D02*
X014193Y025958D01*
X014193Y026034D02*
X014193Y025804D01*
X014347Y025804D02*
X013887Y025804D01*
X013887Y026034D01*
X013963Y026111D01*
X014117Y026111D01*
X014193Y026034D01*
X014270Y026265D02*
X014347Y026341D01*
X014347Y026495D01*
X014270Y026572D01*
X014193Y026572D01*
X014117Y026495D01*
X014117Y026418D01*
X014117Y026495D02*
X014040Y026572D01*
X013963Y026572D01*
X013887Y026495D01*
X013887Y026341D01*
X013963Y026265D01*
X011985Y025076D02*
X011832Y024999D01*
X011679Y024845D01*
X011909Y024845D01*
X011985Y024769D01*
X011985Y024692D01*
X011909Y024615D01*
X011755Y024615D01*
X011679Y024692D01*
X011679Y024845D01*
X011525Y024922D02*
X011218Y024615D01*
X011525Y024615D01*
X011525Y024922D02*
X011525Y024999D01*
X011448Y025076D01*
X011295Y025076D01*
X011218Y024999D01*
X011065Y024999D02*
X011065Y024845D01*
X010988Y024769D01*
X010758Y024769D01*
X010911Y024769D02*
X011065Y024615D01*
X010758Y024615D02*
X010758Y025076D01*
X010988Y025076D01*
X011065Y024999D01*
X009843Y024943D02*
X009690Y024789D01*
X009690Y024866D02*
X009690Y024636D01*
X009843Y024636D02*
X009383Y024636D01*
X009383Y024866D01*
X009459Y024943D01*
X009613Y024943D01*
X009690Y024866D01*
X009843Y025096D02*
X009536Y025403D01*
X009459Y025403D01*
X009383Y025326D01*
X009383Y025173D01*
X009459Y025096D01*
X009843Y025096D02*
X009843Y025403D01*
X009766Y025556D02*
X009690Y025556D01*
X009613Y025633D01*
X009613Y025787D01*
X009690Y025863D01*
X009766Y025863D01*
X009843Y025787D01*
X009843Y025633D01*
X009766Y025556D01*
X009613Y025633D02*
X009536Y025556D01*
X009459Y025556D01*
X009383Y025633D01*
X009383Y025787D01*
X009459Y025863D01*
X009536Y025863D01*
X009613Y025787D01*
X010072Y026210D02*
X010072Y026441D01*
X010148Y026517D01*
X010302Y026517D01*
X010379Y026441D01*
X010379Y026210D01*
X010532Y026210D02*
X010072Y026210D01*
X010379Y026364D02*
X010532Y026517D01*
X010532Y026671D02*
X010225Y026978D01*
X010148Y026978D01*
X010072Y026901D01*
X010072Y026748D01*
X010148Y026671D01*
X010532Y026671D02*
X010532Y026978D01*
X010455Y027131D02*
X010532Y027208D01*
X010532Y027361D01*
X010455Y027438D01*
X010302Y027438D01*
X010225Y027361D01*
X010225Y027285D01*
X010302Y027131D01*
X010072Y027131D01*
X010072Y027438D01*
X009860Y028682D02*
X009860Y028742D01*
X010100Y028982D01*
X010100Y029043D01*
X009860Y029043D01*
X009732Y029043D02*
X009732Y028742D01*
X009672Y028682D01*
X009552Y028682D01*
X009491Y028742D01*
X009491Y029043D01*
X009131Y029034D02*
X008824Y028727D01*
X008824Y028651D01*
X008671Y028651D02*
X008364Y028651D01*
X008671Y028958D01*
X008671Y029034D01*
X008594Y029111D01*
X008441Y029111D01*
X008364Y029034D01*
X008210Y029034D02*
X008210Y028881D01*
X008134Y028804D01*
X007903Y028804D01*
X007903Y028651D02*
X007903Y029111D01*
X008134Y029111D01*
X008210Y029034D01*
X008057Y028804D02*
X008210Y028651D01*
X008146Y027938D02*
X008223Y027861D01*
X008223Y027631D01*
X007763Y027631D01*
X007763Y027861D01*
X007839Y027938D01*
X007916Y027938D01*
X007993Y027861D01*
X007993Y027631D01*
X007993Y027861D02*
X008069Y027938D01*
X008146Y027938D01*
X008300Y027478D02*
X008300Y027171D01*
X008146Y027017D02*
X008223Y026941D01*
X008223Y026787D01*
X008146Y026710D01*
X008223Y026557D02*
X008069Y026404D01*
X008069Y026480D02*
X008069Y026250D01*
X008223Y026250D02*
X007763Y026250D01*
X007763Y026480D01*
X007839Y026557D01*
X007993Y026557D01*
X008069Y026480D01*
X007916Y026710D02*
X007839Y026710D01*
X007763Y026787D01*
X007763Y026941D01*
X007839Y027017D01*
X007993Y026941D02*
X008069Y027017D01*
X008146Y027017D01*
X007993Y026941D02*
X007993Y026787D01*
X007916Y026710D01*
X008824Y029111D02*
X009131Y029111D01*
X009131Y029034D01*
X010737Y029348D02*
X010737Y029578D01*
X010814Y029654D01*
X010967Y029654D01*
X011044Y029578D01*
X011044Y029348D01*
X011044Y029501D02*
X011197Y029654D01*
X011121Y029808D02*
X011197Y029885D01*
X011197Y030038D01*
X011121Y030115D01*
X011044Y030115D01*
X010967Y030038D01*
X010967Y029961D01*
X010967Y030038D02*
X010890Y030115D01*
X010814Y030115D01*
X010737Y030038D01*
X010737Y029885D01*
X010814Y029808D01*
X010814Y030268D02*
X010737Y030345D01*
X010737Y030499D01*
X010814Y030575D01*
X011121Y030268D01*
X011197Y030345D01*
X011197Y030499D01*
X011121Y030575D01*
X010814Y030575D01*
X010814Y030268D02*
X011121Y030268D01*
X011197Y029348D02*
X010737Y029348D01*
X009276Y030576D02*
X009199Y030499D01*
X009046Y030499D01*
X008969Y030576D01*
X009046Y030729D02*
X009199Y030729D01*
X009276Y030653D01*
X009276Y030576D01*
X009046Y030729D02*
X008969Y030806D01*
X008969Y030883D01*
X009046Y030960D01*
X009199Y030960D01*
X009276Y030883D01*
X008815Y030422D02*
X008509Y030422D01*
X008355Y030576D02*
X008278Y030499D01*
X008125Y030499D01*
X008048Y030576D01*
X008125Y030729D02*
X008278Y030729D01*
X008355Y030653D01*
X008355Y030576D01*
X008125Y030729D02*
X008048Y030806D01*
X008048Y030883D01*
X008125Y030960D01*
X008278Y030960D01*
X008355Y030883D01*
X007895Y030883D02*
X007895Y030729D01*
X007818Y030653D01*
X007588Y030653D01*
X007741Y030653D02*
X007895Y030499D01*
X007588Y030499D02*
X007588Y030960D01*
X007818Y030960D01*
X007895Y030883D01*
X002780Y026769D02*
X002473Y026769D01*
X002626Y026769D02*
X002626Y026308D01*
X002166Y026308D02*
X002166Y026769D01*
X002319Y026769D02*
X002012Y026769D01*
X001859Y026615D02*
X001859Y026308D01*
X001859Y026538D02*
X001552Y026538D01*
X001552Y026615D02*
X001552Y026308D01*
X001399Y026385D02*
X001322Y026308D01*
X001092Y026308D01*
X001092Y026769D01*
X001322Y026769D01*
X001399Y026692D01*
X001399Y026615D01*
X001322Y026538D01*
X001092Y026538D01*
X001322Y026538D02*
X001399Y026462D01*
X001399Y026385D01*
X001552Y026615D02*
X001706Y026769D01*
X001859Y026615D01*
X001922Y028090D02*
X002229Y028090D01*
X001922Y028090D02*
X001922Y028550D01*
X001768Y028473D02*
X001692Y028550D01*
X001538Y028550D01*
X001461Y028473D01*
X001461Y028166D01*
X001538Y028090D01*
X001692Y028090D01*
X001768Y028166D01*
X001768Y028473D01*
X001308Y028473D02*
X001231Y028550D01*
X001078Y028550D01*
X001001Y028473D01*
X001001Y028397D01*
X001078Y028320D01*
X001231Y028320D01*
X001308Y028243D01*
X001308Y028166D01*
X001231Y028090D01*
X001078Y028090D01*
X001001Y028166D01*
X006308Y021060D02*
X006308Y020753D01*
X006538Y020753D01*
X006461Y020906D01*
X006461Y020983D01*
X006538Y021060D01*
X006691Y021060D01*
X006768Y020983D01*
X006768Y020830D01*
X006691Y020753D01*
X006768Y020599D02*
X006615Y020446D01*
X006615Y020523D02*
X006615Y020292D01*
X006768Y020292D02*
X006308Y020292D01*
X006308Y020523D01*
X006385Y020599D01*
X006538Y020599D01*
X006615Y020523D01*
X007489Y020523D02*
X007566Y020599D01*
X007719Y020599D01*
X007796Y020523D01*
X007796Y020292D01*
X007949Y020292D02*
X007489Y020292D01*
X007489Y020523D01*
X007796Y020446D02*
X007949Y020599D01*
X007873Y020753D02*
X007949Y020830D01*
X007949Y020983D01*
X007873Y021060D01*
X007796Y021060D01*
X007719Y020983D01*
X007719Y020753D01*
X007873Y020753D01*
X007719Y020753D02*
X007566Y020906D01*
X007489Y021060D01*
X019014Y012106D02*
X019014Y011645D01*
X019014Y011799D02*
X019245Y011799D01*
X019321Y011875D01*
X019321Y012029D01*
X019245Y012106D01*
X019014Y012106D01*
X019168Y011799D02*
X019321Y011645D01*
X019475Y011645D02*
X019782Y011645D01*
X019628Y011645D02*
X019628Y012106D01*
X019475Y011952D01*
X019935Y011952D02*
X019935Y012029D01*
X020012Y012106D01*
X020165Y012106D01*
X020242Y012029D01*
X020242Y011722D01*
X020165Y011645D01*
X020012Y011645D01*
X019935Y011722D01*
X020012Y011875D02*
X020242Y011875D01*
X020012Y011875D02*
X019935Y011952D01*
X020491Y011799D02*
X020721Y011799D01*
X020798Y011875D01*
X020798Y012029D01*
X020721Y012106D01*
X020491Y012106D01*
X020491Y011645D01*
X020644Y011799D02*
X020798Y011645D01*
X020951Y011645D02*
X021258Y011645D01*
X021105Y011645D02*
X021105Y012106D01*
X020951Y011952D01*
X021412Y011952D02*
X021412Y012029D01*
X021488Y012106D01*
X021642Y012106D01*
X021719Y012029D01*
X021719Y011952D01*
X021642Y011875D01*
X021488Y011875D01*
X021412Y011952D01*
X021488Y011875D02*
X021412Y011799D01*
X021412Y011722D01*
X021488Y011645D01*
X021642Y011645D01*
X021719Y011722D01*
X021719Y011799D01*
X021642Y011875D01*
X021875Y011792D02*
X022105Y011792D01*
X022182Y011869D01*
X022182Y012023D01*
X022105Y012099D01*
X021875Y012099D01*
X021875Y011639D01*
X022029Y011792D02*
X022182Y011639D01*
X022336Y011639D02*
X022642Y011639D01*
X022489Y011639D02*
X022489Y012099D01*
X022336Y011946D01*
X022796Y011869D02*
X023026Y011869D01*
X023103Y011792D01*
X023103Y011716D01*
X023026Y011639D01*
X022873Y011639D01*
X022796Y011716D01*
X022796Y011869D01*
X022949Y012023D01*
X023103Y012099D01*
X023247Y012106D02*
X023247Y011645D01*
X023247Y011799D02*
X023477Y011799D01*
X023554Y011875D01*
X023554Y012029D01*
X023477Y012106D01*
X023247Y012106D01*
X023400Y011799D02*
X023554Y011645D01*
X023707Y011645D02*
X024014Y011645D01*
X023861Y011645D02*
X023861Y012106D01*
X023707Y011952D01*
X024168Y012106D02*
X024474Y012106D01*
X024474Y012029D01*
X024168Y011722D01*
X024168Y011645D01*
X025904Y011744D02*
X025904Y012204D01*
X026134Y012204D01*
X026211Y012127D01*
X026211Y011974D01*
X026134Y011897D01*
X025904Y011897D01*
X026058Y011897D02*
X026211Y011744D01*
X026365Y011744D02*
X026672Y011744D01*
X026518Y011744D02*
X026518Y012204D01*
X026365Y012051D01*
X026825Y011974D02*
X026979Y012051D01*
X027055Y012051D01*
X027132Y011974D01*
X027132Y011820D01*
X027055Y011744D01*
X026902Y011744D01*
X026825Y011820D01*
X026825Y011974D02*
X026825Y012204D01*
X027132Y012204D01*
X027479Y012204D02*
X027479Y011744D01*
X027479Y011897D02*
X027709Y011897D01*
X027786Y011974D01*
X027786Y012127D01*
X027709Y012204D01*
X027479Y012204D01*
X027633Y011897D02*
X027786Y011744D01*
X027939Y011744D02*
X028246Y011744D01*
X028093Y011744D02*
X028093Y012204D01*
X027939Y012051D01*
X028400Y012127D02*
X028477Y012204D01*
X028630Y012204D01*
X028707Y012127D01*
X028707Y012051D01*
X028630Y011974D01*
X028707Y011897D01*
X028707Y011820D01*
X028630Y011744D01*
X028477Y011744D01*
X028400Y011820D01*
X028553Y011974D02*
X028630Y011974D01*
X029054Y011897D02*
X029284Y011897D01*
X029361Y011974D01*
X029361Y012127D01*
X029284Y012204D01*
X029054Y012204D01*
X029054Y011744D01*
X029207Y011897D02*
X029361Y011744D01*
X029514Y011744D02*
X029821Y011744D01*
X029668Y011744D02*
X029668Y012204D01*
X029514Y012051D01*
X029975Y012051D02*
X030128Y012204D01*
X030128Y011744D01*
X029975Y011744D02*
X030282Y011744D01*
X030530Y011744D02*
X030530Y012204D01*
X030760Y012204D01*
X030837Y012127D01*
X030837Y011974D01*
X030760Y011897D01*
X030530Y011897D01*
X030684Y011897D02*
X030837Y011744D01*
X030991Y011744D02*
X031298Y011744D01*
X031451Y011744D02*
X031758Y012051D01*
X031758Y012127D01*
X031681Y012204D01*
X031528Y012204D01*
X031451Y012127D01*
X031144Y012204D02*
X031144Y011744D01*
X031451Y011744D02*
X031758Y011744D01*
X031144Y012204D02*
X030991Y012051D01*
X030376Y015197D02*
X030376Y015350D01*
X030376Y015273D02*
X029916Y015273D01*
X029916Y015197D02*
X029916Y015350D01*
X029993Y015504D02*
X030300Y015504D01*
X030376Y015580D01*
X030376Y015734D01*
X030300Y015810D01*
X030376Y015964D02*
X030070Y016271D01*
X029993Y016271D01*
X029916Y016194D01*
X029916Y016041D01*
X029993Y015964D01*
X029993Y015810D02*
X029916Y015734D01*
X029916Y015580D01*
X029993Y015504D01*
X030376Y015964D02*
X030376Y016271D01*
X030574Y015827D02*
X030574Y018631D01*
X033019Y018631D02*
X033019Y015827D01*
X033138Y017690D02*
X033138Y017920D01*
X033215Y017997D01*
X033522Y017997D01*
X033599Y017920D01*
X033599Y017690D01*
X033138Y017690D01*
X033368Y018151D02*
X033368Y018381D01*
X033445Y018457D01*
X033522Y018457D01*
X033599Y018381D01*
X033599Y018227D01*
X033522Y018151D01*
X033368Y018151D01*
X033215Y018304D01*
X033138Y018457D01*
X034428Y020974D02*
X034351Y021050D01*
X034351Y021204D01*
X034428Y021280D01*
X034428Y021434D02*
X034351Y021511D01*
X034351Y021664D01*
X034428Y021741D01*
X034735Y021741D01*
X034811Y021664D01*
X034811Y021511D01*
X034735Y021434D01*
X034428Y021434D01*
X034735Y021280D02*
X034811Y021204D01*
X034811Y021050D01*
X034735Y020974D01*
X034428Y020974D01*
X034351Y021894D02*
X034811Y022201D01*
X034351Y022201D01*
X034351Y022355D02*
X034351Y022662D01*
X034351Y022815D02*
X034351Y023045D01*
X034428Y023122D01*
X034581Y023122D01*
X034658Y023045D01*
X034658Y022815D01*
X034811Y022815D02*
X034351Y022815D01*
X034351Y022508D02*
X034811Y022508D01*
X034658Y022969D02*
X034811Y023122D01*
X034811Y021894D02*
X034351Y021894D01*
X038046Y025107D02*
X038046Y025338D01*
X038123Y025414D01*
X038430Y025414D01*
X038506Y025338D01*
X038506Y025107D01*
X038046Y025107D01*
X038276Y025568D02*
X038046Y025798D01*
X038506Y025798D01*
X038276Y025875D02*
X038276Y025568D01*
X036308Y029023D02*
X036001Y029023D01*
X036308Y029330D01*
X036308Y029406D01*
X036231Y029483D01*
X036078Y029483D01*
X036001Y029406D01*
X035847Y029406D02*
X035771Y029483D01*
X035540Y029483D01*
X035540Y029023D01*
X035771Y029023D01*
X035847Y029099D01*
X035847Y029406D01*
X034435Y031798D02*
X034194Y031798D01*
X034435Y032039D01*
X034435Y032099D01*
X034375Y032159D01*
X034255Y032159D01*
X034194Y032099D01*
X034066Y032159D02*
X034066Y031858D01*
X034006Y031798D01*
X033886Y031798D01*
X033826Y031858D01*
X033826Y032159D01*
X030155Y032079D02*
X030155Y032019D01*
X030095Y031959D01*
X030155Y031899D01*
X030155Y031839D01*
X030095Y031779D01*
X029975Y031779D01*
X029915Y031839D01*
X029787Y031839D02*
X029727Y031779D01*
X029607Y031779D01*
X029547Y031839D01*
X029547Y032139D01*
X029787Y032139D02*
X029787Y031839D01*
X029915Y032079D02*
X029975Y032139D01*
X030095Y032139D01*
X030155Y032079D01*
X030095Y031959D02*
X030035Y031959D01*
X038115Y017883D02*
X038422Y017883D01*
X038575Y017730D01*
X038422Y017576D01*
X038115Y017576D01*
X038115Y017423D02*
X038115Y017116D01*
X038345Y017116D01*
X038268Y017269D01*
X038268Y017346D01*
X038345Y017423D01*
X038499Y017423D01*
X038575Y017346D01*
X038575Y017192D01*
X038499Y017116D01*
X038652Y016962D02*
X038652Y016655D01*
X038575Y016502D02*
X038575Y016195D01*
X038115Y016195D01*
X031694Y008509D02*
X032599Y007603D01*
X032599Y006894D01*
X032599Y006107D02*
X032599Y005398D01*
X031694Y004493D01*
X028583Y004493D01*
X028583Y006107D01*
X028583Y006894D02*
X028583Y008509D01*
X031694Y008509D01*
X032501Y006895D02*
X032479Y006988D01*
X032453Y007079D01*
X032423Y007169D01*
X032388Y007258D01*
X032349Y007345D01*
X032306Y007430D01*
X032258Y007512D01*
X032207Y007592D01*
X032152Y007670D01*
X032093Y007745D01*
X032030Y007817D01*
X031964Y007885D01*
X031895Y007951D01*
X031823Y008013D01*
X031748Y008071D01*
X031670Y008126D01*
X031589Y008176D01*
X031506Y008223D01*
X031421Y008266D01*
X031334Y008304D01*
X031245Y008338D01*
X031154Y008368D01*
X031062Y008393D01*
X030970Y008414D01*
X030876Y008430D01*
X030781Y008442D01*
X030686Y008449D01*
X030591Y008451D01*
X030496Y008449D01*
X030401Y008442D01*
X030306Y008430D01*
X030212Y008414D01*
X030120Y008393D01*
X030028Y008368D01*
X029937Y008338D01*
X029848Y008304D01*
X029761Y008266D01*
X029676Y008223D01*
X029593Y008176D01*
X029512Y008126D01*
X029434Y008071D01*
X029359Y008013D01*
X029287Y007951D01*
X029218Y007885D01*
X029152Y007817D01*
X029089Y007745D01*
X029030Y007670D01*
X028975Y007592D01*
X028924Y007512D01*
X028876Y007430D01*
X028833Y007345D01*
X028794Y007258D01*
X028759Y007169D01*
X028729Y007079D01*
X028703Y006988D01*
X028681Y006895D01*
X028681Y006107D02*
X028703Y006014D01*
X028729Y005923D01*
X028759Y005833D01*
X028794Y005744D01*
X028833Y005657D01*
X028876Y005572D01*
X028924Y005490D01*
X028975Y005410D01*
X029030Y005332D01*
X029089Y005257D01*
X029152Y005185D01*
X029218Y005117D01*
X029287Y005051D01*
X029359Y004989D01*
X029434Y004931D01*
X029512Y004876D01*
X029593Y004826D01*
X029676Y004779D01*
X029761Y004736D01*
X029848Y004698D01*
X029937Y004664D01*
X030028Y004634D01*
X030120Y004609D01*
X030212Y004588D01*
X030306Y004572D01*
X030401Y004560D01*
X030496Y004553D01*
X030591Y004551D01*
X030686Y004553D01*
X030781Y004560D01*
X030876Y004572D01*
X030970Y004588D01*
X031062Y004609D01*
X031154Y004634D01*
X031245Y004664D01*
X031334Y004698D01*
X031421Y004736D01*
X031506Y004779D01*
X031589Y004826D01*
X031670Y004876D01*
X031748Y004931D01*
X031823Y004989D01*
X031895Y005051D01*
X031964Y005117D01*
X032030Y005185D01*
X032093Y005257D01*
X032152Y005332D01*
X032207Y005410D01*
X032258Y005490D01*
X032306Y005572D01*
X032349Y005657D01*
X032388Y005744D01*
X032423Y005833D01*
X032453Y005923D01*
X032479Y006014D01*
X032501Y006107D01*
X034901Y006127D02*
X035285Y006127D01*
X035362Y006204D01*
X035362Y006357D01*
X035285Y006434D01*
X034901Y006434D01*
X035132Y006587D02*
X035132Y006894D01*
X035362Y006817D02*
X034901Y006817D01*
X035132Y006587D01*
X025930Y006245D02*
X025930Y005891D01*
X025024Y004985D01*
X022702Y004985D01*
X022702Y006245D01*
X022702Y006954D02*
X022702Y008213D01*
X025024Y008213D01*
X025930Y007308D01*
X025930Y006954D01*
X025832Y006953D02*
X025812Y007030D01*
X025789Y007105D01*
X025761Y007179D01*
X025730Y007251D01*
X025695Y007322D01*
X025657Y007391D01*
X025615Y007457D01*
X025570Y007522D01*
X025522Y007584D01*
X025470Y007644D01*
X025416Y007701D01*
X025359Y007755D01*
X025299Y007807D01*
X025237Y007855D01*
X025172Y007900D01*
X025105Y007941D01*
X025036Y007979D01*
X024965Y008014D01*
X024893Y008045D01*
X024819Y008073D01*
X024744Y008096D01*
X024668Y008116D01*
X024590Y008132D01*
X024512Y008144D01*
X024434Y008152D01*
X024355Y008156D01*
X024277Y008156D01*
X024198Y008152D01*
X024120Y008144D01*
X024042Y008132D01*
X023964Y008116D01*
X023888Y008096D01*
X023813Y008073D01*
X023739Y008045D01*
X023667Y008014D01*
X023596Y007979D01*
X023527Y007941D01*
X023460Y007900D01*
X023395Y007855D01*
X023333Y007807D01*
X023273Y007755D01*
X023216Y007701D01*
X023162Y007644D01*
X023110Y007584D01*
X023062Y007522D01*
X023017Y007457D01*
X022975Y007391D01*
X022937Y007322D01*
X022902Y007251D01*
X022871Y007179D01*
X022843Y007105D01*
X022820Y007030D01*
X022800Y006953D01*
X022800Y006245D02*
X022820Y006168D01*
X022843Y006093D01*
X022871Y006019D01*
X022902Y005947D01*
X022937Y005876D01*
X022975Y005807D01*
X023017Y005741D01*
X023062Y005676D01*
X023110Y005614D01*
X023162Y005554D01*
X023216Y005497D01*
X023273Y005443D01*
X023333Y005391D01*
X023395Y005343D01*
X023460Y005298D01*
X023527Y005257D01*
X023596Y005219D01*
X023667Y005184D01*
X023739Y005153D01*
X023813Y005125D01*
X023888Y005102D01*
X023964Y005082D01*
X024042Y005066D01*
X024120Y005054D01*
X024198Y005046D01*
X024277Y005042D01*
X024355Y005042D01*
X024434Y005046D01*
X024512Y005054D01*
X024590Y005066D01*
X024668Y005082D01*
X024744Y005102D01*
X024819Y005125D01*
X024893Y005153D01*
X024965Y005184D01*
X025036Y005219D01*
X025105Y005257D01*
X025172Y005298D01*
X025237Y005343D01*
X025299Y005391D01*
X025359Y005443D01*
X025416Y005497D01*
X025470Y005554D01*
X025522Y005614D01*
X025570Y005676D01*
X025615Y005741D01*
X025657Y005807D01*
X025695Y005876D01*
X025730Y005947D01*
X025761Y006019D01*
X025789Y006093D01*
X025812Y006168D01*
X025832Y006245D01*
D13*
X021052Y015448D02*
X021052Y015798D01*
X021052Y015448D02*
X020712Y015448D01*
X020492Y015928D02*
X020492Y016168D01*
X020712Y016648D02*
X021052Y016648D01*
X021052Y016298D01*
X016772Y017473D02*
X016772Y019914D01*
X016654Y020032D01*
X014213Y020032D01*
X014095Y019914D01*
X014095Y017473D01*
X014213Y017355D01*
X016654Y017355D01*
X016772Y017473D01*
X014936Y022635D02*
X014436Y022635D01*
X014186Y022885D01*
X013936Y022635D01*
X013436Y022635D01*
X013186Y022885D01*
X012936Y022635D01*
X012436Y022635D01*
X012186Y022885D01*
X012186Y023385D01*
X012436Y023635D01*
X012936Y023635D01*
X013186Y023385D01*
X013436Y023635D01*
X013936Y023635D01*
X014186Y023385D01*
X014436Y023635D01*
X014936Y023635D01*
X015186Y023385D01*
X015186Y022885D01*
X014936Y022635D01*
X014186Y022885D02*
X014186Y023385D01*
X013186Y023385D02*
X013186Y022885D01*
X010626Y027833D02*
X010446Y027833D01*
X010486Y027943D02*
X010505Y027950D01*
X010526Y027954D01*
X010546Y027954D01*
X010567Y027950D01*
X010586Y027943D01*
X010626Y028673D02*
X010446Y028673D01*
X009158Y031312D02*
X009158Y031522D01*
X009158Y031682D01*
X008808Y031682D01*
X009037Y031392D02*
X009037Y031412D01*
X009041Y031431D01*
X009047Y031450D01*
X009057Y031468D01*
X009069Y031483D01*
X009083Y031497D01*
X009100Y031508D01*
X009118Y031516D01*
X009138Y031520D01*
X009157Y031522D01*
X008688Y031122D02*
X008448Y031122D01*
X007978Y031312D02*
X007978Y031682D01*
X008328Y031682D01*
X021364Y023021D02*
X021364Y022861D01*
X021364Y022701D01*
X021484Y022731D02*
X021484Y022751D01*
X021480Y022770D01*
X021474Y022789D01*
X021464Y022807D01*
X021452Y022822D01*
X021438Y022836D01*
X021421Y022847D01*
X021403Y022855D01*
X021383Y022859D01*
X021364Y022861D01*
X021364Y023021D02*
X021714Y023021D01*
X022194Y023021D02*
X022544Y023021D01*
X022544Y022701D01*
X022114Y022461D02*
X021794Y022461D01*
X026004Y022581D02*
X026004Y022901D01*
X026244Y023331D02*
X026404Y023331D01*
X026564Y023331D01*
X026564Y022981D01*
X026274Y023211D02*
X026294Y023211D01*
X026313Y023215D01*
X026332Y023221D01*
X026350Y023231D01*
X026365Y023243D01*
X026379Y023257D01*
X026390Y023274D01*
X026398Y023292D01*
X026402Y023312D01*
X026404Y023331D01*
X026564Y022501D02*
X026564Y022151D01*
X026244Y022151D01*
X029148Y029645D02*
X030508Y029645D01*
X030508Y031585D02*
X029948Y031585D01*
X029708Y031585D01*
X029148Y031585D01*
X029708Y031585D02*
X029710Y031564D01*
X029715Y031544D01*
X029724Y031525D01*
X029736Y031508D01*
X029751Y031493D01*
X029768Y031481D01*
X029787Y031472D01*
X029807Y031467D01*
X029828Y031465D01*
X029849Y031467D01*
X029869Y031472D01*
X029888Y031481D01*
X029905Y031493D01*
X029920Y031508D01*
X029932Y031525D01*
X029941Y031544D01*
X029946Y031564D01*
X029948Y031585D01*
X033478Y031585D02*
X034038Y031585D01*
X034278Y031585D01*
X034838Y031585D01*
X034278Y031585D02*
X034276Y031564D01*
X034271Y031544D01*
X034262Y031525D01*
X034250Y031508D01*
X034235Y031493D01*
X034218Y031481D01*
X034199Y031472D01*
X034179Y031467D01*
X034158Y031465D01*
X034137Y031467D01*
X034117Y031472D01*
X034098Y031481D01*
X034081Y031493D01*
X034066Y031508D01*
X034054Y031525D01*
X034045Y031544D01*
X034040Y031564D01*
X034038Y031585D01*
X033478Y029645D02*
X034838Y029645D01*
X010576Y005221D02*
X010256Y005221D01*
X010256Y004871D01*
X010256Y004391D02*
X010256Y004041D01*
X010416Y004041D01*
X010576Y004041D01*
X010546Y004161D02*
X010526Y004161D01*
X010507Y004157D01*
X010488Y004151D01*
X010470Y004141D01*
X010455Y004129D01*
X010441Y004115D01*
X010430Y004098D01*
X010422Y004080D01*
X010418Y004060D01*
X010416Y004041D01*
X010816Y004471D02*
X010816Y004791D01*
X003162Y005424D02*
X002912Y005174D01*
X002412Y005174D01*
X002162Y005424D01*
X002162Y005924D01*
X002412Y006174D01*
X002162Y006424D01*
X002162Y006924D01*
X002412Y007174D01*
X002912Y007174D01*
X003162Y006924D01*
X003162Y006424D01*
X002912Y006174D01*
X003162Y005924D01*
X003162Y005424D01*
X002912Y006174D02*
X002412Y006174D01*
X002412Y007174D02*
X002162Y007424D01*
X002162Y007924D01*
X002412Y008174D01*
X002162Y008424D01*
X002162Y008924D01*
X002412Y009174D01*
X002162Y009424D01*
X002162Y009924D01*
X002412Y010174D01*
X002162Y010424D01*
X002162Y010924D01*
X002412Y011174D01*
X002912Y011174D01*
X003162Y010924D01*
X003162Y010424D01*
X002912Y010174D01*
X003162Y009924D01*
X003162Y009424D01*
X002912Y009174D01*
X003162Y008924D01*
X003162Y008424D01*
X002912Y008174D01*
X003162Y007924D01*
X003162Y007424D01*
X002912Y007174D01*
X002912Y008174D02*
X002412Y008174D01*
X002412Y009174D02*
X002912Y009174D01*
X002912Y010174D02*
X002412Y010174D01*
X003593Y011761D02*
X004593Y011761D01*
X004593Y012761D01*
X004593Y013761D01*
X004593Y014761D01*
X004593Y015761D01*
X004593Y016761D01*
X004593Y017761D01*
X004593Y018761D01*
X003593Y018761D01*
X003593Y017761D01*
X003593Y016761D01*
X003593Y015761D01*
X003593Y014761D01*
X003593Y013761D01*
X003593Y012761D01*
X003593Y011761D01*
X003593Y012761D02*
X004593Y012761D01*
X004593Y013761D02*
X003593Y013761D01*
X003593Y014761D02*
X004593Y014761D01*
X004593Y015761D02*
X003593Y015761D01*
X003593Y016761D02*
X004593Y016761D01*
X004593Y017761D02*
X003593Y017761D01*
D14*
X013937Y016804D02*
X013939Y016816D01*
X013944Y016827D01*
X013953Y016836D01*
X013964Y016841D01*
X013976Y016843D01*
X013988Y016841D01*
X013999Y016836D01*
X014008Y016827D01*
X014013Y016816D01*
X014015Y016804D01*
X014013Y016792D01*
X014008Y016781D01*
X013999Y016772D01*
X013988Y016767D01*
X013976Y016765D01*
X013964Y016767D01*
X013953Y016772D01*
X013944Y016781D01*
X013939Y016792D01*
X013937Y016804D01*
D15*
X014430Y017749D02*
X014432Y017767D01*
X014438Y017783D01*
X014447Y017798D01*
X014460Y017811D01*
X014475Y017820D01*
X014491Y017826D01*
X014509Y017828D01*
X014527Y017826D01*
X014543Y017820D01*
X014558Y017811D01*
X014571Y017798D01*
X014580Y017783D01*
X014586Y017767D01*
X014588Y017749D01*
X014586Y017731D01*
X014580Y017715D01*
X014571Y017700D01*
X014558Y017687D01*
X014543Y017678D01*
X014527Y017672D01*
X014509Y017670D01*
X014491Y017672D01*
X014475Y017678D01*
X014460Y017687D01*
X014447Y017700D01*
X014438Y017715D01*
X014432Y017731D01*
X014430Y017749D01*
D16*
X014040Y005969D02*
X013568Y005969D01*
X012741Y005969D01*
X012741Y004080D01*
X012544Y004080D01*
X012544Y005969D01*
X012741Y005969D01*
X014040Y005969D02*
X014040Y004080D01*
X012741Y004080D01*
X027702Y014906D02*
X029591Y014906D01*
X029591Y015379D01*
X029591Y016206D01*
X027702Y016206D01*
X027702Y016402D01*
X029591Y016402D01*
X029591Y016206D01*
X031402Y017015D02*
X032190Y017015D01*
X031796Y017556D01*
X031402Y017015D01*
X027702Y016206D02*
X027702Y014906D01*
X035401Y005961D02*
X039412Y005961D01*
X036924Y024985D02*
X036113Y024985D01*
X036113Y026009D02*
X036924Y026009D01*
X036924Y027741D02*
X036113Y027741D01*
X036113Y028765D02*
X036924Y028765D01*
D17*
X036234Y028253D03*
X036234Y025497D03*
D18*
X036254Y026342D02*
X036378Y026342D01*
X036439Y026404D01*
X036561Y026342D02*
X036808Y026589D01*
X036808Y026651D01*
X036746Y026712D01*
X036623Y026712D01*
X036561Y026651D01*
X036439Y026651D02*
X036378Y026712D01*
X036254Y026712D01*
X036193Y026651D01*
X036193Y026404D01*
X036254Y026342D01*
X036561Y026342D02*
X036808Y026342D01*
X037821Y027874D02*
X038068Y027874D01*
X038129Y027936D01*
X038129Y028059D01*
X038068Y028121D01*
X038129Y028242D02*
X038129Y028489D01*
X038129Y028611D02*
X038129Y028858D01*
X038129Y028734D02*
X037759Y028734D01*
X037883Y028611D01*
X037759Y028366D02*
X038129Y028366D01*
X037883Y028242D02*
X037759Y028366D01*
X037821Y028121D02*
X037759Y028059D01*
X037759Y027936D01*
X037821Y027874D01*
X034808Y028693D02*
X034615Y028693D01*
X034615Y028983D01*
X034808Y028983D01*
X034711Y028838D02*
X034615Y028838D01*
X034514Y028790D02*
X034514Y028983D01*
X034514Y028790D02*
X034417Y028693D01*
X034320Y028790D01*
X034320Y028983D01*
X034220Y028983D02*
X034124Y028983D01*
X034172Y028983D02*
X034172Y028693D01*
X034124Y028693D02*
X034220Y028693D01*
X034022Y028693D02*
X033926Y028790D01*
X033974Y028790D02*
X033829Y028790D01*
X033829Y028693D02*
X033829Y028983D01*
X033974Y028983D01*
X034022Y028935D01*
X034022Y028838D01*
X033974Y028790D01*
X033728Y028741D02*
X033728Y028935D01*
X033679Y028983D01*
X033534Y028983D01*
X033534Y028693D01*
X033679Y028693D01*
X033728Y028741D01*
X033433Y028645D02*
X033240Y028645D01*
X033139Y028693D02*
X032945Y028693D01*
X032945Y028983D01*
X033139Y028983D01*
X033042Y028838D02*
X032945Y028838D01*
X032844Y028983D02*
X032650Y028983D01*
X032747Y028983D02*
X032747Y028693D01*
X032549Y028693D02*
X032549Y028886D01*
X032452Y028983D01*
X032356Y028886D01*
X032356Y028693D01*
X032255Y028741D02*
X032255Y028838D01*
X032158Y028838D01*
X032255Y028741D02*
X032206Y028693D01*
X032109Y028693D01*
X032061Y028741D01*
X032061Y028935D01*
X032109Y028983D01*
X032206Y028983D01*
X032255Y028935D01*
X032356Y028838D02*
X032549Y028838D01*
X032803Y031628D02*
X033117Y031942D01*
X033117Y031785D02*
X032803Y031785D01*
X032803Y031942D02*
X033117Y031628D01*
X032960Y031628D02*
X032960Y031942D01*
X028786Y031942D02*
X028473Y031628D01*
X028629Y031628D02*
X028629Y031942D01*
X028473Y031942D02*
X028786Y031628D01*
X028786Y031785D02*
X028473Y031785D01*
X027359Y032014D02*
X027297Y031952D01*
X027174Y031952D01*
X027112Y032014D01*
X026991Y032014D02*
X026929Y031952D01*
X026805Y031952D01*
X026744Y032014D01*
X026744Y032261D01*
X026805Y032323D01*
X026929Y032323D01*
X026991Y032261D01*
X027112Y032323D02*
X027112Y032138D01*
X027235Y032199D01*
X027297Y032199D01*
X027359Y032138D01*
X027359Y032014D01*
X027359Y032323D02*
X027112Y032323D01*
X022603Y028025D02*
X022356Y028025D01*
X022480Y028025D02*
X022480Y027655D01*
X022235Y027840D02*
X022173Y027779D01*
X021988Y027779D01*
X021988Y027655D02*
X021988Y028025D01*
X022173Y028025D01*
X022235Y027964D01*
X022235Y027840D01*
X021866Y027840D02*
X021805Y027779D01*
X021620Y027779D01*
X021620Y027655D02*
X021620Y028025D01*
X021805Y028025D01*
X021866Y027964D01*
X021866Y027840D01*
X021498Y028025D02*
X021498Y027655D01*
X021251Y027655D02*
X021251Y028025D01*
X021375Y027902D01*
X021498Y028025D01*
X021130Y027593D02*
X020883Y027593D01*
X020761Y027655D02*
X020515Y027655D01*
X020515Y028025D01*
X022573Y025856D02*
X022511Y025794D01*
X022511Y025548D01*
X022573Y025486D01*
X022697Y025486D01*
X022758Y025548D01*
X022880Y025548D02*
X022941Y025486D01*
X023065Y025486D01*
X023127Y025548D01*
X023127Y025609D01*
X023065Y025671D01*
X022880Y025671D01*
X022880Y025548D01*
X022880Y025671D02*
X023003Y025794D01*
X023127Y025856D01*
X022758Y025794D02*
X022697Y025856D01*
X022573Y025856D01*
X025569Y023718D02*
X025883Y023404D01*
X025726Y023404D02*
X025726Y023718D01*
X025883Y023718D02*
X025569Y023404D01*
X025569Y023561D02*
X025883Y023561D01*
X021290Y022340D02*
X020977Y022026D01*
X021133Y022026D02*
X021133Y022340D01*
X020977Y022340D02*
X021290Y022026D01*
X021290Y022183D02*
X020977Y022183D01*
X019091Y021533D02*
X019029Y021594D01*
X018906Y021594D01*
X018844Y021533D01*
X019091Y021533D02*
X019091Y021471D01*
X018844Y021224D01*
X019091Y021224D01*
X018723Y021224D02*
X018476Y021224D01*
X018599Y021224D02*
X018599Y021594D01*
X018476Y021471D01*
X018355Y021533D02*
X018293Y021594D01*
X018169Y021594D01*
X018108Y021533D01*
X018108Y021286D01*
X018169Y021224D01*
X018293Y021224D01*
X018355Y021286D01*
X018206Y020413D02*
X018206Y020043D01*
X018329Y020043D02*
X018082Y020043D01*
X017961Y020105D02*
X017899Y020043D01*
X017776Y020043D01*
X017714Y020105D01*
X017714Y020352D01*
X017776Y020413D01*
X017899Y020413D01*
X017961Y020352D01*
X018082Y020290D02*
X018206Y020413D01*
X018451Y020352D02*
X018512Y020413D01*
X018636Y020413D01*
X018698Y020352D01*
X018698Y020290D01*
X018636Y020228D01*
X018698Y020166D01*
X018698Y020105D01*
X018636Y020043D01*
X018512Y020043D01*
X018451Y020105D01*
X018574Y020228D02*
X018636Y020228D01*
X019317Y015078D02*
X019379Y015078D01*
X019440Y015016D01*
X019440Y014893D01*
X019379Y014831D01*
X019317Y014831D01*
X019255Y014893D01*
X019255Y015016D01*
X019317Y015078D01*
X019440Y015016D02*
X019502Y015078D01*
X019564Y015078D01*
X019626Y015016D01*
X019626Y014893D01*
X019564Y014831D01*
X019502Y014831D01*
X019440Y014893D01*
X019626Y014710D02*
X019626Y014463D01*
X019626Y014586D02*
X019255Y014586D01*
X019379Y014463D01*
X019317Y014341D02*
X019255Y014280D01*
X019255Y014156D01*
X019317Y014095D01*
X019564Y014095D01*
X019626Y014156D01*
X019626Y014280D01*
X019564Y014341D01*
X020436Y014280D02*
X020436Y014156D01*
X020498Y014095D01*
X020745Y014095D01*
X020807Y014156D01*
X020807Y014280D01*
X020745Y014341D01*
X020807Y014463D02*
X020807Y014710D01*
X020807Y014831D02*
X020745Y014831D01*
X020498Y015078D01*
X020436Y015078D01*
X020436Y014831D01*
X020436Y014586D02*
X020807Y014586D01*
X020560Y014463D02*
X020436Y014586D01*
X020498Y014341D02*
X020436Y014280D01*
X024775Y015774D02*
X024837Y015712D01*
X024960Y015712D01*
X025022Y015774D01*
X025144Y015774D02*
X025205Y015712D01*
X025329Y015712D01*
X025390Y015774D01*
X025390Y015836D01*
X025329Y015897D01*
X025267Y015897D01*
X025329Y015897D02*
X025390Y015959D01*
X025390Y016021D01*
X025329Y016083D01*
X025205Y016083D01*
X025144Y016021D01*
X025022Y016021D02*
X024960Y016083D01*
X024837Y016083D01*
X024775Y016021D01*
X024775Y015774D01*
X028717Y009051D02*
X028717Y008866D01*
X028840Y008928D01*
X028902Y008928D01*
X028963Y008866D01*
X028963Y008743D01*
X028902Y008681D01*
X028778Y008681D01*
X028717Y008743D01*
X028717Y009051D02*
X028963Y009051D01*
X029085Y009051D02*
X029085Y008805D01*
X029208Y008681D01*
X029332Y008805D01*
X029332Y009051D01*
X029453Y008619D02*
X029700Y008619D01*
X029822Y008743D02*
X029822Y008990D01*
X029883Y009051D01*
X030007Y009051D01*
X030068Y008990D01*
X030190Y008990D02*
X030190Y008743D01*
X030252Y008681D01*
X030375Y008681D01*
X030437Y008743D01*
X030437Y008990D01*
X030375Y009051D01*
X030252Y009051D01*
X030190Y008990D01*
X030068Y008743D02*
X030007Y008681D01*
X029883Y008681D01*
X029822Y008743D01*
X030558Y008743D02*
X030558Y009051D01*
X030805Y009051D02*
X030805Y008743D01*
X030743Y008681D01*
X030620Y008681D01*
X030558Y008743D01*
X030926Y009051D02*
X031173Y009051D01*
X031050Y009051D02*
X031050Y008681D01*
X024800Y008776D02*
X024800Y008406D01*
X024553Y008776D01*
X024553Y008406D01*
X024431Y008406D02*
X024308Y008406D01*
X024370Y008406D02*
X024370Y008776D01*
X024431Y008776D02*
X024308Y008776D01*
X024187Y008714D02*
X024125Y008776D01*
X024001Y008776D01*
X023940Y008714D01*
X023940Y008467D01*
X024001Y008406D01*
X024125Y008406D01*
X024187Y008467D01*
X023818Y008344D02*
X023571Y008344D01*
X023450Y008529D02*
X023450Y008776D01*
X023203Y008776D02*
X023203Y008529D01*
X023326Y008406D01*
X023450Y008529D01*
X023082Y008591D02*
X023020Y008652D01*
X022958Y008652D01*
X022835Y008591D01*
X022835Y008776D01*
X023082Y008776D01*
X023082Y008591D02*
X023082Y008467D01*
X023020Y008406D01*
X022896Y008406D01*
X022835Y008467D01*
X016082Y012581D02*
X016082Y012705D01*
X016021Y012767D01*
X016021Y012888D02*
X016082Y012950D01*
X016082Y013073D01*
X016021Y013135D01*
X015774Y013135D01*
X015712Y013073D01*
X015712Y012950D01*
X015774Y012888D01*
X015835Y012888D01*
X015897Y012950D01*
X015897Y013135D01*
X015774Y012767D02*
X015712Y012705D01*
X015712Y012581D01*
X015774Y012520D01*
X016021Y012520D01*
X016082Y012581D01*
X011752Y012581D02*
X011752Y012705D01*
X011690Y012767D01*
X011752Y012888D02*
X011752Y013135D01*
X011752Y013011D02*
X011381Y013011D01*
X011505Y012888D01*
X011443Y012767D02*
X011381Y012705D01*
X011381Y012581D01*
X011443Y012520D01*
X011690Y012520D01*
X011752Y012581D01*
X008904Y012607D02*
X008904Y012730D01*
X008842Y012792D01*
X008780Y012792D01*
X008718Y012730D01*
X008718Y012545D01*
X008842Y012545D01*
X008904Y012607D01*
X008904Y012424D02*
X008904Y012177D01*
X008904Y012300D02*
X008533Y012300D01*
X008657Y012177D01*
X008595Y012055D02*
X008533Y011994D01*
X008533Y011870D01*
X008595Y011808D01*
X008842Y011808D01*
X008904Y011870D01*
X008904Y011994D01*
X008842Y012055D01*
X008718Y012545D02*
X008595Y012669D01*
X008533Y012792D01*
X010613Y016014D02*
X010736Y016014D01*
X010798Y016076D01*
X010920Y016014D02*
X011166Y016014D01*
X011043Y016014D02*
X011043Y016384D01*
X010920Y016261D01*
X010798Y016322D02*
X010736Y016384D01*
X010613Y016384D01*
X010551Y016322D01*
X010551Y016076D01*
X010613Y016014D01*
X011288Y016076D02*
X011350Y016014D01*
X011473Y016014D01*
X011535Y016076D01*
X011535Y016199D01*
X011473Y016261D01*
X011411Y016261D01*
X011288Y016199D01*
X011288Y016384D01*
X011535Y016384D01*
X011475Y017195D02*
X011599Y017195D01*
X011660Y017257D01*
X011782Y017195D02*
X012029Y017195D01*
X011905Y017195D02*
X011905Y017565D01*
X011782Y017442D01*
X011660Y017504D02*
X011599Y017565D01*
X011475Y017565D01*
X011413Y017504D01*
X011413Y017257D01*
X011475Y017195D01*
X012150Y017380D02*
X012397Y017380D01*
X012335Y017195D02*
X012335Y017565D01*
X012150Y017380D01*
X009192Y020357D02*
X009192Y020480D01*
X009131Y020542D01*
X009131Y020664D02*
X009069Y020664D01*
X009007Y020725D01*
X009007Y020849D01*
X009069Y020911D01*
X009131Y020911D01*
X009192Y020849D01*
X009192Y020725D01*
X009131Y020664D01*
X009007Y020725D02*
X008946Y020664D01*
X008884Y020664D01*
X008822Y020725D01*
X008822Y020849D01*
X008884Y020911D01*
X008946Y020911D01*
X009007Y020849D01*
X008884Y020542D02*
X008822Y020480D01*
X008822Y020357D01*
X008884Y020295D01*
X009131Y020295D01*
X009192Y020357D01*
X012630Y025588D02*
X012877Y025588D01*
X012939Y025650D01*
X012939Y025773D01*
X012877Y025835D01*
X012939Y025956D02*
X012939Y026203D01*
X012939Y026080D02*
X012569Y026080D01*
X012692Y025956D01*
X012630Y025835D02*
X012569Y025773D01*
X012569Y025650D01*
X012630Y025588D01*
X012630Y026325D02*
X012569Y026386D01*
X012569Y026510D01*
X012630Y026572D01*
X012877Y026325D01*
X012939Y026386D01*
X012939Y026510D01*
X012877Y026572D01*
X012630Y026572D01*
X012630Y026325D02*
X012877Y026325D01*
X011261Y027506D02*
X010948Y027819D01*
X011104Y027819D02*
X011104Y027506D01*
X010948Y027506D02*
X011261Y027819D01*
X011261Y027663D02*
X010948Y027663D01*
X008405Y027516D02*
X008405Y027393D01*
X008343Y027331D01*
X008096Y027578D01*
X008343Y027578D01*
X008405Y027516D01*
X008343Y027331D02*
X008096Y027331D01*
X008035Y027393D01*
X008035Y027516D01*
X008096Y027578D01*
X008096Y027210D02*
X008035Y027148D01*
X008035Y027025D01*
X008096Y026963D01*
X008096Y026841D02*
X008035Y026780D01*
X008035Y026656D01*
X008096Y026595D01*
X008343Y026595D01*
X008405Y026656D01*
X008405Y026780D01*
X008343Y026841D01*
X008405Y026963D02*
X008158Y027210D01*
X008096Y027210D01*
X008405Y027210D02*
X008405Y026963D01*
X008831Y031804D02*
X009145Y032117D01*
X009151Y032113D02*
X009213Y032051D01*
X009336Y032051D01*
X009398Y032113D01*
X009519Y032051D02*
X009766Y032051D01*
X009643Y032051D02*
X009643Y032421D01*
X009519Y032298D01*
X009398Y032359D02*
X009336Y032421D01*
X009213Y032421D01*
X009151Y032359D01*
X009151Y032113D01*
X009145Y031961D02*
X008831Y031961D01*
X008831Y032117D02*
X009145Y031804D01*
X008988Y031804D02*
X008988Y032117D01*
X009888Y032113D02*
X009949Y032051D01*
X010073Y032051D01*
X010135Y032113D01*
X010135Y032359D01*
X010073Y032421D01*
X009949Y032421D01*
X009888Y032359D01*
X009888Y032298D01*
X009949Y032236D01*
X010135Y032236D01*
X016673Y031549D02*
X016858Y031364D01*
X016858Y031611D01*
X017043Y031549D02*
X016673Y031549D01*
X016735Y031243D02*
X016673Y031181D01*
X016673Y031057D01*
X016735Y030996D01*
X016982Y030996D01*
X017043Y031057D01*
X017043Y031181D01*
X016982Y031243D01*
X016370Y026473D02*
X016617Y026226D01*
X016679Y026226D01*
X016617Y026105D02*
X016679Y026043D01*
X016679Y025920D01*
X016617Y025858D01*
X016370Y025858D01*
X016309Y025920D01*
X016309Y026043D01*
X016370Y026105D01*
X016309Y026226D02*
X016309Y026473D01*
X016370Y026473D01*
X011251Y003967D02*
X010938Y003654D01*
X011094Y003654D02*
X011094Y003967D01*
X010938Y003967D02*
X011251Y003654D01*
X011251Y003811D02*
X010938Y003811D01*
D19*
X003343Y012261D02*
X001093Y012261D01*
X001093Y013261D02*
X003343Y013261D01*
X003343Y014261D02*
X001093Y014261D01*
X001093Y015261D02*
X003343Y015261D01*
X003343Y016261D02*
X001093Y016261D01*
X001093Y017261D02*
X003343Y017261D01*
X003343Y018261D02*
X001093Y018261D01*
D20*
X003493Y018261D03*
X003493Y017261D03*
X003493Y016261D03*
X003493Y015261D03*
X003493Y014261D03*
X003493Y013261D03*
X003493Y012261D03*
D21*
X004793Y012261D03*
X004793Y013261D03*
X004793Y014261D03*
X004793Y015261D03*
X004793Y016261D03*
X004793Y017261D03*
X004793Y018261D03*
D22*
X003749Y011464D02*
X003713Y011464D01*
X003676Y011427D01*
X003676Y011391D01*
X003676Y011427D02*
X003639Y011464D01*
X003602Y011464D01*
X003566Y011427D01*
X003566Y011354D01*
X003602Y011317D01*
X003749Y011317D02*
X003786Y011354D01*
X003786Y011427D01*
X003749Y011464D01*
X003823Y011243D02*
X003823Y011096D01*
X003786Y010949D02*
X003676Y010949D01*
X003602Y011022D01*
X003566Y011022D01*
X003676Y010949D02*
X003602Y010875D01*
X003566Y010875D01*
X003566Y010801D02*
X003566Y010654D01*
X003786Y010654D01*
X003786Y010801D01*
X003676Y010728D02*
X003676Y010654D01*
X003786Y010580D02*
X003676Y010470D01*
X003713Y010433D02*
X003566Y010580D01*
X003566Y010433D02*
X003786Y010433D01*
X005534Y009951D02*
X005534Y009878D01*
X005571Y009841D01*
X005534Y009951D02*
X005571Y009988D01*
X005608Y009988D01*
X005754Y009841D01*
X005754Y009988D01*
X005791Y009767D02*
X005791Y009620D01*
X005754Y009472D02*
X005644Y009472D01*
X005571Y009546D01*
X005534Y009546D01*
X005644Y009472D02*
X005571Y009399D01*
X005534Y009399D01*
X005534Y009325D02*
X005534Y009178D01*
X005754Y009178D01*
X005754Y009325D01*
X005644Y009251D02*
X005644Y009178D01*
X005534Y009104D02*
X005681Y008957D01*
X005644Y008994D02*
X005754Y009104D01*
X005754Y008957D02*
X005534Y008957D01*
X006518Y008957D02*
X006739Y008957D01*
X006665Y008957D02*
X006518Y009104D01*
X006518Y009178D02*
X006739Y009178D01*
X006739Y009325D01*
X006629Y009251D02*
X006629Y009178D01*
X006518Y009178D02*
X006518Y009325D01*
X006518Y009399D02*
X006555Y009399D01*
X006629Y009472D01*
X006739Y009472D01*
X006629Y009472D02*
X006555Y009546D01*
X006518Y009546D01*
X006775Y009620D02*
X006775Y009767D01*
X006739Y009841D02*
X006739Y009988D01*
X006739Y009914D02*
X006518Y009914D01*
X006592Y009841D01*
X006739Y009104D02*
X006629Y008994D01*
D23*
X018331Y027465D02*
X018824Y027190D01*
X018824Y027741D01*
X018331Y027465D01*
X034985Y022702D02*
X034985Y021520D01*
X035477Y021520D02*
X035989Y021520D01*
X036481Y021520D02*
X036481Y022702D01*
D24*
X018312Y027465D03*
D25*
X004237Y003804D03*
D26*
X036066Y006258D03*
X036736Y006258D03*
X037406Y006258D03*
X038076Y006258D03*
X038746Y006258D03*
D27*
X031796Y017810D03*
D28*
X006261Y028924D02*
X006261Y029574D01*
X006064Y029574D02*
X006064Y028924D01*
X006261Y028924D01*
X005473Y029424D02*
X005473Y032074D01*
X006064Y032074D01*
X006064Y031424D01*
X006261Y031424D02*
X006261Y032074D01*
X006064Y032074D01*
X005473Y032074D02*
X005473Y032270D01*
X000749Y032270D01*
X000749Y031759D01*
X001143Y031759D01*
X001536Y031759D02*
X001930Y031759D01*
X002127Y032074D02*
X005473Y032074D01*
X004292Y031759D02*
X004292Y031522D01*
X004292Y031759D02*
X003898Y031759D01*
X003505Y031759D02*
X003111Y031759D01*
X002717Y031759D02*
X002324Y031759D01*
X002127Y032074D02*
X002127Y032270D01*
X002127Y032074D02*
X002127Y028727D01*
X002324Y029239D02*
X002717Y029239D01*
X003111Y029239D02*
X003505Y029239D01*
X003898Y029239D02*
X004292Y029239D01*
X004292Y029475D01*
X004292Y029869D02*
X004292Y030105D01*
X004292Y030893D01*
X004292Y031129D01*
X001930Y029239D02*
X001536Y029239D01*
X001143Y029239D02*
X000749Y029239D01*
X000749Y031759D01*
X001536Y030893D02*
X001497Y030891D01*
X001459Y030885D01*
X001422Y030876D01*
X001385Y030863D01*
X001350Y030846D01*
X001317Y030827D01*
X001286Y030804D01*
X001257Y030778D01*
X001231Y030749D01*
X001208Y030718D01*
X001189Y030685D01*
X001172Y030650D01*
X001159Y030613D01*
X001150Y030576D01*
X001144Y030538D01*
X001142Y030499D01*
X001144Y030460D01*
X001150Y030422D01*
X001159Y030385D01*
X001172Y030348D01*
X001189Y030313D01*
X001208Y030280D01*
X001231Y030249D01*
X001257Y030220D01*
X001286Y030194D01*
X001317Y030171D01*
X001350Y030152D01*
X001385Y030135D01*
X001422Y030122D01*
X001459Y030113D01*
X001497Y030107D01*
X001536Y030105D01*
X000749Y029239D02*
X000749Y028727D01*
X003973Y028727D01*
M02*
