%
M48
M72
T01C0.0236
T02C0.0315
T03C0.0320
T04C0.0354
T05C0.0394
T06C0.0400
T07C0.0440
T08C0.0472
T09C0.0906
T10C0.1260
%
T01
X12758Y7660
X10395Y11204
X10395Y12778
X12758Y14747
X15514Y14353
X13545Y17109
X17088Y19865
X19844Y22227
X20632Y21440
X21813Y19865
X22600Y19471
X22600Y20259
X23388Y20259
X23781Y19471
X21419Y19078
X25356Y22227
X26144Y21834
X27006Y21652
X26931Y21046
X26931Y19471
X27718Y17109
X29687Y16715
X29687Y18684
X32836Y19078
X35199Y20259
X36380Y19471
X34411Y22227
X32443Y22227
X27718Y24983
X25356Y24196
X24569Y24196
X23781Y23802
X22600Y23015
X19057Y24589
X18270Y24983
X13939Y24983
X15120Y28526
X15120Y28920
X15120Y29314
X15120Y29708
X15907Y29314
X15907Y28920
X13545Y29708
X15907Y33645
X6852Y28526
X5663Y26645
X21813Y15534
X28899Y12385
X28899Y10416
X32049Y11597
X32836Y11597
X33624Y11597
X34411Y11597
X37561Y12778
X37561Y13172
X37561Y13566
X35986Y15928
X41498Y16715
X40415Y22227
X38348Y24196
X35592Y26558
X34411Y26558
X33242Y26306
X34049Y29877
X32443Y31676
X32049Y32463
X30144Y29897
X27325Y31676
X25750Y32463
X39136Y31282
X39529Y31676
X39923Y32070
X42285Y32070
X39136Y29314
X42285Y28526
X43073Y27345
X42679Y26164
X18270Y9629
X17876Y9629
X17482Y9629
X17088Y9629
T02
X18270Y26558
X20238Y26558
X12427Y32007
X10262Y32007
T03
X16982Y28920
X17982Y28920
X16695Y26664
X16695Y25664
X37455Y14747
X38455Y14747
X42285Y15247
X42285Y14247
X38775Y7511
X37397Y5306
X36295Y6408
X31201Y7511
X29823Y5306
X28720Y6408
X23626Y7511
X21145Y6408
X22248Y5306
T04
X23945Y14209
X24930Y14209
X25717Y14209
X26701Y14209
X31941Y14209
X32926Y14209
X33713Y14209
X34697Y14209
T05
X34931Y27149
X33931Y27149
X32931Y27149
X31931Y27149
X30931Y27149
X29931Y27149
X28931Y27149
X27931Y27149
X26966Y27149
X35931Y27149
X36931Y27149
X37931Y27149
X38931Y27149
X39931Y27149
X40931Y27149
X41931Y27149
X11183Y14009
X11183Y6036
X8742Y23180
X9923Y25149
X7443Y25149
T06
X9533Y21290
X9533Y20290
X9533Y19290
X9533Y18290
X9533Y17290
X9533Y16290
X9533Y15290
X6065Y12916
X6065Y11916
X6065Y10916
X6065Y9916
X6065Y8916
X6065Y7916
X28013Y19762
X28013Y21542
X30573Y21542
X30573Y19762
T07
X26175Y11597
X22175Y11597
T08
X23075Y8377
X20319Y8377
X20319Y5306
X23075Y5306
X27894Y5306
X30649Y5306
X30649Y8377
X27894Y8377
X35468Y8377
X38224Y8377
X38224Y5306
X35468Y5306
T09
X35906Y13142
X30733Y13142
X27910Y13142
X22737Y13142
T10
X5671Y5298
X42679Y5298
X42679Y34432
X5671Y34432
M30
