G75*
G70*
%OFA0B0*%
%FSLAX24Y24*%
%IPPOS*%
%LPD*%
%AMOC8*
5,1,8,0,0,1.08239X$1,22.5*
%
%ADD10C,0.0000*%
D10*
X000947Y001087D02*
X038743Y001087D01*
X038743Y001088D02*
X038797Y001090D01*
X038850Y001095D01*
X038903Y001104D01*
X038955Y001117D01*
X039007Y001133D01*
X039057Y001153D01*
X039105Y001176D01*
X039152Y001203D01*
X039197Y001232D01*
X039240Y001265D01*
X039280Y001300D01*
X039318Y001338D01*
X039353Y001378D01*
X039386Y001421D01*
X039415Y001466D01*
X039442Y001513D01*
X039465Y001561D01*
X039485Y001611D01*
X039501Y001663D01*
X039514Y001715D01*
X039523Y001768D01*
X039528Y001821D01*
X039530Y001875D01*
X039530Y031796D01*
X039528Y031850D01*
X039523Y031903D01*
X039514Y031956D01*
X039501Y032008D01*
X039485Y032060D01*
X039465Y032110D01*
X039442Y032158D01*
X039415Y032205D01*
X039386Y032250D01*
X039353Y032293D01*
X039318Y032333D01*
X039280Y032371D01*
X039240Y032406D01*
X039197Y032439D01*
X039152Y032468D01*
X039105Y032495D01*
X039057Y032518D01*
X039007Y032538D01*
X038955Y032554D01*
X038903Y032567D01*
X038850Y032576D01*
X038797Y032581D01*
X038743Y032583D01*
X000947Y032583D01*
X000893Y032581D01*
X000840Y032576D01*
X000787Y032567D01*
X000735Y032554D01*
X000683Y032538D01*
X000633Y032518D01*
X000585Y032495D01*
X000538Y032468D01*
X000493Y032439D01*
X000450Y032406D01*
X000410Y032371D01*
X000372Y032333D01*
X000337Y032293D01*
X000304Y032250D01*
X000275Y032205D01*
X000248Y032158D01*
X000225Y032110D01*
X000205Y032060D01*
X000189Y032008D01*
X000176Y031956D01*
X000167Y031903D01*
X000162Y031850D01*
X000160Y031796D01*
X000160Y001875D01*
X000162Y001821D01*
X000167Y001768D01*
X000176Y001715D01*
X000189Y001663D01*
X000205Y001611D01*
X000225Y001561D01*
X000248Y001513D01*
X000275Y001466D01*
X000304Y001421D01*
X000337Y001378D01*
X000372Y001338D01*
X000410Y001300D01*
X000450Y001265D01*
X000493Y001232D01*
X000538Y001203D01*
X000585Y001176D01*
X000633Y001153D01*
X000683Y001133D01*
X000735Y001117D01*
X000787Y001104D01*
X000840Y001095D01*
X000893Y001090D01*
X000947Y001088D01*
X010554Y002269D02*
X010556Y002319D01*
X010562Y002369D01*
X010572Y002418D01*
X010586Y002466D01*
X010603Y002513D01*
X010624Y002558D01*
X010649Y002602D01*
X010677Y002643D01*
X010709Y002682D01*
X010743Y002719D01*
X010780Y002753D01*
X010820Y002783D01*
X010862Y002810D01*
X010906Y002834D01*
X010952Y002855D01*
X010999Y002871D01*
X011047Y002884D01*
X011097Y002893D01*
X011146Y002898D01*
X011197Y002899D01*
X011247Y002896D01*
X011296Y002889D01*
X011345Y002878D01*
X011393Y002863D01*
X011439Y002845D01*
X011484Y002823D01*
X011527Y002797D01*
X011568Y002768D01*
X011607Y002736D01*
X011643Y002701D01*
X011675Y002663D01*
X011705Y002623D01*
X011732Y002580D01*
X011755Y002536D01*
X011774Y002490D01*
X011790Y002442D01*
X011802Y002393D01*
X011810Y002344D01*
X011814Y002294D01*
X011814Y002244D01*
X011810Y002194D01*
X011802Y002145D01*
X011790Y002096D01*
X011774Y002048D01*
X011755Y002002D01*
X011732Y001958D01*
X011705Y001915D01*
X011675Y001875D01*
X011643Y001837D01*
X011607Y001802D01*
X011568Y001770D01*
X011527Y001741D01*
X011484Y001715D01*
X011439Y001693D01*
X011393Y001675D01*
X011345Y001660D01*
X011296Y001649D01*
X011247Y001642D01*
X011197Y001639D01*
X011146Y001640D01*
X011097Y001645D01*
X011047Y001654D01*
X010999Y001667D01*
X010952Y001683D01*
X010906Y001704D01*
X010862Y001728D01*
X010820Y001755D01*
X010780Y001785D01*
X010743Y001819D01*
X010709Y001856D01*
X010677Y001895D01*
X010649Y001936D01*
X010624Y001980D01*
X010603Y002025D01*
X010586Y002072D01*
X010572Y002120D01*
X010562Y002169D01*
X010556Y002219D01*
X010554Y002269D01*
X010554Y021560D02*
X010556Y021610D01*
X010562Y021660D01*
X010572Y021709D01*
X010586Y021757D01*
X010603Y021804D01*
X010624Y021849D01*
X010649Y021893D01*
X010677Y021934D01*
X010709Y021973D01*
X010743Y022010D01*
X010780Y022044D01*
X010820Y022074D01*
X010862Y022101D01*
X010906Y022125D01*
X010952Y022146D01*
X010999Y022162D01*
X011047Y022175D01*
X011097Y022184D01*
X011146Y022189D01*
X011197Y022190D01*
X011247Y022187D01*
X011296Y022180D01*
X011345Y022169D01*
X011393Y022154D01*
X011439Y022136D01*
X011484Y022114D01*
X011527Y022088D01*
X011568Y022059D01*
X011607Y022027D01*
X011643Y021992D01*
X011675Y021954D01*
X011705Y021914D01*
X011732Y021871D01*
X011755Y021827D01*
X011774Y021781D01*
X011790Y021733D01*
X011802Y021684D01*
X011810Y021635D01*
X011814Y021585D01*
X011814Y021535D01*
X011810Y021485D01*
X011802Y021436D01*
X011790Y021387D01*
X011774Y021339D01*
X011755Y021293D01*
X011732Y021249D01*
X011705Y021206D01*
X011675Y021166D01*
X011643Y021128D01*
X011607Y021093D01*
X011568Y021061D01*
X011527Y021032D01*
X011484Y021006D01*
X011439Y020984D01*
X011393Y020966D01*
X011345Y020951D01*
X011296Y020940D01*
X011247Y020933D01*
X011197Y020930D01*
X011146Y020931D01*
X011097Y020936D01*
X011047Y020945D01*
X010999Y020958D01*
X010952Y020974D01*
X010906Y020995D01*
X010862Y021019D01*
X010820Y021046D01*
X010780Y021076D01*
X010743Y021110D01*
X010709Y021147D01*
X010677Y021186D01*
X010649Y021227D01*
X010624Y021271D01*
X010603Y021316D01*
X010586Y021363D01*
X010572Y021411D01*
X010562Y021460D01*
X010556Y021510D01*
X010554Y021560D01*
X037719Y021560D02*
X037721Y021610D01*
X037727Y021660D01*
X037737Y021709D01*
X037751Y021757D01*
X037768Y021804D01*
X037789Y021849D01*
X037814Y021893D01*
X037842Y021934D01*
X037874Y021973D01*
X037908Y022010D01*
X037945Y022044D01*
X037985Y022074D01*
X038027Y022101D01*
X038071Y022125D01*
X038117Y022146D01*
X038164Y022162D01*
X038212Y022175D01*
X038262Y022184D01*
X038311Y022189D01*
X038362Y022190D01*
X038412Y022187D01*
X038461Y022180D01*
X038510Y022169D01*
X038558Y022154D01*
X038604Y022136D01*
X038649Y022114D01*
X038692Y022088D01*
X038733Y022059D01*
X038772Y022027D01*
X038808Y021992D01*
X038840Y021954D01*
X038870Y021914D01*
X038897Y021871D01*
X038920Y021827D01*
X038939Y021781D01*
X038955Y021733D01*
X038967Y021684D01*
X038975Y021635D01*
X038979Y021585D01*
X038979Y021535D01*
X038975Y021485D01*
X038967Y021436D01*
X038955Y021387D01*
X038939Y021339D01*
X038920Y021293D01*
X038897Y021249D01*
X038870Y021206D01*
X038840Y021166D01*
X038808Y021128D01*
X038772Y021093D01*
X038733Y021061D01*
X038692Y021032D01*
X038649Y021006D01*
X038604Y020984D01*
X038558Y020966D01*
X038510Y020951D01*
X038461Y020940D01*
X038412Y020933D01*
X038362Y020930D01*
X038311Y020931D01*
X038262Y020936D01*
X038212Y020945D01*
X038164Y020958D01*
X038117Y020974D01*
X038071Y020995D01*
X038027Y021019D01*
X037985Y021046D01*
X037945Y021076D01*
X037908Y021110D01*
X037874Y021147D01*
X037842Y021186D01*
X037814Y021227D01*
X037789Y021271D01*
X037768Y021316D01*
X037751Y021363D01*
X037737Y021411D01*
X037727Y021460D01*
X037721Y021510D01*
X037719Y021560D01*
X037719Y002269D02*
X037721Y002319D01*
X037727Y002369D01*
X037737Y002418D01*
X037751Y002466D01*
X037768Y002513D01*
X037789Y002558D01*
X037814Y002602D01*
X037842Y002643D01*
X037874Y002682D01*
X037908Y002719D01*
X037945Y002753D01*
X037985Y002783D01*
X038027Y002810D01*
X038071Y002834D01*
X038117Y002855D01*
X038164Y002871D01*
X038212Y002884D01*
X038262Y002893D01*
X038311Y002898D01*
X038362Y002899D01*
X038412Y002896D01*
X038461Y002889D01*
X038510Y002878D01*
X038558Y002863D01*
X038604Y002845D01*
X038649Y002823D01*
X038692Y002797D01*
X038733Y002768D01*
X038772Y002736D01*
X038808Y002701D01*
X038840Y002663D01*
X038870Y002623D01*
X038897Y002580D01*
X038920Y002536D01*
X038939Y002490D01*
X038955Y002442D01*
X038967Y002393D01*
X038975Y002344D01*
X038979Y002294D01*
X038979Y002244D01*
X038975Y002194D01*
X038967Y002145D01*
X038955Y002096D01*
X038939Y002048D01*
X038920Y002002D01*
X038897Y001958D01*
X038870Y001915D01*
X038840Y001875D01*
X038808Y001837D01*
X038772Y001802D01*
X038733Y001770D01*
X038692Y001741D01*
X038649Y001715D01*
X038604Y001693D01*
X038558Y001675D01*
X038510Y001660D01*
X038461Y001649D01*
X038412Y001642D01*
X038362Y001639D01*
X038311Y001640D01*
X038262Y001645D01*
X038212Y001654D01*
X038164Y001667D01*
X038117Y001683D01*
X038071Y001704D01*
X038027Y001728D01*
X037985Y001755D01*
X037945Y001785D01*
X037908Y001819D01*
X037874Y001856D01*
X037842Y001895D01*
X037814Y001936D01*
X037789Y001980D01*
X037768Y002025D01*
X037751Y002072D01*
X037737Y002120D01*
X037727Y002169D01*
X037721Y002219D01*
X037719Y002269D01*
M02*
