G75*
G70*
%OFA0B0*%
%FSLAX24Y24*%
%IPPOS*%
%LPD*%
%AMOC8*
5,1,8,0,0,1.08239X$1,22.5*
%
%ADD10C,0.0000*%
%ADD11C,0.1300*%
%ADD12C,0.0827*%
%ADD13C,0.0512*%
%ADD14C,0.1346*%
%ADD15C,0.0594*%
%ADD16R,0.0555X0.0555*%
%ADD17C,0.0700*%
%ADD18R,0.0138X0.0631*%
%ADD19R,0.0631X0.0138*%
%ADD20R,0.0749X0.1300*%
%ADD21R,0.0552X0.0670*%
%ADD22R,0.0749X0.0985*%
%ADD23OC8,0.0560*%
%ADD24R,0.0670X0.0552*%
%ADD25R,0.1220X0.1190*%
%ADD26R,0.0260X0.0560*%
%ADD27R,0.0560X0.0260*%
%ADD28R,0.0540X0.0290*%
%ADD29R,0.0640X0.0260*%
%ADD30R,0.2481X0.2166*%
%ADD31R,0.0670X0.0434*%
%ADD32R,0.0634X0.0634*%
%ADD33R,0.1379X0.1024*%
%ADD34R,0.0434X0.0631*%
%ADD35C,0.0640*%
%ADD36R,0.1100X0.0440*%
%ADD37R,0.3560X0.4040*%
%ADD38R,0.1190X0.1220*%
%ADD39R,0.0560X0.0430*%
%ADD40OC8,0.0670*%
%ADD41R,0.0906X0.0276*%
%ADD42R,0.0591X0.0591*%
%ADD43R,0.1024X0.0591*%
%ADD44C,0.0780*%
D10*
X005277Y004117D02*
X043073Y004117D01*
X043127Y004119D01*
X043180Y004124D01*
X043233Y004133D01*
X043285Y004146D01*
X043337Y004162D01*
X043387Y004182D01*
X043435Y004205D01*
X043482Y004232D01*
X043527Y004261D01*
X043570Y004294D01*
X043610Y004329D01*
X043648Y004367D01*
X043683Y004407D01*
X043716Y004450D01*
X043745Y004495D01*
X043772Y004542D01*
X043795Y004590D01*
X043815Y004640D01*
X043831Y004692D01*
X043844Y004744D01*
X043853Y004797D01*
X043858Y004850D01*
X043860Y004904D01*
X043860Y034826D01*
X043858Y034880D01*
X043853Y034933D01*
X043844Y034986D01*
X043831Y035038D01*
X043815Y035090D01*
X043795Y035140D01*
X043772Y035188D01*
X043745Y035235D01*
X043716Y035280D01*
X043683Y035323D01*
X043648Y035363D01*
X043610Y035401D01*
X043570Y035436D01*
X043527Y035469D01*
X043482Y035498D01*
X043435Y035525D01*
X043387Y035548D01*
X043337Y035568D01*
X043285Y035584D01*
X043233Y035597D01*
X043180Y035606D01*
X043127Y035611D01*
X043073Y035613D01*
X005277Y035613D01*
X005223Y035611D01*
X005170Y035606D01*
X005117Y035597D01*
X005065Y035584D01*
X005013Y035568D01*
X004963Y035548D01*
X004915Y035525D01*
X004868Y035498D01*
X004823Y035469D01*
X004780Y035436D01*
X004740Y035401D01*
X004702Y035363D01*
X004667Y035323D01*
X004634Y035280D01*
X004605Y035235D01*
X004578Y035188D01*
X004555Y035140D01*
X004535Y035090D01*
X004519Y035038D01*
X004506Y034986D01*
X004497Y034933D01*
X004492Y034880D01*
X004490Y034826D01*
X004490Y004904D01*
X004492Y004850D01*
X004497Y004797D01*
X004506Y004744D01*
X004519Y004692D01*
X004535Y004640D01*
X004555Y004590D01*
X004578Y004542D01*
X004605Y004495D01*
X004634Y004450D01*
X004667Y004407D01*
X004702Y004367D01*
X004740Y004329D01*
X004780Y004294D01*
X004823Y004261D01*
X004868Y004232D01*
X004915Y004205D01*
X004963Y004182D01*
X005013Y004162D01*
X005065Y004146D01*
X005117Y004133D01*
X005170Y004124D01*
X005223Y004119D01*
X005277Y004117D01*
X005041Y005298D02*
X005043Y005348D01*
X005049Y005398D01*
X005059Y005447D01*
X005073Y005495D01*
X005090Y005542D01*
X005111Y005587D01*
X005136Y005631D01*
X005164Y005672D01*
X005196Y005711D01*
X005230Y005748D01*
X005267Y005782D01*
X005307Y005812D01*
X005349Y005839D01*
X005393Y005863D01*
X005439Y005884D01*
X005486Y005900D01*
X005534Y005913D01*
X005584Y005922D01*
X005633Y005927D01*
X005684Y005928D01*
X005734Y005925D01*
X005783Y005918D01*
X005832Y005907D01*
X005880Y005892D01*
X005926Y005874D01*
X005971Y005852D01*
X006014Y005826D01*
X006055Y005797D01*
X006094Y005765D01*
X006130Y005730D01*
X006162Y005692D01*
X006192Y005652D01*
X006219Y005609D01*
X006242Y005565D01*
X006261Y005519D01*
X006277Y005471D01*
X006289Y005422D01*
X006297Y005373D01*
X006301Y005323D01*
X006301Y005273D01*
X006297Y005223D01*
X006289Y005174D01*
X006277Y005125D01*
X006261Y005077D01*
X006242Y005031D01*
X006219Y004987D01*
X006192Y004944D01*
X006162Y004904D01*
X006130Y004866D01*
X006094Y004831D01*
X006055Y004799D01*
X006014Y004770D01*
X005971Y004744D01*
X005926Y004722D01*
X005880Y004704D01*
X005832Y004689D01*
X005783Y004678D01*
X005734Y004671D01*
X005684Y004668D01*
X005633Y004669D01*
X005584Y004674D01*
X005534Y004683D01*
X005486Y004696D01*
X005439Y004712D01*
X005393Y004733D01*
X005349Y004757D01*
X005307Y004784D01*
X005267Y004814D01*
X005230Y004848D01*
X005196Y004885D01*
X005164Y004924D01*
X005136Y004965D01*
X005111Y005009D01*
X005090Y005054D01*
X005073Y005101D01*
X005059Y005149D01*
X005049Y005198D01*
X005043Y005248D01*
X005041Y005298D01*
X020083Y005306D02*
X020085Y005336D01*
X020091Y005366D01*
X020100Y005395D01*
X020113Y005422D01*
X020130Y005447D01*
X020149Y005470D01*
X020172Y005491D01*
X020197Y005508D01*
X020223Y005522D01*
X020252Y005532D01*
X020281Y005539D01*
X020311Y005542D01*
X020342Y005541D01*
X020372Y005536D01*
X020401Y005527D01*
X020428Y005515D01*
X020454Y005500D01*
X020478Y005481D01*
X020499Y005459D01*
X020517Y005435D01*
X020532Y005408D01*
X020543Y005380D01*
X020551Y005351D01*
X020555Y005321D01*
X020555Y005291D01*
X020551Y005261D01*
X020543Y005232D01*
X020532Y005204D01*
X020517Y005177D01*
X020499Y005153D01*
X020478Y005131D01*
X020454Y005112D01*
X020428Y005097D01*
X020401Y005085D01*
X020372Y005076D01*
X020342Y005071D01*
X020311Y005070D01*
X020281Y005073D01*
X020252Y005080D01*
X020223Y005090D01*
X020197Y005104D01*
X020172Y005121D01*
X020149Y005142D01*
X020130Y005165D01*
X020113Y005190D01*
X020100Y005217D01*
X020091Y005246D01*
X020085Y005276D01*
X020083Y005306D01*
X022839Y005306D02*
X022841Y005336D01*
X022847Y005366D01*
X022856Y005395D01*
X022869Y005422D01*
X022886Y005447D01*
X022905Y005470D01*
X022928Y005491D01*
X022953Y005508D01*
X022979Y005522D01*
X023008Y005532D01*
X023037Y005539D01*
X023067Y005542D01*
X023098Y005541D01*
X023128Y005536D01*
X023157Y005527D01*
X023184Y005515D01*
X023210Y005500D01*
X023234Y005481D01*
X023255Y005459D01*
X023273Y005435D01*
X023288Y005408D01*
X023299Y005380D01*
X023307Y005351D01*
X023311Y005321D01*
X023311Y005291D01*
X023307Y005261D01*
X023299Y005232D01*
X023288Y005204D01*
X023273Y005177D01*
X023255Y005153D01*
X023234Y005131D01*
X023210Y005112D01*
X023184Y005097D01*
X023157Y005085D01*
X023128Y005076D01*
X023098Y005071D01*
X023067Y005070D01*
X023037Y005073D01*
X023008Y005080D01*
X022979Y005090D01*
X022953Y005104D01*
X022928Y005121D01*
X022905Y005142D01*
X022886Y005165D01*
X022869Y005190D01*
X022856Y005217D01*
X022847Y005246D01*
X022841Y005276D01*
X022839Y005306D01*
X022839Y008377D02*
X022841Y008407D01*
X022847Y008437D01*
X022856Y008466D01*
X022869Y008493D01*
X022886Y008518D01*
X022905Y008541D01*
X022928Y008562D01*
X022953Y008579D01*
X022979Y008593D01*
X023008Y008603D01*
X023037Y008610D01*
X023067Y008613D01*
X023098Y008612D01*
X023128Y008607D01*
X023157Y008598D01*
X023184Y008586D01*
X023210Y008571D01*
X023234Y008552D01*
X023255Y008530D01*
X023273Y008506D01*
X023288Y008479D01*
X023299Y008451D01*
X023307Y008422D01*
X023311Y008392D01*
X023311Y008362D01*
X023307Y008332D01*
X023299Y008303D01*
X023288Y008275D01*
X023273Y008248D01*
X023255Y008224D01*
X023234Y008202D01*
X023210Y008183D01*
X023184Y008168D01*
X023157Y008156D01*
X023128Y008147D01*
X023098Y008142D01*
X023067Y008141D01*
X023037Y008144D01*
X023008Y008151D01*
X022979Y008161D01*
X022953Y008175D01*
X022928Y008192D01*
X022905Y008213D01*
X022886Y008236D01*
X022869Y008261D01*
X022856Y008288D01*
X022847Y008317D01*
X022841Y008347D01*
X022839Y008377D01*
X020083Y008377D02*
X020085Y008407D01*
X020091Y008437D01*
X020100Y008466D01*
X020113Y008493D01*
X020130Y008518D01*
X020149Y008541D01*
X020172Y008562D01*
X020197Y008579D01*
X020223Y008593D01*
X020252Y008603D01*
X020281Y008610D01*
X020311Y008613D01*
X020342Y008612D01*
X020372Y008607D01*
X020401Y008598D01*
X020428Y008586D01*
X020454Y008571D01*
X020478Y008552D01*
X020499Y008530D01*
X020517Y008506D01*
X020532Y008479D01*
X020543Y008451D01*
X020551Y008422D01*
X020555Y008392D01*
X020555Y008362D01*
X020551Y008332D01*
X020543Y008303D01*
X020532Y008275D01*
X020517Y008248D01*
X020499Y008224D01*
X020478Y008202D01*
X020454Y008183D01*
X020428Y008168D01*
X020401Y008156D01*
X020372Y008147D01*
X020342Y008142D01*
X020311Y008141D01*
X020281Y008144D01*
X020252Y008151D01*
X020223Y008161D01*
X020197Y008175D01*
X020172Y008192D01*
X020149Y008213D01*
X020130Y008236D01*
X020113Y008261D01*
X020100Y008288D01*
X020091Y008317D01*
X020085Y008347D01*
X020083Y008377D01*
X027658Y008377D02*
X027660Y008407D01*
X027666Y008437D01*
X027675Y008466D01*
X027688Y008493D01*
X027705Y008518D01*
X027724Y008541D01*
X027747Y008562D01*
X027772Y008579D01*
X027798Y008593D01*
X027827Y008603D01*
X027856Y008610D01*
X027886Y008613D01*
X027917Y008612D01*
X027947Y008607D01*
X027976Y008598D01*
X028003Y008586D01*
X028029Y008571D01*
X028053Y008552D01*
X028074Y008530D01*
X028092Y008506D01*
X028107Y008479D01*
X028118Y008451D01*
X028126Y008422D01*
X028130Y008392D01*
X028130Y008362D01*
X028126Y008332D01*
X028118Y008303D01*
X028107Y008275D01*
X028092Y008248D01*
X028074Y008224D01*
X028053Y008202D01*
X028029Y008183D01*
X028003Y008168D01*
X027976Y008156D01*
X027947Y008147D01*
X027917Y008142D01*
X027886Y008141D01*
X027856Y008144D01*
X027827Y008151D01*
X027798Y008161D01*
X027772Y008175D01*
X027747Y008192D01*
X027724Y008213D01*
X027705Y008236D01*
X027688Y008261D01*
X027675Y008288D01*
X027666Y008317D01*
X027660Y008347D01*
X027658Y008377D01*
X030413Y008377D02*
X030415Y008407D01*
X030421Y008437D01*
X030430Y008466D01*
X030443Y008493D01*
X030460Y008518D01*
X030479Y008541D01*
X030502Y008562D01*
X030527Y008579D01*
X030553Y008593D01*
X030582Y008603D01*
X030611Y008610D01*
X030641Y008613D01*
X030672Y008612D01*
X030702Y008607D01*
X030731Y008598D01*
X030758Y008586D01*
X030784Y008571D01*
X030808Y008552D01*
X030829Y008530D01*
X030847Y008506D01*
X030862Y008479D01*
X030873Y008451D01*
X030881Y008422D01*
X030885Y008392D01*
X030885Y008362D01*
X030881Y008332D01*
X030873Y008303D01*
X030862Y008275D01*
X030847Y008248D01*
X030829Y008224D01*
X030808Y008202D01*
X030784Y008183D01*
X030758Y008168D01*
X030731Y008156D01*
X030702Y008147D01*
X030672Y008142D01*
X030641Y008141D01*
X030611Y008144D01*
X030582Y008151D01*
X030553Y008161D01*
X030527Y008175D01*
X030502Y008192D01*
X030479Y008213D01*
X030460Y008236D01*
X030443Y008261D01*
X030430Y008288D01*
X030421Y008317D01*
X030415Y008347D01*
X030413Y008377D01*
X030413Y005306D02*
X030415Y005336D01*
X030421Y005366D01*
X030430Y005395D01*
X030443Y005422D01*
X030460Y005447D01*
X030479Y005470D01*
X030502Y005491D01*
X030527Y005508D01*
X030553Y005522D01*
X030582Y005532D01*
X030611Y005539D01*
X030641Y005542D01*
X030672Y005541D01*
X030702Y005536D01*
X030731Y005527D01*
X030758Y005515D01*
X030784Y005500D01*
X030808Y005481D01*
X030829Y005459D01*
X030847Y005435D01*
X030862Y005408D01*
X030873Y005380D01*
X030881Y005351D01*
X030885Y005321D01*
X030885Y005291D01*
X030881Y005261D01*
X030873Y005232D01*
X030862Y005204D01*
X030847Y005177D01*
X030829Y005153D01*
X030808Y005131D01*
X030784Y005112D01*
X030758Y005097D01*
X030731Y005085D01*
X030702Y005076D01*
X030672Y005071D01*
X030641Y005070D01*
X030611Y005073D01*
X030582Y005080D01*
X030553Y005090D01*
X030527Y005104D01*
X030502Y005121D01*
X030479Y005142D01*
X030460Y005165D01*
X030443Y005190D01*
X030430Y005217D01*
X030421Y005246D01*
X030415Y005276D01*
X030413Y005306D01*
X027658Y005306D02*
X027660Y005336D01*
X027666Y005366D01*
X027675Y005395D01*
X027688Y005422D01*
X027705Y005447D01*
X027724Y005470D01*
X027747Y005491D01*
X027772Y005508D01*
X027798Y005522D01*
X027827Y005532D01*
X027856Y005539D01*
X027886Y005542D01*
X027917Y005541D01*
X027947Y005536D01*
X027976Y005527D01*
X028003Y005515D01*
X028029Y005500D01*
X028053Y005481D01*
X028074Y005459D01*
X028092Y005435D01*
X028107Y005408D01*
X028118Y005380D01*
X028126Y005351D01*
X028130Y005321D01*
X028130Y005291D01*
X028126Y005261D01*
X028118Y005232D01*
X028107Y005204D01*
X028092Y005177D01*
X028074Y005153D01*
X028053Y005131D01*
X028029Y005112D01*
X028003Y005097D01*
X027976Y005085D01*
X027947Y005076D01*
X027917Y005071D01*
X027886Y005070D01*
X027856Y005073D01*
X027827Y005080D01*
X027798Y005090D01*
X027772Y005104D01*
X027747Y005121D01*
X027724Y005142D01*
X027705Y005165D01*
X027688Y005190D01*
X027675Y005217D01*
X027666Y005246D01*
X027660Y005276D01*
X027658Y005306D01*
X035232Y005306D02*
X035234Y005336D01*
X035240Y005366D01*
X035249Y005395D01*
X035262Y005422D01*
X035279Y005447D01*
X035298Y005470D01*
X035321Y005491D01*
X035346Y005508D01*
X035372Y005522D01*
X035401Y005532D01*
X035430Y005539D01*
X035460Y005542D01*
X035491Y005541D01*
X035521Y005536D01*
X035550Y005527D01*
X035577Y005515D01*
X035603Y005500D01*
X035627Y005481D01*
X035648Y005459D01*
X035666Y005435D01*
X035681Y005408D01*
X035692Y005380D01*
X035700Y005351D01*
X035704Y005321D01*
X035704Y005291D01*
X035700Y005261D01*
X035692Y005232D01*
X035681Y005204D01*
X035666Y005177D01*
X035648Y005153D01*
X035627Y005131D01*
X035603Y005112D01*
X035577Y005097D01*
X035550Y005085D01*
X035521Y005076D01*
X035491Y005071D01*
X035460Y005070D01*
X035430Y005073D01*
X035401Y005080D01*
X035372Y005090D01*
X035346Y005104D01*
X035321Y005121D01*
X035298Y005142D01*
X035279Y005165D01*
X035262Y005190D01*
X035249Y005217D01*
X035240Y005246D01*
X035234Y005276D01*
X035232Y005306D01*
X037988Y005306D02*
X037990Y005336D01*
X037996Y005366D01*
X038005Y005395D01*
X038018Y005422D01*
X038035Y005447D01*
X038054Y005470D01*
X038077Y005491D01*
X038102Y005508D01*
X038128Y005522D01*
X038157Y005532D01*
X038186Y005539D01*
X038216Y005542D01*
X038247Y005541D01*
X038277Y005536D01*
X038306Y005527D01*
X038333Y005515D01*
X038359Y005500D01*
X038383Y005481D01*
X038404Y005459D01*
X038422Y005435D01*
X038437Y005408D01*
X038448Y005380D01*
X038456Y005351D01*
X038460Y005321D01*
X038460Y005291D01*
X038456Y005261D01*
X038448Y005232D01*
X038437Y005204D01*
X038422Y005177D01*
X038404Y005153D01*
X038383Y005131D01*
X038359Y005112D01*
X038333Y005097D01*
X038306Y005085D01*
X038277Y005076D01*
X038247Y005071D01*
X038216Y005070D01*
X038186Y005073D01*
X038157Y005080D01*
X038128Y005090D01*
X038102Y005104D01*
X038077Y005121D01*
X038054Y005142D01*
X038035Y005165D01*
X038018Y005190D01*
X038005Y005217D01*
X037996Y005246D01*
X037990Y005276D01*
X037988Y005306D01*
X037988Y008377D02*
X037990Y008407D01*
X037996Y008437D01*
X038005Y008466D01*
X038018Y008493D01*
X038035Y008518D01*
X038054Y008541D01*
X038077Y008562D01*
X038102Y008579D01*
X038128Y008593D01*
X038157Y008603D01*
X038186Y008610D01*
X038216Y008613D01*
X038247Y008612D01*
X038277Y008607D01*
X038306Y008598D01*
X038333Y008586D01*
X038359Y008571D01*
X038383Y008552D01*
X038404Y008530D01*
X038422Y008506D01*
X038437Y008479D01*
X038448Y008451D01*
X038456Y008422D01*
X038460Y008392D01*
X038460Y008362D01*
X038456Y008332D01*
X038448Y008303D01*
X038437Y008275D01*
X038422Y008248D01*
X038404Y008224D01*
X038383Y008202D01*
X038359Y008183D01*
X038333Y008168D01*
X038306Y008156D01*
X038277Y008147D01*
X038247Y008142D01*
X038216Y008141D01*
X038186Y008144D01*
X038157Y008151D01*
X038128Y008161D01*
X038102Y008175D01*
X038077Y008192D01*
X038054Y008213D01*
X038035Y008236D01*
X038018Y008261D01*
X038005Y008288D01*
X037996Y008317D01*
X037990Y008347D01*
X037988Y008377D01*
X035232Y008377D02*
X035234Y008407D01*
X035240Y008437D01*
X035249Y008466D01*
X035262Y008493D01*
X035279Y008518D01*
X035298Y008541D01*
X035321Y008562D01*
X035346Y008579D01*
X035372Y008593D01*
X035401Y008603D01*
X035430Y008610D01*
X035460Y008613D01*
X035491Y008612D01*
X035521Y008607D01*
X035550Y008598D01*
X035577Y008586D01*
X035603Y008571D01*
X035627Y008552D01*
X035648Y008530D01*
X035666Y008506D01*
X035681Y008479D01*
X035692Y008451D01*
X035700Y008422D01*
X035704Y008392D01*
X035704Y008362D01*
X035700Y008332D01*
X035692Y008303D01*
X035681Y008275D01*
X035666Y008248D01*
X035648Y008224D01*
X035627Y008202D01*
X035603Y008183D01*
X035577Y008168D01*
X035550Y008156D01*
X035521Y008147D01*
X035491Y008142D01*
X035460Y008141D01*
X035430Y008144D01*
X035401Y008151D01*
X035372Y008161D01*
X035346Y008175D01*
X035321Y008192D01*
X035298Y008213D01*
X035279Y008236D01*
X035262Y008261D01*
X035249Y008288D01*
X035240Y008317D01*
X035234Y008347D01*
X035232Y008377D01*
X042049Y005298D02*
X042051Y005348D01*
X042057Y005398D01*
X042067Y005447D01*
X042081Y005495D01*
X042098Y005542D01*
X042119Y005587D01*
X042144Y005631D01*
X042172Y005672D01*
X042204Y005711D01*
X042238Y005748D01*
X042275Y005782D01*
X042315Y005812D01*
X042357Y005839D01*
X042401Y005863D01*
X042447Y005884D01*
X042494Y005900D01*
X042542Y005913D01*
X042592Y005922D01*
X042641Y005927D01*
X042692Y005928D01*
X042742Y005925D01*
X042791Y005918D01*
X042840Y005907D01*
X042888Y005892D01*
X042934Y005874D01*
X042979Y005852D01*
X043022Y005826D01*
X043063Y005797D01*
X043102Y005765D01*
X043138Y005730D01*
X043170Y005692D01*
X043200Y005652D01*
X043227Y005609D01*
X043250Y005565D01*
X043269Y005519D01*
X043285Y005471D01*
X043297Y005422D01*
X043305Y005373D01*
X043309Y005323D01*
X043309Y005273D01*
X043305Y005223D01*
X043297Y005174D01*
X043285Y005125D01*
X043269Y005077D01*
X043250Y005031D01*
X043227Y004987D01*
X043200Y004944D01*
X043170Y004904D01*
X043138Y004866D01*
X043102Y004831D01*
X043063Y004799D01*
X043022Y004770D01*
X042979Y004744D01*
X042934Y004722D01*
X042888Y004704D01*
X042840Y004689D01*
X042791Y004678D01*
X042742Y004671D01*
X042692Y004668D01*
X042641Y004669D01*
X042592Y004674D01*
X042542Y004683D01*
X042494Y004696D01*
X042447Y004712D01*
X042401Y004733D01*
X042357Y004757D01*
X042315Y004784D01*
X042275Y004814D01*
X042238Y004848D01*
X042204Y004885D01*
X042172Y004924D01*
X042144Y004965D01*
X042119Y005009D01*
X042098Y005054D01*
X042081Y005101D01*
X042067Y005149D01*
X042057Y005198D01*
X042051Y005248D01*
X042049Y005298D01*
X042049Y034432D02*
X042051Y034482D01*
X042057Y034532D01*
X042067Y034581D01*
X042081Y034629D01*
X042098Y034676D01*
X042119Y034721D01*
X042144Y034765D01*
X042172Y034806D01*
X042204Y034845D01*
X042238Y034882D01*
X042275Y034916D01*
X042315Y034946D01*
X042357Y034973D01*
X042401Y034997D01*
X042447Y035018D01*
X042494Y035034D01*
X042542Y035047D01*
X042592Y035056D01*
X042641Y035061D01*
X042692Y035062D01*
X042742Y035059D01*
X042791Y035052D01*
X042840Y035041D01*
X042888Y035026D01*
X042934Y035008D01*
X042979Y034986D01*
X043022Y034960D01*
X043063Y034931D01*
X043102Y034899D01*
X043138Y034864D01*
X043170Y034826D01*
X043200Y034786D01*
X043227Y034743D01*
X043250Y034699D01*
X043269Y034653D01*
X043285Y034605D01*
X043297Y034556D01*
X043305Y034507D01*
X043309Y034457D01*
X043309Y034407D01*
X043305Y034357D01*
X043297Y034308D01*
X043285Y034259D01*
X043269Y034211D01*
X043250Y034165D01*
X043227Y034121D01*
X043200Y034078D01*
X043170Y034038D01*
X043138Y034000D01*
X043102Y033965D01*
X043063Y033933D01*
X043022Y033904D01*
X042979Y033878D01*
X042934Y033856D01*
X042888Y033838D01*
X042840Y033823D01*
X042791Y033812D01*
X042742Y033805D01*
X042692Y033802D01*
X042641Y033803D01*
X042592Y033808D01*
X042542Y033817D01*
X042494Y033830D01*
X042447Y033846D01*
X042401Y033867D01*
X042357Y033891D01*
X042315Y033918D01*
X042275Y033948D01*
X042238Y033982D01*
X042204Y034019D01*
X042172Y034058D01*
X042144Y034099D01*
X042119Y034143D01*
X042098Y034188D01*
X042081Y034235D01*
X042067Y034283D01*
X042057Y034332D01*
X042051Y034382D01*
X042049Y034432D01*
X005041Y034432D02*
X005043Y034482D01*
X005049Y034532D01*
X005059Y034581D01*
X005073Y034629D01*
X005090Y034676D01*
X005111Y034721D01*
X005136Y034765D01*
X005164Y034806D01*
X005196Y034845D01*
X005230Y034882D01*
X005267Y034916D01*
X005307Y034946D01*
X005349Y034973D01*
X005393Y034997D01*
X005439Y035018D01*
X005486Y035034D01*
X005534Y035047D01*
X005584Y035056D01*
X005633Y035061D01*
X005684Y035062D01*
X005734Y035059D01*
X005783Y035052D01*
X005832Y035041D01*
X005880Y035026D01*
X005926Y035008D01*
X005971Y034986D01*
X006014Y034960D01*
X006055Y034931D01*
X006094Y034899D01*
X006130Y034864D01*
X006162Y034826D01*
X006192Y034786D01*
X006219Y034743D01*
X006242Y034699D01*
X006261Y034653D01*
X006277Y034605D01*
X006289Y034556D01*
X006297Y034507D01*
X006301Y034457D01*
X006301Y034407D01*
X006297Y034357D01*
X006289Y034308D01*
X006277Y034259D01*
X006261Y034211D01*
X006242Y034165D01*
X006219Y034121D01*
X006192Y034078D01*
X006162Y034038D01*
X006130Y034000D01*
X006094Y033965D01*
X006055Y033933D01*
X006014Y033904D01*
X005971Y033878D01*
X005926Y033856D01*
X005880Y033838D01*
X005832Y033823D01*
X005783Y033812D01*
X005734Y033805D01*
X005684Y033802D01*
X005633Y033803D01*
X005584Y033808D01*
X005534Y033817D01*
X005486Y033830D01*
X005439Y033846D01*
X005393Y033867D01*
X005349Y033891D01*
X005307Y033918D01*
X005267Y033948D01*
X005230Y033982D01*
X005196Y034019D01*
X005164Y034058D01*
X005136Y034099D01*
X005111Y034143D01*
X005090Y034188D01*
X005073Y034235D01*
X005059Y034283D01*
X005049Y034332D01*
X005043Y034382D01*
X005041Y034432D01*
D11*
X005671Y034432D03*
X042679Y034432D03*
X042679Y005298D03*
X005671Y005298D03*
D12*
X020752Y006408D02*
X021539Y006408D01*
X021854Y005306D02*
X022642Y005306D01*
X023626Y007117D02*
X023626Y007904D01*
X028327Y006408D02*
X029114Y006408D01*
X029429Y005306D02*
X030216Y005306D01*
X031201Y007117D02*
X031201Y007904D01*
X035901Y006408D02*
X036689Y006408D01*
X037004Y005306D02*
X037791Y005306D01*
X038775Y007117D02*
X038775Y007904D01*
X009923Y024755D02*
X009923Y025542D01*
X007443Y025542D02*
X007443Y024755D01*
X008348Y023180D02*
X009136Y023180D01*
D13*
X020319Y008377D03*
X023075Y008377D03*
X023075Y005306D03*
X020319Y005306D03*
X027894Y005306D03*
X030649Y005306D03*
X030649Y008377D03*
X027894Y008377D03*
X035468Y008377D03*
X038224Y008377D03*
X038224Y005306D03*
X035468Y005306D03*
D14*
X035906Y013142D03*
X030733Y013142D03*
X027910Y013142D03*
X022737Y013142D03*
D15*
X023945Y014209D03*
X024930Y014209D03*
X025717Y014209D03*
X026701Y014209D03*
X031941Y014209D03*
X032926Y014209D03*
X033713Y014209D03*
X034697Y014209D03*
D16*
X020238Y026558D03*
X018270Y026558D03*
X012427Y032007D03*
X010262Y032007D03*
D17*
X026966Y027149D03*
X027931Y027149D03*
X028931Y027149D03*
X029931Y027149D03*
X030931Y027149D03*
X031931Y027149D03*
X032931Y027149D03*
X033931Y027149D03*
X034931Y027149D03*
X035931Y027149D03*
X036931Y027149D03*
X037931Y027149D03*
X038931Y027149D03*
X039931Y027149D03*
X040931Y027149D03*
X041931Y027149D03*
X026175Y011597D03*
X022175Y011597D03*
D18*
X020707Y020030D03*
X020510Y020030D03*
X020313Y020030D03*
X020116Y020030D03*
X019919Y020030D03*
X019722Y020030D03*
X019525Y020030D03*
X019329Y020030D03*
X019132Y020030D03*
X018935Y020030D03*
X018738Y020030D03*
X018541Y020030D03*
X018541Y023416D03*
X018738Y023416D03*
X018935Y023416D03*
X019132Y023416D03*
X019329Y023416D03*
X019525Y023416D03*
X019722Y023416D03*
X019919Y023416D03*
X020116Y023416D03*
X020313Y023416D03*
X020510Y023416D03*
X020707Y023416D03*
D19*
X021317Y022806D03*
X021317Y022609D03*
X021317Y022412D03*
X021317Y022215D03*
X021317Y022019D03*
X021317Y021822D03*
X021317Y021625D03*
X021317Y021428D03*
X021317Y021231D03*
X021317Y021034D03*
X021317Y020837D03*
X021317Y020641D03*
X017931Y020641D03*
X017931Y020837D03*
X017931Y021034D03*
X017931Y021231D03*
X017931Y021428D03*
X017931Y021625D03*
X017931Y021822D03*
X017931Y022019D03*
X017931Y022215D03*
X017931Y022412D03*
X017931Y022609D03*
X017931Y022806D03*
D20*
X009529Y027345D03*
X007325Y027345D03*
X011262Y033645D03*
X013466Y033645D03*
D21*
X016714Y034432D03*
X017462Y034432D03*
X027344Y030889D03*
X028092Y030889D03*
X031262Y029708D03*
X032049Y029708D03*
X037561Y031282D03*
X038348Y031282D03*
X040730Y030889D03*
X041478Y030889D03*
X041478Y029708D03*
X040730Y029708D03*
X040730Y028526D03*
X041478Y028526D03*
X023388Y024983D03*
X022600Y024983D03*
X022207Y023802D03*
X022994Y023802D03*
X016376Y019865D03*
X015588Y019865D03*
X015514Y018684D03*
X014726Y018684D03*
X012364Y012778D03*
X011577Y012778D03*
X013565Y005692D03*
X014313Y005692D03*
X015927Y005692D03*
X016675Y005692D03*
D22*
X032157Y028318D03*
X033752Y028318D03*
X036370Y028526D03*
X037964Y028526D03*
X031271Y031282D03*
X029677Y031282D03*
D23*
X017982Y028920D03*
X016982Y028920D03*
X016695Y026664D03*
X016695Y025664D03*
D24*
X014332Y025771D03*
X014332Y026558D03*
X012758Y024983D03*
X012758Y024196D03*
X011183Y024176D03*
X011183Y025003D03*
X011183Y025751D03*
X011183Y023428D03*
X005671Y027365D03*
X005671Y028113D03*
X011183Y028940D03*
X011183Y029688D03*
X011183Y030515D03*
X011183Y031263D03*
X012364Y029708D03*
X012364Y028920D03*
X023388Y030121D03*
X023388Y030869D03*
X023388Y031676D03*
X023388Y032463D03*
X026931Y032089D03*
X026931Y032837D03*
X028506Y026145D03*
X028506Y025397D03*
X025356Y025397D03*
X025356Y026145D03*
X031655Y021046D03*
X031655Y020259D03*
X029293Y020278D03*
X029293Y021026D03*
X025356Y017897D03*
X025356Y017109D03*
X025356Y016302D03*
X025356Y015554D03*
X024175Y015554D03*
X024175Y016302D03*
X024175Y017109D03*
X024175Y017897D03*
X026537Y016302D03*
X026537Y015554D03*
X027718Y015554D03*
X027718Y016302D03*
X030868Y016302D03*
X030868Y015554D03*
X032049Y015554D03*
X032049Y016302D03*
X033624Y016302D03*
X033624Y015554D03*
X034805Y015554D03*
X034805Y016302D03*
X021025Y016735D03*
X021025Y017483D03*
X019451Y016322D03*
X019451Y015534D03*
X016301Y015534D03*
X016301Y016322D03*
X009214Y013940D03*
X008427Y013940D03*
X007640Y013940D03*
X007640Y013192D03*
X008427Y013192D03*
X009214Y013192D03*
D25*
X020238Y028252D03*
X020238Y034432D03*
D26*
X026931Y026171D03*
X027331Y025371D03*
X026531Y025371D03*
X006031Y029714D03*
X005311Y029714D03*
X005671Y028914D03*
D27*
X014720Y034072D03*
X014720Y034792D03*
X015520Y034432D03*
X014732Y008060D03*
X014732Y007260D03*
X013932Y007660D03*
D28*
X033199Y029389D03*
X033199Y029889D03*
X033199Y030389D03*
X033199Y030889D03*
X035199Y030889D03*
X035199Y030389D03*
X035199Y029889D03*
X035199Y029389D03*
D29*
X034664Y032895D03*
X034664Y033395D03*
X034664Y033895D03*
X034664Y034395D03*
X036521Y034395D03*
X036521Y033895D03*
X036521Y033395D03*
X036521Y032895D03*
X038601Y032895D03*
X038601Y033395D03*
X038601Y033895D03*
X038601Y034395D03*
X032584Y034395D03*
X032584Y033895D03*
X032584Y033395D03*
X032584Y032895D03*
X030727Y032895D03*
X030727Y033395D03*
X030727Y033895D03*
X030727Y034395D03*
X028647Y034395D03*
X028647Y033895D03*
X028647Y033395D03*
X028647Y032895D03*
D30*
X014529Y031676D03*
D31*
X017403Y030778D03*
X017403Y032574D03*
D32*
X011183Y014009D03*
X011183Y006036D03*
D33*
X017994Y014845D03*
D34*
X018494Y017680D03*
X017494Y017680D03*
D35*
X009833Y017290D02*
X009233Y017290D01*
X009233Y016290D02*
X009833Y016290D01*
X009833Y015290D02*
X009233Y015290D01*
X006365Y012916D02*
X005765Y012916D01*
X005765Y011916D02*
X006365Y011916D01*
X006365Y010916D02*
X005765Y010916D01*
X005765Y009916D02*
X006365Y009916D01*
X006365Y008916D02*
X005765Y008916D01*
X005765Y007916D02*
X006365Y007916D01*
X009233Y018290D02*
X009833Y018290D01*
X009833Y019290D02*
X009233Y019290D01*
X009233Y020290D02*
X009833Y020290D01*
X009833Y021290D02*
X009233Y021290D01*
D36*
X037544Y012150D03*
X037544Y011480D03*
X037544Y010810D03*
X037544Y010140D03*
X037544Y009470D03*
D37*
X041164Y010810D03*
D38*
X032324Y010416D03*
X026144Y010416D03*
D39*
X024562Y018708D03*
X024562Y019448D03*
X025362Y019078D03*
D40*
X037455Y014747D03*
X038455Y014747D03*
X042285Y015247D03*
X042285Y014247D03*
D41*
X040947Y017540D03*
X040947Y018040D03*
X040947Y018540D03*
X040947Y019040D03*
X038899Y019040D03*
X038899Y018540D03*
X038899Y018040D03*
X038899Y017540D03*
X018506Y008804D03*
X018506Y008304D03*
X018506Y007804D03*
X018506Y007304D03*
X016458Y007304D03*
X016458Y007804D03*
X016458Y008304D03*
X016458Y008804D03*
D42*
X039431Y024235D03*
X040415Y024235D03*
D43*
X039923Y025613D03*
D44*
X030573Y021542D03*
X030573Y019762D03*
X028013Y019762D03*
X028013Y021542D03*
M02*
