%
M48
M72
T01C0.0236
T02C0.0315
T03C0.0320
T04C0.0354
T05C0.0394
T06C0.0400
T07C0.0472
T08C0.0709
T09C0.0906
T10C0.1260
%
T01
X7247Y7387
X10396Y10536
X11184Y10536
X8428Y11717
X8821Y13686
X9609Y14473
X12758Y16835
X15514Y19198
X16302Y18410
X17483Y16835
X17089Y16442
X17877Y15654
X18664Y15654
X20239Y16442
X19058Y17229
X21026Y19198
X21814Y18804
X22676Y18623
X22699Y18017
X22601Y16442
X22601Y16048
X18172Y13095
X17089Y12505
X21026Y9749
X24569Y6206
X24963Y6206
X25357Y6206
X31066Y13194
X31066Y17131
X31459Y17131
X31853Y17131
X30672Y17131
X30278Y17131
X28802Y17328
X28310Y17820
X27129Y18509
X27719Y19198
X29294Y19198
X32443Y20379
X33231Y18804
X34412Y22347
X36766Y21087
X37955Y18804
X38743Y15654
X38644Y12898
X38644Y12505
X38644Y12111
X38644Y11717
X35593Y12505
X36085Y7387
X36873Y7387
X37660Y7387
X38447Y7387
X38447Y6599
X37660Y6599
X37660Y5812
X36873Y5812
X36873Y6599
X36085Y6599
X36085Y5812
X36085Y5024
X36085Y4237
X36873Y4237
X37660Y4237
X38447Y4237
X38447Y5024
X37660Y5024
X36873Y5024
X38447Y5812
X27129Y16343
X24176Y21560
X21026Y21166
X20239Y20772
X19451Y20772
X18270Y19985
X20140Y22446
X16377Y23603
X16302Y25103
X15711Y25103
X15121Y25103
X13447Y25989
X13054Y25989
X10888Y26186
X11774Y28154
X11282Y28843
X11971Y30320
X11971Y30812
X11971Y31304
X11971Y31796
X10691Y30418
X8428Y29434
X10396Y23528
X11184Y23135
X9510Y22150
X9018Y21560
X12365Y20772
X13152Y20772
X13940Y21166
X15416Y28745
X16203Y28745
X16991Y28745
X28900Y27465
X30475Y27859
X31656Y28646
X30672Y29335
X33428Y29335
X34609Y27662
X34609Y26678
X31558Y25989
X36774Y29828
X36774Y30221
X36774Y30615
X13152Y5024
X12758Y5024
X12365Y5024
X11971Y5024
X11577Y5024
X4491Y21166
X4884Y21560
X3310Y23430
X2916Y23430
X2522Y23430
T02
X4841Y28609
X3660Y30499
X34314Y19394
X36282Y19394
T03
X34445Y4481
X33067Y2276
X31965Y3379
X26871Y4481
X25493Y2276
X24390Y3379
X19296Y4481
X17918Y2276
X16816Y3379
T04
X19616Y11180
X20600Y11180
X21387Y11180
X22371Y11180
X27611Y11180
X28596Y11180
X29383Y11180
X30367Y11180
T05
X30601Y24119
X31601Y24119
X32601Y24119
X33601Y24119
X34601Y24119
X35601Y24119
X36601Y24119
X37601Y24119
X29601Y24119
X28601Y24119
X27601Y24119
X26601Y24119
X25601Y24119
X24601Y24119
X23601Y24119
X22636Y24119
X9609Y11767
X9609Y3794
X6022Y30499
T06
X3310Y5674
X3310Y6674
X3310Y7674
X3310Y8674
X3310Y9674
X3310Y10674
X5203Y12261
X5203Y13261
X5203Y14261
X5203Y15261
X5203Y16261
X5203Y17261
X5203Y18261
X12940Y23135
X13940Y23135
X14940Y23135
X23683Y18513
X23683Y16733
X26243Y16733
X26243Y18513
T07
X6499Y21166
X2483Y21166
T08
X5932Y24745
X8097Y24745
T09
X18407Y10113
X23580Y10113
X26403Y10113
X31576Y10113
T10
X38349Y2269
X38349Y21560
X11184Y21560
X11184Y2269
M30
