G75*
G70*
%OFA0B0*%
%FSLAX24Y24*%
%IPPOS*%
%LPD*%
%AMOC8*
5,1,8,0,0,1.08239X$1,22.5*
%
%ADD10C,0.0000*%
%ADD11R,0.0098X0.0591*%
%ADD12R,0.0591X0.0098*%
%ADD13R,0.0709X0.1260*%
%ADD14R,0.0709X0.0945*%
%ADD15R,0.0512X0.0630*%
%ADD16R,0.1496X0.0551*%
%ADD17R,0.1575X0.0630*%
%ADD18R,0.0630X0.0512*%
%ADD19R,0.1150X0.1180*%
%ADD20R,0.0220X0.0520*%
%ADD21R,0.1260X0.0709*%
%ADD22R,0.0500X0.0250*%
%ADD23R,0.0600X0.0220*%
%ADD24R,0.1339X0.0984*%
%ADD25R,0.0394X0.0591*%
%ADD26R,0.3543X0.1969*%
%ADD27R,0.0520X0.0390*%
%ADD28R,0.1535X0.0630*%
%ADD29R,0.0236X0.0866*%
%ADD30R,0.0866X0.0236*%
%ADD31R,0.0520X0.0220*%
%ADD32R,0.0551X0.0551*%
%ADD33R,0.0984X0.0551*%
%ADD34R,0.0709X0.0866*%
%ADD35R,0.0472X0.0472*%
%ADD36R,0.3740X0.4098*%
%ADD37R,0.0420X0.0850*%
%ADD38R,0.1496X0.1102*%
%ADD39R,0.0460X0.0140*%
D10*
X001087Y001087D02*
X038883Y001087D01*
X038883Y001088D02*
X038937Y001090D01*
X038990Y001095D01*
X039043Y001104D01*
X039095Y001117D01*
X039147Y001133D01*
X039197Y001153D01*
X039245Y001176D01*
X039292Y001203D01*
X039337Y001232D01*
X039380Y001265D01*
X039420Y001300D01*
X039458Y001338D01*
X039493Y001378D01*
X039526Y001421D01*
X039555Y001466D01*
X039582Y001513D01*
X039605Y001561D01*
X039625Y001611D01*
X039641Y001663D01*
X039654Y001715D01*
X039663Y001768D01*
X039668Y001821D01*
X039670Y001875D01*
X039670Y031796D01*
X039668Y031850D01*
X039663Y031903D01*
X039654Y031956D01*
X039641Y032008D01*
X039625Y032060D01*
X039605Y032110D01*
X039582Y032158D01*
X039555Y032205D01*
X039526Y032250D01*
X039493Y032293D01*
X039458Y032333D01*
X039420Y032371D01*
X039380Y032406D01*
X039337Y032439D01*
X039292Y032468D01*
X039245Y032495D01*
X039197Y032518D01*
X039147Y032538D01*
X039095Y032554D01*
X039043Y032567D01*
X038990Y032576D01*
X038937Y032581D01*
X038883Y032583D01*
X001087Y032583D01*
X001033Y032581D01*
X000980Y032576D01*
X000927Y032567D01*
X000875Y032554D01*
X000823Y032538D01*
X000773Y032518D01*
X000725Y032495D01*
X000678Y032468D01*
X000633Y032439D01*
X000590Y032406D01*
X000550Y032371D01*
X000512Y032333D01*
X000477Y032293D01*
X000444Y032250D01*
X000415Y032205D01*
X000388Y032158D01*
X000365Y032110D01*
X000345Y032060D01*
X000329Y032008D01*
X000316Y031956D01*
X000307Y031903D01*
X000302Y031850D01*
X000300Y031796D01*
X000300Y001875D01*
X000302Y001821D01*
X000307Y001768D01*
X000316Y001715D01*
X000329Y001663D01*
X000345Y001611D01*
X000365Y001561D01*
X000388Y001513D01*
X000415Y001466D01*
X000444Y001421D01*
X000477Y001378D01*
X000512Y001338D01*
X000550Y001300D01*
X000590Y001265D01*
X000633Y001232D01*
X000678Y001203D01*
X000725Y001176D01*
X000773Y001153D01*
X000823Y001133D01*
X000875Y001117D01*
X000927Y001104D01*
X000980Y001095D01*
X001033Y001090D01*
X001087Y001088D01*
X000851Y002269D02*
X000853Y002319D01*
X000859Y002369D01*
X000869Y002418D01*
X000883Y002466D01*
X000900Y002513D01*
X000921Y002558D01*
X000946Y002602D01*
X000974Y002643D01*
X001006Y002682D01*
X001040Y002719D01*
X001077Y002753D01*
X001117Y002783D01*
X001159Y002810D01*
X001203Y002834D01*
X001249Y002855D01*
X001296Y002871D01*
X001344Y002884D01*
X001394Y002893D01*
X001443Y002898D01*
X001494Y002899D01*
X001544Y002896D01*
X001593Y002889D01*
X001642Y002878D01*
X001690Y002863D01*
X001736Y002845D01*
X001781Y002823D01*
X001824Y002797D01*
X001865Y002768D01*
X001904Y002736D01*
X001940Y002701D01*
X001972Y002663D01*
X002002Y002623D01*
X002029Y002580D01*
X002052Y002536D01*
X002071Y002490D01*
X002087Y002442D01*
X002099Y002393D01*
X002107Y002344D01*
X002111Y002294D01*
X002111Y002244D01*
X002107Y002194D01*
X002099Y002145D01*
X002087Y002096D01*
X002071Y002048D01*
X002052Y002002D01*
X002029Y001958D01*
X002002Y001915D01*
X001972Y001875D01*
X001940Y001837D01*
X001904Y001802D01*
X001865Y001770D01*
X001824Y001741D01*
X001781Y001715D01*
X001736Y001693D01*
X001690Y001675D01*
X001642Y001660D01*
X001593Y001649D01*
X001544Y001642D01*
X001494Y001639D01*
X001443Y001640D01*
X001394Y001645D01*
X001344Y001654D01*
X001296Y001667D01*
X001249Y001683D01*
X001203Y001704D01*
X001159Y001728D01*
X001117Y001755D01*
X001077Y001785D01*
X001040Y001819D01*
X001006Y001856D01*
X000974Y001895D01*
X000946Y001936D01*
X000921Y001980D01*
X000900Y002025D01*
X000883Y002072D01*
X000869Y002120D01*
X000859Y002169D01*
X000853Y002219D01*
X000851Y002269D01*
X000851Y022347D02*
X000853Y022397D01*
X000859Y022447D01*
X000869Y022496D01*
X000883Y022544D01*
X000900Y022591D01*
X000921Y022636D01*
X000946Y022680D01*
X000974Y022721D01*
X001006Y022760D01*
X001040Y022797D01*
X001077Y022831D01*
X001117Y022861D01*
X001159Y022888D01*
X001203Y022912D01*
X001249Y022933D01*
X001296Y022949D01*
X001344Y022962D01*
X001394Y022971D01*
X001443Y022976D01*
X001494Y022977D01*
X001544Y022974D01*
X001593Y022967D01*
X001642Y022956D01*
X001690Y022941D01*
X001736Y022923D01*
X001781Y022901D01*
X001824Y022875D01*
X001865Y022846D01*
X001904Y022814D01*
X001940Y022779D01*
X001972Y022741D01*
X002002Y022701D01*
X002029Y022658D01*
X002052Y022614D01*
X002071Y022568D01*
X002087Y022520D01*
X002099Y022471D01*
X002107Y022422D01*
X002111Y022372D01*
X002111Y022322D01*
X002107Y022272D01*
X002099Y022223D01*
X002087Y022174D01*
X002071Y022126D01*
X002052Y022080D01*
X002029Y022036D01*
X002002Y021993D01*
X001972Y021953D01*
X001940Y021915D01*
X001904Y021880D01*
X001865Y021848D01*
X001824Y021819D01*
X001781Y021793D01*
X001736Y021771D01*
X001690Y021753D01*
X001642Y021738D01*
X001593Y021727D01*
X001544Y021720D01*
X001494Y021717D01*
X001443Y021718D01*
X001394Y021723D01*
X001344Y021732D01*
X001296Y021745D01*
X001249Y021761D01*
X001203Y021782D01*
X001159Y021806D01*
X001117Y021833D01*
X001077Y021863D01*
X001040Y021897D01*
X001006Y021934D01*
X000974Y021973D01*
X000946Y022014D01*
X000921Y022058D01*
X000900Y022103D01*
X000883Y022150D01*
X000869Y022198D01*
X000859Y022247D01*
X000853Y022297D01*
X000851Y022347D01*
X028016Y022347D02*
X028018Y022397D01*
X028024Y022447D01*
X028034Y022496D01*
X028048Y022544D01*
X028065Y022591D01*
X028086Y022636D01*
X028111Y022680D01*
X028139Y022721D01*
X028171Y022760D01*
X028205Y022797D01*
X028242Y022831D01*
X028282Y022861D01*
X028324Y022888D01*
X028368Y022912D01*
X028414Y022933D01*
X028461Y022949D01*
X028509Y022962D01*
X028559Y022971D01*
X028608Y022976D01*
X028659Y022977D01*
X028709Y022974D01*
X028758Y022967D01*
X028807Y022956D01*
X028855Y022941D01*
X028901Y022923D01*
X028946Y022901D01*
X028989Y022875D01*
X029030Y022846D01*
X029069Y022814D01*
X029105Y022779D01*
X029137Y022741D01*
X029167Y022701D01*
X029194Y022658D01*
X029217Y022614D01*
X029236Y022568D01*
X029252Y022520D01*
X029264Y022471D01*
X029272Y022422D01*
X029276Y022372D01*
X029276Y022322D01*
X029272Y022272D01*
X029264Y022223D01*
X029252Y022174D01*
X029236Y022126D01*
X029217Y022080D01*
X029194Y022036D01*
X029167Y021993D01*
X029137Y021953D01*
X029105Y021915D01*
X029069Y021880D01*
X029030Y021848D01*
X028989Y021819D01*
X028946Y021793D01*
X028901Y021771D01*
X028855Y021753D01*
X028807Y021738D01*
X028758Y021727D01*
X028709Y021720D01*
X028659Y021717D01*
X028608Y021718D01*
X028559Y021723D01*
X028509Y021732D01*
X028461Y021745D01*
X028414Y021761D01*
X028368Y021782D01*
X028324Y021806D01*
X028282Y021833D01*
X028242Y021863D01*
X028205Y021897D01*
X028171Y021934D01*
X028139Y021973D01*
X028111Y022014D01*
X028086Y022058D01*
X028065Y022103D01*
X028048Y022150D01*
X028034Y022198D01*
X028024Y022247D01*
X028018Y022297D01*
X028016Y022347D01*
X028016Y002269D02*
X028018Y002319D01*
X028024Y002369D01*
X028034Y002418D01*
X028048Y002466D01*
X028065Y002513D01*
X028086Y002558D01*
X028111Y002602D01*
X028139Y002643D01*
X028171Y002682D01*
X028205Y002719D01*
X028242Y002753D01*
X028282Y002783D01*
X028324Y002810D01*
X028368Y002834D01*
X028414Y002855D01*
X028461Y002871D01*
X028509Y002884D01*
X028559Y002893D01*
X028608Y002898D01*
X028659Y002899D01*
X028709Y002896D01*
X028758Y002889D01*
X028807Y002878D01*
X028855Y002863D01*
X028901Y002845D01*
X028946Y002823D01*
X028989Y002797D01*
X029030Y002768D01*
X029069Y002736D01*
X029105Y002701D01*
X029137Y002663D01*
X029167Y002623D01*
X029194Y002580D01*
X029217Y002536D01*
X029236Y002490D01*
X029252Y002442D01*
X029264Y002393D01*
X029272Y002344D01*
X029276Y002294D01*
X029276Y002244D01*
X029272Y002194D01*
X029264Y002145D01*
X029252Y002096D01*
X029236Y002048D01*
X029217Y002002D01*
X029194Y001958D01*
X029167Y001915D01*
X029137Y001875D01*
X029105Y001837D01*
X029069Y001802D01*
X029030Y001770D01*
X028989Y001741D01*
X028946Y001715D01*
X028901Y001693D01*
X028855Y001675D01*
X028807Y001660D01*
X028758Y001649D01*
X028709Y001642D01*
X028659Y001639D01*
X028608Y001640D01*
X028559Y001645D01*
X028509Y001654D01*
X028461Y001667D01*
X028414Y001683D01*
X028368Y001704D01*
X028324Y001728D01*
X028282Y001755D01*
X028242Y001785D01*
X028205Y001819D01*
X028171Y001856D01*
X028139Y001895D01*
X028111Y001936D01*
X028086Y001980D01*
X028065Y002025D01*
X028048Y002072D01*
X028034Y002120D01*
X028024Y002169D01*
X028018Y002219D01*
X028016Y002269D01*
D11*
X016517Y017001D03*
X016320Y017001D03*
X016123Y017001D03*
X015926Y017001D03*
X015729Y017001D03*
X015532Y017001D03*
X015335Y017001D03*
X015139Y017001D03*
X014942Y017001D03*
X014745Y017001D03*
X014548Y017001D03*
X014351Y017001D03*
X014351Y020387D03*
X014548Y020387D03*
X014745Y020387D03*
X014942Y020387D03*
X015139Y020387D03*
X015335Y020387D03*
X015532Y020387D03*
X015729Y020387D03*
X015926Y020387D03*
X016123Y020387D03*
X016320Y020387D03*
X016517Y020387D03*
D12*
X017127Y019776D03*
X017127Y019580D03*
X017127Y019383D03*
X017127Y019186D03*
X017127Y018989D03*
X017127Y018792D03*
X017127Y018595D03*
X017127Y018398D03*
X017127Y018202D03*
X017127Y018005D03*
X017127Y017808D03*
X017127Y017611D03*
X013741Y017611D03*
X013741Y017808D03*
X013741Y018005D03*
X013741Y018202D03*
X013741Y018398D03*
X013741Y018595D03*
X013741Y018792D03*
X013741Y018989D03*
X013741Y019186D03*
X013741Y019383D03*
X013741Y019580D03*
X013741Y019776D03*
D13*
X009670Y029729D03*
X007465Y029729D03*
D14*
X035723Y028253D03*
X037318Y028253D03*
X037318Y025497D03*
X035723Y025497D03*
D15*
X036127Y027072D03*
X036914Y027072D03*
X026284Y031796D03*
X025497Y031796D03*
X024690Y031796D03*
X023942Y031796D03*
X020359Y023135D03*
X019611Y023135D03*
X019198Y021954D03*
X018410Y021954D03*
X018017Y020772D03*
X018804Y020772D03*
X024709Y016442D03*
X025497Y016442D03*
X017603Y014080D03*
X016855Y014080D03*
X012186Y016835D03*
X011398Y016835D03*
X011324Y015654D03*
X010536Y015654D03*
X008942Y025891D03*
X008194Y025891D03*
X008194Y028253D03*
X008942Y028253D03*
X010950Y027072D03*
X011698Y027072D03*
X011737Y002662D03*
X012485Y002662D03*
X010123Y002662D03*
X009375Y002662D03*
D16*
X023135Y006599D03*
X025497Y006599D03*
X016048Y030221D03*
X013686Y030221D03*
D17*
X023312Y027072D03*
X026107Y027072D03*
D18*
X028253Y026658D03*
X028253Y025910D03*
X029828Y025910D03*
X029828Y026658D03*
X029828Y027879D03*
X029828Y028627D03*
X028253Y028627D03*
X028253Y027879D03*
X024709Y023115D03*
X024709Y022367D03*
X023528Y022367D03*
X023528Y023115D03*
X025103Y018391D03*
X025103Y017643D03*
X021166Y014867D03*
X021166Y014080D03*
X021166Y013272D03*
X021166Y012524D03*
X022347Y012524D03*
X022347Y013272D03*
X023528Y013272D03*
X023528Y012524D03*
X026678Y012524D03*
X026678Y013272D03*
X027859Y013272D03*
X027859Y012524D03*
X029434Y012524D03*
X029434Y013272D03*
X030615Y013272D03*
X030615Y012524D03*
X019985Y012524D03*
X019985Y013272D03*
X019985Y014080D03*
X019985Y014867D03*
X015261Y013292D03*
X015261Y012505D03*
X012111Y012505D03*
X012111Y013292D03*
X008174Y012898D03*
X008174Y012111D03*
X006599Y011304D03*
X006599Y010556D03*
X005418Y010556D03*
X005418Y011304D03*
X004237Y011304D03*
X004237Y010556D03*
X005418Y004217D03*
X005418Y003469D03*
X006599Y021580D03*
X006599Y022328D03*
X007780Y022328D03*
X007780Y021580D03*
X008961Y021560D03*
X008961Y022347D03*
X011717Y025517D03*
X011717Y026265D03*
X012898Y027072D03*
X012898Y027859D03*
X014080Y027839D03*
X014080Y027091D03*
X015261Y027091D03*
X015261Y027839D03*
X016442Y027859D03*
X016442Y027072D03*
X010930Y031028D03*
X010930Y031776D03*
X009749Y031796D03*
X009749Y031009D03*
X008961Y027465D03*
X008961Y026678D03*
X038489Y027859D03*
X038489Y028646D03*
D19*
X024316Y030221D03*
X018136Y030221D03*
D20*
X021954Y023141D03*
X022354Y022341D03*
X021554Y022341D03*
X008928Y031002D03*
X008208Y031002D03*
X008568Y031802D03*
D21*
X006993Y028174D03*
X006993Y025969D03*
D22*
X031796Y026678D03*
X031796Y027178D03*
X031796Y027678D03*
X031796Y028178D03*
X033796Y028178D03*
X033796Y027678D03*
X033796Y027178D03*
X033796Y026678D03*
D23*
X033118Y029865D03*
X033118Y030365D03*
X033118Y030865D03*
X033118Y031365D03*
X035198Y031365D03*
X035198Y030865D03*
X035198Y030365D03*
X035198Y029865D03*
X030868Y029865D03*
X030868Y030365D03*
X030868Y030865D03*
X030868Y031365D03*
X028788Y031365D03*
X028788Y030865D03*
X028788Y030365D03*
X028788Y029865D03*
D24*
X013804Y011816D03*
D25*
X014304Y014650D03*
X013304Y014650D03*
D26*
X035733Y017131D03*
X035733Y010241D03*
D27*
X021172Y016048D03*
X020372Y015678D03*
X020372Y016418D03*
D28*
X028918Y006501D03*
X032265Y006501D03*
D29*
X029396Y014631D03*
X028896Y014631D03*
X028396Y014631D03*
X027896Y014631D03*
X027896Y016678D03*
X028396Y016678D03*
X028896Y016678D03*
X029396Y016678D03*
D30*
X014316Y005774D03*
X014316Y005274D03*
X014316Y004774D03*
X014316Y004274D03*
X012269Y004274D03*
X012269Y004774D03*
X012269Y005274D03*
X012269Y005774D03*
D31*
X010936Y005031D03*
X010936Y004231D03*
X010136Y004631D03*
X025884Y022341D03*
X025884Y023141D03*
X026684Y022741D03*
D32*
X035241Y021206D03*
X036225Y021206D03*
D33*
X035733Y022583D03*
D34*
X019808Y027465D03*
X017800Y027465D03*
D35*
X004237Y004257D03*
X004237Y003430D03*
D36*
X037406Y003828D03*
D37*
X037406Y007108D03*
X038076Y007108D03*
X038746Y007108D03*
X036736Y007108D03*
X036066Y007108D03*
D38*
X031796Y015772D03*
X031796Y018686D03*
D39*
X010946Y027993D03*
X010946Y028253D03*
X010946Y028513D03*
X010126Y028513D03*
X010126Y028253D03*
X010126Y027993D03*
M02*
