G75*
G70*
%OFA0B0*%
%FSLAX24Y24*%
%IPPOS*%
%LPD*%
%AMOC8*
5,1,8,0,0,1.08239X$1,22.5*
%
%ADD10C,0.0000*%
%ADD11C,0.0110*%
%ADD12C,0.0150*%
%ADD13R,0.1260X0.0709*%
%ADD14R,0.0512X0.0630*%
%ADD15R,0.0709X0.0945*%
%ADD16OC8,0.0620*%
%ADD17R,0.0630X0.0512*%
%ADD18C,0.0700*%
%ADD19R,0.1180X0.1150*%
%ADD20R,0.0520X0.0220*%
%ADD21R,0.0500X0.0250*%
%ADD22R,0.0600X0.0220*%
%ADD23OC8,0.0812*%
%ADD24R,0.0460X0.0630*%
%ADD25C,0.0240*%
%ADD26C,0.0654*%
%ADD27C,0.0300*%
%ADD28C,0.0400*%
%ADD29C,0.0500*%
%ADD30C,0.0100*%
%ADD31C,0.0160*%
%ADD32C,0.0120*%
D10*
X000800Y001164D02*
X000800Y023692D01*
X000802Y023754D01*
X000808Y023815D01*
X000817Y023876D01*
X000831Y023937D01*
X000848Y023996D01*
X000869Y024054D01*
X000894Y024111D01*
X000922Y024166D01*
X000953Y024219D01*
X000988Y024270D01*
X001026Y024319D01*
X001067Y024366D01*
X001110Y024409D01*
X001157Y024450D01*
X001206Y024488D01*
X001257Y024523D01*
X001310Y024554D01*
X001365Y024582D01*
X001422Y024607D01*
X001480Y024628D01*
X001539Y024645D01*
X001600Y024659D01*
X001661Y024668D01*
X001722Y024674D01*
X001784Y024676D01*
X024186Y024676D01*
X024248Y024674D01*
X024309Y024668D01*
X024370Y024659D01*
X024431Y024645D01*
X024490Y024628D01*
X024548Y024607D01*
X024605Y024582D01*
X024660Y024554D01*
X024713Y024523D01*
X024764Y024488D01*
X024813Y024450D01*
X024860Y024409D01*
X024903Y024366D01*
X024944Y024319D01*
X024982Y024270D01*
X025017Y024219D01*
X025048Y024166D01*
X025076Y024111D01*
X025101Y024054D01*
X025122Y023996D01*
X025139Y023937D01*
X025153Y023876D01*
X025162Y023815D01*
X025168Y023754D01*
X025170Y023692D01*
X025170Y001164D01*
X025168Y001102D01*
X025162Y001041D01*
X025153Y000980D01*
X025139Y000919D01*
X025122Y000860D01*
X025101Y000802D01*
X025076Y000745D01*
X025048Y000690D01*
X025017Y000637D01*
X024982Y000586D01*
X024944Y000537D01*
X024903Y000490D01*
X024860Y000447D01*
X024813Y000406D01*
X024764Y000368D01*
X024713Y000333D01*
X024660Y000302D01*
X024605Y000274D01*
X024548Y000249D01*
X024490Y000228D01*
X024431Y000211D01*
X024370Y000197D01*
X024309Y000188D01*
X024248Y000182D01*
X024186Y000180D01*
X001784Y000180D01*
X001722Y000182D01*
X001661Y000188D01*
X001600Y000197D01*
X001539Y000211D01*
X001480Y000228D01*
X001422Y000249D01*
X001365Y000274D01*
X001310Y000302D01*
X001257Y000333D01*
X001206Y000368D01*
X001157Y000406D01*
X001110Y000447D01*
X001067Y000490D01*
X001026Y000537D01*
X000988Y000586D01*
X000953Y000637D01*
X000922Y000690D01*
X000894Y000745D01*
X000869Y000802D01*
X000848Y000860D01*
X000831Y000919D01*
X000817Y000980D01*
X000808Y001041D01*
X000802Y001102D01*
X000800Y001164D01*
D11*
X005052Y009833D02*
X005052Y010227D01*
X004855Y010030D02*
X005249Y010030D01*
X004745Y012235D02*
X004154Y012235D01*
X004154Y012530D01*
X004253Y012629D01*
X004351Y012629D01*
X004450Y012530D01*
X004450Y012235D01*
X004745Y012235D02*
X004745Y012530D01*
X004647Y012629D01*
X004548Y012629D01*
X004450Y012530D01*
X004450Y012880D02*
X004450Y013273D01*
X004351Y013273D02*
X004745Y013273D01*
X004351Y013273D02*
X004154Y013076D01*
X004351Y012880D01*
X004745Y012880D01*
X004154Y013524D02*
X004154Y013918D01*
X004154Y013721D02*
X004745Y013721D01*
X004745Y014365D02*
X004154Y014365D01*
X004154Y014169D02*
X004154Y014562D01*
X022654Y015333D02*
X022753Y015235D01*
X022851Y015235D01*
X022950Y015333D01*
X022950Y015530D01*
X023048Y015629D01*
X023147Y015629D01*
X023245Y015530D01*
X023245Y015333D01*
X023147Y015235D01*
X022753Y015629D02*
X022654Y015530D01*
X022654Y015333D01*
X022753Y015880D02*
X023147Y015880D01*
X023245Y015978D01*
X023245Y016175D01*
X023147Y016273D01*
X022753Y016273D01*
X022654Y016175D01*
X022654Y015978D01*
X022753Y015880D01*
X022654Y016524D02*
X023245Y016524D01*
X023245Y016918D01*
X024552Y015227D02*
X024552Y014833D01*
X024355Y015030D02*
X024749Y015030D01*
D12*
X020800Y015680D02*
X019674Y015680D01*
X019674Y014180D02*
X019800Y014180D01*
X019800Y013180D01*
X019800Y017180D02*
X019674Y017180D01*
X019800Y017180D02*
X020800Y017180D01*
X018926Y017180D02*
X018800Y017180D01*
X014003Y012680D02*
X013800Y012680D01*
X011300Y014180D02*
X011174Y014180D01*
X010426Y014180D02*
X010300Y014180D01*
X010300Y015680D02*
X010406Y015680D01*
X011194Y015680D02*
X011300Y015680D01*
X011300Y017180D02*
X011174Y017180D01*
X006300Y017554D02*
X006300Y018786D01*
X006300Y019574D02*
X006300Y019680D01*
X003300Y022680D02*
X003300Y023180D01*
X010003Y012180D02*
X010300Y012180D01*
X014674Y010180D02*
X014800Y010180D01*
X014800Y008680D01*
X014694Y008680D01*
X011800Y007680D02*
X011674Y007680D01*
X011674Y006180D02*
X011800Y006180D01*
X011800Y004680D02*
X011694Y004680D01*
X006426Y007680D02*
X006300Y007680D01*
X005300Y006180D02*
X005200Y006180D01*
X018300Y005680D02*
X018800Y006680D01*
X018674Y006680D01*
X018800Y006680D02*
X019900Y006680D01*
X023374Y006580D02*
X023516Y006438D01*
X023658Y006438D01*
X023800Y006580D01*
X023800Y006864D01*
X023941Y007005D01*
X024083Y007005D01*
X024225Y006864D01*
X024225Y006580D01*
X024083Y006438D01*
X024225Y006085D02*
X023374Y006085D01*
X023374Y006580D02*
X023374Y006864D01*
X023516Y007005D01*
X023374Y007359D02*
X024225Y007359D01*
X024225Y007926D01*
X023800Y007643D02*
X023800Y007359D01*
X023374Y007359D02*
X023374Y007926D01*
X024225Y006085D02*
X023374Y005517D01*
X024225Y005517D01*
X024225Y005164D02*
X024225Y004597D01*
X023374Y004597D01*
X023374Y005164D01*
X023800Y004880D02*
X023800Y004597D01*
X023941Y004243D02*
X024083Y004243D01*
X024225Y004101D01*
X024225Y003818D01*
X024083Y003676D01*
X023800Y003818D02*
X023800Y004101D01*
X023941Y004243D01*
X023516Y004243D02*
X023374Y004101D01*
X023374Y003818D01*
X023516Y003676D01*
X023658Y003676D01*
X023800Y003818D01*
X023800Y003322D02*
X023516Y003322D01*
X023374Y003180D01*
X023374Y002755D01*
X024225Y002755D01*
X023941Y002755D02*
X023941Y003180D01*
X023800Y003322D01*
X023941Y003039D02*
X024225Y003322D01*
D13*
X022300Y005578D03*
X022300Y007782D03*
X002800Y007282D03*
X002800Y005078D03*
D14*
X006426Y007680D03*
X007174Y007680D03*
X010926Y007680D03*
X011674Y007680D03*
X011674Y006180D03*
X010926Y006180D03*
X010906Y004680D03*
X011694Y004680D03*
X013906Y008680D03*
X014694Y008680D03*
X014674Y010180D03*
X013926Y010180D03*
X015926Y010180D03*
X016674Y010180D03*
X017926Y006680D03*
X018674Y006680D03*
X018926Y014180D03*
X019674Y014180D03*
X019674Y015680D03*
X018926Y015680D03*
X018926Y017180D03*
X019674Y017180D03*
X011174Y017180D03*
X010426Y017180D03*
X010406Y015680D03*
X011194Y015680D03*
X011174Y014180D03*
X010426Y014180D03*
D15*
X010003Y012180D03*
X011597Y012180D03*
X014003Y012680D03*
X015597Y012680D03*
X015597Y018680D03*
X014003Y018680D03*
D16*
X007300Y014680D03*
X006300Y014680D03*
X019800Y002180D03*
X019800Y001180D03*
D17*
X017300Y001286D03*
X017300Y002074D03*
X022300Y002074D03*
X022300Y001286D03*
X006300Y016806D03*
X006300Y017554D03*
X006300Y018786D03*
X006300Y019574D03*
D18*
X022950Y019180D02*
X023650Y019180D01*
X023650Y018180D02*
X022950Y018180D01*
X022950Y020180D02*
X023650Y020180D01*
X023650Y021180D02*
X022950Y021180D01*
X022950Y022180D02*
X023650Y022180D01*
X012300Y002030D02*
X012300Y001330D01*
X011300Y001330D02*
X011300Y002030D01*
X010300Y002030D02*
X010300Y001330D01*
X009300Y001330D02*
X009300Y002030D01*
X008300Y002030D02*
X008300Y001330D01*
D19*
X003300Y017000D03*
X003300Y023180D03*
D20*
X004400Y006540D03*
X004400Y005820D03*
X005200Y006180D03*
X019900Y006680D03*
X020700Y006320D03*
X020700Y007040D03*
D21*
X015800Y015180D03*
X015800Y015680D03*
X015800Y016180D03*
X015800Y016680D03*
X013800Y016680D03*
X013800Y016180D03*
X013800Y015680D03*
X013800Y015180D03*
D22*
X014340Y020930D03*
X014340Y021430D03*
X014340Y021930D03*
X014340Y022430D03*
X012260Y022430D03*
X012260Y021930D03*
X012260Y021430D03*
X012260Y020930D03*
X008840Y020930D03*
X008840Y021430D03*
X008840Y021930D03*
X008840Y022430D03*
X006760Y022430D03*
X006760Y021930D03*
X006760Y021430D03*
X006760Y020930D03*
X017260Y020930D03*
X017260Y021430D03*
X017260Y021930D03*
X017260Y022430D03*
X019340Y022430D03*
X019340Y021930D03*
X019340Y021430D03*
X019340Y020930D03*
D23*
X024111Y013204D03*
X024111Y010251D03*
X001989Y010656D03*
X001989Y013609D03*
D24*
X020000Y018680D03*
X020600Y018680D03*
D25*
X021800Y018680D01*
X020000Y018680D02*
X019800Y018480D01*
X019800Y017180D01*
X018800Y017180D02*
X017800Y016180D01*
X015800Y016180D01*
X015800Y015680D02*
X018926Y015680D01*
X018926Y014180D02*
X017800Y014180D01*
X015800Y014180D01*
X015800Y015180D01*
X015800Y014180D02*
X015800Y012680D01*
X013800Y012680D02*
X012300Y011180D01*
X009300Y011180D01*
X008300Y012180D01*
X008300Y014680D01*
X009300Y015680D01*
X010300Y015680D01*
X011300Y015680D02*
X011800Y016180D01*
X013800Y016180D01*
X013800Y015680D02*
X012800Y015680D01*
X011300Y014180D01*
X010426Y014180D02*
X009300Y014180D01*
X010300Y014180D02*
X010300Y012180D01*
X011597Y012180D02*
X011800Y012680D01*
X012300Y013180D01*
X012800Y013180D01*
X013800Y012680D02*
X013800Y015180D01*
X013800Y016680D02*
X013300Y017180D01*
X011300Y017180D01*
X013210Y019980D02*
X012260Y020930D01*
X012260Y021430D02*
X008800Y021430D01*
X008840Y021930D02*
X012260Y021930D01*
X012260Y022430D02*
X008840Y022430D01*
X006760Y020930D02*
X006720Y020970D01*
X006000Y020970D01*
X005800Y021170D01*
X005800Y021180D02*
X005300Y021680D01*
X005300Y022680D01*
X014300Y022180D02*
X014300Y021930D01*
X014300Y021430D01*
X014300Y021180D01*
X014340Y021180D01*
X014340Y020930D01*
X017260Y020930D01*
X017260Y021430D02*
X014340Y021430D01*
X014300Y021430D01*
X014300Y021930D02*
X014340Y021930D01*
X017260Y021930D01*
X017260Y022430D02*
X014340Y022430D01*
X014340Y022180D01*
X014300Y022180D01*
X019340Y021930D02*
X019340Y021430D01*
X019550Y021430D01*
X019340Y022430D02*
X020550Y022430D01*
X020800Y022680D01*
X015926Y010180D02*
X014800Y010180D01*
X014800Y008680D02*
X014800Y002680D01*
X014300Y002180D01*
X012300Y003180D02*
X011800Y003680D01*
X011800Y004680D01*
X011800Y006180D01*
X011800Y007680D01*
X010800Y007680D02*
X009030Y009450D01*
X007300Y008680D02*
X006300Y008680D01*
X006300Y007680D01*
X005300Y006680D01*
X005300Y006180D01*
X007300Y008680D02*
X008300Y007680D01*
X008300Y005180D01*
X010300Y003180D01*
X011300Y003180D01*
D26*
X011300Y003180D03*
X012300Y003180D03*
X014300Y002180D03*
X018300Y005680D03*
X021300Y010680D03*
X019800Y013180D03*
X020800Y015680D03*
X020800Y017180D03*
X020800Y022680D03*
X013210Y019930D03*
X009300Y017180D03*
X009300Y014180D03*
X012800Y013180D03*
X016800Y011180D03*
X009030Y009450D03*
X006300Y006680D03*
X002800Y008680D03*
X001800Y001180D03*
X005300Y022680D03*
X006300Y023680D03*
X007300Y023680D03*
X008300Y023680D03*
X024300Y002180D03*
X024300Y001180D03*
D27*
X022300Y007680D02*
X022300Y007782D01*
X016800Y010180D02*
X016674Y010180D01*
X016800Y010180D02*
X016800Y011180D01*
X010926Y007680D02*
X010800Y007680D01*
X002800Y005180D02*
X002800Y005078D01*
X003300Y016680D02*
X003300Y017000D01*
X006300Y016806D02*
X006300Y016680D01*
D28*
X003300Y016680D01*
X006300Y016680D02*
X006300Y014680D01*
X006300Y012180D01*
X009030Y009450D01*
D29*
X006300Y006680D02*
X006300Y005680D01*
X005300Y004680D01*
X004300Y004680D01*
X003800Y005180D01*
X003760Y005180D02*
X004400Y005820D01*
X004400Y006540D02*
X003620Y007320D01*
X002800Y007282D01*
X002800Y008680D01*
X002800Y005180D02*
X003760Y005180D01*
X016800Y002180D02*
X016800Y008180D01*
X017800Y009180D01*
X021800Y013180D01*
X021800Y018680D01*
X021800Y019180D01*
X019550Y021430D01*
X014003Y018680D02*
X008800Y018680D01*
X007800Y019680D01*
X006300Y019680D01*
X003300Y022680D01*
X008840Y022430D02*
X008840Y021930D01*
X008840Y021430D02*
X008840Y020930D01*
X008800Y020930D02*
X008800Y018680D01*
X017800Y014180D02*
X017800Y009180D01*
X020700Y007040D02*
X021300Y007640D01*
X021300Y007680D02*
X021300Y010680D01*
X021300Y007680D02*
X022300Y007680D01*
X020700Y006320D02*
X021480Y005540D01*
X022300Y005578D01*
X022300Y002180D01*
X019800Y002180D01*
X017300Y002180D01*
X016800Y002180D01*
D30*
X017300Y002180D02*
X017300Y002074D01*
X022300Y002074D02*
X022300Y002180D01*
X015800Y012680D02*
X015597Y012680D01*
X014800Y016180D02*
X013800Y016180D01*
X014800Y016180D02*
X014800Y018180D01*
X014300Y018680D01*
X014003Y018680D01*
X015300Y018680D02*
X015597Y018680D01*
X015537Y019180D02*
X015300Y019180D01*
X006800Y021680D02*
X006760Y021700D01*
X006800Y022180D02*
X006760Y022200D01*
X003800Y005180D02*
X003760Y005180D01*
D31*
X009300Y017180D02*
X010426Y017180D01*
X013210Y019930D02*
X013210Y019980D01*
X008840Y020930D02*
X008800Y020930D01*
X008800Y021430D02*
X008800Y021680D01*
X008840Y021680D01*
X008840Y021430D01*
X008840Y021930D01*
X005800Y021180D02*
X005800Y021170D01*
X019340Y021430D02*
X019340Y020930D01*
X021300Y007680D02*
X021300Y007640D01*
D32*
X020690Y007893D02*
X020264Y007467D01*
X020236Y007455D01*
X020135Y007354D01*
X020080Y007222D01*
X020080Y007150D01*
X019568Y007150D01*
X019484Y007115D01*
X019270Y007115D01*
X019235Y007199D01*
X019134Y007300D01*
X019002Y007355D01*
X018347Y007355D01*
X018214Y007300D01*
X018113Y007199D01*
X018095Y007155D01*
X017986Y007155D01*
X017986Y006740D01*
X017866Y006740D01*
X017866Y007155D01*
X017649Y007155D01*
X017608Y007144D01*
X017572Y007123D01*
X017542Y007093D01*
X017521Y007057D01*
X017510Y007016D01*
X017510Y006740D01*
X017866Y006740D01*
X017866Y006620D01*
X017510Y006620D01*
X017510Y006344D01*
X017521Y006303D01*
X017542Y006267D01*
X017572Y006237D01*
X017608Y006216D01*
X017649Y006205D01*
X017853Y006205D01*
X017717Y006069D01*
X017613Y005817D01*
X017613Y005543D01*
X017717Y005291D01*
X017911Y005097D01*
X018163Y004993D01*
X018437Y004993D01*
X018689Y005097D01*
X018883Y005291D01*
X018987Y005543D01*
X018987Y005817D01*
X018927Y005962D01*
X018949Y006005D01*
X019002Y006005D01*
X019134Y006060D01*
X019235Y006161D01*
X019270Y006245D01*
X019484Y006245D01*
X019568Y006210D01*
X020080Y006210D01*
X020080Y006138D01*
X020135Y006006D01*
X020236Y005905D01*
X020264Y005893D01*
X020973Y005184D01*
X020979Y005171D01*
X021059Y005099D01*
X021135Y005023D01*
X021148Y005017D01*
X021159Y005007D01*
X021260Y004971D01*
X021359Y004930D01*
X021373Y004930D01*
X021387Y004925D01*
X021456Y004928D01*
X021466Y004918D01*
X021598Y004863D01*
X021690Y004863D01*
X021690Y002790D01*
X020138Y002790D01*
X020078Y002850D01*
X019522Y002850D01*
X019462Y002790D01*
X017410Y002790D01*
X017410Y007927D01*
X018146Y008663D01*
X022317Y012834D01*
X022410Y013059D01*
X022410Y014991D01*
X022518Y014883D01*
X022617Y014842D01*
X022670Y014820D01*
X022934Y014820D01*
X022999Y014847D01*
X023064Y014820D01*
X023229Y014820D01*
X023382Y014883D01*
X023597Y015098D01*
X023660Y015251D01*
X023660Y015613D01*
X023601Y015754D01*
X023660Y015895D01*
X023660Y016257D01*
X023622Y016349D01*
X023660Y016442D01*
X023660Y017000D01*
X023597Y017153D01*
X023480Y017270D01*
X023328Y017333D01*
X023162Y017333D01*
X023010Y017270D01*
X022893Y017153D01*
X022830Y017000D01*
X022830Y016939D01*
X022572Y016939D01*
X022419Y016876D01*
X022410Y016866D01*
X022410Y017570D01*
X022567Y017570D01*
X022809Y017470D01*
X023791Y017470D01*
X024033Y017570D01*
X024346Y017570D01*
X024410Y017634D01*
X024410Y022726D01*
X024346Y022790D01*
X022254Y022790D01*
X022190Y022726D01*
X022190Y019653D01*
X022146Y019697D01*
X020000Y021843D01*
X020000Y021950D01*
X020645Y021950D01*
X020749Y021993D01*
X020937Y021993D01*
X021189Y022097D01*
X021383Y022291D01*
X021487Y022543D01*
X021487Y022817D01*
X021383Y023069D01*
X021189Y023263D01*
X020937Y023367D01*
X020663Y023367D01*
X020411Y023263D01*
X020217Y023069D01*
X020151Y022910D01*
X019245Y022910D01*
X019220Y022900D01*
X018968Y022900D01*
X018836Y022845D01*
X018735Y022744D01*
X018680Y022612D01*
X018680Y022248D01*
X018708Y022180D01*
X018680Y022112D01*
X018680Y021748D01*
X018708Y021680D01*
X018680Y021612D01*
X018680Y021248D01*
X018708Y021180D01*
X018680Y021112D01*
X018680Y020748D01*
X018735Y020616D01*
X018836Y020515D01*
X018968Y020460D01*
X019657Y020460D01*
X020762Y019355D01*
X019698Y019355D01*
X019566Y019300D01*
X019465Y019199D01*
X019410Y019067D01*
X019410Y018769D01*
X019393Y018752D01*
X019320Y018575D01*
X019320Y017844D01*
X019300Y017836D01*
X019253Y017855D01*
X018598Y017855D01*
X018466Y017800D01*
X018365Y017699D01*
X018310Y017567D01*
X018310Y017369D01*
X017601Y016660D01*
X016210Y016660D01*
X016210Y016677D01*
X015803Y016677D01*
X015803Y016683D01*
X015797Y016683D01*
X015797Y016965D01*
X015529Y016965D01*
X015488Y016954D01*
X015452Y016933D01*
X015422Y016903D01*
X015401Y016867D01*
X015390Y016826D01*
X015390Y016683D01*
X015797Y016683D01*
X015797Y016677D01*
X015390Y016677D01*
X015390Y016628D01*
X015346Y016610D01*
X015245Y016509D01*
X015210Y016425D01*
X015210Y018051D01*
X015222Y018048D01*
X015537Y018048D01*
X015537Y018620D01*
X015083Y018620D01*
X015083Y018477D01*
X014717Y018843D01*
X014717Y019224D01*
X014662Y019356D01*
X014561Y019458D01*
X014429Y019512D01*
X013764Y019512D01*
X013793Y019541D01*
X013897Y019793D01*
X013897Y020067D01*
X013793Y020319D01*
X013599Y020513D01*
X013347Y020617D01*
X013252Y020617D01*
X012920Y020949D01*
X012920Y021112D01*
X012892Y021180D01*
X012920Y021248D01*
X012920Y021612D01*
X012892Y021680D01*
X012920Y021748D01*
X012920Y022112D01*
X012892Y022180D01*
X012920Y022248D01*
X012920Y022612D01*
X012865Y022744D01*
X012764Y022845D01*
X012632Y022900D01*
X012380Y022900D01*
X012355Y022910D01*
X009223Y022910D01*
X009186Y022947D01*
X008961Y023040D01*
X008719Y023040D01*
X008494Y022947D01*
X008432Y022885D01*
X008336Y022845D01*
X008235Y022744D01*
X008180Y022612D01*
X008180Y022248D01*
X008208Y022180D01*
X008180Y022112D01*
X008180Y021748D01*
X008208Y021680D01*
X008180Y021612D01*
X008180Y021248D01*
X008208Y021180D01*
X008180Y021112D01*
X008180Y020748D01*
X008190Y020724D01*
X008190Y020153D01*
X008146Y020197D01*
X007921Y020290D01*
X006553Y020290D01*
X006379Y020464D01*
X006388Y020460D01*
X006640Y020460D01*
X006665Y020450D01*
X006855Y020450D01*
X006880Y020460D01*
X007132Y020460D01*
X007264Y020515D01*
X007365Y020616D01*
X007420Y020748D01*
X007420Y021112D01*
X007365Y021244D01*
X007264Y021345D01*
X007220Y021363D01*
X007220Y021430D01*
X007220Y021561D01*
X007209Y021602D01*
X007188Y021638D01*
X007158Y021668D01*
X007138Y021680D01*
X007158Y021692D01*
X007188Y021722D01*
X007209Y021758D01*
X007220Y021799D01*
X007220Y021930D01*
X007220Y022061D01*
X007209Y022102D01*
X007188Y022138D01*
X007158Y022168D01*
X007138Y022180D01*
X007158Y022192D01*
X007188Y022222D01*
X007209Y022258D01*
X007220Y022299D01*
X007220Y022430D01*
X007220Y022561D01*
X007209Y022602D01*
X007188Y022638D01*
X007158Y022668D01*
X007122Y022689D01*
X007081Y022700D01*
X006760Y022700D01*
X006760Y022430D01*
X006760Y022430D01*
X007220Y022430D01*
X006760Y022430D01*
X006760Y022430D01*
X006760Y021930D01*
X006760Y021930D01*
X007220Y021930D01*
X006760Y021930D01*
X006760Y021930D01*
X006760Y022160D01*
X006760Y022430D01*
X006760Y022430D01*
X006760Y022430D01*
X006300Y022430D01*
X006300Y022561D01*
X006311Y022602D01*
X006332Y022638D01*
X006362Y022668D01*
X006398Y022689D01*
X006439Y022700D01*
X006760Y022700D01*
X006760Y022430D01*
X006300Y022430D01*
X006300Y022299D01*
X006311Y022258D01*
X006332Y022222D01*
X006362Y022192D01*
X006382Y022180D01*
X006362Y022168D01*
X006332Y022138D01*
X006311Y022102D01*
X006300Y022061D01*
X006300Y021930D01*
X006760Y021930D01*
X006760Y021450D01*
X006760Y021450D01*
X006760Y021660D01*
X006760Y021930D01*
X006760Y021930D01*
X006760Y021930D01*
X006300Y021930D01*
X006300Y021799D01*
X006311Y021758D01*
X006332Y021722D01*
X006362Y021692D01*
X006382Y021680D01*
X006362Y021668D01*
X006332Y021638D01*
X006311Y021602D01*
X006300Y021561D01*
X006300Y021450D01*
X006208Y021450D01*
X006207Y021452D01*
X005780Y021879D01*
X005780Y022188D01*
X005883Y022291D01*
X005987Y022543D01*
X005987Y022817D01*
X005883Y023069D01*
X005689Y023263D01*
X005437Y023367D01*
X005163Y023367D01*
X004911Y023263D01*
X004717Y023069D01*
X004613Y022817D01*
X004613Y022543D01*
X004717Y022291D01*
X004820Y022188D01*
X004820Y022023D01*
X004250Y022593D01*
X004250Y023827D01*
X004195Y023959D01*
X004094Y024060D01*
X003962Y024115D01*
X002638Y024115D01*
X002506Y024060D01*
X002405Y023959D01*
X002350Y023827D01*
X002350Y022533D01*
X002405Y022401D01*
X002506Y022300D01*
X002638Y022245D01*
X002872Y022245D01*
X005625Y019492D01*
X005625Y019246D01*
X005652Y019180D01*
X005625Y019114D01*
X005625Y018459D01*
X005680Y018326D01*
X005781Y018225D01*
X005865Y018190D01*
X005865Y018150D01*
X005781Y018115D01*
X005680Y018014D01*
X005625Y017882D01*
X005625Y017240D01*
X004250Y017240D01*
X004250Y017647D01*
X004195Y017779D01*
X004094Y017880D01*
X003962Y017935D01*
X002638Y017935D01*
X002506Y017880D01*
X002405Y017779D01*
X002350Y017647D01*
X002350Y016353D01*
X002405Y016221D01*
X002506Y016120D01*
X002638Y016065D01*
X003962Y016065D01*
X004094Y016120D01*
X005740Y016120D01*
X005740Y015068D01*
X005630Y014958D01*
X005630Y014402D01*
X005740Y014292D01*
X005740Y012069D01*
X005825Y011863D01*
X008343Y009345D01*
X008343Y009313D01*
X008447Y009061D01*
X008641Y008867D01*
X008893Y008763D01*
X009038Y008763D01*
X010310Y007491D01*
X010310Y007293D01*
X010365Y007161D01*
X010466Y007060D01*
X010598Y007005D01*
X011253Y007005D01*
X011300Y007024D01*
X011320Y007016D01*
X011320Y006844D01*
X011214Y006800D01*
X011113Y006699D01*
X011095Y006655D01*
X010986Y006655D01*
X010986Y006240D01*
X010866Y006240D01*
X010866Y006655D01*
X010649Y006655D01*
X010608Y006644D01*
X010572Y006623D01*
X010542Y006593D01*
X010521Y006557D01*
X010510Y006516D01*
X010510Y006240D01*
X010866Y006240D01*
X010866Y006120D01*
X010986Y006120D01*
X010986Y005705D01*
X011095Y005705D01*
X011113Y005661D01*
X011214Y005560D01*
X011320Y005516D01*
X011320Y005336D01*
X011234Y005300D01*
X011133Y005199D01*
X011114Y005155D01*
X010966Y005155D01*
X010966Y004740D01*
X010846Y004740D01*
X010846Y004620D01*
X010490Y004620D01*
X010490Y004344D01*
X010501Y004303D01*
X010522Y004267D01*
X010552Y004237D01*
X010589Y004216D01*
X010629Y004205D01*
X010846Y004205D01*
X010846Y004620D01*
X010966Y004620D01*
X010966Y004205D01*
X011114Y004205D01*
X011133Y004161D01*
X011234Y004060D01*
X011320Y004024D01*
X011320Y003867D01*
X011163Y003867D01*
X010911Y003763D01*
X010808Y003660D01*
X010499Y003660D01*
X008780Y005379D01*
X008780Y007775D01*
X008707Y007952D01*
X008572Y008087D01*
X007707Y008952D01*
X007572Y009087D01*
X007395Y009160D01*
X006205Y009160D01*
X006028Y009087D01*
X005893Y008952D01*
X005820Y008775D01*
X005820Y008091D01*
X005810Y008067D01*
X005810Y007869D01*
X004893Y006952D01*
X004886Y006934D01*
X004885Y006935D02*
X004886Y006935D01*
X004886Y006934D02*
X004864Y006955D01*
X004836Y006967D01*
X004127Y007676D01*
X004121Y007689D01*
X004041Y007761D01*
X003965Y007837D01*
X003952Y007843D01*
X003941Y007853D01*
X003840Y007889D01*
X003741Y007930D01*
X003727Y007930D01*
X003713Y007935D01*
X003644Y007932D01*
X003634Y007942D01*
X003502Y007997D01*
X003410Y007997D01*
X003410Y008357D01*
X003487Y008543D01*
X003487Y008817D01*
X003383Y009069D01*
X003189Y009263D01*
X002937Y009367D01*
X002663Y009367D01*
X002411Y009263D01*
X002217Y009069D01*
X002113Y008817D01*
X002113Y008543D01*
X002190Y008357D01*
X002190Y007997D01*
X002098Y007997D01*
X001966Y007942D01*
X001865Y007841D01*
X001810Y007708D01*
X001810Y006856D01*
X001865Y006724D01*
X001966Y006623D01*
X002098Y006568D01*
X003502Y006568D01*
X003507Y006570D01*
X003823Y006254D01*
X003835Y006226D01*
X003881Y006180D01*
X003835Y006134D01*
X003823Y006106D01*
X003507Y005790D01*
X003506Y005790D01*
X003502Y005792D01*
X002098Y005792D01*
X001966Y005737D01*
X001865Y005636D01*
X001810Y005504D01*
X001810Y004652D01*
X001865Y004519D01*
X001966Y004418D01*
X002098Y004363D01*
X003502Y004363D01*
X003634Y004418D01*
X003667Y004451D01*
X003783Y004334D01*
X003954Y004163D01*
X004179Y004070D01*
X005421Y004070D01*
X005646Y004163D01*
X006646Y005163D01*
X006817Y005334D01*
X006910Y005559D01*
X006910Y006357D01*
X006987Y006543D01*
X006987Y006817D01*
X006886Y007060D01*
X006987Y007161D01*
X007005Y007205D01*
X007114Y007205D01*
X007114Y007620D01*
X007234Y007620D01*
X007234Y007205D01*
X007451Y007205D01*
X007492Y007216D01*
X007528Y007237D01*
X007558Y007267D01*
X007579Y007303D01*
X007590Y007344D01*
X007590Y007620D01*
X007234Y007620D01*
X007234Y007740D01*
X007114Y007740D01*
X007114Y008155D01*
X007005Y008155D01*
X006987Y008199D01*
X006986Y008200D01*
X007101Y008200D01*
X007234Y008067D01*
X007234Y007740D01*
X007561Y007740D01*
X007820Y007481D01*
X007820Y005085D01*
X007893Y004908D01*
X009893Y002908D01*
X010011Y002790D01*
X007754Y002790D01*
X007690Y002726D01*
X007690Y000640D01*
X001784Y000640D01*
X001716Y000644D01*
X001584Y000680D01*
X001465Y000748D01*
X001368Y000845D01*
X001300Y000964D01*
X001264Y001096D01*
X001260Y001164D01*
X001260Y009540D01*
X002858Y009540D01*
X002940Y009622D01*
X002940Y014738D01*
X002858Y014820D01*
X001260Y014820D01*
X001260Y023692D01*
X001264Y023760D01*
X001300Y023892D01*
X001368Y024011D01*
X001465Y024108D01*
X001584Y024176D01*
X001716Y024212D01*
X001784Y024216D01*
X024186Y024216D01*
X024254Y024212D01*
X024386Y024176D01*
X024505Y024108D01*
X024602Y024011D01*
X024670Y023892D01*
X024706Y023760D01*
X024710Y023692D01*
X024710Y015611D01*
X024634Y015642D01*
X024469Y015642D01*
X024317Y015579D01*
X024200Y015462D01*
X024177Y015406D01*
X024120Y015382D01*
X024003Y015265D01*
X023940Y015113D01*
X023940Y014948D01*
X024003Y014795D01*
X024120Y014678D01*
X024177Y014655D01*
X024200Y014598D01*
X024317Y014482D01*
X024469Y014418D01*
X024634Y014418D01*
X024710Y014450D01*
X024710Y014320D01*
X023242Y014320D01*
X023160Y014238D01*
X023160Y009122D01*
X023242Y009040D01*
X024710Y009040D01*
X024710Y001164D01*
X024706Y001096D01*
X024670Y000964D01*
X024602Y000845D01*
X024505Y000748D01*
X024386Y000680D01*
X024254Y000644D01*
X024186Y000640D01*
X012910Y000640D01*
X012910Y000947D01*
X013010Y001189D01*
X013010Y002171D01*
X012910Y002413D01*
X012910Y002726D01*
X012864Y002772D01*
X012883Y002791D01*
X012987Y003043D01*
X012987Y003317D01*
X012883Y003569D01*
X012689Y003763D01*
X012437Y003867D01*
X012292Y003867D01*
X012280Y003879D01*
X012280Y004222D01*
X012310Y004293D01*
X012310Y005067D01*
X012280Y005138D01*
X012280Y005769D01*
X012290Y005793D01*
X012290Y006567D01*
X012280Y006591D01*
X012280Y007269D01*
X012290Y007293D01*
X012290Y008067D01*
X012235Y008199D01*
X012134Y008300D01*
X012002Y008355D01*
X011347Y008355D01*
X011300Y008336D01*
X011253Y008355D01*
X010804Y008355D01*
X009717Y009442D01*
X009717Y009587D01*
X009613Y009839D01*
X009419Y010033D01*
X009167Y010137D01*
X009135Y010137D01*
X006860Y012412D01*
X006860Y014292D01*
X006941Y014374D01*
X007105Y014210D01*
X007280Y014210D01*
X007280Y014660D01*
X007320Y014660D01*
X007320Y014700D01*
X007280Y014700D01*
X007280Y015150D01*
X007105Y015150D01*
X006941Y014986D01*
X006860Y015068D01*
X006860Y016286D01*
X006920Y016346D01*
X006975Y016478D01*
X006975Y017133D01*
X006956Y017180D01*
X006975Y017227D01*
X006975Y017882D01*
X006920Y018014D01*
X006819Y018115D01*
X006735Y018150D01*
X006735Y018190D01*
X006819Y018225D01*
X006920Y018326D01*
X006975Y018459D01*
X006975Y019070D01*
X007547Y019070D01*
X008283Y018334D01*
X008454Y018163D01*
X008679Y018070D01*
X013316Y018070D01*
X013343Y018004D01*
X013445Y017902D01*
X013577Y017848D01*
X014390Y017848D01*
X014390Y016925D01*
X014355Y017009D01*
X014254Y017110D01*
X014122Y017165D01*
X013994Y017165D01*
X013572Y017587D01*
X013395Y017660D01*
X011751Y017660D01*
X011735Y017699D01*
X011634Y017800D01*
X011502Y017855D01*
X010847Y017855D01*
X010800Y017836D01*
X010753Y017855D01*
X010098Y017855D01*
X009966Y017800D01*
X009865Y017699D01*
X009832Y017620D01*
X009689Y017763D01*
X009437Y017867D01*
X009163Y017867D01*
X008911Y017763D01*
X008717Y017569D01*
X008613Y017317D01*
X008613Y017043D01*
X008717Y016791D01*
X008911Y016597D01*
X009163Y016493D01*
X009437Y016493D01*
X009689Y016597D01*
X009832Y016740D01*
X009832Y016740D01*
X009865Y016661D01*
X009966Y016560D01*
X010098Y016505D01*
X010753Y016505D01*
X010800Y016524D01*
X010847Y016505D01*
X011446Y016505D01*
X011296Y016355D01*
X010866Y016355D01*
X010800Y016328D01*
X010734Y016355D01*
X010079Y016355D01*
X009946Y016300D01*
X009845Y016199D01*
X009829Y016160D01*
X009205Y016160D01*
X009028Y016087D01*
X007893Y014952D01*
X007820Y014775D01*
X007820Y012085D01*
X007893Y011908D01*
X008893Y010908D01*
X009028Y010773D01*
X009205Y010700D01*
X012395Y010700D01*
X012572Y010773D01*
X013646Y011848D01*
X014429Y011848D01*
X014561Y011902D01*
X014662Y012004D01*
X014717Y012136D01*
X014717Y013224D01*
X014662Y013356D01*
X014561Y013458D01*
X014429Y013512D01*
X014280Y013512D01*
X014280Y014776D01*
X014355Y014851D01*
X014410Y014983D01*
X014410Y015377D01*
X014388Y015430D01*
X014410Y015483D01*
X014410Y015770D01*
X014882Y015770D01*
X015032Y015832D01*
X015148Y015948D01*
X015190Y016050D01*
X015190Y015983D01*
X015212Y015930D01*
X015190Y015877D01*
X015190Y015483D01*
X015212Y015430D01*
X015190Y015377D01*
X015190Y014983D01*
X015245Y014851D01*
X015320Y014776D01*
X015320Y013512D01*
X015171Y013512D01*
X015039Y013458D01*
X014938Y013356D01*
X014883Y013224D01*
X014883Y012136D01*
X014938Y012004D01*
X015039Y011902D01*
X015171Y011848D01*
X016023Y011848D01*
X016155Y011902D01*
X016257Y012004D01*
X016312Y012136D01*
X016312Y013224D01*
X016280Y013300D01*
X016280Y013700D01*
X017190Y013700D01*
X017190Y011762D01*
X017189Y011763D01*
X016937Y011867D01*
X016663Y011867D01*
X016411Y011763D01*
X016217Y011569D01*
X016113Y011317D01*
X016113Y011043D01*
X016191Y010855D01*
X015598Y010855D01*
X015466Y010800D01*
X015365Y010699D01*
X015349Y010660D01*
X015251Y010660D01*
X015235Y010699D01*
X015134Y010800D01*
X015002Y010855D01*
X014347Y010855D01*
X014214Y010800D01*
X014113Y010699D01*
X014095Y010655D01*
X013986Y010655D01*
X013986Y010240D01*
X013866Y010240D01*
X013866Y010655D01*
X013649Y010655D01*
X013608Y010644D01*
X013572Y010623D01*
X013542Y010593D01*
X013521Y010557D01*
X013510Y010516D01*
X013510Y010240D01*
X013866Y010240D01*
X013866Y010120D01*
X013986Y010120D01*
X013986Y009705D01*
X014095Y009705D01*
X014113Y009661D01*
X014214Y009560D01*
X014347Y009505D01*
X014365Y009505D01*
X014365Y009354D01*
X014234Y009300D01*
X014133Y009199D01*
X014114Y009155D01*
X013966Y009155D01*
X013966Y008740D01*
X013846Y008740D01*
X013846Y008620D01*
X013490Y008620D01*
X013490Y008344D01*
X013501Y008303D01*
X013522Y008267D01*
X013552Y008237D01*
X013589Y008216D01*
X013629Y008205D01*
X013846Y008205D01*
X013846Y008620D01*
X013966Y008620D01*
X013966Y008205D01*
X014114Y008205D01*
X014133Y008161D01*
X014234Y008060D01*
X014320Y008024D01*
X014320Y002879D01*
X014308Y002867D01*
X014163Y002867D01*
X013911Y002763D01*
X013717Y002569D01*
X013613Y002317D01*
X013613Y002043D01*
X013717Y001791D01*
X013911Y001597D01*
X014163Y001493D01*
X014437Y001493D01*
X014689Y001597D01*
X014883Y001791D01*
X014987Y002043D01*
X014987Y002188D01*
X015072Y002273D01*
X015207Y002408D01*
X015280Y002585D01*
X015280Y008222D01*
X015310Y008293D01*
X015310Y009067D01*
X015255Y009199D01*
X015235Y009219D01*
X015235Y009661D01*
X015235Y009661D01*
X015251Y009700D01*
X015349Y009700D01*
X015365Y009661D01*
X015466Y009560D01*
X015598Y009505D01*
X016253Y009505D01*
X016300Y009524D01*
X016347Y009505D01*
X017002Y009505D01*
X017134Y009560D01*
X017190Y009616D01*
X017190Y009433D01*
X016454Y008697D01*
X016283Y008526D01*
X016190Y008301D01*
X016190Y002059D01*
X016283Y001834D01*
X016454Y001663D01*
X016679Y001570D01*
X016724Y001570D01*
X016781Y001513D01*
X016825Y001494D01*
X016825Y001346D01*
X017240Y001346D01*
X017240Y001226D01*
X017360Y001226D01*
X017360Y000870D01*
X017636Y000870D01*
X017677Y000881D01*
X017713Y000902D01*
X017743Y000932D01*
X017764Y000969D01*
X017775Y001009D01*
X017775Y001226D01*
X017360Y001226D01*
X017360Y001346D01*
X017775Y001346D01*
X017775Y001494D01*
X017819Y001513D01*
X017876Y001570D01*
X019462Y001570D01*
X019494Y001539D01*
X019330Y001375D01*
X019330Y001200D01*
X019780Y001200D01*
X019780Y001160D01*
X019820Y001160D01*
X019820Y001200D01*
X020270Y001200D01*
X020270Y001375D01*
X020106Y001539D01*
X020138Y001570D01*
X021724Y001570D01*
X021781Y001513D01*
X021825Y001494D01*
X021825Y001346D01*
X022240Y001346D01*
X022240Y001226D01*
X022360Y001226D01*
X022360Y000870D01*
X022636Y000870D01*
X022677Y000881D01*
X022713Y000902D01*
X022743Y000932D01*
X022764Y000969D01*
X022775Y001009D01*
X022775Y001226D01*
X022360Y001226D01*
X022360Y001346D01*
X022775Y001346D01*
X022775Y001494D01*
X022819Y001513D01*
X022920Y001614D01*
X022975Y001746D01*
X022975Y002401D01*
X022920Y002534D01*
X022910Y002544D01*
X022910Y004863D01*
X022939Y004863D01*
X022939Y004510D01*
X023005Y004350D01*
X023007Y004349D01*
X023005Y004348D01*
X022966Y004252D01*
X022939Y004188D01*
X022939Y003731D01*
X022967Y003663D01*
X023005Y003571D01*
X023005Y003571D01*
X023007Y003570D01*
X023078Y003499D01*
X023007Y003428D01*
X023005Y003427D01*
X022967Y003335D01*
X022939Y003267D01*
X022939Y002668D01*
X023005Y002509D01*
X023128Y002386D01*
X023288Y002320D01*
X024312Y002320D01*
X024471Y002386D01*
X024594Y002509D01*
X024660Y002668D01*
X024660Y002842D01*
X024594Y003001D01*
X024557Y003039D01*
X024594Y003076D01*
X024660Y003236D01*
X024660Y003409D01*
X024594Y003569D01*
X024592Y003570D01*
X024594Y003571D01*
X024660Y003731D01*
X024660Y004188D01*
X024594Y004348D01*
X024592Y004349D01*
X024594Y004350D01*
X024660Y004510D01*
X024660Y005250D01*
X024623Y005341D01*
X024660Y005431D01*
X024660Y005604D01*
X024594Y005764D01*
X024558Y005800D01*
X024563Y005807D01*
X024594Y005838D01*
X024610Y005878D01*
X024635Y005914D01*
X024643Y005957D01*
X024660Y005998D01*
X024660Y006041D01*
X024669Y006084D01*
X024660Y006127D01*
X024660Y006171D01*
X024643Y006211D01*
X024635Y006254D01*
X024611Y006290D01*
X024594Y006331D01*
X024592Y006332D01*
X024594Y006334D01*
X024660Y006493D01*
X024660Y006950D01*
X024594Y007110D01*
X024592Y007111D01*
X024594Y007113D01*
X024660Y007272D01*
X024660Y008013D01*
X024594Y008172D01*
X024471Y008295D01*
X024312Y008361D01*
X024138Y008361D01*
X023979Y008295D01*
X023856Y008172D01*
X023817Y008078D01*
X023782Y008078D01*
X023743Y008172D01*
X023621Y008295D01*
X023461Y008361D01*
X023288Y008361D01*
X023236Y008339D01*
X023235Y008341D01*
X023134Y008442D01*
X023002Y008497D01*
X021910Y008497D01*
X021910Y010357D01*
X021987Y010543D01*
X021987Y010817D01*
X021883Y011069D01*
X021689Y011263D01*
X021437Y011367D01*
X021163Y011367D01*
X020911Y011263D01*
X020717Y011069D01*
X020613Y010817D01*
X020613Y010543D01*
X020690Y010357D01*
X020690Y007893D01*
X020680Y007883D02*
X017410Y007883D01*
X017410Y007764D02*
X020561Y007764D01*
X020443Y007646D02*
X017410Y007646D01*
X017410Y007527D02*
X020324Y007527D01*
X020189Y007409D02*
X017410Y007409D01*
X017410Y007290D02*
X018204Y007290D01*
X018102Y007172D02*
X017410Y007172D01*
X017410Y007053D02*
X017520Y007053D01*
X017510Y006935D02*
X017410Y006935D01*
X017410Y006816D02*
X017510Y006816D01*
X017410Y006698D02*
X017866Y006698D01*
X017866Y006816D02*
X017986Y006816D01*
X017986Y006935D02*
X017866Y006935D01*
X017866Y007053D02*
X017986Y007053D01*
X017510Y006579D02*
X017410Y006579D01*
X017410Y006461D02*
X017510Y006461D01*
X017511Y006342D02*
X017410Y006342D01*
X017410Y006224D02*
X017595Y006224D01*
X017753Y006105D02*
X017410Y006105D01*
X017410Y005987D02*
X017683Y005987D01*
X017634Y005868D02*
X017410Y005868D01*
X017410Y005750D02*
X017613Y005750D01*
X017613Y005631D02*
X017410Y005631D01*
X017410Y005513D02*
X017626Y005513D01*
X017675Y005394D02*
X017410Y005394D01*
X017410Y005276D02*
X017733Y005276D01*
X017851Y005157D02*
X017410Y005157D01*
X017410Y005039D02*
X018053Y005039D01*
X018547Y005039D02*
X021119Y005039D01*
X020995Y005157D02*
X018749Y005157D01*
X018867Y005276D02*
X020882Y005276D01*
X020763Y005394D02*
X018925Y005394D01*
X018974Y005513D02*
X020645Y005513D01*
X020526Y005631D02*
X018987Y005631D01*
X018987Y005750D02*
X020408Y005750D01*
X020289Y005868D02*
X018966Y005868D01*
X018940Y005987D02*
X020154Y005987D01*
X020094Y006105D02*
X019179Y006105D01*
X019261Y006224D02*
X019536Y006224D01*
X019246Y007172D02*
X020080Y007172D01*
X020108Y007290D02*
X019144Y007290D01*
X017958Y008475D02*
X020690Y008475D01*
X020690Y008357D02*
X017839Y008357D01*
X017721Y008238D02*
X020690Y008238D01*
X020690Y008120D02*
X017602Y008120D01*
X017484Y008001D02*
X020690Y008001D01*
X020690Y008594D02*
X018076Y008594D01*
X018195Y008712D02*
X020690Y008712D01*
X020690Y008831D02*
X018313Y008831D01*
X018432Y008949D02*
X020690Y008949D01*
X020690Y009068D02*
X018550Y009068D01*
X018669Y009186D02*
X020690Y009186D01*
X020690Y009305D02*
X018787Y009305D01*
X018906Y009423D02*
X020690Y009423D01*
X020690Y009542D02*
X019024Y009542D01*
X019143Y009660D02*
X020690Y009660D01*
X020690Y009779D02*
X019261Y009779D01*
X019380Y009897D02*
X020690Y009897D01*
X020690Y010016D02*
X019498Y010016D01*
X019617Y010134D02*
X020690Y010134D01*
X020690Y010253D02*
X019735Y010253D01*
X019854Y010371D02*
X020684Y010371D01*
X020635Y010490D02*
X019972Y010490D01*
X020091Y010608D02*
X020613Y010608D01*
X020613Y010727D02*
X020209Y010727D01*
X020328Y010845D02*
X020625Y010845D01*
X020674Y010964D02*
X020446Y010964D01*
X020565Y011082D02*
X020730Y011082D01*
X020683Y011201D02*
X020849Y011201D01*
X020802Y011319D02*
X021047Y011319D01*
X020920Y011438D02*
X023160Y011438D01*
X023160Y011556D02*
X021039Y011556D01*
X021157Y011675D02*
X023160Y011675D01*
X023160Y011793D02*
X021276Y011793D01*
X021394Y011912D02*
X023160Y011912D01*
X023160Y012030D02*
X021513Y012030D01*
X021631Y012149D02*
X023160Y012149D01*
X023160Y012267D02*
X021750Y012267D01*
X021868Y012386D02*
X023160Y012386D01*
X023160Y012504D02*
X021987Y012504D01*
X022105Y012623D02*
X023160Y012623D01*
X023160Y012741D02*
X022224Y012741D01*
X022328Y012860D02*
X023160Y012860D01*
X023160Y012978D02*
X022377Y012978D01*
X022410Y013097D02*
X023160Y013097D01*
X023160Y013215D02*
X022410Y013215D01*
X022410Y013334D02*
X023160Y013334D01*
X023160Y013452D02*
X022410Y013452D01*
X022410Y013571D02*
X023160Y013571D01*
X023160Y013689D02*
X022410Y013689D01*
X022410Y013808D02*
X023160Y013808D01*
X023160Y013926D02*
X022410Y013926D01*
X022410Y014045D02*
X023160Y014045D01*
X023160Y014163D02*
X022410Y014163D01*
X022410Y014282D02*
X023204Y014282D01*
X023360Y014874D02*
X023971Y014874D01*
X023940Y014993D02*
X023491Y014993D01*
X023602Y015111D02*
X023940Y015111D01*
X023988Y015230D02*
X023651Y015230D01*
X023660Y015348D02*
X024086Y015348D01*
X024204Y015467D02*
X023660Y015467D01*
X023660Y015585D02*
X024332Y015585D01*
X024710Y015704D02*
X023622Y015704D01*
X023630Y015822D02*
X024710Y015822D01*
X024710Y015941D02*
X023660Y015941D01*
X023660Y016059D02*
X024710Y016059D01*
X024710Y016178D02*
X023660Y016178D01*
X023644Y016296D02*
X024710Y016296D01*
X024710Y016415D02*
X023649Y016415D01*
X023660Y016533D02*
X024710Y016533D01*
X024710Y016652D02*
X023660Y016652D01*
X023660Y016770D02*
X024710Y016770D01*
X024710Y016889D02*
X023660Y016889D01*
X023657Y017007D02*
X024710Y017007D01*
X024710Y017126D02*
X023608Y017126D01*
X023506Y017244D02*
X024710Y017244D01*
X024710Y017363D02*
X022410Y017363D01*
X022410Y017481D02*
X022782Y017481D01*
X022984Y017244D02*
X022410Y017244D01*
X022410Y017126D02*
X022882Y017126D01*
X022833Y017007D02*
X022410Y017007D01*
X022410Y016889D02*
X022450Y016889D01*
X023818Y017481D02*
X024710Y017481D01*
X024710Y017600D02*
X024375Y017600D01*
X024410Y017718D02*
X024710Y017718D01*
X024710Y017837D02*
X024410Y017837D01*
X024410Y017955D02*
X024710Y017955D01*
X024710Y018074D02*
X024410Y018074D01*
X024410Y018192D02*
X024710Y018192D01*
X024710Y018311D02*
X024410Y018311D01*
X024410Y018429D02*
X024710Y018429D01*
X024710Y018548D02*
X024410Y018548D01*
X024410Y018666D02*
X024710Y018666D01*
X024710Y018785D02*
X024410Y018785D01*
X024410Y018903D02*
X024710Y018903D01*
X024710Y019022D02*
X024410Y019022D01*
X024410Y019140D02*
X024710Y019140D01*
X024710Y019259D02*
X024410Y019259D01*
X024410Y019377D02*
X024710Y019377D01*
X024710Y019496D02*
X024410Y019496D01*
X024410Y019614D02*
X024710Y019614D01*
X024710Y019733D02*
X024410Y019733D01*
X024410Y019851D02*
X024710Y019851D01*
X024710Y019970D02*
X024410Y019970D01*
X024410Y020088D02*
X024710Y020088D01*
X024710Y020207D02*
X024410Y020207D01*
X024410Y020325D02*
X024710Y020325D01*
X024710Y020444D02*
X024410Y020444D01*
X024410Y020562D02*
X024710Y020562D01*
X024710Y020681D02*
X024410Y020681D01*
X024410Y020799D02*
X024710Y020799D01*
X024710Y020918D02*
X024410Y020918D01*
X024410Y021036D02*
X024710Y021036D01*
X024710Y021155D02*
X024410Y021155D01*
X024410Y021273D02*
X024710Y021273D01*
X024710Y021392D02*
X024410Y021392D01*
X024410Y021510D02*
X024710Y021510D01*
X024710Y021629D02*
X024410Y021629D01*
X024410Y021747D02*
X024710Y021747D01*
X024710Y021866D02*
X024410Y021866D01*
X024410Y021984D02*
X024710Y021984D01*
X024710Y022103D02*
X024410Y022103D01*
X024410Y022221D02*
X024710Y022221D01*
X024710Y022340D02*
X024410Y022340D01*
X024410Y022458D02*
X024710Y022458D01*
X024710Y022577D02*
X024410Y022577D01*
X024410Y022695D02*
X024710Y022695D01*
X024710Y022814D02*
X021487Y022814D01*
X021487Y022695D02*
X022190Y022695D01*
X022190Y022577D02*
X021487Y022577D01*
X021452Y022458D02*
X022190Y022458D01*
X022190Y022340D02*
X021403Y022340D01*
X021313Y022221D02*
X022190Y022221D01*
X022190Y022103D02*
X021194Y022103D01*
X020728Y021984D02*
X022190Y021984D01*
X022190Y021866D02*
X020000Y021866D01*
X020096Y021747D02*
X022190Y021747D01*
X022190Y021629D02*
X020214Y021629D01*
X020333Y021510D02*
X022190Y021510D01*
X022190Y021392D02*
X020451Y021392D01*
X020570Y021273D02*
X022190Y021273D01*
X022190Y021155D02*
X020688Y021155D01*
X020807Y021036D02*
X022190Y021036D01*
X022190Y020918D02*
X020925Y020918D01*
X021044Y020799D02*
X022190Y020799D01*
X022190Y020681D02*
X021162Y020681D01*
X021281Y020562D02*
X022190Y020562D01*
X022190Y020444D02*
X021399Y020444D01*
X021518Y020325D02*
X022190Y020325D01*
X022190Y020207D02*
X021636Y020207D01*
X021755Y020088D02*
X022190Y020088D01*
X022190Y019970D02*
X021873Y019970D01*
X021992Y019851D02*
X022190Y019851D01*
X022190Y019733D02*
X022110Y019733D01*
X020740Y019377D02*
X014642Y019377D01*
X014703Y019259D02*
X015123Y019259D01*
X015115Y019251D02*
X015094Y019214D01*
X015083Y019174D01*
X015083Y018740D01*
X015537Y018740D01*
X015537Y018620D01*
X015657Y018620D01*
X015657Y018048D01*
X015973Y018048D01*
X016013Y018058D01*
X016050Y018080D01*
X016080Y018109D01*
X016101Y018146D01*
X016112Y018186D01*
X016112Y018620D01*
X015657Y018620D01*
X015657Y018740D01*
X015537Y018740D01*
X015537Y019312D01*
X015222Y019312D01*
X015181Y019302D01*
X015145Y019280D01*
X015115Y019251D01*
X015083Y019140D02*
X014717Y019140D01*
X014717Y019022D02*
X015083Y019022D01*
X015083Y018903D02*
X014717Y018903D01*
X014775Y018785D02*
X015083Y018785D01*
X014894Y018666D02*
X015537Y018666D01*
X015537Y018548D02*
X015657Y018548D01*
X015657Y018666D02*
X019358Y018666D01*
X019320Y018548D02*
X016112Y018548D01*
X016112Y018429D02*
X019320Y018429D01*
X019320Y018311D02*
X016112Y018311D01*
X016112Y018192D02*
X019320Y018192D01*
X019320Y018074D02*
X016039Y018074D01*
X015657Y018074D02*
X015537Y018074D01*
X015537Y018192D02*
X015657Y018192D01*
X015657Y018311D02*
X015537Y018311D01*
X015537Y018429D02*
X015657Y018429D01*
X015657Y018740D02*
X016112Y018740D01*
X016112Y019174D01*
X016101Y019214D01*
X016080Y019251D01*
X016050Y019280D01*
X016013Y019302D01*
X015973Y019312D01*
X015657Y019312D01*
X015657Y018740D01*
X015657Y018785D02*
X015537Y018785D01*
X015537Y018903D02*
X015657Y018903D01*
X015657Y019022D02*
X015537Y019022D01*
X015537Y019140D02*
X015657Y019140D01*
X015657Y019259D02*
X015537Y019259D01*
X016072Y019259D02*
X019524Y019259D01*
X019440Y019140D02*
X016112Y019140D01*
X016112Y019022D02*
X019410Y019022D01*
X019410Y018903D02*
X016112Y018903D01*
X016112Y018785D02*
X019410Y018785D01*
X019320Y017955D02*
X015210Y017955D01*
X015210Y017837D02*
X018554Y017837D01*
X018384Y017718D02*
X015210Y017718D01*
X015210Y017600D02*
X018324Y017600D01*
X018310Y017481D02*
X015210Y017481D01*
X015210Y017363D02*
X018304Y017363D01*
X018185Y017244D02*
X015210Y017244D01*
X015210Y017126D02*
X018067Y017126D01*
X017948Y017007D02*
X015210Y017007D01*
X015210Y016889D02*
X015413Y016889D01*
X015390Y016770D02*
X015210Y016770D01*
X015210Y016652D02*
X015390Y016652D01*
X015269Y016533D02*
X015210Y016533D01*
X015208Y015941D02*
X015140Y015941D01*
X015190Y015822D02*
X015007Y015822D01*
X015190Y015704D02*
X014410Y015704D01*
X014410Y015585D02*
X015190Y015585D01*
X015197Y015467D02*
X014403Y015467D01*
X014410Y015348D02*
X015190Y015348D01*
X015190Y015230D02*
X014410Y015230D01*
X014410Y015111D02*
X015190Y015111D01*
X015190Y014993D02*
X014410Y014993D01*
X014365Y014874D02*
X015235Y014874D01*
X015320Y014756D02*
X014280Y014756D01*
X014280Y014637D02*
X015320Y014637D01*
X015320Y014519D02*
X014280Y014519D01*
X014280Y014400D02*
X015320Y014400D01*
X015320Y014282D02*
X014280Y014282D01*
X014280Y014163D02*
X015320Y014163D01*
X015320Y014045D02*
X014280Y014045D01*
X014280Y013926D02*
X015320Y013926D01*
X015320Y013808D02*
X014280Y013808D01*
X014280Y013689D02*
X015320Y013689D01*
X015320Y013571D02*
X014280Y013571D01*
X014567Y013452D02*
X015033Y013452D01*
X014928Y013334D02*
X014672Y013334D01*
X014717Y013215D02*
X014883Y013215D01*
X014883Y013097D02*
X014717Y013097D01*
X014717Y012978D02*
X014883Y012978D01*
X014883Y012860D02*
X014717Y012860D01*
X014717Y012741D02*
X014883Y012741D01*
X014883Y012623D02*
X014717Y012623D01*
X014717Y012504D02*
X014883Y012504D01*
X014883Y012386D02*
X014717Y012386D01*
X014717Y012267D02*
X014883Y012267D01*
X014883Y012149D02*
X014717Y012149D01*
X014673Y012030D02*
X014927Y012030D01*
X015030Y011912D02*
X014570Y011912D01*
X013592Y011793D02*
X016484Y011793D01*
X016323Y011675D02*
X013473Y011675D01*
X013355Y011556D02*
X016212Y011556D01*
X016163Y011438D02*
X013236Y011438D01*
X013118Y011319D02*
X016114Y011319D01*
X016113Y011201D02*
X012999Y011201D01*
X012881Y011082D02*
X016113Y011082D01*
X016146Y010964D02*
X012762Y010964D01*
X012644Y010845D02*
X014323Y010845D01*
X014141Y010727D02*
X012460Y010727D01*
X013510Y010490D02*
X008782Y010490D01*
X008664Y010608D02*
X013557Y010608D01*
X013510Y010371D02*
X008901Y010371D01*
X009019Y010253D02*
X013510Y010253D01*
X013510Y010120D02*
X013510Y009844D01*
X013521Y009803D01*
X013542Y009767D01*
X013572Y009737D01*
X013608Y009716D01*
X013649Y009705D01*
X013866Y009705D01*
X013866Y010120D01*
X013510Y010120D01*
X013510Y010016D02*
X009436Y010016D01*
X009555Y009897D02*
X013510Y009897D01*
X013535Y009779D02*
X009638Y009779D01*
X009687Y009660D02*
X014114Y009660D01*
X013986Y009779D02*
X013866Y009779D01*
X013866Y009897D02*
X013986Y009897D01*
X013986Y010016D02*
X013866Y010016D01*
X013866Y010134D02*
X009174Y010134D01*
X009717Y009542D02*
X014258Y009542D01*
X014365Y009423D02*
X009736Y009423D01*
X009854Y009305D02*
X014244Y009305D01*
X014127Y009186D02*
X009973Y009186D01*
X010091Y009068D02*
X013508Y009068D01*
X013501Y009057D02*
X013522Y009093D01*
X013552Y009123D01*
X013589Y009144D01*
X013629Y009155D01*
X013846Y009155D01*
X013846Y008740D01*
X013490Y008740D01*
X013490Y009016D01*
X013501Y009057D01*
X013490Y008949D02*
X010210Y008949D01*
X010328Y008831D02*
X013490Y008831D01*
X013490Y008594D02*
X010565Y008594D01*
X010447Y008712D02*
X013846Y008712D01*
X013846Y008594D02*
X013966Y008594D01*
X013966Y008475D02*
X013846Y008475D01*
X013846Y008357D02*
X013966Y008357D01*
X013966Y008238D02*
X013846Y008238D01*
X013551Y008238D02*
X012196Y008238D01*
X012268Y008120D02*
X014174Y008120D01*
X014320Y008001D02*
X012290Y008001D01*
X012290Y007883D02*
X014320Y007883D01*
X014320Y007764D02*
X012290Y007764D01*
X012290Y007646D02*
X014320Y007646D01*
X014320Y007527D02*
X012290Y007527D01*
X012290Y007409D02*
X014320Y007409D01*
X014320Y007290D02*
X012289Y007290D01*
X012280Y007172D02*
X014320Y007172D01*
X014320Y007053D02*
X012280Y007053D01*
X012280Y006935D02*
X014320Y006935D01*
X014320Y006816D02*
X012280Y006816D01*
X012280Y006698D02*
X014320Y006698D01*
X014320Y006579D02*
X012285Y006579D01*
X012290Y006461D02*
X014320Y006461D01*
X014320Y006342D02*
X012290Y006342D01*
X012290Y006224D02*
X014320Y006224D01*
X014320Y006105D02*
X012290Y006105D01*
X012290Y005987D02*
X014320Y005987D01*
X014320Y005868D02*
X012290Y005868D01*
X012280Y005750D02*
X014320Y005750D01*
X014320Y005631D02*
X012280Y005631D01*
X012280Y005513D02*
X014320Y005513D01*
X014320Y005394D02*
X012280Y005394D01*
X012280Y005276D02*
X014320Y005276D01*
X014320Y005157D02*
X012280Y005157D01*
X012310Y005039D02*
X014320Y005039D01*
X014320Y004920D02*
X012310Y004920D01*
X012310Y004802D02*
X014320Y004802D01*
X014320Y004683D02*
X012310Y004683D01*
X012310Y004565D02*
X014320Y004565D01*
X014320Y004446D02*
X012310Y004446D01*
X012310Y004328D02*
X014320Y004328D01*
X014320Y004209D02*
X012280Y004209D01*
X012280Y004091D02*
X014320Y004091D01*
X014320Y003972D02*
X012280Y003972D01*
X012470Y003854D02*
X014320Y003854D01*
X014320Y003735D02*
X012717Y003735D01*
X012835Y003617D02*
X014320Y003617D01*
X014320Y003498D02*
X012912Y003498D01*
X012961Y003380D02*
X014320Y003380D01*
X014320Y003261D02*
X012987Y003261D01*
X012987Y003143D02*
X014320Y003143D01*
X014320Y003024D02*
X012979Y003024D01*
X012930Y002906D02*
X014320Y002906D01*
X013970Y002787D02*
X012879Y002787D01*
X012910Y002669D02*
X013817Y002669D01*
X013709Y002550D02*
X012910Y002550D01*
X012910Y002432D02*
X013660Y002432D01*
X013613Y002313D02*
X012951Y002313D01*
X013000Y002195D02*
X013613Y002195D01*
X013613Y002076D02*
X013010Y002076D01*
X013010Y001958D02*
X013648Y001958D01*
X013697Y001839D02*
X013010Y001839D01*
X013010Y001721D02*
X013788Y001721D01*
X013906Y001602D02*
X013010Y001602D01*
X013010Y001484D02*
X016825Y001484D01*
X016825Y001365D02*
X013010Y001365D01*
X013010Y001247D02*
X017240Y001247D01*
X017240Y001226D02*
X016825Y001226D01*
X016825Y001009D01*
X016836Y000969D01*
X016857Y000932D01*
X016887Y000902D01*
X016923Y000881D01*
X016964Y000870D01*
X017240Y000870D01*
X017240Y001226D01*
X017240Y001128D02*
X017360Y001128D01*
X017360Y001010D02*
X017240Y001010D01*
X017240Y000891D02*
X017360Y000891D01*
X017694Y000891D02*
X019424Y000891D01*
X019330Y000985D02*
X019330Y001160D01*
X019780Y001160D01*
X019780Y000710D01*
X019605Y000710D01*
X019330Y000985D01*
X019330Y001010D02*
X017775Y001010D01*
X017775Y001128D02*
X019330Y001128D01*
X019330Y001247D02*
X017360Y001247D01*
X017775Y001365D02*
X019330Y001365D01*
X019439Y001484D02*
X017775Y001484D01*
X016825Y001128D02*
X012985Y001128D01*
X012936Y001010D02*
X016825Y001010D01*
X016906Y000891D02*
X012910Y000891D01*
X012910Y000773D02*
X019543Y000773D01*
X019780Y000773D02*
X019820Y000773D01*
X019820Y000710D02*
X019995Y000710D01*
X020270Y000985D01*
X020270Y001160D01*
X019820Y001160D01*
X019820Y000710D01*
X019820Y000891D02*
X019780Y000891D01*
X019780Y001010D02*
X019820Y001010D01*
X019820Y001128D02*
X019780Y001128D01*
X020057Y000773D02*
X024529Y000773D01*
X024628Y000891D02*
X022694Y000891D01*
X022775Y001010D02*
X024682Y001010D01*
X024708Y001128D02*
X022775Y001128D01*
X022775Y001365D02*
X024710Y001365D01*
X024710Y001247D02*
X022360Y001247D01*
X022360Y001128D02*
X022240Y001128D01*
X022240Y001226D02*
X022240Y000870D01*
X021964Y000870D01*
X021923Y000881D01*
X021887Y000902D01*
X021857Y000932D01*
X021836Y000969D01*
X021825Y001009D01*
X021825Y001226D01*
X022240Y001226D01*
X022240Y001247D02*
X020270Y001247D01*
X020270Y001365D02*
X021825Y001365D01*
X021825Y001484D02*
X020161Y001484D01*
X020270Y001128D02*
X021825Y001128D01*
X021825Y001010D02*
X020270Y001010D01*
X020176Y000891D02*
X021906Y000891D01*
X022240Y000891D02*
X022360Y000891D01*
X022360Y001010D02*
X022240Y001010D01*
X022775Y001484D02*
X024710Y001484D01*
X024710Y001602D02*
X022908Y001602D01*
X022964Y001721D02*
X024710Y001721D01*
X024710Y001839D02*
X022975Y001839D01*
X022975Y001958D02*
X024710Y001958D01*
X024710Y002076D02*
X022975Y002076D01*
X022975Y002195D02*
X024710Y002195D01*
X024710Y002313D02*
X022975Y002313D01*
X022962Y002432D02*
X023083Y002432D01*
X022988Y002550D02*
X022910Y002550D01*
X022910Y002669D02*
X022939Y002669D01*
X022939Y002787D02*
X022910Y002787D01*
X022910Y002906D02*
X022939Y002906D01*
X022939Y003024D02*
X022910Y003024D01*
X022910Y003143D02*
X022939Y003143D01*
X022939Y003261D02*
X022910Y003261D01*
X022910Y003380D02*
X022986Y003380D01*
X023005Y003427D02*
X023005Y003427D01*
X023077Y003498D02*
X022910Y003498D01*
X022910Y003617D02*
X022987Y003617D01*
X022939Y003735D02*
X022910Y003735D01*
X022910Y003854D02*
X022939Y003854D01*
X022939Y003972D02*
X022910Y003972D01*
X022910Y004091D02*
X022939Y004091D01*
X022948Y004209D02*
X022910Y004209D01*
X022910Y004328D02*
X022997Y004328D01*
X022966Y004446D02*
X022910Y004446D01*
X022910Y004565D02*
X022939Y004565D01*
X022939Y004683D02*
X022910Y004683D01*
X022910Y004802D02*
X022939Y004802D01*
X021690Y004802D02*
X017410Y004802D01*
X017410Y004920D02*
X021464Y004920D01*
X021690Y004683D02*
X017410Y004683D01*
X017410Y004565D02*
X021690Y004565D01*
X021690Y004446D02*
X017410Y004446D01*
X017410Y004328D02*
X021690Y004328D01*
X021690Y004209D02*
X017410Y004209D01*
X017410Y004091D02*
X021690Y004091D01*
X021690Y003972D02*
X017410Y003972D01*
X017410Y003854D02*
X021690Y003854D01*
X021690Y003735D02*
X017410Y003735D01*
X017410Y003617D02*
X021690Y003617D01*
X021690Y003498D02*
X017410Y003498D01*
X017410Y003380D02*
X021690Y003380D01*
X021690Y003261D02*
X017410Y003261D01*
X017410Y003143D02*
X021690Y003143D01*
X021690Y003024D02*
X017410Y003024D01*
X017410Y002906D02*
X021690Y002906D01*
X024290Y000654D02*
X012910Y000654D01*
X014694Y001602D02*
X016601Y001602D01*
X016397Y001721D02*
X014812Y001721D01*
X014903Y001839D02*
X016281Y001839D01*
X016232Y001958D02*
X014952Y001958D01*
X014987Y002076D02*
X016190Y002076D01*
X016190Y002195D02*
X014993Y002195D01*
X015112Y002313D02*
X016190Y002313D01*
X016190Y002432D02*
X015217Y002432D01*
X015266Y002550D02*
X016190Y002550D01*
X016190Y002669D02*
X015280Y002669D01*
X015280Y002787D02*
X016190Y002787D01*
X016190Y002906D02*
X015280Y002906D01*
X015280Y003024D02*
X016190Y003024D01*
X016190Y003143D02*
X015280Y003143D01*
X015280Y003261D02*
X016190Y003261D01*
X016190Y003380D02*
X015280Y003380D01*
X015280Y003498D02*
X016190Y003498D01*
X016190Y003617D02*
X015280Y003617D01*
X015280Y003735D02*
X016190Y003735D01*
X016190Y003854D02*
X015280Y003854D01*
X015280Y003972D02*
X016190Y003972D01*
X016190Y004091D02*
X015280Y004091D01*
X015280Y004209D02*
X016190Y004209D01*
X016190Y004328D02*
X015280Y004328D01*
X015280Y004446D02*
X016190Y004446D01*
X016190Y004565D02*
X015280Y004565D01*
X015280Y004683D02*
X016190Y004683D01*
X016190Y004802D02*
X015280Y004802D01*
X015280Y004920D02*
X016190Y004920D01*
X016190Y005039D02*
X015280Y005039D01*
X015280Y005157D02*
X016190Y005157D01*
X016190Y005276D02*
X015280Y005276D01*
X015280Y005394D02*
X016190Y005394D01*
X016190Y005513D02*
X015280Y005513D01*
X015280Y005631D02*
X016190Y005631D01*
X016190Y005750D02*
X015280Y005750D01*
X015280Y005868D02*
X016190Y005868D01*
X016190Y005987D02*
X015280Y005987D01*
X015280Y006105D02*
X016190Y006105D01*
X016190Y006224D02*
X015280Y006224D01*
X015280Y006342D02*
X016190Y006342D01*
X016190Y006461D02*
X015280Y006461D01*
X015280Y006579D02*
X016190Y006579D01*
X016190Y006698D02*
X015280Y006698D01*
X015280Y006816D02*
X016190Y006816D01*
X016190Y006935D02*
X015280Y006935D01*
X015280Y007053D02*
X016190Y007053D01*
X016190Y007172D02*
X015280Y007172D01*
X015280Y007290D02*
X016190Y007290D01*
X016190Y007409D02*
X015280Y007409D01*
X015280Y007527D02*
X016190Y007527D01*
X016190Y007646D02*
X015280Y007646D01*
X015280Y007764D02*
X016190Y007764D01*
X016190Y007883D02*
X015280Y007883D01*
X015280Y008001D02*
X016190Y008001D01*
X016190Y008120D02*
X015280Y008120D01*
X015287Y008238D02*
X016190Y008238D01*
X016213Y008357D02*
X015310Y008357D01*
X015310Y008475D02*
X016262Y008475D01*
X016351Y008594D02*
X015310Y008594D01*
X015310Y008712D02*
X016469Y008712D01*
X016588Y008831D02*
X015310Y008831D01*
X015310Y008949D02*
X016706Y008949D01*
X016825Y009068D02*
X015309Y009068D01*
X015260Y009186D02*
X016943Y009186D01*
X017062Y009305D02*
X015235Y009305D01*
X015235Y009423D02*
X017180Y009423D01*
X017190Y009542D02*
X017090Y009542D01*
X015574Y010845D02*
X015026Y010845D01*
X015207Y010727D02*
X015393Y010727D01*
X016165Y011912D02*
X017190Y011912D01*
X017190Y012030D02*
X016268Y012030D01*
X016312Y012149D02*
X017190Y012149D01*
X017190Y012267D02*
X016312Y012267D01*
X016312Y012386D02*
X017190Y012386D01*
X017190Y012504D02*
X016312Y012504D01*
X016312Y012623D02*
X017190Y012623D01*
X017190Y012741D02*
X016312Y012741D01*
X016312Y012860D02*
X017190Y012860D01*
X017190Y012978D02*
X016312Y012978D01*
X016312Y013097D02*
X017190Y013097D01*
X017190Y013215D02*
X016312Y013215D01*
X016280Y013334D02*
X017190Y013334D01*
X017190Y013452D02*
X016280Y013452D01*
X016280Y013571D02*
X017190Y013571D01*
X017190Y013689D02*
X016280Y013689D01*
X017116Y011793D02*
X017190Y011793D01*
X015366Y009660D02*
X015235Y009660D01*
X015235Y009542D02*
X015510Y009542D01*
X013966Y009068D02*
X013846Y009068D01*
X013846Y008949D02*
X013966Y008949D01*
X013966Y008831D02*
X013846Y008831D01*
X013490Y008475D02*
X010684Y008475D01*
X010802Y008357D02*
X013490Y008357D01*
X013866Y010253D02*
X013986Y010253D01*
X013986Y010371D02*
X013866Y010371D01*
X013866Y010490D02*
X013986Y010490D01*
X013986Y010608D02*
X013866Y010608D01*
X010274Y007527D02*
X008780Y007527D01*
X008780Y007409D02*
X010310Y007409D01*
X010311Y007290D02*
X008780Y007290D01*
X008780Y007172D02*
X010361Y007172D01*
X010483Y007053D02*
X008780Y007053D01*
X008780Y006935D02*
X011320Y006935D01*
X011252Y006816D02*
X008780Y006816D01*
X008780Y006698D02*
X011112Y006698D01*
X010986Y006579D02*
X010866Y006579D01*
X010866Y006461D02*
X010986Y006461D01*
X010986Y006342D02*
X010866Y006342D01*
X010866Y006224D02*
X008780Y006224D01*
X008780Y006342D02*
X010510Y006342D01*
X010510Y006461D02*
X008780Y006461D01*
X008780Y006579D02*
X010534Y006579D01*
X010510Y006120D02*
X010510Y005844D01*
X010521Y005803D01*
X010542Y005767D01*
X010572Y005737D01*
X010608Y005716D01*
X010649Y005705D01*
X010866Y005705D01*
X010866Y006120D01*
X010510Y006120D01*
X010510Y006105D02*
X008780Y006105D01*
X008780Y005987D02*
X010510Y005987D01*
X010510Y005868D02*
X008780Y005868D01*
X008780Y005750D02*
X010559Y005750D01*
X010866Y005750D02*
X010986Y005750D01*
X010986Y005868D02*
X010866Y005868D01*
X010866Y005987D02*
X010986Y005987D01*
X010986Y006105D02*
X010866Y006105D01*
X011143Y005631D02*
X008780Y005631D01*
X008780Y005513D02*
X011320Y005513D01*
X011320Y005394D02*
X008780Y005394D01*
X008883Y005276D02*
X011209Y005276D01*
X011115Y005157D02*
X009002Y005157D01*
X009120Y005039D02*
X010496Y005039D01*
X010501Y005057D02*
X010490Y005016D01*
X010490Y004740D01*
X010846Y004740D01*
X010846Y005155D01*
X010629Y005155D01*
X010589Y005144D01*
X010552Y005123D01*
X010522Y005093D01*
X010501Y005057D01*
X010490Y004920D02*
X009239Y004920D01*
X009357Y004802D02*
X010490Y004802D01*
X010490Y004565D02*
X009594Y004565D01*
X009476Y004683D02*
X010846Y004683D01*
X010846Y004565D02*
X010966Y004565D01*
X010966Y004446D02*
X010846Y004446D01*
X010846Y004328D02*
X010966Y004328D01*
X010966Y004209D02*
X010846Y004209D01*
X010615Y004209D02*
X009950Y004209D01*
X010068Y004091D02*
X011203Y004091D01*
X011320Y003972D02*
X010187Y003972D01*
X010305Y003854D02*
X011130Y003854D01*
X010883Y003735D02*
X010424Y003735D01*
X010495Y004328D02*
X009831Y004328D01*
X009713Y004446D02*
X010490Y004446D01*
X010846Y004802D02*
X010966Y004802D01*
X010966Y004920D02*
X010846Y004920D01*
X010846Y005039D02*
X010966Y005039D01*
X009422Y003380D02*
X001260Y003380D01*
X001260Y003498D02*
X009303Y003498D01*
X009185Y003617D02*
X001260Y003617D01*
X001260Y003735D02*
X009066Y003735D01*
X008948Y003854D02*
X001260Y003854D01*
X001260Y003972D02*
X008829Y003972D01*
X008711Y004091D02*
X005471Y004091D01*
X005692Y004209D02*
X008592Y004209D01*
X008474Y004328D02*
X005810Y004328D01*
X005929Y004446D02*
X008355Y004446D01*
X008237Y004565D02*
X006047Y004565D01*
X006166Y004683D02*
X008118Y004683D01*
X008000Y004802D02*
X006284Y004802D01*
X006403Y004920D02*
X007888Y004920D01*
X007839Y005039D02*
X006521Y005039D01*
X006640Y005157D02*
X007820Y005157D01*
X007820Y005276D02*
X006758Y005276D01*
X006842Y005394D02*
X007820Y005394D01*
X007820Y005513D02*
X006891Y005513D01*
X006910Y005631D02*
X007820Y005631D01*
X007820Y005750D02*
X006910Y005750D01*
X006910Y005868D02*
X007820Y005868D01*
X007820Y005987D02*
X006910Y005987D01*
X006910Y006105D02*
X007820Y006105D01*
X007820Y006224D02*
X006910Y006224D01*
X006910Y006342D02*
X007820Y006342D01*
X007820Y006461D02*
X006953Y006461D01*
X006987Y006579D02*
X007820Y006579D01*
X007820Y006698D02*
X006987Y006698D01*
X006987Y006816D02*
X007820Y006816D01*
X007820Y006935D02*
X006938Y006935D01*
X006889Y007053D02*
X007820Y007053D01*
X007820Y007172D02*
X006991Y007172D01*
X007114Y007290D02*
X007234Y007290D01*
X007234Y007409D02*
X007114Y007409D01*
X007114Y007527D02*
X007234Y007527D01*
X007234Y007646D02*
X007656Y007646D01*
X007590Y007527D02*
X007774Y007527D01*
X007820Y007409D02*
X007590Y007409D01*
X007571Y007290D02*
X007820Y007290D01*
X007234Y007764D02*
X007114Y007764D01*
X007114Y007883D02*
X007234Y007883D01*
X007234Y008001D02*
X007114Y008001D01*
X007114Y008120D02*
X007182Y008120D01*
X007828Y008831D02*
X008730Y008831D01*
X008559Y008949D02*
X007710Y008949D01*
X007591Y009068D02*
X008445Y009068D01*
X008396Y009186D02*
X003266Y009186D01*
X003383Y009068D02*
X006009Y009068D01*
X005892Y008949D02*
X003432Y008949D01*
X003481Y008831D02*
X005843Y008831D01*
X005820Y008712D02*
X003487Y008712D01*
X003487Y008594D02*
X005820Y008594D01*
X005820Y008475D02*
X003459Y008475D01*
X003410Y008357D02*
X005820Y008357D01*
X005820Y008238D02*
X003410Y008238D01*
X003410Y008120D02*
X005820Y008120D01*
X005810Y008001D02*
X003410Y008001D01*
X003859Y007883D02*
X005810Y007883D01*
X005705Y007764D02*
X004039Y007764D01*
X004157Y007646D02*
X005587Y007646D01*
X005468Y007527D02*
X004276Y007527D01*
X004394Y007409D02*
X005350Y007409D01*
X005231Y007290D02*
X004513Y007290D01*
X004631Y007172D02*
X005113Y007172D01*
X004994Y007053D02*
X004750Y007053D01*
X003837Y006224D02*
X001260Y006224D01*
X001260Y006342D02*
X003735Y006342D01*
X003617Y006461D02*
X001260Y006461D01*
X001260Y006579D02*
X002072Y006579D01*
X001891Y006698D02*
X001260Y006698D01*
X001260Y006816D02*
X001827Y006816D01*
X001810Y006935D02*
X001260Y006935D01*
X001260Y007053D02*
X001810Y007053D01*
X001810Y007172D02*
X001260Y007172D01*
X001260Y007290D02*
X001810Y007290D01*
X001810Y007409D02*
X001260Y007409D01*
X001260Y007527D02*
X001810Y007527D01*
X001810Y007646D02*
X001260Y007646D01*
X001260Y007764D02*
X001833Y007764D01*
X001907Y007883D02*
X001260Y007883D01*
X001260Y008001D02*
X002190Y008001D01*
X002190Y008120D02*
X001260Y008120D01*
X001260Y008238D02*
X002190Y008238D01*
X002190Y008357D02*
X001260Y008357D01*
X001260Y008475D02*
X002141Y008475D01*
X002113Y008594D02*
X001260Y008594D01*
X001260Y008712D02*
X002113Y008712D01*
X002119Y008831D02*
X001260Y008831D01*
X001260Y008949D02*
X002168Y008949D01*
X002217Y009068D02*
X001260Y009068D01*
X001260Y009186D02*
X002334Y009186D01*
X002512Y009305D02*
X001260Y009305D01*
X001260Y009423D02*
X004958Y009423D01*
X004969Y009418D02*
X005134Y009418D01*
X005287Y009482D01*
X005404Y009598D01*
X005427Y009655D01*
X005484Y009678D01*
X005600Y009795D01*
X005664Y009948D01*
X005664Y010113D01*
X005600Y010265D01*
X005484Y010382D01*
X005427Y010406D01*
X005404Y010462D01*
X005287Y010579D01*
X005134Y010642D01*
X004969Y010642D01*
X004817Y010579D01*
X004700Y010462D01*
X004677Y010406D01*
X004620Y010382D01*
X004503Y010265D01*
X004440Y010113D01*
X004440Y009948D01*
X004503Y009795D01*
X004620Y009678D01*
X004677Y009655D01*
X004700Y009598D01*
X004817Y009482D01*
X004969Y009418D01*
X005145Y009423D02*
X008265Y009423D01*
X008346Y009305D02*
X003088Y009305D01*
X002860Y009542D02*
X004757Y009542D01*
X004664Y009660D02*
X002940Y009660D01*
X002940Y009779D02*
X004520Y009779D01*
X004461Y009897D02*
X002940Y009897D01*
X002940Y010016D02*
X004440Y010016D01*
X004449Y010134D02*
X002940Y010134D01*
X002940Y010253D02*
X004498Y010253D01*
X004609Y010371D02*
X002940Y010371D01*
X002940Y010490D02*
X004727Y010490D01*
X004887Y010608D02*
X002940Y010608D01*
X002940Y010727D02*
X006962Y010727D01*
X007080Y010608D02*
X005217Y010608D01*
X005376Y010490D02*
X007199Y010490D01*
X007317Y010371D02*
X005495Y010371D01*
X005606Y010253D02*
X007436Y010253D01*
X007554Y010134D02*
X005655Y010134D01*
X005664Y010016D02*
X007673Y010016D01*
X007791Y009897D02*
X005643Y009897D01*
X005584Y009779D02*
X007910Y009779D01*
X008028Y009660D02*
X005439Y009660D01*
X005347Y009542D02*
X008147Y009542D01*
X007947Y008712D02*
X009089Y008712D01*
X009208Y008594D02*
X008065Y008594D01*
X008184Y008475D02*
X009326Y008475D01*
X009445Y008357D02*
X008302Y008357D01*
X008421Y008238D02*
X009563Y008238D01*
X009682Y008120D02*
X008539Y008120D01*
X008658Y008001D02*
X009800Y008001D01*
X009919Y007883D02*
X008736Y007883D01*
X008780Y007764D02*
X010037Y007764D01*
X010156Y007646D02*
X008780Y007646D01*
X008545Y010727D02*
X009140Y010727D01*
X008956Y010845D02*
X008427Y010845D01*
X008308Y010964D02*
X008838Y010964D01*
X008719Y011082D02*
X008190Y011082D01*
X008071Y011201D02*
X008601Y011201D01*
X008482Y011319D02*
X007953Y011319D01*
X007834Y011438D02*
X008364Y011438D01*
X008245Y011556D02*
X007716Y011556D01*
X007597Y011675D02*
X008127Y011675D01*
X008008Y011793D02*
X007479Y011793D01*
X007360Y011912D02*
X007892Y011912D01*
X007843Y012030D02*
X007242Y012030D01*
X007123Y012149D02*
X007820Y012149D01*
X007820Y012267D02*
X007005Y012267D01*
X006886Y012386D02*
X007820Y012386D01*
X007820Y012504D02*
X006860Y012504D01*
X006860Y012623D02*
X007820Y012623D01*
X007820Y012741D02*
X006860Y012741D01*
X006860Y012860D02*
X007820Y012860D01*
X007820Y012978D02*
X006860Y012978D01*
X006860Y013097D02*
X007820Y013097D01*
X007820Y013215D02*
X006860Y013215D01*
X006860Y013334D02*
X007820Y013334D01*
X007820Y013452D02*
X006860Y013452D01*
X006860Y013571D02*
X007820Y013571D01*
X007820Y013689D02*
X006860Y013689D01*
X006860Y013808D02*
X007820Y013808D01*
X007820Y013926D02*
X006860Y013926D01*
X006860Y014045D02*
X007820Y014045D01*
X007820Y014163D02*
X006860Y014163D01*
X006860Y014282D02*
X007034Y014282D01*
X007280Y014282D02*
X007320Y014282D01*
X007320Y014210D02*
X007495Y014210D01*
X007770Y014485D01*
X007770Y014660D01*
X007320Y014660D01*
X007320Y014210D01*
X007320Y014400D02*
X007280Y014400D01*
X007280Y014519D02*
X007320Y014519D01*
X007320Y014637D02*
X007280Y014637D01*
X007320Y014700D02*
X007770Y014700D01*
X007770Y014875D01*
X007495Y015150D01*
X007320Y015150D01*
X007320Y014700D01*
X007320Y014756D02*
X007280Y014756D01*
X007280Y014874D02*
X007320Y014874D01*
X007320Y014993D02*
X007280Y014993D01*
X007280Y015111D02*
X007320Y015111D01*
X007534Y015111D02*
X008052Y015111D01*
X007934Y014993D02*
X007652Y014993D01*
X007770Y014874D02*
X007861Y014874D01*
X007820Y014756D02*
X007770Y014756D01*
X007770Y014637D02*
X007820Y014637D01*
X007820Y014519D02*
X007770Y014519D01*
X007820Y014400D02*
X007685Y014400D01*
X007566Y014282D02*
X007820Y014282D01*
X007066Y015111D02*
X006860Y015111D01*
X006860Y015230D02*
X008171Y015230D01*
X008289Y015348D02*
X006860Y015348D01*
X006860Y015467D02*
X008408Y015467D01*
X008526Y015585D02*
X006860Y015585D01*
X006860Y015704D02*
X008645Y015704D01*
X008763Y015822D02*
X006860Y015822D01*
X006860Y015941D02*
X008882Y015941D01*
X009000Y016059D02*
X006860Y016059D01*
X006860Y016178D02*
X009836Y016178D01*
X009942Y016296D02*
X006870Y016296D01*
X006948Y016415D02*
X011356Y016415D01*
X010031Y016533D02*
X009534Y016533D01*
X009743Y016652D02*
X009874Y016652D01*
X009066Y016533D02*
X006975Y016533D01*
X006975Y016652D02*
X008857Y016652D01*
X008738Y016770D02*
X006975Y016770D01*
X006975Y016889D02*
X008677Y016889D01*
X008628Y017007D02*
X006975Y017007D01*
X006975Y017126D02*
X008613Y017126D01*
X008613Y017244D02*
X006975Y017244D01*
X006975Y017363D02*
X008632Y017363D01*
X008681Y017481D02*
X006975Y017481D01*
X006975Y017600D02*
X008748Y017600D01*
X008866Y017718D02*
X006975Y017718D01*
X006975Y017837D02*
X009089Y017837D01*
X008670Y018074D02*
X006860Y018074D01*
X006945Y017955D02*
X013392Y017955D01*
X013541Y017600D02*
X014390Y017600D01*
X014390Y017718D02*
X011716Y017718D01*
X011546Y017837D02*
X014390Y017837D01*
X014390Y017481D02*
X013678Y017481D01*
X013796Y017363D02*
X014390Y017363D01*
X014390Y017244D02*
X013915Y017244D01*
X014217Y017126D02*
X014390Y017126D01*
X014390Y017007D02*
X014356Y017007D01*
X015797Y016889D02*
X015803Y016889D01*
X015803Y016965D02*
X015803Y016683D01*
X016210Y016683D01*
X016210Y016826D01*
X016199Y016867D01*
X016178Y016903D01*
X016148Y016933D01*
X016112Y016954D01*
X016071Y016965D01*
X015803Y016965D01*
X015797Y016770D02*
X015803Y016770D01*
X016187Y016889D02*
X017830Y016889D01*
X017711Y016770D02*
X016210Y016770D01*
X015083Y018548D02*
X015012Y018548D01*
X014469Y019496D02*
X020622Y019496D01*
X020503Y019614D02*
X013823Y019614D01*
X013872Y019733D02*
X020385Y019733D01*
X020266Y019851D02*
X013897Y019851D01*
X013897Y019970D02*
X020148Y019970D01*
X020029Y020088D02*
X013888Y020088D01*
X013839Y020207D02*
X019911Y020207D01*
X019792Y020325D02*
X013787Y020325D01*
X013668Y020444D02*
X019674Y020444D01*
X018789Y020562D02*
X017811Y020562D01*
X017764Y020515D02*
X017865Y020616D01*
X017920Y020748D01*
X017920Y021112D01*
X017892Y021180D01*
X017920Y021248D01*
X017920Y021612D01*
X017892Y021680D01*
X017920Y021748D01*
X017920Y022112D01*
X017892Y022180D01*
X017920Y022248D01*
X017920Y022612D01*
X017865Y022744D01*
X017764Y022845D01*
X017632Y022900D01*
X017380Y022900D01*
X017355Y022910D01*
X014245Y022910D01*
X014220Y022900D01*
X013968Y022900D01*
X013836Y022845D01*
X013735Y022744D01*
X013680Y022612D01*
X013680Y022248D01*
X013708Y022180D01*
X013680Y022112D01*
X013680Y021748D01*
X013708Y021680D01*
X013680Y021612D01*
X013680Y021248D01*
X013708Y021180D01*
X013680Y021112D01*
X013680Y020748D01*
X013735Y020616D01*
X013836Y020515D01*
X013968Y020460D01*
X014220Y020460D01*
X014245Y020450D01*
X017355Y020450D01*
X017380Y020460D01*
X017632Y020460D01*
X017764Y020515D01*
X017892Y020681D02*
X018708Y020681D01*
X018680Y020799D02*
X017920Y020799D01*
X017920Y020918D02*
X018680Y020918D01*
X018680Y021036D02*
X017920Y021036D01*
X017902Y021155D02*
X018698Y021155D01*
X018680Y021273D02*
X017920Y021273D01*
X017920Y021392D02*
X018680Y021392D01*
X018680Y021510D02*
X017920Y021510D01*
X017913Y021629D02*
X018687Y021629D01*
X018681Y021747D02*
X017919Y021747D01*
X017920Y021866D02*
X018680Y021866D01*
X018680Y021984D02*
X017920Y021984D01*
X017920Y022103D02*
X018680Y022103D01*
X018691Y022221D02*
X017909Y022221D01*
X017920Y022340D02*
X018680Y022340D01*
X018680Y022458D02*
X017920Y022458D01*
X017920Y022577D02*
X018680Y022577D01*
X018715Y022695D02*
X017885Y022695D01*
X017796Y022814D02*
X018804Y022814D01*
X020161Y022932D02*
X009201Y022932D01*
X008479Y022932D02*
X005939Y022932D01*
X005987Y022814D02*
X008304Y022814D01*
X008215Y022695D02*
X007100Y022695D01*
X007216Y022577D02*
X008180Y022577D01*
X008180Y022458D02*
X007220Y022458D01*
X007220Y022340D02*
X008180Y022340D01*
X008191Y022221D02*
X007187Y022221D01*
X007209Y022103D02*
X008180Y022103D01*
X008180Y021984D02*
X007220Y021984D01*
X007220Y021866D02*
X008180Y021866D01*
X008181Y021747D02*
X007203Y021747D01*
X007194Y021629D02*
X008187Y021629D01*
X008180Y021510D02*
X007220Y021510D01*
X007220Y021430D02*
X006864Y021430D01*
X006864Y021430D01*
X007220Y021430D01*
X007220Y021392D02*
X008180Y021392D01*
X008180Y021273D02*
X007336Y021273D01*
X007402Y021155D02*
X008198Y021155D01*
X008180Y021036D02*
X007420Y021036D01*
X007420Y020918D02*
X008180Y020918D01*
X008180Y020799D02*
X007420Y020799D01*
X007392Y020681D02*
X008190Y020681D01*
X008190Y020562D02*
X007311Y020562D01*
X006518Y020325D02*
X008190Y020325D01*
X008190Y020207D02*
X008123Y020207D01*
X008190Y020444D02*
X006399Y020444D01*
X006300Y021510D02*
X006149Y021510D01*
X006030Y021629D02*
X006326Y021629D01*
X006317Y021747D02*
X005912Y021747D01*
X005793Y021866D02*
X006300Y021866D01*
X006300Y021984D02*
X005780Y021984D01*
X005780Y022103D02*
X006311Y022103D01*
X006333Y022221D02*
X005813Y022221D01*
X005903Y022340D02*
X006300Y022340D01*
X006300Y022458D02*
X005952Y022458D01*
X005987Y022577D02*
X006304Y022577D01*
X006420Y022695D02*
X005987Y022695D01*
X005890Y023051D02*
X020210Y023051D01*
X020317Y023169D02*
X005783Y023169D01*
X005629Y023288D02*
X020471Y023288D01*
X021129Y023288D02*
X024710Y023288D01*
X024710Y023406D02*
X004250Y023406D01*
X004250Y023288D02*
X004971Y023288D01*
X004817Y023169D02*
X004250Y023169D01*
X004250Y023051D02*
X004710Y023051D01*
X004661Y022932D02*
X004250Y022932D01*
X004250Y022814D02*
X004613Y022814D01*
X004613Y022695D02*
X004250Y022695D01*
X004266Y022577D02*
X004613Y022577D01*
X004648Y022458D02*
X004385Y022458D01*
X004503Y022340D02*
X004697Y022340D01*
X004622Y022221D02*
X004787Y022221D01*
X004820Y022103D02*
X004740Y022103D01*
X003844Y021273D02*
X001260Y021273D01*
X001260Y021155D02*
X003963Y021155D01*
X004081Y021036D02*
X001260Y021036D01*
X001260Y020918D02*
X004200Y020918D01*
X004318Y020799D02*
X001260Y020799D01*
X001260Y020681D02*
X004437Y020681D01*
X004555Y020562D02*
X001260Y020562D01*
X001260Y020444D02*
X004674Y020444D01*
X004792Y020325D02*
X001260Y020325D01*
X001260Y020207D02*
X004911Y020207D01*
X005029Y020088D02*
X001260Y020088D01*
X001260Y019970D02*
X005148Y019970D01*
X005266Y019851D02*
X001260Y019851D01*
X001260Y019733D02*
X005385Y019733D01*
X005503Y019614D02*
X001260Y019614D01*
X001260Y019496D02*
X005622Y019496D01*
X005625Y019377D02*
X001260Y019377D01*
X001260Y019259D02*
X005625Y019259D01*
X005636Y019140D02*
X001260Y019140D01*
X001260Y019022D02*
X005625Y019022D01*
X005625Y018903D02*
X001260Y018903D01*
X001260Y018785D02*
X005625Y018785D01*
X005625Y018666D02*
X001260Y018666D01*
X001260Y018548D02*
X005625Y018548D01*
X005637Y018429D02*
X001260Y018429D01*
X001260Y018311D02*
X005696Y018311D01*
X005861Y018192D02*
X001260Y018192D01*
X001260Y018074D02*
X005740Y018074D01*
X005655Y017955D02*
X001260Y017955D01*
X001260Y017837D02*
X002462Y017837D01*
X002380Y017718D02*
X001260Y017718D01*
X001260Y017600D02*
X002350Y017600D01*
X002350Y017481D02*
X001260Y017481D01*
X001260Y017363D02*
X002350Y017363D01*
X002350Y017244D02*
X001260Y017244D01*
X001260Y017126D02*
X002350Y017126D01*
X002350Y017007D02*
X001260Y017007D01*
X001260Y016889D02*
X002350Y016889D01*
X002350Y016770D02*
X001260Y016770D01*
X001260Y016652D02*
X002350Y016652D01*
X002350Y016533D02*
X001260Y016533D01*
X001260Y016415D02*
X002350Y016415D01*
X002374Y016296D02*
X001260Y016296D01*
X001260Y016178D02*
X002448Y016178D01*
X001260Y016059D02*
X005740Y016059D01*
X005740Y015941D02*
X001260Y015941D01*
X001260Y015822D02*
X005740Y015822D01*
X005740Y015704D02*
X001260Y015704D01*
X001260Y015585D02*
X005740Y015585D01*
X005740Y015467D02*
X001260Y015467D01*
X001260Y015348D02*
X005740Y015348D01*
X005740Y015230D02*
X001260Y015230D01*
X001260Y015111D02*
X005740Y015111D01*
X005665Y014993D02*
X001260Y014993D01*
X001260Y014874D02*
X003879Y014874D01*
X003919Y014914D02*
X003803Y014797D01*
X003739Y014645D01*
X003739Y014086D01*
X003757Y014043D01*
X003739Y014000D01*
X003739Y013442D01*
X003798Y013300D01*
X003793Y013287D01*
X003739Y013159D01*
X003739Y012994D01*
X003791Y012869D01*
X003803Y012841D01*
X003841Y012803D01*
X003803Y012765D01*
X003803Y012765D01*
X003803Y012765D01*
X003793Y012741D01*
X002940Y012741D01*
X002940Y012623D02*
X003744Y012623D01*
X003739Y012613D02*
X003739Y012152D01*
X003803Y012000D01*
X003919Y011883D01*
X004072Y011820D01*
X004828Y011820D01*
X004980Y011883D01*
X005097Y012000D01*
X005160Y012152D01*
X005160Y012613D01*
X005122Y012705D01*
X005160Y012797D01*
X005160Y012962D01*
X005113Y013076D01*
X005160Y013191D01*
X005160Y013356D01*
X005101Y013497D01*
X005160Y013638D01*
X005160Y013803D01*
X005097Y013956D01*
X005010Y014043D01*
X005097Y014130D01*
X005160Y014283D01*
X005160Y014448D01*
X005097Y014601D01*
X004980Y014717D01*
X004828Y014780D01*
X004513Y014780D01*
X004506Y014797D01*
X004390Y014914D01*
X004237Y014977D01*
X004072Y014977D01*
X003919Y014914D01*
X003785Y014756D02*
X002922Y014756D01*
X002940Y014637D02*
X003739Y014637D01*
X003739Y014519D02*
X002940Y014519D01*
X002940Y014400D02*
X003739Y014400D01*
X003739Y014282D02*
X002940Y014282D01*
X002940Y014163D02*
X003739Y014163D01*
X003757Y014045D02*
X002940Y014045D01*
X002940Y013926D02*
X003739Y013926D01*
X003739Y013808D02*
X002940Y013808D01*
X002940Y013689D02*
X003739Y013689D01*
X003739Y013571D02*
X002940Y013571D01*
X002940Y013452D02*
X003739Y013452D01*
X003784Y013334D02*
X002940Y013334D01*
X002940Y013215D02*
X003763Y013215D01*
X003739Y013097D02*
X002940Y013097D01*
X002940Y012978D02*
X003746Y012978D01*
X003795Y012860D02*
X002940Y012860D01*
X002940Y012504D02*
X003739Y012504D01*
X003739Y012613D02*
X003793Y012741D01*
X003803Y012841D02*
X003803Y012841D01*
X003803Y012841D01*
X003739Y012386D02*
X002940Y012386D01*
X002940Y012267D02*
X003739Y012267D01*
X003741Y012149D02*
X002940Y012149D01*
X002940Y012030D02*
X003790Y012030D01*
X003891Y011912D02*
X002940Y011912D01*
X002940Y011793D02*
X005895Y011793D01*
X005805Y011912D02*
X005008Y011912D01*
X005109Y012030D02*
X005756Y012030D01*
X005740Y012149D02*
X005158Y012149D01*
X005160Y012267D02*
X005740Y012267D01*
X005740Y012386D02*
X005160Y012386D01*
X005160Y012504D02*
X005740Y012504D01*
X005740Y012623D02*
X005156Y012623D01*
X005137Y012741D02*
X005740Y012741D01*
X005740Y012860D02*
X005160Y012860D01*
X005153Y012978D02*
X005740Y012978D01*
X005740Y013097D02*
X005121Y013097D01*
X005160Y013215D02*
X005740Y013215D01*
X005740Y013334D02*
X005160Y013334D01*
X005120Y013452D02*
X005740Y013452D01*
X005740Y013571D02*
X005132Y013571D01*
X005160Y013689D02*
X005740Y013689D01*
X005740Y013808D02*
X005158Y013808D01*
X005109Y013926D02*
X005740Y013926D01*
X005740Y014045D02*
X005011Y014045D01*
X005110Y014163D02*
X005740Y014163D01*
X005740Y014282D02*
X005159Y014282D01*
X005160Y014400D02*
X005632Y014400D01*
X005630Y014519D02*
X005131Y014519D01*
X005060Y014637D02*
X005630Y014637D01*
X005630Y014756D02*
X004888Y014756D01*
X004430Y014874D02*
X005630Y014874D01*
X006935Y014993D02*
X006948Y014993D01*
X005625Y017244D02*
X004250Y017244D01*
X004250Y017363D02*
X005625Y017363D01*
X005625Y017481D02*
X004250Y017481D01*
X004250Y017600D02*
X005625Y017600D01*
X005625Y017718D02*
X004220Y017718D01*
X004138Y017837D02*
X005625Y017837D01*
X006739Y018192D02*
X008425Y018192D01*
X008307Y018311D02*
X006904Y018311D01*
X006963Y018429D02*
X008188Y018429D01*
X008283Y018334D02*
X008283Y018334D01*
X008070Y018548D02*
X006975Y018548D01*
X006975Y018666D02*
X007951Y018666D01*
X007833Y018785D02*
X006975Y018785D01*
X006975Y018903D02*
X007714Y018903D01*
X007596Y019022D02*
X006975Y019022D01*
X006760Y021510D02*
X006760Y021510D01*
X006760Y021629D02*
X006760Y021629D01*
X006760Y021747D02*
X006760Y021747D01*
X006760Y021866D02*
X006760Y021866D01*
X006760Y021984D02*
X006760Y021984D01*
X006760Y022103D02*
X006760Y022103D01*
X006760Y022221D02*
X006760Y022221D01*
X006760Y022340D02*
X006760Y022340D01*
X006760Y022458D02*
X006760Y022458D01*
X006760Y022577D02*
X006760Y022577D01*
X006760Y022695D02*
X006760Y022695D01*
X004250Y023525D02*
X024710Y023525D01*
X024710Y023643D02*
X004250Y023643D01*
X004250Y023762D02*
X024705Y023762D01*
X024673Y023880D02*
X004228Y023880D01*
X004156Y023999D02*
X024609Y023999D01*
X024489Y024117D02*
X001481Y024117D01*
X001361Y023999D02*
X002444Y023999D01*
X002372Y023880D02*
X001297Y023880D01*
X001300Y023892D02*
X001300Y023892D01*
X001265Y023762D02*
X002350Y023762D01*
X002350Y023643D02*
X001260Y023643D01*
X001260Y023525D02*
X002350Y023525D01*
X002350Y023406D02*
X001260Y023406D01*
X001260Y023288D02*
X002350Y023288D01*
X002350Y023169D02*
X001260Y023169D01*
X001260Y023051D02*
X002350Y023051D01*
X002350Y022932D02*
X001260Y022932D01*
X001260Y022814D02*
X002350Y022814D01*
X002350Y022695D02*
X001260Y022695D01*
X001260Y022577D02*
X002350Y022577D01*
X002381Y022458D02*
X001260Y022458D01*
X001260Y022340D02*
X002466Y022340D01*
X002896Y022221D02*
X001260Y022221D01*
X001260Y022103D02*
X003015Y022103D01*
X003133Y021984D02*
X001260Y021984D01*
X001260Y021866D02*
X003252Y021866D01*
X003370Y021747D02*
X001260Y021747D01*
X001260Y021629D02*
X003489Y021629D01*
X003607Y021510D02*
X001260Y021510D01*
X001260Y021392D02*
X003726Y021392D01*
X004094Y016120D02*
X004094Y016120D01*
X002940Y011675D02*
X006014Y011675D01*
X006132Y011556D02*
X002940Y011556D01*
X002940Y011438D02*
X006251Y011438D01*
X006369Y011319D02*
X002940Y011319D01*
X002940Y011201D02*
X006488Y011201D01*
X006606Y011082D02*
X002940Y011082D01*
X002940Y010964D02*
X006725Y010964D01*
X006843Y010845D02*
X002940Y010845D01*
X003822Y006105D02*
X001260Y006105D01*
X001260Y005987D02*
X003704Y005987D01*
X003585Y005868D02*
X001260Y005868D01*
X001260Y005750D02*
X001996Y005750D01*
X001863Y005631D02*
X001260Y005631D01*
X001260Y005513D02*
X001814Y005513D01*
X001810Y005394D02*
X001260Y005394D01*
X001260Y005276D02*
X001810Y005276D01*
X001810Y005157D02*
X001260Y005157D01*
X001260Y005039D02*
X001810Y005039D01*
X001810Y004920D02*
X001260Y004920D01*
X001260Y004802D02*
X001810Y004802D01*
X001810Y004683D02*
X001260Y004683D01*
X001260Y004565D02*
X001846Y004565D01*
X001938Y004446D02*
X001260Y004446D01*
X001260Y004328D02*
X003790Y004328D01*
X003671Y004446D02*
X003662Y004446D01*
X003908Y004209D02*
X001260Y004209D01*
X001260Y004091D02*
X004129Y004091D01*
X001260Y003261D02*
X009540Y003261D01*
X009659Y003143D02*
X001260Y003143D01*
X001260Y003024D02*
X009777Y003024D01*
X009896Y002906D02*
X001260Y002906D01*
X001260Y002787D02*
X007751Y002787D01*
X007690Y002669D02*
X001260Y002669D01*
X001260Y002550D02*
X007690Y002550D01*
X007690Y002432D02*
X001260Y002432D01*
X001260Y002313D02*
X007690Y002313D01*
X007690Y002195D02*
X001260Y002195D01*
X001260Y002076D02*
X007690Y002076D01*
X007690Y001958D02*
X001260Y001958D01*
X001260Y001839D02*
X007690Y001839D01*
X007690Y001721D02*
X001260Y001721D01*
X001260Y001602D02*
X007690Y001602D01*
X007690Y001484D02*
X001260Y001484D01*
X001260Y001365D02*
X007690Y001365D01*
X007690Y001247D02*
X001260Y001247D01*
X001262Y001128D02*
X007690Y001128D01*
X007690Y001010D02*
X001288Y001010D01*
X001342Y000891D02*
X007690Y000891D01*
X007690Y000773D02*
X001441Y000773D01*
X001680Y000654D02*
X007690Y000654D01*
X021553Y011319D02*
X023160Y011319D01*
X023160Y011201D02*
X021751Y011201D01*
X021870Y011082D02*
X023160Y011082D01*
X023160Y010964D02*
X021926Y010964D01*
X021975Y010845D02*
X023160Y010845D01*
X023160Y010727D02*
X021987Y010727D01*
X021987Y010608D02*
X023160Y010608D01*
X023160Y010490D02*
X021965Y010490D01*
X021916Y010371D02*
X023160Y010371D01*
X023160Y010253D02*
X021910Y010253D01*
X021910Y010134D02*
X023160Y010134D01*
X023160Y010016D02*
X021910Y010016D01*
X021910Y009897D02*
X023160Y009897D01*
X023160Y009779D02*
X021910Y009779D01*
X021910Y009660D02*
X023160Y009660D01*
X023160Y009542D02*
X021910Y009542D01*
X021910Y009423D02*
X023160Y009423D01*
X023160Y009305D02*
X021910Y009305D01*
X021910Y009186D02*
X023160Y009186D01*
X023214Y009068D02*
X021910Y009068D01*
X021910Y008949D02*
X024710Y008949D01*
X024710Y008831D02*
X021910Y008831D01*
X021910Y008712D02*
X024710Y008712D01*
X024710Y008594D02*
X021910Y008594D01*
X023054Y008475D02*
X024710Y008475D01*
X024710Y008357D02*
X024323Y008357D01*
X024127Y008357D02*
X023472Y008357D01*
X023277Y008357D02*
X023219Y008357D01*
X023678Y008238D02*
X023922Y008238D01*
X023834Y008120D02*
X023765Y008120D01*
X024528Y008238D02*
X024710Y008238D01*
X024710Y008120D02*
X024616Y008120D01*
X024660Y008001D02*
X024710Y008001D01*
X024710Y007883D02*
X024660Y007883D01*
X024660Y007764D02*
X024710Y007764D01*
X024710Y007646D02*
X024660Y007646D01*
X024660Y007527D02*
X024710Y007527D01*
X024710Y007409D02*
X024660Y007409D01*
X024660Y007290D02*
X024710Y007290D01*
X024710Y007172D02*
X024618Y007172D01*
X024617Y007053D02*
X024710Y007053D01*
X024710Y006935D02*
X024660Y006935D01*
X024660Y006816D02*
X024710Y006816D01*
X024710Y006698D02*
X024660Y006698D01*
X024660Y006579D02*
X024710Y006579D01*
X024710Y006461D02*
X024646Y006461D01*
X024597Y006342D02*
X024710Y006342D01*
X024710Y006224D02*
X024641Y006224D01*
X024664Y006105D02*
X024710Y006105D01*
X024710Y005987D02*
X024655Y005987D01*
X024606Y005868D02*
X024710Y005868D01*
X024710Y005750D02*
X024600Y005750D01*
X024649Y005631D02*
X024710Y005631D01*
X024710Y005513D02*
X024660Y005513D01*
X024645Y005394D02*
X024710Y005394D01*
X024710Y005276D02*
X024650Y005276D01*
X024660Y005157D02*
X024710Y005157D01*
X024710Y005039D02*
X024660Y005039D01*
X024660Y004920D02*
X024710Y004920D01*
X024710Y004802D02*
X024660Y004802D01*
X024660Y004683D02*
X024710Y004683D01*
X024710Y004565D02*
X024660Y004565D01*
X024633Y004446D02*
X024710Y004446D01*
X024710Y004328D02*
X024602Y004328D01*
X024651Y004209D02*
X024710Y004209D01*
X024710Y004091D02*
X024660Y004091D01*
X024660Y003972D02*
X024710Y003972D01*
X024710Y003854D02*
X024660Y003854D01*
X024660Y003735D02*
X024710Y003735D01*
X024710Y003617D02*
X024613Y003617D01*
X024623Y003498D02*
X024710Y003498D01*
X024710Y003380D02*
X024660Y003380D01*
X024660Y003261D02*
X024710Y003261D01*
X024710Y003143D02*
X024621Y003143D01*
X024571Y003024D02*
X024710Y003024D01*
X024710Y002906D02*
X024633Y002906D01*
X024660Y002787D02*
X024710Y002787D01*
X024710Y002669D02*
X024660Y002669D01*
X024611Y002550D02*
X024710Y002550D01*
X024710Y002432D02*
X024517Y002432D01*
X024710Y014400D02*
X022410Y014400D01*
X022410Y014519D02*
X024280Y014519D01*
X024184Y014637D02*
X022410Y014637D01*
X022410Y014756D02*
X024043Y014756D01*
X022540Y014874D02*
X022410Y014874D01*
X019302Y017837D02*
X019298Y017837D01*
X021439Y022932D02*
X024710Y022932D01*
X024710Y023051D02*
X021390Y023051D01*
X021283Y023169D02*
X024710Y023169D01*
X013804Y022814D02*
X012796Y022814D01*
X012885Y022695D02*
X013715Y022695D01*
X013680Y022577D02*
X012920Y022577D01*
X012920Y022458D02*
X013680Y022458D01*
X013680Y022340D02*
X012920Y022340D01*
X012909Y022221D02*
X013691Y022221D01*
X013680Y022103D02*
X012920Y022103D01*
X012920Y021984D02*
X013680Y021984D01*
X013680Y021866D02*
X012920Y021866D01*
X012919Y021747D02*
X013681Y021747D01*
X013687Y021629D02*
X012913Y021629D01*
X012920Y021510D02*
X013680Y021510D01*
X013680Y021392D02*
X012920Y021392D01*
X012920Y021273D02*
X013680Y021273D01*
X013698Y021155D02*
X012902Y021155D01*
X012920Y021036D02*
X013680Y021036D01*
X013680Y020918D02*
X012951Y020918D01*
X013070Y020799D02*
X013680Y020799D01*
X013708Y020681D02*
X013188Y020681D01*
X013480Y020562D02*
X013789Y020562D01*
X010802Y017837D02*
X010798Y017837D01*
X010054Y017837D02*
X009511Y017837D01*
X009734Y017718D02*
X009884Y017718D01*
X009832Y017620D02*
X009832Y017620D01*
M02*
