G75*
G70*
%OFA0B0*%
%FSLAX24Y24*%
%IPPOS*%
%LPD*%
%AMOC8*
5,1,8,0,0,1.08239X$1,22.5*
%
%ADD10C,0.0000*%
%ADD11OC8,0.0700*%
%ADD12C,0.0780*%
%ADD13OC8,0.0892*%
%ADD14C,0.0734*%
D10*
X000800Y001164D02*
X000800Y023692D01*
X000802Y023754D01*
X000808Y023815D01*
X000817Y023876D01*
X000831Y023937D01*
X000848Y023996D01*
X000869Y024054D01*
X000894Y024111D01*
X000922Y024166D01*
X000953Y024219D01*
X000988Y024270D01*
X001026Y024319D01*
X001067Y024366D01*
X001110Y024409D01*
X001157Y024450D01*
X001206Y024488D01*
X001257Y024523D01*
X001310Y024554D01*
X001365Y024582D01*
X001422Y024607D01*
X001480Y024628D01*
X001539Y024645D01*
X001600Y024659D01*
X001661Y024668D01*
X001722Y024674D01*
X001784Y024676D01*
X024186Y024676D01*
X024248Y024674D01*
X024309Y024668D01*
X024370Y024659D01*
X024431Y024645D01*
X024490Y024628D01*
X024548Y024607D01*
X024605Y024582D01*
X024660Y024554D01*
X024713Y024523D01*
X024764Y024488D01*
X024813Y024450D01*
X024860Y024409D01*
X024903Y024366D01*
X024944Y024319D01*
X024982Y024270D01*
X025017Y024219D01*
X025048Y024166D01*
X025076Y024111D01*
X025101Y024054D01*
X025122Y023996D01*
X025139Y023937D01*
X025153Y023876D01*
X025162Y023815D01*
X025168Y023754D01*
X025170Y023692D01*
X025170Y001164D01*
X025168Y001102D01*
X025162Y001041D01*
X025153Y000980D01*
X025139Y000919D01*
X025122Y000860D01*
X025101Y000802D01*
X025076Y000745D01*
X025048Y000690D01*
X025017Y000637D01*
X024982Y000586D01*
X024944Y000537D01*
X024903Y000490D01*
X024860Y000447D01*
X024813Y000406D01*
X024764Y000368D01*
X024713Y000333D01*
X024660Y000302D01*
X024605Y000274D01*
X024548Y000249D01*
X024490Y000228D01*
X024431Y000211D01*
X024370Y000197D01*
X024309Y000188D01*
X024248Y000182D01*
X024186Y000180D01*
X001784Y000180D01*
X001722Y000182D01*
X001661Y000188D01*
X001600Y000197D01*
X001539Y000211D01*
X001480Y000228D01*
X001422Y000249D01*
X001365Y000274D01*
X001310Y000302D01*
X001257Y000333D01*
X001206Y000368D01*
X001157Y000406D01*
X001110Y000447D01*
X001067Y000490D01*
X001026Y000537D01*
X000988Y000586D01*
X000953Y000637D01*
X000922Y000690D01*
X000894Y000745D01*
X000869Y000802D01*
X000848Y000860D01*
X000831Y000919D01*
X000817Y000980D01*
X000808Y001041D01*
X000802Y001102D01*
X000800Y001164D01*
D11*
X006300Y014680D03*
X007300Y014680D03*
X019800Y002180D03*
X019800Y001180D03*
D12*
X012300Y001330D02*
X012300Y002030D01*
X011300Y002030D02*
X011300Y001330D01*
X010300Y001330D02*
X010300Y002030D01*
X009300Y002030D02*
X009300Y001330D01*
X008300Y001330D02*
X008300Y002030D01*
X022950Y018180D02*
X023650Y018180D01*
X023650Y019180D02*
X022950Y019180D01*
X022950Y020180D02*
X023650Y020180D01*
X023650Y021180D02*
X022950Y021180D01*
X022950Y022180D02*
X023650Y022180D01*
D13*
X024111Y013204D03*
X024111Y010251D03*
X001989Y010656D03*
X001989Y013609D03*
D14*
X002800Y008680D03*
X006300Y006680D03*
X009030Y009450D03*
X012800Y013180D03*
X009300Y014180D03*
X009300Y017180D03*
X013210Y019930D03*
X008300Y023680D03*
X007300Y023680D03*
X006300Y023680D03*
X005300Y022680D03*
X016800Y011180D03*
X019800Y013180D03*
X020800Y015680D03*
X020800Y017180D03*
X020800Y022680D03*
X021300Y010680D03*
X018300Y005680D03*
X014300Y002180D03*
X012300Y003180D03*
X011300Y003180D03*
X001800Y001180D03*
X024300Y001180D03*
X024300Y002180D03*
M02*
