G75*
G70*
%OFA0B0*%
%FSLAX24Y24*%
%IPPOS*%
%LPD*%
%AMOC8*
5,1,8,0,0,1.08239X$1,22.5*
%
%ADD10C,0.0000*%
%ADD11C,0.0150*%
%ADD12OC8,0.0620*%
%ADD13C,0.0700*%
%ADD14OC8,0.0812*%
%ADD15C,0.0654*%
%ADD16C,0.0240*%
%ADD17C,0.0500*%
%ADD18C,0.0300*%
%ADD19C,0.0160*%
%ADD20C,0.0100*%
D10*
X000800Y001164D02*
X000800Y023692D01*
X000802Y023754D01*
X000808Y023815D01*
X000817Y023876D01*
X000831Y023937D01*
X000848Y023996D01*
X000869Y024054D01*
X000894Y024111D01*
X000922Y024166D01*
X000953Y024219D01*
X000988Y024270D01*
X001026Y024319D01*
X001067Y024366D01*
X001110Y024409D01*
X001157Y024450D01*
X001206Y024488D01*
X001257Y024523D01*
X001310Y024554D01*
X001365Y024582D01*
X001422Y024607D01*
X001480Y024628D01*
X001539Y024645D01*
X001600Y024659D01*
X001661Y024668D01*
X001722Y024674D01*
X001784Y024676D01*
X024186Y024676D01*
X024248Y024674D01*
X024309Y024668D01*
X024370Y024659D01*
X024431Y024645D01*
X024490Y024628D01*
X024548Y024607D01*
X024605Y024582D01*
X024660Y024554D01*
X024713Y024523D01*
X024764Y024488D01*
X024813Y024450D01*
X024860Y024409D01*
X024903Y024366D01*
X024944Y024319D01*
X024982Y024270D01*
X025017Y024219D01*
X025048Y024166D01*
X025076Y024111D01*
X025101Y024054D01*
X025122Y023996D01*
X025139Y023937D01*
X025153Y023876D01*
X025162Y023815D01*
X025168Y023754D01*
X025170Y023692D01*
X025170Y001164D01*
X025168Y001102D01*
X025162Y001041D01*
X025153Y000980D01*
X025139Y000919D01*
X025122Y000860D01*
X025101Y000802D01*
X025076Y000745D01*
X025048Y000690D01*
X025017Y000637D01*
X024982Y000586D01*
X024944Y000537D01*
X024903Y000490D01*
X024860Y000447D01*
X024813Y000406D01*
X024764Y000368D01*
X024713Y000333D01*
X024660Y000302D01*
X024605Y000274D01*
X024548Y000249D01*
X024490Y000228D01*
X024431Y000211D01*
X024370Y000197D01*
X024309Y000188D01*
X024248Y000182D01*
X024186Y000180D01*
X001784Y000180D01*
X001722Y000182D01*
X001661Y000188D01*
X001600Y000197D01*
X001539Y000211D01*
X001480Y000228D01*
X001422Y000249D01*
X001365Y000274D01*
X001310Y000302D01*
X001257Y000333D01*
X001206Y000368D01*
X001157Y000406D01*
X001110Y000447D01*
X001067Y000490D01*
X001026Y000537D01*
X000988Y000586D01*
X000953Y000637D01*
X000922Y000690D01*
X000894Y000745D01*
X000869Y000802D01*
X000848Y000860D01*
X000831Y000919D01*
X000817Y000980D01*
X000808Y001041D01*
X000802Y001102D01*
X000800Y001164D01*
D11*
X009300Y001680D02*
X009300Y003680D01*
X011300Y005680D01*
X018300Y005680D01*
X012300Y003180D02*
X012300Y001680D01*
X011300Y001680D02*
X011300Y003180D01*
X012800Y013180D02*
X019800Y013180D01*
X020800Y015680D02*
X023300Y018180D01*
X023300Y019180D02*
X022800Y019180D01*
X020800Y017180D01*
X005868Y018120D02*
X005726Y018120D01*
X005442Y018120D02*
X004875Y018120D01*
X004875Y018261D02*
X004875Y017978D01*
X004875Y017624D02*
X005442Y017624D01*
X005442Y017978D02*
X005442Y018120D01*
X005442Y018592D02*
X004875Y018592D01*
X005442Y018592D02*
X005442Y019017D01*
X005300Y019159D01*
X004875Y019159D01*
X005017Y019512D02*
X004875Y019654D01*
X004875Y019938D01*
X005017Y020080D01*
X005300Y020080D01*
X005442Y019938D01*
X005442Y019654D01*
X005300Y019512D01*
X005017Y019512D01*
X004226Y019359D02*
X003659Y019359D01*
X003375Y019643D01*
X003659Y019926D01*
X004226Y019926D01*
X003800Y020280D02*
X003800Y020847D01*
X003375Y020705D02*
X004226Y020705D01*
X003800Y020280D01*
X002726Y020587D02*
X002726Y020728D01*
X001875Y020728D01*
X001875Y020587D02*
X001875Y020870D01*
X001875Y021201D02*
X001875Y021484D01*
X001875Y021342D02*
X002442Y021342D01*
X002442Y021201D01*
X002726Y021342D02*
X002868Y021342D01*
X002300Y021814D02*
X002442Y021956D01*
X002442Y022382D01*
X002159Y022240D02*
X002159Y021956D01*
X002300Y021814D01*
X001875Y021814D02*
X001875Y022240D01*
X002017Y022382D01*
X002159Y022240D01*
X002300Y022735D02*
X002442Y022877D01*
X002442Y023161D01*
X002300Y023302D01*
X001875Y023302D01*
X001875Y022735D02*
X002726Y022735D01*
X004875Y021000D02*
X005442Y020433D01*
X004875Y020433D02*
X005442Y021000D01*
X002442Y020091D02*
X002442Y019808D01*
X002442Y020091D02*
X002300Y020233D01*
X001875Y020233D01*
X001875Y019808D01*
X002017Y019666D01*
X002159Y019808D01*
X002159Y020233D01*
X002159Y019312D02*
X002159Y018745D01*
X002300Y018745D02*
X002017Y018745D01*
X001875Y018887D01*
X001875Y019170D01*
X002159Y019312D02*
X002300Y019312D01*
X002442Y019170D01*
X002442Y018887D01*
X002300Y018745D01*
X002442Y018403D02*
X002442Y018261D01*
X002159Y017978D01*
X002442Y017978D02*
X001875Y017978D01*
X002017Y017624D02*
X002300Y017624D01*
X002300Y017341D01*
X002584Y017624D02*
X002726Y017482D01*
X002726Y017199D01*
X002584Y017057D01*
X002017Y017057D01*
X001875Y017199D01*
X001875Y017482D01*
X002017Y017624D01*
X003375Y017801D02*
X004226Y017801D01*
X004226Y017517D02*
X004226Y018085D01*
X004875Y017624D02*
X004875Y017199D01*
X005017Y017057D01*
X005442Y017057D01*
X005442Y016703D02*
X005442Y016278D01*
X005300Y016136D01*
X005017Y016136D01*
X004875Y016278D01*
X004875Y016703D01*
X004591Y016703D02*
X005442Y016703D01*
X005017Y015818D02*
X004875Y015818D01*
X004875Y015676D01*
X005017Y015676D01*
X005017Y015818D01*
X005159Y015322D02*
X005159Y014755D01*
X005300Y014755D02*
X005442Y014897D01*
X005442Y015180D01*
X005300Y015322D01*
X005159Y015322D01*
X004875Y015180D02*
X004875Y014897D01*
X005017Y014755D01*
X005300Y014755D01*
X004226Y014755D02*
X003942Y015039D01*
X004226Y015322D01*
X003375Y015322D01*
X003375Y015676D02*
X004226Y015676D01*
X004226Y016101D01*
X004084Y016243D01*
X003800Y016243D01*
X003659Y016101D01*
X003659Y015676D01*
X003659Y016597D02*
X003659Y017022D01*
X003800Y017164D01*
X004084Y017164D01*
X004226Y017022D01*
X004226Y016597D01*
X003375Y016597D01*
X002442Y015322D02*
X001875Y015322D01*
X001875Y015676D02*
X001875Y015818D01*
X002017Y015818D01*
X002017Y015676D01*
X001875Y015676D01*
X002300Y015322D02*
X002300Y014755D01*
X002442Y014755D02*
X002726Y015039D01*
X002442Y015322D01*
X002442Y014755D02*
X001875Y014755D01*
X003375Y014755D02*
X004226Y014755D01*
D12*
X006300Y014680D03*
X007300Y014680D03*
X019800Y002180D03*
X019800Y001180D03*
D13*
X012300Y001330D02*
X012300Y002030D01*
X011300Y002030D02*
X011300Y001330D01*
X010300Y001330D02*
X010300Y002030D01*
X009300Y002030D02*
X009300Y001330D01*
X008300Y001330D02*
X008300Y002030D01*
X022950Y018180D02*
X023650Y018180D01*
X023650Y019180D02*
X022950Y019180D01*
X022950Y020180D02*
X023650Y020180D01*
X023650Y021180D02*
X022950Y021180D01*
X022950Y022180D02*
X023650Y022180D01*
D14*
X024111Y013204D03*
X024111Y010251D03*
X001989Y010656D03*
X001989Y013609D03*
D15*
X002800Y008680D03*
X006300Y006680D03*
X009030Y009450D03*
X012800Y013180D03*
X009300Y014180D03*
X009300Y017180D03*
X013210Y019930D03*
X008300Y023680D03*
X007300Y023680D03*
X006300Y023680D03*
X005300Y022680D03*
X016800Y011180D03*
X019800Y013180D03*
X020800Y015680D03*
X020800Y017180D03*
X020800Y022680D03*
X021300Y010680D03*
X018300Y005680D03*
X014300Y002180D03*
X012300Y003180D03*
X011300Y003180D03*
X001800Y001180D03*
X024300Y001180D03*
X024300Y002180D03*
D16*
X014300Y002180D02*
X012800Y000680D01*
X010300Y000680D01*
X010300Y001680D01*
X019800Y013180D02*
X019800Y017680D01*
X020800Y018680D01*
X020800Y022680D01*
X013210Y019930D02*
X009300Y016020D01*
X009300Y014180D01*
D17*
X008800Y009180D02*
X006300Y006680D01*
X002800Y008680D02*
X002800Y010680D01*
X002300Y010680D01*
X021300Y010680D02*
X023800Y013180D01*
X024111Y013204D01*
D18*
X021300Y010680D02*
X017300Y010680D01*
X016800Y011180D01*
X009030Y009450D02*
X008800Y009180D01*
D19*
X009250Y008739D02*
X024690Y008739D01*
X024690Y008581D02*
X009091Y008581D01*
X008933Y008422D02*
X024690Y008422D01*
X024690Y008264D02*
X008774Y008264D01*
X008616Y008105D02*
X024690Y008105D01*
X024690Y007947D02*
X008457Y007947D01*
X008299Y007788D02*
X024690Y007788D01*
X024690Y007630D02*
X008140Y007630D01*
X007982Y007471D02*
X024690Y007471D01*
X024690Y007313D02*
X007823Y007313D01*
X007665Y007154D02*
X024690Y007154D01*
X024690Y006996D02*
X007506Y006996D01*
X007348Y006837D02*
X024690Y006837D01*
X024690Y006679D02*
X007189Y006679D01*
X007031Y006520D02*
X024690Y006520D01*
X024690Y006362D02*
X018503Y006362D01*
X018441Y006387D02*
X018159Y006387D01*
X017899Y006280D01*
X017755Y006135D01*
X011209Y006135D01*
X011042Y006066D01*
X009042Y004066D01*
X008914Y003938D01*
X008845Y003771D01*
X008845Y002607D01*
X008681Y002444D01*
X008668Y002412D01*
X008645Y002434D01*
X008578Y002483D01*
X008503Y002521D01*
X008424Y002547D01*
X008342Y002560D01*
X008320Y002560D01*
X008320Y001700D01*
X008280Y001700D01*
X008280Y002560D01*
X008258Y002560D01*
X008176Y002547D01*
X008097Y002521D01*
X008022Y002483D01*
X007955Y002434D01*
X007896Y002375D01*
X007847Y002308D01*
X007809Y002233D01*
X007783Y002154D01*
X007770Y002072D01*
X007770Y001700D01*
X008280Y001700D01*
X008280Y001660D01*
X008320Y001660D01*
X008320Y000800D01*
X008342Y000800D01*
X008424Y000813D01*
X008503Y000839D01*
X008578Y000877D01*
X008645Y000926D01*
X008668Y000948D01*
X008681Y000916D01*
X008886Y000711D01*
X009010Y000660D01*
X001784Y000660D01*
X001718Y000664D01*
X001591Y000698D01*
X001477Y000764D01*
X001384Y000857D01*
X001318Y000971D01*
X001284Y001098D01*
X001280Y001164D01*
X001280Y010254D01*
X001663Y009870D01*
X002170Y009870D01*
X002170Y009007D01*
X002093Y008821D01*
X002093Y008539D01*
X002200Y008279D01*
X002399Y008080D01*
X002659Y007973D01*
X002941Y007973D01*
X003201Y008080D01*
X003400Y008279D01*
X003507Y008539D01*
X003507Y008821D01*
X003430Y009007D01*
X003430Y010805D01*
X003334Y011037D01*
X003157Y011214D01*
X002925Y011310D01*
X002447Y011310D01*
X002315Y011442D01*
X001663Y011442D01*
X001280Y011059D01*
X001280Y023692D01*
X001284Y023758D01*
X001318Y023885D01*
X001318Y023885D01*
X001384Y023999D01*
X001477Y024092D01*
X001591Y024158D01*
X001718Y024192D01*
X001784Y024196D01*
X024186Y024196D01*
X024252Y024192D01*
X024379Y024158D01*
X024493Y024092D01*
X024586Y023999D01*
X024652Y023885D01*
X024686Y023758D01*
X024690Y023692D01*
X024690Y013736D01*
X024437Y013990D01*
X023785Y013990D01*
X023561Y013765D01*
X023537Y013753D01*
X023443Y013714D01*
X023426Y013697D01*
X023404Y013686D01*
X023338Y013609D01*
X021086Y011357D01*
X020899Y011280D01*
X020830Y011210D01*
X017520Y011210D01*
X017507Y011222D01*
X017507Y011321D01*
X017400Y011581D01*
X017201Y011780D01*
X016941Y011887D01*
X016659Y011887D01*
X016399Y011780D01*
X016200Y011581D01*
X016093Y011321D01*
X016093Y011039D01*
X016200Y010779D01*
X016399Y010580D01*
X016659Y010473D01*
X016758Y010473D01*
X016851Y010380D01*
X017000Y010231D01*
X017195Y010150D01*
X020830Y010150D01*
X020899Y010080D01*
X021159Y009973D01*
X021441Y009973D01*
X021701Y010080D01*
X021900Y010279D01*
X021977Y010466D01*
X023929Y012418D01*
X024437Y012418D01*
X024690Y012671D01*
X024690Y010500D01*
X024354Y010837D01*
X024159Y010837D01*
X024159Y010299D01*
X024063Y010299D01*
X024063Y010837D01*
X023868Y010837D01*
X023525Y010494D01*
X023525Y010299D01*
X024063Y010299D01*
X024063Y010203D01*
X023525Y010203D01*
X023525Y010008D01*
X023868Y009665D01*
X024063Y009665D01*
X024063Y010203D01*
X024159Y010203D01*
X024159Y009665D01*
X024354Y009665D01*
X024690Y010001D01*
X024690Y001164D01*
X024686Y001098D01*
X024652Y000971D01*
X024586Y000857D01*
X024493Y000764D01*
X024379Y000698D01*
X024252Y000664D01*
X024186Y000660D01*
X013487Y000660D01*
X014300Y001473D01*
X014441Y001473D01*
X014701Y001580D01*
X014900Y001779D01*
X015007Y002039D01*
X015007Y002321D01*
X014900Y002581D01*
X014701Y002780D01*
X014441Y002887D01*
X014159Y002887D01*
X013899Y002780D01*
X013700Y002581D01*
X013593Y002321D01*
X013593Y002180D01*
X013030Y001617D01*
X013030Y002175D01*
X012919Y002444D01*
X012755Y002607D01*
X012755Y002635D01*
X012900Y002779D01*
X013007Y003039D01*
X013007Y003321D01*
X012900Y003581D01*
X012701Y003780D01*
X012441Y003887D01*
X012159Y003887D01*
X011899Y003780D01*
X011800Y003680D01*
X011701Y003780D01*
X011441Y003887D01*
X011159Y003887D01*
X010899Y003780D01*
X010700Y003581D01*
X010593Y003321D01*
X010593Y003039D01*
X010700Y002779D01*
X010845Y002635D01*
X010845Y002607D01*
X010800Y002562D01*
X010714Y002649D01*
X010445Y002760D01*
X010155Y002760D01*
X009886Y002649D01*
X009800Y002562D01*
X009755Y002607D01*
X009755Y003492D01*
X011488Y005225D01*
X017755Y005225D01*
X017899Y005080D01*
X018159Y004973D01*
X018441Y004973D01*
X018701Y005080D01*
X018900Y005279D01*
X019007Y005539D01*
X019007Y005821D01*
X018900Y006081D01*
X018701Y006280D01*
X018441Y006387D01*
X018097Y006362D02*
X006934Y006362D01*
X006900Y006279D02*
X006977Y006466D01*
X009313Y008802D01*
X009431Y008850D01*
X009630Y009049D01*
X009737Y009309D01*
X009737Y009591D01*
X009630Y009851D01*
X009431Y010050D01*
X009171Y010157D01*
X008889Y010157D01*
X008629Y010050D01*
X008430Y009851D01*
X008325Y009596D01*
X006086Y007357D01*
X005899Y007280D01*
X005700Y007081D01*
X005593Y006821D01*
X005593Y006539D01*
X005700Y006279D01*
X005899Y006080D01*
X006159Y005973D01*
X006441Y005973D01*
X006701Y006080D01*
X006900Y006279D01*
X006823Y006203D02*
X017823Y006203D01*
X018777Y006203D02*
X024690Y006203D01*
X024690Y006045D02*
X018914Y006045D01*
X018980Y005886D02*
X024690Y005886D01*
X024690Y005728D02*
X019007Y005728D01*
X019007Y005569D02*
X024690Y005569D01*
X024690Y005411D02*
X018954Y005411D01*
X018872Y005252D02*
X024690Y005252D01*
X024690Y005094D02*
X018714Y005094D01*
X017886Y005094D02*
X011357Y005094D01*
X011198Y004935D02*
X024690Y004935D01*
X024690Y004777D02*
X011040Y004777D01*
X010881Y004618D02*
X024690Y004618D01*
X024690Y004460D02*
X010723Y004460D01*
X010564Y004301D02*
X024690Y004301D01*
X024690Y004143D02*
X010406Y004143D01*
X010247Y003984D02*
X024690Y003984D01*
X024690Y003826D02*
X012590Y003826D01*
X012813Y003667D02*
X024690Y003667D01*
X024690Y003509D02*
X012929Y003509D01*
X012995Y003350D02*
X024690Y003350D01*
X024690Y003192D02*
X013007Y003192D01*
X013005Y003033D02*
X024690Y003033D01*
X024690Y002875D02*
X014471Y002875D01*
X014764Y002716D02*
X019360Y002716D01*
X019514Y002870D02*
X019110Y002466D01*
X019110Y001894D01*
X019466Y001539D01*
X019310Y001383D01*
X019310Y001180D01*
X019800Y001180D01*
X020290Y001180D01*
X020290Y001383D01*
X020134Y001539D01*
X020490Y001894D01*
X020490Y002466D01*
X020086Y002870D01*
X019514Y002870D01*
X019202Y002558D02*
X014909Y002558D01*
X014975Y002399D02*
X019110Y002399D01*
X019110Y002241D02*
X015007Y002241D01*
X015007Y002082D02*
X019110Y002082D01*
X019110Y001924D02*
X014959Y001924D01*
X014885Y001765D02*
X019239Y001765D01*
X019398Y001607D02*
X014727Y001607D01*
X014275Y001448D02*
X019375Y001448D01*
X019310Y001290D02*
X014117Y001290D01*
X013958Y001131D02*
X019310Y001131D01*
X019310Y001180D02*
X019310Y000977D01*
X019597Y000690D01*
X019800Y000690D01*
X020003Y000690D01*
X020290Y000977D01*
X020290Y001180D01*
X019800Y001180D01*
X019800Y001180D01*
X019800Y001180D01*
X019800Y000690D01*
X019800Y001180D01*
X019800Y001180D01*
X019310Y001180D01*
X019315Y000973D02*
X013800Y000973D01*
X013641Y000814D02*
X019473Y000814D01*
X019800Y000814D02*
X019800Y000814D01*
X019800Y000973D02*
X019800Y000973D01*
X019800Y001131D02*
X019800Y001131D01*
X020127Y000814D02*
X024543Y000814D01*
X024652Y000973D02*
X020285Y000973D01*
X020290Y001131D02*
X024688Y001131D01*
X024690Y001290D02*
X020290Y001290D01*
X020225Y001448D02*
X024690Y001448D01*
X024690Y001607D02*
X020202Y001607D01*
X020361Y001765D02*
X024690Y001765D01*
X024690Y001924D02*
X020490Y001924D01*
X020490Y002082D02*
X024690Y002082D01*
X024690Y002241D02*
X020490Y002241D01*
X020490Y002399D02*
X024690Y002399D01*
X024690Y002558D02*
X020398Y002558D01*
X020240Y002716D02*
X024690Y002716D01*
X024690Y008898D02*
X009478Y008898D01*
X009632Y009056D02*
X024690Y009056D01*
X024690Y009215D02*
X009698Y009215D01*
X009737Y009373D02*
X024690Y009373D01*
X024690Y009532D02*
X009737Y009532D01*
X009696Y009690D02*
X023843Y009690D01*
X024063Y009690D02*
X024159Y009690D01*
X024159Y009849D02*
X024063Y009849D01*
X024063Y010007D02*
X024159Y010007D01*
X024159Y010166D02*
X024063Y010166D01*
X024063Y010324D02*
X024159Y010324D01*
X024159Y010483D02*
X024063Y010483D01*
X024063Y010641D02*
X024159Y010641D01*
X024159Y010800D02*
X024063Y010800D01*
X023831Y010800D02*
X022310Y010800D01*
X022469Y010958D02*
X024690Y010958D01*
X024690Y010800D02*
X024391Y010800D01*
X024549Y010641D02*
X024690Y010641D01*
X024690Y011117D02*
X022627Y011117D01*
X022786Y011275D02*
X024690Y011275D01*
X024690Y011434D02*
X022944Y011434D01*
X023103Y011592D02*
X024690Y011592D01*
X024690Y011751D02*
X023261Y011751D01*
X023420Y011909D02*
X024690Y011909D01*
X024690Y012068D02*
X023578Y012068D01*
X023737Y012226D02*
X024690Y012226D01*
X024690Y012385D02*
X023895Y012385D01*
X024562Y012543D02*
X024690Y012543D01*
X024690Y013811D02*
X024615Y013811D01*
X024690Y013970D02*
X024457Y013970D01*
X024690Y014128D02*
X020300Y014128D01*
X020300Y013970D02*
X023765Y013970D01*
X023607Y013811D02*
X020300Y013811D01*
X020300Y013680D02*
X020300Y015180D01*
X020399Y015080D01*
X020659Y014973D01*
X020941Y014973D01*
X021201Y015080D01*
X021400Y015279D01*
X021507Y015539D01*
X021507Y015744D01*
X023213Y017450D01*
X023795Y017450D01*
X024064Y017561D01*
X024269Y017766D01*
X024380Y018035D01*
X024380Y018325D01*
X024269Y018594D01*
X024182Y018680D01*
X024269Y018766D01*
X024380Y019035D01*
X024380Y019325D01*
X024269Y019594D01*
X024064Y019799D01*
X024032Y019812D01*
X024054Y019835D01*
X024103Y019902D01*
X024141Y019977D01*
X024167Y020056D01*
X024180Y020138D01*
X024180Y020160D01*
X023320Y020160D01*
X023320Y020200D01*
X024180Y020200D01*
X024180Y020222D01*
X024167Y020304D01*
X024141Y020383D01*
X024103Y020458D01*
X024054Y020525D01*
X023995Y020584D01*
X023928Y020633D01*
X023853Y020671D01*
X023826Y020680D01*
X023853Y020689D01*
X023928Y020727D01*
X023995Y020776D01*
X024054Y020835D01*
X024103Y020902D01*
X024141Y020977D01*
X024167Y021056D01*
X024180Y021138D01*
X024180Y021160D01*
X023320Y021160D01*
X023320Y021200D01*
X024180Y021200D01*
X024180Y021222D01*
X024167Y021304D01*
X024141Y021383D01*
X024103Y021458D01*
X024054Y021525D01*
X023995Y021584D01*
X023928Y021633D01*
X023853Y021671D01*
X023826Y021680D01*
X023853Y021689D01*
X023928Y021727D01*
X023995Y021776D01*
X024054Y021835D01*
X024103Y021902D01*
X024141Y021977D01*
X024167Y022056D01*
X024180Y022138D01*
X024180Y022160D01*
X023320Y022160D01*
X023320Y022200D01*
X023280Y022200D01*
X023280Y022710D01*
X022908Y022710D01*
X022826Y022697D01*
X022747Y022671D01*
X022672Y022633D01*
X022605Y022584D01*
X022546Y022525D01*
X022497Y022458D01*
X022459Y022383D01*
X022433Y022304D01*
X022420Y022222D01*
X022420Y022200D01*
X023280Y022200D01*
X023280Y022160D01*
X022420Y022160D01*
X022420Y022138D01*
X022433Y022056D01*
X022459Y021977D01*
X022497Y021902D01*
X022546Y021835D01*
X022605Y021776D01*
X022672Y021727D01*
X022747Y021689D01*
X022774Y021680D01*
X022747Y021671D01*
X022672Y021633D01*
X022605Y021584D01*
X022546Y021525D01*
X022497Y021458D01*
X022459Y021383D01*
X022433Y021304D01*
X022420Y021222D01*
X022420Y021200D01*
X023280Y021200D01*
X023280Y021710D01*
X023280Y022160D01*
X023320Y022160D01*
X023320Y021200D01*
X023280Y021200D01*
X023280Y021160D01*
X022420Y021160D01*
X022420Y021138D01*
X022433Y021056D01*
X022459Y020977D01*
X022497Y020902D01*
X022546Y020835D01*
X022605Y020776D01*
X022672Y020727D01*
X022747Y020689D01*
X022774Y020680D01*
X022747Y020671D01*
X022672Y020633D01*
X022605Y020584D01*
X022546Y020525D01*
X022497Y020458D01*
X022459Y020383D01*
X022433Y020304D01*
X022420Y020222D01*
X022420Y020200D01*
X023280Y020200D01*
X023280Y020650D01*
X023280Y021160D01*
X023320Y021160D01*
X023320Y020200D01*
X023280Y020200D01*
X023280Y020160D01*
X022420Y020160D01*
X022420Y020138D01*
X022433Y020056D01*
X022459Y019977D01*
X022497Y019902D01*
X022546Y019835D01*
X022568Y019812D01*
X022536Y019799D01*
X022331Y019594D01*
X022220Y019325D01*
X022220Y019243D01*
X020864Y017887D01*
X020714Y017887D01*
X021224Y018397D01*
X021300Y018581D01*
X021300Y022180D01*
X021400Y022279D01*
X021507Y022539D01*
X021507Y022821D01*
X021400Y023081D01*
X021201Y023280D01*
X020941Y023387D01*
X020659Y023387D01*
X020399Y023280D01*
X020200Y023081D01*
X020093Y022821D01*
X020093Y022539D01*
X020200Y022279D01*
X020300Y022180D01*
X020300Y018887D01*
X019517Y018104D01*
X019376Y017963D01*
X019300Y017779D01*
X019300Y013680D01*
X019255Y013635D01*
X013345Y013635D01*
X013201Y013780D01*
X012941Y013887D01*
X012659Y013887D01*
X012399Y013780D01*
X012200Y013581D01*
X012093Y013321D01*
X012093Y013039D01*
X012200Y012779D01*
X012399Y012580D01*
X012659Y012473D01*
X012941Y012473D01*
X013201Y012580D01*
X013345Y012725D01*
X019255Y012725D01*
X019399Y012580D01*
X019659Y012473D01*
X019941Y012473D01*
X020201Y012580D01*
X020400Y012779D01*
X020507Y013039D01*
X020507Y013321D01*
X020400Y013581D01*
X020300Y013680D01*
X020328Y013653D02*
X023375Y013653D01*
X023223Y013494D02*
X020435Y013494D01*
X020501Y013336D02*
X023065Y013336D01*
X022906Y013177D02*
X020507Y013177D01*
X020499Y013019D02*
X022748Y013019D01*
X022589Y012860D02*
X020433Y012860D01*
X020322Y012702D02*
X022431Y012702D01*
X022272Y012543D02*
X020110Y012543D01*
X019490Y012543D02*
X013110Y012543D01*
X013322Y012702D02*
X019278Y012702D01*
X019272Y013653D02*
X013328Y013653D01*
X013124Y013811D02*
X019300Y013811D01*
X019300Y013970D02*
X009978Y013970D01*
X010007Y014039D02*
X009900Y013779D01*
X009701Y013580D01*
X009441Y013473D01*
X009159Y013473D01*
X008899Y013580D01*
X008700Y013779D01*
X008593Y014039D01*
X008593Y014321D01*
X008700Y014581D01*
X008800Y014680D01*
X008800Y016119D01*
X008876Y016303D01*
X009079Y016506D01*
X008899Y016580D01*
X008700Y016779D01*
X008593Y017039D01*
X008593Y017321D01*
X008700Y017581D01*
X008840Y017720D01*
X008840Y018489D01*
X005357Y021973D01*
X005159Y021973D01*
X004899Y022080D01*
X004700Y022279D01*
X004593Y022539D01*
X004593Y022821D01*
X004700Y023081D01*
X004899Y023280D01*
X005159Y023387D01*
X005441Y023387D01*
X005701Y023280D01*
X005900Y023081D01*
X006007Y022821D01*
X006007Y022623D01*
X009690Y018941D01*
X009760Y018771D01*
X009760Y017720D01*
X009900Y017581D01*
X009974Y017401D01*
X012503Y019930D01*
X012503Y020071D01*
X012610Y020331D01*
X012809Y020530D01*
X013069Y020637D01*
X013351Y020637D01*
X013611Y020530D01*
X013810Y020331D01*
X013917Y020071D01*
X013917Y019789D01*
X013810Y019529D01*
X013611Y019330D01*
X013351Y019223D01*
X013210Y019223D01*
X009800Y015813D01*
X009800Y014680D01*
X009900Y014581D01*
X010007Y014321D01*
X010007Y014039D01*
X010007Y014128D02*
X019300Y014128D01*
X019300Y014287D02*
X010007Y014287D01*
X009956Y014445D02*
X019300Y014445D01*
X019300Y014604D02*
X009877Y014604D01*
X009800Y014762D02*
X019300Y014762D01*
X019300Y014921D02*
X009800Y014921D01*
X009800Y015079D02*
X019300Y015079D01*
X019300Y015238D02*
X009800Y015238D01*
X009800Y015396D02*
X019300Y015396D01*
X019300Y015555D02*
X009800Y015555D01*
X009800Y015713D02*
X019300Y015713D01*
X019300Y015872D02*
X009859Y015872D01*
X010017Y016030D02*
X019300Y016030D01*
X019300Y016189D02*
X010176Y016189D01*
X010334Y016347D02*
X019300Y016347D01*
X019300Y016506D02*
X010493Y016506D01*
X010651Y016664D02*
X019300Y016664D01*
X019300Y016823D02*
X010810Y016823D01*
X010968Y016981D02*
X019300Y016981D01*
X019300Y017140D02*
X011127Y017140D01*
X011285Y017298D02*
X019300Y017298D01*
X019300Y017457D02*
X011444Y017457D01*
X011602Y017615D02*
X019300Y017615D01*
X019300Y017774D02*
X011761Y017774D01*
X011919Y017932D02*
X019363Y017932D01*
X019503Y018091D02*
X012078Y018091D01*
X012236Y018249D02*
X019662Y018249D01*
X019820Y018408D02*
X012395Y018408D01*
X012553Y018566D02*
X019979Y018566D01*
X020137Y018725D02*
X012712Y018725D01*
X012870Y018883D02*
X020296Y018883D01*
X020300Y019042D02*
X013029Y019042D01*
X013187Y019200D02*
X020300Y019200D01*
X020300Y019359D02*
X013639Y019359D01*
X013797Y019517D02*
X020300Y019517D01*
X020300Y019676D02*
X013870Y019676D01*
X013917Y019834D02*
X020300Y019834D01*
X020300Y019993D02*
X013917Y019993D01*
X013884Y020151D02*
X020300Y020151D01*
X020300Y020310D02*
X013818Y020310D01*
X013672Y020468D02*
X020300Y020468D01*
X020300Y020627D02*
X013376Y020627D01*
X013044Y020627D02*
X008004Y020627D01*
X007846Y020785D02*
X020300Y020785D01*
X020300Y020944D02*
X007687Y020944D01*
X007529Y021102D02*
X020300Y021102D01*
X020300Y021261D02*
X007370Y021261D01*
X007212Y021419D02*
X020300Y021419D01*
X020300Y021578D02*
X007053Y021578D01*
X006895Y021736D02*
X020300Y021736D01*
X020300Y021895D02*
X006736Y021895D01*
X006578Y022053D02*
X020300Y022053D01*
X020268Y022212D02*
X006419Y022212D01*
X006261Y022370D02*
X020163Y022370D01*
X020097Y022529D02*
X006102Y022529D01*
X006007Y022687D02*
X020093Y022687D01*
X020103Y022846D02*
X005997Y022846D01*
X005931Y023004D02*
X020169Y023004D01*
X020282Y023163D02*
X005818Y023163D01*
X005600Y023321D02*
X020500Y023321D01*
X021100Y023321D02*
X024690Y023321D01*
X024690Y023163D02*
X021318Y023163D01*
X021431Y023004D02*
X024690Y023004D01*
X024690Y022846D02*
X021497Y022846D01*
X021507Y022687D02*
X022795Y022687D01*
X022549Y022529D02*
X021503Y022529D01*
X021437Y022370D02*
X022454Y022370D01*
X022420Y022212D02*
X021332Y022212D01*
X021300Y022053D02*
X022434Y022053D01*
X022502Y021895D02*
X021300Y021895D01*
X021300Y021736D02*
X022659Y021736D01*
X022598Y021578D02*
X021300Y021578D01*
X021300Y021419D02*
X022477Y021419D01*
X022426Y021261D02*
X021300Y021261D01*
X021300Y021102D02*
X022426Y021102D01*
X022476Y020944D02*
X021300Y020944D01*
X021300Y020785D02*
X022595Y020785D01*
X022663Y020627D02*
X021300Y020627D01*
X021300Y020468D02*
X022504Y020468D01*
X022435Y020310D02*
X021300Y020310D01*
X021300Y020151D02*
X022420Y020151D01*
X022454Y019993D02*
X021300Y019993D01*
X021300Y019834D02*
X022546Y019834D01*
X022413Y019676D02*
X021300Y019676D01*
X021300Y019517D02*
X022299Y019517D01*
X022234Y019359D02*
X021300Y019359D01*
X021300Y019200D02*
X022177Y019200D01*
X022018Y019042D02*
X021300Y019042D01*
X021300Y018883D02*
X021860Y018883D01*
X021701Y018725D02*
X021300Y018725D01*
X021294Y018566D02*
X021543Y018566D01*
X021384Y018408D02*
X021228Y018408D01*
X021226Y018249D02*
X021076Y018249D01*
X021067Y018091D02*
X020918Y018091D01*
X020909Y017932D02*
X020759Y017932D01*
X022269Y016506D02*
X024690Y016506D01*
X024690Y016664D02*
X022427Y016664D01*
X022586Y016823D02*
X024690Y016823D01*
X024690Y016981D02*
X022744Y016981D01*
X022903Y017140D02*
X024690Y017140D01*
X024690Y017298D02*
X023061Y017298D01*
X023811Y017457D02*
X024690Y017457D01*
X024690Y017615D02*
X024117Y017615D01*
X024272Y017774D02*
X024690Y017774D01*
X024690Y017932D02*
X024337Y017932D01*
X024380Y018091D02*
X024690Y018091D01*
X024690Y018249D02*
X024380Y018249D01*
X024346Y018408D02*
X024690Y018408D01*
X024690Y018566D02*
X024280Y018566D01*
X024227Y018725D02*
X024690Y018725D01*
X024690Y018883D02*
X024317Y018883D01*
X024380Y019042D02*
X024690Y019042D01*
X024690Y019200D02*
X024380Y019200D01*
X024366Y019359D02*
X024690Y019359D01*
X024690Y019517D02*
X024301Y019517D01*
X024187Y019676D02*
X024690Y019676D01*
X024690Y019834D02*
X024054Y019834D01*
X024146Y019993D02*
X024690Y019993D01*
X024690Y020151D02*
X024180Y020151D01*
X024165Y020310D02*
X024690Y020310D01*
X024690Y020468D02*
X024096Y020468D01*
X023937Y020627D02*
X024690Y020627D01*
X024690Y020785D02*
X024005Y020785D01*
X024124Y020944D02*
X024690Y020944D01*
X024690Y021102D02*
X024174Y021102D01*
X024174Y021261D02*
X024690Y021261D01*
X024690Y021419D02*
X024123Y021419D01*
X024002Y021578D02*
X024690Y021578D01*
X024690Y021736D02*
X023941Y021736D01*
X024098Y021895D02*
X024690Y021895D01*
X024690Y022053D02*
X024166Y022053D01*
X024180Y022200D02*
X024180Y022222D01*
X024167Y022304D01*
X024141Y022383D01*
X024103Y022458D01*
X024054Y022525D01*
X023995Y022584D01*
X023928Y022633D01*
X023853Y022671D01*
X023774Y022697D01*
X023692Y022710D01*
X023320Y022710D01*
X023320Y022200D01*
X024180Y022200D01*
X024180Y022212D02*
X024690Y022212D01*
X024690Y022370D02*
X024146Y022370D01*
X024051Y022529D02*
X024690Y022529D01*
X024690Y022687D02*
X023805Y022687D01*
X023320Y022687D02*
X023280Y022687D01*
X023280Y022529D02*
X023320Y022529D01*
X023320Y022370D02*
X023280Y022370D01*
X023280Y022212D02*
X023320Y022212D01*
X023320Y022053D02*
X023280Y022053D01*
X023280Y021895D02*
X023320Y021895D01*
X023320Y021736D02*
X023280Y021736D01*
X023280Y021578D02*
X023320Y021578D01*
X023320Y021419D02*
X023280Y021419D01*
X023280Y021261D02*
X023320Y021261D01*
X023320Y021102D02*
X023280Y021102D01*
X023280Y020944D02*
X023320Y020944D01*
X023320Y020785D02*
X023280Y020785D01*
X023280Y020627D02*
X023320Y020627D01*
X023320Y020468D02*
X023280Y020468D01*
X023280Y020310D02*
X023320Y020310D01*
X024690Y023480D02*
X002767Y023480D01*
X002828Y023418D02*
X002686Y023560D01*
X002558Y023688D01*
X002391Y023757D01*
X001784Y023757D01*
X001617Y023688D01*
X001489Y023560D01*
X001420Y023393D01*
X001420Y023212D01*
X001489Y023045D01*
X001515Y023019D01*
X001489Y022993D01*
X001420Y022826D01*
X001420Y022645D01*
X001485Y022487D01*
X001420Y022330D01*
X001420Y021724D01*
X001451Y021649D01*
X001420Y021575D01*
X001420Y021110D01*
X001451Y021035D01*
X001420Y020961D01*
X001420Y020496D01*
X001456Y020410D01*
X001420Y020324D01*
X001420Y019717D01*
X001489Y019550D01*
X001550Y019489D01*
X001489Y019428D01*
X001420Y019261D01*
X001420Y018796D01*
X001489Y018629D01*
X001631Y018487D01*
X001715Y018404D01*
X001617Y018363D01*
X001489Y018235D01*
X001420Y018068D01*
X001420Y017887D01*
X001485Y017730D01*
X001420Y017573D01*
X001420Y017108D01*
X001489Y016941D01*
X001617Y016813D01*
X001759Y016671D01*
X001926Y016602D01*
X002674Y016602D01*
X002746Y016631D01*
X002842Y016671D01*
X002846Y016675D01*
X002964Y016794D01*
X002920Y016687D01*
X002920Y016506D01*
X002989Y016339D01*
X003117Y016211D01*
X003204Y016175D01*
X003204Y016097D01*
X003117Y016062D01*
X002989Y015934D01*
X002920Y015766D01*
X002920Y015585D01*
X002956Y015499D01*
X002942Y015466D01*
X002828Y015580D01*
X002700Y015708D01*
X002533Y015777D01*
X002472Y015777D01*
X002472Y015908D01*
X002403Y016075D01*
X002275Y016203D01*
X002107Y016273D01*
X001784Y016273D01*
X001617Y016203D01*
X001489Y016075D01*
X001420Y015908D01*
X001420Y015585D01*
X001456Y015499D01*
X001420Y015413D01*
X001420Y015232D01*
X001489Y015064D01*
X001515Y015039D01*
X001489Y015013D01*
X001420Y014846D01*
X001420Y014664D01*
X001489Y014497D01*
X001617Y014369D01*
X001784Y014300D01*
X002533Y014300D01*
X002537Y014302D01*
X002700Y014369D01*
X002828Y014497D01*
X002942Y014611D01*
X002989Y014497D01*
X003117Y014369D01*
X003284Y014300D01*
X004316Y014300D01*
X004387Y014330D01*
X004483Y014369D01*
X004483Y014369D01*
X004485Y014371D01*
X004611Y014497D01*
X004617Y014511D01*
X004631Y014497D01*
X004759Y014369D01*
X004926Y014300D01*
X005391Y014300D01*
X005558Y014369D01*
X005610Y014421D01*
X005610Y014394D01*
X006014Y013990D01*
X006586Y013990D01*
X006941Y014346D01*
X007097Y014190D01*
X007300Y014190D01*
X007503Y014190D01*
X007790Y014477D01*
X007790Y014680D01*
X007790Y014883D01*
X007503Y015170D01*
X007300Y015170D01*
X007300Y014680D01*
X007790Y014680D01*
X007300Y014680D01*
X007300Y014680D01*
X007300Y014680D01*
X007300Y014190D01*
X007300Y014680D01*
X007300Y014680D01*
X007300Y015170D01*
X007097Y015170D01*
X006941Y015014D01*
X006586Y015370D01*
X006014Y015370D01*
X005897Y015253D01*
X005897Y015271D01*
X005828Y015438D01*
X005686Y015580D01*
X005558Y015708D01*
X005507Y015729D01*
X005558Y015750D01*
X005686Y015878D01*
X005828Y016020D01*
X005897Y016187D01*
X005897Y016794D01*
X005861Y016880D01*
X005897Y016966D01*
X005897Y017147D01*
X005828Y017315D01*
X005802Y017341D01*
X005828Y017366D01*
X005897Y017534D01*
X005897Y017665D01*
X005958Y017665D01*
X006125Y017734D01*
X006253Y017862D01*
X006323Y018029D01*
X006323Y018210D01*
X006253Y018377D01*
X006125Y018505D01*
X005958Y018575D01*
X005897Y018575D01*
X005897Y019107D01*
X005828Y019275D01*
X005767Y019336D01*
X005828Y019396D01*
X005897Y019564D01*
X005897Y020028D01*
X005832Y020185D01*
X005897Y020343D01*
X005897Y020524D01*
X005828Y020691D01*
X005802Y020717D01*
X005828Y020743D01*
X005897Y020910D01*
X005897Y021091D01*
X005828Y021258D01*
X005700Y021386D01*
X005533Y021455D01*
X005352Y021455D01*
X005184Y021386D01*
X005159Y021360D01*
X005133Y021386D01*
X004966Y021455D01*
X004784Y021455D01*
X004617Y021386D01*
X004489Y021258D01*
X004429Y021113D01*
X004367Y021139D01*
X004316Y021160D01*
X004131Y021160D01*
X004058Y021233D01*
X003891Y021302D01*
X003710Y021302D01*
X003543Y021233D01*
X003470Y021160D01*
X003285Y021160D01*
X003323Y021252D01*
X003323Y021433D01*
X003253Y021600D01*
X003125Y021728D01*
X002958Y021797D01*
X002869Y021797D01*
X002897Y021866D01*
X002897Y022314D01*
X002983Y022349D01*
X003111Y022477D01*
X003181Y022645D01*
X003181Y022826D01*
X003111Y022993D01*
X002983Y023121D01*
X002897Y023157D01*
X002897Y023251D01*
X002828Y023418D01*
X002868Y023321D02*
X005000Y023321D01*
X004782Y023163D02*
X002897Y023163D01*
X003100Y023004D02*
X004669Y023004D01*
X004603Y022846D02*
X003172Y022846D01*
X003181Y022687D02*
X004593Y022687D01*
X004597Y022529D02*
X003133Y022529D01*
X003004Y022370D02*
X004663Y022370D01*
X004768Y022212D02*
X002897Y022212D01*
X002897Y022053D02*
X004966Y022053D01*
X005435Y021895D02*
X002897Y021895D01*
X003106Y021736D02*
X005593Y021736D01*
X005752Y021578D02*
X003263Y021578D01*
X003323Y021419D02*
X004697Y021419D01*
X004492Y021261D02*
X003991Y021261D01*
X003610Y021261D02*
X003323Y021261D01*
X005053Y021419D02*
X005264Y021419D01*
X005620Y021419D02*
X005910Y021419D01*
X005825Y021261D02*
X006069Y021261D01*
X006227Y021102D02*
X005893Y021102D01*
X005897Y020944D02*
X006386Y020944D01*
X006544Y020785D02*
X005845Y020785D01*
X005855Y020627D02*
X006703Y020627D01*
X006861Y020468D02*
X005897Y020468D01*
X005883Y020310D02*
X007020Y020310D01*
X007178Y020151D02*
X005846Y020151D01*
X005897Y019993D02*
X007337Y019993D01*
X007495Y019834D02*
X005897Y019834D01*
X005897Y019676D02*
X007654Y019676D01*
X007812Y019517D02*
X005878Y019517D01*
X005790Y019359D02*
X007971Y019359D01*
X008129Y019200D02*
X005859Y019200D01*
X005897Y019042D02*
X008288Y019042D01*
X008446Y018883D02*
X005897Y018883D01*
X005897Y018725D02*
X008605Y018725D01*
X008763Y018566D02*
X005979Y018566D01*
X006223Y018408D02*
X008840Y018408D01*
X008840Y018249D02*
X006306Y018249D01*
X006323Y018091D02*
X008840Y018091D01*
X008840Y017932D02*
X006282Y017932D01*
X006165Y017774D02*
X008840Y017774D01*
X008735Y017615D02*
X005897Y017615D01*
X005865Y017457D02*
X008649Y017457D01*
X008593Y017298D02*
X005835Y017298D01*
X005897Y017140D02*
X008593Y017140D01*
X008617Y016981D02*
X005897Y016981D01*
X005885Y016823D02*
X008683Y016823D01*
X008816Y016664D02*
X005897Y016664D01*
X005897Y016506D02*
X009078Y016506D01*
X008920Y016347D02*
X005897Y016347D01*
X005897Y016189D02*
X008829Y016189D01*
X008800Y016030D02*
X005832Y016030D01*
X005679Y015872D02*
X008800Y015872D01*
X008800Y015713D02*
X005546Y015713D01*
X005711Y015555D02*
X008800Y015555D01*
X008800Y015396D02*
X005845Y015396D01*
X006718Y015238D02*
X008800Y015238D01*
X008800Y015079D02*
X007594Y015079D01*
X007752Y014921D02*
X008800Y014921D01*
X008800Y014762D02*
X007790Y014762D01*
X007790Y014604D02*
X008723Y014604D01*
X008644Y014445D02*
X007758Y014445D01*
X007599Y014287D02*
X008593Y014287D01*
X008593Y014128D02*
X006724Y014128D01*
X006882Y014287D02*
X007001Y014287D01*
X007300Y014287D02*
X007300Y014287D01*
X007300Y014445D02*
X007300Y014445D01*
X007300Y014604D02*
X007300Y014604D01*
X007300Y014762D02*
X007300Y014762D01*
X007300Y014921D02*
X007300Y014921D01*
X007300Y015079D02*
X007300Y015079D01*
X007006Y015079D02*
X006877Y015079D01*
X005876Y014128D02*
X002299Y014128D01*
X002232Y014195D02*
X002037Y014195D01*
X002037Y013657D01*
X002575Y013657D01*
X002575Y013852D01*
X002232Y014195D01*
X002037Y014128D02*
X001941Y014128D01*
X001941Y014195D02*
X001746Y014195D01*
X001403Y013852D01*
X001403Y013657D01*
X001941Y013657D01*
X001941Y013561D01*
X002037Y013561D01*
X002037Y013023D01*
X002232Y013023D01*
X002575Y013366D01*
X002575Y013561D01*
X002037Y013561D01*
X002037Y013657D01*
X001941Y013657D01*
X001941Y014195D01*
X001941Y013970D02*
X002037Y013970D01*
X002037Y013811D02*
X001941Y013811D01*
X001941Y013653D02*
X001280Y013653D01*
X001403Y013561D02*
X001403Y013366D01*
X001746Y013023D01*
X001941Y013023D01*
X001941Y013561D01*
X001403Y013561D01*
X001403Y013494D02*
X001280Y013494D01*
X001280Y013336D02*
X001434Y013336D01*
X001280Y013177D02*
X001592Y013177D01*
X001941Y013177D02*
X002037Y013177D01*
X002037Y013336D02*
X001941Y013336D01*
X001941Y013494D02*
X002037Y013494D01*
X002037Y013653D02*
X008827Y013653D01*
X008687Y013811D02*
X002575Y013811D01*
X002457Y013970D02*
X008622Y013970D01*
X009108Y013494D02*
X002575Y013494D01*
X002544Y013336D02*
X012099Y013336D01*
X012093Y013177D02*
X002385Y013177D01*
X001679Y014128D02*
X001280Y014128D01*
X001280Y013970D02*
X001521Y013970D01*
X001403Y013811D02*
X001280Y013811D01*
X001280Y014287D02*
X005718Y014287D01*
X004683Y014445D02*
X004559Y014445D01*
X003042Y014445D02*
X002776Y014445D01*
X002828Y014497D02*
X002828Y014497D01*
X002934Y014604D02*
X002945Y014604D01*
X002933Y015555D02*
X002853Y015555D01*
X002828Y015580D02*
X002828Y015580D01*
X002920Y015713D02*
X002687Y015713D01*
X002472Y015872D02*
X002964Y015872D01*
X003086Y016030D02*
X002421Y016030D01*
X002289Y016189D02*
X003171Y016189D01*
X002986Y016347D02*
X001280Y016347D01*
X001280Y016189D02*
X001602Y016189D01*
X001471Y016030D02*
X001280Y016030D01*
X001280Y015872D02*
X001420Y015872D01*
X001420Y015713D02*
X001280Y015713D01*
X001280Y015555D02*
X001433Y015555D01*
X001420Y015396D02*
X001280Y015396D01*
X001280Y015238D02*
X001420Y015238D01*
X001483Y015079D02*
X001280Y015079D01*
X001280Y014921D02*
X001451Y014921D01*
X001420Y014762D02*
X001280Y014762D01*
X001280Y014604D02*
X001445Y014604D01*
X001542Y014445D02*
X001280Y014445D01*
X001280Y013019D02*
X012101Y013019D01*
X012167Y012860D02*
X001280Y012860D01*
X001280Y012702D02*
X012278Y012702D01*
X012490Y012543D02*
X001280Y012543D01*
X001280Y012385D02*
X022114Y012385D01*
X021955Y012226D02*
X001280Y012226D01*
X001280Y012068D02*
X021797Y012068D01*
X021638Y011909D02*
X001280Y011909D01*
X001280Y011751D02*
X016370Y011751D01*
X016212Y011592D02*
X001280Y011592D01*
X001280Y011434D02*
X001655Y011434D01*
X001496Y011275D02*
X001280Y011275D01*
X001280Y011117D02*
X001338Y011117D01*
X001368Y010166D02*
X001280Y010166D01*
X001280Y010007D02*
X001527Y010007D01*
X001280Y009849D02*
X002170Y009849D01*
X002170Y009690D02*
X001280Y009690D01*
X001280Y009532D02*
X002170Y009532D01*
X002170Y009373D02*
X001280Y009373D01*
X001280Y009215D02*
X002170Y009215D01*
X002170Y009056D02*
X001280Y009056D01*
X001280Y008898D02*
X002125Y008898D01*
X002093Y008739D02*
X001280Y008739D01*
X001280Y008581D02*
X002093Y008581D01*
X002141Y008422D02*
X001280Y008422D01*
X001280Y008264D02*
X002216Y008264D01*
X002375Y008105D02*
X001280Y008105D01*
X001280Y007947D02*
X006676Y007947D01*
X006834Y008105D02*
X003225Y008105D01*
X003384Y008264D02*
X006993Y008264D01*
X007151Y008422D02*
X003459Y008422D01*
X003507Y008581D02*
X007310Y008581D01*
X007468Y008739D02*
X003507Y008739D01*
X003475Y008898D02*
X007627Y008898D01*
X007785Y009056D02*
X003430Y009056D01*
X003430Y009215D02*
X007944Y009215D01*
X008102Y009373D02*
X003430Y009373D01*
X003430Y009532D02*
X008261Y009532D01*
X008364Y009690D02*
X003430Y009690D01*
X003430Y009849D02*
X008430Y009849D01*
X008587Y010007D02*
X003430Y010007D01*
X003430Y010166D02*
X017157Y010166D01*
X016906Y010324D02*
X003430Y010324D01*
X003430Y010483D02*
X016636Y010483D01*
X016339Y010641D02*
X003430Y010641D01*
X003430Y010800D02*
X016192Y010800D01*
X016127Y010958D02*
X003367Y010958D01*
X003254Y011117D02*
X016093Y011117D01*
X016093Y011275D02*
X003010Y011275D01*
X002323Y011434D02*
X016140Y011434D01*
X017230Y011751D02*
X021480Y011751D01*
X021321Y011592D02*
X017388Y011592D01*
X017460Y011434D02*
X021163Y011434D01*
X020895Y011275D02*
X017507Y011275D01*
X020300Y014287D02*
X024690Y014287D01*
X024690Y014445D02*
X020300Y014445D01*
X020300Y014604D02*
X024690Y014604D01*
X024690Y014762D02*
X020300Y014762D01*
X020300Y014921D02*
X024690Y014921D01*
X024690Y015079D02*
X021197Y015079D01*
X021358Y015238D02*
X024690Y015238D01*
X024690Y015396D02*
X021448Y015396D01*
X021507Y015555D02*
X024690Y015555D01*
X024690Y015713D02*
X021507Y015713D01*
X021635Y015872D02*
X024690Y015872D01*
X024690Y016030D02*
X021793Y016030D01*
X021952Y016189D02*
X024690Y016189D01*
X024690Y016347D02*
X022110Y016347D01*
X020403Y015079D02*
X020300Y015079D01*
X022152Y010641D02*
X023673Y010641D01*
X023525Y010483D02*
X021993Y010483D01*
X021918Y010324D02*
X023525Y010324D01*
X023525Y010166D02*
X021786Y010166D01*
X021523Y010007D02*
X023526Y010007D01*
X023685Y009849D02*
X009630Y009849D01*
X009473Y010007D02*
X021077Y010007D01*
X024379Y009690D02*
X024690Y009690D01*
X024690Y009849D02*
X024537Y009849D01*
X014129Y002875D02*
X012939Y002875D01*
X012836Y002716D02*
X013836Y002716D01*
X013691Y002558D02*
X012805Y002558D01*
X012937Y002399D02*
X013625Y002399D01*
X013593Y002241D02*
X013003Y002241D01*
X013030Y002082D02*
X013495Y002082D01*
X013336Y001924D02*
X013030Y001924D01*
X013030Y001765D02*
X013178Y001765D01*
X012010Y003826D02*
X011590Y003826D01*
X011010Y003826D02*
X010089Y003826D01*
X009930Y003667D02*
X010787Y003667D01*
X010671Y003509D02*
X009772Y003509D01*
X009755Y003350D02*
X010605Y003350D01*
X010593Y003192D02*
X009755Y003192D01*
X009755Y003033D02*
X010595Y003033D01*
X010661Y002875D02*
X009755Y002875D01*
X009755Y002716D02*
X010049Y002716D01*
X010551Y002716D02*
X010764Y002716D01*
X009278Y004301D02*
X001280Y004301D01*
X001280Y004143D02*
X009119Y004143D01*
X008961Y003984D02*
X001280Y003984D01*
X001280Y003826D02*
X008868Y003826D01*
X008845Y003667D02*
X001280Y003667D01*
X001280Y003509D02*
X008845Y003509D01*
X008845Y003350D02*
X001280Y003350D01*
X001280Y003192D02*
X008845Y003192D01*
X008845Y003033D02*
X001280Y003033D01*
X001280Y002875D02*
X008845Y002875D01*
X008845Y002716D02*
X001280Y002716D01*
X001280Y002558D02*
X008243Y002558D01*
X008280Y002558D02*
X008320Y002558D01*
X008357Y002558D02*
X008795Y002558D01*
X008320Y002399D02*
X008280Y002399D01*
X008280Y002241D02*
X008320Y002241D01*
X008320Y002082D02*
X008280Y002082D01*
X008280Y001924D02*
X008320Y001924D01*
X008320Y001765D02*
X008280Y001765D01*
X008280Y001660D02*
X007770Y001660D01*
X007770Y001288D01*
X007783Y001206D01*
X007809Y001127D01*
X007847Y001052D01*
X007896Y000985D01*
X007955Y000926D01*
X008022Y000877D01*
X008097Y000839D01*
X008176Y000813D01*
X008258Y000800D01*
X008280Y000800D01*
X008280Y001660D01*
X008280Y001607D02*
X008320Y001607D01*
X008320Y001448D02*
X008280Y001448D01*
X008280Y001290D02*
X008320Y001290D01*
X008320Y001131D02*
X008280Y001131D01*
X008280Y000973D02*
X008320Y000973D01*
X008320Y000814D02*
X008280Y000814D01*
X008173Y000814D02*
X001427Y000814D01*
X001318Y000973D02*
X007908Y000973D01*
X007807Y001131D02*
X001282Y001131D01*
X001280Y001290D02*
X007770Y001290D01*
X007770Y001448D02*
X001280Y001448D01*
X001280Y001607D02*
X007770Y001607D01*
X007770Y001765D02*
X001280Y001765D01*
X001280Y001924D02*
X007770Y001924D01*
X007772Y002082D02*
X001280Y002082D01*
X001280Y002241D02*
X007812Y002241D01*
X007919Y002399D02*
X001280Y002399D01*
X001280Y004460D02*
X009436Y004460D01*
X009595Y004618D02*
X001280Y004618D01*
X001280Y004777D02*
X009753Y004777D01*
X009912Y004935D02*
X001280Y004935D01*
X001280Y005094D02*
X010070Y005094D01*
X010229Y005252D02*
X001280Y005252D01*
X001280Y005411D02*
X010387Y005411D01*
X010546Y005569D02*
X001280Y005569D01*
X001280Y005728D02*
X010704Y005728D01*
X010863Y005886D02*
X001280Y005886D01*
X001280Y006045D02*
X005986Y006045D01*
X005777Y006203D02*
X001280Y006203D01*
X001280Y006362D02*
X005666Y006362D01*
X005601Y006520D02*
X001280Y006520D01*
X001280Y006679D02*
X005593Y006679D01*
X005600Y006837D02*
X001280Y006837D01*
X001280Y006996D02*
X005665Y006996D01*
X005774Y007154D02*
X001280Y007154D01*
X001280Y007313D02*
X005979Y007313D01*
X006200Y007471D02*
X001280Y007471D01*
X001280Y007630D02*
X006359Y007630D01*
X006517Y007788D02*
X001280Y007788D01*
X006614Y006045D02*
X011021Y006045D01*
X008784Y000814D02*
X008427Y000814D01*
X009492Y013494D02*
X012165Y013494D01*
X012272Y013653D02*
X009773Y013653D01*
X009913Y013811D02*
X012476Y013811D01*
X009300Y017180D02*
X009300Y018680D01*
X005300Y022680D01*
X002608Y023638D02*
X024690Y023638D01*
X024675Y023797D02*
X001295Y023797D01*
X001280Y023638D02*
X001567Y023638D01*
X001456Y023480D02*
X001280Y023480D01*
X001280Y023321D02*
X001420Y023321D01*
X001440Y023163D02*
X001280Y023163D01*
X001280Y023004D02*
X001500Y023004D01*
X001428Y022846D02*
X001280Y022846D01*
X001280Y022687D02*
X001420Y022687D01*
X001468Y022529D02*
X001280Y022529D01*
X001280Y022370D02*
X001436Y022370D01*
X001420Y022212D02*
X001280Y022212D01*
X001280Y022053D02*
X001420Y022053D01*
X001420Y021895D02*
X001280Y021895D01*
X001280Y021736D02*
X001420Y021736D01*
X001421Y021578D02*
X001280Y021578D01*
X001280Y021419D02*
X001420Y021419D01*
X001420Y021261D02*
X001280Y021261D01*
X001280Y021102D02*
X001423Y021102D01*
X001420Y020944D02*
X001280Y020944D01*
X001280Y020785D02*
X001420Y020785D01*
X001420Y020627D02*
X001280Y020627D01*
X001280Y020468D02*
X001432Y020468D01*
X001420Y020310D02*
X001280Y020310D01*
X001280Y020151D02*
X001420Y020151D01*
X001420Y019993D02*
X001280Y019993D01*
X001280Y019834D02*
X001420Y019834D01*
X001437Y019676D02*
X001280Y019676D01*
X001280Y019517D02*
X001522Y019517D01*
X001460Y019359D02*
X001280Y019359D01*
X001280Y019200D02*
X001420Y019200D01*
X001420Y019042D02*
X001280Y019042D01*
X001280Y018883D02*
X001420Y018883D01*
X001450Y018725D02*
X001280Y018725D01*
X001280Y018566D02*
X001552Y018566D01*
X001711Y018408D02*
X001280Y018408D01*
X001280Y018249D02*
X001503Y018249D01*
X001429Y018091D02*
X001280Y018091D01*
X001280Y017932D02*
X001420Y017932D01*
X001467Y017774D02*
X001280Y017774D01*
X001280Y017615D02*
X001437Y017615D01*
X001420Y017457D02*
X001280Y017457D01*
X001280Y017298D02*
X001420Y017298D01*
X001420Y017140D02*
X001280Y017140D01*
X001280Y016981D02*
X001473Y016981D01*
X001608Y016823D02*
X001280Y016823D01*
X001280Y016664D02*
X001776Y016664D01*
X001280Y016506D02*
X002920Y016506D01*
X002920Y016664D02*
X002824Y016664D01*
X002842Y016671D02*
X002842Y016671D01*
X008163Y020468D02*
X012748Y020468D01*
X012602Y020310D02*
X008321Y020310D01*
X008480Y020151D02*
X012536Y020151D01*
X012503Y019993D02*
X008638Y019993D01*
X008797Y019834D02*
X012407Y019834D01*
X012248Y019676D02*
X008955Y019676D01*
X009114Y019517D02*
X012090Y019517D01*
X011931Y019359D02*
X009272Y019359D01*
X009431Y019200D02*
X011773Y019200D01*
X011614Y019042D02*
X009589Y019042D01*
X009714Y018883D02*
X011456Y018883D01*
X011297Y018725D02*
X009760Y018725D01*
X009760Y018566D02*
X011139Y018566D01*
X010980Y018408D02*
X009760Y018408D01*
X009760Y018249D02*
X010822Y018249D01*
X010663Y018091D02*
X009760Y018091D01*
X009760Y017932D02*
X010505Y017932D01*
X010346Y017774D02*
X009760Y017774D01*
X009865Y017615D02*
X010188Y017615D01*
X010029Y017457D02*
X009951Y017457D01*
X001515Y024114D02*
X024455Y024114D01*
X024611Y023955D02*
X001359Y023955D01*
D20*
X002300Y010680D02*
X001989Y010656D01*
M02*
