%
M48
M72
T01C0.0320
T02C0.0354
T03C0.0400
T04C0.0512
%
T01
X6300Y14680
X7300Y14680
X19800Y2180
X19800Y1180
T02
X1800Y1180
X6300Y6680
X9030Y9450
X12800Y13180
X9300Y14180
X9300Y17180
X13210Y19930
X8300Y23680
X7300Y23680
X6300Y23680
X5300Y22680
X16800Y11180
X19800Y13180
X20800Y15680
X20800Y17180
X20800Y22680
X21300Y10680
X18300Y5680
X14300Y2180
X12300Y3180
X11300Y3180
X2800Y8680
X24300Y2180
X24300Y1180
T03
X12300Y1680
X11300Y1680
X10300Y1680
X9300Y1680
X8300Y1680
X23300Y18180
X23300Y19180
X23300Y20180
X23300Y21180
X23300Y22180
T04
X24111Y13204
X24111Y10251
X1989Y10656
X1989Y13609
M30
